<?xml version="1.0" encoding="utf-8"?><svg xmlns="http://www.w3.org/2000/svg" xmlns:xlink="http://www.w3.org/1999/xlink"><symbol viewBox="0 0 16 16" id="data_bar_vertical_phone_16_regular" xmlns="http://www.w3.org/2000/svg">
<path fill-rule="evenodd" clip-rule="evenodd" d="M6.23529 3.41177C6.23529 2.63207 6.86736 2 7.64706 2C8.42675 2 9.05882 2.63207 9.05882 3.41176V11.8824C9.05882 12.662 8.42675 13.2941 7.64706 13.2941C6.86736 13.2941 6.23529 12.662 6.23529 11.8824V3.41177ZM7.64706 2.70588C7.25721 2.70588 6.94118 3.02192 6.94118 3.41177V11.8824C6.94118 12.2722 7.25721 12.5882 7.64706 12.5882C8.03691 12.5882 8.35294 12.2722 8.35294 11.8824V3.41176C8.35294 3.02192 8.03691 2.70588 7.64706 2.70588ZM2 9.05882C2 8.27913 2.63207 7.64706 3.41176 7.64706C4.19146 7.64706 4.82353 8.27913 4.82353 9.05882V11.8824C4.82353 12.662 4.19146 13.2941 3.41176 13.2941C2.63207 13.2941 2 12.662 2 11.8824V9.05882ZM3.41176 8.35294C3.02192 8.35294 2.70588 8.66898 2.70588 9.05882V11.8824C2.70588 12.2722 3.02192 12.5882 3.41176 12.5882C3.80161 12.5882 4.11765 12.2722 4.11765 11.8824V9.05882C4.11765 8.66898 3.80161 8.35294 3.41176 8.35294ZM10.4706 6.23529C10.4706 5.4556 11.1027 4.82353 11.8824 4.82353C12.662 4.82353 13.2941 5.4556 13.2941 6.23529V6.27055C13.1801 6.24741 13.0621 6.23526 12.9412 6.23526H12.5882C12.5882 5.84543 12.2722 5.52941 11.8824 5.52941C11.4925 5.52941 11.1765 5.84543 11.1765 6.23526H10.8236C10.7027 6.23526 10.5846 6.24741 10.4706 6.27056V6.23529ZM12.5882 11.2367C12.5882 11.2367 12.5883 11.2367 12.5883 11.2367V8.3529H12.5882V11.2367Z"/>
<path d="M10.8235 6.94122C10.2387 6.94122 9.76465 7.41527 9.76465 8.00005V12.9412C9.76465 13.526 10.2387 14 10.8235 14H12.9411C13.5259 14 13.9999 13.526 13.9999 12.9412V8.00005C13.9999 7.41527 13.5259 6.94122 12.9411 6.94122H10.8235ZM11.1764 12.2353C11.1764 12.0404 11.3344 11.8824 11.5294 11.8824H12.2352C12.4302 11.8824 12.5882 12.0404 12.5882 12.2353C12.5882 12.4303 12.4302 12.5883 12.2352 12.5883H11.5294C11.3344 12.5883 11.1764 12.4303 11.1764 12.2353Z"/>
</symbol><symbol viewBox="0 0 25 24" id="eraser_16_regular" xmlns="http://www.w3.org/2000/svg">
<path d="M16.14 2.66878L21.1085 7.6373C21.9872 8.51598 21.9872 9.9406 21.1085 10.8193L12.4267 19.4998L18.5246 19.5C18.9043 19.5 19.2181 19.7821 19.2677 20.1482L19.2746 20.25C19.2746 20.6297 18.9924 20.9435 18.6264 20.9931L18.5246 21L10.1146 21.0012C9.49836 21.0348 8.87096 20.8163 8.40024 20.3456L3.43171 15.377C2.55304 14.4984 2.55304 13.0737 3.43171 12.1951L12.958 2.66878C13.8367 1.7901 15.2613 1.7901 16.14 2.66878ZM5.9787 11.7678L4.49237 13.2557C4.19948 13.5486 4.19948 14.0235 4.49237 14.3164L9.4609 19.2849C9.60735 19.4314 9.79929 19.5046 9.99123 19.5046L10.0201 19.5L10.0586 19.5016C10.2275 19.4864 10.3923 19.4142 10.5216 19.2849L12.0077 17.7978L5.9787 11.7678ZM14.0187 3.72944L7.0397 10.7068L13.0687 16.7368L20.0478 9.75862C20.3407 9.46573 20.3407 8.99085 20.0478 8.69796L15.0793 3.72944C14.7864 3.43654 14.3116 3.43654 14.0187 3.72944Z" fill="#201F1E"/>
</symbol><symbol viewBox="0 0 25 24" id="options_16_regular" xmlns="http://www.w3.org/2000/svg">
<path d="M9.72021 13.5C11.2564 13.5 12.5437 14.5658 12.8829 15.9983L22.2202 16C22.6344 16 22.9702 16.3358 22.9702 16.75C22.9702 17.1297 22.6881 17.4435 22.322 17.4932L22.2202 17.5L12.8831 17.5007C12.5443 18.9337 11.2568 20 9.72021 20C8.18366 20 6.89616 18.9337 6.55734 17.5007L3.72021 17.5C3.306 17.5 2.97021 17.1642 2.97021 16.75C2.97021 16.3703 3.25237 16.0565 3.61844 16.0068L3.72021 16L6.55734 15.9993C6.89616 14.5663 8.18366 13.5 9.72021 13.5ZM9.72021 15C8.95608 15 8.30633 15.4898 8.06774 16.1725L8.04717 16.2352L8.00868 16.3834C7.98348 16.5016 7.97021 16.6242 7.97021 16.75C7.97021 16.9048 7.99032 17.055 8.02807 17.1979L8.06787 17.3279L8.09357 17.3966C8.35076 18.0431 8.98213 18.5 9.72021 18.5C10.484 18.5 11.1335 18.0107 11.3723 17.3285L11.4124 17.1978L11.3953 17.2581C11.444 17.0973 11.4702 16.9267 11.4702 16.75C11.4702 16.6452 11.461 16.5425 11.4433 16.4428L11.4133 16.3057L11.3933 16.2353L11.3465 16.1024C11.089 15.4565 10.4579 15 9.72021 15ZM16.2202 4C17.7568 4 19.0443 5.06632 19.3831 6.49934L22.2202 6.5C22.6344 6.5 22.9702 6.83579 22.9702 7.25C22.9702 7.6297 22.6881 7.94349 22.322 7.99315L22.2202 8L19.3831 8.00066C19.0443 9.43368 17.7568 10.5 16.2202 10.5C14.6837 10.5 13.3962 9.43368 13.0573 8.00066L3.72021 8C3.306 8 2.97021 7.66421 2.97021 7.25C2.97021 6.8703 3.25237 6.55651 3.61844 6.50685L3.72021 6.5L13.0576 6.49833C13.3968 5.06582 14.684 4 16.2202 4ZM16.2202 5.5C15.4561 5.5 14.8063 5.98976 14.5677 6.6725L14.5472 6.73515L14.5087 6.88337C14.4835 7.0016 14.4702 7.12425 14.4702 7.25C14.4702 7.40483 14.4903 7.55497 14.5281 7.69794L14.5679 7.82787L14.5936 7.89664C14.8508 8.54307 15.4821 9 16.2202 9C16.984 9 17.6335 8.51073 17.8723 7.82852L17.9124 7.69781L17.8953 7.75808C17.944 7.59729 17.9702 7.4267 17.9702 7.25C17.9702 7.14518 17.961 7.0425 17.9433 6.94275L17.9133 6.80565L17.8933 6.73529L17.8465 6.60236C17.589 5.95647 16.9579 5.5 16.2202 5.5Z" fill="#201F1E"/>
</symbol></svg>