<?xml version="1.0" encoding="UTF-8"?>
<svg width="226" height="226" fill="none" xmlns="http://www.w3.org/2000/svg"><g style="mix-blend-mode:multiply" filter="url(#filter0_dd)"><path d="M113 78.346v119.808c0 8.921-7.232 16.154-16.154 16.154h-70c-8.921 0-16.154-7.233-16.154-16.154V81.039H9.346A1.346 1.346 0 018 79.692V68.923c0-.743.603-1.346 1.346-1.346h1.346v-2.692H9.346A1.346 1.346 0 018 63.538V52.77c0-.743.603-1.346 1.346-1.346h1.346v-5.385H9.346A1.346 1.346 0 018 44.692v-8.077c0-.743.603-1.346 1.346-1.346h1.346V23.154C10.692 14.232 17.925 7 26.846 7h70C105.768 7 113 14.232 113 23.154v28.27h1.346c.744 0 1.346.602 1.346 1.345V77c0 .743-.602 1.346-1.346 1.346H113z" fill="#fff"/></g><path d="M113 78.346v119.808c0 8.921-7.232 16.154-16.154 16.154h-70c-8.921 0-16.154-7.233-16.154-16.154V81.039H9.346A1.346 1.346 0 018 79.692V68.923c0-.743.603-1.346 1.346-1.346h1.346v-2.692H9.346A1.346 1.346 0 018 63.538V52.77c0-.743.603-1.346 1.346-1.346h1.346v-5.385H9.346A1.346 1.346 0 018 44.692v-8.077c0-.743.603-1.346 1.346-1.346h1.346V23.154C10.692 14.232 17.925 7 26.846 7h70C105.768 7 113 14.232 113 23.154v28.27h1.346c.744 0 1.346.602 1.346 1.345V77c0 .743-.602 1.346-1.346 1.346H113z" fill="#fff" fill-opacity=".8"/><g filter="url(#filter1_i)"><path d="M37.615 12.385a8.077 8.077 0 008.077 8.077h32.307a8.077 8.077 0 008.077-8.077h10.77c5.947 0 10.769 4.821 10.769 10.769v175c0 5.948-4.822 10.769-10.77 10.769h-70c-5.947 0-10.769-4.821-10.769-10.769v-175c0-5.948 4.822-10.77 10.77-10.77h10.769z" fill="#fff"/></g><path d="M164.154 87.77c0-14.87-12.054-26.924-26.924-26.924M158.77 85.077l5.384 5.385 5.385-5.385" stroke="#F2920D" stroke-width="2" stroke-linecap="round" stroke-linejoin="round"/><g style="mix-blend-mode:multiply" filter="url(#filter2_dd)"><path d="M189.731 112h12.115c8.922 0 16.154 7.232 16.154 16.154v70c0 8.921-7.232 16.154-16.154 16.154h-28.269v1.346c0 .743-.603 1.346-1.346 1.346H148a1.346 1.346 0 01-1.346-1.346v-1.346H26.846c-8.921 0-16.154-7.233-16.154-16.154v-70c0-8.922 7.233-16.154 16.154-16.154h117.116v-1.346c0-.744.602-1.346 1.346-1.346h10.769c.743 0 1.346.602 1.346 1.346V112h2.692v-1.346c0-.744.603-1.346 1.347-1.346h10.769c.743 0 1.346.602 1.346 1.346V112h5.385v-1.346c0-.744.602-1.346 1.346-1.346h8.077c.743 0 1.346.602 1.346 1.346V112z" fill="#fff"/></g><path d="M189.731 112h12.115c8.922 0 16.154 7.232 16.154 16.154v70c0 8.921-7.232 16.154-16.154 16.154h-28.269v1.346c0 .743-.603 1.346-1.346 1.346H148a1.346 1.346 0 01-1.346-1.346v-1.346H26.846c-8.921 0-16.154-7.233-16.154-16.154v-70c0-8.922 7.233-16.154 16.154-16.154h117.116v-1.346c0-.744.602-1.346 1.346-1.346h10.769c.743 0 1.346.602 1.346 1.346V112h2.692v-1.346c0-.744.603-1.346 1.347-1.346h10.769c.743 0 1.346.602 1.346 1.346V112h5.385v-1.346c0-.744.602-1.346 1.346-1.346h8.077c.743 0 1.346.602 1.346 1.346V112z" fill="#F2C811" fill-opacity=".8"/><g style="mix-blend-mode:multiply" filter="url(#filter3_dd)"><path fill-rule="evenodd" clip-rule="evenodd" d="M212.615 138.923a8.077 8.077 0 00-8.077 8.077v32.308a8.077 8.077 0 008.077 8.077v10.769c0 5.948-4.822 10.769-10.77 10.769h-175c-5.947 0-10.769-4.821-10.769-10.769v-70c0-5.948 4.822-10.769 10.77-10.769h174.999c5.948 0 10.77 4.821 10.77 10.769v10.769z" fill="#fff"/></g><path fill-rule="evenodd" clip-rule="evenodd" d="M212.615 138.923a8.077 8.077 0 00-8.077 8.077v32.308a8.077 8.077 0 008.077 8.077v10.769c0 5.948-4.822 10.769-10.77 10.769h-175c-5.947 0-10.769-4.821-10.769-10.769v-70c0-5.948 4.822-10.769 10.77-10.769h174.999c5.948 0 10.77 4.821 10.77 10.769v10.769z" fill="#fff" fill-opacity=".5"/><g style="mix-blend-mode:multiply" filter="url(#filter4_dd)"><path fill-rule="evenodd" clip-rule="evenodd" d="M26.847 128.154h70v70h-70v-70z" fill="#fff"/></g><path fill-rule="evenodd" clip-rule="evenodd" d="M26.847 128.154h70v70h-70v-70z" fill="url(#paint0_linear)"/><path fill-rule="evenodd" clip-rule="evenodd" d="M43.216 185.794l12.286-12.327a10.92 10.92 0 004.774 1.905v17.397a28.124 28.124 0 01-17.06-6.975zm-2.473-2.456a28.228 28.228 0 01-7.166-18.838c0-15.109 11.817-27.453 26.699-28.269v17.344a11.007 11.007 0 00-9.423 10.899c0 2.455.802 4.723 2.159 6.554l-12.269 12.31zm22.674-47.107c14.882.816 26.699 13.16 26.699 28.269 0 15.109-11.817 27.453-26.7 28.269v-17.397a11.007 11.007 0 009.424-10.898 11.007 11.007 0 00-9.423-10.899v-17.344z" fill="#F2C811"/><g style="mix-blend-mode:multiply" filter="url(#filter5_dd)"><path fill-rule="evenodd" clip-rule="evenodd" d="M107.615 128.154h86.154v70h-86.154v-70z" fill="#fff"/></g><path fill-rule="evenodd" clip-rule="evenodd" d="M107.615 128.154h86.154v70h-86.154v-70z" fill="url(#paint1_linear)"/><path fill-rule="evenodd" clip-rule="evenodd" d="M129.154 134.885h-10.769v57.884h10.769v-57.884zm13.462 14.807h-10.769v43.077h10.769v-43.077zm2.693 13.462h10.769v29.615h-10.769v-29.615zm24.23 8.077H158.77v21.538h10.769v-21.538zm2.691-18.846H183v40.384h-10.77v-40.384z" fill="#F2C811"/><path d="M113 173.923l10.769-10.769 13.462 8.077 13.461-22.885L164.154 182l13.461-16.154 10.77 5.385" stroke="#F2920D" stroke-width="2" stroke-linecap="round" stroke-linejoin="round"/><defs><filter id="filter0_dd" x="0" y="0" width="123.692" height="223.308" filterUnits="userSpaceOnUse" color-interpolation-filters="sRGB"><feFlood flood-opacity="0" result="BackgroundImageFix"/><feColorMatrix in="SourceAlpha" values="0 0 0 0 0 0 0 0 0 0 0 0 0 0 0 0 0 0 127 0"/><feOffset dy="1"/><feGaussianBlur stdDeviation="4"/><feColorMatrix values="0 0 0 0 0.388235 0 0 0 0 0.27451 0 0 0 0 0.054902 0 0 0 0.2 0"/><feBlend in2="BackgroundImageFix" result="effect1_dropShadow"/><feColorMatrix in="SourceAlpha" values="0 0 0 0 0 0 0 0 0 0 0 0 0 0 0 0 0 0 127 0"/><feOffset dy="3"/><feGaussianBlur stdDeviation="2"/><feColorMatrix values="0 0 0 0 0.388235 0 0 0 0 0.27451 0 0 0 0 0.054902 0 0 0 0.14 0"/><feBlend in2="effect1_dropShadow" result="effect2_dropShadow"/><feBlend in="SourceGraphic" in2="effect2_dropShadow" result="shape"/></filter><filter id="filter1_i" x="16.076" y="12.385" width="91.538" height="197.538" filterUnits="userSpaceOnUse" color-interpolation-filters="sRGB"><feFlood flood-opacity="0" result="BackgroundImageFix"/><feBlend in="SourceGraphic" in2="BackgroundImageFix" result="shape"/><feColorMatrix in="SourceAlpha" values="0 0 0 0 0 0 0 0 0 0 0 0 0 0 0 0 0 0 127 0" result="hardAlpha"/><feOffset dy="1"/><feGaussianBlur stdDeviation="1.5"/><feComposite in2="hardAlpha" operator="arithmetic" k2="-1" k3="1"/><feColorMatrix values="0 0 0 0 0.388235 0 0 0 0 0.27451 0 0 0 0 0.054902 0 0 0 0.3 0"/><feBlend in2="shape" result="effect1_innerShadow"/></filter><filter id="filter2_dd" x="2.692" y="102.308" width="223.308" height="123.692" filterUnits="userSpaceOnUse" color-interpolation-filters="sRGB"><feFlood flood-opacity="0" result="BackgroundImageFix"/><feColorMatrix in="SourceAlpha" values="0 0 0 0 0 0 0 0 0 0 0 0 0 0 0 0 0 0 127 0"/><feOffset dy="1"/><feGaussianBlur stdDeviation="4"/><feColorMatrix values="0 0 0 0 0.388235 0 0 0 0 0.27451 0 0 0 0 0.054902 0 0 0 0.2 0"/><feBlend in2="BackgroundImageFix" result="effect1_dropShadow"/><feColorMatrix in="SourceAlpha" values="0 0 0 0 0 0 0 0 0 0 0 0 0 0 0 0 0 0 127 0"/><feOffset dy="3"/><feGaussianBlur stdDeviation="2"/><feColorMatrix values="0 0 0 0 0.388235 0 0 0 0 0.27451 0 0 0 0 0.054902 0 0 0 0.14 0"/><feBlend in2="effect1_dropShadow" result="effect2_dropShadow"/><feBlend in="SourceGraphic" in2="effect2_dropShadow" result="shape"/></filter><filter id="filter3_dd" x="13.076" y="115.385" width="202.538" height="97.538" filterUnits="userSpaceOnUse" color-interpolation-filters="sRGB"><feFlood flood-opacity="0" result="BackgroundImageFix"/><feColorMatrix in="SourceAlpha" values="0 0 0 0 0 0 0 0 0 0 0 0 0 0 0 0 0 0 127 0"/><feOffset dy="1"/><feGaussianBlur stdDeviation="1.5"/><feColorMatrix values="0 0 0 0 0.388235 0 0 0 0 0.27451 0 0 0 0 0.054902 0 0 0 0.2 0"/><feBlend in2="BackgroundImageFix" result="effect1_dropShadow"/><feColorMatrix in="SourceAlpha" values="0 0 0 0 0 0 0 0 0 0 0 0 0 0 0 0 0 0 127 0"/><feOffset dy="1"/><feGaussianBlur stdDeviation=".5"/><feColorMatrix values="0 0 0 0 0.388235 0 0 0 0 0.27451 0 0 0 0 0.054902 0 0 0 0.14 0"/><feBlend in2="effect1_dropShadow" result="effect2_dropShadow"/><feBlend in="SourceGraphic" in2="effect2_dropShadow" result="shape"/></filter><filter id="filter4_dd" x="23.847" y="126.154" width="76" height="76" filterUnits="userSpaceOnUse" color-interpolation-filters="sRGB"><feFlood flood-opacity="0" result="BackgroundImageFix"/><feColorMatrix in="SourceAlpha" values="0 0 0 0 0 0 0 0 0 0 0 0 0 0 0 0 0 0 127 0"/><feOffset dy="1"/><feGaussianBlur stdDeviation="1.5"/><feColorMatrix values="0 0 0 0 0.388235 0 0 0 0 0.27451 0 0 0 0 0.054902 0 0 0 0.2 0"/><feBlend in2="BackgroundImageFix" result="effect1_dropShadow"/><feColorMatrix in="SourceAlpha" values="0 0 0 0 0 0 0 0 0 0 0 0 0 0 0 0 0 0 127 0"/><feOffset dy="1"/><feGaussianBlur stdDeviation=".5"/><feColorMatrix values="0 0 0 0 0.388235 0 0 0 0 0.27451 0 0 0 0 0.054902 0 0 0 0.14 0"/><feBlend in2="effect1_dropShadow" result="effect2_dropShadow"/><feBlend in="SourceGraphic" in2="effect2_dropShadow" result="shape"/></filter><filter id="filter5_dd" x="104.615" y="126.154" width="92.154" height="76" filterUnits="userSpaceOnUse" color-interpolation-filters="sRGB"><feFlood flood-opacity="0" result="BackgroundImageFix"/><feColorMatrix in="SourceAlpha" values="0 0 0 0 0 0 0 0 0 0 0 0 0 0 0 0 0 0 127 0"/><feOffset dy="1"/><feGaussianBlur stdDeviation="1.5"/><feColorMatrix values="0 0 0 0 0.388235 0 0 0 0 0.27451 0 0 0 0 0.054902 0 0 0 0.2 0"/><feBlend in2="BackgroundImageFix" result="effect1_dropShadow"/><feColorMatrix in="SourceAlpha" values="0 0 0 0 0 0 0 0 0 0 0 0 0 0 0 0 0 0 127 0"/><feOffset dy="1"/><feGaussianBlur stdDeviation=".5"/><feColorMatrix values="0 0 0 0 0.388235 0 0 0 0 0.27451 0 0 0 0 0.054902 0 0 0 0.14 0"/><feBlend in2="effect1_dropShadow" result="effect2_dropShadow"/><feBlend in="SourceGraphic" in2="effect2_dropShadow" result="shape"/></filter><linearGradient id="paint0_linear" x1="61.847" y1="128.154" x2="61.847" y2="198.154" gradientUnits="userSpaceOnUse"><stop stop-color="#fff" stop-opacity=".5"/><stop offset="1" stop-color="#fff"/></linearGradient><linearGradient id="paint1_linear" x1="150.692" y1="128.154" x2="150.692" y2="198.154" gradientUnits="userSpaceOnUse"><stop stop-color="#fff" stop-opacity=".5"/><stop offset="1" stop-color="#fff"/></linearGradient></defs></svg>