<?xml version="1.0" encoding="UTF-8"?>
<svg width="100%" height="100%" viewBox="0 0 24 24" version="1.1" xmlns="http://www.w3.org/2000/svg" xmlns:xlink="http://www.w3.org/1999/xlink">
    <title>cartesianChartResponsiveIcon</title>
    <defs></defs>
    <g id="Atoms" stroke="none" stroke-width="1" fill="none" fill-rule="evenodd">
        <g fill="#333333">
            <path d="M12,16.5703125 L13.140625,16.5703125 L13.140625,10.859375 L12,10.859375 L12,16.5703125 Z M10.8515625,9.7109375 L14.28125,9.7109375 L14.28125,17.7109375 L10.8515625,17.7109375 L10.8515625,9.7109375 Z M7.421875,16.5703125 L8.5703125,16.5703125 L8.5703125,8.5703125 L7.421875,8.5703125 L7.421875,16.5703125 Z M6.28125,7.4296875 L9.7109375,7.4296875 L9.7109375,17.7109375 L6.28125,17.7109375 L6.28125,7.4296875 Z M16.5703125,16.5703125 L17.7109375,16.5703125 L17.7109375,6.28125 L16.5703125,6.28125 L16.5703125,16.5703125 Z M15.421875,5.140625 L18.8515625,5.140625 L18.8515625,17.7109375 L15.421875,17.7109375 L15.421875,5.140625 Z M5.140625,4 L5.140625,18.859375 L20,18.859375 L20,20 L4,20 L4,4 L5.140625,4 Z" id=""></path>
        </g>
    </g>
</svg>