<svg width="16" height="16" viewBox="0 0 16 16" fill="none" xmlns="http://www.w3.org/2000/svg">
<path d="M1 12.6953V7H5V0H10V3H14V4.79688C13.8333 4.85417 13.6667 4.92448 13.5 5.00781C13.3333 5.09115 13.1667 5.17969 13 5.27344V4H10V7.57031C9.91146 7.65365 9.83073 7.73177 9.75781 7.80469C9.6849 7.8724 9.61979 7.9349 9.5625 7.99219L9 8.55469V1H6V11.0156C5.81771 11.2188 5.66146 11.4271 5.53125 11.6406C5.40104 11.849 5.28646 12.0443 5.1875 12.2266L5.14844 12.2969C5.1276 12.3229 5.10417 12.3464 5.07812 12.3672C5.05208 12.3828 5.02604 12.401 5 12.4219V8H2V12.7969L1 12.6953Z" fill="#3A3A38"/>
<path d="M15.7734 6.25C15.9036 6.38542 15.9688 6.55729 15.9688 6.76562C15.9688 6.96354 15.9167 7.1849 15.8125 7.42969C15.7031 7.67448 15.5625 7.92708 15.3906 8.1875C15.2135 8.44792 15.0156 8.71094 14.7969 8.97656C14.5781 9.24219 14.3594 9.4974 14.1406 9.74219C13.9219 9.98177 13.7135 10.2031 13.5156 10.4062C13.3125 10.6094 13.1406 10.7812 13 10.9219L10.2734 13.6484C10.1276 13.7943 9.96094 13.9036 9.77344 13.9766C9.83073 13.862 9.8776 13.7474 9.91406 13.6328C9.95052 13.5182 9.96875 13.401 9.96875 13.2812C9.96875 13.0469 9.93229 12.8359 9.85938 12.6484L12.0391 10.4688C12.3724 10.1354 12.6667 9.83854 12.9219 9.57812C13.1719 9.31771 13.3906 9.08594 13.5781 8.88281C13.7656 8.67448 13.9271 8.48958 14.0625 8.32812C14.1979 8.16667 14.3177 8.01562 14.4219 7.875C14.526 7.73438 14.6172 7.60156 14.6953 7.47656C14.7734 7.35156 14.849 7.22135 14.9219 7.08594C14.9115 7.09635 14.8984 7.10417 14.8828 7.10938C14.8672 7.10938 14.8516 7.11458 14.8359 7.125C14.6797 7.19792 14.5 7.28646 14.2969 7.39062C14.0885 7.48958 13.8464 7.63542 13.5703 7.82812C13.2891 8.02083 12.9661 8.27083 12.6016 8.57812C12.2318 8.88542 11.8073 9.27865 11.3281 9.75781L9.14844 11.9375C8.95573 11.8698 8.7474 11.8359 8.52344 11.8359C8.3724 11.8359 8.24219 11.8568 8.13281 11.8984C8.01823 11.9349 7.91146 11.987 7.8125 12.0547C7.88021 11.862 7.99219 11.6875 8.14844 11.5312L10.625 9.05469C10.7083 8.97135 10.849 8.83854 11.0469 8.65625C11.2396 8.47396 11.4661 8.27344 11.7266 8.05469C11.987 7.83073 12.2708 7.60156 12.5781 7.36719C12.8854 7.1276 13.1953 6.91146 13.5078 6.71875C13.8203 6.52083 14.125 6.35938 14.4219 6.23438C14.7135 6.10938 14.9766 6.04688 15.2109 6.04688C15.4453 6.04688 15.6328 6.11458 15.7734 6.25Z" fill="#3A3A38"/>
<path d="M8.52344 11.3359C8.8151 11.3359 9.08073 11.3802 9.32031 11.4688C9.5599 11.5573 9.76562 11.6849 9.9375 11.8516C10.1042 12.0182 10.2344 12.224 10.3281 12.4688C10.4219 12.7083 10.4688 12.9792 10.4688 13.2812C10.4688 13.6458 10.3724 13.9922 10.1797 14.3203C9.98177 14.6484 9.72135 14.9375 9.39844 15.1875C9.07552 15.4375 8.70573 15.6354 8.28906 15.7812C7.8724 15.9271 7.44271 16 7 16C6.375 15.9427 5.79427 15.8464 5.25781 15.7109C5.02865 15.6536 4.79948 15.5859 4.57031 15.5078C4.33594 15.4245 4.11719 15.3307 3.91406 15.2266C3.71094 15.1172 3.52865 14.9948 3.36719 14.8594C3.20573 14.724 3.08333 14.5703 3 14.3984C3.02604 14.4036 3.05729 14.4062 3.09375 14.4062C3.125 14.4115 3.16146 14.4141 3.20312 14.4141C3.23958 14.4141 3.28646 14.4141 3.34375 14.4141C3.52083 14.4141 3.74479 14.401 4.01562 14.375C4.28125 14.349 4.5599 14.2917 4.85156 14.2031C5.14323 14.1094 5.42969 13.9766 5.71094 13.8047C5.98698 13.6276 6.22396 13.3906 6.42188 13.0938C6.55208 12.8542 6.68229 12.6276 6.8125 12.4141C6.94271 12.2005 7.08854 12.0156 7.25 11.8594C7.41146 11.6979 7.59375 11.5703 7.79688 11.4766C8 11.3828 8.24219 11.3359 8.52344 11.3359ZM7.03906 15C7.34115 14.9948 7.63802 14.9427 7.92969 14.8438C8.21615 14.7448 8.47396 14.6146 8.70312 14.4531C8.93229 14.2917 9.11719 14.1094 9.25781 13.9062C9.39844 13.7031 9.46875 13.4948 9.46875 13.2812C9.46875 12.651 9.15365 12.3359 8.52344 12.3359C8.40365 12.3359 8.30208 12.3516 8.21875 12.3828C8.13021 12.4141 8.04427 12.4714 7.96094 12.5547C7.8724 12.638 7.78385 12.7526 7.69531 12.8984C7.60156 13.0391 7.49219 13.2214 7.36719 13.4453L7.25781 13.6406C7.07552 13.9219 6.86979 14.1589 6.64062 14.3516C6.40625 14.5391 6.16146 14.7005 5.90625 14.8359C6.09375 14.8776 6.28385 14.9115 6.47656 14.9375C6.66927 14.9635 6.85677 14.9844 7.03906 15Z" fill="#3A3A38"/>
</svg>
