<svg role="img" xmlns="http://www.w3.org/2000/svg">
	<symbol viewBox="0 0 16 16" id="4CircleLow">
		<circle fill="#444444" cx="8" cy="8" r="8" class="fwns" />
	</symbol>
	<symbol viewBox="0 0 16 16" id="Circle25">
		<circle fill="#FAFAFA" cx="8" cy="8" r="7.5" class="nfwns" />
		<path fill="#646464" d="M8,8h7.5c0-4.136-3.364-7.5-7.5-7.5V8z" class="fwns" />
		<g>
			<path fill="#444444" d="M8,0C3.582,0,0,3.582,0,8s3.582,8,8,8s8-3.582,8-8S12.418,0,8,0z M8,15c-3.86,0-7-3.14-7-7s3.14-7,7-7s7,3.14,7,7S11.86,15,8,15z" class="fwns" />
		</g>
	</symbol>
	<symbol viewBox="0 0 16 16" id="Circle75">
		<circle fill="#FAFAFA" cx="8" cy="8" r="7.5" class="nfwns" />
		<path fill="#646464" d="M8,15.5c4.136,0,7.5-3.364,7.5-7.5S12.136,0.5,8,0.5V8H0.5C0.5,12.136,3.864,15.5,8,15.5z" class="fwns" />
		<g>
			<path fill="#444444" d="M0,8c0,4.418,3.582,8,8,8s8-3.582,8-8s-3.582-8-8-8S0,3.582,0,8z M1,8c0-3.86,3.14-7,7-7s7,3.14,7,7s-3.14,7-7,7S1,11.86,1,8z" class="fwns" />
		</g>
	</symbol>
	<symbol viewBox="0 0 16 16" id="CircleEmpty">
		<circle fill="#FAFAFA" cx="8" cy="8" r="7.5" class="nfwns" />
		<path fill="#444444" d="M16,8c0,4.418-3.582,8-8,8s-8-3.582-8-8s3.582-8,8-8S16,3.582,16,8z M15,8c0-3.86-3.14-7-7-7S1,4.14,1,8s3.14,7,7,7S15,11.86,15,8z" class="fwns" />
	</symbol>
	<symbol viewBox="0 0 16 16" id="CircleFilled">
		<circle fill="#646464" cx="8" cy="8" r="7.5" class="fwns" />
		<path fill="#444444" d="M16,8c0,4.418-3.582,8-8,8s-8-3.582-8-8s3.582-8,8-8S16,3.582,16,8z M15,8c0-3.86-3.14-7-7-7S1,4.14,1,8s3.14,7,7,7S15,11.86,15,8z" class="fwns" />
	</symbol>
	<symbol viewBox="0 0 16 16" id="CircleHalf">
		<circle fill="#FAFAFA" cx="8" cy="8" r="7.5" class="nfwns" />
		<path fill="#646464" d="M15.5,8c0-4.136-3.364-7.5-7.5-7.5v15C12.136,15.5,15.5,12.136,15.5,8z" class="fwns" />
		<path fill="#444444" d="M16,8c0,4.418-3.582,8-8,8s-8-3.582-8-8s3.582-8,8-8S16,3.582,16,8z M15,8c0-3.86-3.14-7-7-7S1,4.14,1,8s3.14,7,7,7S15,11.86,15,8z" class="fwns" />
	</symbol>
	<symbol viewBox="0 0 16 16" id="CircleHigh">
		<circle fill="#64B178" cx="8" cy="8" r="7.5" class="fwns" />
		<path fill="#305A3B" d="M16,8c0,4.418-3.582,8-8,8s-8-3.582-8-8s3.582-8,8-8S16,3.582,16,8z M15,8c0-3.86-3.14-7-7-7S1,4.14,1,8s3.14,7,7,7S15,11.86,15,8z" class="fwns" />
	</symbol>
	<symbol viewBox="0 0 16 16" id="CircleLow">
		<circle fill="#F26E5F" cx="8" cy="8" r="7.5" class="fwns" />
		<path fill="#940F00" d="M16,8c0,4.418-3.582,8-8,8s-8-3.582-8-8s3.582-8,8-8S16,3.582,16,8z M15,8c0-3.86-3.14-7-7-7S1,4.14,1,8s3.14,7,7,7S15,11.86,15,8z" class="fwns" />
	</symbol>
	<symbol viewBox="0 0 16 16" id="CircleMedium">
		<circle fill="#D7962E" cx="8" cy="8" r="7.5" class="fwns" />
		<path fill="#A4711E" d="M16,8c0,4.418-3.582,8-8,8s-8-3.582-8-8s3.582-8,8-8S16,3.582,16,8z M15,8c0-3.86-3.14-7-7-7S1,4.14,1,8s3.14,7,7,7S15,11.86,15,8z" class="fwns" />
	</symbol>
	<symbol viewBox="0 0 16 16" id="CircleMedium1">
		<circle fill="#B2B2B2" cx="8" cy="8" r="7.5" class="fwns" />
		<path fill="#646464" d="M16,8c0,4.418-3.582,8-8,8s-8-3.582-8-8s3.582-8,8-8S16,3.582,16,8z M15,8c0-3.86-3.14-7-7-7S1,4.14,1,8s3.14,7,7,7S15,11.86,15,8z" class="fwns" />
	</symbol>
	<symbol viewBox="0 0 16 16" id="CircleSymbolHigh">
		<g>
			<rect fill="none" width="16" height="16" class="fwns" />
			<circle fill="#FAFAFA" cx="8" cy="8" r="7.5" class="nfwns" />
			<path fill="#64B178" d="M8,0.5C3.864,0.5,0.5,3.864,0.5,8s3.364,7.5,7.5,7.5s7.5-3.364,7.5-7.5S12.136,0.5,8,0.5z M6.5,13.204L2.046,8.75L3.75,7.046l2.75,2.75l5.75-5.75l1.704,1.704L6.5,13.204z" class="fwns" />
			<path fill="#305A3B" d="M8,0C3.582,0,0,3.581,0,8s3.582,8,8,8s8-3.581,8-8S12.418,0,8,0z M8,15c-3.86,0-7-3.14-7-7s3.14-7,7-7c3.049,0,5.642,1.963,6.599,4.688l-2.349-2.35L6.5,9.089l-2.75-2.75L1.339,8.75L6.5,13.911l8.133-8.133C14.867,6.478,15,7.223,15,8C15,11.86,11.86,15,8,15z M13.247,5.75L6.5,12.497L2.753,8.75L3.75,7.753l2.75,2.75l5.75-5.75L13.247,5.75z" class="fwns" />
		</g>
	</symbol>
	<symbol viewBox="0 0 16 16" id="CircleSymbolLow">
		<circle fill="#F26E5F" cx="8" cy="8" r="7.5" class="fwns" />
		<path fill="#940F00" d="M16,8c0,4.418-3.582,8-8,8s-8-3.582-8-8s3.582-8,8-8S16,3.582,16,8z M15,8c0-3.86-3.14-7-7-7S1,4.14,1,8s3.14,7,7,7S15,11.86,15,8z" class="fwns" />
		<polygon fill="#FAFAFA" points="8,10.121 4.707,13.414 2.586,11.293 5.879,8 2.586,4.707 4.707,2.586 8,5.879 11.293,2.586 13.414,4.707 10.121,8 13.414,11.293 11.293,13.414 " class="nfwns" />
		<g>
			<path fill="#940F00" d="M11.293,3.293l1.414,1.414L9.414,8l3.293,3.293l-1.414,1.414L8,9.414l-3.293,3.293l-1.414-1.414L6.586,8L3.293,4.707l1.414-1.414L8,6.586L11.293,3.293 M11.293,1.879L8,5.172L4.707,1.879L1.879,4.707L5.172,8l-3.293,3.293l2.828,2.828L8,10.828l3.293,3.293l2.828-2.828L10.828,8l3.293-3.293L11.293,1.879L11.293,1.879z" class="fwns" />
		</g>
	</symbol>
	<symbol viewBox="0 0 16 16" id="CircleSymbolMedium">
		<circle fill="#D7962E" cx="8" cy="8" r="7.5" class="fwns" />
		<rect x="6.5" y="1.5" fill="#FAFAFA" width="3" height="9" class="fwns" />
		<ellipse fill="#FAFAFA" cx="8" cy="13" rx="2" ry="1.7" class="nfwns" />
		<path fill="#A4711E" d="M8,0C3.582,0,0,3.582,0,8s3.582,8,8,8s8-3.582,8-8S12.418,0,8,0z M8,14.2c-0.827,0-1.5-0.538-1.5-1.2s0.673-1.2,1.5-1.2s1.5,0.538,1.5,1.2S8.827,14.2,8,14.2z M9,10H7V2h2V10z M1,8c0-3.165,2.112-5.842,5-6.705V11h0.97c-0.865,0.346-1.47,1.109-1.47,2c0,0.798,0.488,1.49,1.21,1.876C3.465,14.268,1,11.419,1,8z M9.29,14.876C10.013,14.49,10.5,13.798,10.5,13c0-0.891-0.604-1.654-1.47-2H10V1.295c2.888,0.863,5,3.54,5,6.705C15,11.419,12.535,14.268,9.29,14.876z" class="fwns" />
	</symbol>
	<symbol viewBox="0 0 16 16" id="ColoredArrowDown">
		<g>
			<polygon fill="#F26E5F" points="6.5,0.5 6.5,10.086 2.55,6.136 1.136,7.55 7.5,13.914 13.864,7.55 12.45,6.136 8.5,10.086 8.5,0.5 " class="fwns" />
		</g>
		<path fill="#940F00" d="M7.5,13.207L1.843,7.55L2.55,6.843L7,11.293V1h1v10.293l4.45-4.45l0.707,0.707L7.5,13.207 M7.5,14.621l7.071-7.071L12.45,5.429L9,8.879V0H6v8.879l-3.45-3.45L0.428,7.55L7.5,14.621L7.5,14.621z" class="fwns" />
	</symbol>
	<symbol viewBox="0 0 16 16" id="ColoredArrowDownRight">
		<g>
			<polygon fill="#D7962E" points="4.5,13.5 4.5,11.5 10.043,11.5 2.918,4.375 4.375,2.918 11.5,10.043 11.5,4.5 13.5,4.5 13.5,13.5 " class="fwns" />
		</g>
		<path fill="#A4711E" d="M4.375,3.625L12,11.25V5h1v8H5v-1h6.25L3.625,4.375L4.375,3.625 M4.375,2.211L2.211,4.375L8.836,11H4v3h10V4h-3v4.836L4.375,2.211L4.375,2.211z" class="fwns" />
	</symbol>
	<symbol viewBox="0 0 16 16" id="ColoredArrowRight">
		<g>
			<polygon fill="#D7962E" points="0.5,6.5 10.086,6.5 6.136,2.55 7.55,1.136 13.914,7.5 7.55,13.864 6.136,12.45 10.086,8.5 0.5,8.5 " class="fwns" />
		</g>
		<path fill="#A4711E" d="M13.207,7.5L7.55,13.157L6.843,12.45L11.293,8H1V7h10.293l-4.45-4.45L7.55,1.843L13.207,7.5 M14.621,7.5L7.55,0.428L5.429,2.55L8.879,6H0v3h8.879l-3.45,3.45l2.121,2.121L14.621,7.5L14.621,7.5z" class="fwns" />
	</symbol>
	<symbol viewBox="0 0 16 16" id="ColoredArrowUp">
		<g>
			<polygon fill="#64B178" points="6.5,14.5 6.5,4.914 2.55,8.864 1.136,7.45 7.5,1.086 13.864,7.45 12.45,8.864 8.5,4.914 8.5,14.5 " class="fwns" />
		</g>
		<path fill="#305A3B" d="M7.5,1.793l5.657,5.657L12.45,8.157L8,3.707V14H7V3.707l-4.45,4.45L1.843,7.45L7.5,1.793 M7.5,0.379L0.428,7.45L2.55,9.571L6,6.121V15h3V6.121l3.45,3.45l2.121-2.121L7.5,0.379L7.5,0.379z" class="fwns" />
	</symbol>
	<symbol viewBox="0 0 16 16" id="ColoredArrowUpRight">
		<g>
			<polygon fill="#D7962E" points="2.918,11.625 10.043,4.5 4.5,4.5 4.5,2.5 13.5,2.5 13.5,11.5 11.5,11.5 11.5,5.957 4.375,13.082 " class="fwns" />
		</g>
		<path fill="#A4711E" d="M13,3v8h-1V4.75l-7.625,7.625l-0.75-0.75L11.25,4H5V3H13 M14,2H4v3h4.836l-6.625,6.625l2.164,2.164L11,7.164V12h3V2L14,2z" class="fwns" />
	</symbol>
    <symbol viewBox="0 0 16 16" id="ColoredArrowUpRed">
        <g>
            <polygon fill="#F26E5F" points="6.5,14.5 6.5,4.9 2.5,8.9 1.1,7.4 7.5,1.1 13.9,7.4 12.4,8.9 8.5,4.9 8.5,14.5" class="fwns" />
        </g>
        <path fill="#940F00" d="M7.5,1.8l5.7,5.7l-0.7,0.7L8,3.7V14H7V3.7L2.6,8.2L1.8,7.4L7.5,1.8 M7.5,0.4L0.4,7.4l2.1,2.1L6,6.1V15h3V6.1l3.4,3.5l2.1-2.1L7.5,0.4L7.5,0.4z" class="fwns" />
    </symbol>
    <symbol viewBox="0 0 16 16" id="ColoredArrowDownGreen">
        <g>
            <polygon fill="#64B178" points="6.5,0.5 6.5,10.1 2.5,6.1 1.1,7.6 7.5,13.9 13.9,7.6 12.4,6.1 8.5,10.1 8.5,0.5" class="fwns" />
        </g>
        <path fill="#305A3B" d="M7.5,13.2L1.8,7.6l0.7-0.7L7,11.3V1h1v10.3l4.4-4.4l0.7,0.7L7.5,13.2 M7.5,14.6l7.1-7.1l-2.1-2.1L9,8.9V0H6v8.9L2.5,5.4L0.4,7.6L7.5,14.6L7.5,14.6z" class="fwns" />
    </symbol>
	<symbol viewBox="0 0 16 16" id="FlagBlack">
		<g>
			<polygon fill="#646464" points="7.5,2.5 7.5,0.5 2.5,0.5 2.5,7.5 7.5,7.5 7.5,9.5 12.5,9.5 12.5,2.5 " class="fwns" />
			<path fill="#444444" d="M8,2V0H2.5v1H7v6H2.5v1H7v2h6V2H8z M12,9H8V3h4V9z" class="fwns" />
			<rect x="2" fill="#444444" width="1" height="16" class="fwns" />
		</g>
	</symbol>
	<symbol viewBox="0 0 16 16" id="FlagHigh">
		<g>
			<polygon fill="#84C28A" points="7.5,2.5 7.5,0.5 2.5,0.5 2.5,7.5 7.5,7.5 7.5,9.5 12.5,9.5 12.5,2.5 " class="fwns" />
			<path fill="#449E44" d="M8,2V0H2.5v1H7v6H2.5v1H7v2h6V2H8z M12,9H8V3h4V9z" class="fwns" />
			<rect x="2" fill="#444444" width="1" height="16" class="fwns" />
		</g>
	</symbol>
	<symbol viewBox="0 0 16 16" id="FlagLow">
		<g>
			<polygon fill="#F78272" points="7.5,2.5 7.5,0.5 2.5,0.5 2.5,7.5 7.5,7.5 7.5,9.5 12.5,9.5 12.5,2.5 " class="fwns" />
			<path fill="#F25021" d="M8,2V0H2.5v1H7v6H2.5v1H7v2h6V2H8z M12,9H8V3h4V9z" class="fwns" />
			<rect x="2" fill="#444444" width="1" height="16" class="fwns" />
		</g>
	</symbol>
	<symbol viewBox="0 0 16 16" id="FlagMedium">
		<g>
			<polygon fill="#F9D087" points="7.5,2.5 7.5,0.5 2.5,0.5 2.5,7.5 7.5,7.5 7.5,9.5 12.5,9.5 12.5,2.5 " class="fwns" />
			<path fill="#F9B23E" d="M8,2V0H2.5v1H7v6H2.5v1H7v2h6V2H8z M12,9H8V3h4V9z" class="fwns" />
			<rect x="2" fill="#444444" width="1" height="16" class="fwns" />
		</g>
	</symbol>
	<symbol viewBox="0 0 16 16" id="GreyArrowDown">
		<g>
			<polygon fill="#B2B2B2" points="6.5,0.5 6.5,10.086 2.55,6.136 1.136,7.55 7.5,13.914 13.864,7.55 12.45,6.136 8.5,10.086 8.5,0.5 " class="fwns" />
		</g>
		<path fill="#646464" d="M7.5,13.207L1.843,7.55L2.55,6.843L7,11.293V1h1v10.293l4.45-4.45l0.707,0.707L7.5,13.207 M7.5,14.621l7.071-7.071L12.45,5.429L9,8.879V0H6v8.879l-3.45-3.45L0.428,7.55L7.5,14.621L7.5,14.621z" class="fwns" />
	</symbol>
	<symbol viewBox="0 0 16 16" id="GreyArrowDownRight">
		<g>
			<polygon fill="#B2B2B2" points="4.5,13.5 4.5,11.5 10.043,11.5 2.918,4.375 4.375,2.918 11.5,10.043 11.5,4.5 13.5,4.5 13.5,13.5 " class="fwns" />
		</g>
		<path fill="#646464" d="M4.375,3.625L12,11.25V5h1v8H5v-1h6.25L3.625,4.375L4.375,3.625 M4.375,2.211L2.211,4.375L8.836,11H4v3h10V4h-3v4.836L4.375,2.211L4.375,2.211z" class="fwns" />
	</symbol>
	<symbol viewBox="0 0 16 16" id="GreyArrowRight">
		<g>
			<polygon fill="#B2B2B2" points="0.5,6.5 10.086,6.5 6.136,2.55 7.55,1.136 13.914,7.5 7.55,13.864 6.136,12.45 10.086,8.5 0.5,8.5 " class="fwns" />
		</g>
		<path fill="#646464" d="M13.207,7.5L7.55,13.157L6.843,12.45L11.293,8H1V7h10.293l-4.45-4.45L7.55,1.843L13.207,7.5 M14.621,7.5L7.55,0.428L5.429,2.55L8.879,6H0v3h8.879l-3.45,3.45l2.121,2.121L14.621,7.5L14.621,7.5z" class="fwns" />
	</symbol>
	<symbol viewBox="0 0 16 16" id="GreyArrowUp">
		<g>
			<polygon fill="#B2B2B2" points="6.5,14.5 6.5,4.914 2.55,8.864 1.136,7.45 7.5,1.086 13.864,7.45 12.45,8.864 8.5,4.914 8.5,14.5 " class="fwns" />
		</g>
		<path fill="#646464" d="M7.5,1.793l5.657,5.657L12.45,8.157L8,3.707V14H7V3.707l-4.45,4.45L1.843,7.45L7.5,1.793 M7.5,0.379L0.428,7.45L2.55,9.571L6,6.121V15h3V6.121l3.45,3.45l2.121-2.121L7.5,0.379L7.5,0.379z" class="fwns" />
	</symbol>
	<symbol viewBox="0 0 16 16" id="GreyArrowUpRight">
		<g>
			<polygon fill="#B2B2B2" points="2.918,11.625 10.043,4.5 4.5,4.5 4.5,2.5 13.5,2.5 13.5,11.5 11.5,11.5 11.5,5.957 4.375,13.082 " class="fwns" />
		</g>
		<path fill="#646464" d="M13,3v8h-1V4.75l-7.625,7.625l-0.75-0.75L11.25,4H5V3H13 M14,2H4v3h4.836l-6.625,6.625l2.164,2.164L11,7.164V12h3V2L14,2z" class="fwns" />
	</symbol>
	<symbol viewBox="0 0 16 16" id="Quadrant25">
		<rect x="0.5" y="0.5" fill="#FAFAFA" width="14" height="14" class="fwns" />
		<rect x="0.5" y="7.5" fill="#646464" width="7" height="7" class="fwns" />
		<path fill="#444444" d="M0,0v15h15V0H0z M7,14H1V8h6V14z M7,7H1V1h6V7z M14,14H8V8h6V14z M14,7H8V1h6V7z" class="fwns" />
	</symbol>
	<symbol viewBox="0 0 16 16" id="Quadrant25Colored">
		<rect x="0.5" y="0.5" fill="#FAFAFA" width="14" height="14" class="fwns" />
		<rect x="0.5" y="7.5" fill="#83BEEC" width="7" height="7" class="fwns" />
		<path fill="#444444" d="M0,0v15h15V0H0z M7,14H1V8h6V14z M7,7H1V1h6V7z M14,14H8V8h6V14z M14,7H8V1h6V7z" class="fwns" />
	</symbol>
	<symbol viewBox="0 0 16 16" id="Quadrant50">
		<rect x="0.5" y="0.5" fill="#FAFAFA" width="14" height="14" class="fwns" />
		<rect x="0.5" y="7.5" fill="#646464" width="14" height="7" class="fwns" />
		<path fill="#444444" d="M0,0v15h15V0H0z M7,14H1V8h6V14z M7,7H1V1h6V7z M14,14H8V8h6V14z M14,7H8V1h6V7z" class="fwns" />
	</symbol>
	<symbol viewBox="0 0 16 16" id="Quadrant50Colored">
		<rect x="0.5" y="0.5" fill="#FAFAFA" width="14" height="14" class="fwns" />
		<rect x="0.5" y="7.5" fill="#83BEEC" width="14" height="7" class="fwns" />
		<path fill="#444444" d="M0,0v15h15V0H0z M7,14H1V8h6V14z M7,7H1V1h6V7z M14,14H8V8h6V14z M14,7H8V1h6V7z" class="fwns" />
	</symbol>
	<symbol viewBox="0 0 16 16" id="Quadrant75">
		<rect x="7" y="7" fill="#646464" width="8" height="8" class="fwns" />
		<rect x="7" fill="#FAFAFA" width="8" height="8" class="fwns" />
		<rect y="7" fill="#646464" width="8" height="8" class="fwns" />
		<rect fill="#646464" width="8" height="8" class="fwns" />
		<path fill="#444444" d="M15,15H7V7h8V15z M14,14V8H8v6H14z" class="fwns" />
		<path fill="#444444" d="M15,8H7V0h8V8z M14,7V1H8v6H14z" class="fwns" />
		<path fill="#444444" d="M8,15H0V7h8V15z M7,14V8H1v6H7z" class="fwns" />
		<path fill="#444444" d="M8,8H0V0h8V8z M7,7V1H1v6H7z" class="fwns" />
	</symbol>
	<symbol viewBox="0 0 16 16" id="Quadrant75Colored">
		<rect x="7" y="7" fill="#83BEEC" width="8" height="8" class="fwns" />
		<rect x="7" fill="#FAFAFA" width="8" height="8" class="fwns" />
		<rect y="7" fill="#83BEEC" width="8" height="8" class="fwns" />
		<rect fill="#83BEEC" width="8" height="8" class="fwns" />
		<path fill="#444444" d="M15,15H7V7h8V15z M14,14V8H8v6H14z" class="fwns" />
		<path fill="#444444" d="M15,8H7V0h8V8z M14,7V1H8v6H14z" class="fwns" />
		<path fill="#444444" d="M8,15H0V7h8V15z M7,14V8H1v6H7z" class="fwns" />
		<path fill="#444444" d="M8,8H0V0h8V8z M7,7V1H1v6H7z" class="fwns" />
	</symbol>
	<symbol viewBox="0 0 16 16" id="QuadrantEmpty">
		<rect x="0.5" y="0.5" fill="#FAFAFA" width="14" height="14" class="fwns" />
		<path fill="#444444" d="M0,0v15h15V0H0z M7,14H1V8h6V14z M7,7H1V1h6V7z M14,14H8V8h6V14z M14,7H8V1h6V7z" class="fwns" />
	</symbol>
	<symbol viewBox="0 0 16 16" id="QuadrantFull">
		<rect x="0.5" y="0.5" fill="#646464" width="14" height="14" class="fwns" />
		<path fill="#444444" d="M0,0v15h15V0H0z M7,14H1V8h6V14z M7,7H1V1h6V7z M14,14H8V8h6V14z M14,7H8V1h6V7z" class="fwns" />
	</symbol>
	<symbol viewBox="0 0 16 16" id="QuadrantFullColored">
		<rect x="0.5" y="0.5" fill="#83BEEC" width="14" height="14" class="fwns" />
		<path fill="#444444" d="M0,0v15h15V0H0z M7,14H1V8h6V14z M7,7H1V1h6V7z M14,14H8V8h6V14z M14,7H8V1h6V7z" class="fwns" />
	</symbol>
	<symbol viewBox="0 0 16 16" id="SignalBarEmpty">
		<polygon fill="#FAFAFA" points="1.5,15.5 1.5,9.5 4.5,9.5 4.5,6.5 7.5,6.5 7.5,3.5 10.5,3.5 10.5,0.5 13.5,0.5 13.5,15.5 " class="fwns" />
		<path fill="#444444" d="M10,0v3H7v3H4v3H1v7h13V0H10z M4,15H2v-5h2V15z M7,15H5V9V7h2V15z M10,15H8V6V4h2V15z M13,15h-2V3V1h2V15z" class="fwns" />
	</symbol>
	<symbol viewBox="0 0 16 16" id="SignalBarFull">
		<polygon fill="#646464" points="1.5,15.5 1.5,9.5 4.5,9.5 4.5,6.5 7.5,6.5 7.5,3.5 10.5,3.5 10.5,0.5 13.5,0.5 13.5,15.5 " class="fwns" />
		<path fill="#444444" d="M10,0v3H7v3H4v3H1v7h13V0H10z M4,15H2v-5h2V15z M7,15H5V9V7h2V15z M10,15H8V6V4h2V15z M13,15h-2V3V1h2V15z" class="fwns" />
	</symbol>
	<symbol viewBox="0 0 16 16" id="SignalBarFullColored">
		<polygon fill="#83BEEC" points="1.5,15.5 1.5,9.5 4.5,9.5 4.5,6.5 7.5,6.5 7.5,3.5 10.5,3.5 10.5,0.5 13.5,0.5 13.5,15.5 " class="fwns" />
		<path fill="#444444" d="M10,0v3H7v3H4v3H1v7h13V0H10z M4,15H2v-5h2V15z M7,15H5V9V7h2V15z M10,15H8V6V4h2V15z M13,15h-2V3V1h2V15z" class="fwns" />
	</symbol>
	<symbol viewBox="0 0 16 16" id="SignalBarLow">
		<polygon fill="#FAFAFA" points="1.5,15.5 1.5,9.5 4.5,9.5 4.5,6.5 7.5,6.5 7.5,3.5 10.5,3.5 10.5,0.5 13.5,0.5 13.5,15.5 " class="fwns" />
		<rect x="1.5" y="9.5" fill="#646464" width="3" height="6" class="fwns" />
		<path fill="#444444" d="M10,0v3H7v3H4v3H1v7h13V0H10z M4,15H2v-5h2V15z M7,15H5V9V7h2V15z M10,15H8V6V4h2V15z M13,15h-2V3V1h2V15z" class="fwns" />
	</symbol>
	<symbol viewBox="0 0 16 16" id="SignalBarLowColored">
		<polygon fill="#FAFAFA" points="1.5,15.5 1.5,9.5 4.5,9.5 4.5,6.5 7.5,6.5 7.5,3.5 10.5,3.5 10.5,0.5 13.5,0.5 13.5,15.5 " class="fwns" />
		<rect x="1.5" y="9.5" fill="#83BEEC" width="3" height="6" class="fwns" />
		<path fill="#444444" d="M10,0v3H7v3H4v3H1v7h13V0H10z M4,15H2v-5h2V15z M7,15H5V9V7h2V15z M10,15H8V6V4h2V15z M13,15h-2V3V1h2V15z" class="fwns" />
	</symbol>
	<symbol viewBox="0 0 16 16" id="SignalBarMedium">
		<polygon fill="#FAFAFA" points="1.5,15.5 1.5,9.5 4.5,9.5 4.5,6.5 7.5,6.5 7.5,3.5 10.5,3.5 10.5,0.5 13.5,0.5 13.5,15.5 " class="fwns" />
		<polygon fill="#646464" points="7.5,6.5 4.5,6.5 4.5,9.5 1.5,9.5 1.5,15.5 7.5,15.5 " class="fwns" />
		<path fill="#444444" d="M10,0v3H7v3H4v3H1v7h13V0H10z M4,15H2v-5h2V15z M7,15H5V9V7h2V15z M10,15H8V6V4h2V15z M13,15h-2V3V1h2V15z" class="fwns" />
	</symbol>
	<symbol viewBox="0 0 16 16" id="SignalBarMedium2">
		<polygon fill="#FAFAFA" points="1.5,15.5 1.5,9.5 4.5,9.5 4.5,6.5 7.5,6.5 7.5,3.5 10.5,3.5 10.5,0.5 13.5,0.5 13.5,15.5 " class="fwns" />
		<polygon fill="#646464" points="10.5,3.5 7.5,3.5 7.5,6.5 4.5,6.5 4.5,9.5 1.5,9.5 1.5,15.5 10.5,15.5 " class="fwns" />
		<path fill="#444444" d="M10,0v3H7v3H4v3H1v7h13V0H10z M4,15H2v-5h2V15z M7,15H5V9V7h2V15z M10,15H8V6V4h2V15z M13,15h-2V3V1h2V15z" class="fwns" />
	</symbol>
	<symbol viewBox="0 0 16 16" id="SignalBarMedium2Colored">
		<polygon fill="#FAFAFA" points="1.5,15.5 1.5,9.5 4.5,9.5 4.5,6.5 7.5,6.5 7.5,3.5 10.5,3.5 10.5,0.5 13.5,0.5 13.5,15.5 " class="fwns" />
		<polygon fill="#83BEEC" points="10.5,3.5 7.5,3.5 7.5,6.5 4.5,6.5 4.5,9.5 1.5,9.5 1.5,15.5 10.5,15.5 " class="fwns" />
		<path fill="#444444" d="M10,0v3H7v3H4v3H1v7h13V0H10z M4,15H2v-5h2V15z M7,15H5V9V7h2V15z M10,15H8V6V4h2V15z M13,15h-2V3V1h2V15z" class="fwns" />
	</symbol>
	<symbol viewBox="0 0 16 16" id="SignalBarMediumColored">
		<polygon fill="#FAFAFA" points="1.5,15.5 1.5,9.5 4.5,9.5 4.5,6.5 7.5,6.5 7.5,3.5 10.5,3.5 10.5,0.5 13.5,0.5 13.5,15.5 " class="fwns" />
		<polygon fill="#83BEEC" points="7.5,6.5 4.5,6.5 4.5,9.5 1.5,9.5 1.5,15.5 7.5,15.5 " class="fwns" />
		<path fill="#444444" d="M10,0v3H7v3H4v3H1v7h13V0H10z M4,15H2v-5h2V15z M7,15H5V9V7h2V15z M10,15H8V6V4h2V15z M13,15h-2V3V1h2V15z" class="fwns" />
	</symbol>
	<symbol viewBox="0 0 16 16" id="SignLow">
		<rect x="3" y="3" transform="matrix(-0.7071 0.7071 -0.7071 -0.7071 19.3137 8.0004)" fill="#F26E5F" width="10" height="10" class="fwns" />
		<path fill="#940F00" d="M8,0.222L0.222,8L8,15.778L15.778,8L8,0.222z M1.636,8L8,1.636L14.364,8L8,14.364L1.636,8z" class="fwns" />
	</symbol>
	<symbol viewBox="0 0 16 16" id="SignMedium">
		<polygon fill="#D7962E" points="0.809,14.5 7.5,1.118 14.191,14.5 " class="fwns" />
		<path fill="#A4711E" d="M7.5,0L0,15h15L7.5,0z M7.5,2.236L13.382,14H1.618L7.5,2.236z" class="fwns" />
	</symbol>
	<symbol viewBox="0 0 16 16" id="StarHigh">
		<polygon fill="#646464" points="8.019,12.005 3.529,14.818 5.354,9.617 1.212,5.5 6.293,5.5 8.015,1.335 9.66,5.5 14.797,5.5 10.686,9.629 12.744,14.818 " class="fwns" />
		<g>
			<path opacity="0.99" fill="#444444" enable-background="new    " d="M16,5h-6L8.025,0L5.959,5H0l4.778,4.749L2.584,16l5.441-3.409L13.75,16l-2.479-6.251L16,5z M11.74,13.678l-3.729-2.226l-3.54,2.224L5.93,9.512L2.416,6h4.211l1.377-3.331L9.32,6h4.282l-3.501,3.535L11.74,13.678z" class="fwns" />
		</g>
	</symbol>
	<symbol viewBox="0 0 16 16" id="StarHighLight">
		<polygon fill="#D7962E" points="8.019,12.005 3.529,14.818 5.354,9.617 1.212,5.5 6.293,5.5 8.015,1.335 9.66,5.5 14.797,5.5 10.686,9.629 12.744,14.818 " class="fwns" />
		<g>
			<path opacity="0.99" fill="#A4711E" enable-background="new    " d="M16,5h-6L8.025,0L5.959,5H0l4.778,4.749L2.584,16l5.441-3.409L13.75,16l-2.479-6.251L16,5z M11.74,13.678l-3.729-2.226l-3.54,2.224L5.93,9.512L2.416,6h4.211l1.377-3.331L9.32,6h4.282l-3.501,3.535L11.74,13.678z" class="fwns" />
		</g>
	</symbol>
	<symbol viewBox="0 0 16 16" id="StarLow">
		<polygon fill="#FAFAFA" points="8.019,12.005 3.529,14.818 5.354,9.617 1.212,5.5 6.293,5.5 8.015,1.335 9.66,5.5 14.797,5.5 10.686,9.629 12.744,14.818 " class="fwns" />
		<g>
			<path opacity="0.99" fill="#444444" enable-background="new    " d="M16,5h-6L8.025,0L5.959,5H0l4.778,4.749L2.584,16l5.441-3.409L13.75,16l-2.479-6.251L16,5z M11.74,13.678l-3.729-2.226l-3.54,2.224L5.93,9.512L2.416,6h4.211l1.377-3.331L9.32,6h4.282l-3.501,3.535L11.74,13.678z" class="fwns" />
		</g>
	</symbol>
	<symbol viewBox="0 0 16 16" id="StarMedium">
		<g>
			<polygon fill="#FAFAFA" points="8.088,11.952 3.597,14.773 5.423,9.557 1.277,5.414 6.362,5.414 8.084,1.248 9.729,5.414 14.871,5.414 10.756,9.568 12.815,14.774 " class="fwns" />
			<polygon fill="#646464" points="8,12.007 8,1.452 6.362,5.414 1.277,5.414 5.423,9.557 3.597,14.773 " class="fwns" />
		</g>
		<polygon opacity="0.99" fill="#444444" enable-background="new    " points="8,12.607 8,11.46 4.472,13.676 5.93,9.512 2.416,6 6.627,6 8,2.678 8,0.062 5.959,5 0,5 4.778,9.749 2.584,16 " class="fwns" />
		<polygon opacity="0.99" fill="#444444" enable-background="new    " points="16,5 10,5 8.025,0 8,0.062 8,2.678 8.004,2.669 9.32,6 13.602,6 10.102,9.535 11.74,13.678 8.012,11.452 8,11.46 8,12.607 8.025,12.591 13.75,16 11.271,9.749 " class="fwns" />
	</symbol>
	<symbol viewBox="0 0 16 16" id="StarMediumLight">
		<g>
			<polygon fill="#FAFAFA" points="8.088,11.952 3.597,14.773 5.423,9.557 1.277,5.414 6.362,5.414 8.084,1.248 9.729,5.414 14.871,5.414 10.756,9.568 12.815,14.774 " class="fwns" />
			<polygon fill="#D7962E" points="8,12.007 8,1.452 6.362,5.414 1.277,5.414 5.423,9.557 3.597,14.773 " class="fwns" />
		</g>
		<polygon opacity="0.99" fill="##A4711E" enable-background="new    " points="8,12.607 8,11.46 4.472,13.676 5.93,9.512 2.416,6 6.627,6 8,2.678 8,0.062 5.959,5 0,5 4.778,9.749 2.584,16 " class="fwns" />
		<polygon opacity="0.99" fill="#444444" enable-background="new    " points="16,5 10,5 8.025,0 8,0.062 8,2.678 8.004,2.669 9.32,6 13.602,6 10.102,9.535 11.74,13.678 8.012,11.452 8,11.46 8,12.607 8.025,12.591 13.75,16 11.271,9.749 " class="fwns" />
	</symbol>
	<symbol viewBox="0 0 16 16" id="SymbolHigh">
		<g>
			<polygon fill="#64B178" points="0.939,9.354 2.353,7.939 5.5,11.086 13.646,2.94 15.061,4.353 5.5,13.914 " class="fwns" />
		</g>
		<path fill="#305A3B" d="M13.646,3.647l0.707,0.707L5.5,13.207L1.646,9.354l0.707-0.707L5.5,11.793L13.646,3.647 M13.646,2.232l-0.707,0.707L5.5,10.379l-2.44-2.44L2.353,7.232L1.646,7.939L0.939,8.646L0.232,9.354l0.707,0.707l3.854,3.853L5.5,14.621l0.707-0.707l8.854-8.854l0.707-0.707l-0.707-0.707l-0.707-0.707L13.646,2.232L13.646,2.232z" class="fwns" />
	</symbol>
	<symbol viewBox="0 0 16 16" id="SymbolLow">
		<g>
			<polygon fill="#F26E5F" points="1.293,13.396 6.588,8.101 1.293,2.806 2.806,1.293 8.101,6.588 13.394,1.293 14.908,2.806 9.613,8.101 14.908,13.396 13.394,14.908 8.101,9.613 2.806,14.908 " class="fwns" />
		</g>
		<path fill="#940F00" d="M13.395,2l0.806,0.806L8.906,8.1l5.295,5.295l-0.806,0.806L8.1,8.906l-5.295,5.295L2,13.395L7.295,8.1L2,2.806L2.806,2L8.1,7.295L13.395,2 M13.395,0.586L8.1,5.88L2.806,0.586l-2.22,2.22L5.88,8.1l-5.295,5.295l2.22,2.22L8.1,10.32l5.295,5.295l2.22-2.22L10.32,8.1l5.295-5.295L13.395,0.586L13.395,0.586z" class="fwns" />
	</symbol>
	<symbol viewBox="0 0 16 16" id="SymbolMedium">
		<rect x="6.5" y="12.5" fill="#D7962E" width="3" height="3" class="fwns" />
		<rect x="6.5" y="0.5" fill="#D7962E" width="3" height="10" class="fwns" />
		<path fill="#A4711E" d="M6,0v11h4V0H6z M9.001,10H7V1h2.001C9.001,1,9.001,10,9.001,10z" class="fwns" />
		<path fill="#A4711E" d="M6,12v4h4v-4H6z M9,15H7v-2h2V15z" class="fwns" />
	</symbol>
	<symbol viewBox="0 0 16 16" id="TrafficBlackRimmed">
		<rect x="0" fill="#444444" width="16" height="16" class="fwns" />
		<circle fill="#A5A5A5" cx="8" cy="8" r="5.5" class="nfwns" />
		<path fill="#646464" d="M8,2C4.691,2,2,4.691,2,8s2.691,6,6,6s6-2.691,6-6S11.309,2,8,2z M8,13c-2.761,0-5-2.239-5-5s2.239-5,5-5s5,2.239,5,5S10.761,13,8,13z" class="nfwns" />
	</symbol>
	<symbol viewBox="0 0 16 16" id="TrafficBlackRimmedLight">
		<circle fill="#646464" cx="8" cy="8" r="5.5" class="fwns" />
		<path fill="#444444" d="M0,0v16h16V0H0z M15,15H1V1h14V15z" class="fwns" />
		<path fill="#444444" d="M8,2C4.691,2,2,4.691,2,8s2.691,6,6,6s6-2.691,6-6S11.309,2,8,2z M8,13c-2.761,0-5-2.239-5-5s2.239-5,5-5s5,2.239,5,5S10.761,13,8,13z" class="fwns" />
	</symbol>
	<symbol viewBox="0 0 16 16" id="TrafficHigh">
		<rect y="0" fill="#444444" width="16" height="16" class="fwns" />
		<circle fill="#84C28A" cx="8" cy="8" r="5.5" class="nfwns" />
		<path fill="#449E44" d="M8,2C4.691,2,2,4.691,2,8s2.691,6,6,6s6-2.691,6-6S11.309,2,8,2z M8,13c-2.761,0-5-2.239-5-5s2.239-5,5-5s5,2.239,5,5S10.761,13,8,13z" class="nfwns" />
	</symbol>
	<symbol viewBox="0 0 16 16" id="TrafficHighLight">
		<path fill="#444444" d="M0,0v16h16V0H0z M15,15H1V1h14V15z" class="fwns" />
		<circle fill="#64B178" cx="8" cy="8" r="5.5" class="fwns" />
		<path fill="#305A3B" d="M8,2C4.691,2,2,4.691,2,8s2.691,6,6,6s6-2.691,6-6S11.309,2,8,2z M8,13c-2.761,0-5-2.239-5-5s2.239-5,5-5s5,2.239,5,5S10.761,13,8,13z" class="fwns" />
	</symbol>
	<symbol viewBox="0 0 16 16" id="TrafficLow">
		<rect y="0" fill="#444444" width="16" height="16" class="fwns" />
		<circle fill="#F78272" cx="8" cy="8" r="5.5" class="nfwns" />
		<path fill="#F25021" d="M8,2C4.691,2,2,4.691,2,8s2.691,6,6,6s6-2.691,6-6S11.309,2,8,2z M8,13c-2.761,0-5-2.239-5-5s2.239-5,5-5s5,2.239,5,5S10.761,13,8,13z" class="nfwns" />
	</symbol>
	<symbol viewBox="0 0 16 16" id="TrafficLowLight">
		<circle fill="#F26E5F" cx="8" cy="8" r="5.5" class="fwns" />
		<path fill="#444444" d="M0,0v16h16V0H0z M15,15H1V1h14V15z" class="fwns" />
		<path fill="#940F00" d="M8,2C4.691,2,2,4.691,2,8s2.691,6,6,6s6-2.691,6-6S11.309,2,8,2z M8,13c-2.761,0-5-2.239-5-5s2.239-5,5-5s5,2.239,5,5S10.761,13,8,13z" class="fwns" />
	</symbol>
	<symbol viewBox="0 0 16 16" id="TrafficMedium">
		<rect x="0" fill="#444444" width="16" height="16" class="fwns" />
		<circle fill="#F9D087" cx="8" cy="8" r="5.5" class="nfwns" />
		<path fill="#F9B23E" d="M8,2C4.691,2,2,4.691,2,8s2.691,6,6,6s6-2.691,6-6S11.309,2,8,2z M8,13c-2.761,0-5-2.239-5-5s2.239-5,5-5s5,2.239,5,5S10.761,13,8,13z" class="nfwns" />
	</symbol>
	<symbol viewBox="0 0 16 16" id="TrafficMediumLight">
		<circle fill="#D7962E" cx="8" cy="8" r="5.5" class="fwns" />
		<path fill="#444444" d="M0,0v16h16V0H0z M15,15H1V1h14V15z" class="fwns" />
		<path fill="#A4711E" d="M8,2C4.691,2,2,4.691,2,8s2.691,6,6,6s6-2.691,6-6S11.309,2,8,2z M8,13c-2.761,0-5-2.239-5-5s2.239-5,5-5s5,2.239,5,5S10.761,13,8,13z" class="fwns" />
	</symbol>
	<symbol viewBox="0 0 16 16" id="4CircleMedium2">
		<circle fill="#DB93CD" cx="8" cy="8" r="7.5" class="fwns" />
		<path fill="#B4009E" d="M16,8c0,4.418-3.582,8-8,8s-8-3.582-8-8s3.582-8,8-8S16,3.582,16,8z M15,8c0-3.86-3.14-7-7-7S1,4.14,1,8s3.14,7,7,7S15,11.86,15,8z" class="fwns" />
	</symbol>
	<symbol viewBox="0 0 16 16" id="TriangleHigh">
		<polygon fill="#64B178" points="1,12.5 7.5,3.833 14,12.5 " class="fwns" />
		<g>
			<path fill="#305A3B" d="M7.5,3L0,13h15L7.5,3z M7.5,4.667L13,12H2L7.5,4.667z" class="fwns" />
		</g>
	</symbol>
	<symbol viewBox="0 0 16 16" id="TriangleLow">
		<polygon fill="#F26E5F" points="14,3.5 7.5,12.167 1,3.5 " class="fwns" />
		<path fill="#940F00" d="M7.5,13L15,3H0L7.5,13z M7.5,11.333L2,4h11L7.5,11.333z" class="fwns" />
	</symbol>
	<symbol viewBox="0 0 16 16" id="TriangleMedium">
		<rect x="0.5" y="5.5" fill="#D7962E" width="14" height="4" class="fwns" />
		<path fill="#A4711E" d="M0,5v5h15V5H0z M14,9.001H1V6h13V9.001z" class="fwns" />
	</symbol>
	<symbol id="CircleBlackFill" width="100%" height="100%" viewBox="0 0 16 16">
        <circle cx="8" cy="8" r="8" fill="#444444" class="fwns" />
    </symbol>
    <symbol id="CircleGrayPatternFill" width="100%" height="100%" viewBox="0 0 16 16">
        <circle cx="8" cy="8" r="8" fill="#B2B2B2" class="fwns" />
        <path fill-rule="evenodd" clip-rule="evenodd" d="M16 8C16 12.4183 12.4183 16 8 16C3.58172 16 0 12.4183 0 8C0 3.58172 3.58172 0 8 0C12.4183 0 16 3.58172 16 8ZM7 14.9291V1.07089C3.60771 1.55612 1 4.47353 1 8C1 11.5265 3.60771 14.4439 7 14.9291ZM15 8C15 11.5265 12.3923 14.4439 9 14.9291V1.07089C12.3923 1.55612 15 4.47353 15 8Z" fill="#5E5E5E" class="fwns" />
    </symbol>
    <symbol id="CircleGreenBlackBackgroundPatternFill" width="100%" height="100%" viewBox="0 0 16 16">
        <path fill-rule="evenodd" clip-rule="evenodd" d="M0 0V16H16V0H0Z" fill="#444444" class="fwns"  />
        <circle cx="8" cy="8" r="6" fill="#64B178" class="fwns" />
        <path fill-rule="evenodd" clip-rule="evenodd" d="M2 8C2 4.68629 4.68629 2 8 2C11.3137 2 14 4.68629 14 8C14 11.3137 11.3137 14 8 14C4.68629 14 2 11.3137 2 8ZM2.75 8C2.75 5.1005 5.1005 2.75 8 2.75C10.8995 2.75 13.25 5.1005 13.25 8C13.25 8.49347 13.1819 8.97104 13.0546 9.42382L7.9981 4.99936L2.94462 9.42116C2.81782 8.96916 2.75 8.4925 2.75 8ZM3.58995 10.8496C4.52527 12.2942 6.15101 13.25 8 13.25C9.84808 13.25 11.4731 12.2951 12.4087 10.8518L7.9981 6.99251L3.58995 10.8496Z" fill="#305A3B" class="fwns"  />
    </symbol>
    <symbol id="CircleGreenBlackOutlinePatternFill" width="100%" height="100%" viewBox="0 0 16 16">
        <path fill-rule="evenodd" clip-rule="evenodd" d="M15 1H1V15H15V1ZM0 0V16H16V0H0Z" fill="#444444" class="fwns" />
        <circle cx="8" cy="8" r="6" fill="#64B178" class="fwns" />
        <path fill-rule="evenodd" clip-rule="evenodd" d="M2 8C2 4.68629 4.68629 2 8 2C11.3137 2 14 4.68629 14 8C14 11.3137 11.3137 14 8 14C4.68629 14 2 11.3137 2 8ZM2.75 8C2.75 5.1005 5.1005 2.75 8 2.75C10.8995 2.75 13.25 5.1005 13.25 8C13.25 8.49347 13.1819 8.97104 13.0546 9.42382L7.9981 4.99936L2.94462 9.42116C2.81782 8.96916 2.75 8.4925 2.75 8ZM3.58995 10.8496C4.52527 12.2942 6.15101 13.25 8 13.25C9.84808 13.25 11.4731 12.2951 12.4087 10.8518L7.9981 6.99251L3.58995 10.8496Z" fill="#305A3B" class="fwns" />
    </symbol>
    <symbol id="CircleGreenPatternFill" width="100%" height="100%" viewBox="0 0 16 16">
        <circle cx="8" cy="8" r="8" fill="#64B178" class="fwns" />
        <path fill-rule="evenodd" clip-rule="evenodd" d="M0 8C0 3.58172 3.58172 0 8 0C12.4183 0 16 3.58172 16 8C16 12.4183 12.4183 16 8 16C3.58172 16 0 12.4183 0 8ZM1 8C1 4.13401 4.13401 1 8 1C11.866 1 15 4.13401 15 8C15 8.65796 14.9092 9.29472 14.7395 9.89843L7.99747 3.99915L1.25949 9.89488C1.09042 9.29222 1 8.65667 1 8ZM2.11993 11.7995C3.36703 13.7255 5.53468 15 8 15C10.4641 15 12.6309 13.7268 13.8782 11.8024L7.99747 6.65668L2.11993 11.7995Z" fill="#305A3B" class="fwns"/>
    </symbol>
    <symbol id="CirclePurplePatternFill" width="100%" height="100%" viewBox="0 0 16 16">        
        <circle cx="8" cy="8" r="8" fill="#D196CA" class="fwns" />
        <path fill-rule="evenodd" clip-rule="evenodd" d="M16 8C16 12.4183 12.4183 16 8 16C3.58172 16 0 12.4183 0 8C0 3.58172 3.58172 0 8 0C12.4183 0 16 3.58172 16 8ZM15 8C15 11.866 11.866 15 8 15C6.4277 15 4.97648 14.4816 3.80792 13.6064L13.6064 3.80792C14.4816 4.97648 15 6.4277 15 8ZM2.39368 12.1923L12.1923 2.39368C11.0237 1.51843 9.57237 1 8 1C4.13401 1 1 4.13401 1 8C1 9.57237 1.51843 11.0237 2.39368 12.1923Z" fill="#873B7E" class="fwns"/>
    </symbol>
    <symbol id="CircleRedBlackBackgroundPatternFill" width="100%" height="100%" viewBox="0 0 16 16">
        <path fill-rule="evenodd" clip-rule="evenodd" d="M0 0V16H16V0H0Z" fill="#444444" class="fwns"  />
        <circle cx="8" cy="8" r="6" fill="#F26E5F" class="fwns" />
        <path fill-rule="evenodd" clip-rule="evenodd" d="M14 8C14 11.3137 11.3137 14 8 14C4.68629 14 2 11.3137 2 8C2 4.68629 4.68629 2 8 2C11.3137 2 14 4.68629 14 8ZM13.25 8C13.25 10.8995 10.8995 13.25 8 13.25C5.10051 13.25 2.75 10.8995 2.75 8C2.75 7.50667 2.81804 7.02923 2.94526 6.57656L8.00107 11.0004L13.0552 6.57806C13.1821 7.03029 13.25 7.50721 13.25 8ZM12.4096 5.14973L8.00107 9.00724L3.59112 5.14854C4.52663 3.70504 6.15179 2.75 8 2.75C9.84872 2.75 11.4743 3.70557 12.4096 5.14973Z" fill="#940F00" class="fwns" />
    </symbol>
    <symbol id="CircleRedBlackOutlinePatternFill" width="100%" height="100%" viewBox="0 0 16 16">
        <path fill-rule="evenodd" clip-rule="evenodd" d="M15 1H1V15H15V1ZM0 0V16H16V0H0Z" fill="#444444" class="fwns" />
        <circle cx="8" cy="8" r="6" fill="#F26E5F" class="fwns" />
        <path fill-rule="evenodd" clip-rule="evenodd" d="M14 8C14 11.3137 11.3137 14 8 14C4.68629 14 2 11.3137 2 8C2 4.68629 4.68629 2 8 2C11.3137 2 14 4.68629 14 8ZM13.25 8C13.25 10.8995 10.8995 13.25 8 13.25C5.10051 13.25 2.75 10.8995 2.75 8C2.75 7.50667 2.81804 7.02923 2.94526 6.57656L8.00107 11.0004L13.0552 6.57806C13.1821 7.03029 13.25 7.50721 13.25 8ZM12.4096 5.14973L8.00107 9.00724L3.59112 5.14854C4.52663 3.70504 6.15179 2.75 8 2.75C9.84872 2.75 11.4743 3.70557 12.4096 5.14973Z" fill="#940F00" class="fwns" />
    </symbol>
    <symbol id="CircleRedPatternFill" width="100%" height="100%" viewBox="0 0 16 16">
        <circle cx="8" cy="8" r="8" fill="#F26E5F" class="fwns"/>
        <path fill-rule="evenodd" clip-rule="evenodd" d="M16 8C16 12.4183 12.4183 16 8 16C3.58172 16 0 12.4183 0 8C0 3.58172 3.58172 0 8 0C12.4183 0 16 3.58172 16 8ZM15 8C15 11.866 11.866 15 8 15C4.13401 15 1 11.866 1 8C1 7.34223 1.09073 6.70564 1.26035 6.10208L8.00142 12.0005L14.7402 6.10408C14.9095 6.70705 15 7.34295 15 8ZM13.8795 4.19964L8.00142 9.34298L2.1215 4.19805C3.36884 2.27339 5.53571 1 8 1C10.465 1 12.6323 2.27409 13.8795 4.19964Z" fill="#940F00" class="fwns" />
    </symbol>
    <symbol id="CircleYellowBlackBackgroundPatternFill" width="100%" height="100%" viewBox="0 0 16 16">
		<path fill-rule="evenodd" clip-rule="evenodd" d="M0 0V16H16V0H0Z" fill="#444444" class="fwns"  />
        <circle cx="8" cy="8" r="6" fill="#D7962E" class="fwns"  />
        <path fill-rule="evenodd" clip-rule="evenodd" d="M14 8C14 11.3137 11.3137 14 8 14C4.68629 14 2 11.3137 2 8C2 4.68629 4.68629 2 8 2C11.3137 2 14 4.68629 14 8ZM13.1968 8.75C12.8329 11.2942 10.6449 13.25 8 13.25C5.35515 13.25 3.16709 11.2942 2.80317 8.75H13.1968ZM13.1968 7.25H2.80317C3.16709 4.70578 5.35515 2.75 8 2.75C10.6449 2.75 12.8329 4.70578 13.1968 7.25Z" fill="#6F4D15" class="fwns"  />
    </symbol>
    <symbol id="CircleYellowBlackOutlinePatternFill" width="100%" height="100%" viewBox="0 0 16 16">
        <path fill-rule="evenodd" clip-rule="evenodd" d="M15 1H1V15H15V1ZM0 0V16H16V0H0Z" fill="#444444" class="fwns" />
        <circle cx="8" cy="8" r="6" fill="#D7962E" class="fwns" />
        <path fill-rule="evenodd" clip-rule="evenodd" d="M14 8C14 11.3137 11.3137 14 8 14C4.68629 14 2 11.3137 2 8C2 4.68629 4.68629 2 8 2C11.3137 2 14 4.68629 14 8ZM13.1968 8.75C12.8329 11.2942 10.6449 13.25 8 13.25C5.35515 13.25 3.16709 11.2942 2.80317 8.75H13.1968ZM13.1968 7.25H2.80317C3.16709 4.70578 5.35515 2.75 8 2.75C10.6449 2.75 12.8329 4.70578 13.1968 7.25Z" fill="#6F4D15" class="fwns" />
        </symbol>
    <symbol id="CircleYellowPatternFill" width="100%" height="100%" viewBox="0 0 16 16">
        <circle cx="8" cy="8" r="8" fill="#D7962E" class="fwns" />
        <path fill-rule="evenodd" clip-rule="evenodd" d="M16 8C16 12.4183 12.4183 16 8 16C3.58172 16 0 12.4183 0 8C0 3.58172 3.58172 0 8 0C12.4183 0 16 3.58172 16 8ZM14.9291 9C14.4439 12.3923 11.5265 15 8 15C4.47353 15 1.55612 12.3923 1.07089 9H14.9291ZM14.9291 7H1.07089C1.55612 3.60771 4.47353 1 8 1C11.5265 1 14.4439 3.60771 14.9291 7Z" fill="#6F4D15" class="fwns" />
    </symbol>
    <symbol id="FlagGreenPatternFill" width="100%" height="100%" viewBox="0 0 16 16">
        <path fill-rule="evenodd" clip-rule="evenodd" d="M7 8H2V0h6v2h5v8H7V8ZM3 1h4v6H3V1Zm5 2v6h4V3H8Z" fill="#305A3B" class="fwns" />
        <path d="M7 1H3v6h4V1ZM12 3H8v6h4V3Z" fill="#64B178" class="fwns" />
        <path fill="#444" d="M2 0h1v16H2z" class="fwns" />
    </symbol>
    <symbol id="FlagRedPatternFill" width="100%" height="100%" viewBox="0 0 16 16">
        <path fill-rule="evenodd" clip-rule="evenodd" d="M7 8H2V0h6v2h5v8H7V8ZM3 1h4v6H3V1Zm5 2v6h4V3H8Z" fill="#940F00" class="fwns" />
        <path fill="#444" d="M2 0h1v16H2z" class="fwns" />
    </symbol>
    <symbol id="FlagYellowPatternFill" width="100%" height="100%" viewBox="0 0 16 16">
        <path d="M8 1H5v6h3V1ZM13 3h-3v6h3V3Z" fill="#D7962E" class="fwns" />
        <path fill-rule="evenodd" clip-rule="evenodd" d="M7 8H2V0h6v2h5v8H7V8ZM3 1h4v6H3V1Zm5 2v6h4V3H8Z" fill="#6F4D15" class="fwns" />
        <path fill="#444" d="M2 0h1v16H2z" class="fwns" />
    </symbol>
</svg>