<?xml version="1.0" encoding="utf-8"?><svg xmlns="http://www.w3.org/2000/svg" xmlns:xlink="http://www.w3.org/1999/xlink"><symbol viewBox="0 0 20 20" fill="none" id="document_multiple_pulse_20_regular" xmlns="http://www.w3.org/2000/svg">
  <path d="M4 4.00098C4 2.89641 4.89543 2.00098 6 2.00098H9.58579C9.98361 2.00098 10.3651 2.15901 10.6464 2.44032L14.5607 6.35453C14.842 6.63584 15 7.01737 15 7.41519V14.001C15 15.1055 14.1046 16.001 13 16.001H6C4.89543 16.001 4 15.1055 4 14.001V11.514L4.61515 13.0527C4.70143 13.2685 4.83443 13.4565 5 13.6067V14.001C5 14.5533 5.44772 15.001 6 15.001H13C13.5523 15.001 14 14.5533 14 14.001V8.00098H10.5C9.67157 8.00098 9 7.3294 9 6.50098V3.00098H6C5.44772 3.00098 5 3.44869 5 4.00098V6.37309C4.74737 6.15092 4.42198 6.01538 4.07208 6.00081C4.04798 5.99981 4.02395 5.99939 4 5.99954V4.00098ZM10 3.20808V6.50098C10 6.77712 10.2239 7.00098 10.5 7.00098H13.7929L10 3.20808Z" fill="currentColor"/>
  <path d="M17 9.00097C17 8.44869 16.5523 8.00097 16 8.00097V14.001C16 15.6578 14.6569 17.001 13 17.001H6C6 17.5533 6.44772 18.001 7 18.001H13.0606C15.2363 18.001 17 16.2372 17 14.0616V9.00097Z" fill="currentColor"/>
  <path d="M4.03051 6.99995C4.22699 7.00812 4.40039 7.13092 4.47342 7.31361L6.05801 11.2772L7.55821 8.27506C7.6428 8.10578 7.81572 7.99885 8.00488 7.99885C8.19403 7.99885 8.36695 8.10578 8.45155 8.27506L9.3123 9.99752H10.5006C10.7764 9.99752 11 10.2212 11 10.4972C11 10.7731 10.7764 10.9969 10.5006 10.9969H9.00366C8.8145 10.9969 8.64158 10.8899 8.55699 10.7206L8.00488 9.61582L6.45403 12.7193C6.36609 12.8953 6.1831 13.0033 5.98661 12.9951C5.79012 12.9869 5.61673 12.8641 5.54369 12.6814L3.9591 8.71784L2.95825 10.7206C2.87366 10.8899 2.70074 10.9969 2.51158 10.9969H0.49939C0.223585 10.9969 0 10.7731 0 10.4972C0 10.2212 0.223585 9.99752 0.49939 9.99752H2.20294L3.56309 7.27572C3.65103 7.09973 3.83402 6.99177 4.03051 6.99995Z" fill="currentColor"/>
</symbol><symbol viewBox="0 0 2048 2048" id="excel_logo_16_regular" xmlns="http://www.w3.org/2000/svg">
  <path d="M512 0h1408q26 0 49 10t41 27 28 41 10 50v1792q0 26-10 49t-27 41-41 28-50 10H512q-26 0-49-10t-41-27-28-41-10-50v-256H128q-26 0-49-10t-41-27-28-41-10-50V512q0-26 10-49t27-41 41-28 50-10h256V128q0-26 10-49t27-41 41-28 50-10zm0 128v256h640V128H512zm768 0v256h640V128h-640zm0 384v384h640V512h-640zm-772 510l-270 418h258l146-267 143 267h255l-259-419 253-413H790L650 863 521 608H262l246 414zm772 2v384h640v-384h-640zm0 512v384h640v-384h-640zm-768 128v256h640v-256H512z" fill="currentColor"/>
</symbol><symbol viewBox="0 0 2048 2048" id="excel_logo_20_regular" xmlns="http://www.w3.org/2000/svg">
  <path d="M1963 128q35 0 60 25t25 60v1622q0 35-25 60t-60 25H597q-35 0-60-25t-25-60v-299H85q-35 0-60-25t-25-60V597q0-35 25-60t60-25h427V213q0-35 25-60t60-25h1366zM512 1133l121 227h183l-203-330 199-324H637L525 911q-2 3-3 6t-4 8q-27-55-55-109t-56-110H221l194 326-212 328h184l125-227zm704 659v-256H640v256h576zm0-384v-320h-192v320h192zm0-448V640h-192v320h192zm0-448V256H640v256h576zm704 1280v-256h-576v256h576zm0-384v-320h-576v320h576zm0-448V640h-576v320h576zm0-448V256h-576v256h576z"/>
</symbol></svg>