<svg width="392" height="240" viewBox="0 0 392 240" fill="none" xmlns="http://www.w3.org/2000/svg">
<path d="M170.57 144.357L92.292 193.451L86.251 195.672L89.7311 192.332L165.51 142.454L170.57 144.357Z" fill="#1D4A79"/>
<path d="M90.1055 188.643L90.1302 192.364L164.435 149.86L164.423 145.775L90.1055 188.643Z" fill="#139FE5"/>
<path d="M71.7451 178.573L6.1084 140.325L80.4288 97.4575L146.174 135.629L149.444 148.008L164.368 145.793L233.413 185.673L159.091 228.541L91.9573 189.761C91.9573 189.761 87.9009 193.295 85.2916 193.535C83.1188 193.736 73.8846 188.465 72.8643 186.514C71.9987 184.492 71.6046 182.3 71.7118 180.104L71.7451 178.573Z" fill="#004E99"/>
<path d="M6.12207 140.315L70.1838 177.508L71.6427 178.355C71.7123 178.395 71.7699 178.452 71.8094 178.522C71.8493 178.59 71.8705 178.668 71.8706 178.748V179.058C71.9212 179.678 72.0416 180.793 72.334 182.449C72.7305 184.068 73.4534 185.59 74.4582 186.921C75.4631 188.252 76.729 189.363 78.1783 190.188L81.5499 192.05C83.7775 193.281 86.2643 192.52 88.0726 190.667C88.4317 190.299 89.3552 189.361 89.8003 188.909C89.8713 188.837 89.964 188.791 90.064 188.778C90.1639 188.764 90.2655 188.785 90.3529 188.835L159.091 228.542L159.103 232.627L90.3755 192.927C90.2882 192.877 90.187 192.857 90.0874 192.87C89.9876 192.883 89.895 192.929 89.824 193C89.5509 193.278 89.095 193.736 88.7144 194.114C87.0104 195.818 84.1818 196.751 82.0122 195.484L76.1603 192.07C74.7091 191.224 73.4545 190.079 72.4797 188.711C71.5049 187.343 70.8322 185.783 70.5063 184.135L70.0204 181.671C70.0076 181.608 69.9816 181.548 69.944 181.495C69.9065 181.442 69.8581 181.398 69.8021 181.366L6.1339 144.399L6.12207 140.315Z" fill="#139FE5"/>
<path d="M159.091 228.545L159.103 232.63L233.425 189.76L233.413 185.675L159.091 228.545Z" fill="#156AB3"/>
<path d="M18.2588 126.666C18.2588 126.666 61.8181 152.929 70.9394 157.891C82.1388 163.984 82.7957 185.881 82.7957 185.881L152.22 143.865C152.22 143.865 151.544 125.39 135.298 116.209C126.822 111.419 87.4553 88.2271 87.4553 88.2271L18.2588 126.666Z" fill="#E8E8E8"/>
<path d="M18.2588 126.666C18.2588 126.666 61.8181 152.929 70.9394 157.891C82.1388 163.984 82.7957 185.881 82.7957 185.881L152.22 143.865C152.22 143.865 151.544 125.39 135.298 116.209C126.822 111.419 87.4553 88.2271 87.4553 88.2271L18.2588 126.666Z" fill="url(#paint0_linear_1654_477777)"/>
<path d="M127.071 136.432C125.566 132.562 123.173 128.233 119.536 126.094C112.978 122.239 81.1543 103.214 81.1543 103.214L85.1849 100.975C85.1849 100.975 114.039 117.974 120.253 121.486C125.208 124.324 128.995 128.828 130.94 134.196L127.071 136.432Z" fill="#E2E2E2"/>
<path d="M118.342 141.467C116.837 137.644 114.458 133.412 110.877 131.309C104.318 127.452 72.4951 108.428 72.4951 108.428L76.5246 106.188C76.5246 106.188 105.38 123.19 111.593 126.702C116.493 129.504 120.252 133.941 122.211 139.236L118.342 141.467Z" fill="#E2E2E2"/>
<path d="M109.614 146.502C108.109 142.726 105.744 138.589 102.217 136.518C95.6593 132.661 63.8359 113.638 63.8359 113.638L67.8655 111.397C67.8655 111.397 96.7204 128.399 102.934 131.91C107.779 134.68 111.509 139.051 113.481 144.272L109.614 146.502Z" fill="#E2E2E2"/>
<path d="M82.5576 185.003L82.9468 185.381C83.5344 184.935 84.1588 184.539 84.8132 184.199C88.9083 182.948 98.1683 181.465 105.025 185.381C114.097 190.559 152.833 213.138 152.833 213.138L227.154 170.271C227.154 170.271 188.482 147.884 179.064 142.322C174.99 139.794 170.251 138.546 165.46 138.737C160.669 138.929 156.046 140.552 152.186 143.397L82.5576 185.003Z" fill="#E8E8E8"/>
<path d="M82.5576 185.003L82.9468 185.381C83.5344 184.935 84.1588 184.539 84.8132 184.199C88.9083 182.948 98.1683 181.465 105.025 185.381C114.097 190.559 152.833 213.138 152.833 213.138L227.154 170.271C227.154 170.271 188.482 147.884 179.064 142.322C174.99 139.794 170.251 138.546 165.46 138.737C160.669 138.929 156.046 140.552 152.186 143.397L82.5576 185.003Z" fill="url(#paint1_linear_1654_477777)"/>
<path d="M227.341 184.552C226.907 182.713 226.578 180.851 226.356 178.974C226.357 176.054 226.623 173.14 227.15 170.267L159.969 208.944L157.232 218.01L159.458 223.148L227.341 184.552Z" fill="#F4F4F4"/>
<path d="M158.706 213.128L226.643 173.717C226.545 174.567 226.456 175.51 226.401 176.473L157.746 216.304L158.706 213.128Z" fill="#E2E2E2"/>
<path d="M158.633 221.24L157.734 219.166L226.384 179.383C226.445 180.012 226.599 180.896 226.759 181.762L158.633 221.24Z" fill="#E2E2E2"/>
<path d="M16.1899 133.98C16.893 132.348 18.2326 126.646 18.2326 126.646C18.2326 126.646 66.7009 154.874 72.8763 158.626C81.4396 163.824 83.4189 179.855 83.5834 184.424C84.2747 184.029 96.6707 175.004 112.155 182.004C118.735 184.979 159.968 208.944 159.968 208.944C159.361 211.819 158.973 214.737 158.805 217.67C158.907 219.508 159.125 221.337 159.457 223.147C159.457 223.147 107.403 193.098 103.93 191.081C98.3135 187.816 94.5366 186.115 91.0834 185.978C87.5161 185.838 85.8497 190.078 82.7641 189.062C77.2703 187.253 76.0984 184.689 75.0642 179.445C74.589 177.041 73.0451 173.987 67.3513 170.859C62.2176 168.039 12.5205 139.592 12.5205 139.592C13.8457 137.79 15.0707 135.917 16.1899 133.98Z" fill="#CDCDD0"/>
<path d="M104.095 191.596C106.998 184.011 113.613 178.441 126.548 170.574L179.185 141.873L193.71 150.169L140.693 180.721C126.37 188.609 120.944 188.647 115.966 203.478C114.542 207.715 111.996 219.202 110.509 226.919L107.916 225.923L104.566 216.38L97.8845 221.748L96.1504 220.908C98.013 210.941 100.67 201.14 104.095 191.596Z" fill="#139FE5"/>
<path d="M92.2852 104.384V129.265L113.782 116.713V91.9424L92.2852 104.384Z" fill="#50E6FF"/>
<path d="M92.2857 104.384L71.1328 91.9424L71.2468 116.71L92.2857 129.265V104.384Z" fill="#45CAF2"/>
<path d="M113.782 91.9423L92.2856 79.502L71.1338 91.9423L92.2856 104.383L113.782 91.9423Z" fill="#84ECFD"/>
<path d="M112.17 46.3643V65.1641L128.404 55.6787V36.9639L112.17 46.3643Z" fill="#1D4A79"/>
<path d="M112.17 46.3643L96.1895 36.9639V55.6787L112.17 65.1641V46.3643Z" fill="#243A5E"/>
<path d="M128.411 36.9638L112.176 27.5645L96.1895 36.9638L112.17 46.3642L128.411 36.9638Z" fill="#156AB3"/>
<path d="M345.193 133.764L352.125 129.76L351.938 196.307L345.006 200.311L345.193 133.764Z" fill="#2195DC"/>
<path d="M297.878 106.595L304.81 102.592L352.126 129.761L345.194 133.764L297.878 106.595Z" fill="#2195DC"/>
<path d="M345.183 133.764L344.993 200.311L297.674 173.141L297.864 106.602L345.183 133.764Z" fill="#45CAF2"/>
<path d="M346.339 133.104L347.499 132.435L347.308 198.974L346.152 199.644L346.339 133.104Z" fill="#45CAF2"/>
<path d="M299.024 105.936L300.183 105.266L347.502 132.434L346.343 133.104L299.024 105.936Z" fill="#45CAF2"/>
<path d="M348.655 131.762L349.811 131.093L349.624 197.64L348.465 198.309L348.655 131.762Z" fill="#45CAF2"/>
<path d="M301.335 104.597L302.492 103.931L349.811 131.096L348.655 131.766L301.335 104.597Z" fill="#45CAF2"/>
<path d="M350.97 130.429L352.125 129.76L351.938 196.299L350.779 196.969L350.97 130.429Z" fill="#45CAF2"/>
<path d="M303.647 103.261L304.803 102.592L352.122 129.761L350.966 130.43L303.647 103.261Z" fill="#45CAF2"/>
<path d="M303.229 112.333L305.528 110.994L314.452 116.115L312.15 117.453L303.229 112.333Z" fill="#0078D4"/>
<path d="M324.973 125.839C324.87 125.898 324.762 125.947 324.65 125.986C324.567 126.015 324.483 126.039 324.397 126.058C324.381 126.058 324.365 126.068 324.345 126.071C324.242 126.091 324.138 126.103 324.033 126.11C324.01 126.11 323.99 126.11 323.967 126.11C323.862 126.114 323.757 126.112 323.652 126.103H323.613C323.497 126.092 323.382 126.075 323.269 126.052C323.257 126.048 323.244 126.046 323.232 126.045C323.108 126.018 322.985 125.984 322.864 125.943C322.856 125.939 322.847 125.937 322.837 125.936C322.706 125.891 322.575 125.839 322.444 125.781C322.434 125.781 322.428 125.77 322.417 125.767C322.283 125.705 322.145 125.633 322.004 125.552C321.863 125.47 321.725 125.382 321.587 125.287C321.58 125.281 321.572 125.275 321.563 125.271C321.435 125.183 321.311 125.088 321.186 124.989C321.173 124.978 321.158 124.967 321.143 124.957C321.025 124.859 320.907 124.758 320.788 124.651C320.775 124.637 320.761 124.623 320.746 124.611C320.628 124.504 320.513 124.385 320.401 124.268C320.392 124.259 320.383 124.25 320.375 124.239C320.254 124.111 320.139 123.981 320.024 123.844V123.837C319.909 123.697 319.794 123.553 319.685 123.407L319.679 123.397C319.58 123.267 319.488 123.13 319.396 122.992C319.34 122.907 319.288 122.816 319.229 122.728C319.17 122.64 319.134 122.578 319.091 122.503C319.071 122.467 319.052 122.431 319.028 122.396C318.956 122.269 318.884 122.141 318.819 122.011C318.812 121.996 318.804 121.982 318.795 121.968C318.716 121.812 318.641 121.652 318.569 121.488L318.56 121.463C318.49 121.306 318.424 121.145 318.365 120.985C318.362 120.974 318.357 120.963 318.352 120.953C318.293 120.79 318.237 120.631 318.188 120.46L318.178 120.431C318.132 120.274 318.09 120.108 318.05 119.957L318.04 119.911C318.004 119.748 317.971 119.589 317.945 119.421V119.415C317.919 119.251 317.899 119.092 317.885 118.928C317.885 118.915 317.885 118.902 317.885 118.889C317.873 118.729 317.866 118.567 317.866 118.412C317.866 118.257 317.876 118.105 317.889 117.958C317.889 117.945 317.889 117.932 317.889 117.92C317.903 117.785 317.922 117.658 317.945 117.534C317.945 117.518 317.951 117.501 317.955 117.485C317.981 117.364 318.01 117.25 318.043 117.142C318.05 117.122 318.056 117.103 318.063 117.08C318.099 116.979 318.136 116.878 318.178 116.787C318.178 116.776 318.188 116.763 318.191 116.753C318.239 116.649 318.295 116.549 318.358 116.453C318.366 116.44 318.375 116.428 318.385 116.417C318.435 116.342 318.488 116.27 318.546 116.202C318.566 116.179 318.589 116.156 318.608 116.133C318.657 116.08 318.715 116.025 318.763 115.982C318.785 115.963 318.806 115.944 318.832 115.924C318.907 115.863 318.987 115.807 319.071 115.758L317.049 116.928C316.964 116.977 316.884 117.033 316.809 117.095C316.786 117.114 316.763 117.135 316.743 117.154C316.688 117.199 316.635 117.252 316.586 117.304C316.562 117.327 316.543 117.35 316.523 117.372C316.465 117.441 316.411 117.512 316.362 117.587C316.354 117.6 316.346 117.612 316.336 117.623L316.33 117.629C316.272 117.721 316.219 117.816 316.172 117.913V117.924C316.166 117.934 316.162 117.945 316.159 117.956C316.129 118.018 316.103 118.083 316.076 118.148C316.063 118.182 316.053 118.217 316.044 118.25C316.034 118.282 316.031 118.289 316.024 118.312C316.018 118.334 316.01 118.348 316.004 118.368C315.985 118.437 315.965 118.508 315.948 118.583C315.942 118.609 315.938 118.635 315.932 118.661L315.922 118.711C315.918 118.736 315.913 118.761 315.906 118.786C315.895 118.85 315.886 118.916 315.876 118.982C315.876 119.017 315.87 119.057 315.863 119.096C315.863 119.108 315.863 119.121 315.863 119.135C315.863 119.151 315.86 119.166 315.857 119.18C315.85 119.246 315.847 119.308 315.843 119.376C315.838 119.444 315.843 119.507 315.843 119.576V119.589C315.843 119.651 315.843 119.713 315.843 119.775C315.843 119.837 315.85 119.909 315.853 119.974C315.853 120.004 315.854 120.036 315.86 120.065C315.86 120.078 315.86 120.092 315.86 120.105C315.86 120.118 315.86 120.15 315.866 120.174C315.873 120.241 315.879 120.307 315.889 120.376C315.899 120.445 315.909 120.513 315.919 120.584V120.598C315.929 120.663 315.942 120.728 315.951 120.794C315.961 120.86 315.981 120.937 315.994 121.009C316.001 121.034 316.007 121.059 316.01 121.084L316.02 121.13C316.028 121.163 316.034 121.192 316.044 121.225C316.063 121.297 316.079 121.371 316.103 121.44C316.116 121.493 316.132 121.547 316.149 121.6L316.159 121.629L316.169 121.659C316.191 121.731 316.215 121.802 316.237 121.874C316.26 121.946 316.287 122.015 316.313 122.089C316.313 122.102 316.322 122.115 316.327 122.128C316.33 122.139 316.334 122.15 316.339 122.161C316.356 122.206 316.372 122.249 316.389 122.295C316.415 122.363 316.441 122.429 316.471 122.493C316.501 122.558 316.51 122.589 316.533 122.637L316.543 122.663C316.543 122.674 316.552 122.684 316.556 122.693C316.586 122.762 316.615 122.827 316.648 122.892C316.681 122.958 316.717 123.036 316.756 123.107C316.762 123.117 316.765 123.13 316.772 123.139C316.778 123.149 316.785 123.165 316.794 123.181C316.824 123.241 316.853 123.3 316.883 123.354C316.922 123.426 316.962 123.495 317.002 123.569C317.021 123.605 317.04 123.641 317.064 123.677C317.073 123.69 317.081 123.705 317.087 123.72C317.123 123.781 317.165 123.84 317.202 123.903C317.258 123.991 317.309 124.079 317.366 124.164C317.376 124.177 317.382 124.193 317.392 124.206C317.474 124.331 317.563 124.451 317.648 124.571L317.654 124.582C317.713 124.664 317.776 124.744 317.839 124.823C317.903 124.901 317.94 124.951 317.993 125.013C318.046 125.074 318.1 125.137 318.154 125.199L318.316 125.379C318.325 125.388 318.332 125.398 318.341 125.408C318.351 125.417 318.36 125.427 318.367 125.438C318.407 125.476 318.443 125.519 318.482 125.558C318.541 125.617 318.597 125.675 318.656 125.731C318.672 125.747 318.693 125.763 318.712 125.781C318.726 125.794 318.74 125.807 318.755 125.819C318.784 125.845 318.814 125.875 318.84 125.901C318.902 125.957 318.962 126.009 319.024 126.061C319.051 126.084 319.08 126.106 319.107 126.127C319.12 126.138 319.134 126.149 319.149 126.159C319.169 126.175 319.188 126.191 319.211 126.207C319.27 126.256 319.331 126.302 319.395 126.345C319.438 126.377 319.484 126.407 319.53 126.44C319.54 126.446 319.547 126.452 319.553 126.456C319.559 126.459 319.569 126.465 319.576 126.473L319.753 126.59L319.93 126.698L319.97 126.72C320.013 126.747 320.058 126.77 320.101 126.795C320.144 126.821 320.216 126.855 320.272 126.884C320.309 126.904 320.344 126.92 320.38 126.936C320.389 126.936 320.396 126.946 320.406 126.949C320.415 126.952 320.429 126.959 320.439 126.965C320.493 126.991 320.549 127.014 320.605 127.034C320.661 127.057 320.713 127.077 320.773 127.096L320.803 127.106C320.811 127.11 320.82 127.112 320.829 127.112C320.869 127.125 320.904 127.138 320.937 127.148C320.996 127.165 321.052 127.181 321.108 127.194L321.189 127.214C321.201 127.217 321.213 127.219 321.226 127.22L321.279 127.233C321.341 127.246 321.4 127.257 321.459 127.263C321.495 127.269 321.531 127.269 321.567 127.273C321.581 127.273 321.594 127.273 321.606 127.273C321.619 127.273 321.633 127.273 321.643 127.273C321.709 127.273 321.774 127.279 321.84 127.279C321.869 127.279 321.896 127.279 321.921 127.279C321.947 127.279 321.964 127.279 321.987 127.279C322.009 127.281 322.031 127.281 322.053 127.279C322.133 127.273 322.213 127.26 322.292 127.243C322.31 127.243 322.326 127.233 322.345 127.23C322.425 127.21 322.503 127.191 322.582 127.165L322.599 127.154C322.71 127.116 322.818 127.067 322.921 127.008L324.973 125.839Z" fill="#0078D4"/>
<path d="M325.457 118.648C326.918 121.022 327.733 123.736 327.822 126.521L337.074 121.207C336.942 118.575 336.208 116.009 334.929 113.706C333.649 111.403 331.858 109.424 329.692 107.921C329.226 107.533 328.692 107.233 328.117 107.036C327.091 106.61 325.968 106.473 324.87 106.641C324.269 106.756 315.026 112.154 314.436 112.446C315.124 112.106 315.882 111.93 316.65 111.93C317.418 111.93 318.176 112.106 318.865 112.446C321.694 113.718 324.015 115.902 325.457 118.648Z" fill="#0078D4"/>
<path d="M336.774 131.593L339.082 130.26L339.05 141.807L336.74 143.139L336.774 131.593Z" fill="#0078D4"/>
<path d="M327.858 126.472L330.171 125.137L339.083 130.26L336.774 131.593L327.858 126.472Z" fill="#0078D4"/>
<path d="M327.858 126.473L336.774 131.593L336.741 143.139L303.197 123.88L303.231 112.333L312.145 117.453C312.159 112.496 315.686 110.495 320.027 112.986C322.306 114.455 324.205 116.443 325.566 118.787C326.927 121.132 327.713 123.766 327.858 126.473ZM319.987 126.713C322.283 128.033 324.151 126.971 324.158 124.348C324.08 122.916 323.664 121.522 322.944 120.281C322.223 119.041 321.22 117.988 320.014 117.21C317.719 115.891 315.85 116.952 315.844 119.575C315.921 121.007 316.337 122.401 317.058 123.641C317.779 124.882 318.783 125.933 319.989 126.71L319.987 126.713Z" fill="#84ECFD"/>
<path d="M328.995 150.101L328.982 154.258L306.287 141.228L306.297 137.068L328.995 150.101Z" fill="#84ECFD"/>
<path d="M331.779 160.063L331.766 164.223L306.286 149.594L306.296 145.437L331.779 160.063Z" fill="#84ECFD"/>
<path d="M322.227 162.918L322.214 167.078L306.287 157.931L306.297 153.774L322.227 162.918Z" fill="#84ECFD"/>
<path d="M11.7188 80.165L22.6849 73.8228V87.7971L11.7188 94.1393V80.165Z" fill="#32B0E7"/>
<path d="M0 29.9359L17.2018 19.9131V42.1387L0 52.1615V29.9359Z" fill="#84ECFD"/>
<path d="M365.05 45.9399L376.971 38.9946V54.3965L365.05 61.3428V45.9399Z" fill="#45CAF2"/>
<path d="M294.628 49.0165L311.83 38.9937V61.2193L294.628 71.2421V49.0165Z" fill="#32B0E7"/>
<path d="M59.0859 35.9848L67.6868 31.04V42.0045L59.0859 46.9493V35.9848Z" fill="#2673BA"/>
<path d="M342.524 76.4921L351.125 71.5474V82.5118L342.524 87.4566V76.4921Z" fill="#2673BA"/>
<path d="M258.6 77.5367L193.781 40.1769C191.819 39.0879 189.967 38.9794 188.66 39.7415L182.123 43.5543C183.43 42.7911 185.174 42.9008 187.244 43.9897L252.065 81.4549C254.131 82.8033 255.85 84.6211 257.081 86.7601C258.311 88.8991 259.019 91.2987 259.145 93.763L258.93 155.85C258.93 158.137 258.168 159.663 256.861 160.425L263.506 156.613C264.813 155.85 265.577 154.326 265.577 152.038L265.792 89.9513C265.682 85.3795 262.522 79.8242 258.6 77.5367Z" fill="#185A97"/>
<path d="M251.956 81.4549L187.136 43.9897C183.215 41.7023 180.055 43.5533 180.055 48.1283L179.84 110.216C179.967 112.681 180.674 115.08 181.905 117.219C183.136 119.358 184.855 121.176 186.922 122.524L251.741 159.885C255.663 162.173 258.932 160.322 258.932 155.855L259.147 93.7684C259 91.2956 258.272 88.8921 257.023 86.7528C255.773 84.6135 254.038 82.7986 251.956 81.4549ZM221.889 106.071C221.781 106.071 221.674 106.179 221.566 106.179C221.67 106.186 221.78 106.077 221.889 106.077V106.071Z" fill="#156AB3"/>
<path d="M235.055 44.3176L170.233 6.96105C168.272 5.87105 166.42 5.76248 165.113 6.52462L158.576 10.3375C159.884 9.57532 161.626 9.68389 163.696 10.7728L228.517 48.239C230.584 49.5874 232.303 51.4052 233.533 53.5442C234.764 55.6832 235.472 58.0828 235.598 60.5472L235.383 122.635C235.383 124.923 234.621 126.447 233.314 127.21L239.959 123.397C241.266 122.635 242.029 121.11 242.029 118.822L242.244 56.7354C242.134 52.1605 238.975 46.6051 235.055 44.3176Z" fill="#185A97"/>
<path d="M228.409 48.2392L163.588 10.7708C159.666 8.48332 156.506 10.3408 156.506 14.9094L156.291 76.9973C156.418 79.4616 157.125 81.8612 158.355 84.0002C159.586 86.1392 161.305 87.957 163.372 89.3055L228.192 126.667C232.114 128.955 235.383 127.103 235.383 122.637L235.598 60.5495C235.45 58.0773 234.723 55.6745 233.474 53.5358C232.225 51.397 230.49 49.5825 228.409 48.2392ZM198.34 72.8555C198.232 72.8555 198.125 72.963 198.017 72.963C198.123 72.963 198.231 72.8555 198.34 72.8555Z" fill="url(#paint2_linear_1654_477777)"/>
<path d="M187.488 51.4834L211.248 81.0649L187.255 82.9278L187.488 51.4834Z" fill="#50E6FF"/>
<defs>
<linearGradient id="paint0_linear_1654_477777" x1="58.6207" y1="94.9154" x2="137.299" y2="200.107" gradientUnits="userSpaceOnUse">
<stop stop-color="white" stop-opacity="0"/>
<stop offset="1" stop-color="white"/>
</linearGradient>
<linearGradient id="paint1_linear_1654_477777" x1="112.787" y1="143.541" x2="201.651" y2="215.65" gradientUnits="userSpaceOnUse">
<stop stop-color="#D2D2D2"/>
<stop offset="1" stop-color="white" stop-opacity="0"/>
</linearGradient>
<linearGradient id="paint2_linear_1654_477777" x1="156.289" y1="68.7202" x2="235.599" y2="68.7202" gradientUnits="userSpaceOnUse">
<stop stop-color="#4DC1EA"/>
<stop offset="0.029" stop-color="#49BDE9"/>
<stop offset="0.293" stop-color="#299FE0"/>
<stop offset="0.548" stop-color="#128AD9"/>
<stop offset="0.789" stop-color="#057CD5"/>
<stop offset="1" stop-color="#0078D4"/>
</linearGradient>
</defs>
</svg>
