<svg width="82" height="58" viewBox="0 0 82 58" fill="none" xmlns="http://www.w3.org/2000/svg">
<g opacity="0.2" clip-path="url(#clip0_3306_345617)">
<path fill-rule="evenodd" clip-rule="evenodd" d="M0 1C0 0.447715 0.447715 0 1 0H53C53.5523 0 54 0.447715 54 1V31C54 31.5523 53.5523 32 53 32H0.999999C0.447715 32 0 31.5523 0 31V1ZM0 35C0 34.4477 0.447715 34 1 34H25C25.5523 34 26 34.4477 26 35V57C26 57.5523 25.5523 58 25 58H1C0.447716 58 0 57.5523 0 57V35ZM29 34C28.4477 34 28 34.4477 28 35V57C28 57.5523 28.4477 58 29 58H53C53.5523 58 54 57.5523 54 57V35C54 34.4477 53.5523 34 53 34H29ZM56 35C56 34.4477 56.4477 34 57 34H81C81.5523 34 82 34.4477 82 35V57C82 57.5523 81.5523 58 81 58H57C56.4477 58 56 57.5523 56 57V35ZM57 0C56.4477 0 56 0.447715 56 1V31C56 31.5523 56.4477 32 57 32H81C81.5523 32 82 31.5523 82 31V1C82 0.447715 81.5523 0 81 0H57Z" fill="#117865"/>
</g>
<defs>
<clipPath id="clip0_3306_345617">
<rect width="82" height="58" fill="white"/>
</clipPath>
</defs>
</svg>
