<?xml version="1.0" encoding="utf-8"?><svg xmlns="http://www.w3.org/2000/svg" xmlns:xlink="http://www.w3.org/1999/xlink"><symbol fill="currentColor" viewBox="0 0 20 20" id="data_bar_vertical_lightning_20_regular" xmlns="http://www.w3.org/2000/svg"><path d="M5 3a2 2 0 0 0-2 2v10a2 2 0 1 0 4 0V5a2 2 0 0 0-2-2ZM4 5a1 1 0 1 1 2 0v10a1 1 0 1 1-2 0V5Zm4 3a2 2 0 1 1 4 0v2.404l-1 2.4V8a1 1 0 1 0-2 0v7a1 1 0 0 0 1.085.997c.126.355.382.657.721.834A2 2 0 0 1 8 15.001V8Z"/><path d="M11.502 16h1.75l-.59 2.36c-.12.483.463.826.827.486L18.36 14.3a.75.75 0 0 0-.51-1.3h-1.098l.781-2.342A.5.5 0 0 0 17.06 10h-3.473a.5.5 0 0 0-.462.308l-2.083 5a.5.5 0 0 0 .461.692Z"/></symbol><symbol fill="currentColor" viewBox="0 0 20 20" id="database_kql_20_filled" xmlns="http://www.w3.org/2000/svg"><path d="M10 8.001c3.314 0 6-1.343 6-3s-2.686-3-6-3-6 1.343-6 3 2.686 3 6 3Z"/><path d="M14.69 8.017c.47-.235.927-.534 1.31-.896v3.855h-3.6c-.3 0-.5.1-.8.3-.3.2-.5.4-.6.7-.1.3-.2.6-.1.9 0 .3.2.6.4.8l.1.1c-.05.05-.125.1-.2.15-.075.05-.15.1-.2.15l-.7.7c-.6.6-.6 1.5 0 2.1.1.1.2.2.4.3l-.4.4c-.13.13-.232.273-.305.425-3.312-.002-5.995-1.344-5.995-3v-7.88c.383.362.84.661 1.31.896C6.562 8.643 8.222 9 10 9c1.778 0 3.438-.358 4.69-.984Z"/><path d="M12.484 12.005h5a.5.5 0 0 1 .5.5v5a.5.5 0 0 1-.853.354l-5-5a.5.5 0 0 1 .353-.854Zm.056 2.653a.5.5 0 0 1 0 .707l-.706.708a.5.5 0 1 1-.708-.708l.708-.707a.5.5 0 0 1 .707 0Zm2.83 2.829a.5.5 0 0 1 0 .707l-.708.707a.5.5 0 1 1-.707-.707l.707-.707a.5.5 0 0 1 .707 0Zm-1.415-1.414a.5.5 0 0 1 0 .707l-2.121 2.12a.5.5 0 1 1-.708-.706l2.122-2.121a.5.5 0 0 1 .707 0Z"/></symbol><symbol fill="currentColor" viewBox="0 0 20 20" id="database_kql_20_regular" xmlns="http://www.w3.org/2000/svg"><path d="M4 5.001c0-1.007.875-1.755 1.904-2.223C6.978 2.29 8.427 2.001 10 2.001s3.022.289 4.096.777C15.125 3.246 16 3.994 16 5.001v5.975h-1V6.699a4.92 4.92 0 0 1-.904.525C13.022 7.712 11.573 8 10 8s-3.022-.289-4.096-.777A4.921 4.921 0 0 1 5 6.699v8.302c0 .374.356.875 1.318 1.313C7.234 16.73 8.536 17 10 17c.143 0 .284-.003.424-.008.07.061.154.122.276.183l-.4.4c-.13.13-.231.273-.305.425-1.571 0-3.018-.29-4.091-.777C4.875 16.756 4 16.008 4 15V5Zm1 0c0 .374.356.875 1.318 1.313C7.234 6.73 8.536 7 10 7s2.766-.27 3.682-.687C14.644 5.876 15 5.374 15 5s-.356-.875-1.318-1.313C12.766 3.271 11.464 3 10 3s-2.766.27-3.682.687C5.356 4.126 5 4.628 5 5.001Z"/><path d="M12.484 12.005h5a.5.5 0 0 1 .5.5v5a.5.5 0 0 1-.853.354l-5-5a.5.5 0 0 1 .353-.854Zm.056 2.653a.5.5 0 0 1 0 .707l-.706.708a.5.5 0 1 1-.708-.708l.708-.707a.5.5 0 0 1 .707 0Zm2.83 2.829a.5.5 0 0 1 0 .707l-.708.707a.5.5 0 1 1-.707-.707l.707-.707a.5.5 0 0 1 .707 0Zm-1.415-1.414a.5.5 0 0 1 0 .707l-2.121 2.12a.5.5 0 1 1-.708-.706l2.122-2.121a.5.5 0 0 1 .707 0Z"/></symbol><symbol fill="currentColor" viewBox="0 0 24 24" id="database_kql_24_filled" xmlns="http://www.w3.org/2000/svg"><path d="M20 6c0 2.21-3.582 4-8 4S4 8.21 4 6c0-2.209 3.582-4 8-4s8 1.791 8 4Z"/><path d="M20 9.054a7.61 7.61 0 0 1-1.672 1.117c-1.697.848-3.936 1.33-6.328 1.33-2.392 0-4.63-.482-6.328-1.33A7.61 7.61 0 0 1 4 9.054V18c0 2.21 3.582 4 8 4h.13a2.248 2.248 0 0 1 .5-1.808 2.25 2.25 0 0 1-.4-3.5l.706-.708c.18-.18.382-.322.597-.428-.812-1.266.062-3.053 1.68-3.066L20 12.453v-3.4Z"/><path d="m15.227 13.99 6.32-.049a.5.5 0 0 1 .505.504l-.05 6.32a.5.5 0 0 1-.853.35l-1.68-1.68v.002l-4.594-4.594a.5.5 0 0 1 .35-.853h.002Zm-1.572 7.925h-.002a.751.751 0 0 1 .169-.805l2.12-2.121a.748.748 0 0 1 .53-.22.75.75 0 0 1 .533 1.28l-2.121 2.122a.75.75 0 0 1-1.229-.256Zm.873-5.09a.747.747 0 0 0-.53.22l-.707.706a.75.75 0 1 0 1.062 1.061l.707-.707a.75.75 0 0 0-.532-1.28Zm4.42 4.109a.75.75 0 0 1 0 1.06l-.707.707a.75.75 0 0 1-1.06-1.06l.707-.707a.75.75 0 0 1 1.06 0Z"/></symbol><symbol fill="currentColor" viewBox="0 0 24 24" id="database_kql_24_regular" xmlns="http://www.w3.org/2000/svg"><path d="M4.774 4.22C4.315 4.708 4 5.31 4 6v12c0 .691.315 1.294.774 1.78.455.483 1.079.883 1.793 1.203C7.996 21.623 9.917 22 12 22h.13a2.253 2.253 0 0 1 .284-1.505c-.137.004-.275.005-.414.005-1.921 0-3.625-.35-4.82-.886-.598-.268-1.036-.568-1.315-.863-.275-.291-.365-.544-.365-.75V8.392c.32.22.68.417 1.067.59C7.996 9.622 9.917 10 12 10c2.083 0 4.004-.377 5.433-1.018.386-.173.746-.37 1.067-.59v4.072l1.5-.012V6c0-.69-.315-1.293-.774-1.78-.455-.482-1.079-.882-1.793-1.202C16.004 2.378 14.083 2 12 2c-2.083 0-4.004.377-5.433 1.018-.714.32-1.338.72-1.793 1.203Zm1.091 2.53C5.59 6.46 5.5 6.208 5.5 6c0-.206.09-.459.365-.75.279-.295.717-.595 1.315-.863C8.375 3.85 10.08 3.5 12 3.5c1.921 0 3.625.351 4.82.887.598.268 1.036.568 1.315.863.275.291.365.544.365.75 0 .207-.09.46-.365.75-.279.296-.717.596-1.315.864-1.195.536-2.899.886-4.82.886-1.921 0-3.625-.35-4.82-.886-.598-.268-1.036-.568-1.315-.863Z"/><path d="M15.227 13.99a.5.5 0 0 0-.35.854l3.53 3.529v.001l1.086 1.087v-.001l1.656 1.656a.5.5 0 0 0 .854-.35l.049-6.32a.5.5 0 0 0-.504-.505l-6.321.049Zm-.554 6.27h-.002l-.85.85a.751.751 0 0 0-.166.81h.002a.749.749 0 0 0 1.227.25l2.121-2.12a.75.75 0 0 0-1.06-1.061l-1.272 1.271Zm.387-2.155a.75.75 0 0 0-1.061-1.06l-.707.706a.75.75 0 0 0 1.06 1.061l.708-.707Zm3.888 2.829a.75.75 0 0 1 0 1.06l-.707.707a.75.75 0 0 1-1.06-1.06l.707-.707a.75.75 0 0 1 1.06 0Z"/></symbol><symbol fill="currentColor" viewBox="0 0 20 20" id="gauge_kql_20_filled" xmlns="http://www.w3.org/2000/svg"><path d="M10 18c.348 0 .692-.022 1.029-.066.07-.127.16-.248.27-.359l.4-.4c-.2-.1-.3-.2-.4-.3-.6-.6-.6-1.5 0-2.1l.7-.7c.05-.05.126-.1.2-.15.076-.05.15-.1.2-.15l-.1-.1c-.2-.2-.354-.44-.4-.8-.045-.357 0-.6.1-.9.1-.3.3-.5.6-.7.3-.2.5-.3.8-.3h1.506a5.02 5.02 0 0 0-.246-2.793.5.5 0 0 1 .932-.364 6.02 6.02 0 0 1 .33 3.157h2.02A8 8 0 1 0 10 18Zm1.819-12.66a5.002 5.002 0 0 0-5.355 8.196.5.5 0 0 1-.707.707 6 6 0 0 1 6.425-9.834.5.5 0 0 1-.364.932Zm2.266.48a.5.5 0 0 1 .111.625l-.11.196a323.588 323.588 0 0 1-.686 1.206l-.23.402-.298.518-.422.727c-.2.345-.395.675-.567.963a30.112 30.112 0 0 1-.492.793 4.28 4.28 0 0 1-.074.108 1.5 1.5 0 1 1-2.371-1.83c.072-.085.203-.205.343-.329.15-.132.343-.296.56-.479.436-.364.982-.81 1.514-1.24.533-.432 1.055-.85 1.443-1.16l.275-.219.369-.293a.5.5 0 0 1 .635.011Z"/><path d="M13.484 12.004h5a.5.5 0 0 1 .5.5v5a.5.5 0 0 1-.853.354l-5-5a.5.5 0 0 1 .353-.854Zm.056 2.653a.5.5 0 0 1 0 .707l-.706.707a.5.5 0 1 1-.708-.707l.708-.707a.5.5 0 0 1 .707 0Zm2.83 2.829a.5.5 0 0 1 0 .707l-.708.707a.5.5 0 1 1-.707-.707l.707-.707a.5.5 0 0 1 .707 0Zm-1.415-1.414a.5.5 0 0 1 0 .707l-2.121 2.12a.5.5 0 1 1-.708-.706l2.122-2.122a.5.5 0 0 1 .707 0Z"/></symbol><symbol fill="currentColor" viewBox="0 0 20 20" id="gauge_kql_20_regular" xmlns="http://www.w3.org/2000/svg"><path d="M16.933 10.975a7 7 0 1 0-5.629 5.904c.099.099.199.197.396.296l-.4.4a1.59 1.59 0 0 0-.271.36 8 8 0 1 1 6.912-6.96h-1.008Z"/><path d="M12.466 5.057a.5.5 0 0 1-.647.284 5.001 5.001 0 0 0-5.355 8.195.5.5 0 1 1-.707.707 6 6 0 0 1 6.425-9.834.5.5 0 0 1 .284.648Zm2.478 2.477a.5.5 0 0 1 .647.285c.393 1.007.503 2.1.33 3.156h-1.016a5.019 5.019 0 0 0-.246-2.793.5.5 0 0 1 .284-.648Z"/><path d="M14.085 5.82a.5.5 0 0 0-.635-.012l-.177.14a335.172 335.172 0 0 0-1.91 1.531c-.532.431-1.078.877-1.513 1.242-.218.182-.41.346-.56.478a3.97 3.97 0 0 0-.344.328 1.5 1.5 0 1 0 2.282 1.948c.072-.084.17-.232.27-.39.107-.17.239-.385.385-.628.292-.488.646-1.096.989-1.69a300.727 300.727 0 0 0 1.213-2.126l.111-.196a.5.5 0 0 0-.11-.626Zm-.601 6.184h5a.5.5 0 0 1 .5.5v5a.5.5 0 0 1-.853.354l-5-5a.5.5 0 0 1 .353-.854Zm.056 2.653a.5.5 0 0 1 0 .707l-.706.707a.5.5 0 1 1-.708-.707l.708-.707a.5.5 0 0 1 .707 0Zm2.83 2.829a.5.5 0 0 1 0 .707l-.708.707a.5.5 0 1 1-.707-.707l.707-.707a.5.5 0 0 1 .707 0Zm-1.415-1.414a.5.5 0 0 1 0 .707l-2.121 2.12a.5.5 0 1 1-.708-.706l2.122-2.122a.5.5 0 0 1 .707 0Z"/></symbol><symbol fill="currentColor" viewBox="0 0 24 24" id="gauge_kql_24_filled" xmlns="http://www.w3.org/2000/svg"><path d="M13.217 21.927A10.1 10.1 0 0 1 12 22C6.477 22 2 17.523 2 12S6.477 2 12 2s10 4.477 10 10c0 .491-.035.974-.104 1.446l-2.795.021a7.281 7.281 0 0 0-.258-3.865.75.75 0 0 0-1.415.495 5.775 5.775 0 0 1 .13 3.382l-1.345.01c-1.618.013-2.492 1.8-1.68 3.066a2.249 2.249 0 0 0-.597.428l-.707.707a2.25 2.25 0 0 0 .4 3.501 2.237 2.237 0 0 0-.412.736Zm3.456-15.275a.625.625 0 0 0-.794.015l-.214.184a364.42 364.42 0 0 0-2.314 2.002 154.39 154.39 0 0 0-1.833 1.621c-.263.238-.495.452-.677.625-.169.16-.327.316-.413.425a1.875 1.875 0 1 0 2.94 2.327c.087-.109.202-.299.32-.5.126-.217.28-.492.451-.803.343-.623.757-1.4 1.157-2.157a373.604 373.604 0 0 0 1.416-2.712l.13-.25a.625.625 0 0 0-.169-.777Zm-9.8 10.474a.75.75 0 0 0 1.061-1.06 5.75 5.75 0 0 1 5.394-9.662.75.75 0 1 0 .344-1.46 7.25 7.25 0 0 0-6.799 12.182Zm8.727 4.206-.003.002 1.345-1.346a.747.747 0 0 1 .53-.22.75.75 0 0 1 .533 1.28l-2.121 2.122a.75.75 0 0 1-1.061-1.06l.777-.778Z"/><path d="M22.548 14.94a.5.5 0 0 1 .504.505l-.05 6.32a.5.5 0 0 1-.853.35l-3.06-3.061h-.002l-1.944-1.944-1.06-1.061h-.001l-.207-.206a.5.5 0 0 1 .35-.854h.002l6.32-.048Zm-7.02 2.884a.748.748 0 0 0-.53.22l-.707.706a.75.75 0 1 0 1.062 1.062l.707-.707a.75.75 0 0 0-.532-1.28Zm4.42 4.109a.75.75 0 0 1 0 1.06l-.707.708a.75.75 0 0 1-1.06-1.06l.707-.708a.75.75 0 0 1 1.06 0Z"/></symbol><symbol fill="currentColor" viewBox="0 0 24 24" id="gauge_kql_24_regular" xmlns="http://www.w3.org/2000/svg"><path d="M20.375 13.458a8.5 8.5 0 1 0-7.477 6.995 2.25 2.25 0 0 0 .732.738 2.237 2.237 0 0 0-.413.736A10.1 10.1 0 0 1 12 22C6.477 22 2 17.523 2 12S6.477 2 12 2s10 4.477 10 10c0 .491-.035.974-.104 1.446l-1.52.012Z"/><path d="M7.934 16.066a.75.75 0 1 1-1.06 1.06 7.25 7.25 0 0 1 6.798-12.182.75.75 0 1 1-.344 1.46 5.75 5.75 0 0 0-5.393 9.661Zm9.954-6.925a.75.75 0 0 1 .955.46 7.281 7.281 0 0 1 .258 3.866l-1.543.012a5.775 5.775 0 0 0-.13-3.382.75.75 0 0 1 .46-.956Zm4.66 5.799a.5.5 0 0 1 .504.505l-.05 6.32a.5.5 0 0 1-.853.35l-3.06-3.061h-.002l-1.06-1.06-.883-.885-.001.001-1.061-1.06v-.001l-.205-.206a.5.5 0 0 1 .35-.854l6.32-.048Zm-7.756 5.09.028.001a.747.747 0 0 0 .533-.22l.707-.706a.75.75 0 0 0-1.061-1.061l-.707.707a.75.75 0 0 0 .5 1.28Zm.808 1.302-.003.002 1.345-1.346a.747.747 0 0 1 .53-.22.75.75 0 0 1 .533 1.28l-2.121 2.122a.75.75 0 0 1-1.061-1.06l.777-.778Z"/><path d="M15.88 6.667a.625.625 0 0 1 .961.761l-.13.25a354.691 354.691 0 0 1-1.415 2.713 154.8 154.8 0 0 1-1.156 2.157c-.171.31-.326.586-.452.803a4.964 4.964 0 0 1-.32.5 1.875 1.875 0 0 1-2.94-2.327c.086-.109.244-.265.413-.425.182-.173.414-.387.678-.625.527-.476 1.187-1.058 1.832-1.62a375.175 375.175 0 0 1 2.314-2.003l.214-.184Zm4.068 15.266a.75.75 0 0 1 0 1.06l-.707.708a.75.75 0 0 1-1.06-1.06l.707-.708a.75.75 0 0 1 1.06 0Z"/></symbol><symbol fill="currentColor" viewBox="0 0 20 20" id="square_multiple_overlap_kql_20_filled" xmlns="http://www.w3.org/2000/svg"><path d="M6 4.5V4a2 2 0 0 1 2-2h8a2 2 0 0 1 2 2v7h-1.5V4a.5.5 0 0 0-.5-.5H8a.5.5 0 0 0-.5.5v.5H6Z"/><path d="M14 8v3h-.6c-.3 0-.465.016-.765.216a1.857 1.857 0 0 0-.135.1V8a.5.5 0 0 0-.5-.5H4a.5.5 0 0 0-.5.5v8a.5.5 0 0 0 .5.5h7.007c.073.142.17.277.293.4.1.1.2.2.4.3l-.4.4a1.58 1.58 0 0 0-.293.4H4a2 2 0 0 1-2-2V8a2 2 0 0 1 2-2h8a2 2 0 0 1 2 2Z"/><path d="M13.484 12.004h5a.5.5 0 0 1 .5.5v5a.5.5 0 0 1-.853.354l-5-5a.5.5 0 0 1 .353-.854Zm.056 2.653a.5.5 0 0 1 0 .707l-.706.707a.5.5 0 1 1-.708-.707l.708-.707a.5.5 0 0 1 .707 0Zm2.83 2.829a.5.5 0 0 1 0 .707l-.708.707a.5.5 0 1 1-.707-.707l.707-.707a.5.5 0 0 1 .707 0Zm-1.415-1.414a.5.5 0 0 1 0 .707l-2.121 2.12a.5.5 0 1 1-.708-.706l2.122-2.122a.5.5 0 0 1 .707 0Z"/></symbol><symbol fill="currentColor" viewBox="0 0 20 20" id="square_multiple_overlap_kql_20_regular" xmlns="http://www.w3.org/2000/svg"><path d="M6 4a2 2 0 0 1 2-2h8a2 2 0 0 1 2 2v6.975h-1V4a1 1 0 0 0-1-1H8a1 1 0 0 0-1 1v1H6V4Z"/><path d="M14 8v2.975h-.6c-.15 0-.275.025-.4.075V8a1 1 0 0 0-1-1H4a1 1 0 0 0-1 1v8a1 1 0 0 0 1 1h7.432c.069.058.151.117.268.175l-.4.4c-.13.13-.231.273-.305.425H4a2 2 0 0 1-2-2V8a2 2 0 0 1 2-2h8a2 2 0 0 1 2 2Z"/><path d="M13.484 12.004h5a.5.5 0 0 1 .5.5v5a.5.5 0 0 1-.853.354l-5-5a.5.5 0 0 1 .353-.854Zm.056 2.653a.5.5 0 0 1 0 .707l-.706.707a.5.5 0 1 1-.708-.707l.708-.707a.5.5 0 0 1 .707 0Zm2.83 2.829a.5.5 0 0 1 0 .707l-.708.707a.5.5 0 1 1-.707-.707l.707-.707a.5.5 0 0 1 .707 0Zm-1.415-1.414a.5.5 0 0 1 0 .707l-2.121 2.12a.5.5 0 1 1-.708-.706l2.122-2.122a.5.5 0 0 1 .707 0Z"/></symbol><symbol fill="currentColor" viewBox="0 0 24 24" id="square_multiple_overlap_kql_24_filled" xmlns="http://www.w3.org/2000/svg"><path d="M10 2a3.5 3.5 0 0 0-3.465 3h2.05A1.5 1.5 0 0 1 10 4h8.5A1.5 1.5 0 0 1 20 5.5v7.96l2-.015V5.5A3.5 3.5 0 0 0 18.5 2H10Z"/><path d="M17.5 10.5v2.98l-1.287.01a2.027 2.027 0 0 0-.713.131V10.5A1.5 1.5 0 0 0 14 9H5.5A1.5 1.5 0 0 0 4 10.5V19a1.5 1.5 0 0 0 1.5 1.5h7.428a2.256 2.256 0 0 0 .702.691c-.32.38-.495.84-.524 1.309H5.5A3.5 3.5 0 0 1 2 19v-8.5A3.5 3.5 0 0 1 5.5 7H14a3.5 3.5 0 0 1 3.5 3.5Z"/><path d="M15.5 17.825a.747.747 0 0 0-.501.219l-.707.707a.75.75 0 0 0 1.06 1.06l.708-.706a.75.75 0 0 0-.56-1.28Zm1.915 1.945a.747.747 0 0 0-.473.218l-2.12 2.121a.749.749 0 0 0-.194.335h.001a.75.75 0 0 0 1.255.726l2.121-2.121a.75.75 0 0 0-.59-1.278Zm.085-2.302-1.625-1.625a.5.5 0 0 1 .35-.854h.002l6.32-.048a.5.5 0 0 1 .505.504l-.05 6.32a.5.5 0 0 1-.853.35l-4.649-4.65v.003Zm2.448 4.465a.75.75 0 0 1 0 1.06l-.707.708a.75.75 0 0 1-1.06-1.06l.707-.708a.75.75 0 0 1 1.06 0Z"/></symbol><symbol fill="currentColor" viewBox="0 0 24 24" id="square_multiple_overlap_kql_24_regular" xmlns="http://www.w3.org/2000/svg"><path d="M10.25 2A3.25 3.25 0 0 0 7 5.25v.25h1.5v-.25c0-.966.784-1.75 1.75-1.75h8.5c.966 0 1.75.784 1.75 1.75v8.207l1.5-.012V5.25A3.25 3.25 0 0 0 18.75 2h-8.5Z"/><path d="M17 10.25v3.233l-.787.007a2.027 2.027 0 0 0-.713.131V10.25a1.75 1.75 0 0 0-1.75-1.75h-8.5a1.75 1.75 0 0 0-1.75 1.75v8.5c0 .966.784 1.75 1.75 1.75h7.678a2.256 2.256 0 0 0 .702.691c-.205.243-.35.52-.436.809H5.25A3.25 3.25 0 0 1 2 18.75v-8.5A3.25 3.25 0 0 1 5.25 7h8.5A3.25 3.25 0 0 1 17 10.25Z"/><path d="M15.5 17.825a.747.747 0 0 0-.501.219l-.707.707a.75.75 0 0 0 1.06 1.06l.708-.706a.75.75 0 0 0-.56-1.28Zm-.143 3.751-.004.002 1.225-1.225-.002.004.368-.369a.75.75 0 1 1 1.061 1.06l-2.121 2.122a.75.75 0 0 1-1.061-1.06l.534-.534ZM17 16.968l-1.125-1.125a.5.5 0 0 1 .35-.854h.002l6.32-.048a.5.5 0 0 1 .505.504l-.05 6.32a.5.5 0 0 1-.853.35L17 16.965v.003Zm2.948 4.965a.75.75 0 0 1 0 1.06l-.707.708a.75.75 0 0 1-1.06-1.06l.707-.708a.75.75 0 0 1 1.06 0Z"/></symbol></svg>