<?xml version="1.0" encoding="utf-8"?><svg xmlns="http://www.w3.org/2000/svg" xmlns:xlink="http://www.w3.org/1999/xlink"><symbol fill="currentColor" viewBox="0 0 16 16" id="datatype_binary_16_filled" xmlns="http://www.w3.org/2000/svg"><path d="M5.75 4.001c-1.027 0-1.77.487-2.212 1.254C3.129 5.965 3 6.87 3 7.751c0 .88.129 1.786.538 2.495.441.768 1.185 1.255 2.212 1.255 1.027 0 1.77-.487 2.213-1.255.408-.71.537-1.614.537-2.495 0-.88-.129-1.786-.537-2.496-.442-.767-1.186-1.254-2.213-1.254ZM4.5 7.751c0-.776.121-1.371.338-1.747.183-.319.44-.503.912-.503.473 0 .73.184.912.503.217.376.338.97.338 1.747 0 .776-.121 1.371-.338 1.747-.183.319-.44.503-.912.503-.473 0-.73-.184-.912-.503-.217-.376-.338-.97-.338-1.747Zm6.147-1.372.34-.227v4.599a.75.75 0 1 0 1.5 0v-6a.75.75 0 0 0-1.165-.624l-1.5 1-.006.004a.75.75 0 0 0 .831 1.248Z"/></symbol><symbol fill="currentColor" viewBox="0 0 16 16" id="datatype_binary_16_regular" xmlns="http://www.w3.org/2000/svg"><path d="M5.504 4.001c-.935 0-1.597.437-1.996 1.13-.376.653-.504 1.507-.504 2.37 0 .863.128 1.717.504 2.37.399.693 1.061 1.13 1.996 1.13S7.1 10.564 7.5 9.871c.376-.653.504-1.507.504-2.37 0-.863-.128-1.717-.504-2.37C7.1 4.437 6.439 4 5.504 4Zm-1.5 3.5c0-.794.122-1.44.37-1.872.227-.393.565-.628 1.13-.628s.903.235 1.13.628c.248.432.37 1.079.37 1.872 0 .793-.122 1.44-.37 1.872-.227.393-.565.628-1.13.628s-.903-.235-1.13-.628c-.248-.432-.37-1.079-.37-1.872Zm7.732-3.441a.5.5 0 0 1 .264.441v6a.5.5 0 0 1-1 0V5.435l-.723.482a.5.5 0 1 1-.554-.832l1.5-1a.5.5 0 0 1 .513-.025Z"/></symbol><symbol fill="currentColor" viewBox="0 0 16 16" id="datatype_boolean_16_filled" xmlns="http://www.w3.org/2000/svg"><path d="M10.717 1.033a.75.75 0 0 1 .502.935l-3.469 11.5a.75.75 0 1 1-1.436-.434l3.469-11.5a.75.75 0 0 1 .934-.501ZM3.75 4c-1.027 0-1.77.488-2.212 1.255C1.129 5.965 1 6.87 1 7.751c0 .88.129 1.786.538 2.495.441.768 1.185 1.255 2.212 1.255 1.027 0 1.77-.487 2.213-1.255.408-.71.537-1.614.537-2.495s-.129-1.786-.537-2.496C5.52 4.488 4.777 4.001 3.75 4.001ZM2.5 7.75c0-.775.121-1.37.337-1.746.184-.319.44-.503.913-.503.473 0 .73.184.912.503.217.376.338.97.338 1.747 0 .776-.121 1.371-.338 1.747-.183.318-.44.503-.912.503-.473 0-.73-.185-.913-.503-.216-.376-.337-.971-.337-1.747Zm10.147-1.371.34-.227v4.599a.75.75 0 1 0 1.5 0v-6a.75.75 0 0 0-1.165-.624l-1.5 1-.006.004a.75.75 0 0 0 .831 1.248Z"/></symbol><symbol fill="currentColor" viewBox="0 0 16 16" id="datatype_boolean_16_regular" xmlns="http://www.w3.org/2000/svg"><path d="M10.98 1.614a.5.5 0 1 0-.959-.288L6.396 13.388a.5.5 0 1 0 .958.288L10.98 1.614ZM3.504 4c-.935 0-1.597.438-1.996 1.13-.376.654-.504 1.508-.504 2.37 0 .864.128 1.718.504 2.372C1.907 10.564 2.57 11 3.504 11S5.1 10.564 5.5 9.87c.376-.653.504-1.507.504-2.37 0-.864-.128-1.717-.504-2.37C5.1 4.437 4.439 4 3.504 4Zm-1.5 3.5c0-.793.122-1.44.37-1.871.227-.393.565-.628 1.13-.628s.903.235 1.13.628c.248.432.37 1.078.37 1.872 0 .793-.122 1.44-.37 1.872-.227.393-.565.628-1.13.628s-.903-.235-1.13-.628c-.248-.432-.37-1.079-.37-1.872Zm11.732-3.44A.5.5 0 0 1 14 4.5v6a.5.5 0 0 1-1 0V5.436l-.723.482a.5.5 0 0 1-.554-.832l1.5-1a.5.5 0 0 1 .513-.025Z"/></symbol><symbol fill="currentColor" viewBox="0 0 16 16" id="datatype_double_16_filled" xmlns="http://www.w3.org/2000/svg"><path d="M8.286 10.832a.75.75 0 0 0 .475.169h3.5a.75.75 0 1 0 0-1.5h-2.5a2.382 2.382 0 0 1 1.163-.839l.013-.004.012-.006c1.005-.454 1.535-1 1.804-1.542.265-.533.26-1.034.258-1.354v-.014A2.329 2.329 0 0 0 10.546 3.5a2.45 2.45 0 0 0-2.362 1.468l-.004.01a.75.75 0 0 0 1.396.55.982.982 0 0 1 .951-.528l.018.001h.017a.9.9 0 0 1 .949.842c.002.236-.001.44-.128.657-.129.221-.41.493-1.053.782-1.298.586-1.894 1.322-2.152 1.95-.256.623-.166 1.107-.153 1.169a.75.75 0 0 0 .26.43Zm-4.798-5.18-.34.227a.75.75 0 0 1-.832-1.248l.006-.005 1.5-1a.75.75 0 0 1 1.166.624v6a.75.75 0 1 1-1.5 0V5.653ZM7 10.5a.5.5 0 1 1-1 0 .5.5 0 0 1 1 0Z"/></symbol><symbol fill="currentColor" viewBox="0 0 16 16" id="datatype_double_16_regular" xmlns="http://www.w3.org/2000/svg"><path d="M10.763 5.06a1.107 1.107 0 0 0-.43-.057.498.498 0 0 1-.065 0 1.215 1.215 0 0 0-1.184.709.5.5 0 0 1-.91-.415A2.215 2.215 0 0 1 10.3 4.004a2.107 2.107 0 0 1 2.184 1.734.5.5 0 0 1 .029.17v.075c.004.25.01.692-.215 1.156-.257.528-.77 1.02-1.7 1.442-.992.448-1.359.94-1.499 1.255l-.03.071h2.944a.5.5 0 0 1 0 1h-3.5a.5.5 0 0 1-.489-.395v-.003l-.001-.004-.002-.01a.888.888 0 0 1-.014-.1 1.617 1.617 0 0 1-.003-.234c.01-.191.054-.446.182-.732.26-.583.833-1.232 2-1.76.79-.357 1.088-.712 1.212-.967.112-.23.116-.435.115-.674a1.105 1.105 0 0 0-.75-.969Zm-6.027-1A.5.5 0 0 1 5 4.501v6a.5.5 0 0 1-1 0V5.435l-.723.482a.5.5 0 1 1-.554-.832l1.5-1a.5.5 0 0 1 .513-.025ZM7 10.5a.5.5 0 1 1-1 0 .5.5 0 0 1 1 0Z"/></symbol><symbol fill="currentColor" viewBox="0 0 16 16" id="datatype_float_16_filled" xmlns="http://www.w3.org/2000/svg"><g clip-path="url(#aga)"><path d="M8.503 3.499a2.5 2.5 0 0 0-2.5 2.5.75.75 0 1 0 1.5 0 1 1 0 1 1 2 0c0 .015 0 .03.002.046v.003a1.19 1.19 0 0 1-.405.705l-1.56.902a2.84 2.84 0 0 0-1.536 2.619.75.75 0 0 0 .75.725h3.5a.75.75 0 0 0 0-1.5H7.686l.002-.003a1.34 1.34 0 0 1 .586-.533l1.627-.941a.75.75 0 0 0 .086-.058 2.691 2.691 0 0 0 1.015-1.795.755.755 0 0 0 .004-.137l-.004-.059a2.5 2.5 0 0 0-2.5-2.474ZM1.488 5.652l-.34.227A.75.75 0 0 1 .315 4.63l.006-.005 1.5-1a.75.75 0 0 1 1.166.624v6a.75.75 0 1 1-1.5 0V5.653ZM5 10.5a.5.5 0 1 1-1 0 .5.5 0 0 1 1 0Zm7.75-6.999h2.5a.75.75 0 1 1 0 1.5H13.5v1.5h1.25a.75.75 0 1 1 0 1.5H13.5v2.25a.75.75 0 1 1-1.5 0v-6a.75.75 0 0 1 .75-.75Z"/></g><defs><clipPath id="aga"><path d="M0 0h16v16H0z"/></clipPath></defs></symbol><symbol fill="currentColor" viewBox="0 0 16 16" id="datatype_float_16_regular" xmlns="http://www.w3.org/2000/svg"><path d="M12.146 4.147a.5.5 0 0 0-.146.354v6a.5.5 0 0 0 1 0v-2.5h1.5a.5.5 0 0 0 0-1H13v-2h2.5a.5.5 0 0 0 0-1h-3a.5.5 0 0 0-.354.146Zm-9.41-.087A.5.5 0 0 1 3 4.501v6a.5.5 0 0 1-1 0V5.435l-.723.482a.5.5 0 1 1-.554-.832l1.5-1a.5.5 0 0 1 .513-.025ZM5 10.5a.5.5 0 1 1-1 0 .5.5 0 0 1 1 0Zm3.25-6.499A2.25 2.25 0 0 0 6 6.251a.5.5 0 0 0 1 0 1.25 1.25 0 1 1 2.5.031l.002.03a1.44 1.44 0 0 1-.512.899l-1.584.915A2.59 2.59 0 0 0 6 10.518a.5.5 0 0 0 .5.483H10a.5.5 0 1 0 0-1H7.057a1.59 1.59 0 0 1 .839-1.002l1.627-.941a.499.499 0 0 0 .057-.039 2.44 2.44 0 0 0 .92-1.627.494.494 0 0 0 .003-.092l-.004-.066a2.25 2.25 0 0 0-2.25-2.233Z"/></symbol><symbol fill="currentColor" viewBox="0 0 16 16" id="datatype_integer_16_filled" xmlns="http://www.w3.org/2000/svg"><g clip-path="url(#aia)"><mask id="aib" width="16" height="17" x="0" y="0" maskUnits="userSpaceOnUse" style="mask-type:luminance"><path d="M16 .001H0v16h16v-16Z"/></mask><g mask="url(#aib)"><path d="M14.769 6.681a2.153 2.153 0 0 1-.398.544 2.033 2.033 0 0 1 .659 1.495c0 1.167-1.006 2.279-2.779 2.279a3.75 3.75 0 0 1-2.522-.964l-.01-.01a.75.75 0 0 1 1.055-1.068c.41.354.934.546 1.475.542h.002c.929 0 1.277-.467 1.279-.783a.55.55 0 0 0-.213-.422 1.66 1.66 0 0 0-1.051-.295h-.015a.75.75 0 0 1 0-1.5c.913 0 1.254-.464 1.256-.78a.557.557 0 0 0-.214-.427 1.606 1.606 0 0 0-1.027-.293h-.018a2.235 2.235 0 0 0-1.483.545l-.002.002a.75.75 0 0 1-1.05-1.065l.01-.012.012-.01a3.75 3.75 0 0 1 2.51-.96 3.08 3.08 0 0 1 1.987.622l.005.004a2.049 2.049 0 0 1 .77 1.594v.004a2.15 2.15 0 0 1-.238.958ZM4.735 4.23a2.5 2.5 0 0 1 4.268 1.743l.004.059a.75.75 0 0 1-.004.138 2.69 2.69 0 0 1-1.015 1.794.75.75 0 0 1-.086.058l-1.627.94a1.34 1.34 0 0 0-.586.533l-.002.004h2.566a.75.75 0 1 1 0 1.5h-3.5a.75.75 0 0 1-.75-.725 2.84 2.84 0 0 1 1.538-2.62l1.56-.901a1.19 1.19 0 0 0 .404-.705v-.003A.745.745 0 0 1 7.503 6a1 1 0 1 0-2 0 .75.75 0 0 1-1.5 0 2.5 2.5 0 0 1 .732-1.768ZM1.488 5.652l-.34.227A.75.75 0 0 1 .315 4.63l.006-.005 1.5-1a.75.75 0 0 1 1.166.624v6a.75.75 0 1 1-1.5 0V5.653Z"/></g></g><defs><clipPath id="aia"><path d="M0 0h16v16H0z"/></clipPath></defs></symbol><symbol fill="currentColor" viewBox="0 0 16 16" id="datatype_integer_16_regular" xmlns="http://www.w3.org/2000/svg"><path d="M4.658 4.66A2.25 2.25 0 0 1 8.5 6.234l.004.066a.5.5 0 0 1-.002.092 2.44 2.44 0 0 1-.921 1.627.499.499 0 0 1-.057.039l-1.627.94A1.59 1.59 0 0 0 5.058 10h2.941a.5.5 0 1 1 0 1.001H4.5a.5.5 0 0 1-.5-.483 2.59 2.59 0 0 1 1.407-2.392l1.584-.915a1.44 1.44 0 0 0 .512-.898l-.002-.03A2.25 2.25 0 0 1 4.658 4.66Zm-1.922-.6A.5.5 0 0 1 3 4.501v6a.5.5 0 0 1-1 0V5.435l-.723.482a.5.5 0 1 1-.554-.832l1.5-1a.5.5 0 0 1 .513-.025Zm7.095 1.566A2.494 2.494 0 0 1 11.497 5h.003c.598 0 .98.162 1.203.35a.8.8 0 0 1 .303.638C12.996 6.399 12.603 7 11.5 7a.5.5 0 0 0 0 1c.61 0 1 .163 1.225.352a.79.79 0 0 1 .304.634C13.018 9.394 12.618 10 11.5 10h-.003a2.494 2.494 0 0 1-1.666-.625.5.5 0 1 0-.662.75c.644.568 1.474.88 2.332.875 1.502 0 2.497-.893 2.528-1.986a1.788 1.788 0 0 0-.662-1.428 2.123 2.123 0 0 0-.141-.109c.484-.365.766-.888.78-1.464a1.8 1.8 0 0 0-.657-1.426C12.907 4.213 12.277 4 11.501 4a3.494 3.494 0 0 0-2.332.875.5.5 0 1 0 .662.75Z"/></symbol><symbol fill="currentColor" viewBox="0 0 16 16" id="datatype_long_16_filled" xmlns="http://www.w3.org/2000/svg"><path d="M11.75 3.496a.75.75 0 0 1 .75.75v5.25h2.25a.75.75 0 1 1 0 1.5h-3a.75.75 0 0 1-.75-.75v-6a.75.75 0 0 1 .75-.75Zm-6.015.734a2.5 2.5 0 0 1 4.268 1.743l.004.059a.755.755 0 0 1-.004.138 2.69 2.69 0 0 1-1.015 1.794.75.75 0 0 1-.086.058l-1.627.94a1.34 1.34 0 0 0-.586.533l-.002.004h2.566a.75.75 0 1 1 0 1.5h-3.5a.75.75 0 0 1-.75-.725 2.84 2.84 0 0 1 1.538-2.62l1.56-.901a1.19 1.19 0 0 0 .404-.705v-.003A.745.745 0 0 1 8.503 6a1 1 0 1 0-2 0 .75.75 0 0 1-1.5 0 2.5 2.5 0 0 1 .732-1.768ZM2.488 5.652l-.34.227a.75.75 0 0 1-.832-1.248l.006-.005 1.5-1a.75.75 0 0 1 1.166.624v6a.75.75 0 1 1-1.5 0V5.653Z"/></symbol><symbol fill="currentColor" viewBox="0 0 16 16" id="datatype_long_16_regular" xmlns="http://www.w3.org/2000/svg"><path d="M5.658 4.66A2.25 2.25 0 0 1 9.5 6.234l.004.066a.5.5 0 0 1-.002.092 2.44 2.44 0 0 1-.921 1.627.499.499 0 0 1-.057.039l-1.627.94A1.59 1.59 0 0 0 6.058 10h2.941a.5.5 0 1 1 0 1.001H5.5a.5.5 0 0 1-.5-.483 2.59 2.59 0 0 1 1.407-2.392l1.584-.915a1.44 1.44 0 0 0 .512-.898l-.002-.03A2.25 2.25 0 0 1 5.658 4.66Zm-1.922-.6A.5.5 0 0 1 4 4.501v6a.5.5 0 0 1-1 0V5.435l-.723.482a.5.5 0 1 1-.554-.832l1.5-1a.5.5 0 0 1 .513-.025ZM12 4.501a.5.5 0 0 0-1 0v6a.5.5 0 0 0 .5.5h3a.5.5 0 0 0 0-1H12v-5.5Z"/></symbol><symbol fill="currentColor" viewBox="0 0 16 16" id="datatype_short_16_filled" xmlns="http://www.w3.org/2000/svg"><path d="M5.735 4.23a2.5 2.5 0 0 1 4.268 1.743l.004.059a.755.755 0 0 1-.004.138 2.69 2.69 0 0 1-1.015 1.794.75.75 0 0 1-.086.058l-1.627.94a1.34 1.34 0 0 0-.586.533l-.002.004h2.566a.75.75 0 1 1 0 1.5h-3.5a.75.75 0 0 1-.75-.725 2.84 2.84 0 0 1 1.538-2.62l1.56-.901a1.19 1.19 0 0 0 .404-.705v-.003A.745.745 0 0 1 8.503 6a1 1 0 1 0-2 0 .75.75 0 0 1-1.5 0 2.5 2.5 0 0 1 .732-1.768ZM2.488 5.652l-.34.227a.75.75 0 0 1-.832-1.248l.006-.005 1.5-1a.75.75 0 0 1 1.166.624v6a.75.75 0 1 1-1.5 0V5.653Zm8.671-1.492A2.25 2.25 0 0 1 15 5.75a.75.75 0 0 1-1.5 0 .75.75 0 1 0-.75.75 2.25 2.25 0 1 1-2.25 2.25.75.75 0 0 1 1.5 0 .75.75 0 1 0 .75-.75 2.25 2.25 0 0 1-1.591-3.84Z"/></symbol><symbol fill="currentColor" viewBox="0 0 16 16" id="datatype_short_16_regular" xmlns="http://www.w3.org/2000/svg"><path d="M12 4.001a2 2 0 0 0 0 4 1 1 0 1 1-1 1 .5.5 0 0 0-1 0 2 2 0 1 0 2-2 1 1 0 1 1 1-1 .5.5 0 0 0 1 0 2 2 0 0 0-2-2Zm-8.264.059A.5.5 0 0 1 4 4.501v6a.5.5 0 1 1-1 0V5.435l-.723.482a.5.5 0 0 1-.554-.832l1.5-1a.5.5 0 0 1 .513-.025Zm3.514-.059A2.25 2.25 0 0 0 5 6.251a.5.5 0 0 0 1 0 1.25 1.25 0 1 1 2.5.031l.002.03a1.44 1.44 0 0 1-.512.899l-1.584.915A2.59 2.59 0 0 0 5 10.518a.5.5 0 0 0 .5.483H9a.5.5 0 0 0 0-1H6.057a1.59 1.59 0 0 1 .839-1.002l1.627-.941a.499.499 0 0 0 .057-.039 2.44 2.44 0 0 0 .92-1.627.5.5 0 0 0 .003-.092L9.5 6.234a2.25 2.25 0 0 0-2.25-2.233Z"/></symbol><symbol fill="currentColor" viewBox="0 0 16 16" id="datatype_string_16_filled" xmlns="http://www.w3.org/2000/svg"><g clip-path="url(#aoa)"><mask id="aob" width="16" height="17" x="0" y="0" maskUnits="userSpaceOnUse" style="mask-type:luminance"><path d="M16 .001H0v16h16v-16Z"/></mask><g mask="url(#aob)"><path d="M3.393 5.25a.75.75 0 0 0-1.407-.02l-1.935 5a.75.75 0 1 0 1.399.542l.104-.271h2.11l.09.25a.75.75 0 1 0 1.413-.5l-1.774-5ZM2.135 9.001l.52-1.343L3.132 9h-.997ZM6 10.501v-5a.75.75 0 0 1 .75-.75h1.508c.168 0 .663 0 1.126.26.25.141.489.356.66.668.169.309.25.672.25 1.08 0 .406-.09.747-.242 1.025.104.098.2.214.283.35.191.314.283.688.283 1.108 0 .844-.402 1.401-.923 1.704a2.445 2.445 0 0 1-1.195.305H6.872v-.01a.75.75 0 0 1-.871-.74Zm1.5-.75h1c.12 0 .309-.025.441-.102a.304.304 0 0 0 .117-.11.575.575 0 0 0 .06-.297c0-.2-.042-.292-.064-.327a.225.225 0 0 0-.1-.087c-.137-.067-.327-.077-.518-.077H7.5v1Zm.113-2.5h.669a.763.763 0 0 0 .357-.086.253.253 0 0 0 .095-.097.629.629 0 0 0 .06-.308c0-.212-.042-.317-.066-.36a.191.191 0 0 0-.08-.081c-.097-.055-.24-.068-.398-.068H7.5v1h.113Zm7.165-2.273c.522.258.916.738 1.178 1.468a.75.75 0 1 1-1.412.506c-.168-.468-.345-.587-.43-.628-.124-.062-.272-.073-.583-.073-.244 0-.389.075-.494.17a1.24 1.24 0 0 0-.307.494 2.818 2.818 0 0 0-.165.83c-.002.024-.002.042-.002.052v.01c0 .406.007.89.163 1.289.073.186.168.326.29.427.117.096.297.19.598.223.092.01.29.01.483-.062a.801.801 0 0 0 .47-.454.75.75 0 1 1 1.367.616c-.636 1.411-2.035 1.441-2.486 1.391-.558-.062-1.022-.256-1.389-.559a2.509 2.509 0 0 1-.73-1.037c-.267-.683-.267-1.425-.267-1.807v-.046l.001-.028a3.709 3.709 0 0 1 .032-.408c.031-.252.095-.601.23-.961.133-.357.35-.765.713-1.09a2.19 2.19 0 0 1 1.493-.55h.035c.273 0 .748-.001 1.212.227Z"/></g></g><defs><clipPath id="aoa"><path d="M0 0h16v16H0z"/></clipPath></defs></symbol><symbol fill="currentColor" viewBox="0 0 16 16" id="datatype_string_16_regular" xmlns="http://www.w3.org/2000/svg"><path d="M2.943 5.001a.5.5 0 0 1 .464.333l1.774 5a.5.5 0 0 1-.942.334l-.237-.667H1.73l-.264.68a.5.5 0 0 1-.932-.36l1.935-5A.5.5 0 0 1 2.943 5Zm-.826 4h1.53l-.732-2.062L2.117 9Zm4.383-4h1.503c.162 0 .602 0 1.008.228.214.12.418.303.564.57.144.265.219.585.219.96 0 .456-.125.811-.32 1.078.148.106.287.246.398.428.162.267.246.594.246.978 0 .751-.352 1.227-.798 1.487a2.196 2.196 0 0 1-1.07.27H6.5a.5.5 0 0 1-.5-.5v-5a.5.5 0 0 1 .5-.5Zm1.5 1H7v1.5h1.024c.12 0 .33-.023.494-.123.125-.075.276-.221.276-.618 0-.245-.048-.393-.096-.48a.44.44 0 0 0-.177-.18c-.16-.089-.363-.099-.52-.099Zm-1 2.5v1.5h1.25c.14 0 .38-.027.567-.136.148-.086.301-.239.301-.622 0-.137-.017-.24-.04-.32a.644.644 0 0 0-.06-.138.474.474 0 0 0-.204-.18c-.195-.097-.441-.104-.628-.104H7Zm8.408-1.97c-.246-.687-.604-1.107-1.053-1.329-.41-.201-.834-.201-1.109-.201h-.027c-.554 0-.994.19-1.327.487-.322.288-.521.656-.646.99a4.065 4.065 0 0 0-.245 1.288v.026L11 7.8v.026c0 .383 0 1.085.25 1.724.13.335.334.669.656.936.325.268.742.445 1.257.503.417.046 1.663.013 2.23-1.246a.5.5 0 1 0-.911-.41c-.293.648-.93.693-1.208.662-.344-.039-.571-.149-.73-.28a1.264 1.264 0 0 1-.363-.528c-.176-.45-.181-.982-.181-1.383V7.79l.003-.059a3.278 3.278 0 0 1 .18-.905c.09-.242.214-.45.375-.593.15-.135.355-.233.66-.233.304 0 .51.008.694.098.158.078.371.257.555.769a.5.5 0 0 0 .941-.338Z"/></symbol><symbol fill="currentColor" viewBox="0 0 16 16" id="datatype_unique_identifier_16_filled" xmlns="http://www.w3.org/2000/svg"><path d="M2 5.751a.75.75 0 1 0-1.5 0v3.5a2.75 2.75 0 1 0 5.5 0v-3.5a.75.75 0 1 0-1.5 0v3.5a1.25 1.25 0 1 1-2.5 0v-3.5Zm6.75 0a.75.75 0 1 0-1.5 0v5.5a.75.75 0 0 0 1.5 0v-5.5Zm2.094-.75-.047.001a.75.75 0 0 0-.797.749v5.5a.75.75 0 0 0 .797.748.728.728 0 0 0 .047.002h1.406a3.25 3.25 0 0 0 3.25-3.25v-.5a3.25 3.25 0 0 0-3.25-3.25h-1.406Zm.656 5.5v-4h.75c.966 0 1.75.783 1.75 1.75v.5a1.75 1.75 0 0 1-1.75 1.75h-.75Z"/></symbol><symbol fill="currentColor" viewBox="0 0 16 16" id="datatype_unique_identifier_16_regular" xmlns="http://www.w3.org/2000/svg"><path d="M2 5.501a.5.5 0 1 0-1 0v4a2.5 2.5 0 1 0 5 0v-4a.5.5 0 1 0-1 0v4a1.5 1.5 0 1 1-3 0v-4Zm6-.5a.5.5 0 0 1 .492.41l.008.09v6a.5.5 0 0 1-.992.09L7.5 11.5v-6A.5.5 0 0 1 8 5Zm3.75 0H10.5a.5.5 0 0 0-.5.5v6l.008.09a.5.5 0 0 0 .492.41h1.25A3.25 3.25 0 0 0 15 8.751v-.5a3.25 3.25 0 0 0-3.25-3.25Zm0 6H11v-5h.75A2.25 2.25 0 0 1 14 8.251v.5a2.25 2.25 0 0 1-2.25 2.25Z"/></symbol></svg>