<svg width="100" height="100" viewBox="0 0 100 100" fill="none" xmlns="http://www.w3.org/2000/svg">
<circle cx="50" cy="50" r="50" fill="#BFBFBF"/>
<rect x="28" y="20" width="44" height="56" rx="2" fill="white"/>
<path fill-rule="evenodd" clip-rule="evenodd" d="M46.5 27C44.0147 27 42 29.0147 42 31.5V60C42 63.866 45.134 67 49 67C52.866 67 56 63.866 56 60V32.7347C56 32.1824 56.4477 31.7347 57 31.7347C57.5523 31.7347 58 32.1824 58 32.7347V60C58 64.9706 53.9706 69 49 69C44.0294 69 40 64.9706 40 60V31.5C40 27.9101 42.9101 25 46.5 25C50.0899 25 53 27.9101 53 31.5V60C53 62.2091 51.2091 64 49 64C46.7909 64 45 62.2091 45 60V43C45 42.4477 45.4477 42 46 42C46.5523 42 47 42.4477 47 43V60C47 61.1046 47.8954 62 49 62C50.1046 62 51 61.1046 51 60V31.5C51 29.0147 48.9853 27 46.5 27Z" fill="#BFBFBF"/>
</svg>
