<?xml version="1.0" ?>
<svg xmlns="http://www.w3.org/2000/svg">
    <symbol width="16" height="16" id="fluent_calculator_brackets" viewBox="0 0 16 16" fill="currentColor" xmlns="http://www.w3.org/2000/svg">
        <path d="M2 3.5C2 2.67157 2.67157 2 3.5 2H5.5C5.77614 2 6 1.77614 6 1.5C6 1.22386 5.77614 1 5.5 1H3.5C2.11929 1 1 2.11929 1 3.5V12.5C1 13.8807 2.11929 15 3.5 15H5.5C5.77614 15 6 14.7761 6 14.5C6 14.2239 5.77614 14 5.5 14H3.5C2.67157 14 2 13.3284 2 12.5V3.5Z"/>
        <path d="M13 12.5C13 13.3284 12.3284 14 11.5 14H9.5C9.22386 14 9 14.2239 9 14.5C9 14.7761 9.22386 15 9.5 15H11.5C12.8807 15 14 13.8807 14 12.5L14 3.5C14 2.11929 12.8807 1 11.5 1H9.5C9.22386 1 9 1.22386 9 1.5C9 1.77614 9.22386 2 9.5 2L11.5 2C12.3284 2 13 2.67157 13 3.5L13 12.5Z"/>
        <path d="M5.5 4C4.67157 4 4 4.67157 4 5.5V10.5C4 11.3284 4.67157 12 5.5 12H9.5C10.3284 12 11 11.3284 11 10.5V5.5C11 4.67157 10.3284 4 9.5 4H5.5ZM5 8.5C5 8.22386 5.22386 8 5.5 8H6.5C6.77614 8 7 8.22386 7 8.5C7 8.77614 6.77614 9 6.5 9H5.5C5.22386 9 5 8.77614 5 8.5ZM9.5 8C9.77614 8 10 8.22386 10 8.5C10 8.77614 9.77614 9 9.5 9H8.5C8.22386 9 8 8.77614 8 8.5C8 8.22386 8.22386 8 8.5 8H9.5ZM5 10.5C5 10.2239 5.22386 10 5.5 10H6.5C6.77614 10 7 10.2239 7 10.5C7 10.7761 6.77614 11 6.5 11H5.5C5.22386 11 5 10.7761 5 10.5ZM9.5 10C9.77614 10 10 10.2239 10 10.5C10 10.7761 9.77614 11 9.5 11H8.5C8.22386 11 8 10.7761 8 10.5C8 10.2239 8.22386 10 8.5 10H9.5ZM5 5.5C5 5.22386 5.22386 5 5.5 5H9.5C9.77614 5 10 5.22386 10 5.5V6.5C10 6.77614 9.77614 7 9.5 7H5.5C5.22386 7 5 6.77614 5 6.5V5.5Z"/>
    </symbol>
    <symbol width="16" height="16" viewBox="0 0 16 16" id="fluent_multi_calculators_brackets" fill="currentColor" xmlns="http://www.w3.org/2000/svg">
        <path d="M2 3.5C2 2.67157 2.67157 2 3.5 2H5.5C5.77614 2 6 1.77614 6 1.5C6 1.22386 5.77614 1 5.5 1H3.5C2.11929 1 1 2.11929 1 3.5V12.5C1 13.8807 2.11929 15 3.5 15H5.5C5.77614 15 6 14.7761 6 14.5C6 14.2239 5.77614 14 5.5 14H3.5C2.67157 14 2 13.3284 2 12.5V3.5Z"/>
        <path d="M14 12.5C14 13.3284 13.3284 14 12.5 14H10.5C10.2239 14 10 14.2239 10 14.5C10 14.7761 10.2239 15 10.5 15H12.5C13.8807 15 15 13.8807 15 12.5L15 3.5C15 2.11929 13.8807 1 12.5 1H10.5C10.2239 1 10 1.22386 10 1.5C10 1.77614 10.2239 2 10.5 2L12.5 2C13.3284 2 14 2.67157 14 3.5L14 12.5Z"/>
        <path d="M5.5 4C4.67157 4 4 4.67157 4 5.5V9.5C4 10.3284 4.67157 11 5.5 11H8.5C9.32843 11 10 10.3284 10 9.5V5.5C10 4.67157 9.32843 4 8.5 4H5.5ZM5 5.5C5 5.22386 5.22386 5 5.5 5H8.5C8.77614 5 9 5.22386 9 5.5C9 5.77614 8.77614 6 8.5 6H5.5C5.22386 6 5 5.77614 5 5.5ZM5 7.5C5 7.22386 5.22386 7 5.5 7H6C6.27614 7 6.5 7.22386 6.5 7.5C6.5 7.77614 6.27614 8 6 8H5.5C5.22386 8 5 7.77614 5 7.5ZM7.5 7.5C7.5 7.22386 7.72386 7 8 7H8.5C8.77614 7 9 7.22386 9 7.5C9 7.77614 8.77614 8 8.5 8H8C7.72386 8 7.5 7.77614 7.5 7.5ZM7.5 9.46875C7.5 9.19261 7.72386 8.96875 8 8.96875H8.5C8.77614 8.96875 9 9.19261 9 9.46875C9 9.74489 8.77614 9.96875 8.5 9.96875H8C7.72386 9.96875 7.5 9.74489 7.5 9.46875ZM5 9.46875C5 9.19261 5.22386 8.96875 5.5 8.96875H6C6.27614 8.96875 6.5 9.19261 6.5 9.46875C6.5 9.74489 6.27614 9.96875 6 9.96875H5.5C5.22386 9.96875 5 9.74489 5 9.46875Z"/>
        <path d="M6.37891 12C6.78254 12.603 7.46991 13 8.25002 13H9.75002C10.9927 13 12 11.9927 12 10.75V8.25002C12 7.46992 11.603 6.78254 11 6.37891V10.75C11 11.4404 10.4404 12 9.75002 12H6.37891Z"/>
    </symbol>
    <symbol xmlns="http://www.w3.org/2000/svg" id="fluent_reset_arrow" width="20" height="20" viewBox="0 0 20 20" fill="currentColor">
        <path d="M5.85355 2.64645C6.04882 2.84171 6.04882 3.15829 5.85355 3.35355L4.20711 5H11C14.3137 5 17 7.68629 17 11C17 14.3137 14.3137 17 11 17C7.68629 17 5 14.3137 5 11C5 10.7239 5.22386 10.5 5.5 10.5C5.77614 10.5 6 10.7239 6 11C6 13.7614 8.23858 16 11 16C13.7614 16 16 13.7614 16 11C16 8.23858 13.7614 6 11 6H4.20711L5.85355 7.64645C6.04882 7.84171 6.04882 8.15829 5.85355 8.35355C5.65829 8.54882 5.34171 8.54882 5.14645 8.35355L2.64645 5.85355C2.45118 5.65829 2.45118 5.34171 2.64645 5.14645L5.14645 2.64645C5.34171 2.45118 5.65829 2.45118 5.85355 2.64645Z"/>
    </symbol>
    <symbol xmlns="http://www.w3.org/2000/svg" id="fluent_reset_arrow_disabled" width="20" height="20" viewBox="0 0 20 20" fill="currentColor">
        <path d="M5.85355 2.64645C6.04882 2.84171 6.04882 3.15829 5.85355 3.35355L4.20711 5H11C14.3137 5 17 7.68629 17 11C17 14.3137 14.3137 17 11 17C7.68629 17 5 14.3137 5 11C5 10.7239 5.22386 10.5 5.5 10.5C5.77614 10.5 6 10.7239 6 11C6 13.7614 8.23858 16 11 16C13.7614 16 16 13.7614 16 11C16 8.23858 13.7614 6 11 6H4.20711L5.85355 7.64645C6.04882 7.84171 6.04882 8.15829 5.85355 8.35355C5.65829 8.54882 5.34171 8.54882 5.14645 8.35355L2.64645 5.85355C2.45118 5.65829 2.45118 5.34171 2.64645 5.14645L5.14645 2.64645C5.34171 2.45118 5.65829 2.45118 5.85355 2.64645Z"/>
    </symbol>
    <symbol xmlns="http://www.w3.org/2000/svg" id="fluent_table_column_brackets" width="16" height="16" fill="currentColor" viewBox="0 0 16 16">
        <path d="M4.5 2A2.5 2.5 0 0 0 2 4.5v7A2.5 2.5 0 0 0 4.5 14H7v-1H6v-2h1v-.5c0-.171.017-.338.05-.5H6V6h4v2h1V6h2v2h.5c.175 0 .344.03.5.085V4.5A2.5 2.5 0 0 0 11.5 2h-7ZM10 5H6V3h4v2Zm3-.5V5h-2V3h.5A1.5 1.5 0 0 1 13 4.5ZM4.5 13A1.5 1.5 0 0 1 3 11.5v-7A1.5 1.5 0 0 1 4.5 3H5v10h-.5Z"/>
        <path d="M9.5 10a.5.5 0 0 0-.5.5v4a.5.5 0 0 0 .5.5h1a.5.5 0 0 1 0 1h-1A1.5 1.5 0 0 1 8 14.5v-4A1.5 1.5 0 0 1 9.5 9h1a.5.5 0 0 1 0 1h-1ZM14.5 10a.5.5 0 0 1 .5.5v4a.5.5 0 0 1-.5.5h-1a.5.5 0 0 0 0 1h1a1.5 1.5 0 0 0 1.5-1.5v-4A1.5 1.5 0 0 0 14.5 9h-1a.5.5 0 0 0 0 1h1Z"/>
    </symbol>
    <symbol width="16" id='fluent_calculator' height="16" viewBox="0 0 16 16" fill="currentColor" xmlns="http://www.w3.org/2000/svg">
        <path d="M6 9C6 9.55228 5.55228 10 5 10C4.44772 10 4 9.55228 4 9C4 8.44772 4.44772 8 5 8C5.55228 8 6 8.44772 6 9ZM6 12C6 12.5523 5.55228 13 5 13C4.44772 13 4 12.5523 4 12C4 11.4477 4.44772 11 5 11C5.55228 11 6 11.4477 6 12ZM11 10C11.5523 10 12 9.55228 12 9C12 8.44772 11.5523 8 11 8C10.4477 8 10 8.44772 10 9C10 9.55228 10.4477 10 11 10ZM12 12C12 12.5523 11.5523 13 11 13C10.4477 13 10 12.5523 10 12C10 11.4477 10.4477 11 11 11C11.5523 11 12 11.4477 12 12ZM8 10C8.55228 10 9 9.55228 9 9C9 8.44772 8.55228 8 8 8C7.44772 8 7 8.44772 7 9C7 9.55228 7.44772 10 8 10ZM9 12C9 12.5523 8.55228 13 8 13C7.44772 13 7 12.5523 7 12C7 11.4477 7.44772 11 8 11C8.55228 11 9 11.4477 9 12ZM5.5 3C4.67157 3 4 3.67157 4 4.5V5.5C4 6.32843 4.67157 7 5.5 7H10.5C11.3284 7 12 6.32843 12 5.5V4.5C12 3.67157 11.3284 3 10.5 3H5.5ZM5 4.5C5 4.22386 5.22386 4 5.5 4H10.5C10.7761 4 11 4.22386 11 4.5V5.5C11 5.77614 10.7761 6 10.5 6H5.5C5.22386 6 5 5.77614 5 5.5V4.5ZM14 12.5C14 13.8807 12.8807 15 11.5 15H4.5C3.11929 15 2 13.8807 2 12.5V3.5C2 2.11929 3.11929 1 4.5 1H11.5C12.8807 1 14 2.11929 14 3.5V12.5ZM13 3.5C13 2.67157 12.3284 2 11.5 2H4.5C3.67157 2 3 2.67157 3 3.5V12.5C3 13.3284 3.67157 14 4.5 14H11.5C12.3284 14 13 13.3284 13 12.5V3.5Z"/>
    </symbol>
    <symbol width="16" height="16" id="fluent_multiple_calculators" viewBox="0 0 16 16" fill="currentColor" xmlns="http://www.w3.org/2000/svg">
        <path d="M5 3C4.44772 3 4 3.44772 4 4V5C4 5.55228 4.44772 6 5 6H10C10.5523 6 11 5.55228 11 5V4C11 3.44772 10.5523 3 10 3H5ZM5 4H10V5H5V4ZM6 7C5.44772 7 5 7.44772 5 8C5 8.55228 5.44772 9 6 9C6.55228 9 7 8.55228 7 8C7 7.44772 6.55228 7 6 7ZM9 7C8.44771 7 8 7.44772 8 8C8 8.55228 8.44771 9 9 9C9.55228 9 10 8.55228 10 8C10 7.44772 9.55228 7 9 7ZM6 10.0312C5.44772 10.0312 5 10.479 5 11.0312C5 11.5835 5.44772 12.0312 6 12.0312C6.55228 12.0312 7 11.5835 7 11.0312C7 10.479 6.55228 10.0312 6 10.0312ZM9 10.0312C8.44771 10.0312 8 10.479 8 11.0312C8 11.5835 8.44771 12.0312 9 12.0312C9.55228 12.0312 10 11.5835 10 11.0312C10 10.479 9.55228 10.0312 9 10.0312ZM4.5 1C3.11929 1 2 2.11929 2 3.5V11.5C2 12.8807 3.11929 14 4.5 14H10.5C11.8807 14 13 12.8807 13 11.5V3.5C13 2.11929 11.8807 1 10.5 1H4.5ZM3 3.5C3 2.67157 3.67157 2 4.5 2H10.5C11.3284 2 12 2.67157 12 3.5V11.5C12 12.3284 11.3284 13 10.5 13H4.5C3.67157 13 3 12.3284 3 11.5V3.5ZM6.49994 16.0001C5.68203 16.0001 4.95586 15.6073 4.49976 15.0001H10.4999C12.4329 15.0001 13.9999 13.4331 13.9999 11.5001V3.50006C14.6072 3.95616 14.9999 4.68215 14.9999 5.50006V11.5001C14.9999 13.9853 12.9852 16.0001 10.4999 16.0001H6.49994Z"/>
    </symbol>
    <symbol xmlns="http://www.w3.org/2000/svg" id="fluent_window_relationship" width="16" height="16" fill="currentColor">
        <path d="M10.5 1A1.5 1.5 0 0 0 9 2.5v4A1.5 1.5 0 0 0 10.5 8H12v3a.5.5 0 0 1-.5.5H8v-2A1.5 1.5 0 0 0 6.5 8h-4A1.5 1.5 0 0 0 1 9.5v4A1.5 1.5 0 0 0 2.5 15h4A1.5 1.5 0 0 0 8 13.5v-1h3.5A1.5 1.5 0 0 0 13 11V8h1.5A1.5 1.5 0 0 0 16 6.5v-4A1.5 1.5 0 0 0 14.5 1h-4ZM15 6.5a.5.5 0 0 1-.5.5h-4a.5.5 0 0 1-.5-.5V4h5v2.5Zm-5-4a.5.5 0 0 1 .5-.5h4a.5.5 0 0 1 .5.5V3h-5v-.5Zm-3 11a.5.5 0 0 1-.5.5h-4a.5.5 0 0 1-.5-.5V11h5v2.5Zm-5-4a.5.5 0 0 1 .5-.5h4a.5.5 0 0 1 .5.5v.5H2v-.5Z"/>
    </symbol>
    <symbol xmlns="http://www.w3.org/2000/svg" id="fluent_window_relationship_off" width="16" height="16" fill="currentColor">
        <g clip-path="url(#a)">
        <path d="M13.001 8v2.879l-1-1V8h-1.5a1.5 1.5 0 0 1-.446-.068l-.986-.986A1.5 1.5 0 0 1 9 6.5v-4A1.5 1.5 0 0 1 10.5 1h4A1.5 1.5 0 0 1 16 2.5v4A1.5 1.5 0 0 1 14.5 8H13Zm2-1.5V4h-5v2.5a.5.5 0 0 0 .5.5h4a.5.5 0 0 0 .5-.5Zm-5-4V3h5v-.5a.5.5 0 0 0-.5-.5h-4a.5.5 0 0 0-.5.5Zm1.769 9.976 2.377 2.378a.5.5 0 1 0 .707-.707l-13-13a.5.5 0 1 0-.707.707l9.647 9.646H8v-2A1.5 1.5 0 0 0 6.5 8h-4A1.5 1.5 0 0 0 1 9.5v4A1.5 1.5 0 0 0 2.5 15h4A1.5 1.5 0 0 0 8 13.5v-1h3.5c.092 0 .182-.008.269-.024ZM7 13.5a.5.5 0 0 1-.5.5h-4a.5.5 0 0 1-.5-.5V11h5v2.5Zm-5-4a.5.5 0 0 1 .5-.5h4a.5.5 0 0 1 .5.5v.5H2v-.5Z"/>
        </g><defs><clipPath id="a"><path d="M0 0h16v16H0z"/></clipPath></defs>
    </symbol>
    <symbol width="16" height="16" id="fluent_table" viewBox="0 0 16 16" fill="currentColor" xmlns="http://www.w3.org/2000/svg">
        <path d="M2 4.5C2 3.11929 3.11929 2 4.5 2H11.5C12.8807 2 14 3.11929 14 4.5V11.5C14 12.8807 12.8807 14 11.5 14H4.5C3.11929 14 2 12.8807 2 11.5V4.5ZM6 13H10V11L6 11V13ZM5 11H3V11.5C3 12.3284 3.67157 13 4.5 13H5V11ZM6 10L10 10V6L6 6V10ZM5 6H3V10H5V6ZM6 5L10 5V3H6V5ZM5 3H4.5C3.67157 3 3 3.67157 3 4.5V5H5V3ZM13 6H11V10H13V6ZM13 11H11V13H11.5C12.3284 13 13 12.3284 13 11.5V11ZM13 5V4.5C13 3.67157 12.3284 3 11.5 3H11V5H13Z" />
    </symbol>
    <symbol width="16" height="16" viewBox="0 0 16 16" id="fluent_table_calculator" fill="currentColor" xmlns="http://www.w3.org/2000/svg">
        <path d="M2 4.5C2 3.11929 3.11929 2 4.5 2H11.5C12.8807 2 14 3.11929 14 4.5V5H10.5C9.68209 5 8.95592 5.39278 8.49982 6L6 6V10L8 10V11H6V13H8V14H4.5C3.11929 14 2 12.8807 2 11.5V4.5ZM5 11H3V11.5C3 12.3284 3.67157 13 4.5 13H5V11ZM5 6H3V10H5V6ZM6 5L10 5V3H6V5ZM5 3H4.5C3.67157 3 3 3.67157 3 4.5V5H5V3ZM13 5V4.5C13 3.67157 12.3284 3 11.5 3H11V5H13ZM10.5 6C9.67157 6 9 6.67157 9 7.5V14.5C9 15.3284 9.67157 16 10.5 16H14.5C15.3284 16 16 15.3284 16 14.5V7.5C16 6.67157 15.3284 6 14.5 6H10.5ZM10 10.5C10 10.2239 10.2239 10 10.5 10H11.5C11.7761 10 12 10.2239 12 10.5C12 10.7761 11.7761 11 11.5 11H10.5C10.2239 11 10 10.7761 10 10.5ZM14.5 10C14.7761 10 15 10.2239 15 10.5C15 10.7761 14.7761 11 14.5 11H13.5C13.2239 11 13 10.7761 13 10.5C13 10.2239 13.2239 10 13.5 10H14.5ZM10 12.5C10 12.2239 10.2239 12 10.5 12H11.5C11.7761 12 12 12.2239 12 12.5C12 12.7761 11.7761 13 11.5 13H10.5C10.2239 13 10 12.7761 10 12.5ZM14.5 12C14.7761 12 15 12.2239 15 12.5C15 12.7761 14.7761 13 14.5 13H13.5C13.2239 13 13 12.7761 13 12.5C13 12.2239 13.2239 12 13.5 12H14.5ZM10 14.5C10 14.2239 10.2239 14 10.5 14H11.5C11.7761 14 12 14.2239 12 14.5C12 14.7761 11.7761 15 11.5 15H10.5C10.2239 15 10 14.7761 10 14.5ZM14.5 14C14.7761 14 15 14.2239 15 14.5C15 14.7761 14.7761 15 14.5 15H13.5C13.2239 15 13 14.7761 13 14.5C13 14.2239 13.2239 14 13.5 14H14.5ZM10 7.5C10 7.22386 10.2239 7 10.5 7H14.5C14.7761 7 15 7.22386 15 7.5V8.5C15 8.77614 14.7761 9 14.5 9H10.5C10.2239 9 10 8.77614 10 8.5V7.5Z" />
    </symbol>
    <symbol width="16" height="16" id="fluent_autosum" viewBox="0 0 16 16" fill="currentColor" xmlns="http://www.w3.org/2000/svg">
        <path d="M2.54016 2.3037C2.61879 2.11951 2.79974 2 3.00001 2H12.5C12.7762 2 13 2.22386 13 2.5C13 2.77614 12.7762 3 12.5 3H4.17132L8.24521 7.25309C8.4208 7.43641 8.43116 7.72221 8.26931 7.91776L4.06289 13H12.5C12.7762 13 13 13.2239 13 13.5C13 13.7761 12.7762 14 12.5 14H3.00001C2.80631 14 2.63003 13.8881 2.54757 13.7128C2.46512 13.5376 2.49132 13.3304 2.61483 13.1812L7.215 7.62322L2.63893 2.84586C2.5004 2.70123 2.46153 2.48789 2.54016 2.3037Z" />
    </symbol>
    <symbol width="16" height="16" id="fluent_local_language" viewBox="0 0 16 16" fill="currentColor" xmlns="http://www.w3.org/2000/svg">
        <path d="M12.5001 1.99609C12.7763 1.99609 13.0001 2.21995 13.0001 2.49609V5.00232H13.5001C13.7762 5.00232 14.0001 5.22618 14.0001 5.50232C14.0001 5.77846 13.7762 6.00232 13.5001 6.00232H13.0001V10.4998C13.0001 10.7759 12.7763 10.9998 12.5001 10.9998C12.224 10.9998 12.0001 10.7759 12.0001 10.4998V2.49609C12.0001 2.21995 12.224 1.99609 12.5001 1.99609ZM7.50012 2.99611L10.0001 2.9961V4.24976C10.0001 4.66313 9.84249 4.95777 9.60068 5.15798C9.3486 5.3667 8.96988 5.49976 8.50274 5.49976C8.2266 5.49976 8.00274 5.72362 8.00274 5.99976C8.00274 6.27591 8.2266 6.49976 8.50274 6.49976C9.15059 6.49976 9.77056 6.31561 10.2384 5.92823C10.7166 5.53234 11.0001 4.95197 11.0001 4.24976V2.4961C11.0001 2.36349 10.9474 2.23632 10.8537 2.14255C10.7599 2.04878 10.6327 1.9961 10.5001 1.9961L7.50012 1.99611C7.22398 1.99611 7.00012 2.21996 7.00012 2.49611C7.00012 2.77225 7.22398 2.99611 7.50012 2.99611ZM6.45405 5.29914C6.37435 5.11718 6.19449 4.99966 5.99584 4.99975C5.79719 4.99983 5.61744 5.11751 5.53789 5.29954L2.04196 13.2996C1.93139 13.5526 2.04688 13.8474 2.29991 13.9579C2.55295 14.0685 2.84772 13.953 2.95829 13.7L4.13827 10.9997H7.83646C7.84402 10.9997 7.85154 10.9996 7.85902 10.9992L9.04213 13.7004C9.15292 13.9533 9.44779 14.0686 9.70073 13.9578C9.95367 13.847 10.0689 13.5521 9.95812 13.2992L6.45405 5.29914ZM7.42123 9.99975H4.57526L5.99659 6.7472L7.42123 9.99975Z" />
    </symbol>
    <symbol width="16" height="16" id="fluent_aperture" viewBox="0 0 16 16" fill="currentColor" xmlns="http://www.w3.org/2000/svg">
        <path d="M4.68328 4.25835C5.56587 3.47542 6.72741 3 8 3C8.18921 3 8.37596 3.01051 8.5597 3.03098L6.29043 6.96148C6.28243 6.97462 6.27457 6.98786 6.26687 7.0012L4.68328 4.25835ZM3.97549 5.03241L6.26618 9H3.10002C3.03443 8.67689 3 8.34247 3 8C3 6.8889 3.36242 5.86245 3.97549 5.03241ZM6.26756 9C6.26767 9.00018 6.26746 8.99982 6.26756 9ZM8.00024 6L9.58436 3.25623C10.9299 3.70541 12.0208 4.71104 12.584 6H8.00024ZM7.13386 7.49986L7.14734 7.47727C7.32324 7.19095 7.63932 7 8 7C8.55229 7 9 7.44772 9 8C9 8.1822 8.95095 8.35283 8.86582 8.49995L8.85266 8.52274C8.67675 8.80905 8.36068 9 8 9C7.44772 9 7 8.55229 7 8C7 7.8178 7.04873 7.64698 7.13386 7.49986ZM9.73371 7H12.9C12.9656 7.32311 13 7.65753 13 8C13 9.1111 12.6376 10.1375 12.0245 10.9676L9.73371 7ZM9.73313 8.9988L11.3167 11.7417C10.4341 12.5246 9.27259 13 8 13C7.81079 13 7.62404 12.9895 7.4403 12.969L9.70957 9.03852C9.71757 9.02538 9.72543 9.01214 9.73313 8.9988ZM7.99976 10L6.41564 12.7438C5.07012 12.2946 3.97922 11.289 3.41604 10H7.99976ZM8 2C4.68629 2 2 4.68629 2 8C2 11.3137 4.68629 14 8 14C11.3137 14 14 11.3137 14 8C14 4.68629 11.3137 2 8 2ZM9.73371 7H9.73244Z" />
    </symbol>
    <symbol width="16" height="16" id="fluent_person_lock" viewBox="0 0 16 16" fill="currentColor" xmlns="http://www.w3.org/2000/svg">
        <path d="M7 14V13C4.43216 13 3 11.4376 3 10V9.5C3 9.22386 3.22386 9 3.5 9H7.22427C7.48135 8.51612 7.94027 8.1516 8.5 8.03754V8H3.5C2.67157 8 2 8.67157 2 9.5V10C2 11.9714 3.85951 14 7 14ZM9.75 4.25C9.75 2.73122 8.51878 1.5 7 1.5C5.48122 1.5 4.25 2.73122 4.25 4.25C4.25 5.76878 5.48122 7 7 7C8.51878 7 9.75 5.76878 9.75 4.25ZM5.25 4.25C5.25 3.2835 6.0335 2.5 7 2.5C7.9665 2.5 8.75 3.2835 8.75 4.25C8.75 5.2165 7.9665 6 7 6C6.0335 6 5.25 5.2165 5.25 4.25ZM9.5 8V9H8.875C8.39175 9 8 9.40294 8 9.9V14.1C8 14.5971 8.39175 15 8.875 15H14.125C14.6082 15 15 14.5971 15 14.1V9.9C15 9.40294 14.6082 9 14.125 9H13.5V8C13.5 6.89543 12.6046 6 11.5 6C10.3954 6 9.5 6.89543 9.5 8ZM11.5 7C12.0523 7 12.5 7.44772 12.5 8V9H10.5V8C10.5 7.44772 10.9477 7 11.5 7ZM11.5 12.75C11.0858 12.75 10.75 12.4142 10.75 12C10.75 11.5858 11.0858 11.25 11.5 11.25C11.9142 11.25 12.25 11.5858 12.25 12C12.25 12.4142 11.9142 12.75 11.5 12.75Z" />
    </symbol>
    <symbol width="16" height="16" id="fluent_function_x" viewBox="0 0 16 16" fill="currentColor" xmlns="http://www.w3.org/2000/svg">
        <path d="M8.32985 1.22546C6.7405 0.51025 4.92544 1.59993 4.80948 3.33892L4.6987 5.00024H3.5C3.22386 5.00024 3 5.2241 3 5.50024C3 5.77639 3.22386 6.00024 3.5 6.00024H4.63201L4.19225 12.5951C4.12267 13.6385 3.03364 14.2923 2.08003 13.8631L1.70482 13.6943C1.453 13.581 1.15699 13.6933 1.04367 13.9451C0.930355 14.1969 1.04263 14.4929 1.29445 14.6062L1.66966 14.7751C3.25901 15.4903 5.07407 14.4006 5.19004 12.6616L5.63423 6.00024H7.5C7.77614 6.00024 8 5.77639 8 5.50024C8 5.2241 7.77614 5.00024 7.5 5.00024H5.70092L5.80726 3.40546C5.87684 2.36206 6.96587 1.70825 7.91949 2.13738L8.2947 2.30622C8.54652 2.41954 8.84252 2.30727 8.95584 2.05545C9.06916 1.80363 8.95688 1.50762 8.70506 1.3943L8.32985 1.22546Z"/>
        <path d="M8.15922 8.04814C8.27578 7.93158 8.47127 7.95776 8.55306 8.10088L9.87643 10.4168L7.14652 13.1467C6.95126 13.342 6.95126 13.6585 7.14652 13.8538C7.34178 14.0491 7.65837 14.0491 7.85363 13.8538L10.3907 11.3167L11.5787 13.3958C11.9876 14.1114 12.9651 14.2423 13.5479 13.6595L13.8536 13.3538C14.0488 13.1585 14.0488 12.842 13.8536 12.6467C13.6583 12.4514 13.3417 12.4514 13.1464 12.6467L12.8408 12.9524C12.7242 13.0689 12.5287 13.0427 12.4469 12.8996L11.1236 10.5838L13.8536 7.8538C14.0489 7.65854 14.0489 7.34195 13.8536 7.14669C13.6584 6.95143 13.3418 6.95143 13.1465 7.14669L10.6094 9.68385L9.4213 7.60475C9.01237 6.88913 8.03492 6.75823 7.45211 7.34104L7.14645 7.6467C6.95118 7.84196 6.95118 8.15855 7.14645 8.35381C7.34171 8.54907 7.65829 8.54907 7.85355 8.35381L8.15922 8.04814Z"/>
    </symbol>
    <symbol xmlns="http://www.w3.org/2000/svg" id="fluent_table_column_function" width="16" height="16" fill="currentColor">
        <g clip-path="url(#a)"><path d="M2 4.5A2.5 2.5 0 0 1 4.5 2h7A2.5 2.5 0 0 1 14 4.5V10h-1V6h-.363a1.493 1.493 0 0 0-.553-.583 2.837 2.837 0 0 0-.915-.365 3.023 3.023 0 0 0-1.034-.014l-.015.002A2.76 2.76 0 0 0 8.396 6H6v3.031h-.01v3.188H6V13h1.36a26.57 26.57 0 0 1-.014.213c-.032.383-.054.59-.1.746a1.559 1.559 0 0 1-.085-.04A1.5 1.5 0 0 0 5.678 14H4.5A2.5 2.5 0 0 1 2 11.5v-7ZM6 5h4V3H6v2Zm7 0v-.5A1.5 1.5 0 0 0 11.5 3H11v2h2ZM3 11.5A1.5 1.5 0 0 0 4.5 13H5V3h-.5A1.5 1.5 0 0 0 3 4.5v7Z"/><path d="m15.844 11.854-1.728 1.727a73.334 73.334 0 0 0 .708 1.214l.023.04c.038.064.06.098.078.122a.155.155 0 0 0 .041.042h.01a1.653 1.653 0 0 0 .062-.078l.015-.018.051-.068a.5.5 0 0 1 .792.611l-.025.033a1.52 1.52 0 0 1-.348.363c-.242.163-.521.189-.822.127a.503.503 0 0 1-.117-.04 1.183 1.183 0 0 1-.465-.38 2.442 2.442 0 0 1-.133-.207l-.028-.047c-.031-.053-.063-.109-.104-.174a50.3 50.3 0 0 1-.47-.807l-1.54 1.54a.5.5 0 0 1-.707-.708l1.73-1.73a73.096 73.096 0 0 0-.6-1.037 1.828 1.828 0 0 0-.17-.275.72.72 0 0 0-.072-.082 1.263 1.263 0 0 0-.139.152.5.5 0 1 1-.791-.611c.096-.125.243-.298.441-.418a.924.924 0 0 1 .87-.065c.214.104.372.27.482.412.109.14.195.29.258.413.071.116.246.419.454.779l1.537-1.538a.5.5 0 0 1 .707.708ZM10.42 7.017c.174-.024.279-.02.357-.004a.857.857 0 0 1 .277.12.5.5 0 1 0 .515-.858 1.843 1.843 0 0 0-.596-.243 2.031 2.031 0 0 0-.696-.004h-.006a1.764 1.764 0 0 0-1.207.742c-.262.374-.386.83-.42 1.281a38.235 38.235 0 0 1-.046.966H7.59a.5.5 0 0 0 0 1h.952c-.073 1.29-.165 2.825-.2 3.276-.031.375-.059.706-.15.995-.088.272-.22.47-.447.601l-.013.008c-.257.161-.588.132-1.018-.083a.5.5 0 1 0-.447.894c.532.267 1.284.478 1.988.041.493-.29.75-.723.889-1.157.127-.4.163-.83.191-1.17l.004-.048v-.003c.035-.45.13-2.034.205-3.354h1.046a.5.5 0 1 0 0-1H9.6c.023-.452.04-.789.042-.904.027-.326.113-.587.24-.768a.765.765 0 0 1 .539-.328Z"/></g><defs><clipPath id="a"><path d="M0 0h16v16H0z"/></clipPath></defs>
    </symbol>
    <symbol xmlns="http://www.w3.org/2000/svg" width="16" height="16" id="fluent_circle_tree" fill="currentColor">
        <path d="M6 3a2 2 0 0 1-1.504 1.938c.003.02.004.041.004.062v2A1.5 1.5 0 0 0 6 8.5h3.063a2 2 0 1 1 0 1H6A2.489 2.489 0 0 1 4.5 9v3A1.5 1.5 0 0 0 6 13.5h3c.021 0 .042.001.062.004a2 2 0 1 1 0 .992A.508.508 0 0 1 9 14.5H6A2.5 2.5 0 0 1 3.5 12V5c0-.021.001-.042.004-.062A2 2 0 1 1 6 3ZM4 4a1 1 0 1 0 0-2 1 1 0 0 0 0 2Zm7 6a1 1 0 1 0 0-2 1 1 0 0 0 0 2Zm1 4a1 1 0 1 0-2 0 1 1 0 0 0 2 0Z"/>
    </symbol>
    <symbol width="16" id="fluent_globe" height="16" viewBox="0 0 16 16" fill="currentColor" xmlns="http://www.w3.org/2000/svg">
        <path d="M8 14C11.3137 14 14 11.3137 14 8C14 4.68629 11.3137 2 8 2C4.68629 2 2 4.68629 2 8C2 11.3137 4.68629 14 8 14ZM8 3C8.37372 3 8.87543 3.35608 9.31258 4.31781C9.4073 4.52619 9.49448 4.75446 9.57265 5H6.42735C6.50552 4.75446 6.5927 4.52619 6.68742 4.31781C7.12457 3.35608 7.62628 3 8 3ZM5.77705 3.90401C5.62614 4.23601 5.49428 4.6038 5.38411 5H3.99963C4.52341 4.30269 5.22525 3.74677 6.03766 3.39978C5.94287 3.56117 5.85596 3.7304 5.77705 3.90401ZM5.16299 6C5.05694 6.6275 5 7.30146 5 8C5 8.69854 5.05694 9.3725 5.16299 10H3.41604C3.14845 9.38754 3 8.7111 3 8C3 7.2889 3.14845 6.61246 3.41604 6H5.16299ZM5.38411 11C5.49428 11.3962 5.62614 11.764 5.77705 12.096C5.85596 12.2696 5.94287 12.4388 6.03766 12.6002C5.22525 12.2532 4.52341 11.6973 3.99963 11H5.38411ZM6.42735 11H9.57265C9.49448 11.2455 9.4073 11.4738 9.31258 11.6822C8.87543 12.6439 8.37372 13 8 13C7.62628 13 7.12457 12.6439 6.68742 11.6822C6.5927 11.4738 6.50552 11.2455 6.42735 11ZM9.82134 10H6.17866C6.06438 9.3892 6 8.71396 6 8C6 7.28604 6.06438 6.6108 6.17866 6H9.82134C9.93562 6.6108 10 7.28604 10 8C10 8.71396 9.93562 9.3892 9.82134 10ZM10.6159 11H12.0004C11.4766 11.6973 10.7747 12.2532 9.96234 12.6002C10.0571 12.4388 10.144 12.2696 10.2229 12.096C10.3739 11.764 10.5057 11.3962 10.6159 11ZM12.584 10H10.837C10.9431 9.3725 11 8.69854 11 8C11 7.30146 10.9431 6.6275 10.837 6H12.584C12.8516 6.61246 13 7.2889 13 8C13 8.7111 12.8516 9.38754 12.584 10ZM9.96234 3.39978C10.7747 3.74677 11.4766 4.30269 12.0004 5H10.6159C10.5057 4.6038 10.3739 4.23601 10.2229 3.90401C10.144 3.7304 10.0571 3.56117 9.96234 3.39978Z" />
    </symbol>
    <symbol xmlns="http://www.w3.org/2000/svg" id="fluent_partition_hint" width="16" height="16" fill="currentColor">
        <path d="M2 2.75C2 1.784 2.784 1 3.75 1h8.5c.966 0 1.75.784 1.75 1.75v1.5A1.75 1.75 0 0 1 12.25 6h-8.5A1.75 1.75 0 0 1 2 4.25v-1.5ZM3.75 2a.75.75 0 0 0-.75.75v1.5c0 .414.336.75.75.75h8.5a.75.75 0 0 0 .75-.75v-1.5a.75.75 0 0 0-.75-.75h-8.5Zm0 7a.75.75 0 0 0-.75.75v.75a.5.5 0 0 1-1 0v-.75C2 8.784 2.784 8 3.75 8h.75a.5.5 0 0 1 0 1h-.75ZM13 13.25a.75.75 0 0 1-.75.75h-.75a.5.5 0 0 0 0 1h.75A1.75 1.75 0 0 0 14 13.25v-.75a.5.5 0 0 0-1 0v.75ZM12.25 9a.75.75 0 0 1 .75.75v.75a.5.5 0 0 0 1 0v-.75A1.75 1.75 0 0 0 12.25 8h-.75a.5.5 0 0 0 0 1h.75ZM3 13.25c0 .414.336.75.75.75h.75a.5.5 0 0 1 0 1h-.75A1.75 1.75 0 0 1 2 13.25v-.75a.5.5 0 0 1 1 0v.75ZM9 9H7a.5.5 0 0 1 0-1h2a.5.5 0 0 1 0 1Zm-2 6h2a.5.5 0 0 0 0-1H7a.5.5 0 0 0 0 1Z"/>
    </symbol>
    <symbol xmlns="http://www.w3.org/2000/svg" id="fluent_table_column_question" width="16" height="16" fill="currentColor">
        <path d="M4.5 2A2.5 2.5 0 0 0 2 4.5v7A2.5 2.5 0 0 0 4.5 14h2.1a5.465 5.465 0 0 1-.393-1H6v-2h.022a5.48 5.48 0 0 1 .185-1H6V6h4v.207a5.48 5.48 0 0 1 1-.185V6h2v.207c.349.099.683.23 1 .393V4.5A2.5 2.5 0 0 0 11.5 2h-7ZM10 5H6V3h4v2Zm3-.5V5h-2V3h.5A1.5 1.5 0 0 1 13 4.5ZM4.5 13A1.5 1.5 0 0 1 3 11.5v-7A1.5 1.5 0 0 1 4.5 3H5v10h-.5Z"/><path d="M16 11.5a4.5 4.5 0 1 1-9 0 4.5 4.5 0 0 1 9 0Zm-4.5 1.88a.625.625 0 1 0 0 1.25.625.625 0 0 0 0-1.25Zm0-4.877c-1.048 0-1.864.818-1.853 1.955a.5.5 0 1 0 1-.01c-.006-.579.36-.945.853-.945.472 0 .853.392.853.95 0 .202-.07.315-.36.544l-.277.215c-.506.404-.716.717-.716 1.288a.5.5 0 0 0 .992.09l.011-.156c.017-.148.1-.254.346-.448l.277-.215c.513-.41.727-.732.727-1.318 0-1.104-.822-1.95-1.853-1.95Z"/>
    </symbol>
    <symbol width="16" height="16" id="fluent_folder" viewBox="0 0 16 16" fill="currentColor" xmlns="http://www.w3.org/2000/svg">
        <path d="M2 4.5V6H5.58579C5.71839 6 5.84557 5.94732 5.93934 5.85355L7.29289 4.5L5.93934 3.14645C5.84557 3.05268 5.71839 3 5.58579 3H3.5C2.67157 3 2 3.67157 2 4.5ZM1 4.5C1 3.11929 2.11929 2 3.5 2H5.58579C5.98361 2 6.36514 2.15804 6.64645 2.43934L8.20711 4H12.5C13.8807 4 15 5.11929 15 6.5V11.5C15 12.8807 13.8807 14 12.5 14H3.5C2.11929 14 1 12.8807 1 11.5V4.5ZM2 7V11.5C2 12.3284 2.67157 13 3.5 13H12.5C13.3284 13 14 12.3284 14 11.5V6.5C14 5.67157 13.3284 5 12.5 5H8.20711L6.64645 6.56066C6.36514 6.84197 5.98361 7 5.58579 7H2Z"/>
    </symbol>
    <symbol xmlns="http://www.w3.org/2000/svg" id="fluent_hint_grid" width="16" height="16" fill="currentColor">
        <path d="M9 2a.5.5 0 0 1 0 1H7a.5.5 0 0 1 0-1h2Zm2.5 1a.5.5 0 0 1 0-1A2.5 2.5 0 0 1 14 4.5a.5.5 0 0 1-1 0A1.5 1.5 0 0 0 11.5 3Zm2 3.5a.5.5 0 0 1 .5.5v2a.5.5 0 0 1-1 0V7a.5.5 0 0 1 .5-.5Zm0 4.5a.5.5 0 0 1 .5.5 2.5 2.5 0 0 1-2.5 2.5.5.5 0 0 1 0-1 1.5 1.5 0 0 0 1.5-1.5.5.5 0 0 1 .5-.5ZM7 13a.5.5 0 0 0 0 1h2a.5.5 0 0 0 0-1H7ZM4.5 2a.5.5 0 0 1 0 1A1.5 1.5 0 0 0 3 4.5a.5.5 0 0 1-1 0A2.5 2.5 0 0 1 4.5 2ZM5 13.5a.5.5 0 0 0-.5-.5A1.5 1.5 0 0 1 3 11.5a.5.5 0 0 0-1 0A2.5 2.5 0 0 0 4.5 14a.5.5 0 0 0 .5-.5Zm-2.5-4A.5.5 0 0 0 3 9V7a.5.5 0 0 0-1 0v2a.5.5 0 0 0 .5.5Zm8.5-3A1.5 1.5 0 0 0 9.5 5h-3A1.5 1.5 0 0 0 5 6.5v3A1.5 1.5 0 0 0 6.5 11h3A1.5 1.5 0 0 0 11 9.5v-3Zm-5 0a.5.5 0 0 1 .5-.5h1v1.5H6v-1Zm0 3v-1h1.5V10h-1a.5.5 0 0 1-.5-.5Zm4 0a.5.5 0 0 1-.5.5h-1V8.5H10v1Zm-1.5-2V6h1a.5.5 0 0 1 .5.5v1H8.5Z"/>
    </symbol>
    <symbol id="fluent_calendar" width="16" height="16" viewBox="0 0 16 16" fill="currentColor" xmlns="http://www.w3.org/2000/svg">
        <path d="M5.24848 8.99696C5.66186 8.99696 5.99696 8.66186 5.99696 8.24848C5.99696 7.83511 5.66186 7.5 5.24848 7.5C4.83511 7.5 4.5 7.83511 4.5 8.24848C4.5 8.66186 4.83511 8.99696 5.24848 8.99696ZM5.99696 10.7485C5.99696 11.1619 5.66186 11.497 5.24848 11.497C4.83511 11.497 4.5 11.1619 4.5 10.7485C4.5 10.3351 4.83511 10 5.24848 10C5.66186 10 5.99696 10.3351 5.99696 10.7485ZM8.00043 8.99696C8.41381 8.99696 8.74892 8.66186 8.74892 8.24848C8.74892 7.83511 8.41381 7.5 8.00043 7.5C7.58706 7.5 7.25195 7.83511 7.25195 8.24848C7.25195 8.66186 7.58706 8.99696 8.00043 8.99696ZM8.74892 10.7485C8.74892 11.1619 8.41381 11.497 8.00043 11.497C7.58706 11.497 7.25195 11.1619 7.25195 10.7485C7.25195 10.3351 7.58706 10 8.00043 10C8.41381 10 8.74892 10.3351 8.74892 10.7485ZM10.7485 8.99696C11.1619 8.99696 11.497 8.66186 11.497 8.24848C11.497 7.83511 11.1619 7.5 10.7485 7.5C10.3351 7.5 10 7.83511 10 8.24848C10 8.66186 10.3351 8.99696 10.7485 8.99696ZM14 4.5C14 3.11929 12.8807 2 11.5 2H4.5C3.11929 2 2 3.11929 2 4.5V11.5C2 12.8807 3.11929 14 4.5 14H11.5C12.8807 14 14 12.8807 14 11.5V4.5ZM3 6H13V11.5C13 12.3284 12.3284 13 11.5 13H4.5C3.67157 13 3 12.3284 3 11.5V6ZM4.5 3H11.5C12.3284 3 13 3.67157 13 4.5V5H3V4.5C3 3.67157 3.67157 3 4.5 3Z"/>
    </symbol>
    <symbol id="fluent_contact_card" width="16" height="16" viewBox="0 0 16 16" fill="currentColor" xmlns="http://www.w3.org/2000/svg">
        <path d="M1 4.75C1 3.7835 1.7835 3 2.75 3H13.25C14.2165 3 15 3.7835 15 4.75V11.25C15 12.2165 14.2165 13 13.25 13H2.75C1.7835 13 1 12.2165 1 11.25V4.75ZM2.75 4C2.33579 4 2 4.33579 2 4.75V11.25C2 11.6642 2.33579 12 2.75 12H13.25C13.6642 12 14 11.6642 14 11.25V4.75C14 4.33579 13.6642 4 13.25 4H2.75ZM9.5 6C9.22386 6 9 6.22386 9 6.5C9 6.77614 9.22386 7 9.5 7H12.5C12.7761 7 13 6.77614 13 6.5C13 6.22386 12.7761 6 12.5 6H9.5ZM9.5 9C9.22386 9 9 9.22386 9 9.5C9 9.77614 9.22386 10 9.5 10H12.5C12.7761 10 13 9.77614 13 9.5C13 9.22386 12.7761 9 12.5 9H9.5ZM5.26138 7.71366C6.01074 7.71366 6.61821 7.10619 6.61821 6.35683C6.61821 5.60747 6.01074 5 5.26138 5C4.51203 5 3.90455 5.60747 3.90455 6.35683C3.90455 7.10619 4.51203 7.71366 5.26138 7.71366ZM3.85823 8.39207C3.38424 8.39207 3 8.77632 3 9.2503C3 10.0167 3.52158 10.6847 4.26507 10.8706L4.31845 10.8839C4.93754 11.0387 5.58522 11.0387 6.20432 10.8839L6.2577 10.8706C7.00119 10.6847 7.52277 10.0167 7.52277 9.2503C7.52277 8.77632 7.13852 8.39207 6.66454 8.39207H3.85823Z"/>
    </symbol>
    <symbol id="fluent_table_column_sigma" xmlns="http://www.w3.org/2000/svg" width="16" height="16" fill="currentColor">
        <path d="M4.5 2A2.5 2.5 0 0 0 2 4.5v7A2.5 2.5 0 0 0 4.5 14h4.351l.94-1H6v-2h4v1.778l1-1.064v-.428L9.791 10H6V6h8V4.5A2.5 2.5 0 0 0 11.5 2h-7ZM10 5H6V3h4v2Zm3-.5V5h-2V3h.5A1.5 1.5 0 0 1 13 4.5ZM4.5 13A1.5 1.5 0 0 1 3 11.5v-7A1.5 1.5 0 0 1 4.5 3H5v10h-.5Z"/><path d="M9.5 16h6a.5.5 0 0 0 0-1h-4.845l2.968-3.158a.5.5 0 0 0 0-.684L10.655 8H15.5a.5.5 0 0 0 0-1h-6a.5.5 0 0 0-.364.842l3.438 3.658-3.438 3.658A.5.5 0 0 0 9.5 16Z"/>
    </symbol>
    <symbol xmlns="http://www.w3.org/2000/svg" id="fluent_calculator_triangle" width="16" height="16" fill="currentColor">
        <path d="M13 7.947V3.5A1.5 1.5 0 0 0 11.5 2h-7A1.5 1.5 0 0 0 3 3.5v9A1.5 1.5 0 0 0 4.5 14h1.998l-.2.345a1.5 1.5 0 0 0-.197.655H4.5A2.5 2.5 0 0 1 2 12.5v-9A2.5 2.5 0 0 1 4.5 1h7A2.5 2.5 0 0 1 14 3.5v6.178l-1-1.73Z"/><path d="M6 9a1 1 0 1 1-2 0 1 1 0 0 1 2 0Zm0 3a1 1 0 1 1-2 0 1 1 0 0 1 2 0Zm2.218-.976-.955 1.652a1 1 0 0 1 .955-1.652ZM9 9a1 1 0 1 1-2 0 1 1 0 0 1 2 0ZM5.5 3A1.5 1.5 0 0 0 4 4.5v1A1.5 1.5 0 0 0 5.5 7h5A1.5 1.5 0 0 0 12 5.5v-1A1.5 1.5 0 0 0 10.5 3h-5ZM5 4.5a.5.5 0 0 1 .5-.5h5a.5.5 0 0 1 .5.5v1a.5.5 0 0 1-.5.5h-5a.5.5 0 0 1-.5-.5v-1Zm10.83 10.345h.004a.5.5 0 0 1-.433.75H7.6a.5.5 0 0 1-.436-.75l3.9-6.75a.52.52 0 0 1 .866 0l3.9 6.75Z"/>
    </symbol>
    <symbol xmlns="http://www.w3.org/2000/svg" id="fluent_circle_tree" width="16" height="16" fill="currentColor">
        <path d="M6 3a2 2 0 0 1-1.504 1.938c.003.02.004.041.004.062v2A1.5 1.5 0 0 0 6 8.5h3.063a2 2 0 1 1 0 1H6A2.489 2.489 0 0 1 4.5 9v3A1.5 1.5 0 0 0 6 13.5h3c.021 0 .042.001.062.004a2 2 0 1 1 0 .992A.508.508 0 0 1 9 14.5H6A2.5 2.5 0 0 1 3.5 12V5c0-.021.001-.042.004-.062A2 2 0 1 1 6 3ZM4 4a1 1 0 1 0 0-2 1 1 0 0 0 0 2Zm7 6a1 1 0 1 0 0-2 1 1 0 0 0 0 2Zm1 4a1 1 0 1 0-2 0 1 1 0 0 0 2 0Z"/>
    </symbol>
    <symbol id="fluent_arrow_trending" width="16" height="16" viewBox="0 0 16 16" fill="currentColor" xmlns="http://www.w3.org/2000/svg">
        <path d="M8.49602 4L13.544 4.00179L13.6303 4.01676L13.6926 4.03779L13.7513 4.06673L13.8131 4.10892L13.8706 4.16267L13.9113 4.21334L13.946 4.27081L13.9783 4.3488L13.9898 4.39191L14.0011 4.47832L14.0015 9.5C14.0015 9.77614 13.7777 10 13.5015 10C13.2561 10 13.0519 9.82312 13.0096 9.58988L13.0015 9.5L13.001 5.707L7.85782 10.8535C7.68439 11.027 7.41516 11.0464 7.22027 10.9117L7.151 10.8539L5.50037 9.20674L2.85355 11.8536C2.65829 12.0488 2.34171 12.0488 2.14645 11.8536C1.97288 11.68 1.9536 11.4106 2.08859 11.2157L2.14645 11.1464L5.14645 8.14645C5.31988 7.97301 5.58907 7.95361 5.78393 8.08833L5.85318 8.14608L7.50374 9.79318L12.293 5H8.49602C8.25056 5 8.04642 4.82312 8.00408 4.58988L7.99602 4.5C7.99602 4.22386 8.21988 4 8.49602 4Z"/>
    </symbol>
    <symbol id="fluent_calendar_clock" xmlns="http://www.w3.org/2000/svg" width="17" height="16" viewBox="0 0 17 16" fill="currentColor">
        <path d="M12.4219 2C13.8026 2 14.9219 3.11929 14.9219 4.5V6.25716C13.9709 5.47182 12.7515 5 11.4219 5H13.9219V4.5C13.9219 3.67157 13.2503 3 12.4219 3H5.42188C4.59345 3 3.92188 3.67157 3.92188 4.5V5H11.4219C10.2445 5 9.15347 5.36997 8.2588 6H3.92188V11.5C3.92188 12.3284 4.59345 13 5.42188 13H6.52158C6.70448 13.3578 6.92541 13.6929 7.17904 14H5.42188C4.04116 14 2.92188 12.8807 2.92188 11.5V4.5C2.92188 3.11929 4.04116 2 5.42188 2H12.4219ZM11.4219 15C13.9072 15 15.9219 12.9853 15.9219 10.5C15.9219 8.01472 13.9072 6 11.4219 6C8.93659 6 6.92188 8.01472 6.92188 10.5C6.92188 12.9853 8.93659 15 11.4219 15ZM10.9219 8.5C10.9219 8.22386 11.1457 8 11.4219 8C11.698 8 11.9219 8.22386 11.9219 8.5V10H12.9219C13.198 10 13.4219 10.2239 13.4219 10.5C13.4219 10.7761 13.198 11 12.9219 11H11.4219C11.1457 11 10.9219 10.7761 10.9219 10.5V8.5Z"/>
    </symbol>
</svg>
