<?xml version="1.0" encoding="utf-8"?><svg xmlns="http://www.w3.org/2000/svg" xmlns:xlink="http://www.w3.org/1999/xlink"><symbol viewBox="0 0 24 24" fill="none" id="functions_hub_24_filled" xmlns="http://www.w3.org/2000/svg">
<path d="M6.25 3C4.45507 3 3 4.45507 3 6.25V17.75C3 19.5449 4.45507 21 6.25 21H10.9373C10.9365 20.7144 11.0058 20.4245 11.1527 20.1563C11.3062 19.876 11.5253 19.6543 11.7804 19.5H6.25C5.2835 19.5 4.5 18.7165 4.5 17.75V8.5H19.5V15.48C19.608 15.5666 19.7002 15.6555 19.7775 15.7389L20.0328 15.4917C20.3079 15.2254 20.6479 15.0675 21 15.017V6.25C21 4.45507 19.5449 3 17.75 3H6.25Z" fill="currentColor"/>
<path d="M16.5257 12.5132C16.6665 12.4916 16.7262 12.4998 16.7527 12.5056C16.778 12.5112 16.8227 12.5251 16.9224 12.5906C17.2685 12.8181 17.7336 12.7219 17.961 12.3757C18.1885 12.0295 18.0923 11.5645 17.7461 11.3371C17.5554 11.2117 17.3387 11.0984 17.0736 11.0404C16.81 10.9826 16.5513 10.9909 16.289 11.032L16.2803 11.0334C14.9977 11.2495 14.5611 12.4347 14.4951 13.3744C14.4939 13.3919 14.4933 13.4094 14.4933 13.4269L14.4932 13.4327L14.4928 13.4497L14.4911 13.5066C14.4895 13.5536 14.487 13.6152 14.4839 13.6903C14.4801 13.7775 14.4755 13.8814 14.47 13.9991H13.4346C13.0204 13.9991 12.6846 14.3349 12.6846 14.7491C12.6846 15.1634 13.0204 15.4991 13.4346 15.4991H14.3952L14.3709 15.9638C14.3055 17.2045 14.2334 18.4987 14.2049 18.9066C14.1743 19.3074 14.1485 19.6367 14.0658 19.9203C13.9886 20.1852 13.8822 20.335 13.7359 20.4284C13.7292 20.4327 13.7226 20.4371 13.7161 20.4416C13.6453 20.49 13.5785 20.5058 13.4858 20.4968C13.3761 20.4862 13.2297 20.4386 13.0479 20.339C12.6846 20.1401 12.2288 20.2733 12.0298 20.6366C11.8309 20.9999 11.9641 21.4557 12.3274 21.6547C12.8701 21.9519 13.7345 22.2396 14.5534 21.6861C15.0974 21.3344 15.3661 20.8196 15.5059 20.34C15.6343 19.8995 15.6698 19.4286 15.6966 19.0726L15.7007 19.0181L15.701 19.0138C15.7341 18.5422 15.8254 16.8893 15.8972 15.4991H16.9346C17.3488 15.4991 17.6846 15.1634 17.6846 14.7491C17.6846 14.3349 17.3488 13.9991 16.9346 13.9991H15.9714C15.9833 13.7393 15.991 13.5488 15.9928 13.4603C16.018 13.1358 16.0963 12.8949 16.194 12.7426C16.28 12.6084 16.38 12.5387 16.5257 12.5132Z" fill="currentColor"/>
<path d="M21.7716 17.288C22.0693 16.9999 22.077 16.5251 21.7889 16.2275C21.5008 15.9299 21.026 15.9222 20.7284 16.2103L19.6081 17.2946C19.5191 17.1406 19.4477 17.0181 19.4069 16.9504C19.3473 16.8364 19.2642 16.6915 19.1566 16.5519C19.0455 16.4077 18.8722 16.2214 18.6244 16.1008C18.606 16.0919 18.5873 16.0837 18.5683 16.0763C18.1776 15.9242 17.8184 16.0168 17.5641 16.1715C17.3408 16.3073 17.1834 16.4969 17.0935 16.6136C16.8406 16.9417 16.9016 17.4126 17.2297 17.6655C17.4914 17.8672 17.8441 17.8691 18.1044 17.6952L18.1143 17.7118C18.1601 17.7861 18.3093 18.0443 18.4967 18.3704L17.1659 19.6587C16.8682 19.9468 16.8605 20.4216 17.1486 20.7193C17.4367 21.0169 17.9115 21.0246 18.2091 20.7365L19.2674 19.7121C19.369 19.8879 19.4477 20.0225 19.4839 20.0813C19.5168 20.1347 19.5427 20.179 19.5699 20.2256L19.5949 20.2683C19.6281 20.3248 19.6736 20.4016 19.7285 20.4765C19.8664 20.6647 20.0305 20.7978 20.2505 20.905C20.3063 20.9322 20.3653 20.9523 20.4261 20.965C20.7458 21.0314 21.0823 21.0102 21.3835 20.8069C21.5809 20.6736 21.7334 20.4598 21.7729 20.4043L21.7816 20.3923C22.0344 20.0642 21.9734 19.5933 21.6454 19.3404C21.3837 19.1388 21.0312 19.1367 20.7709 19.3106L20.7607 19.2941C20.715 19.2199 20.566 18.9621 20.3788 18.6363L21.7716 17.288Z" fill="currentColor"/>
</symbol><symbol viewBox="0 0 24 24" fill="none" id="functions_hub_24_regular" xmlns="http://www.w3.org/2000/svg">
<path d="M6.25 3C4.45507 3 3 4.45507 3 6.25V17.75C3 19.5449 4.45507 21 6.25 21H10.9373C10.9365 20.7144 11.0058 20.4245 11.1527 20.1563C11.3062 19.876 11.5253 19.6543 11.7804 19.5H6.25C5.2835 19.5 4.5 18.7165 4.5 17.75V8.5H19.5V15.48C19.608 15.5666 19.7002 15.6555 19.7775 15.7389L20.0328 15.4917C20.3079 15.2254 20.6479 15.0675 21 15.017V6.25C21 4.45507 19.5449 3 17.75 3H6.25ZM19.5 7H4.5V6.25C4.5 5.2835 5.2835 4.5 6.25 4.5H17.75C18.7165 4.5 19.5 5.2835 19.5 6.25V7Z" fill="currentColor"/>
<path d="M16.5257 12.5132C16.6665 12.4916 16.7262 12.4998 16.7527 12.5056C16.778 12.5112 16.8227 12.5251 16.9224 12.5906C17.2685 12.8181 17.7336 12.7219 17.961 12.3757C18.1885 12.0295 18.0923 11.5645 17.7461 11.3371C17.5554 11.2117 17.3387 11.0984 17.0736 11.0404C16.81 10.9826 16.5513 10.9909 16.289 11.032L16.2803 11.0334C14.9977 11.2495 14.5611 12.4347 14.4951 13.3744C14.4939 13.3919 14.4933 13.4094 14.4933 13.4269L14.4932 13.4327L14.4928 13.4497L14.4911 13.5066C14.4895 13.5536 14.487 13.6152 14.4839 13.6903C14.4801 13.7775 14.4755 13.8814 14.47 13.9991H13.4346C13.0204 13.9991 12.6846 14.3349 12.6846 14.7491C12.6846 15.1634 13.0204 15.4991 13.4346 15.4991H14.3952L14.3709 15.9638C14.3055 17.2045 14.2334 18.4987 14.2049 18.9066C14.1743 19.3074 14.1485 19.6367 14.0658 19.9203C13.9886 20.1852 13.8822 20.335 13.7359 20.4284C13.7292 20.4327 13.7226 20.4371 13.7161 20.4416C13.6453 20.49 13.5785 20.5058 13.4858 20.4968C13.3761 20.4862 13.2297 20.4386 13.0479 20.339C12.6846 20.1401 12.2288 20.2733 12.0298 20.6366C11.8309 20.9999 11.9641 21.4557 12.3274 21.6547C12.8701 21.9519 13.7345 22.2396 14.5534 21.6861C15.0974 21.3344 15.3661 20.8196 15.5059 20.34C15.6343 19.8995 15.6698 19.4286 15.6966 19.0726L15.7007 19.0181L15.701 19.0138C15.7341 18.5422 15.8254 16.8893 15.8972 15.4991H16.9346C17.3488 15.4991 17.6846 15.1634 17.6846 14.7491C17.6846 14.3349 17.3488 13.9991 16.9346 13.9991H15.9714C15.9833 13.7393 15.991 13.5488 15.9928 13.4603C16.018 13.1358 16.0963 12.8949 16.194 12.7426C16.28 12.6084 16.38 12.5387 16.5257 12.5132Z" fill="currentColor"/>
<path d="M21.7716 17.288C22.0693 16.9999 22.077 16.5251 21.7889 16.2275C21.5008 15.9299 21.026 15.9222 20.7284 16.2103L19.6081 17.2946C19.5191 17.1406 19.4477 17.0181 19.4069 16.9504C19.3473 16.8364 19.2642 16.6915 19.1566 16.5519C19.0455 16.4077 18.8722 16.2214 18.6244 16.1008C18.606 16.0919 18.5873 16.0837 18.5683 16.0763C18.1776 15.9242 17.8184 16.0168 17.5641 16.1715C17.3408 16.3073 17.1834 16.4969 17.0935 16.6136C16.8406 16.9417 16.9016 17.4126 17.2297 17.6655C17.4914 17.8672 17.8441 17.8691 18.1044 17.6952L18.1143 17.7118C18.1601 17.7861 18.3093 18.0443 18.4967 18.3704L17.1659 19.6587C16.8682 19.9468 16.8605 20.4216 17.1486 20.7193C17.4367 21.0169 17.9115 21.0246 18.2091 20.7365L19.2674 19.7121C19.369 19.8879 19.4477 20.0225 19.4839 20.0813C19.5168 20.1347 19.5427 20.179 19.5699 20.2256L19.5949 20.2683C19.6281 20.3248 19.6736 20.4016 19.7285 20.4765C19.8664 20.6647 20.0305 20.7978 20.2505 20.905C20.3063 20.9322 20.3653 20.9523 20.4261 20.965C20.7458 21.0314 21.0823 21.0102 21.3835 20.8069C21.5809 20.6736 21.7334 20.4598 21.7729 20.4043L21.7816 20.3923C22.0344 20.0642 21.9734 19.5933 21.6454 19.3404C21.3837 19.1388 21.0312 19.1367 20.7709 19.3106L20.7607 19.2941C20.715 19.2199 20.566 18.9621 20.3788 18.6363L21.7716 17.288Z" fill="currentColor"/>
</symbol></svg>