<svg width="137" height="128" viewBox="0 0 137 128" fill="none" xmlns="http://www.w3.org/2000/svg">
<circle cx="69" cy="68.8691" r="54" stroke="#666666" stroke-linecap="round" stroke-dasharray="8 8"/>
<path d="M3 48.3691C3 46.4361 4.567 44.8691 6.5 44.8691H25.5C27.433 44.8691 29 46.4361 29 48.3691V67.3691C29 69.3021 27.433 70.8691 25.5 70.8691H6.5C4.567 70.8691 3 69.3021 3 67.3691V48.3691Z" fill="url(#paint0_linear_6534_31988)"/>
<path d="M3 48.3691C3 46.4361 4.567 44.8691 6.5 44.8691H25.5C27.433 44.8691 29 46.4361 29 48.3691V67.3691C29 69.3021 27.433 70.8691 25.5 70.8691H6.5C4.567 70.8691 3 69.3021 3 67.3691V48.3691Z" fill="url(#paint1_radial_6534_31988)" fill-opacity="0.2"/>
<path fill-rule="evenodd" clip-rule="evenodd" d="M25.5 45.8691H6.5C5.11929 45.8691 4 46.9884 4 48.3691V67.3691C4 68.7499 5.11929 69.8691 6.5 69.8691H25.5C26.8807 69.8691 28 68.7499 28 67.3691V48.3691C28 46.9884 26.8807 45.8691 25.5 45.8691ZM6.5 44.8691C4.567 44.8691 3 46.4361 3 48.3691V67.3691C3 69.3021 4.567 70.8691 6.5 70.8691H25.5C27.433 70.8691 29 69.3021 29 67.3691V48.3691C29 46.4361 27.433 44.8691 25.5 44.8691H6.5Z" fill="url(#paint2_linear_6534_31988)"/>
<path fill-rule="evenodd" clip-rule="evenodd" d="M11.25 50.8691C11.6642 50.8691 12 51.2049 12 51.6191L12 64.1191C12 64.5334 11.6642 64.8691 11.25 64.8691C10.8358 64.8691 10.5 64.5334 10.5 64.1191L10.5 51.6191C10.5 51.2049 10.8358 50.8691 11.25 50.8691Z" fill="url(#paint3_linear_6534_31988)"/>
<path fill-rule="evenodd" clip-rule="evenodd" d="M15.25 64.1191L15.25 54.6191C15.25 54.2049 15.5858 53.8691 16 53.8691C16.4142 53.8691 16.75 54.2049 16.75 54.6191L16.75 64.1191C16.75 64.5334 16.4142 64.8691 16 64.8691C15.5858 64.8691 15.25 64.5334 15.25 64.1191Z" fill="url(#paint4_linear_6534_31988)"/>
<path fill-rule="evenodd" clip-rule="evenodd" d="M20.75 56.8691C21.1642 56.8691 21.5 57.2049 21.5 57.6191L21.5 64.1191C21.5 64.5334 21.1642 64.8691 20.75 64.8691C20.3358 64.8691 20 64.5334 20 64.1191L20 57.6191C20 57.2049 20.3358 56.8691 20.75 56.8691Z" fill="url(#paint5_linear_6534_31988)"/>
<mask id="mask0_6534_31988" style="mask-type:alpha" maskUnits="userSpaceOnUse" x="54" y="48" width="30" height="41">
<path d="M70.6662 50.5358C70.6662 49.6153 71.4124 48.8691 72.3328 48.8691H82.3326C83.253 48.8691 83.9992 49.6153 83.9992 50.5358V87.2014C83.9992 88.1219 83.253 88.868 82.3326 88.868H55.6666C54.7462 88.868 54 88.1219 54 87.2014V70.5352C54 69.6148 54.7462 68.8686 55.6666 68.8686H62.3332V60.5355C62.3332 59.615 63.0793 58.8689 63.9998 58.8689H70.6662V50.5358Z" fill="white"/>
</mask>
<g mask="url(#mask0_6534_31988)">
<path d="M83.999 48.8691V88.868H70.6661L70.6661 48.8691H83.999Z" fill="url(#paint6_linear_6534_31988)"/>
<g filter="url(#filter0_dd_6534_31988)">
<path d="M75.666 60.5358V88.8683H62.333V58.8691H73.9994C74.9198 58.8691 75.666 59.6153 75.666 60.5358Z" fill="url(#paint7_linear_6534_31988)"/>
</g>
<path d="M54 68.8682V88.8676H67.333V70.5348C67.333 69.6143 66.5868 68.8682 65.6663 68.8682H54Z" fill="url(#paint8_linear_6534_31988)"/>
</g>
<path d="M94 102.369C94 100.436 95.567 98.8691 97.5 98.8691H116.5C118.433 98.8691 120 100.436 120 102.369V121.369C120 123.302 118.433 124.869 116.5 124.869H97.5C95.567 124.869 94 123.302 94 121.369V102.369Z" fill="url(#paint9_linear_6534_31988)"/>
<path d="M94 102.369C94 100.436 95.567 98.8691 97.5 98.8691H116.5C118.433 98.8691 120 100.436 120 102.369V121.369C120 123.302 118.433 124.869 116.5 124.869H97.5C95.567 124.869 94 123.302 94 121.369V102.369Z" fill="url(#paint10_radial_6534_31988)" fill-opacity="0.2"/>
<path fill-rule="evenodd" clip-rule="evenodd" d="M116.5 99.8691H97.5C96.1193 99.8691 95 100.988 95 102.369V121.369C95 122.75 96.1193 123.869 97.5 123.869H116.5C117.881 123.869 119 122.75 119 121.369V102.369C119 100.988 117.881 99.8691 116.5 99.8691ZM97.5 98.8691C95.567 98.8691 94 100.436 94 102.369V121.369C94 123.302 95.567 124.869 97.5 124.869H116.5C118.433 124.869 120 123.302 120 121.369V102.369C120 100.436 118.433 98.8691 116.5 98.8691H97.5Z" fill="url(#paint11_linear_6534_31988)"/>
<path fill-rule="evenodd" clip-rule="evenodd" d="M106.875 111.869L106.875 108.369C106.875 107.541 106.203 106.869 105.375 106.869H102.375C101.547 106.869 100.875 107.541 100.875 108.369V116.369C100.875 117.198 101.547 117.869 102.375 117.869H110.375C111.203 117.869 111.875 117.198 111.875 116.369V113.369C111.875 112.541 111.203 111.869 110.375 111.869H106.875ZM105.375 107.869H102.375C102.099 107.869 101.875 108.093 101.875 108.369V111.869H105.875V108.369C105.875 108.093 105.651 107.869 105.375 107.869ZM106.875 116.869H110.375C110.651 116.869 110.875 116.645 110.875 116.369V113.369C110.875 113.093 110.651 112.869 110.375 112.869H106.875V116.869ZM105.875 116.869V112.869H101.875V116.369C101.875 116.645 102.099 116.869 102.375 116.869H105.875Z" fill="url(#paint12_linear_6534_31988)"/>
<path d="M108.565 106.302C109.15 105.716 110.1 105.716 110.686 106.302L112.454 108.069C113.039 108.655 113.039 109.605 112.454 110.191L110.686 111.958C110.1 112.544 109.15 112.544 108.565 111.958L106.797 110.191C106.211 109.605 106.211 108.655 106.797 108.069L108.565 106.302Z" fill="url(#paint13_linear_6534_31988)"/>
<rect x="18.5" y="99.3691" width="25" height="25" rx="3" fill="url(#paint14_linear_6534_31988)"/>
<rect x="18.5" y="99.3691" width="25" height="25" rx="3" fill="url(#paint15_radial_6534_31988)" fill-opacity="0.2"/>
<rect x="18.5" y="99.3691" width="25" height="25" rx="3" stroke="url(#paint16_linear_6534_31988)"/>
<circle cx="30.9062" cy="111.869" r="8" fill="url(#paint17_linear_6534_31988)"/>
<path d="M35.0851 107.688C34.9033 107.533 34.6371 107.528 34.4497 107.677L34.2734 107.817C34.161 107.906 34.0002 108.034 33.8061 108.189C33.4179 108.499 32.8964 108.917 32.3635 109.348C31.8309 109.779 31.2853 110.225 30.8496 110.589C30.632 110.772 30.4396 110.936 30.2892 111.068C30.1493 111.192 30.0183 111.312 29.9463 111.396C29.4083 112.026 29.4829 112.973 30.1129 113.511C30.7428 114.049 31.6897 113.974 32.2276 113.344C32.2996 113.26 32.3977 113.112 32.4977 112.954C32.6052 112.785 32.7369 112.569 32.8828 112.326C33.1748 111.838 33.5294 111.23 33.8716 110.636C34.214 110.042 34.5451 109.462 34.7905 109.03C34.9132 108.814 35.0145 108.635 35.0852 108.51L35.196 108.314C35.3134 108.106 35.267 107.843 35.0851 107.688Z" fill="#F4D58A"/>
<path d="M27.4645 108.334C28.9113 106.887 31.0251 106.511 32.8185 107.21C33.0758 107.31 33.3656 107.183 33.4659 106.926C33.5661 106.668 33.4388 106.378 33.1815 106.278C31.0318 105.441 28.4948 105.889 26.7574 107.626C24.4142 109.97 24.4142 113.769 26.7574 116.112C26.9526 116.307 27.2692 116.307 27.4645 116.112C27.6597 115.916 27.6597 115.6 27.4645 115.405C25.5118 113.452 25.5118 110.286 27.4645 108.334Z" fill="#F4D58A"/>
<path d="M56 6.54199C56 4.60899 57.567 3.04199 59.5 3.04199H78.5C80.433 3.04199 82 4.609 82 6.54199V25.542C82 27.475 80.433 29.042 78.5 29.042H59.5C57.567 29.042 56 27.475 56 25.542V6.54199Z" fill="url(#paint18_linear_6534_31988)"/>
<path d="M56 6.54199C56 4.60899 57.567 3.04199 59.5 3.04199H78.5C80.433 3.04199 82 4.609 82 6.54199V25.542C82 27.475 80.433 29.042 78.5 29.042H59.5C57.567 29.042 56 27.475 56 25.542V6.54199Z" fill="url(#paint19_radial_6534_31988)" fill-opacity="0.2"/>
<path fill-rule="evenodd" clip-rule="evenodd" d="M78.5 4.04199H59.5C58.1193 4.04199 57 5.16128 57 6.54199V25.542C57 26.9227 58.1193 28.042 59.5 28.042H78.5C79.8807 28.042 81 26.9227 81 25.542V6.54199C81 5.16128 79.8807 4.04199 78.5 4.04199ZM59.5 3.04199C57.567 3.04199 56 4.609 56 6.54199V25.542C56 27.475 57.567 29.042 59.5 29.042H78.5C80.433 29.042 82 27.475 82 25.542V6.54199C82 4.609 80.433 3.04199 78.5 3.04199H59.5Z" fill="url(#paint20_linear_6534_31988)"/>
<path d="M66.5 10.0469C65.9477 10.0469 65.5 10.4946 65.5 11.0469V13.0469C65.5 13.5992 65.9477 14.0469 66.5 14.0469H67.4976L64.9743 18.042H64C63.4477 18.042 63 18.4897 63 19.042V21.042C63 21.5943 63.4477 22.042 64 22.042H67C67.5523 22.042 68 21.5943 68 21.042V19.042C68 18.4897 67.5523 18.042 67 18.042H66.1571L68.6727 14.0589L68.6537 14.0469H69.3463L69.3273 14.0589L71.8429 18.042H71C70.4477 18.042 70 18.4897 70 19.042V21.042C70 21.5943 70.4477 22.042 71 22.042H74C74.5523 22.042 75 21.5943 75 21.042V19.042C75 18.4897 74.5523 18.042 74 18.042H73.0257L70.5024 14.0469H71.5C72.0523 14.0469 72.5 13.5992 72.5 13.0469V11.0469C72.5 10.4946 72.0523 10.0469 71.5 10.0469H66.5Z" fill="url(#paint21_linear_6534_31988)"/>
<path d="M108 48.3691C108 46.4361 109.567 44.8691 111.5 44.8691H130.5C132.433 44.8691 134 46.4361 134 48.3691V67.3691C134 69.3021 132.433 70.8691 130.5 70.8691H111.5C109.567 70.8691 108 69.3021 108 67.3691V48.3691Z" fill="url(#paint22_linear_6534_31988)"/>
<path d="M108 48.3691C108 46.4361 109.567 44.8691 111.5 44.8691H130.5C132.433 44.8691 134 46.4361 134 48.3691V67.3691C134 69.3021 132.433 70.8691 130.5 70.8691H111.5C109.567 70.8691 108 69.3021 108 67.3691V48.3691Z" fill="url(#paint23_radial_6534_31988)" fill-opacity="0.2"/>
<path fill-rule="evenodd" clip-rule="evenodd" d="M130.5 45.8691H111.5C110.119 45.8691 109 46.9884 109 48.3691V67.3691C109 68.7499 110.119 69.8691 111.5 69.8691H130.5C131.881 69.8691 133 68.7499 133 67.3691V48.3691C133 46.9884 131.881 45.8691 130.5 45.8691ZM111.5 44.8691C109.567 44.8691 108 46.4361 108 48.3691V67.3691C108 69.3021 109.567 70.8691 111.5 70.8691H130.5C132.433 70.8691 134 69.3021 134 67.3691V48.3691C134 46.4361 132.433 44.8691 130.5 44.8691H111.5Z" fill="url(#paint24_linear_6534_31988)"/>
<path d="M121 55.8691C122.475 55.8691 123.857 55.6318 124.907 55.2118C125.302 55.054 125.678 54.859 126 54.6199V61.3693C126 62.7943 123.851 63.8693 121 63.8693C118.149 63.8693 116 62.7943 116 61.3693V54.6199C116.322 54.859 116.698 55.054 117.093 55.2118C118.143 55.6318 119.525 55.8691 121 55.8691Z" fill="url(#paint25_linear_6534_31988)"/>
<path d="M116 52.8691C116 53.9737 118.239 54.8691 121 54.8691C123.761 54.8691 126 53.9737 126 52.8691C126 52.8548 126 52.8405 125.999 52.8262C125.942 51.7415 123.726 50.8691 121 50.8691C118.929 50.8691 117.152 51.3728 116.393 52.0907C116.153 52.3175 116.015 52.5657 116.001 52.8262C116 52.8405 116 52.8548 116 52.8691Z" fill="url(#paint26_linear_6534_31988)"/>
<defs>
<filter id="filter0_dd_6534_31988" x="58.9998" y="56.3692" width="19.9995" height="36.6655" filterUnits="userSpaceOnUse" color-interpolation-filters="sRGB">
<feFlood flood-opacity="0" result="BackgroundImageFix"/>
<feColorMatrix in="SourceAlpha" type="matrix" values="0 0 0 0 0 0 0 0 0 0 0 0 0 0 0 0 0 0 127 0" result="hardAlpha"/>
<feOffset dy="0.158329"/>
<feGaussianBlur stdDeviation="0.158329"/>
<feColorMatrix type="matrix" values="0 0 0 0 0 0 0 0 0 0 0 0 0 0 0 0 0 0 0.2 0"/>
<feBlend mode="normal" in2="BackgroundImageFix" result="effect1_dropShadow_6534_31988"/>
<feColorMatrix in="SourceAlpha" type="matrix" values="0 0 0 0 0 0 0 0 0 0 0 0 0 0 0 0 0 0 127 0" result="hardAlpha"/>
<feOffset dy="0.83331"/>
<feGaussianBlur stdDeviation="1.66662"/>
<feColorMatrix type="matrix" values="0 0 0 0 0 0 0 0 0 0 0 0 0 0 0 0 0 0 0.18 0"/>
<feBlend mode="normal" in2="effect1_dropShadow_6534_31988" result="effect2_dropShadow_6534_31988"/>
<feBlend mode="normal" in="SourceGraphic" in2="effect2_dropShadow_6534_31988" result="shape"/>
</filter>
<linearGradient id="paint0_linear_6534_31988" x1="10.2222" y1="44.8691" x2="13.5111" y2="71.1803" gradientUnits="userSpaceOnUse">
<stop stop-color="white"/>
<stop offset="1" stop-color="#EBEBEB"/>
</linearGradient>
<radialGradient id="paint1_radial_6534_31988" cx="0" cy="0" r="1" gradientUnits="userSpaceOnUse" gradientTransform="translate(11.3056 51.64) rotate(56.3099) scale(24.7381 21.408)">
<stop offset="0.177083" stop-color="white"/>
<stop offset="1" stop-color="#B8B8B8"/>
</radialGradient>
<linearGradient id="paint2_linear_6534_31988" x1="11.3958" y1="44.8691" x2="14.8966" y2="71.1246" gradientUnits="userSpaceOnUse">
<stop stop-color="#BBBBBB"/>
<stop offset="1" stop-color="#888888"/>
</linearGradient>
<linearGradient id="paint3_linear_6534_31988" x1="10.5" y1="50.8691" x2="24.1025" y2="61.5568" gradientUnits="userSpaceOnUse">
<stop stop-color="#C28400"/>
<stop offset="1" stop-color="#A86500"/>
</linearGradient>
<linearGradient id="paint4_linear_6534_31988" x1="10.5" y1="50.8691" x2="24.1025" y2="61.5568" gradientUnits="userSpaceOnUse">
<stop stop-color="#C28400"/>
<stop offset="1" stop-color="#A86500"/>
</linearGradient>
<linearGradient id="paint5_linear_6534_31988" x1="10.5" y1="50.8691" x2="24.1025" y2="61.5568" gradientUnits="userSpaceOnUse">
<stop stop-color="#C28400"/>
<stop offset="1" stop-color="#A86500"/>
</linearGradient>
<linearGradient id="paint6_linear_6534_31988" x1="68.4439" y1="48.8691" x2="86.0262" y2="86.1375" gradientUnits="userSpaceOnUse">
<stop stop-color="#E6AD10"/>
<stop offset="1" stop-color="#C87E0E"/>
</linearGradient>
<linearGradient id="paint7_linear_6534_31988" x1="62.332" y1="58.8691" x2="77.1184" y2="87.5459" gradientUnits="userSpaceOnUse">
<stop stop-color="#F6D751"/>
<stop offset="1" stop-color="#E6AD10"/>
</linearGradient>
<linearGradient id="paint8_linear_6534_31988" x1="53.9989" y1="68.8682" x2="62.1699" y2="88.2333" gradientUnits="userSpaceOnUse">
<stop stop-color="#F9E589"/>
<stop offset="1" stop-color="#F6D751"/>
</linearGradient>
<linearGradient id="paint9_linear_6534_31988" x1="101.222" y1="98.8691" x2="104.511" y2="125.18" gradientUnits="userSpaceOnUse">
<stop stop-color="white"/>
<stop offset="1" stop-color="#EBEBEB"/>
</linearGradient>
<radialGradient id="paint10_radial_6534_31988" cx="0" cy="0" r="1" gradientUnits="userSpaceOnUse" gradientTransform="translate(102.306 105.64) rotate(56.3099) scale(24.7381 21.408)">
<stop offset="0.177083" stop-color="white"/>
<stop offset="1" stop-color="#B8B8B8"/>
</radialGradient>
<linearGradient id="paint11_linear_6534_31988" x1="102.396" y1="98.8691" x2="105.897" y2="125.125" gradientUnits="userSpaceOnUse">
<stop stop-color="#BBBBBB"/>
<stop offset="1" stop-color="#888888"/>
</linearGradient>
<linearGradient id="paint12_linear_6534_31988" x1="100.875" y1="106.869" x2="111.875" y2="117.869" gradientUnits="userSpaceOnUse">
<stop stop-color="#EB6D00"/>
<stop offset="1" stop-color="#B85500"/>
</linearGradient>
<linearGradient id="paint13_linear_6534_31988" x1="106.357" y1="105.862" x2="112.893" y2="112.398" gradientUnits="userSpaceOnUse">
<stop stop-color="#EB6D00"/>
<stop offset="1" stop-color="#B85500"/>
</linearGradient>
<linearGradient id="paint14_linear_6534_31988" x1="25.2222" y1="98.8691" x2="28.5111" y2="125.18" gradientUnits="userSpaceOnUse">
<stop stop-color="white"/>
<stop offset="1" stop-color="#EBEBEB"/>
</linearGradient>
<radialGradient id="paint15_radial_6534_31988" cx="0" cy="0" r="1" gradientUnits="userSpaceOnUse" gradientTransform="translate(26.3056 105.64) rotate(56.3099) scale(24.7381 21.408)">
<stop offset="0.177083" stop-color="white"/>
<stop offset="1" stop-color="#B8B8B8"/>
</radialGradient>
<linearGradient id="paint16_linear_6534_31988" x1="26.3958" y1="98.8691" x2="29.8966" y2="125.125" gradientUnits="userSpaceOnUse">
<stop stop-color="#BBBBBB"/>
<stop offset="1" stop-color="#888888"/>
</linearGradient>
<linearGradient id="paint17_linear_6534_31988" x1="22.9062" y1="103.869" x2="38.9062" y2="119.869" gradientUnits="userSpaceOnUse">
<stop stop-color="#C28400"/>
<stop offset="1" stop-color="#A86500"/>
</linearGradient>
<linearGradient id="paint18_linear_6534_31988" x1="63.2222" y1="3.04199" x2="66.5111" y2="29.3531" gradientUnits="userSpaceOnUse">
<stop stop-color="white"/>
<stop offset="1" stop-color="#EBEBEB"/>
</linearGradient>
<radialGradient id="paint19_radial_6534_31988" cx="0" cy="0" r="1" gradientUnits="userSpaceOnUse" gradientTransform="translate(64.3056 9.81282) rotate(56.3099) scale(24.7381 21.408)">
<stop offset="0.177083" stop-color="white"/>
<stop offset="1" stop-color="#B8B8B8"/>
</radialGradient>
<linearGradient id="paint20_linear_6534_31988" x1="64.3958" y1="3.04199" x2="67.8966" y2="29.2975" gradientUnits="userSpaceOnUse">
<stop stop-color="#BBBBBB"/>
<stop offset="1" stop-color="#888888"/>
</linearGradient>
<linearGradient id="paint21_linear_6534_31988" x1="63" y1="10.0469" x2="74.9951" y2="22.0469" gradientUnits="userSpaceOnUse">
<stop stop-color="#4BA446"/>
<stop offset="1" stop-color="#3F7D35"/>
</linearGradient>
<linearGradient id="paint22_linear_6534_31988" x1="115.222" y1="44.8691" x2="118.511" y2="71.1803" gradientUnits="userSpaceOnUse">
<stop stop-color="white"/>
<stop offset="1" stop-color="#EBEBEB"/>
</linearGradient>
<radialGradient id="paint23_radial_6534_31988" cx="0" cy="0" r="1" gradientUnits="userSpaceOnUse" gradientTransform="translate(116.306 51.64) rotate(56.3099) scale(24.7381 21.408)">
<stop offset="0.177083" stop-color="white"/>
<stop offset="1" stop-color="#B8B8B8"/>
</radialGradient>
<linearGradient id="paint24_linear_6534_31988" x1="116.396" y1="44.8691" x2="119.897" y2="71.1246" gradientUnits="userSpaceOnUse">
<stop stop-color="#BBBBBB"/>
<stop offset="1" stop-color="#888888"/>
</linearGradient>
<linearGradient id="paint25_linear_6534_31988" x1="116" y1="50.8691" x2="128.565" y2="60.5345" gradientUnits="userSpaceOnUse">
<stop stop-color="#008EE6"/>
<stop offset="1" stop-color="#006094"/>
</linearGradient>
<linearGradient id="paint26_linear_6534_31988" x1="116" y1="50.8691" x2="128.565" y2="60.5345" gradientUnits="userSpaceOnUse">
<stop stop-color="#008EE6"/>
<stop offset="1" stop-color="#006094"/>
</linearGradient>
</defs>
</svg>
