<?xml version="1.0" encoding="utf-8"?><svg xmlns="http://www.w3.org/2000/svg" xmlns:xlink="http://www.w3.org/1999/xlink"><symbol viewBox="0 0 17 16" fill="none" id="added" xmlns="http://www.w3.org/2000/svg">
<path d="M16.5 8C16.5 12.4183 12.9183 16 8.5 16C4.08172 16 0.5 12.4183 0.5 8C0.5 3.58172 4.08172 0 8.5 0C12.9183 0 16.5 3.58172 16.5 8ZM4.5 8C4.5 8.27614 4.72386 8.5 5 8.5H8V11.5C8 11.7761 8.22386 12 8.5 12C8.77614 12 9 11.7761 9 11.5V8.5H12C12.2761 8.5 12.5 8.27614 12.5 8C12.5 7.72386 12.2761 7.5 12 7.5H9V4.5C9 4.22386 8.77614 4 8.5 4C8.22386 4 8 4.22386 8 4.5V7.5H5C4.72386 7.5 4.5 7.72386 4.5 8Z" fill="#4DA64D"/>
</symbol><symbol viewBox="0 0 20 20" id="arrow_swap_20_regular" xmlns="http://www.w3.org/2000/svg">
<g id="abArrow Swap">
<path id="abShape" d="M12.1464 3.14645C12.3417 2.95118 12.6583 2.95118 12.8536 3.14645L15.8536 6.14645C16.0488 6.34171 16.0488 6.65829 15.8536 6.85355L12.8536 9.85355C12.6583 10.0488 12.3417 10.0488 12.1464 9.85355C11.9512 9.65829 11.9512 9.34171 12.1464 9.14645L14.2929 7H4.5C4.22386 7 4 6.77614 4 6.5C4 6.22386 4.22386 6 4.5 6H14.2929L12.1464 3.85355C11.9512 3.65829 11.9512 3.34171 12.1464 3.14645ZM7.85355 10.1464C8.04882 10.3417 8.04882 10.6583 7.85355 10.8536L5.70711 13H15.5C15.7761 13 16 13.2239 16 13.5C16 13.7761 15.7761 14 15.5 14H5.70711L7.85355 16.1464C8.04882 16.3417 8.04882 16.6583 7.85355 16.8536C7.65829 17.0488 7.34171 17.0488 7.14645 16.8536L4.14645 13.8536C3.95118 13.6583 3.95118 13.3417 4.14645 13.1464L7.14645 10.1464C7.34171 9.95118 7.65829 9.95118 7.85355 10.1464Z" fill="currentColor"/>
</g>
</symbol><symbol viewBox="0 0 24 24" id="arrow_swap_24_filled" xmlns="http://www.w3.org/2000/svg">
  <path d="M15.2074 2.29057L19.2074 6.28634C19.5681 6.6466 19.5961 7.21375 19.2914 7.60621L19.2082 7.70046L15.2082 11.7057C14.818 12.0965 14.1848 12.0969 13.794 11.7066C13.4333 11.3464 13.4052 10.7792 13.71 10.3867L13.7931 10.2924L16.0837 7.99905L5.5 7.99906C4.98716 7.99906 4.56449 7.61302 4.50673 7.11568L4.5 6.99906C4.5 6.48622 4.88604 6.06355 5.38338 6.00579L5.5 5.99906L16.0907 5.99905L13.7939 3.70553C13.4333 3.34523 13.4052 2.77802 13.7101 2.38557L13.7932 2.29131C14.1535 1.93064 14.7207 1.90261 15.1132 2.20743L15.2074 2.29057L19.2074 6.28634L15.2074 2.29057ZM19.4907 16.8824L19.4975 16.9991C19.4975 17.5119 19.1114 17.9346 18.6141 17.9923L18.4975 17.9991L7.91368 17.999L10.2075 20.2916C10.5681 20.6519 10.5961 21.2192 10.2913 21.6116L10.2081 21.7058C9.8478 22.0665 9.28058 22.0945 8.88815 21.7896L8.7939 21.7065L4.7939 17.7103C4.43325 17.3499 4.40525 16.7827 4.71009 16.3903L4.79324 16.296L8.79324 12.2923C9.18358 11.9016 9.81674 11.9013 10.2075 12.2916C10.5681 12.6519 10.5961 13.2192 10.2913 13.6116L10.2081 13.7058L7.91768 15.999L18.4975 15.9991C19.0103 15.9991 19.433 16.3851 19.4907 16.8824L19.4975 16.9991L19.4907 16.8824Z" fill="currentColor"/>
</symbol><symbol viewBox="0 0 16 16" id="azuredevops_logo_16_regular" xmlns="http://www.w3.org/2000/svg">
<path d="M16.9536 2.91406V12.7109L12.9067 16L6.66455 13.7109V16L3.24268 11.4297L13.5239 12.2188V3.42969L16.9536 2.91406ZM3.24268 5.55469V11.4297L0.953613 10.4531V5.85156L2.51611 3.8125L7.81299 2.28906V0L13.5239 3.42969L3.24268 5.55469Z" fill="currentColor"/>
</symbol><symbol viewBox="0 0 20 20" fill="none" id="branch_20_regular" xmlns="http://www.w3.org/2000/svg">
<path d="M9 5C9 6.35983 8.09526 7.50835 6.85489 7.87644C7.03272 8.09859 7.27094 8.35932 7.57551 8.62037C8.30085 9.24209 9.4085 9.87197 11.0001 9.98283C11.0093 8.33388 12.3489 7 14 7C15.6569 7 17 8.34315 17 10C17 11.6569 15.6569 13 14 13C12.6913 13 11.5784 12.1621 11.1684 10.9934C9.2079 10.9153 7.82571 10.1519 6.92471 9.37963C6.76873 9.24593 6.62737 9.11218 6.5 8.98193V12.0415C7.91886 12.2795 9 13.5135 9 15C9 16.6569 7.65685 18 6 18C4.34315 18 3 16.6569 3 15C3 13.5135 4.08114 12.2795 5.5 12.0415V7.95852C4.08114 7.72048 3 6.4865 3 5C3 3.34315 4.34315 2 6 2C7.65685 2 9 3.34315 9 5ZM6.00903 6.99998C7.10944 6.99512 8 6.10156 8 5C8 3.89543 7.10457 3 6 3C4.89543 3 4 3.89543 4 5C4 6.10141 4.89031 6.99487 5.99053 6.99998C5.9967 6.99986 6.00287 6.99987 6.00903 6.99998ZM16 10C16 8.89543 15.1046 8 14 8C12.8954 8 12 8.89543 12 10C12 11.1046 12.8954 12 14 12C15.1046 12 16 11.1046 16 10ZM6 17C7.10457 17 8 16.1046 8 15C8 13.8954 7.10457 13 6 13C4.89543 13 4 13.8954 4 15C4 16.1046 4.89543 17 6 17Z" fill="black"/>
</symbol><symbol viewBox="0 0 20 20" id="branch_fork_20_regular" xmlns="http://www.w3.org/2000/svg">
<g id="afBranch Fork">
<path id="afShape" d="M9 5C9 3.34315 7.65685 2 6 2C4.34315 2 3 3.34315 3 5C3 6.4865 4.08114 7.72048 5.5 7.95852V12.0415C4.08114 12.2795 3 13.5135 3 15C3 16.6569 4.34315 18 6 18C7.65685 18 9 16.6569 9 15C9 13.5135 7.91886 12.2795 6.5 12.0415V11H12C13.3807 11 14.5 9.88071 14.5 8.5V7.95852C15.9189 7.72048 17 6.4865 17 5C17 3.34315 15.6569 2 14 2C12.3431 2 11 3.34315 11 5C11 6.4865 12.0811 7.72048 13.5 7.95852V8.5C13.5 9.32843 12.8284 10 12 10H6.5V7.95852C7.91886 7.72048 9 6.4865 9 5ZM6 7C4.89543 7 4 6.10457 4 5C4 3.89543 4.89543 3 6 3C7.10457 3 8 3.89543 8 5C8 6.10457 7.10457 7 6 7ZM6 17C4.89543 17 4 16.1046 4 15C4 13.8954 4.89543 13 6 13C7.10457 13 8 13.8954 8 15C8 16.1046 7.10457 17 6 17ZM16 5C16 6.10457 15.1046 7 14 7C12.8954 7 12 6.10457 12 5C12 3.89543 12.8954 3 14 3C15.1046 3 16 3.89543 16 5Z" fill="currentColor"/>
</g>
</symbol><symbol viewBox="0 0 24 24" fill="none" id="branch_fork_24_filled" xmlns="http://www.w3.org/2000/svg">
  <path d="M11 5.5C11 7.26324 9.69615 8.72194 8 8.96456V11.5H14.25C15.4926 11.5 16.5 10.4926 16.5 9.25V8.85506C15.0543 8.42479 14 7.08551 14 5.5C14 3.567 15.567 2 17.5 2C19.433 2 21 3.567 21 5.5C21 7.26324 19.6961 8.72194 18 8.96456V9.25C18 11.3211 16.3211 13 14.25 13H8V15.0354C9.69615 15.2781 11 16.7368 11 18.5C11 20.433 9.433 22 7.5 22C5.567 22 4 20.433 4 18.5C4 16.9145 5.05426 15.5752 6.5 15.1449V8.85506C5.05426 8.42479 4 7.08551 4 5.5C4 3.567 5.567 2 7.5 2C9.433 2 11 3.567 11 5.5Z" fill="currentColor"/>
</symbol><symbol viewBox="0 0 24 24" fill="none" id="branch_fork_24_regular" xmlns="http://www.w3.org/2000/svg">
  <path d="M11 5.5C11 7.26324 9.69615 8.72194 8 8.96456V11.5H14.25C15.4926 11.5 16.5 10.4926 16.5 9.25V8.85506C15.0543 8.42479 14 7.08551 14 5.5C14 3.567 15.567 2 17.5 2C19.433 2 21 3.567 21 5.5C21 7.26324 19.6961 8.72194 18 8.96456V9.25C18 11.3211 16.3211 13 14.25 13H8V15.0354C9.69615 15.2781 11 16.7368 11 18.5C11 20.433 9.433 22 7.5 22C5.567 22 4 20.433 4 18.5C4 16.9145 5.05426 15.5752 6.5 15.1449V8.85506C5.05426 8.42479 4 7.08551 4 5.5C4 3.567 5.567 2 7.5 2C9.433 2 11 3.567 11 5.5ZM7.5 7.5C8.60457 7.5 9.5 6.60457 9.5 5.5C9.5 4.39543 8.60457 3.5 7.5 3.5C6.39543 3.5 5.5 4.39543 5.5 5.5C5.5 6.60457 6.39543 7.5 7.5 7.5ZM17.5 7.5C18.6046 7.5 19.5 6.60457 19.5 5.5C19.5 4.39543 18.6046 3.5 17.5 3.5C16.3954 3.5 15.5 4.39543 15.5 5.5C15.5 6.60457 16.3954 7.5 17.5 7.5ZM9.5 18.5C9.5 17.3954 8.60457 16.5 7.5 16.5C6.39543 16.5 5.5 17.3954 5.5 18.5C5.5 19.6046 6.39543 20.5 7.5 20.5C8.60457 20.5 9.5 19.6046 9.5 18.5Z" fill="currentColor"/>
</symbol><symbol viewBox="0 0 8 8" fill="none" id="bullet_dot_8" xmlns="http://www.w3.org/2000/svg">
<path d="M0 4C0 1.79086 1.79086 0 4 0C6.20914 0 8 1.79086 8 4C8 6.20914 6.20914 8 4 8C1.79086 8 0 6.20914 0 4Z" fill="#424242"/>
</symbol><symbol viewBox="0 0 7 16" fill="currentcolor" id="commit" xmlns="http://www.w3.org/2000/svg">
<path d="M3.5 0C3.77614 0 4 0.223858 4 0.5V4.03544C5.69615 4.27806 7 5.73676 7 7.5C7 9.26324 5.69615 10.7219 4 10.9646V15.5C4 15.7761 3.77614 16 3.5 16C3.22386 16 3 15.7761 3 15.5V10.9646C1.30385 10.7219 0 9.26324 0 7.5C0 5.73676 1.30385 4.27806 3 4.03544V0.5C3 0.223858 3.22386 0 3.5 0ZM6 7.5C6 6.11929 4.88071 5 3.5 5C2.11929 5 1 6.11929 1 7.5C1 8.88071 2.11929 10 3.5 10C4.88071 10 6 8.88071 6 7.5Z"/>
</symbol><symbol viewBox="0 0 16 16" fill="none" id="conflict" xmlns="http://www.w3.org/2000/svg">
<path d="M8 0C12.4183 0 16 3.58172 16 8C16 12.4183 12.4183 16 8 16C3.58172 16 0 12.4183 0 8C0 3.58172 3.58172 0 8 0ZM5.80943 5.11372C5.61456 4.97872 5.34514 4.99801 5.17157 5.17157L5.11372 5.24082C4.97872 5.43569 4.99801 5.70511 5.17157 5.87868L7.29289 8L5.17157 10.1213L5.11372 10.1906C4.97872 10.3854 4.99801 10.6549 5.17157 10.8284L5.24082 10.8863C5.43569 11.0213 5.70511 11.002 5.87868 10.8284L8 8.70711L10.1213 10.8284L10.1906 10.8863C10.3854 11.0213 10.6549 11.002 10.8284 10.8284L10.8863 10.7592C11.0213 10.5643 11.002 10.2949 10.8284 10.1213L8.70711 8L10.8284 5.87868L10.8863 5.80943C11.0213 5.61456 11.002 5.34514 10.8284 5.17157L10.7592 5.11372C10.5643 4.97872 10.2949 4.99801 10.1213 5.17157L8 7.29289L5.87868 5.17157L5.80943 5.11372Z" fill="#BC2F32"/>
</symbol><symbol viewBox="0 0 2048 2048" id="connected" xmlns="http://www.w3.org/2000/svg">
  <path d="M1920 1600v7q0 65-26 122t-70 99-102 67-122 25q-64 0-122-24t-102-67-70-100-26-122q0-51 12-95t41-88l-132-133q-40 26-84 39t-93 14q-48 0-92-13t-85-40l-132 132q28 44 40 88t13 96q0 65-26 122t-70 99-102 67-122 25q-67 0-125-25t-101-68-69-102-25-125q0-64 24-122t67-102 100-70 122-26q51 0 95 12t89 41l132-132q-26-40-39-84t-14-93q0-48 13-92t40-85L625 715q-44 28-88 40t-96 13q-65 0-122-26t-99-70-67-102-25-122q0-67 25-125t68-101 102-69 125-25q64 0 122 24t102 67 70 100 26 122q0 51-12 95t-41 89l132 132q40-26 84-39t93-14q48 0 92 13t85 40l132-133q-28-44-40-88t-13-95q0-65 26-122t70-99 102-67 122-25q67 0 125 25t101 68 69 102 25 125q0 64-24 122t-67 102-100 70-122 26q-51 0-95-12t-88-41l-133 132q26 40 39 84t14 93q0 96-53 176l133 133q43-28 87-40t96-13q65 0 122 26t99 70 67 102 25 122zM640 448q0-39-15-74t-41-61-62-42-74-15q-39 0-74 15t-61 41-42 62-15 74q0 39 15 74t41 61 62 42 74 15q39 0 74-15t61-41 42-62 15-74zm768 0q0 39 15 74t41 61 62 42 74 15q39 0 74-15t61-41 42-62 15-74q0-39-15-74t-41-61-62-42-74-15q-39 0-74 15t-61 41-42 62-15 74zm-192 576q0-39-15-74t-41-61-62-42-74-15q-39 0-74 15t-61 41-42 62-15 74q0 39 15 74t41 61 62 42 74 15q39 0 74-15t61-41 42-62 15-74zm-576 576q0-39-15-74t-41-61-62-42-74-15q-39 0-74 15t-61 41-42 62-15 74q0 39 15 74t41 61 62 42 74 15q39 0 74-15t61-41 42-62 15-74zm1152 0q0-39-15-74t-41-61-62-42-74-15q-39 0-74 15t-61 41-42 62-15 74q0 39 15 74t41 61 62 42 74 15q39 0 74-15t61-41 42-62 15-74z"/>
</symbol><symbol viewBox="0 0 17 16" fill="none" id="deleted" xmlns="http://www.w3.org/2000/svg">
<path d="M16.5 8C16.5 12.4183 12.9183 16 8.5 16C4.08172 16 0.5 12.4183 0.5 8C0.5 3.58172 4.08172 0 8.5 0C12.9183 0 16.5 3.58172 16.5 8ZM4.5 8C4.5 8.27614 4.72386 8.5 5 8.5C9.51621 8.5 7.79954 8.5 12 8.5C12.2761 8.5 12.5 8.27614 12.5 8C12.5 7.72386 12.2761 7.5 12 7.5C7.79954 7.5 9.51621 7.5 5 7.5C4.72386 7.5 4.5 7.72386 4.5 8Z" fill="#C43501"/>
</symbol><symbol viewBox="0 0 2048 2048" id="git_logo" xmlns="http://www.w3.org/2000/svg">
  <path d="M1024 0q25 0 49 11t42 28l894 894q20 20 29 45t10 52q0 26-11 49t-28 40l-890 890q-39 39-95 39-25 0-49-11t-42-28L39 1115q-17-17-28-41t-11-50q0-26 10-51t29-44l613-613 232 232q-12 29-12 61 0 64 46 110l8 8q2 2 5 3t6 1 10 4v567q-12 5-20 14t-18 18q-26 26-41 55t-15 67q0 34 13 63t35 52 52 35 64 13q34 0 65-11t53-31 36-50 14-65q0-22-6-44t-18-41-28-36-35-27V763l212 212q-12 29-12 60 0 33 12 61t34 50 49 33 62 13q33 0 61-12t50-34 33-49 13-62q0-32-12-60t-34-50-49-34-61-13q-27 0-52 9l-227-227q9-25 9-52 0-33-12-61t-34-50-49-33-62-12q-24 0-50 8L743 224 929 39q39-39 95-39z"/>
</symbol><symbol viewBox="0 0 2048 2048" id="github_logo" xmlns="http://www.w3.org/2000/svg">
  <path d="M1024 25q141 0 272 36t244 104 207 160 161 207 103 245 37 272q0 165-50 318t-143 281-221 224-286 149q-3 1-9 1t-9 1q-23 0-37-13t-15-38v-140q0-69 1-141 0-51-15-103t-54-87q117-13 205-48t146-97 87-150 29-210q0-78-25-148t-80-127q11-28 16-58t5-60q0-39-8-77t-23-76q-3-2-6-2t-7 0q-35 0-71 9t-70 25-67 34-61 39q-126-35-256-35t-256 35q-29-19-61-38t-67-34-70-25-71-10h-6q-3 0-7 2-14 37-22 75t-9 78q0 30 5 60t16 58q-54 57-79 127t-26 148q0 120 29 209t87 150 145 98 205 49q-29 26-44 62t-21 75q-27 13-57 20t-60 7q-47 0-79-16t-56-40-45-53-42-52-49-41-67-16h-12q-8 0-15 3t-14 6-6 10q0 14 15 24t25 19q24 18 40 34t28 33 22 36 24 47q38 79 96 114t146 35q26 0 52-3t52-9v174q0 24-14 38t-39 14q-9 0-17-2-157-52-286-148t-221-224-142-281-51-319q0-141 36-272t104-244 160-207 207-161T752 62t272-37z"/>
</symbol><symbol viewBox="0 0 15 14" fill="none" id="log_out_16_regular" xmlns="http://www.w3.org/2000/svg">
<path d="M5.5 8.25C5.91421 8.25 6.25 7.91422 6.25 7.5C6.25 7.08579 5.91421 6.75 5.5 6.75C5.08579 6.75 4.75 7.08579 4.75 7.5C4.75 7.91422 5.08579 8.25 5.5 8.25ZM8 0.500004C8 0.354204 7.93636 0.215666 7.82575 0.120678C7.71514 0.0256898 7.56857 -0.0162863 7.42445 0.00574443L0.424449 1.07574C0.180316 1.11306 0 1.32303 0 1.57V12.43C0 12.6769 0.180277 12.8869 0.424378 12.9243L7.42438 13.9953C7.56851 14.0173 7.71509 13.9754 7.82572 13.8804C7.93635 13.7854 8 13.6468 8 13.501V7.00002L13.1722 7.00002L12.1753 7.87372C11.9679 8.05556 11.9468 8.37144 12.1284 8.57926C12.3099 8.78708 12.6253 8.80814 12.8328 8.6263L14.8295 6.8763C14.9379 6.78135 15 6.64419 15 6.50001C15 6.35583 14.9379 6.21867 14.8295 6.12372L12.8328 4.37372C12.6253 4.19188 12.3099 4.21294 12.1284 4.42076C11.9468 4.62858 11.9679 4.94446 12.1753 5.1263L13.1723 6.00002L8 6.00002V0.500004ZM7 1.08224V12.9187L1 12.0007V1.99938L7 1.08224ZM9.5 13H9V8H10V12.5C10 12.7761 9.77614 13 9.5 13ZM9 5V1H9.5C9.77614 1 10 1.22386 10 1.5V5H9Z" fill="#242424"/>
</symbol><symbol viewBox="0 0 16 17" fill="none" id="modified" xmlns="http://www.w3.org/2000/svg">
<path d="M16 8.5C16 4.08172 12.4183 0.5 8 0.5C3.58172 0.5 0 4.08172 0 8.5C0 12.9183 3.58172 16.5 8 16.5C12.4183 16.5 16 12.9183 16 8.5ZM4.15627 4.65621C4.35153 4.46095 4.66811 4.46095 4.86338 4.65621L11.8673 11.66C12.0625 11.8553 12.0625 12.1718 11.8673 12.3671C11.672 12.5624 11.3554 12.5624 11.1602 12.3671L9.29289 10.4998H4C3.72386 10.4998 3.5 10.2759 3.5 9.99979C3.5 9.72364 3.72386 9.49979 4 9.49979H8.29289L6.29289 7.49979H4C3.72386 7.49979 3.5 7.27593 3.5 6.99979C3.5 6.72365 3.72386 6.49979 4 6.49979H5.29289L4.15627 5.36332C3.96101 5.16806 3.96101 4.85147 4.15627 4.65621ZM12.1092 10.4878L11.1212 9.49979H12C12.2761 9.49979 12.5 9.72364 12.5 9.99979C12.5 10.2384 12.3328 10.438 12.1092 10.4878ZM9.12121 7.49979L8.12121 6.49979H12C12.2761 6.49979 12.5 6.72365 12.5 6.99979C12.5 7.27593 12.2761 7.49979 12 7.49979H9.12121Z" fill="#817400"/>
</symbol><symbol viewBox="0 0 20 20" fill="currentColor" id="person_20_regular" xmlns="http://www.w3.org/2000/svg">
<g id="arPerson">
<path id="arShape" d="M10 2.9375C7.79086 2.9375 6 4.72836 6 6.9375C6 9.14664 7.79086 10.9375 10 10.9375C12.2091 10.9375 14 9.14664 14 6.9375C14 4.72836 12.2091 2.9375 10 2.9375ZM7 6.9375C7 5.28065 8.34315 3.9375 10 3.9375C11.6569 3.9375 13 5.28065 13 6.9375C13 8.59435 11.6569 9.9375 10 9.9375C8.34315 9.9375 7 8.59435 7 6.9375ZM5.00873 11.9375C3.90315 11.9375 3 12.8244 3 13.9375C3 15.6287 3.83281 16.9038 5.13499 17.7341C6.41697 18.5515 8.14526 18.9375 10 18.9375C11.8547 18.9375 13.583 18.5515 14.865 17.7341C16.1672 16.9038 17 15.6287 17 13.9375C17 12.8331 16.1045 11.9375 15 11.9375L5.00873 11.9375ZM4 13.9375C4 13.3842 4.44786 12.9375 5.00873 12.9375L15 12.9375C15.5522 12.9375 16 13.3853 16 13.9375C16 15.2463 15.3777 16.2212 14.3274 16.8909C13.2568 17.5735 11.7351 17.9375 10 17.9375C8.26489 17.9375 6.74318 17.5735 5.67262 16.8909C4.62226 16.2212 4 15.2463 4 13.9375Z"/>
</g>
</symbol><symbol viewBox="0 0 7 6" fill="none" id="red_dot" xmlns="http://www.w3.org/2000/svg">
<path d="M6.5 3C6.5 4.65685 5.15685 6 3.5 6C1.84315 6 0.5 4.65685 0.5 3C0.5 1.34315 1.84315 0 3.5 0C5.15685 0 6.5 1.34315 6.5 3Z" fill="#BC2F32"/>
</symbol><symbol viewBox="0 0 16 16" fill="none" id="same" xmlns="http://www.w3.org/2000/svg">
<path d="M8 0C12.4183 1.93129e-07 16 3.58172 16 8C16 12.4183 12.4183 16 8 16C3.58172 16 -1.93129e-07 12.4183 0 8C1.93129e-07 3.58172 3.58172 -1.93129e-07 8 0ZM11.5 7C11.7761 7 12 6.77614 12 6.5C12 6.22386 11.7761 6 11.5 6H4.5C4.22386 6 4 6.22386 4 6.5C4 6.77614 4.22386 7 4.5 7H11.5ZM11.5 10C11.7761 10 12 9.77614 12 9.5C12 9.22386 11.7761 9 11.5 9H4.5C4.22386 9 4 9.22386 4 9.5C4 9.77614 4.22386 10 4.5 10H11.5Z" fill="#242424"/>
</symbol><symbol viewBox="0 0 18 15" fill="none" id="same_changes" xmlns="http://www.w3.org/2000/svg">
<path d="M7.68149 0.785435C8.24892 -0.261875 9.75196 -0.261795 10.3193 0.785573L16.8198 12.7865C17.3612 13.786 16.6375 15.0009 15.5009 15.0009H2.4982C1.36147 15.0009 0.637828 13.7858 1.17934 12.7864L7.68149 0.785435ZM9.5 5.5C9.5 5.22386 9.27614 5 9 5C8.72386 5 8.5 5.22386 8.5 5.5V9.5C8.5 9.77614 8.72386 10 9 10C9.27614 10 9.5 9.77614 9.5 9.5V5.5ZM9.75 11.75C9.75 11.3358 9.41421 11 9 11C8.58579 11 8.25 11.3358 8.25 11.75C8.25 12.1642 8.58579 12.5 9 12.5C9.41421 12.5 9.75 12.1642 9.75 11.75Z" fill="#817400"/>
</symbol><symbol viewBox="0 0 2048 2048" id="sync_occurence_cancel_16_regular" xmlns="http://www.w3.org/2000/svg">
  <path d="M1024 256q-138 0-263 46T536 431 366 628t-96 249l-126-25q31-157 112-290t198-229 264-151 306-54q117 0 229 30t211 87 183 136 145 181V256h128v512h-512V640h281q-51-88-123-159t-158-121-184-77-200-27zm360 1444l27 28-158 159q-57 14-114 23t-115 10q-118 0-230-30t-211-86-183-136-144-182v306H128v-512h512v128H359q51 89 123 160t158 121 183 76 201 27q95 0 185-23t175-69zm661-198l-226 226 226 227-90 90-227-226-227 227-90-91 227-227-227-227 90-90 227 227 227-227 90 91z"/>
</symbol><symbol viewBox="0 0 16 16" fill="none" id="synced" xmlns="http://www.w3.org/2000/svg">
<path d="M8 0C12.4183 0 16 3.58172 16 8C16 12.4183 12.4183 16 8 16C3.58172 16 0 12.4183 0 8C0 3.58172 3.58172 0 8 0ZM11.3584 5.64645C11.1849 5.47288 10.9154 5.4536 10.7206 5.58859L10.6513 5.64645L7 9.298L5.35355 7.65131L5.28431 7.59346C5.08944 7.45846 4.82001 7.47775 4.64645 7.65131C4.47288 7.82488 4.4536 8.09431 4.58859 8.28917L4.64645 8.35842L6.64645 10.3584L6.71569 10.4163C6.8862 10.5344 7.1138 10.5344 7.28431 10.4163L7.35355 10.3584L11.3584 6.35355L11.4163 6.28431C11.5513 6.08944 11.532 5.82001 11.3584 5.64645Z" fill="#0E700E"/>
</symbol><symbol viewBox="0 0 16 16" fill="currentColor" id="uncommitted" xmlns="http://www.w3.org/2000/svg">
<path d="M9.5 8C9.5 7.17157 8.82843 6.5 8 6.5C7.17157 6.5 6.5 7.17157 6.5 8C6.5 8.82843 7.17157 9.5 8 9.5C8.82843 9.5 9.5 8.82843 9.5 8Z"/>
<path d="M16 8C16 3.58172 12.4183 0 8 0C3.58172 0 0 3.58172 0 8C0 12.4183 3.58172 16 8 16C12.4183 16 16 12.4183 16 8ZM8.5 3.5V5.5C8.5 5.51671 8.49918 5.53323 8.49758 5.54952C9.6399 5.78022 10.5 6.78967 10.5 8C10.5 9.21033 9.6399 10.2198 8.49758 10.4505C8.49918 10.4668 8.5 10.4833 8.5 10.5V12.5C8.5 12.7761 8.27614 13 8 13C7.72386 13 7.5 12.7761 7.5 12.5V10.5C7.5 10.4833 7.50082 10.4668 7.50242 10.4505C6.3601 10.2198 5.5 9.21033 5.5 8C5.5 6.78967 6.3601 5.78022 7.50242 5.54952C7.50082 5.53323 7.5 5.51671 7.5 5.5V3.5C7.5 3.22386 7.72386 3 8 3C8.27614 3 8.5 3.22386 8.5 3.5Z"/>
</symbol><symbol viewBox="0 0 14 16" fill="currentcolor" id="undo" xmlns="http://www.w3.org/2000/svg">
<path d="M1.5 0.500001C1.5 0.223858 1.27614 0 1 0C0.723858 0 0.5 0.223858 0.5 0.500001V5.4C0.5 5.73137 0.768628 6 1.1 6H6C6.27614 6 6.5 5.77614 6.5 5.5C6.5 5.22386 6.27614 5 6 5H2.40603L5.87872 1.98124C7.54598 0.531912 10.0725 0.708581 11.5218 2.37584C12.9711 4.0431 12.7945 6.56959 11.1272 8.01891L2.95529 15.1226C2.74688 15.3038 2.7248 15.6196 2.90596 15.828C3.08713 16.0364 3.40294 16.0585 3.61135 15.8774L11.7833 8.77362C13.8673 6.96197 14.0882 3.80385 12.2765 1.71978C10.4648 -0.364293 7.30673 -0.585129 5.22266 1.22653L1.5 4.46259V0.500001Z"/>
</symbol><symbol viewBox="0 0 16 16" fill="currentColor" id="unsupported" xmlns="http://www.w3.org/2000/svg">
<path d="M16 8C16 12.4183 12.4183 16 8 16C3.58172 16 0 12.4183 0 8C0 3.58172 3.58172 0 8 0C12.4183 0 16 3.58172 16 8ZM14.5 8C14.5 6.47531 13.975 5.07323 13.096 3.96465L3.96465 13.096C5.07323 13.975 6.47531 14.5 8 14.5C11.5899 14.5 14.5 11.5899 14.5 8ZM2.90399 12.0353L12.0353 2.90399C10.9268 2.02496 9.52469 1.5 8 1.5C4.41015 1.5 1.5 4.41015 1.5 8C1.5 9.52469 2.02496 10.9268 2.90399 12.0353Z"/>
</symbol><symbol viewBox="0 0 16 16" fill="currentColor" id="update" xmlns="http://www.w3.org/2000/svg">
<path d="M8 16C3.58172 16 0 12.4183 0 8C0 3.58172 3.58172 0 8 0C12.4183 0 16 3.58172 16 8C16 12.4183 12.4183 16 8 16ZM11.4999 8C11.776 8 11.9999 7.77614 11.9999 7.5V5.5C11.9999 5.22386 11.776 5 11.4999 5C11.2237 5 10.9999 5.22386 10.9999 5.5V6.19617C10.3877 5.18015 9.27374 4.5 8.00005 4.5C6.96342 4.5 6.03154 4.9513 5.39138 5.66654C5.20721 5.87231 5.22472 6.1884 5.43049 6.37257C5.63625 6.55673 5.95235 6.53922 6.13651 6.33346C6.59499 5.8212 7.25968 5.5 8.00005 5.5C9.02453 5.5 9.90617 6.11648 10.2922 7H9.49988C9.22374 7 8.99988 7.22386 8.99988 7.5C8.99988 7.77614 9.22374 8 9.49988 8H11.4999ZM4.00012 8.5V10.5C4.00012 10.7761 4.22398 11 4.50012 11C4.77626 11 5.00012 10.7761 5.00012 10.5V9.80366C5.61231 10.8198 6.7263 11.5 8.00005 11.5C9.03668 11.5 9.96857 11.0487 10.6087 10.3335C10.7929 10.1277 10.7754 9.8116 10.5696 9.62743C10.3639 9.44327 10.0478 9.46078 9.86359 9.66654C9.40511 10.1788 8.74042 10.5 8.00005 10.5C6.97557 10.5 6.09394 9.88352 5.70793 9H6.50012C6.77627 9 7.00012 8.77614 7.00012 8.5C7.00012 8.22386 6.77627 8 6.50012 8H4.50012C4.22398 8 4.00012 8.22386 4.00012 8.5Z"/>
</symbol><symbol viewBox="0 0 18 18" fill="currentColor" id="update_button" xmlns="http://www.w3.org/2000/svg">
<path d="M16.5 1.5H17.75V6.5H12.75V5.25H15.4941C15.1621 4.67708 14.765 4.15951 14.3027 3.69727C13.8405 3.23503 13.3262 2.84115 12.7598 2.51563C12.1934 2.1901 11.5944 1.93945 10.9629 1.76367C10.3314 1.58789 9.67708 1.5 9 1.5C8.10156 1.5 7.24544 1.64974 6.43164 1.94922C5.61784 2.2487 4.88542 2.66862 4.23438 3.20899C3.58333 3.74935 3.02995 4.39063 2.57422 5.13281C2.11849 5.875 1.80599 6.68555 1.63672 7.56445L0.40625 7.32031C0.536458 6.63672 0.741536 5.98893 1.02148 5.37695C1.30143 4.76497 1.64648 4.19857 2.05664 3.67774C2.4668 3.1569 2.92578 2.68164 3.43359 2.25195C3.94141 1.82227 4.49479 1.46419 5.09375 1.17773C5.69271 0.891276 6.31771 0.663412 6.96875 0.494141C7.61979 0.32487 8.29688 0.24349 9 0.25C9.76823 0.25 10.5169 0.347657 11.2461 0.542969C11.9753 0.738282 12.6621 1.02148 13.3066 1.39258C13.9512 1.76367 14.5469 2.20964 15.0938 2.73047C15.6406 3.2513 16.1094 3.83724 16.5 4.48828V1.5ZM9 16.5C9.89844 16.5 10.7546 16.3503 11.5684 16.0508C12.3822 15.7513 13.1146 15.3314 13.7656 14.791C14.4167 14.2507 14.9701 13.6126 15.4258 12.877C15.8815 12.1413 16.194 11.3307 16.3633 10.4453L17.584 10.6797C17.3887 11.7083 17.0273 12.6523 16.5 13.5117C15.9727 14.3711 15.3281 15.1165 14.5664 15.748C13.8047 16.3796 12.9486 16.8711 11.998 17.2227C11.0475 17.5742 10.0482 17.75 9 17.75C8.22526 17.75 7.47331 17.6523 6.74414 17.457C6.01497 17.2617 5.32487 16.9785 4.67383 16.6074C4.02279 16.2363 3.43034 15.7936 2.89648 15.2793C2.36263 14.765 1.89714 14.1758 1.5 13.5117V16.5H0.25V11.5H5.25V12.75H2.50586C2.83789 13.3294 3.23503 13.8503 3.69727 14.3125C4.15951 14.7747 4.67383 15.1654 5.24023 15.4844C5.80664 15.8034 6.40234 16.054 7.02734 16.2363C7.65234 16.4186 8.3099 16.5065 9 16.5Z"/>
</symbol></svg>