<svg role="img"
    xmlns="http://www.w3.org/2000/svg">
    <symbol id="visualQueryIcon" width="16" height="16" viewBox="0 0 16 16" fill="none">
        <path d="M10.711 0H2V9H3V1H10V5H14V15H11V16H15V4.289L10.711 0ZM11 4V1.711L13.289 4H11Z" fill="black" />
        <path d="M6 9.289L4 11.289V10H0V14H4V12.711L6 14.711V16H10V12H6V13.289L4.711 12L6 10.711V11H10V7H6V9.289ZM3 13H1V11H3V13ZM7 13H9V15H7V13ZM7 8H9V10H7V8Z" fill="black" />
    </symbol>
    <symbol id="sqlQueryIcon" width="16" height="16" viewBox="0 0 16 16" fill="none">
        <path d="M2 15H3V16H1V0H9.71094L14 4.28906V10H13V5H9V1H2V15ZM10 4H12.2891L10 1.71094V4ZM5.27344 12.1719C5.27344 12.3073 5.32292 12.4219 5.42188 12.5156C5.52083 12.6094 5.64583 12.7005 5.79688 12.7891C5.94792 12.8776 6.11198 12.9609 6.28906 13.0391C6.46615 13.1172 6.6276 13.2135 6.77344 13.3281C6.91927 13.4427 7.04427 13.5755 7.14844 13.7266C7.2526 13.8776 7.30469 14.0651 7.30469 14.2891C7.30469 14.5234 7.25781 14.7161 7.16406 14.8672C7.07031 15.0182 6.94271 15.1406 6.78125 15.2344C6.61979 15.3281 6.44531 15.3932 6.25781 15.4297C6.07031 15.4661 5.875 15.4844 5.67188 15.4844C5.59375 15.4844 5.5026 15.4792 5.39844 15.4688C5.29427 15.4583 5.1901 15.4453 5.08594 15.4297C4.98177 15.4141 4.8776 15.388 4.77344 15.3516C4.66927 15.3151 4.58594 15.2786 4.52344 15.2422V14.5C4.58594 14.5625 4.66406 14.6172 4.75781 14.6641C4.85156 14.7109 4.94792 14.7526 5.04688 14.7891C5.14583 14.8255 5.25 14.849 5.35938 14.8594C5.46875 14.8698 5.5651 14.8802 5.64844 14.8906C5.7474 14.8906 5.84896 14.8854 5.95312 14.875C6.05729 14.8646 6.15365 14.8359 6.24219 14.7891C6.33073 14.7422 6.40365 14.6823 6.46094 14.6094C6.51823 14.5365 6.54688 14.4349 6.54688 14.3047C6.54688 14.1641 6.4974 14.0469 6.39844 13.9531C6.29948 13.8594 6.17448 13.7708 6.02344 13.6875C5.8724 13.6042 5.70833 13.5234 5.53125 13.4453C5.35417 13.3672 5.19271 13.2708 5.04688 13.1562C4.90104 13.0417 4.77604 12.9115 4.67188 12.7656C4.56771 12.6198 4.51562 12.4297 4.51562 12.1953C4.51562 11.9818 4.5651 11.7995 4.66406 11.6484C4.76302 11.4974 4.89062 11.375 5.04688 11.2812C5.20312 11.1875 5.375 11.1172 5.5625 11.0703C5.75 11.0234 5.9375 11 6.125 11C6.28125 11 6.45052 11.0078 6.63281 11.0234C6.8151 11.0391 6.97656 11.0833 7.11719 11.1562V11.8672C6.98177 11.7682 6.83073 11.7005 6.66406 11.6641C6.4974 11.6276 6.33073 11.6068 6.16406 11.6016C6.07552 11.6016 5.97917 11.6094 5.875 11.625C5.77083 11.6406 5.67448 11.6719 5.58594 11.7188C5.4974 11.7656 5.42448 11.8229 5.36719 11.8906C5.3099 11.9583 5.27865 12.0521 5.27344 12.1719ZM11.9922 13.1875C11.9922 13.3698 11.9792 13.5495 11.9531 13.7266C11.9271 13.9036 11.8776 14.0729 11.8047 14.2344C11.7318 14.3958 11.6458 14.5521 11.5469 14.7031C11.4479 14.8542 11.3229 14.9844 11.1719 15.0938L12.4297 16H11.3359L10.5547 15.3984C10.4401 15.4245 10.3307 15.4453 10.2266 15.4609C10.1224 15.4766 10.0104 15.4844 9.89062 15.4844C9.56771 15.4844 9.27865 15.4297 9.02344 15.3203C8.76823 15.2109 8.54948 15.0599 8.36719 14.8672C8.1849 14.6745 8.04948 14.4427 7.96094 14.1719C7.8724 13.901 7.82552 13.6094 7.82031 13.2969C7.82031 12.9688 7.86719 12.6641 7.96094 12.3828C8.05469 12.1016 8.19271 11.8594 8.375 11.6562C8.55729 11.4531 8.78125 11.2917 9.04688 11.1719C9.3125 11.0521 9.61719 10.9948 9.96094 11C10.2786 11 10.5625 11.0573 10.8125 11.1719C11.0625 11.2865 11.276 11.4401 11.4531 11.6328C11.6302 11.8255 11.763 12.0573 11.8516 12.3281C11.9401 12.599 11.987 12.8854 11.9922 13.1875ZM9.89062 14.8594C10.1302 14.8594 10.3333 14.8177 10.5 14.7344C10.6667 14.651 10.8073 14.5339 10.9219 14.3828C11.0365 14.2318 11.1146 14.0625 11.1562 13.875C11.1979 13.6875 11.224 13.4818 11.2344 13.2578C11.2344 13.0495 11.2109 12.8464 11.1641 12.6484C11.1172 12.4505 11.0417 12.2786 10.9375 12.1328C10.8333 11.987 10.6979 11.8672 10.5312 11.7734C10.3646 11.6797 10.1615 11.6328 9.92188 11.6328C9.69271 11.6328 9.49479 11.6771 9.32812 11.7656C9.16146 11.8542 9.02344 11.9766 8.91406 12.1328C8.80469 12.2891 8.72135 12.4609 8.66406 12.6484C8.60677 12.8359 8.57812 13.0365 8.57812 13.25C8.57812 13.4531 8.60417 13.651 8.65625 13.8438C8.70833 14.0365 8.78646 14.2083 8.89062 14.3594C8.99479 14.5104 9.13021 14.6302 9.29688 14.7188C9.46354 14.8073 9.66146 14.8542 9.89062 14.8594ZM15.1953 14.8047V15.4141H12.7891V11.0703H13.5078V14.8047H15.1953Z" fill="black" />
    </symbol>
    <symbol id="modelIcon" width="20" height="20" viewBox="0 0 2048 2048">
        <path d="M2048 896h-896V384H512v256h384v896H512v256h640v-640h896v896h-896v-128H384v-384H0V640h384V256h768V0h896v896zm-768-768v128h640V128h-640zm0 256v384h640V384h-640zm0 896v128h640v-128h-640zm0 256v384h640v-384h-640zm-512-128v-384H128v384h640zm0-640H128v128h640V768z" />
    </symbol>
    <symbol id="tableIcon" width="20" height="20" viewBox="0 0 2048 2048">
        <path d="M128 256h1664v1536H128V256zm640 768v256h384v-256H768zm384-128V640H768v256h384zm-512 0V640H256v256h384zm-384 128v256h384v-256H256zm384 640v-256H256v256h384zm512 0v-256H768v256h384zm512 0v-256h-384v256h384zm0-384v-256h-384v256h384zm0-384V640h-384v256h384zM256 512h1408V384H256v128z" />
    </symbol>
    <symbol id="queryIcon" width="20" height="20" viewBox="0 0 2048 2048">
        <path d="M1920 805v1243H640v-384H128V0h859l384 384h128l421 421zm-384-37h165l-165-165v165zM640 384h549L933 128H256v1408h384V384zm1152 512h-384V512H768v1408h1024V896z" />
    </symbol>
    <symbol id="lakehouseEmpty" width="100" height="100" viewBox="0 0 100 100" fill="none">
        <circle cx="50" cy="50" r="50" fill="#BFBFBF" />
        <rect x="28" y="20" width="44" height="56" rx="2" fill="white" />
        <path fill-rule="evenodd" clip-rule="evenodd" d="M46.5 27C44.0147 27 42 29.0147 42 31.5V60C42 63.866 45.134 67 49 67C52.866 67 56 63.866 56 60V32.7347C56 32.1824 56.4477 31.7347 57 31.7347C57.5523 31.7347 58 32.1824 58 32.7347V60C58 64.9706 53.9706 69 49 69C44.0294 69 40 64.9706 40 60V31.5C40 27.9101 42.9101 25 46.5 25C50.0899 25 53 27.9101 53 31.5V60C53 62.2091 51.2091 64 49 64C46.7909 64 45 62.2091 45 60V43C45 42.4477 45.4477 42 46 42C46.5523 42 47 42.4477 47 43V60C47 61.1046 47.8954 62 49 62C50.1046 62 51 61.1046 51 60V31.5C51 29.0147 48.9853 27 46.5 27Z" fill="#BFBFBF" />
    </symbol>
    <symbol id="tridentSearchRegularIcon" width="16" height="16" viewBox="0 0 16 16" fill="none">
        <path d="M9.30887 10.016C8.53903 10.6318 7.56252 11 6.5 11C4.01472 11 2 8.98531 2 6.50002C2 4.01473 4.01472 2 6.5 2C8.98528 2 11 4.01473 11 6.50002C11 7.56252 10.6318 8.53901 10.016 9.30885L13.8536 13.1464C14.0488 13.3417 14.0488 13.6583 13.8536 13.8536C13.6583 14.0488 13.3417 14.0488 13.1464 13.8536L9.30887 10.016ZM10 6.50002C10 4.56701 8.433 3 6.5 3C4.567 3 3 4.56701 3 6.50002C3 8.43302 4.567 10 6.5 10C8.433 10 10 8.43302 10 6.50002Z" fill="#212121" />
    </symbol>
    <symbol id="tridentTableRegularIcon" width="14" height="14" viewBox="0 0 14 14" fill="none">
        <path d="M14 2.50012C14 1.11941 12.8807 0.00012207 11.5 0.00012207H2.5C1.11929 0.00012207 0 1.11941 0 2.50012V11.5001C0 12.8808 1.11929 14.0001 2.5 14.0001H11.5C12.8807 14.0001 14 12.8808 14 11.5001V2.50012ZM1 11.5001V10.0001H4V13.0001H2.5L2.35554 12.9933C1.59489 12.9206 1 12.2798 1 11.5001ZM9 10.0001V13.0001H5V10.0001H9ZM11.5 13.0001H10V10.0001H13V11.5001L12.9931 11.6446C12.9204 12.4052 12.2797 13.0001 11.5 13.0001ZM9 5.00012V9.00012H5V5.00012H9ZM10 5.00012H13V9.00012H10V5.00012ZM9 1.00012V4.00012H5V1.00012H9ZM10 1.00012H11.5L11.6445 1.00699C12.4051 1.07967 13 1.72043 13 2.50012V4.00012H10V1.00012ZM4 1.00012V4.00012H1V2.50012L1.00687 2.35566C1.07955 1.59501 1.7203 1.00012 2.5 1.00012H4ZM4 5.00012V9.00012H1V5.00012H4Z" fill="#424242"/>
    </symbol>
    <symbol id="tridentColumnRegularIcon" width="8" height="14" viewBox="0 0 8 14" fill="none">
        <path d="M6 0H2C1.46957 0 0.960858 0.210712 0.585785 0.585785C0.210712 0.960858 0 1.46957 0 2V12C0 12.5304 0.210712 13.0391 0.585785 13.4142C0.960858 13.7893 1.46957 14 2 14H6C6.53043 14 7.03914 13.7893 7.41422 13.4142C7.78929 13.0391 8 12.5304 8 12V2C8 1.46957 7.78929 0.960858 7.41422 0.585785C7.03914 0.210712 6.53043 0 6 0ZM2 1H6C6.26522 1 6.51957 1.10536 6.70711 1.29289C6.89464 1.48043 7 1.73478 7 2V3H1V2C1 1.73478 1.10536 1.48043 1.29289 1.29289C1.48043 1.10536 1.73478 1 2 1ZM6 13H2C1.73478 13 1.48043 12.8946 1.29289 12.7071C1.10536 12.5196 1 12.2652 1 12V4H7V12C7 12.2652 6.89464 12.5196 6.70711 12.7071C6.51957 12.8946 6.26522 13 6 13Z" fill="black"/>
    </symbol>
    <symbol id="tridentMeasureRegularIcon" width="12" height="16" viewBox="0 0 12 16" fill="none">
        <path d="M4 9C4 9.55228 3.55228 10 3 10C2.44772 10 2 9.55228 2 9C2 8.44772 2.44772 8 3 8C3.55228 8 4 8.44772 4 9ZM4 12C4 12.5523 3.55228 13 3 13C2.44772 13 2 12.5523 2 12C2 11.4477 2.44772 11 3 11C3.55228 11 4 11.4477 4 12ZM9 10C9.55228 10 10 9.55228 10 9C10 8.44772 9.55228 8 9 8C8.44772 8 8 8.44772 8 9C8 9.55228 8.44772 10 9 10ZM10 12C10 12.5523 9.55228 13 9 13C8.44772 13 8 12.5523 8 12C8 11.4477 8.44772 11 9 11C9.55228 11 10 11.4477 10 12ZM6 10C6.55228 10 7 9.55228 7 9C7 8.44772 6.55228 8 6 8C5.44772 8 5 8.44772 5 9C5 9.55228 5.44772 10 6 10ZM7 12C7 12.5523 6.55228 13 6 13C5.44772 13 5 12.5523 5 12C5 11.4477 5.44772 11 6 11C6.55228 11 7 11.4477 7 12ZM3.5 2C2.67157 2 2 2.67157 2 3.5V4.5C2 5.32843 2.67157 6 3.5 6H8.5C9.32843 6 10 5.32843 10 4.5V3.5C10 2.67157 9.32843 2 8.5 2H3.5ZM3 3.5C3 3.22386 3.22386 3 3.5 3H8.5C8.77614 3 9 3.22386 9 3.5V4.5C9 4.77614 8.77614 5 8.5 5H3.5C3.22386 5 3 4.77614 3 4.5V3.5ZM12 13.5C12 14.8807 10.8807 16 9.5 16H2.5C1.11929 16 0 14.8807 0 13.5V2.5C0 1.11929 1.11929 0 2.5 0H9.5C10.8807 0 12 1.11929 12 2.5V13.5ZM11 2.5C11 1.67157 10.3284 1 9.5 1H2.5C1.67157 1 1 1.67157 1 2.5V13.5C1 14.3284 1.67157 15 2.5 15H9.5C10.3284 15 11 14.3284 11 13.5V2.5Z" fill="#212121"/>
    </symbol>
    <symbol id="tridentSchemaRegularIcon" width="14" height="14" viewBox="0 0 14 14" fill="none">
        <path d="M9.875 0C10.4963 0 11 0.50368 11 1.125V3.875C11 4.49632 10.4963 5 9.875 5H8.8822L11.2822 9H12.875C13.4963 9 14 9.50368 14 10.125V12.875C14 13.4963 13.4963 14 12.875 14H9.125C8.50368 14 8 13.4963 8 12.875V10.125C8 9.50368 8.50368 9 9.125 9H10.116L7.71601 5H6.28211L3.88211 9H4.875C5.49632 9 6 9.50368 6 10.125V12.875C6 13.4963 5.49632 14 4.875 14H1.125C0.50368 14 0 13.4963 0 12.875V10.125C0 9.50368 0.50368 9 1.125 9H2.71592L5.11592 5H4.125C3.50368 5 3 4.49632 3 3.875V1.125C3 0.50368 3.50368 0 4.125 0H9.875ZM10 1.125C10 1.05596 9.94404 1 9.875 1H4.125C4.05596 1 4 1.05596 4 1.125V3.875C4 3.94404 4.05596 4 4.125 4H9.875C9.94404 4 10 3.94404 10 3.875V1.125ZM5 10.125C5 10.056 4.94404 10 4.875 10H1.125C1.05596 10 1 10.056 1 10.125V12.875C1 12.944 1.05596 13 1.125 13H4.875C4.94404 13 5 12.944 5 12.875V10.125ZM12.875 10H9.125C9.05596 10 9 10.056 9 10.125V12.875C9 12.944 9.05596 13 9.125 13H12.875C12.944 13 13 12.944 13 12.875V10.125C13 10.056 12.944 10 12.875 10Z" fill="#424242"/>
    </symbol>
    <symbol id="tridentFolderRegularIcon" width="16" height="14" viewBox="0 0 16 14" fill="none">
        <path d="M5.16667 0C5.43713 0 5.70151 0.073102 5.93238 0.210162L6.06667 0.3L7.667 1.5H13.5C14.7703 1.5 15.8192 2.44737 15.9789 3.67409L15.9947 3.83562L16 4V11.5C16 12.8255 14.9685 13.91 13.6644 13.9947L13.5 14H2.5C1.17452 14 0.0899613 12.9685 0.00531769 11.6644L0 11.5V2.5C0 1.17452 1.03154 0.0899613 2.33562 0.00531769L2.5 0H5.16667ZM6.15763 4.03449C5.90991 4.2946 5.57838 4.45592 5.22435 4.49219L5.07143 4.5L1 4.499V11.5C1 12.2797 1.59489 12.9204 2.35554 12.9931L2.5 13H13.5C14.2797 13 14.9204 12.4051 14.9931 11.6445L15 11.5V4C15 3.2203 14.4051 2.57955 13.6445 2.50687L13.5 2.5H7.617L6.15763 4.03449ZM5.16667 1H2.5C1.7203 1 1.07955 1.59489 1.00687 2.35554L1 2.5V3.499L5.07143 3.5C5.1809 3.5 5.28655 3.46411 5.37274 3.39902L5.4335 3.34483L6.694 2.021L5.46667 1.1C5.40176 1.05132 5.32632 1.01941 5.24701 1.0065L5.16667 1Z" fill="#424242"/>
    </symbol>
    <symbol id="tridentViewRegularIcon" width="16" height="16" viewBox="0 0 16 16" fill="none">
        <path d="M3.5 9C3.22386 9 3 9.22386 3 9.5C3 9.77614 3.22386 10 3.5 10H8.5C8.77614 10 9 9.77614 9 9.5C9 9.22386 8.77614 9 8.5 9H3.5Z" fill="black"/>
        <path d="M4 2C4 0.89543 4.89543 0 6 0H14C15.1046 0 16 0.895431 16 2V10C16 11.1046 15.1046 12 14 12H12V14C12 15.1046 11.1046 16 10 16H2C0.89543 16 0 15.1046 0 14V6C0 4.89543 0.895431 4 2 4H4V2ZM14 11C14.5523 11 15 10.5523 15 10V2C15 1.44772 14.5523 1 14 1H6C5.44772 1 5 1.44772 5 2V4H10C11.1046 4 12 4.89543 12 6V11H14ZM1 6V14C1 14.5523 1.44772 15 2 15H10C10.5523 15 11 14.5523 11 14V6C11 5.44772 10.5523 5 10 5H2C1.44772 5 1 5.44772 1 6Z" fill="black"/>
    </symbol>
    <symbol id="tridentStoredProcedureRegularIcon" width="14" height="14" viewBox="0 0 14 14" fill="none">
        <path d="M2 6.50012C2 6.22398 2.22386 6.00012 2.5 6.00012H11.5C11.7761 6.00012 12 6.22398 12 6.50012C12 6.77626 11.7761 7.00012 11.5 7.00012H2.5C2.22386 7.00012 2 6.77626 2 6.50012ZM2 8.50012C2 8.22398 2.22386 8.00012 2.5 8.00012H7.5C7.77614 8.00012 8 8.22398 8 8.50012C8 8.77626 7.77614 9.00012 7.5 9.00012H2.5C2.22386 9.00012 2 8.77626 2 8.50012ZM9 8.50012C9 8.22398 9.22386 8.00012 9.5 8.00012H11.5C11.7761 8.00012 12 8.22398 12 8.50012C12 8.77626 11.7761 9.00012 11.5 9.00012H9.5C9.22386 9.00012 9 8.77626 9 8.50012ZM6 10.5001C6 10.224 6.22386 10.0001 6.5 10.0001H11.5C11.7761 10.0001 12 10.224 12 10.5001C12 10.7763 11.7761 11.0001 11.5 11.0001H6.5C6.22386 11.0001 6 10.7763 6 10.5001ZM2 10.5001C2 10.224 2.22386 10.0001 2.5 10.0001H4.5C4.77614 10.0001 5 10.224 5 10.5001C5 10.7763 4.77614 11.0001 4.5 11.0001H2.5C2.22386 11.0001 2 10.7763 2 10.5001ZM0 3.00012C0 1.34327 1.34315 0.00012207 3 0.00012207H11C12.6569 0.00012207 14 1.34327 14 3.00012V11.0001C14 12.657 12.6569 14.0001 11 14.0001H3C1.34315 14.0001 0 12.657 0 11.0001V3.00012ZM3 1.00012C1.89543 1.00012 1 1.89555 1 3.00012L13 3.00012C13 1.89555 12.1046 1.00012 11 1.00012H3ZM13 4.00012H1V11.0001C1 12.1047 1.89543 13.0001 3 13.0001H11C12.1046 13.0001 13 12.1047 13 11.0001V4.00012Z" fill="#212121"/>
    </symbol>
    <symbol id= "tridentSQLQueryRegularIcon" width="14" height="17" viewBox="0 0 14 17" fill="none">
        <path d="M4 0.00012207C2.89543 0.00012207 2 0.895553 2 2.00012V9.98485C2.34377 9.99654 2.68138 10.0643 3 10.1839V2.00012C3 1.44784 3.44772 1.00012 4 1.00012H8V4.50012C8 5.32855 8.67157 6.00012 9.5 6.00012H13V14.0001C13 14.2557 12.9041 14.4888 12.7464 14.6656C12.9105 14.9107 13 15.2008 13 15.5001C13 15.5823 12.9932 15.6639 12.9801 15.7439C13.5888 15.4011 14 14.7486 14 14.0001V5.41434C14 5.01651 13.842 4.63498 13.5607 4.35368L9.64645 0.439462C9.36514 0.158157 8.98361 0.00012207 8.58579 0.00012207H4ZM12.7929 5.00012H9.5C9.22386 5.00012 9 4.77626 9 4.50012V1.20723L12.7929 5.00012Z" fill="#424242"/>
        <path d="M3.20561 11.4356C2.77553 11.1035 2.23584 10.9479 1.69629 10.9989C1.50378 10.9845 1.31008 11.0055 1.12482 11.061C0.920316 11.1222 0.730337 11.2243 0.566338 11.3609C0.402339 11.4976 0.267715 11.6661 0.170587 11.8562C0.0734577 12.0463 0.0158353 12.2541 0.00119259 12.467L1.52793e-05 12.4842V12.5013C1.52793e-05 13.079 0.364567 13.4366 0.692457 13.6364C0.999405 13.8235 1.35095 13.9225 1.54273 13.9765L1.56411 13.9825L1.62618 13.9999C1.82721 14.0562 2.01365 14.1084 2.16602 14.2013C2.3055 14.2864 2.35802 14.3673 2.35802 14.5013C2.35802 14.7564 2.27369 14.8424 2.20638 14.8884C2.10612 14.9568 1.93409 15.0013 1.70002 15.0013H1.67864L1.65734 15.0032C1.35389 15.0292 1.05224 14.9359 0.816407 14.7432C0.602582 14.5684 0.28759 14.6001 0.112851 14.814C-0.0618875 15.0278 -0.0302017 15.3428 0.183623 15.5175C0.615243 15.8702 1.16576 16.0432 1.72103 16.0013C2.04142 15.9989 2.43821 15.9409 2.77015 15.7143C3.14234 15.4603 3.35802 15.0463 3.35802 14.5013C3.35802 13.9194 3.02803 13.5558 2.68676 13.3476C2.40652 13.1767 2.08063 13.0874 1.89476 13.0364L1.83592 13.0202C1.62901 12.9617 1.39583 12.894 1.21282 12.7825C1.04915 12.6828 1.00504 12.5999 1.00044 12.5169C1.00771 12.4452 1.02826 12.3754 1.06109 12.3111C1.09678 12.2413 1.14626 12.1794 1.20652 12.1292C1.26679 12.0789 1.33661 12.0414 1.41176 12.0189C1.48691 11.9964 1.56584 11.9894 1.6438 11.9982L1.70206 12.0048L1.76028 11.9977C2.05767 11.9616 2.35732 12.044 2.59442 12.2271C2.81299 12.3959 3.12699 12.3555 3.29576 12.1369C3.46453 11.9184 3.42417 11.6044 3.20561 11.4356Z" fill="#424242"/>
        <path d="M6 11.0001C5.46957 11.0001 4.96086 11.2108 4.58579 11.5859C4.21071 11.961 4 12.4697 4 13.0001V14.0001C4 14.5306 4.21071 15.0393 4.58579 15.4143C4.96086 15.7894 5.46957 16.0001 6 16.0001C6.4562 16.0001 6.89633 15.8443 7.24919 15.562L7.70003 15.9002C7.92094 16.0658 8.23434 16.0211 8.40003 15.8002C8.56571 15.5792 8.52094 15.2658 8.30003 15.1002L7.84919 14.762C7.94783 14.5226 8 14.2641 8 14.0001V13.0001C8 12.4697 7.78929 11.961 7.41421 11.5859C7.03914 11.2108 6.53043 11.0001 6 11.0001ZM6.30003 13.6002C6.07911 13.4345 5.76571 13.4792 5.60003 13.7002C5.43434 13.9211 5.47912 14.2345 5.70003 14.4002L6.39281 14.9197C6.26982 14.9723 6.13634 15.0001 6 15.0001C5.73478 15.0001 5.48043 14.8948 5.29289 14.7072C5.10536 14.5197 5 14.2653 5 14.0001V13.0001C5 12.7349 5.10536 12.4806 5.29289 12.293C5.48043 12.1055 5.73478 12.0001 6 12.0001C6.26522 12.0001 6.51957 12.1055 6.70711 12.293C6.89464 12.4806 7 12.7349 7 13.0001V14.0001C7 14.0403 6.99758 14.0803 6.99282 14.1197L6.30003 13.6002Z" fill="#424242"/>
        <path d="M10 11.5001C10 11.224 9.77614 11.0001 9.5 11.0001C9.22386 11.0001 9 11.224 9 11.5001V15.5001C9 15.7763 9.22386 16.0001 9.5 16.0001H11.5C11.7761 16.0001 12 15.7763 12 15.5001C12 15.224 11.7761 15.0001 11.5 15.0001H10V11.5001Z" fill="#424242"/>
    </symbol>
    <symbol id="tridentVisualQueryRegularIcon" width="14" height="17" viewBox="0 0 14 17" fill="none">
        <path d="M4 0C2.89543 0 2 0.895431 2 2V9H3V2C3 1.44772 3.44772 1 4 1H8V4.5C8 5.32843 8.67157 6 9.5 6H13V14C13 14.5523 12.5523 15 12 15H11V16H12C13.1046 16 14 15.1046 14 14V5.41421C14 5.01639 13.842 4.63486 13.5607 4.35355L9.64645 0.43934C9.36514 0.158035 8.98361 0 8.58579 0H4ZM12.7929 5H9.5C9.22386 5 9 4.77614 9 4.5V1.20711L12.7929 5Z" fill="black"/>
        <path d="M6.5 7C6.22386 7 6 7.22386 6 7.5V8.81069C5.9688 8.83029 5.9393 8.85367 5.91215 8.88082L4 10.793V10.5C4 10.2239 3.77614 10 3.5 10H0.5C0.223858 10 0 10.2239 0 10.5V13.5C0 13.7761 0.223858 14 0.5 14H3.5C3.77614 14 4 13.7761 4 13.5V13.207L5.91215 15.1192C5.9393 15.1463 5.9688 15.1697 6 15.1893V16.5C6 16.7761 6.22386 17 6.5 17H9.5C9.77614 17 10 16.7761 10 16.5V13.5C10 13.2239 9.77614 13 9.5 13H6.5C6.22386 13 6 13.2239 6 13.5V13.7928L4.20718 12L6 10.2072V10.5C6 10.7761 6.22386 11 6.5 11H9.5C9.77614 11 10 10.7761 10 10.5V7.5C10 7.22386 9.77614 7 9.5 7H6.5ZM1 11H3V13H1V11ZM7 16V14H9V16H7ZM7 8H9V10H7V8Z" fill="black"/>
    </symbol>
    <symbol id="tridentSchemaRegularIcon" width="14" height="14" viewBox="0 0 14 14" fill="none">
        <path d="M9.875 0C10.4963 0 11 0.50368 11 1.125V3.875C11 4.49632 10.4963 5 9.875 5H8.8822L11.2822 9H12.875C13.4963 9 14 9.50368 14 10.125V12.875C14 13.4963 13.4963 14 12.875 14H9.125C8.50368 14 8 13.4963 8 12.875V10.125C8 9.50368 8.50368 9 9.125 9H10.116L7.71601 5H6.28211L3.88211 9H4.875C5.49632 9 6 9.50368 6 10.125V12.875C6 13.4963 5.49632 14 4.875 14H1.125C0.50368 14 0 13.4963 0 12.875V10.125C0 9.50368 0.50368 9 1.125 9H2.71592L5.11592 5H4.125C3.50368 5 3 4.49632 3 3.875V1.125C3 0.50368 3.50368 0 4.125 0H9.875ZM10 1.125C10 1.05596 9.94404 1 9.875 1H4.125C4.05596 1 4 1.05596 4 1.125V3.875C4 3.94404 4.05596 4 4.125 4H9.875C9.94404 4 10 3.94404 10 3.875V1.125ZM5 10.125C5 10.056 4.94404 10 4.875 10H1.125C1.05596 10 1 10.056 1 10.125V12.875C1 12.944 1.05596 13 1.125 13H4.875C4.94404 13 5 12.944 5 12.875V10.125ZM12.875 10H9.125C9.05596 10 9 10.056 9 10.125V12.875C9 12.944 9.05596 13 9.125 13H12.875C12.944 13 13 12.944 13 12.875V10.125C13 10.056 12.944 10 12.875 10Z" fill="black"/>
    </symbol>
    <symbol id="tridentViewRegularIcon" width="16" height="16" viewBox="0 0 16 16" fill="none">
        <path d="M3.5 9.00012C3.22386 9.00012 3 9.22398 3 9.50012C3 9.77626 3.22386 10.0001 3.5 10.0001H8.5C8.77614 10.0001 9 9.77626 9 9.50012C9 9.22398 8.77614 9.00012 8.5 9.00012H3.5Z" fill="black"/>
        <path d="M4 2.00012C4 0.895552 4.89543 0.00012207 6 0.00012207H14C15.1046 0.00012207 16 0.895553 16 2.00012V10.0001C16 11.1047 15.1046 12.0001 14 12.0001H12V14.0001C12 15.1047 11.1046 16.0001 10 16.0001H2C0.89543 16.0001 0 15.1047 0 14.0001V6.00012C0 4.89555 0.895431 4.00012 2 4.00012H4V2.00012ZM14 11.0001C14.5523 11.0001 15 10.5524 15 10.0001V2.00012C15 1.44784 14.5523 1.00012 14 1.00012H6C5.44772 1.00012 5 1.44784 5 2.00012V4.00012H10C11.1046 4.00012 12 4.89555 12 6.00012V11.0001H14ZM1 6.00012V14.0001C1 14.5524 1.44772 15.0001 2 15.0001H10C10.5523 15.0001 11 14.5524 11 14.0001V6.00012C11 5.44784 10.5523 5.00012 10 5.00012H2C1.44772 5.00012 1 5.44784 1 6.00012Z" fill="black"/>
    </symbol>

    <symbol id="tridentEditRegularIcon" width="16" height="16" viewBox="0 0 16 16" fill="none">
        <path d="M15.1813 0.926893C14.0291 -0.284951 12.1047 -0.309226 10.9222 0.873168L1.54741 10.2475C1.21958 10.5754 0.992038 10.9899 0.891482 11.4424L0.0138652 15.3923C-0.0232157 15.5592 0.0275431 15.7335 0.148442 15.8544C0.26934 15.9753 0.443618 16.026 0.610502 15.9889L4.53689 15.1157C5.00432 15.0118 5.43243 14.7767 5.77103 14.4381L15.129 5.08003C16.27 3.939 16.2933 2.09631 15.1813 0.926893ZM11.6293 1.58029C12.4143 0.795384 13.6917 0.811498 14.4566 1.61596C15.1948 2.39225 15.1793 3.61548 14.4219 4.37293L13.7507 5.04418L10.958 2.25155L11.6293 1.58029ZM10.2509 2.95864L13.0436 5.7513L5.06391 13.731C4.85976 13.9352 4.60164 14.0769 4.31982 14.1396L1.1605 14.8421L1.86768 11.6593C1.92698 11.3924 2.06117 11.148 2.2545 10.9547L10.2509 2.95864Z" fill="#424242"/>
    </symbol>
    <symbol id="tridentHideAndUnhideInReportViewIcon" width="16" height="16" viewBox="0 0 16 16" fill="none"
        xmlns="http://www.w3.org/2000/svg">
        <path fill-rule="evenodd" clip-rule="evenodd" d="M8 16C12.4183 16 16 12.4183 16 8C16 3.58172 12.4183 0 8 0C3.58172 0 0 3.58172 0 8C0 12.4183 3.58172 16 8 16ZM8 15C4.13401 15 1 11.866 1 8C1 4.13401 4.13401 1 8 1C11.866 1 15 4.13401 15 8C15 11.866 11.866 15 8 15Z" fill="#424242"/>
    </symbol>
    <symbol id="tridentRenameIcon" width="16" height="16" viewBox="0 0 16 16" fill="none">
        <path d="M6.5 0C6.22386 0 6 0.223858 6 0.5C6 0.776142 6.22386 1 6.5 1H7.5V15H6.5C6.22386 15 6 15.2239 6 15.5C6 15.7761 6.22386 16 6.5 16H9.5C9.77614 16 10 15.7761 10 15.5C10 15.2239 9.77614 15 9.5 15H8.5V1H9.5C9.77614 1 10 0.776142 10 0.5C10 0.223858 9.77614 0 9.5 0H6.5ZM2.5 2H6.5V3H2.5C1.67157 3 1 3.67157 1 4.5V11.5C1 12.3284 1.67157 13 2.5 13H6.5V14H2.5C1.11929 14 0 12.8807 0 11.5V4.5C0 3.11929 1.11929 2 2.5 2ZM13.5 13H9.5V14H13.5C14.8807 14 16 12.8807 16 11.5V4.5C16 3.11929 14.8807 2 13.5 2H9.5V3H13.5C14.3284 3 15 3.67157 15 4.5V11.5C15 12.3284 14.3284 13 13.5 13Z" fill="#424242"/>
    </symbol>
    <symbol id="tridentPersonLockIcon" width="17" height="17" viewBox="0 0 17 17" fill="none">
        <path d="M3 4C3 1.79086 4.79086 0 7 0C9.20914 0 11 1.79086 11 4C11 6.20914 9.20914 8 7 8C4.79086 8 3 6.20914 3 4ZM7 1C5.34315 1 4 2.34315 4 4C4 5.65685 5.34315 7 7 7C8.65685 7 10 5.65685 10 4C10 2.34315 8.65685 1 7 1ZM0 11C0 9.88687 0.903151 9 2.00873 9L10.6707 9C10.5602 9.31278 10.5 9.64937 10.5 10H2.00873C1.44786 10 1 10.4467 1 11C1 12.3088 1.62226 13.2837 2.67262 13.9534C3.74318 14.636 5.26489 15 7 15C7.70752 15 8.37956 14.9395 9 14.8215V15.8376C8.36178 15.9466 7.68963 16 7 16C5.14526 16 3.41697 15.614 2.13499 14.7966C0.83281 13.9663 0 12.6912 0 11ZM11.5 11V10C11.5 8.89543 12.3954 8 13.5 8C14.6046 8 15.5 8.89543 15.5 10V11H16C16.5523 11 17 11.4477 17 12V16C17 16.5523 16.5523 17 16 17H11C10.4477 17 10 16.5523 10 16V12C10 11.4477 10.4477 11 11 11H11.5ZM12.5 10V11H14.5V10C14.5 9.44772 14.0523 9 13.5 9C12.9477 9 12.5 9.44772 12.5 10ZM14.25 14C14.25 13.5858 13.9142 13.25 13.5 13.25C13.0858 13.25 12.75 13.5858 12.75 14C12.75 14.4142 13.0858 14.75 13.5 14.75C13.9142 14.75 14.25 14.4142 14.25 14Z" fill="#212121"/>
    </symbol>
    <symbol id="tridentDismissSquare" width="16" height="16" viewBox="0 0 17 17" fill="none">
        <path d="M7.14645 7.14645C7.34171 6.95118 7.65829 6.95118 7.85355 7.14645L10 9.29289L12.1464 7.14645C12.3417 6.95118 12.6583 6.95118 12.8536 7.14645C13.0488 7.34171 13.0488 7.65829 12.8536 7.85355L10.7071 10L12.8536 12.1464C13.0488 12.3417 13.0488 12.6583 12.8536 12.8536C12.6583 13.0488 12.3417 13.0488 12.1464 12.8536L10 10.7071L7.85355 12.8536C7.65829 13.0488 7.34171 13.0488 7.14645 12.8536C6.95118 12.6583 6.95118 12.3417 7.14645 12.1464L9.29289 10L7.14645 7.85355C6.95118 7.65829 6.95118 7.34171 7.14645 7.14645ZM3 6C3 4.34315 4.34315 3 6 3H14C15.6569 3 17 4.34315 17 6V14C17 15.6569 15.6569 17 14 17H6C4.34315 17 3 15.6569 3 14V6ZM6 4C4.89543 4 4 4.89543 4 6V14C4 15.1046 4.89543 16 6 16H14C15.1046 16 16 15.1046 16 14V6C16 4.89543 15.1046 4 14 4H6Z" fill="#424242"/>
    </symbol>
    <symbol id="tridentAddSquare" width="16" height="16" viewBox="0 0 17 17" fill="none">
        <path d="M0 2C0 0.895431 0.89543 0 2 0H12C13.1046 0 14 0.895431 14 2V12C14 13.1046 13.1046 14 12 14H2C0.895431 14 0 13.1046 0 12V2ZM2 1C1.44772 1 1 1.44772 1 2V12C1 12.5523 1.44772 13 2 13H12C12.5523 13 13 12.5523 13 12V2C13 1.44772 12.5523 1 12 1H2ZM7.00006 3.00009C7.2762 3.00009 7.50006 3.22395 7.50006 3.50009V6.50009H10.5001C10.7762 6.50009 11.0001 6.72395 11.0001 7.00009C11.0001 7.27623 10.7762 7.50009 10.5001 7.50009H7.50006V10.5001C7.50006 10.7762 7.2762 11.0001 7.00006 11.0001C6.72392 11.0001 6.50006 10.7762 6.50006 10.5001V7.50009H3.50006C3.22392 7.50009 3.00006 7.27623 3.00006 7.00009C3.00006 6.72395 3.22392 6.50009 3.50006 6.50009H6.50006V3.50009C6.50006 3.22395 6.72392 3.00009 7.00006 3.00009Z" fill="#424242"/>
    </symbol>
    <symbol id="tridentAppListDetails" width="16" height="16" viewBox="0 0 16 16" fill="none">
        <path d="M3.5 4C2.67157 4 2 4.67157 2 5.5V7.5C2 8.32843 2.67157 9 3.5 9H5.5C6.32843 9 7 8.32843 7 7.5V5.5C7 4.67157 6.32843 4 5.5 4H3.5ZM3 5.5C3 5.22386 3.22386 5 3.5 5H5.5C5.77614 5 6 5.22386 6 5.5V7.5C6 7.77614 5.77614 8 5.5 8H3.5C3.22386 8 3 7.77614 3 7.5V5.5ZM9.5 5C9.22386 5 9 5.22386 9 5.5C9 5.77614 9.22386 6 9.5 6H17.5C17.7761 6 18 5.77614 18 5.5C18 5.22386 17.7761 5 17.5 5H9.5ZM9.5 7C9.22386 7 9 7.22386 9 7.5C9 7.77614 9.22386 8 9.5 8H15.5C15.7761 8 16 7.77614 16 7.5C16 7.22386 15.7761 7 15.5 7H9.5ZM3.5 11C2.67157 11 2 11.6716 2 12.5V14.5C2 15.3284 2.67157 16 3.5 16H5.5C6.32843 16 7 15.3284 7 14.5V12.5C7 11.6716 6.32843 11 5.5 11H3.5ZM3 12.5C3 12.2239 3.22386 12 3.5 12H5.5C5.77614 12 6 12.2239 6 12.5V14.5C6 14.7761 5.77614 15 5.5 15H3.5C3.22386 15 3 14.7761 3 14.5V12.5ZM9.5 12C9.22386 12 9 12.2239 9 12.5C9 12.7761 9.22386 13 9.5 13H17.5C17.7761 13 18 12.7761 18 12.5C18 12.2239 17.7761 12 17.5 12H9.5ZM9.5 14C9.22386 14 9 14.2239 9 14.5C9 14.7761 9.22386 15 9.5 15H15.5C15.7761 15 16 14.7761 16 14.5C16 14.2239 15.7761 14 15.5 14H9.5Z" fill="#424242"/>
    </symbol>
    <symbol id="tridentEdit" width="16" height="16" viewBox="0 0 16 16" fill="none">
        <path d="M15.1813 0.926893C14.0291 -0.284951 12.1047 -0.309226 10.9222 0.873168L1.54741 10.2475C1.21958 10.5754 0.992038 10.9899 0.891482 11.4424L0.0138652 15.3923C-0.0232157 15.5592 0.0275431 15.7335 0.148442 15.8544C0.26934 15.9753 0.443618 16.026 0.610502 15.9889L4.53689 15.1157C5.00432 15.0118 5.43243 14.7767 5.77103 14.4381L15.129 5.08003C16.27 3.939 16.2933 2.09631 15.1813 0.926893ZM11.6293 1.58029C12.4143 0.795384 13.6917 0.811498 14.4566 1.61596C15.1948 2.39225 15.1793 3.61548 14.4219 4.37293L13.7507 5.04418L10.958 2.25155L11.6293 1.58029ZM10.2509 2.95864L13.0436 5.7513L5.06391 13.731C4.85976 13.9352 4.60164 14.0769 4.31982 14.1396L1.1605 14.8421L1.86768 11.6593C1.92698 11.3924 2.06117 11.148 2.2545 10.9547L10.2509 2.95864Z" fill="#424242"/>
    </symbol>
    <symbol id="tridentDelete" width="16" height="16" viewBox="0 0 16 16" fill="none">
        <path d="M6.5 3H9.5C9.5 2.17157 8.82843 1.5 8 1.5C7.17157 1.5 6.5 2.17157 6.5 3ZM5.5 3C5.5 1.61929 6.61929 0.5 8 0.5C9.38071 0.5 10.5 1.61929 10.5 3H15.5C15.7761 3 16 3.22386 16 3.5C16 3.77614 15.7761 4 15.5 4H14.4456L13.2521 14.3439C13.0774 15.8576 11.7957 17 10.2719 17H5.72813C4.20431 17 2.92256 15.8576 2.7479 14.3439L1.55437 4H0.5C0.223858 4 0 3.77614 0 3.5C0 3.22386 0.223858 3 0.5 3H5.5ZM3.74131 14.2292C3.85775 15.2384 4.71225 16 5.72813 16H10.2719C11.2878 16 12.1422 15.2384 12.2587 14.2292L13.439 4H2.56101L3.74131 14.2292ZM6.5 6.5C6.77614 6.5 7 6.72386 7 7V13C7 13.2761 6.77614 13.5 6.5 13.5C6.22386 13.5 6 13.2761 6 13V7C6 6.72386 6.22386 6.5 6.5 6.5ZM10 7C10 6.72386 9.77614 6.5 9.5 6.5C9.22386 6.5 9 6.72386 9 7V13C9 13.2761 9.22386 13.5 9.5 13.5C9.77614 13.5 10 13.2761 10 13V7Z" fill="#212121"/>
    </symbol>
    <symbol id="tridentFunction" width="20" height="20" viewBox="0 0 20 20" fill="none">
        <path d="M8.91487 3.54138C9.20556 3.50052 9.38787 3.50767 9.52769 3.53563C9.66644 3.56338 9.80965 3.62076 10.0139 3.74331C10.3691 3.95643 10.8298 3.84125 11.0429 3.48607C11.256 3.13088 11.1408 2.67019 10.7856 2.45708C10.4899 2.27963 10.1831 2.13701 9.82186 2.06476C9.46312 1.99301 9.09776 2.00001 8.69371 2.05773L8.67648 2.0604C7.87589 2.19383 7.24861 2.607 6.82125 3.2224C6.40759 3.81807 6.2077 4.56244 6.15168 5.34676C6.15041 5.36454 6.14977 5.38237 6.14977 5.4002C6.14977 5.4002 6.14978 5.39951 6.14977 5.4002L6.14965 5.40795L6.14899 5.43249C6.14833 5.45344 6.14732 5.48091 6.1459 5.51515C6.14307 5.58355 6.13884 5.67434 6.13332 5.78543C6.12229 6.00736 6.10636 6.30534 6.08686 6.65712L6.08169 6.75018H4.80078C4.38657 6.75018 4.05078 7.08597 4.05078 7.50018C4.05078 7.9144 4.38657 8.25018 4.80078 8.25018H5.99576C5.9774 8.56418 5.95819 8.88939 5.9386 9.21807C5.8261 11.1056 5.70168 13.0957 5.65217 13.7403C5.54511 15.0244 5.43196 15.8778 4.62493 16.3506C4.22226 16.579 3.6062 16.5649 2.93518 16.2294C2.5647 16.0441 2.1142 16.1943 1.92895 16.5648C1.74371 16.9353 1.89388 17.3858 2.26436 17.571C3.19183 18.0347 4.3745 18.2213 5.37188 17.6514L5.37768 17.648C6.91144 16.7533 7.04645 15.0972 7.13735 13.9822L7.14718 13.8625L7.14756 13.8577C7.20668 13.0892 7.37309 10.3974 7.49828 8.25018H9.30078C9.71499 8.25018 10.0508 7.9144 10.0508 7.50018C10.0508 7.08597 9.71499 6.75018 9.30078 6.75018H7.5838C7.62074 6.08196 7.64554 5.594 7.64928 5.43439C7.69499 4.82845 7.84417 4.37915 8.0533 4.07799C8.24958 3.79535 8.51992 3.60913 8.91487 3.54138ZM16.7803 10.2805C17.0732 9.98762 17.0732 9.51275 16.7803 9.21985C16.4874 8.92696 16.0126 8.92696 15.7197 9.21985L13.1412 11.7983C12.7621 11.1458 12.4841 10.641 12.4208 10.5145C12.4089 10.4905 12.3956 10.4672 12.3811 10.4447C12.3591 10.4104 12.3346 10.3711 12.3077 10.328C12.1551 10.0832 11.9269 9.71702 11.6499 9.46086C11.469 9.29347 11.2263 9.12899 10.9138 9.05819C10.592 8.98528 10.2672 9.02776 9.95688 9.15954C9.90744 9.18053 9.8604 9.20677 9.81657 9.23781L9.78417 9.26061C9.69825 9.32089 9.60146 9.38879 9.50114 9.49282C9.45568 9.53997 9.41053 9.59297 9.36905 9.64172L9.34663 9.66808C9.30482 9.71727 9.25338 9.77778 9.18331 9.8586C8.91199 10.1716 8.94576 10.6453 9.25874 10.9166C9.57171 11.1879 10.0454 11.1541 10.3167 10.8412C10.3919 10.7544 10.4481 10.6883 10.4901 10.6389L10.5113 10.6139C10.5529 10.5651 10.5693 10.5465 10.5776 10.5375L10.5902 10.5282C10.5996 10.5347 10.6133 10.5453 10.6314 10.562C10.6877 10.6141 10.7561 10.6972 10.8433 10.8251C10.9023 10.9116 10.9531 10.9924 11.0105 11.0839C11.0378 11.1274 11.0667 11.1734 11.0986 11.2234C11.2203 11.4587 11.589 12.1209 12.0448 12.8948L9.21967 15.7199C8.92678 16.0127 8.92678 16.4876 9.21967 16.7805C9.51256 17.0734 9.98744 17.0734 10.2803 16.7805L12.9418 14.119C13.3555 14.8277 13.6635 15.3861 13.7305 15.5201C13.739 15.5373 13.7483 15.5541 13.7582 15.5706C13.7731 15.5955 13.7901 15.6245 13.8089 15.6568C13.9383 15.8784 14.1577 16.2542 14.448 16.5292C14.6288 16.7005 14.8705 16.8692 15.1811 16.9507C15.5011 17.0348 15.8349 17.0106 16.1646 16.887C16.1892 16.8777 16.2132 16.8673 16.2367 16.8555C16.5927 16.6775 16.8134 16.4475 17.0408 16.0766C17.2572 15.7234 17.1463 15.2617 16.7932 15.0452C16.44 14.8288 15.9783 14.9396 15.7618 15.2928C15.691 15.4083 15.6526 15.4518 15.6349 15.4692C15.6282 15.4759 15.6205 15.4831 15.6026 15.4939C15.5854 15.4985 15.5746 15.4997 15.5697 15.5L15.5645 15.5002L15.563 15.5001C15.5628 15.5 15.5557 15.4983 15.5425 15.4903C15.5285 15.4818 15.5074 15.4666 15.4796 15.4402C15.4209 15.3846 15.3544 15.3011 15.277 15.1829C15.2203 15.0965 15.1726 15.0156 15.1191 14.9247C15.0998 14.892 15.0797 14.8579 15.0582 14.8218C14.9367 14.5854 14.5321 13.8587 14.0377 13.0232L16.7803 10.2805ZM10.5996 10.5228C10.5996 10.5228 10.6 10.5227 10.5996 10.5228ZM10.5976 10.5228C10.599 10.5227 10.5997 10.5227 10.5996 10.5228Z" fill="#424242"></path>
    </symbol>
    <symbol id="tridentDuplicate" width="16" height="16" viewBox="0 0 16 16" fill="none">
        <path d="M7.5 4.5C7.5 4.22386 7.27614 4 7 4C6.72386 4 6.5 4.22386 6.5 4.5V6.5H4.5C4.22386 6.5 4 6.72386 4 7C4 7.27614 4.22386 7.5 4.5 7.5H6.5V9.5C6.5 9.77614 6.72386 10 7 10C7.27614 10 7.5 9.77614 7.5 9.5V7.5H9.5C9.77614 7.5 10 7.27614 10 7C10 6.72386 9.77614 6.5 9.5 6.5H7.5V4.5ZM2.5 0C1.11929 0 0 1.11929 0 2.5V11.5C0 12.8807 1.11929 14 2.5 14H11.5C12.8807 14 14 12.8807 14 11.5V2.5C14 1.11929 12.8807 0 11.5 0H2.5ZM1 2.5C1 1.67157 1.67157 1 2.5 1H11.5C12.3284 1 13 1.67157 13 2.5V11.5C13 12.3284 12.3284 13 11.5 13H2.5C1.67157 13 1 12.3284 1 11.5V2.5ZM5.50027 15.9998C4.54662 15.9998 3.68205 15.6184 3.05078 14.9998H12.5003C13.881 14.9998 15.0003 13.8805 15.0003 12.4998V3.05029C15.6189 3.68156 16.0003 4.54613 16.0003 5.49978V12.4998C16.0003 14.4328 14.4333 15.9998 12.5003 15.9998H5.50027Z" fill="#424242"/>
    </symbol>
    <symbol id="tridentViewSql" width="16" height="16" viewBox="0 0 16 16" fill="none">
        <path d="M10.9667 0.679624C11.0658 0.421888 10.9372 0.132591 10.6795 0.033462C10.4218 -0.0656674 10.1325 0.0629089 10.0333 0.320645L5.03334 13.3206C4.93421 13.5784 5.06279 13.8677 5.32052 13.9668C5.57826 14.0659 5.86756 13.9374 5.96669 13.6796L10.9667 0.679624ZM3.8254 3.1205C4.03506 3.30021 4.05934 3.61586 3.87963 3.82553L1.15854 7.00013L3.87963 10.1747C4.05934 10.3844 4.03506 10.7 3.8254 10.8798C3.61573 11.0595 3.30008 11.0352 3.12037 10.8255L0.120372 7.32553C-0.0401239 7.13828 -0.0401239 6.86198 0.120372 6.67474L3.12037 3.17474C3.30008 2.96507 3.61573 2.94079 3.8254 3.1205ZM12.1746 11.3797C11.9649 11.2 11.9407 10.8844 12.1204 10.6747L14.8415 7.50011L12.1204 4.32551C11.9407 4.11585 11.9649 3.8002 12.1746 3.62048C12.3843 3.44077 12.6999 3.46505 12.8796 3.67472L15.8796 7.17472C16.0401 7.36196 16.0401 7.63826 15.8796 7.82551L12.8796 11.3255C12.6999 11.5352 12.3843 11.5595 12.1746 11.3797Z" fill="#212121"/>
    </symbol>
    <symbol id="tridentCalendar" width="16" height="16" viewBox="0 0 16 16" fill="none">
        <path d="M5.24848 8.99696C5.66186 8.99696 5.99696 8.66186 5.99696 8.24848C5.99696 7.83511 5.66186 7.5 5.24848 7.5C4.83511 7.5 4.5 7.83511 4.5 8.24848C4.5 8.66186 4.83511 8.99696 5.24848 8.99696ZM5.99696 10.7485C5.99696 11.1619 5.66186 11.497 5.24848 11.497C4.83511 11.497 4.5 11.1619 4.5 10.7485C4.5 10.3351 4.83511 10 5.24848 10C5.66186 10 5.99696 10.3351 5.99696 10.7485ZM8.00043 8.99696C8.41381 8.99696 8.74892 8.66186 8.74892 8.24848C8.74892 7.83511 8.41381 7.5 8.00043 7.5C7.58706 7.5 7.25195 7.83511 7.25195 8.24848C7.25195 8.66186 7.58706 8.99696 8.00043 8.99696ZM8.74892 10.7485C8.74892 11.1619 8.41381 11.497 8.00043 11.497C7.58706 11.497 7.25195 11.1619 7.25195 10.7485C7.25195 10.3351 7.58706 10 8.00043 10C8.41381 10 8.74892 10.3351 8.74892 10.7485ZM10.7485 8.99696C11.1619 8.99696 11.497 8.66186 11.497 8.24848C11.497 7.83511 11.1619 7.5 10.7485 7.5C10.3351 7.5 10 7.83511 10 8.24848C10 8.66186 10.3351 8.99696 10.7485 8.99696ZM14 4.5C14 3.11929 12.8807 2 11.5 2H4.5C3.11929 2 2 3.11929 2 4.5V11.5C2 12.8807 3.11929 14 4.5 14H11.5C12.8807 14 14 12.8807 14 11.5V4.5ZM3 6H13V11.5C13 12.3284 12.3284 13 11.5 13H4.5C3.67157 13 3 12.3284 3 11.5V6ZM4.5 3H11.5C12.3284 3 13 3.67157 13 4.5V5H3V4.5C3 3.67157 3.67157 3 4.5 3Z" fill="#212121" />
    </symbol>
    <symbol id="tridentClock" width="16" height="16" viewBox="0 0 16 16" fill="none">
        <path d="M8 2C11.3137 2 14 4.68629 14 8C14 11.3137 11.3137 14 8 14C4.68629 14 2 11.3137 2 8C2 4.68629 4.68629 2 8 2ZM8 3C5.23858 3 3 5.23858 3 8C3 10.7614 5.23858 13 8 13C10.7614 13 13 10.7614 13 8C13 5.23858 10.7614 3 8 3ZM7.50153 5C7.74699 5 7.95114 5.17688 7.99347 5.41012L8.00153 5.5V8H9.5C9.77614 8 10 8.22386 10 8.5C10 8.74546 9.82312 8.94961 9.58988 8.99194L9.5 9H7.50153C7.25607 9 7.05192 8.82312 7.00958 8.58988L7.00153 8.5V5.5C7.00153 5.22386 7.22538 5 7.50153 5Z" fill="#212121" />
    </symbol>
    <symbol id="tridentCalendarClock" width="16" height="16" viewBox="0 0 16 16" fill="none">
        <path d="M11.5 2C12.8807 2 14 3.11929 14 4.5V6.59971C13.6832 6.43777 13.3486 6.30564 13 6.20703V6H3V11.5C3 12.3284 3.67157 13 4.5 13H6.20703C6.30564 13.3486 6.43777 13.6832 6.59971 14H4.5C3.11929 14 2 12.8807 2 11.5V4.5C2 3.11929 3.11929 2 4.5 2H11.5ZM11.5 3H4.5C3.67157 3 3 3.67157 3 4.5V5H13V4.5C13 3.67157 12.3284 3 11.5 3ZM16 11.5C16 13.9853 13.9853 16 11.5 16C9.01472 16 7 13.9853 7 11.5C7 9.01472 9.01472 7 11.5 7C13.9853 7 16 9.01472 16 11.5ZM11.5 9C11.2239 9 11 9.22386 11 9.5V11.5C11 11.7761 11.2239 12 11.5 12H13C13.2761 12 13.5 11.7761 13.5 11.5C13.5 11.2239 13.2761 11 13 11H12V9.5C12 9.22386 11.7761 9 11.5 9Z" fill="#212121" />
    </symbol>
    <symbol id="tridentMathExponent" width="16" height="16" viewBox="0 0 16 16" fill="none">
        <path d="M9.13529 3.0424C9.05752 3.08334 9.01588 3.12124 8.85355 3.28356C8.65829 3.47883 8.34171 3.47883 8.14645 3.28356C7.95118 3.0883 7.95118 2.77172 8.14645 2.57646L8.16277 2.56012C8.32497 2.39779 8.46171 2.26093 8.70708 2.13825C8.71947 2.13205 8.73212 2.12637 8.74499 2.12122C9.35049 1.87903 9.95886 2.00446 10.4259 2.34978C10.6281 2.4877 10.7557 2.65475 10.8491 2.80155C10.889 2.8642 10.9263 2.92921 10.9574 2.98361L10.9699 3.00531C11.0057 3.06774 11.0364 3.11984 11.0694 3.16948C11.0809 3.18673 11.0914 3.20468 11.1006 3.22323C11.132 3.28594 11.1634 3.34569 11.1953 3.40444L12.4575 2.1423C12.6527 1.94703 12.9693 1.94703 13.1646 2.1423C13.3599 2.33756 13.3599 2.65414 13.1646 2.8494L11.6735 4.34048C11.7446 4.46454 11.8085 4.57384 11.8705 4.66685C11.9328 4.76019 12.0002 4.87249 12.0592 4.97083C12.0852 5.014 12.1095 5.05448 12.131 5.08949C12.2156 5.22702 12.2722 5.30545 12.3094 5.34265C12.4292 5.46248 12.5413 5.49537 12.6284 5.49972C12.7278 5.50469 12.8102 5.47271 12.8483 5.44729C12.8655 5.43579 12.8835 5.42538 12.902 5.4161C12.9879 5.37319 13.02 5.34541 13.1899 5.17554C13.3851 4.98028 13.7017 4.98028 13.897 5.17554C14.0922 5.3708 14.0922 5.68738 13.897 5.88265L13.8808 5.89879C13.7294 6.05041 13.5993 6.1806 13.3751 6.29733C12.956 6.55919 12.2039 6.65131 11.6023 6.04976C11.4724 5.91985 11.3618 5.74761 11.2794 5.61358C11.2444 5.55684 11.2134 5.50506 11.1843 5.45658C11.1331 5.37108 11.088 5.29579 11.0385 5.22155C11.0062 5.17315 10.9743 5.12248 10.9429 5.07108L9.66019 6.3538C9.46493 6.54906 9.14835 6.54906 8.95309 6.3538C8.75782 6.15854 8.75782 5.84195 8.95309 5.64669L10.4544 4.14534C10.454 4.13893 10.4536 4.13252 10.4534 4.12612C10.3789 3.99564 10.2996 3.8552 10.2197 3.6973C10.1743 3.62735 10.1354 3.56027 10.1028 3.50343L10.0897 3.48059C10.0571 3.42381 10.0321 3.3802 10.0055 3.33842C9.94999 3.25122 9.9085 3.20659 9.85925 3.17376C9.85155 3.16863 9.844 3.16329 9.8366 3.15774C9.62149 2.9964 9.38007 2.95144 9.13529 3.0424ZM6.51136 4.97382C6.9225 4.97675 7.29357 5.17907 7.55305 5.45296C7.81321 5.72757 7.99676 6.11002 8.00255 6.53674C8.0506 7.20265 7.81502 7.74313 7.41166 8.15156C7.02064 8.54748 6.48947 8.80371 5.95468 8.97259C5.00626 9.27209 3.91203 9.33814 3.15895 9.31882C3.00126 9.84585 2.97342 10.244 3.02118 10.5426C3.07048 10.8509 3.20317 11.0751 3.4035 11.2517C3.41312 11.2602 3.4224 11.269 3.43134 11.2782C3.63425 11.4869 3.88585 11.553 4.30221 11.639C5.37239 11.7683 6.43248 11.1459 7.096 10.2359C7.2587 10.0128 7.57146 9.96376 7.79459 10.1265C8.01772 10.2891 8.06671 10.6019 7.90402 10.825C7.0955 11.9339 5.70414 12.8276 4.15686 12.6286C4.14446 12.6271 4.13212 12.625 4.11987 12.6225L4.08364 12.615C3.69776 12.536 3.16185 12.4263 2.72803 11.9892C2.36234 11.6615 2.1188 11.2325 2.03373 10.7005C1.94958 10.1744 2.0241 9.57313 2.24374 8.89474C2.24899 8.86804 2.25651 8.84141 2.26638 8.81508L2.36299 8.55765C2.42066 8.38667 2.73306 7.5125 3.36166 6.67437C3.99926 5.82423 5.02967 4.92761 6.51136 4.97382ZM3.53936 8.32093C4.17999 8.31141 4.97522 8.23322 5.65355 8.01901C6.10874 7.87526 6.46854 7.6834 6.70016 7.44887C6.91559 7.23074 7.03368 6.96482 7.00429 6.59742C7.00323 6.58415 7.0027 6.57085 7.0027 6.55754C7.0027 6.40907 6.93786 6.25762 6.8271 6.1407C6.71333 6.02062 6.58776 5.97379 6.50231 5.97379L6.48565 5.97351C5.47045 5.93967 4.71093 6.54201 4.16166 7.27437C3.88578 7.64221 3.68002 8.02172 3.53936 8.32093Z" fill="#212121" />
    </symbol>
    <symbol id="tridentUniqueIdentifier" width="16" height="16" viewBox="0 0 16 16" fill="none">
        <path d="M2 5.501a.5.5 0 1 0-1 0v4a2.5 2.5 0 1 0 5 0v-4a.5.5 0 1 0-1 0v4a1.5 1.5 0 1 1-3 0v-4Zm6-.5a.5.5 0 0 1 .492.41l.008.09v6a.5.5 0 0 1-.992.09L7.5 11.5v-6A.5.5 0 0 1 8 5Zm3.75 0H10.5a.5.5 0 0 0-.5.5v6l.008.09a.5.5 0 0 0 .492.41h1.25A3.25 3.25 0 0 0 15 8.751v-.5a3.25 3.25 0 0 0-3.25-3.25Zm0 6H11v-5h.75A2.25 2.25 0 0 1 14 8.251v.5a2.25 2.25 0 0 1-2.25 2.25Z" fill="#212121" />
    </symbol>
    <symbol id="tridentShortNumber" width="16" height="16" viewBox="0 0 16 16" fill="none">
        <path d="M12 4.001a2 2 0 0 0 0 4 1 1 0 1 1-1 1 .5.5 0 0 0-1 0 2 2 0 1 0 2-2 1 1 0 1 1 1-1 .5.5 0 0 0 1 0 2 2 0 0 0-2-2Zm-8.264.059A.5.5 0 0 1 4 4.501v6a.5.5 0 1 1-1 0V5.435l-.723.482a.5.5 0 0 1-.554-.832l1.5-1a.5.5 0 0 1 .513-.025Zm3.514-.059A2.25 2.25 0 0 0 5 6.251a.5.5 0 0 0 1 0 1.25 1.25 0 1 1 2.5.031l.002.03a1.44 1.44 0 0 1-.512.899l-1.584.915A2.59 2.59 0 0 0 5 10.518a.5.5 0 0 0 .5.483H9a.5.5 0 0 0 0-1H6.057a1.59 1.59 0 0 1 .839-1.002l1.627-.941a.499.499 0 0 0 .057-.039 2.44 2.44 0 0 0 .92-1.627.5.5 0 0 0 .003-.092L9.5 6.234a2.25 2.25 0 0 0-2.25-2.233Z" fill="#212121" />
    </symbol>
    <symbol id="tridentInteger" width="16" height="16" viewBox="0 0 16 16" fill="none">
        <path d="M4.658 4.66A2.25 2.25 0 0 1 8.5 6.234l.004.066a.5.5 0 0 1-.002.092 2.44 2.44 0 0 1-.921 1.627.499.499 0 0 1-.057.039l-1.627.94A1.59 1.59 0 0 0 5.058 10h2.941a.5.5 0 1 1 0 1.001H4.5a.5.5 0 0 1-.5-.483 2.59 2.59 0 0 1 1.407-2.392l1.584-.915a1.44 1.44 0 0 0 .512-.898l-.002-.03A2.25 2.25 0 0 1 4.658 4.66Zm-1.922-.6A.5.5 0 0 1 3 4.501v6a.5.5 0 0 1-1 0V5.435l-.723.482a.5.5 0 1 1-.554-.832l1.5-1a.5.5 0 0 1 .513-.025Zm7.095 1.566A2.494 2.494 0 0 1 11.497 5h.003c.598 0 .98.162 1.203.35a.8.8 0 0 1 .303.638C12.996 6.399 12.603 7 11.5 7a.5.5 0 0 0 0 1c.61 0 1 .163 1.225.352a.79.79 0 0 1 .304.634C13.018 9.394 12.618 10 11.5 10h-.003a2.494 2.494 0 0 1-1.666-.625.5.5 0 1 0-.662.75c.644.568 1.474.88 2.332.875 1.502 0 2.497-.893 2.528-1.986a1.788 1.788 0 0 0-.662-1.428 2.123 2.123 0 0 0-.141-.109c.484-.365.766-.888.78-1.464a1.8 1.8 0 0 0-.657-1.426C12.907 4.213 12.277 4 11.501 4a3.494 3.494 0 0 0-2.332.875.5.5 0 1 0 .662.75Z" fill="#212121" />
    </symbol>
    <symbol id="tridentRealNumber" width="16" height="16" viewBox="0 0 16 16" fill="none">
        <path d="M12.146 4.147a.5.5 0 0 0-.146.354v6a.5.5 0 0 0 1 0v-2.5h1.5a.5.5 0 0 0 0-1H13v-2h2.5a.5.5 0 0 0 0-1h-3a.5.5 0 0 0-.354.146Zm-9.41-.087A.5.5 0 0 1 3 4.501v6a.5.5 0 0 1-1 0V5.435l-.723.482a.5.5 0 1 1-.554-.832l1.5-1a.5.5 0 0 1 .513-.025ZM5 10.5a.5.5 0 1 1-1 0 .5.5 0 0 1 1 0Zm3.25-6.499A2.25 2.25 0 0 0 6 6.251a.5.5 0 0 0 1 0 1.25 1.25 0 1 1 2.5.031l.002.03a1.44 1.44 0 0 1-.512.899l-1.584.915A2.59 2.59 0 0 0 6 10.518a.5.5 0 0 0 .5.483H10a.5.5 0 1 0 0-1H7.057a1.59 1.59 0 0 1 .839-1.002l1.627-.941a.499.499 0 0 0 .057-.039 2.44 2.44 0 0 0 .92-1.627.494.494 0 0 0 .003-.092l-.004-.066a2.25 2.25 0 0 0-2.25-2.233Z" fill="#212121" />
    </symbol>
    <symbol id="tridentFloat" width="16" height="16" viewBox="0 0 16 16" fill="none">
        <path d="M10.763 5.06a1.107 1.107 0 0 0-.43-.057.498.498 0 0 1-.065 0 1.215 1.215 0 0 0-1.184.709.5.5 0 0 1-.91-.415A2.215 2.215 0 0 1 10.3 4.004a2.107 2.107 0 0 1 2.184 1.734.5.5 0 0 1 .029.17v.075c.004.25.01.692-.215 1.156-.257.528-.77 1.02-1.7 1.442-.992.448-1.359.94-1.499 1.255l-.03.071h2.944a.5.5 0 0 1 0 1h-3.5a.5.5 0 0 1-.489-.395v-.003l-.001-.004-.002-.01a.888.888 0 0 1-.014-.1 1.617 1.617 0 0 1-.003-.234c.01-.191.054-.446.182-.732.26-.583.833-1.232 2-1.76.79-.357 1.088-.712 1.212-.967.112-.23.116-.435.115-.674a1.105 1.105 0 0 0-.75-.969Zm-6.027-1A.5.5 0 0 1 5 4.501v6a.5.5 0 0 1-1 0V5.435l-.723.482a.5.5 0 1 1-.554-.832l1.5-1a.5.5 0 0 1 .513-.025ZM7 10.5a.5.5 0 1 1-1 0 .5.5 0 0 1 1 0Z" fill="#212121" />
    </symbol>
    <symbol id="tridentBit" width="16" height="16" viewBox="0 0 16 16" fill="none">
        <path d="M10.98 1.614a.5.5 0 1 0-.959-.288L6.396 13.388a.5.5 0 1 0 .958.288L10.98 1.614ZM3.504 4c-.935 0-1.597.438-1.996 1.13-.376.654-.504 1.508-.504 2.37 0 .864.128 1.718.504 2.372C1.907 10.564 2.57 11 3.504 11S5.1 10.564 5.5 9.87c.376-.653.504-1.507.504-2.37 0-.864-.128-1.717-.504-2.37C5.1 4.437 4.439 4 3.504 4Zm-1.5 3.5c0-.793.122-1.44.37-1.871.227-.393.565-.628 1.13-.628s.903.235 1.13.628c.248.432.37 1.078.37 1.872 0 .793-.122 1.44-.37 1.872-.227.393-.565.628-1.13.628s-.903-.235-1.13-.628c-.248-.432-.37-1.079-.37-1.872Zm11.732-3.44A.5.5 0 0 1 14 4.5v6a.5.5 0 0 1-1 0V5.436l-.723.482a.5.5 0 0 1-.554-.832l1.5-1a.5.5 0 0 1 .513-.025Z" fill="#212121" />
    </symbol>
    <symbol id="tridentLong" width="16" height="16" viewBox="0 0 16 16" fill="none">
        <path d="M5.658 4.66A2.25 2.25 0 0 1 9.5 6.234l.004.066a.5.5 0 0 1-.002.092 2.44 2.44 0 0 1-.921 1.627.499.499 0 0 1-.057.039l-1.627.94A1.59 1.59 0 0 0 6.058 10h2.941a.5.5 0 1 1 0 1.001H5.5a.5.5 0 0 1-.5-.483 2.59 2.59 0 0 1 1.407-2.392l1.584-.915a1.44 1.44 0 0 0 .512-.898l-.002-.03A2.25 2.25 0 0 1 5.658 4.66Zm-1.922-.6A.5.5 0 0 1 4 4.501v6a.5.5 0 0 1-1 0V5.435l-.723.482a.5.5 0 1 1-.554-.832l1.5-1a.5.5 0 0 1 .513-.025ZM12 4.501a.5.5 0 0 0-1 0v6a.5.5 0 0 0 .5.5h3a.5.5 0 0 0 0-1H12v-5.5Z" fill="#212121" />
    </symbol>
    <symbol id="tridentBinary" width="16" height="16" viewBox="0 0 16 16" fill="none">
        <path d="M5.504 4.001c-.935 0-1.597.437-1.996 1.13-.376.653-.504 1.507-.504 2.37 0 .863.128 1.717.504 2.37.399.693 1.061 1.13 1.996 1.13S7.1 10.564 7.5 9.871c.376-.653.504-1.507.504-2.37 0-.863-.128-1.717-.504-2.37C7.1 4.437 6.439 4 5.504 4Zm-1.5 3.5c0-.794.122-1.44.37-1.872.227-.393.565-.628 1.13-.628s.903.235 1.13.628c.248.432.37 1.079.37 1.872 0 .793-.122 1.44-.37 1.872-.227.393-.565.628-1.13.628s-.903-.235-1.13-.628c-.248-.432-.37-1.079-.37-1.872Zm7.732-3.441a.5.5 0 0 1 .264.441v6a.5.5 0 0 1-1 0V5.435l-.723.482a.5.5 0 1 1-.554-.832l1.5-1a.5.5 0 0 1 .513-.025Z" fill="#212121" />
    </symbol>
    <symbol id="tridentString" width="16" height="16" viewBox="0 0 16 16" fill="none">
        <path d="M2.943 5.001a.5.5 0 0 1 .464.333l1.774 5a.5.5 0 0 1-.942.334l-.237-.667H1.73l-.264.68a.5.5 0 0 1-.932-.36l1.935-5A.5.5 0 0 1 2.943 5Zm-.826 4h1.53l-.732-2.062L2.117 9Zm4.383-4h1.503c.162 0 .602 0 1.008.228.214.12.418.303.564.57.144.265.219.585.219.96 0 .456-.125.811-.32 1.078.148.106.287.246.398.428.162.267.246.594.246.978 0 .751-.352 1.227-.798 1.487a2.196 2.196 0 0 1-1.07.27H6.5a.5.5 0 0 1-.5-.5v-5a.5.5 0 0 1 .5-.5Zm1.5 1H7v1.5h1.024c.12 0 .33-.023.494-.123.125-.075.276-.221.276-.618 0-.245-.048-.393-.096-.48a.44.44 0 0 0-.177-.18c-.16-.089-.363-.099-.52-.099Zm-1 2.5v1.5h1.25c.14 0 .38-.027.567-.136.148-.086.301-.239.301-.622 0-.137-.017-.24-.04-.32a.644.644 0 0 0-.06-.138.474.474 0 0 0-.204-.18c-.195-.097-.441-.104-.628-.104H7Zm8.408-1.97c-.246-.687-.604-1.107-1.053-1.329-.41-.201-.834-.201-1.109-.201h-.027c-.554 0-.994.19-1.327.487-.322.288-.521.656-.646.99a4.065 4.065 0 0 0-.245 1.288v.026L11 7.8v.026c0 .383 0 1.085.25 1.724.13.335.334.669.656.936.325.268.742.445 1.257.503.417.046 1.663.013 2.23-1.246a.5.5 0 1 0-.911-.41c-.293.648-.93.693-1.208.662-.344-.039-.571-.149-.73-.28a1.264 1.264 0 0 1-.363-.528c-.176-.45-.181-.982-.181-1.383V7.79l.003-.059a3.278 3.278 0 0 1 .18-.905c.09-.242.214-.45.375-.593.15-.135.355-.233.66-.233.304 0 .51.008.694.098.158.078.371.257.555.769a.5.5 0 0 0 .941-.338Z" fill="#212121" />
    </symbol>
</svg>
