<?xml version="1.0" encoding="utf-8"?><svg xmlns="http://www.w3.org/2000/svg" xmlns:xlink="http://www.w3.org/1999/xlink"><symbol fill="none" viewBox="0 0 20 20" id="tag_20_marigold" xmlns="http://www.w3.org/2000/svg"><path d="M18.006 4.033a2 2 0 00-1.986-1.997l-4.89-.032a2 2 0 00-1.426.584L3.022 9.253a2 2 0 00-.002 2.83L7.97 17.03a2 2 0 002.828 0l6.631-6.63a2 2 0 00.586-1.418l-.008-4.95zM14 7a1 1 0 110-2 1 1 0 010 2z" fill="#EAA300"/><path d="M14 7a1 1 0 100-2 1 1 0 000 2zm-2.87-5a2 2 0 00-1.426.584L3.022 9.249a2 2 0 00-.002 2.83l4.949 4.948a2 2 0 002.828 0l6.631-6.63a2 2 0 00.586-1.418l-.008-4.95a2 2 0 00-1.986-1.997L11.13 2zm-.72 1.292A1 1 0 0111.123 3l4.89.032a1 1 0 01.993.999l.008 4.95a1 1 0 01-.293.708l-6.63 6.631a1 1 0 01-1.415 0l-4.949-4.948a1 1 0 01.001-1.415l6.682-6.665z" fill="#424242"/></symbol><symbol fill="none" viewBox="0 0 20 20" id="tag_lock_20_marigold" xmlns="http://www.w3.org/2000/svg"><path d="M18.006 4.033a2 2 0 00-1.986-1.997l-4.89-.032a2 2 0 00-1.426.584L3.022 9.252a2 2 0 00-.002 2.83l4.949 4.95A2 2 0 0010 17.52V14a2 2 0 011.5-1.937V12a3 3 0 015.68-1.351l.248-.249a2 2 0 00.586-1.417l-.008-4.95zM14 7a1 1 0 110-2 1 1 0 010 2zm-1.5 5v1H12a1 1 0 00-1 1v4a1 1 0 001 1h5a1 1 0 001-1v-4a1 1 0 00-1-1h-.5v-1a2 2 0 10-4 0zm1 1v-1a1 1 0 112 0v1h-2zm1 2.25a.75.75 0 110 1.5.75.75 0 010-1.5z" fill="#EAA300"/><path d="M14 7a1 1 0 100-2 1 1 0 000 2zm-2.87-5a2 2 0 00-1.426.584L3.022 9.249a2 2 0 00-.002 2.83l4.949 4.948a2 2 0 002.031.489V16.4a1 1 0 01-1.324-.08l-4.949-4.948a1 1 0 01.001-1.415l6.682-6.665A1 1 0 0111.123 3l4.89.032a1 1 0 01.993.999l.008 4.95a1 1 0 01-.293.708l-.145.145c.244.234.448.508.602.812l.25-.25a2 2 0 00.586-1.417l-.008-4.95a2 2 0 00-1.986-1.997L11.13 2zm1.37 10v1H12a1 1 0 00-1 1v4a1 1 0 001 1h5a1 1 0 001-1v-4a1 1 0 00-1-1h-.5v-1a2 2 0 10-4 0zm1 1v-1a1 1 0 112 0v1h-2zm1 2.25a.75.75 0 110 1.5.75.75 0 010-1.5z" fill="#424242"/></symbol></svg>