<?xml version="1.0" encoding="utf-8"?>
<!-- Generator: Adobe Illustrator 26.5.0, SVG Export Plug-In . SVG Version: 6.00 Build 0)  -->
<svg width="101" height="100" viewBox="0 0 101 100" fill="none" xmlns="http://www.w3.org/2000/svg">
<g filter="url(#filter0_ii_20040_123607)">
<path fill-rule="evenodd" clip-rule="evenodd" d="M49.995 8.01807C40.3428 8.01807 32.5182 15.8427 32.5182 25.4949V32.9999H27.5C21.4249 32.9999 16.5 37.9248 16.5 43.9999V80.9999C16.5 87.075 21.4249 91.9999 27.5 91.9999H73.5C79.5751 91.9999 84.5 87.075 84.5 80.9999V43.9999C84.5 37.9248 79.5751 32.9999 73.5 32.9999H68.4818V25.4949C68.4818 15.8427 60.6572 8.01807 51.005 8.01807H49.995ZM62.5182 32.9999V25.4949C62.5182 19.1364 57.3635 13.9817 51.005 13.9817H49.995C43.6365 13.9817 38.4818 19.1364 38.4818 25.4949V32.9999H62.5182Z" fill="url(#paint0_linear_20040_123607)"/>
</g>
<g style="mix-blend-mode:multiply" filter="url(#filter1_ii_20040_123607)">
<path d="M43.5 62C43.5 58.134 46.634 55 50.5 55C54.366 55 57.5 58.134 57.5 62C57.5 65.866 54.366 69 50.5 69C46.634 69 43.5 65.866 43.5 62Z" fill="#212121"/>
<path d="M43.5 62C43.5 58.134 46.634 55 50.5 55C54.366 55 57.5 58.134 57.5 62C57.5 65.866 54.366 69 50.5 69C46.634 69 43.5 65.866 43.5 62Z" fill="url(#paint1_linear_20040_123607)"/>
</g>
<defs>
<filter id="filter0_ii_20040_123607" x="16.5" y="8.01807" width="68" height="87.9819" filterUnits="userSpaceOnUse" color-interpolation-filters="sRGB">
<feFlood flood-opacity="0" result="BackgroundImageFix"/>
<feBlend mode="normal" in="SourceGraphic" in2="BackgroundImageFix" result="shape"/>
<feColorMatrix in="SourceAlpha" type="matrix" values="0 0 0 0 0 0 0 0 0 0 0 0 0 0 0 0 0 0 127 0" result="hardAlpha"/>
<feOffset dy="3"/>
<feGaussianBlur stdDeviation="3.5"/>
<feComposite in2="hardAlpha" operator="arithmetic" k2="-1" k3="1"/>
<feColorMatrix type="matrix" values="0 0 0 0 0.0666667 0 0 0 0 0.0627451 0 0 0 0 0.0588235 0 0 0 0.2 0"/>
<feBlend mode="normal" in2="shape" result="effect1_innerShadow_20040_123607"/>
<feColorMatrix in="SourceAlpha" type="matrix" values="0 0 0 0 0 0 0 0 0 0 0 0 0 0 0 0 0 0 127 0" result="hardAlpha"/>
<feOffset dy="4"/>
<feGaussianBlur stdDeviation="9.5"/>
<feComposite in2="hardAlpha" operator="arithmetic" k2="-1" k3="1"/>
<feColorMatrix type="matrix" values="0 0 0 0 0.0666667 0 0 0 0 0.0627451 0 0 0 0 0.0588235 0 0 0 0.2 0"/>
<feBlend mode="normal" in2="effect1_innerShadow_20040_123607" result="effect2_innerShadow_20040_123607"/>
</filter>
<filter id="filter1_ii_20040_123607" x="43.5" y="55" width="14" height="18" filterUnits="userSpaceOnUse" color-interpolation-filters="sRGB">
<feFlood flood-opacity="0" result="BackgroundImageFix"/>
<feBlend mode="normal" in="SourceGraphic" in2="BackgroundImageFix" result="shape"/>
<feColorMatrix in="SourceAlpha" type="matrix" values="0 0 0 0 0 0 0 0 0 0 0 0 0 0 0 0 0 0 127 0" result="hardAlpha"/>
<feOffset dy="3"/>
<feGaussianBlur stdDeviation="3.5"/>
<feComposite in2="hardAlpha" operator="arithmetic" k2="-1" k3="1"/>
<feColorMatrix type="matrix" values="0 0 0 0 0.0666667 0 0 0 0 0.0627451 0 0 0 0 0.0588235 0 0 0 0.2 0"/>
<feBlend mode="normal" in2="shape" result="effect1_innerShadow_20040_123607"/>
<feColorMatrix in="SourceAlpha" type="matrix" values="0 0 0 0 0 0 0 0 0 0 0 0 0 0 0 0 0 0 127 0" result="hardAlpha"/>
<feOffset dy="4"/>
<feGaussianBlur stdDeviation="9.5"/>
<feComposite in2="hardAlpha" operator="arithmetic" k2="-1" k3="1"/>
<feColorMatrix type="matrix" values="0 0 0 0 0.0666667 0 0 0 0 0.0627451 0 0 0 0 0.0588235 0 0 0 0.2 0"/>
<feBlend mode="normal" in2="effect1_innerShadow_20040_123607" result="effect2_innerShadow_20040_123607"/>
</filter>
<linearGradient id="paint0_linear_20040_123607" x1="65.1237" y1="8.01807" x2="31.1773" y2="95.492" gradientUnits="userSpaceOnUse">
<stop stop-color="#D1D1D1"/>
<stop offset="1" stop-color="#B3B0AD"/>
<stop offset="1" stop-color="#B3B3B3"/>
</linearGradient>
<linearGradient id="paint1_linear_20040_123607" x1="52.9198" y1="56.642" x2="49.9702" y2="67.4649" gradientUnits="userSpaceOnUse">
<stop stop-color="#F0F0F0"/>
<stop offset="1" stop-color="#DBDBDB"/>
</linearGradient>
</defs>
</svg>