<?xml version="1.0" encoding="utf-8"?><svg xmlns="http://www.w3.org/2000/svg" xmlns:xlink="http://www.w3.org/1999/xlink"><symbol viewBox="0 0 32 32" fill="none" id="add_circle_32_regular" xmlns="http://www.w3.org/2000/svg">
<path d="M15.9531 10C15.9531 9.44771 16.4008 9 16.9531 9C17.5054 9 17.9531 9.44772 17.9531 10V15H22.9531C23.5054 15 23.9531 15.4477 23.9531 16C23.9531 16.5523 23.5054 17 22.9531 17H17.9531V22C17.9531 22.5523 17.5054 23 16.9531 23C16.4008 23 15.9531 22.5523 15.9531 22V17H10.9531C10.4008 17 9.95312 16.5523 9.95312 16C9.95312 15.4477 10.4008 15 10.9531 15H15.9531V10ZM30.9531 16C30.9531 23.732 24.6851 30 16.9531 30C9.22114 30 2.95312 23.732 2.95312 16C2.95312 8.26801 9.22114 2 16.9531 2C24.6851 2 30.9531 8.26801 30.9531 16ZM28.9531 16C28.9531 9.37258 23.5805 4 16.9531 4C10.3257 4 4.95312 9.37258 4.95312 16C4.95312 22.6274 10.3257 28 16.9531 28C23.5805 28 28.9531 22.6274 28.9531 16Z" fill="currentColor"/>
</symbol><symbol viewBox="0 0 16 16" fill="none" id="arrow_exit_multiple_20_filled" xmlns="http://www.w3.org/2000/svg">
<path d="M1.49068 12.5L1.49068 3.5C1.49068 2.39543 2.38055 1.5 3.47826 1.5H9.25466C9.6663 1.5 10 1.16421 10 0.75C10 0.335786 9.6663 0 9.25466 0H3.47826C1.55727 0 0 1.567 0 3.5V12.5C0 14.433 1.55727 16 3.47826 16L9.25466 16C9.6663 16 10 15.6642 10 15.25C10 14.8358 9.6663 14.5 9.25466 14.5L3.47826 14.5C2.38055 14.5 1.49068 13.6046 1.49068 12.5Z" fill="black"/>
<path d="M12.2375 3.17719C12.5304 2.8843 13.0053 2.8843 13.2982 3.17719L15.066 4.94496C15.3589 5.23785 15.3589 5.71272 15.066 6.00562L13.2982 7.77338C13.0053 8.06628 12.5304 8.06628 12.2376 7.77338C11.9447 7.48049 11.9447 7.00562 12.2376 6.71272L12.4501 6.50019H6.75C6.33579 6.50019 6 6.1644 6 5.75019C6 5.33598 6.33579 5.00019 6.75 5.00019H12.9999L12.2375 4.23785C11.9447 3.94496 11.9447 3.47008 12.2375 3.17719Z" fill="black"/>
<path d="M9.04761 8.17719C8.75471 7.8843 8.27984 7.8843 7.98695 8.17719L6.21918 9.94496C5.92629 10.2379 5.92629 10.7127 6.21918 11.0056L7.98695 12.7734C8.27984 13.0663 8.75471 13.0663 9.04761 12.7734C9.3405 12.4805 9.3405 12.0056 9.04761 11.7127L8.83507 11.5002H14.5352C14.9494 11.5002 15.2852 11.1644 15.2852 10.7502C15.2852 10.336 14.9494 10.0002 14.5352 10.0002H8.28527L9.04761 9.23785C9.3405 8.94496 9.3405 8.47008 9.04761 8.17719Z" fill="black"/>
</symbol><symbol viewBox="0 0 16 16" fill="none" id="arrow_exit_multiple_20_regular" xmlns="http://www.w3.org/2000/svg">
<path d="M10 15.5C10 15.7761 9.77614 16 9.5 16H3C1.34315 16 0 14.6569 0 13V3C0 1.34315 1.34315 0 3 0H9.5C9.77614 0 10 0.223858 10 0.5C10 0.776142 9.77614 1 9.5 1H3C1.89543 1 1 1.89543 1 3V13C1 14.1046 1.89543 15 3 15H9.5C9.77614 15 10 15.2239 10 15.5Z" fill="black"/>
<path d="M12.4143 3.35397C12.6096 3.1587 12.9261 3.1587 13.1214 3.35397L14.8892 5.12173C15.0844 5.31699 15.0844 5.63358 14.8892 5.82884L13.1214 7.59661C12.9261 7.79187 12.6096 7.79187 12.4143 7.59661C12.219 7.40134 12.219 7.08476 12.4143 6.8895L13.3036 6.00019H6.5C6.22386 6.00019 6 5.77633 6 5.50019C6 5.22405 6.22386 5.00019 6.5 5.00019H13.3534L12.4143 4.06107C12.219 3.86581 12.219 3.54923 12.4143 3.35397Z" fill="black"/>
<path d="M8.62087 8.35397C8.42561 8.1587 8.10902 8.1587 7.91376 8.35397L6.14599 10.1217C5.95073 10.317 5.95073 10.6336 6.14599 10.8288L7.91376 12.5966C8.10902 12.7919 8.4256 12.7919 8.62087 12.5966C8.81613 12.4013 8.81613 12.0848 8.62087 11.8895L7.73156 11.0002H14.5352C14.8113 11.0002 15.0352 10.7763 15.0352 10.5002C15.0352 10.224 14.8113 10.0002 14.5352 10.0002H7.68175L8.62087 9.06107C8.81613 8.86581 8.81613 8.54923 8.62087 8.35397Z" fill="black"/>
</symbol><symbol viewBox="0 0 32 32" fill="none" id="book_database_32_regular" xmlns="http://www.w3.org/2000/svg">
<path d="M7.95312 6C7.95312 4.89543 8.84856 4 9.95312 4H23.9531C25.0577 4 25.9531 4.89543 25.9531 6V14.5308C26.649 14.574 27.3191 14.6617 27.9531 14.7883V6C27.9531 3.79086 26.1623 2 23.9531 2H9.95312C7.74399 2 5.95312 3.79086 5.95312 6V26C5.95312 28.2091 7.74399 30 9.95312 30H17.3367C16.7893 29.4169 16.5336 28.7754 16.4531 28H9.95312C8.84856 28 7.95312 27.1046 7.95312 26H16.4531V24H7.95312V6ZM11.7031 6C10.7366 6 9.95312 6.7835 9.95312 7.75V10.25C9.95312 11.2165 10.7366 12 11.7031 12H22.2031C23.1696 12 23.9531 11.2165 23.9531 10.25V7.75C23.9531 6.7835 23.1696 6 22.2031 6H11.7031ZM11.9531 10V8H21.9531V10H11.9531ZM17.9531 28C17.9531 28.5464 18.294 29.0587 18.8896 29.5C20.0999 30.3967 22.3621 31 24.9531 31C28.8191 31 31.9531 29.6569 31.9531 28V21.6727C31.5167 22.0028 31.0166 22.2759 30.4938 22.5L30.4531 22.5173C29.853 22.7711 29.1791 22.9799 28.4531 23.1388C27.3775 23.3742 26.1874 23.5 24.9531 23.5C22.8669 23.5 20.9069 23.1405 19.4125 22.5C18.8896 22.2759 18.3895 22.0028 17.9531 21.6727V28ZM28.4531 21.5987C29.2251 21.4073 29.9039 21.1545 30.4531 20.856C31.3926 20.3453 31.9531 19.7007 31.9531 19C31.9531 18.2993 31.3926 17.6547 30.4531 17.144C29.9039 16.8455 29.2251 16.5927 28.4531 16.4013C27.4235 16.1461 26.2281 16 24.9531 16C21.0871 16 17.9531 17.3431 17.9531 19C17.9531 20.6569 21.0871 22 24.9531 22C26.2281 22 27.4235 21.8539 28.4531 21.5987Z" fill="currentColor"/>
</symbol><symbol viewBox="0 0 21 20" fill="none" id="circlegroup_20_regular" xmlns="http://www.w3.org/2000/svg">
<path d="M10.5 2C12.0436 2 13.3149 3.16577 13.4815 4.66491C15.8564 5.78457 17.5 8.20036 17.5 11C17.5 11.0568 17.4993 11.1135 17.498 11.17C18.6642 11.5813 19.5 12.693 19.5 14C19.5 15.6569 18.1569 17 16.5 17C15.8842 17 15.3117 16.8145 14.8354 16.4962C13.6432 17.4379 12.1372 18 10.5 18C8.86276 18 7.3568 17.4379 6.16457 16.4962C5.68829 16.8145 5.11581 17 4.5 17C2.84315 17 1.5 15.6569 1.5 14C1.5 12.693 2.33577 11.5813 3.50202 11.17C3.50068 11.1135 3.5 11.0568 3.5 11C3.5 8.20036 5.14359 5.78457 7.5185 4.66491C7.68512 3.16577 8.95642 2 10.5 2ZM10.5 3C9.39543 3 8.5 3.89543 8.5 5C8.5 6.10457 9.39543 7 10.5 7C11.6046 7 12.5 6.10457 12.5 5C12.5 3.89543 11.6046 3 10.5 3ZM10.5 8C9.10187 8 7.92712 7.04357 7.59433 5.74929C5.74904 6.77262 4.50001 8.74045 4.5 11C6.15685 11 7.5 12.3431 7.5 14C7.5 14.6755 7.27671 15.2989 6.89991 15.8004C7.90272 16.5537 9.14923 17 10.5 17C11.8508 17 13.0973 16.5537 14.1001 15.8004C13.7233 15.2989 13.5 14.6755 13.5 14C13.5 12.3431 14.8431 11 16.5 11C16.5 8.74045 15.251 6.77263 13.4057 5.7493C13.0729 7.04357 11.8981 8 10.5 8ZM4.5 12C3.39543 12 2.5 12.8954 2.5 14C2.5 15.1046 3.39543 16 4.5 16C5.60457 16 6.5 15.1046 6.5 14C6.5 12.8954 5.60457 12 4.5 12ZM14.5 14C14.5 15.1046 15.3954 16 16.5 16C17.6046 16 18.5 15.1046 18.5 14C18.5 12.8954 17.6046 12 16.5 12C15.3954 12 14.5 12.8954 14.5 14Z" fill="#242424"/>
</symbol><symbol viewBox="0 0 20 20" fill="none" id="cloud_20_filled" xmlns="http://www.w3.org/2000/svg">
<path d="M10 4C12.8166 4 14.4145 5.92329 14.6469 8.24599L14.7179 8.24599C16.5306 8.24599 18 9.75792 18 11.623C18 13.4881 16.5306 15 14.7179 15H5.28205C3.46942 15 2 13.4881 2 11.623C2 9.75792 3.46942 8.24599 5.28207 8.24599L5.35314 8.24599C5.58687 5.90802 7.18335 4 10 4Z" fill="currentColor"/>
</symbol><symbol viewBox="0 0 20 20" fill="none" id="cloud_20_regular" xmlns="http://www.w3.org/2000/svg">
<path d="M10 4C12.8166 4 14.4145 5.92329 14.6469 8.24599L14.7179 8.24599C16.5306 8.24599 18 9.75792 18 11.623C18 13.4881 16.5306 15 14.7179 15H5.28205C3.46942 15 2 13.4881 2 11.623C2 9.82009 3.3731 8.34717 5.10199 8.25098L5.35314 8.24599C5.58687 5.90802 7.18335 4 10 4ZM10 5C7.88606 5 6.55108 6.31588 6.34818 8.34547C6.29707 8.85669 5.86688 9.24601 5.3531 9.24599L5.28207 9.24599C4.02819 9.24599 3 10.3039 3 11.623C3 12.9421 4.02819 14 5.28205 14H14.7179C15.9718 14 17 12.9421 17 11.623C17 10.3039 15.9718 9.24599 14.718 9.24599L14.6469 9.24599C14.1332 9.24601 13.703 8.85673 13.6518 8.34554C13.4497 6.32493 12.1085 5 10 5Z" fill="currentColor"/>
</symbol><symbol viewBox="0 0 20 20" fill="none" id="column_double_compare_20_filled" xmlns="http://www.w3.org/2000/svg">
  <path d="M7 3H3C2.46957 3 1.96086 3.21071 1.58579 3.58579C1.21071 3.96086 1 4.46957 1 5V15C1 15.5304 1.21071 16.0391 1.58579 16.4142C1.96086 16.7893 2.46957 17 3 17H7C7.53043 17 8.03914 16.7893 8.41421 16.4142C8.78929 16.0391 9 15.5304 9 15V5C9 4.46957 8.78929 3.96086 8.41421 3.58579C8.03914 3.21071 7.53043 3 7 3ZM8 7H2V6.037H8V7ZM17 3H13C12.4696 3 11.9609 3.21071 11.5858 3.58579C11.2107 3.96086 11 4.46957 11 5V15C11 15.5304 11.2107 16.0391 11.5858 16.4142C11.9609 16.7893 12.4696 17 13 17H17C17.5304 17 18.0391 16.7893 18.4142 16.4142C18.7893 16.0391 19 15.5304 19 15V5C19 4.46957 18.7893 3.96086 18.4142 3.58579C18.0391 3.21071 17.5304 3 17 3ZM18 13H12V10H18V13Z" fill="currentColor"/>
</symbol><symbol viewBox="0 0 8 14" fill="none" id="column_inline_14_filled" xmlns="http://www.w3.org/2000/svg">
<path d="M2 0H6C6.53043 0 7.03914 0.210714 7.41421 0.585786C7.78929 0.960859 8 1.46957 8 2V12C8 12.5304 7.78929 13.0391 7.41421 13.4142C7.03914 13.7893 6.53043 14 6 14H2C1.46957 14 0.960859 13.7893 0.585786 13.4142C0.210714 13.0391 0 12.5304 0 12V2C0 1.46957 0.210714 0.960859 0.585786 0.585786C0.960859 0.210714 1.46957 0 2 0ZM1 4H7V3.037H1V4ZM7 7H1V10H7V7Z" fill="currentColor"/>
</symbol><symbol viewBox="0 0 8 14" fill="none" id="column_inline_14_regular" xmlns="http://www.w3.org/2000/svg">
<path d="M2 0C1.46957 0 0.960858 0.210712 0.585785 0.585785C0.210712 0.960858 0 1.46957 0 2V12C0 12.5304 0.210712 13.0391 0.585785 13.4142C0.960858 13.7893 1.46957 14 2 14H6C6.53043 14 7.03914 13.7893 7.41422 13.4142C7.78929 13.0391 8 12.5304 8 12V2C8 1.46957 7.78929 0.960858 7.41422 0.585785C7.03914 0.210712 6.53043 0 6 0H2ZM6 1C6.26522 1 6.51957 1.10536 6.70711 1.29289C6.89464 1.48043 7 1.73478 7 2V3H1V2C1 1.73478 1.10536 1.48043 1.29289 1.29289C1.48043 1.10536 1.73478 1 2 1H6ZM1 4H7V7H1V4ZM1 10H7V12C7 12.2652 6.89464 12.5196 6.70711 12.7071C6.51957 12.8946 6.26522 13 6 13H2C1.73478 13 1.48043 12.8946 1.29289 12.7071C1.10536 12.5196 1 12.2652 1 12V10Z" fill="currentColor"/>
</symbol><symbol viewBox="0 0 20 20" fill="none" id="copydata_16_regular" xmlns="http://www.w3.org/2000/svg">
<path d="M3.74999 16.8848V15.9123L3.67624 15.8985C3.33802 15.8167 3.00662 15.7089 2.68499 15.576C2.58749 15.5373 2.45749 15.4773 2.29499 15.3948C2.12989 15.3121 1.97 15.2195 1.81624 15.1173C1.66769 15.0202 1.53311 14.9033 1.41624 14.7698C1.31495 14.6665 1.25569 14.5293 1.24999 14.3848V4.98978C1.64387 5.24219 2.06697 5.44577 2.50999 5.59604C2.91633 5.73147 3.3304 5.8425 3.74999 5.92853V5.63478C3.75467 5.31118 3.81296 4.99058 3.92249 4.68603C3.89749 4.68603 3.87249 4.67853 3.84749 4.67228C3.49805 4.59563 3.15399 4.49625 2.81749 4.37478C2.51509 4.26711 2.22409 4.12978 1.94874 3.96478C1.71299 3.82907 1.51089 3.64192 1.35749 3.41728C1.32662 3.3747 1.30023 3.32904 1.27874 3.28103C1.25947 3.2347 1.24969 3.18497 1.24999 3.13478C1.25592 2.99032 1.31515 2.85316 1.41624 2.74978C1.53348 2.61699 1.66802 2.50054 1.81624 2.40353C1.97028 2.3014 2.13013 2.20833 2.29499 2.12478C2.45749 2.04145 2.58749 1.98145 2.68499 1.94478C3.0081 1.8167 3.33922 1.7098 3.67624 1.62478C4.02541 1.53645 4.38207 1.46479 4.74624 1.40979C5.10999 1.35479 5.47374 1.31604 5.83499 1.29229C6.19624 1.26854 6.54249 1.25853 6.87499 1.25853C7.20749 1.25853 7.55374 1.26979 7.91499 1.29229C8.27624 1.31479 8.63874 1.35479 9.00374 1.40979C9.12249 1.42729 9.23499 1.45854 9.35124 1.47979C9.64124 1.43479 9.92749 1.36853 10.2175 1.34228C10.8325 1.28479 11.385 1.25853 11.875 1.25853C12.075 1.25853 12.2912 1.26603 12.5087 1.27478C12.2736 1.12041 12.0256 0.986584 11.7675 0.874785C11.2432 0.650569 10.6992 0.475648 10.1425 0.352285C9.57864 0.228013 9.0075 0.139503 8.43249 0.0872852C7.86249 0.0347852 7.34332 0.00895182 6.87499 0.00978516C6.40665 0.0106185 5.89249 0.0364518 5.33249 0.0872852C4.75255 0.140834 4.17673 0.232279 3.60874 0.361035C3.04737 0.486638 2.49816 0.661481 1.96749 0.883535C1.4914 1.07516 1.05583 1.35508 0.683739 1.70853C0.487817 1.89574 0.321349 2.11152 0.189989 2.34853C0.060726 2.59016 -0.00467463 2.8608 -1.11054e-05 3.13478V14.3848C-0.00155181 14.6568 0.0636893 14.9251 0.189989 15.166C0.319321 15.4072 0.488353 15.6248 0.689989 15.8098C1.07039 16.1614 1.51011 16.4429 1.98874 16.641C2.51299 16.865 3.05702 17.0395 3.61374 17.1623C3.67249 17.176 3.73874 17.1785 3.79124 17.191C3.77624 17.0885 3.74999 16.9898 3.74999 16.8848Z" fill="#323130"/>
<path d="M17.5 15.0001V16.8851C17.4943 17.0296 17.435 17.1669 17.3337 17.2701C17.2166 17.4033 17.082 17.5202 16.9337 17.6176C16.78 17.7198 16.6201 17.8125 16.455 17.8951C16.2925 17.9776 16.1625 18.0376 16.065 18.0764C15.7434 18.2092 15.412 18.317 15.0737 18.3989C14.725 18.4826 14.3687 18.5539 14.0037 18.6089C13.6387 18.6639 13.2762 18.7026 12.915 18.7251C12.5537 18.7476 12.2075 18.7601 11.875 18.7601C11.5425 18.7601 11.1962 18.7501 10.835 18.7251C10.4737 18.7001 10.11 18.6639 9.74624 18.6089C9.38249 18.5539 9.02499 18.4839 8.67624 18.3989C8.33802 18.317 8.00662 18.2092 7.68499 18.0764C7.58749 18.0376 7.45749 17.9776 7.29499 17.8951C7.12989 17.8125 6.97 17.7198 6.81624 17.6176C6.66769 17.5206 6.53311 17.4036 6.41624 17.2701C6.31495 17.1669 6.25569 17.0296 6.24999 16.8851V7.49012C6.64387 7.74252 7.06697 7.9461 7.50999 8.09637C7.98534 8.26002 8.47152 8.39033 8.96499 8.48637C9.46375 8.58355 9.9674 8.65365 10.4737 8.69637C10.9737 8.73887 11.4408 8.76012 11.875 8.76012C12.3092 8.76012 12.7746 8.73887 13.2712 8.69637C13.7775 8.65314 14.2811 8.58304 14.78 8.48637C15.2752 8.3908 15.7631 8.26048 16.24 8.09637C16.683 7.9461 17.1061 7.74252 17.5 7.49012V16.2501H18.75V5.63512C18.7518 5.36304 18.6866 5.09471 18.56 4.85387C18.4303 4.61262 18.2613 4.39464 18.06 4.20887C17.6812 3.85759 17.2437 3.57541 16.7675 3.37512C16.2432 3.1509 15.6992 2.97598 15.1425 2.85262C14.5791 2.72714 14.0084 2.63737 13.4337 2.58387C12.8637 2.53137 12.3446 2.50553 11.8762 2.50637C11.4079 2.5072 10.8933 2.53428 10.3325 2.58762C9.75255 2.64117 9.17673 2.73261 8.60874 2.86137C8.04737 2.98697 7.49816 3.16181 6.96749 3.38387C6.4914 3.5755 6.05583 3.85541 5.68374 4.20887C5.48782 4.39608 5.32135 4.61185 5.18999 4.84887C5.06073 5.09049 4.99533 5.36113 4.99999 5.63512V16.8851C4.99845 17.1572 5.06369 17.4254 5.18999 17.6664C5.31743 17.907 5.48433 18.1246 5.68374 18.3101C6.06414 18.6618 6.50386 18.9432 6.98249 19.1414C7.50674 19.3654 8.05077 19.5399 8.60749 19.6626C9.17071 19.7888 9.74148 19.8786 10.3162 19.9314C10.8846 19.9839 11.4037 20.0101 11.8737 20.0101C12.3287 20.0101 12.8429 19.9839 13.4162 19.9314C13.9961 19.8782 14.5719 19.7871 15.14 19.6589C15.7012 19.5327 16.2504 19.3579 16.7812 19.1364C17.2575 18.9445 17.6931 18.6641 18.065 18.3101C18.2624 18.1232 18.431 17.9079 18.565 17.6714C18.6923 17.4292 18.7559 17.1586 18.75 16.8851V15.0001H17.5ZM6.41624 5.25012C6.53348 5.11733 6.66802 5.00087 6.81624 4.90387C6.97028 4.80173 7.13013 4.70866 7.29499 4.62512C7.46166 4.54178 7.59166 4.48178 7.68499 4.44512C8.0081 4.31703 8.33922 4.21014 8.67624 4.12512C9.02457 4.03595 9.38124 3.96428 9.74624 3.91012C10.11 3.85512 10.4737 3.81637 10.835 3.79262C11.1962 3.76887 11.5425 3.75887 11.875 3.75887C12.2075 3.75887 12.5537 3.77012 12.915 3.79262C13.2762 3.81512 13.6387 3.85512 14.0037 3.91012C14.3687 3.96512 14.725 4.03512 15.0737 4.12512C15.4107 4.20932 15.7418 4.31538 16.065 4.44262C16.1625 4.48095 16.2925 4.54095 16.455 4.62262C16.6198 4.70616 16.7797 4.79923 16.9337 4.90137C17.0817 4.9987 17.2162 5.11512 17.3337 5.24762C17.4354 5.35163 17.4947 5.48978 17.5 5.63512C17.5003 5.6853 17.4905 5.73503 17.4712 5.78137C17.4497 5.82937 17.4234 5.87503 17.3925 5.91762C17.2347 6.13978 17.032 6.32631 16.7975 6.46512C16.5236 6.63036 16.2338 6.76772 15.9325 6.87512C15.5959 6.99642 15.2519 7.09579 14.9025 7.17262C14.5375 7.25512 14.175 7.31887 13.8137 7.36887C13.4525 7.41887 13.1037 7.45262 12.7687 7.47512C12.4337 7.49762 12.135 7.51012 11.875 7.51012C11.615 7.51012 11.3162 7.50012 10.9812 7.47512C10.6462 7.45012 10.2975 7.41762 9.93624 7.36887C9.57499 7.32012 9.21249 7.25012 8.84749 7.17262C8.49805 7.09596 8.15399 6.99658 7.81749 6.87512C7.51509 6.76745 7.22409 6.63011 6.94874 6.46512C6.71299 6.3294 6.51089 6.14226 6.35749 5.91762C6.32662 5.87503 6.30023 5.82937 6.27874 5.78137C6.25947 5.73503 6.24969 5.6853 6.24999 5.63512C6.25592 5.49065 6.31515 5.35349 6.41624 5.25012V5.25012Z" fill="#323130"/>
</symbol><symbol viewBox="0 0 20 20" fill="none" id="desktop_tower_20_filled" xmlns="http://www.w3.org/2000/svg">
<path d="M4 2C2.89543 2 2 2.89543 2 4V16C2 17.1046 2.89543 18 4 18H6.08535C6.03008 17.8436 6 17.6753 6 17.5C6 16.6716 6.67157 16 7.5 16H7C5.34315 16 4 14.6569 4 13V7C4 5.34315 5.34315 4 7 4H10C10 2.89543 9.10457 2 8 2H4ZM7 5C5.89543 5 5 5.89543 5 7V13C5 14.1046 5.89543 15 7 15H9V17H7.5C7.22386 17 7 17.2239 7 17.5C7 17.7761 7.22386 18 7.5 18H15.5C15.7761 18 16 17.7761 16 17.5C16 17.2239 15.7761 17 15.5 17H14V15H16C17.1046 15 18 14.1046 18 13V7C18 5.89543 17.1046 5 16 5H7ZM13 17H10V15H13V17Z" fill="currentColor"/>
</symbol><symbol viewBox="0 0 20 20" fill="none" id="desktop_tower_20_regular" xmlns="http://www.w3.org/2000/svg">
<path d="M4 2C2.89543 2 2 2.89543 2 4V16C2 17.1046 2.89543 18 4 18H6.08535C6.03008 17.8436 6 17.6753 6 17.5C6 17.3247 6.03008 17.1564 6.08535 17H4C3.44772 17 3 16.5523 3 16V4C3 3.44772 3.44772 3 4 3H8C8.55228 3 9 3.44772 9 4H10C10 2.89543 9.10457 2 8 2H4ZM5 7C5 5.89543 5.89543 5 7 5H16C17.1046 5 18 5.89543 18 7V13C18 14.1046 17.1046 15 16 15H14V17H15.5C15.7761 17 16 17.2239 16 17.5C16 17.7761 15.7761 18 15.5 18H7.5C7.22386 18 7 17.7761 7 17.5C7 17.2239 7.22386 17 7.5 17H9V15H7C5.89543 15 5 14.1046 5 13V7ZM10 17H13V15H10V17ZM16 14C16.5523 14 17 13.5523 17 13V7C17 6.44772 16.5523 6 16 6H7C6.44772 6 6 6.44772 6 7V13C6 13.5523 6.44772 14 7 14H16Z" fill="currentColor"/>
</symbol><symbol viewBox="0 0 20 20" id="equal_20_regular" xmlns="http://www.w3.org/2000/svg">
<path class="anOfficeIconColors_HighContrast" d="M3.5,8h13C16.776,8,17,7.776,17,7.5S16.776,7,16.5,7h-13C3.224,7,3,7.224,3,7.5S3.224,8,3.5,8z M16.5,12h-13  C3.224,12,3,12.224,3,12.5S3.224,13,3.5,13h13c0.276,0,0.5-0.224,0.5-0.5S16.776,12,16.5,12z"/>
<path class="anOfficeIconColors_m20" d="M3.5,8h13C16.776,8,17,7.776,17,7.5S16.776,7,16.5,7h-13C3.224,7,3,7.224,3,7.5S3.224,8,3.5,8z M16.5,12h-13  C3.224,12,3,12.224,3,12.5S3.224,13,3.5,13h13c0.276,0,0.5-0.224,0.5-0.5S16.776,12,16.5,12z"/>
</symbol><symbol viewBox="0 0 20 20" fill="none" id="gift_open_warning_20_regular" xmlns="http://www.w3.org/2000/svg">
<g id="aoGift Open Warning">
<g id="aoShape">
<path d="M13.5001 4.25C13.9143 4.25 14.2501 3.91421 14.2501 3.5C14.2501 3.08579 13.9143 2.75 13.5001 2.75C13.0859 2.75 12.7501 3.08579 12.7501 3.5C12.7501 3.91421 13.0859 4.25 13.5001 4.25Z" fill="currentColor"/>
<path d="M5.00008 10.5C5.00008 10.3199 4.90318 10.1537 4.74642 10.0649C4.58967 9.97615 4.39729 9.97857 4.24283 10.0713L1.74283 11.5713C1.50604 11.7133 1.42926 12.0205 1.57133 12.2572C1.7134 12.494 2.02053 12.5708 2.25732 12.4287L4.00008 11.3831V15.5C4.00008 16.8807 5.11936 18 6.50007 18H9.00488C9.00457 17.703 9.07175 17.398 9.21836 17.1044L9.27052 17H6.50007C5.67165 17 5.00008 16.3284 5.00008 15.5V10.5Z" fill="currentColor"/>
<path d="M17.0001 5.5C17.0001 5.22386 16.7762 5 16.5001 5C16.2239 5 16.0001 5.22386 16.0001 5.5V6H15.5001C15.2239 6 15.0001 6.22386 15.0001 6.5C15.0001 6.77614 15.2239 7 15.5001 7H16.0001V7.5C16.0001 7.77614 16.2239 8 16.5001 8C16.7762 8 17.0001 7.77614 17.0001 7.5V7H17.5001C17.7762 7 18.0001 6.77614 18.0001 6.5C18.0001 6.22386 17.7762 6 17.5001 6H17.0001V5.5Z" fill="currentColor"/>
<path d="M9.50007 5C7.84322 5 6.50007 6.34315 6.50007 8C6.50007 9.38071 7.61936 10.5 9.00007 10.5C10.1046 10.5 11.0001 9.60457 11.0001 8.5C11.0001 7.67157 10.3285 7 9.50007 7C8.94779 7 8.50007 7.44772 8.50007 8C8.50007 8.27614 8.72393 8.5 9.00007 8.5C9.27622 8.5 9.50007 8.27614 9.50007 8C9.77622 8 10.0001 8.22386 10.0001 8.5C10.0001 9.05228 9.55236 9.5 9.00007 9.5C8.17165 9.5 7.50007 8.82843 7.50007 8C7.50007 6.89543 8.3955 6 9.50007 6C10.8808 6 12.0001 7.11929 12.0001 8.5C12.0001 10.1569 10.6569 11.5 9.00007 11.5C8.72393 11.5 8.50007 11.7239 8.50007 12C8.50007 12.2761 8.72393 12.5 9.00007 12.5C11.2092 12.5 13.0001 10.7091 13.0001 8.5C13.0001 6.567 11.4331 5 9.50007 5Z" fill="currentColor"/>
<path d="M13.6029 10.5536L10.1068 17.552C9.77438 18.2174 10.2583 19 11.0022 19H17.9978C18.7419 19 19.2258 18.2171 18.893 17.5517L15.3935 10.5532C15.0246 9.81544 13.9716 9.81564 13.6029 10.5536ZM14.9983 12.4951V15.4974C14.9983 15.7738 14.7743 15.9978 14.4979 15.9978C14.2215 15.9978 13.9975 15.7738 13.9975 15.4974V12.4951C13.9975 12.2187 14.2215 11.9947 14.4979 11.9947C14.7743 11.9947 14.9983 12.2187 14.9983 12.4951ZM14.4979 17.9993C14.2215 17.9993 13.9975 17.7753 13.9975 17.499C13.9975 17.2226 14.2215 16.9986 14.4979 16.9986C14.7743 16.9986 14.9983 17.2226 14.9983 17.499C14.9983 17.7753 14.7743 17.9993 14.4979 17.9993Z" fill="currentColor"/>
</g>
</g>
</symbol><symbol viewBox="0 0 11 11" fill="none" id="navigateExternalLine_11_regular" xmlns="http://www.w3.org/2000/svg">
<path d="M10 6H11V11H0V0H5V1H1V10H10V6ZM11 0V5H10V1.71094L5.35156 6.35156L4.64844 5.64844L9.28906 1H6V0H11Z" fill="currentColor"/>
</symbol><symbol viewBox="0 0 17 16" fill="none" id="pbi_capacity_16_regular" xmlns="http://www.w3.org/2000/svg">
<path fill-rule="evenodd" clip-rule="evenodd" d="M16.062 5.29198L8.06201 15.1415L0.0620117 5.29198L4.81422 0.221191H11.3098L16.062 5.29198ZM10.1682 4.75216L8.89387 1.35393H7.23015L5.95582 4.75216H10.1682ZM8.06201 13.4778L5.89387 5.8849H10.2302L8.06201 13.4778ZM5.07087 1.35393L1.89388 4.75216H4.92927L6.20361 1.35393H5.07087ZM6.57529 11.7875L1.77884 5.8849H4.88503L6.57529 11.7875ZM9.54872 11.7875L14.3452 5.8849H11.239L9.54872 11.7875ZM11.0531 1.35394L14.2301 4.75216H11.1947L9.9204 1.35394H11.0531Z" fill="currentColor"/>
</symbol><symbol viewBox="0 0 16 16" fill="none" id="people_checkmark_20_regular" xmlns="http://www.w3.org/2000/svg">
<path d="M4 4.5C4 3.67157 4.67157 3 5.5 3C6.32843 3 7 3.67157 7 4.5C7 5.32843 6.32843 6 5.5 6C4.67157 6 4 5.32843 4 4.5ZM5.5 2C4.11929 2 3 3.11929 3 4.5C3 5.88071 4.11929 7 5.5 7C6.88071 7 8 5.88071 8 4.5C8 3.11929 6.88071 2 5.5 2ZM10.5 5C10.5 4.44772 10.9477 4 11.5 4C12.0523 4 12.5 4.44772 12.5 5C12.5 5.55228 12.0523 6 11.5 6C10.9477 6 10.5 5.55228 10.5 5ZM9.9225 6.22957C10.4222 6.08022 10.9517 6 11.5 6C12.0483 6 12.5778 6.08022 13.0775 6.22957C13.3423 5.89039 13.5 5.46362 13.5 5C13.5 3.89543 12.6046 3 11.5 3C10.3954 3 9.5 3.89543 9.5 5C9.5 5.46362 9.65775 5.89039 9.9225 6.22957ZM3 8H7.25716C7.00353 8.30711 6.78261 8.64222 6.59971 9H3C2.72386 9 2.5 9.22386 2.5 9.5V9.58971L2.50027 9.59656C2.50071 9.60562 2.50175 9.62229 2.50416 9.64547C2.50899 9.69201 2.51921 9.76366 2.54061 9.85193C2.58359 10.0292 2.66982 10.2662 2.84187 10.5028C3.16787 10.951 3.87788 11.5 5.5 11.5C5.67735 11.5 5.8438 11.4934 6.00003 11.4812L6 11.5C6 11.8335 6.02969 12.1601 6.08656 12.4772C5.90076 12.4922 5.70539 12.5 5.5 12.5C3.62212 12.5 2.58213 11.8458 2.03313 11.091C1.76768 10.726 1.63516 10.3614 1.56876 10.0875C1.53547 9.95021 1.51835 9.83386 1.50951 9.74881C1.50509 9.7062 1.50271 9.67118 1.50144 9.64499C1.50081 9.63188 1.50045 9.62096 1.50024 9.61238L1.50005 9.60127L1.50001 9.59705L1.5 9.59529L1.5 9.59375V9.5C1.5 8.67157 2.17157 8 3 8ZM16 11.5C16 13.9853 13.9853 16 11.5 16C9.01472 16 7 13.9853 7 11.5C7 9.01472 9.01472 7 11.5 7C13.9853 7 16 9.01472 16 11.5ZM13.8536 9.64645C13.6583 9.45118 13.3417 9.45118 13.1464 9.64645L10.5 12.2929L9.85355 11.6464C9.65829 11.4512 9.34171 11.4512 9.14645 11.6464C8.95118 11.8417 8.95118 12.1583 9.14645 12.3536L10.1464 13.3536C10.3417 13.5488 10.6583 13.5488 10.8536 13.3536L13.8536 10.3536C14.0488 10.1583 14.0488 9.84171 13.8536 9.64645Z" fill="currentColor"/>
</symbol><symbol viewBox="0 0 24 24" fill="none" id="server_24_regular" xmlns="http://www.w3.org/2000/svg">
  <path d="M9.25 6C8.83579 6 8.5 6.33579 8.5 6.75C8.5 7.16421 8.83579 7.5 9.25 7.5H14.75C15.1642 7.5 15.5 7.16421 15.5 6.75C15.5 6.33579 15.1642 6 14.75 6H9.25ZM8.5 17.75C8.5 17.3358 8.83579 17 9.25 17H14.75C15.1642 17 15.5 17.3358 15.5 17.75C15.5 18.1642 15.1642 18.5 14.75 18.5H9.25C8.83579 18.5 8.5 18.1642 8.5 17.75ZM9.25 14C8.83579 14 8.5 14.3358 8.5 14.75C8.5 15.1642 8.83579 15.5 9.25 15.5H14.75C15.1642 15.5 15.5 15.1642 15.5 14.75C15.5 14.3358 15.1642 14 14.75 14H9.25ZM6 5C6 3.34315 7.34315 2 9 2H15C16.6569 2 18 3.34315 18 5V19C18 20.6569 16.6569 22 15 22H9C7.34315 22 6 20.6569 6 19V5ZM9 3.5C8.17157 3.5 7.5 4.17157 7.5 5V19C7.5 19.8284 8.17157 20.5 9 20.5H15C15.8284 20.5 16.5 19.8284 16.5 19V5C16.5 4.17157 15.8284 3.5 15 3.5H9Z" fill="currentColorb"/>
</symbol><symbol viewBox="0 0 19 15" fill="none" id="simple_compare_20_regular" xmlns="http://www.w3.org/2000/svg">
<path d="M5.85355 5.66081C6.04881 5.46555 6.04882 5.14897 5.85356 4.9537C5.6583 4.75844 5.34172 4.75843 5.14645 4.95369L3.14645 6.95361C3.05268 7.04738 3 7.17455 3 7.30716C3 7.43977 3.05268 7.56695 3.14645 7.66072L5.14645 9.66072C5.34171 9.85599 5.65829 9.85599 5.85355 9.66072C6.04882 9.46546 6.04882 9.14888 5.85355 8.95362L4.20711 7.30718L5.85355 5.66081Z" fill="currentColor"/>
<path d="M6.5 0.307251H2.5C1.96957 0.307251 1.46086 0.517963 1.08578 0.893036C0.710712 1.26811 0.5 1.77682 0.5 2.30725V12.3073C0.5 12.8377 0.710712 13.3464 1.08578 13.7215C1.46086 14.0965 1.96957 14.3073 2.5 14.3073H6.5C7.03043 14.3073 7.53914 14.0965 7.91422 13.7215C8.28929 13.3464 8.5 12.8377 8.5 12.3073V2.30725C8.5 1.77682 8.28929 1.26811 7.91422 0.893036C7.53914 0.517963 7.03043 0.307251 6.5 0.307251ZM2.5 1.30725H6.5C6.76522 1.30725 7.01957 1.41261 7.20711 1.60014C7.39464 1.78768 7.5 2.04203 7.5 2.30725V12.3073C7.5 12.5725 7.39464 12.8268 7.20711 13.0144C7.01957 13.2019 6.76522 13.3073 6.5 13.3073H2.5C2.23478 13.3073 1.98043 13.2019 1.79289 13.0144C1.60536 12.8268 1.5 12.5725 1.5 12.3073V2.30725C1.5 2.04203 1.60536 1.78768 1.79289 1.60014C1.98043 1.41261 2.23478 1.30725 2.5 1.30725Z" fill="currentColor"/>
<path d="M13.1464 4.9537C12.9512 5.14897 12.9512 5.46555 13.1465 5.66081L14.7929 7.30718L13.1464 8.95362C12.9512 9.14888 12.9512 9.46546 13.1464 9.66072C13.3417 9.85599 13.6583 9.85599 13.8536 9.66072L15.8536 7.66072C15.9473 7.56695 16 7.43977 16 7.30716C16 7.17455 15.9473 7.04738 15.8535 6.95361L13.8535 4.95369C13.6583 4.75843 13.3417 4.75844 13.1464 4.9537Z" fill="currentColor"/>
<path d="M16.5 0.307251H12.5C11.9696 0.307251 11.4609 0.517963 11.0858 0.893036C10.7107 1.26811 10.5 1.77682 10.5 2.30725V12.3073C10.5 12.8377 10.7107 13.3464 11.0858 13.7215C11.4609 14.0965 11.9696 14.3073 12.5 14.3073H16.5C17.0304 14.3073 17.5391 14.0965 17.9142 13.7215C18.2893 13.3464 18.5 12.8377 18.5 12.3073V2.30725C18.5 1.77682 18.2893 1.26811 17.9142 0.893036C17.5391 0.517963 17.0304 0.307251 16.5 0.307251ZM12.5 1.30725H16.5C16.7652 1.30725 17.0196 1.41261 17.2071 1.60014C17.3946 1.78768 17.5 2.04203 17.5 2.30725V12.3073C17.5 12.5725 17.3946 12.8268 17.2071 13.0144C17.0196 13.2019 16.7652 13.3073 16.5 13.3073H12.5C12.2348 13.3073 11.9804 13.2019 11.7929 13.0144C11.6054 12.8268 11.5 12.5725 11.5 12.3073V2.30725C11.5 2.04203 11.6054 1.78768 11.7929 1.60014C11.9804 1.41261 12.2348 1.30725 12.5 1.30725Z" fill="currentColor"/>
</symbol></svg>