<?xml version="1.0" encoding="UTF-8"?>
<svg id="Layer_1" data-name="Layer 1" xmlns="http://www.w3.org/2000/svg" xmlns:xlink="http://www.w3.org/1999/xlink" viewBox="0 0 293.04 277">
  <defs>
    <style>
      .cls-1 {
        mask: url(#mask);
      }

      .cls-2 {
        fill: rgba(118, 118, 118, .8);
      }

      .cls-2, .cls-3, .cls-4, .cls-5, .cls-6, .cls-7, .cls-8, .cls-9, .cls-10, .cls-11, .cls-12, .cls-13, .cls-14, .cls-15, .cls-16, .cls-17, .cls-18, .cls-19 {
        stroke-width: 0px;
      }

      .cls-2, .cls-6, .cls-7, .cls-8, .cls-9, .cls-10, .cls-11, .cls-12, .cls-13, .cls-14, .cls-15 {
        fill-rule: evenodd;
      }

      .cls-20 {
        fill: url(#linear-gradient);
        stroke: #000;
        stroke-miterlimit: 10;
        stroke-width: 2px;
      }

      .cls-3 {
        fill: url(#linear-gradient-2);
        filter: url(#drop-shadow-27);
      }

      .cls-4 {
        fill: url(#linear-gradient-4);
        filter: url(#drop-shadow-29);
      }

      .cls-5 {
        fill: url(#linear-gradient-3);
        filter: url(#drop-shadow-28);
      }

      .cls-6 {
        fill: url(#linear-gradient-7);
      }

      .cls-7 {
        fill: url(#linear-gradient-6);
      }

      .cls-8 {
        fill: url(#linear-gradient-5);
        filter: url(#drop-shadow-30);
      }

      .cls-9 {
        fill: url(#linear-gradient-8);
        filter: url(#drop-shadow-31);
      }

      .cls-10 {
        fill: url(#linear-gradient-9);
        filter: url(#drop-shadow-32);
      }

      .cls-11 {
        fill: url(#linear-gradient-10);
        filter: url(#drop-shadow-33);
      }

      .cls-12 {
        fill: url(#linear-gradient-12);
        filter: url(#drop-shadow-35);
      }

      .cls-13 {
        fill: url(#linear-gradient-11);
        filter: url(#drop-shadow-34);
      }

      .cls-14, .cls-17 {
        fill: #3b3a39;
      }

      .cls-15 {
        fill: #e1dfdd;
      }

      .cls-16 {
        fill: #605e5c;
      }

      .cls-18 {
        fill: #c2c2c2;
      }

      .cls-19 {
        fill: #fff;
      }
    </style>
    <mask id="mask" x="47.88" y="111.82" width="174.5" height="120" maskUnits="userSpaceOnUse">
      <g id="mask0_5702_15643" data-name="mask0 5702 15643">
        <path class="cls-18" d="m68.88,111.82l122,.5v23h31.5v34.5h-15.5v62l-111.5-.5v-28.5h-47.5v-38.5h21v-52.5Z"/>
      </g>
    </mask>
    <linearGradient id="linear-gradient" x1="145.67" y1="-49.58" x2="144.97" y2="136.48" gradientTransform="translate(0 185.89) scale(1 -1)" gradientUnits="userSpaceOnUse">
      <stop offset="0" stop-color="#fff" stop-opacity=".2"/>
      <stop offset="1" stop-color="#fff"/>
    </linearGradient>
    <linearGradient id="linear-gradient-2" x1="38.88" y1="107.36" x2="38.88" y2="56.13" gradientTransform="translate(0 185.89) scale(1 -1)" gradientUnits="userSpaceOnUse">
      <stop offset="0" stop-color="#fff" stop-opacity=".6"/>
      <stop offset="1" stop-color="#fff"/>
    </linearGradient>
    <filter id="drop-shadow-27" filterUnits="userSpaceOnUse">
      <feOffset dx="0" dy="2.83"/>
      <feGaussianBlur result="blur" stdDeviation="2.83"/>
      <feFlood flood-color="#000" flood-opacity=".15"/>
      <feComposite in2="blur" operator="in"/>
      <feComposite in="SourceGraphic"/>
    </filter>
    <linearGradient id="linear-gradient-3" x1="241.36" y1="11.5" x2="241.36" y2="-34.42" gradientTransform="translate(0 185.89) scale(1 -1)" gradientUnits="userSpaceOnUse">
      <stop offset="0" stop-color="#fff" stop-opacity=".6"/>
      <stop offset="1" stop-color="#fff"/>
    </linearGradient>
    <filter id="drop-shadow-28" filterUnits="userSpaceOnUse">
      <feOffset dx="0" dy="2.83"/>
      <feGaussianBlur result="blur-2" stdDeviation="2.83"/>
      <feFlood flood-color="#000" flood-opacity=".15"/>
      <feComposite in2="blur-2" operator="in"/>
      <feComposite in="SourceGraphic"/>
    </filter>
    <linearGradient id="linear-gradient-4" x1="53.87" y1="-17.15" x2="53.87" y2="-50.71" gradientTransform="translate(0 185.89) scale(1 -1)" gradientUnits="userSpaceOnUse">
      <stop offset="0" stop-color="#fff" stop-opacity=".6"/>
      <stop offset="1" stop-color="#fff"/>
    </linearGradient>
    <filter id="drop-shadow-29" filterUnits="userSpaceOnUse">
      <feOffset dx="0" dy="2.83"/>
      <feGaussianBlur result="blur-3" stdDeviation="2.83"/>
      <feFlood flood-color="#000" flood-opacity=".15"/>
      <feComposite in2="blur-3" operator="in"/>
      <feComposite in="SourceGraphic"/>
    </filter>
    <linearGradient id="linear-gradient-5" x1="239.56" y1="136.07" x2="239.56" y2="56.07" gradientTransform="translate(0 185.89) scale(1 -1)" gradientUnits="userSpaceOnUse">
      <stop offset="0" stop-color="#fff" stop-opacity=".6"/>
      <stop offset="1" stop-color="#fff"/>
    </linearGradient>
    <filter id="drop-shadow-30" filterUnits="userSpaceOnUse">
      <feOffset dx="0" dy="2.83"/>
      <feGaussianBlur result="blur-4" stdDeviation="2.83"/>
      <feFlood flood-color="#000" flood-opacity=".15"/>
      <feComposite in2="blur-4" operator="in"/>
      <feComposite in="SourceGraphic"/>
    </filter>
    <linearGradient id="linear-gradient-6" x1="239.56" y1="72.31" x2="239.56" y2="122.83" gradientTransform="translate(0 185.89) scale(1 -1)" gradientUnits="userSpaceOnUse">
      <stop offset="0" stop-color="#767676" stop-opacity=".5"/>
      <stop offset="1" stop-color="#767676"/>
    </linearGradient>
    <linearGradient id="linear-gradient-7" x1="241.36" y1="210.57" x2="241.36" y2="186.35" gradientUnits="userSpaceOnUse">
      <stop offset="0" stop-color="#e1dfdd"/>
      <stop offset="1" stop-color="#767676"/>
    </linearGradient>
    <linearGradient id="linear-gradient-8" x1="145.21" y1="94.18" x2="145.21" y2="47.48" xlink:href="#linear-gradient-5"/>
    <filter id="drop-shadow-31" filterUnits="userSpaceOnUse">
      <feOffset dx="0" dy="2.83"/>
      <feGaussianBlur result="blur-5" stdDeviation="2.83"/>
      <feFlood flood-color="#000" flood-opacity=".15"/>
      <feComposite in2="blur-5" operator="in"/>
      <feComposite in="SourceGraphic"/>
    </filter>
    <linearGradient id="linear-gradient-9" x1="160.51" y1="44.16" x2="160.51" y2="31.97" xlink:href="#linear-gradient-5"/>
    <filter id="drop-shadow-32" filterUnits="userSpaceOnUse">
      <feOffset dx="0" dy="2.83"/>
      <feGaussianBlur result="blur-6" stdDeviation="2.83"/>
      <feFlood flood-color="#000" flood-opacity=".15"/>
      <feComposite in2="blur-6" operator="in"/>
      <feComposite in="SourceGraphic"/>
    </filter>
    <linearGradient id="linear-gradient-10" x1="129.74" y1="44.16" x2="129.74" y2="31.97" xlink:href="#linear-gradient-5"/>
    <filter id="drop-shadow-33" filterUnits="userSpaceOnUse">
      <feOffset dx="0" dy="2.83"/>
      <feGaussianBlur result="blur-7" stdDeviation="2.83"/>
      <feFlood flood-color="#000" flood-opacity=".15"/>
      <feComposite in2="blur-7" operator="in"/>
      <feComposite in="SourceGraphic"/>
    </filter>
    <linearGradient id="linear-gradient-11" x1="145.21" y1="28.76" x2="145.21" y2=".12" xlink:href="#linear-gradient-5"/>
    <filter id="drop-shadow-34" filterUnits="userSpaceOnUse">
      <feOffset dx="0" dy="2.83"/>
      <feGaussianBlur result="blur-8" stdDeviation="2.83"/>
      <feFlood flood-color="#000" flood-opacity=".15"/>
      <feComposite in2="blur-8" operator="in"/>
      <feComposite in="SourceGraphic"/>
    </filter>
    <linearGradient id="linear-gradient-12" x1="145.21" y1="-2.8" x2="145.21" y2="-29.71" xlink:href="#linear-gradient-5"/>
    <filter id="drop-shadow-35" filterUnits="userSpaceOnUse">
      <feOffset dx="0" dy="2.83"/>
      <feGaussianBlur result="blur-9" stdDeviation="2.83"/>
      <feFlood flood-color="#000" flood-opacity=".15"/>
      <feComposite in2="blur-9" operator="in"/>
      <feComposite in="SourceGraphic"/>
    </filter>
  </defs>
  <path class="cls-15" d="m144.88,271.82c66.27,0,120-53.73,120-120S211.15,31.82,144.88,31.82,24.88,85.55,24.88,151.82s53.73,120,120,120Zm13-222c-.74,5.19-4.82,9.26-10,10,5.18.74,9.26,4.81,10,10,.74-5.19,4.82-9.26,10-10-5.18-.74-9.26-4.81-10-10Zm-32,40c4.15-.59,7.41-3.85,8-8,.59,4.15,3.85,7.41,8,8-4.15.59-7.41,3.85-8,8-.59-4.15-3.85-7.41-8-8Zm-5-39c-.44,3.11-2.89,5.56-6,6,3.11.44,5.56,2.89,6,6,.44-3.11,2.89-5.56,6-6-3.11-.44-5.56-2.89-6-6Z"/>
  <g class="cls-1">
    <g>
      <path class="cls-19" d="m144.71,159.72c-.29,0-.58-.13-.78-.37-.35-.43-.28-1.06.15-1.41l.78-.63c.43-.34,1.06-.28,1.41.15.35.43.28,1.06-.15,1.41l-.78.63c-.18.15-.41.22-.63.22Zm5.46-4.38c-.29,0-.58-.13-.78-.37-.35-.43-.28-1.06.15-1.41l.78-.63c.43-.34,1.06-.28,1.41.15.35.43.28,1.06-.15,1.41l-.78.63c-.18.15-.41.22-.63.22Zm5.46-4.38c-.29,0-.58-.13-.78-.37-.35-.43-.28-1.06.15-1.41l.78-.63c.43-.34,1.06-.28,1.41.15.35.43.28,1.06-.15,1.41l-.78.63c-.18.15-.41.22-.63.22Zm5.46-4.38c-.29,0-.58-.13-.78-.37-.35-.43-.28-1.06.15-1.41l.78-.63c.43-.34,1.06-.28,1.41.15.35.43.28,1.06-.15,1.41l-.78.63c-.18.15-.41.22-.63.22Zm5.46-4.38c-.29,0-.58-.13-.78-.37-.35-.43-.28-1.06.15-1.41l.78-.63c.43-.34,1.06-.28,1.41.15.35.43.28,1.06-.15,1.41l-.78.63c-.18.15-.41.22-.63.22Zm5.46-4.38c-.29,0-.58-.13-.78-.37-.35-.43-.28-1.06.15-1.41l.78-.63c.43-.35,1.06-.28,1.41.15.35.43.28,1.06-.15,1.41l-.78.63c-.18.15-.41.22-.63.22Zm5.46-4.38c-.29,0-.58-.13-.78-.37-.35-.43-.28-1.06.15-1.41l.78-.63c.43-.34,1.06-.28,1.41.15.35.43.28,1.06-.15,1.41l-.78.63c-.18.15-.41.22-.63.22Zm5.46-4.38c-.29,0-.58-.13-.78-.37-.35-.43-.28-1.06.15-1.41l.78-.63c.43-.34,1.06-.28,1.41.15.35.43.28,1.06-.15,1.41l-.78.63c-.18.15-.41.22-.63.22Zm5.46-4.38c-.29,0-.58-.13-.78-.37-.35-.43-.28-1.06.15-1.41l.78-.63c.43-.34,1.06-.28,1.41.15.35.43.28,1.06-.15,1.41l-.78.63c-.18.15-.41.22-.63.22Zm5.46-4.38c-.29,0-.58-.13-.78-.37-.35-.43-.28-1.06.15-1.41l.78-.63c.43-.34,1.06-.28,1.41.15.35.43.28,1.06-.15,1.41l-.78.63c-.18.15-.41.22-.63.22Zm5.46-4.38c-.29,0-.58-.13-.78-.37-.35-.43-.28-1.06.15-1.41l.78-.63c.43-.34,1.06-.28,1.41.15.35.43.28,1.06-.15,1.41l-.78.63c-.18.15-.41.22-.63.22Z"/>
      <path class="cls-19" d="m144.71,159.72c-.17,0-.35-.04-.51-.14l-.86-.51c-.48-.28-.63-.89-.35-1.37.28-.48.89-.63,1.37-.35l.86.51c.48.28.63.89.35,1.37-.19.32-.52.49-.86.49Zm-6.03-3.56c-.17,0-.35-.04-.51-.14l-.86-.51c-.48-.28-.63-.89-.35-1.37.28-.48.89-.63,1.37-.35l.86.51c.48.28.63.89.35,1.37-.19.32-.52.49-.86.49Zm-6.03-3.56c-.17,0-.35-.04-.51-.14l-.86-.51c-.48-.28-.63-.89-.35-1.37s.89-.63,1.37-.35l.86.51c.48.28.63.89.35,1.37-.19.32-.52.49-.86.49Zm-6.03-3.56c-.17,0-.35-.04-.51-.14l-.86-.51c-.48-.28-.63-.89-.35-1.37.28-.47.89-.63,1.37-.35l.86.51c.48.28.63.89.35,1.37-.19.32-.52.49-.86.49Zm-6.03-3.56c-.17,0-.35-.04-.51-.14l-.86-.51c-.48-.28-.63-.89-.35-1.37s.9-.63,1.37-.35l.86.51c.48.28.63.89.35,1.37-.19.32-.52.49-.86.49Zm-6.03-3.56c-.17,0-.35-.04-.51-.14l-.86-.51c-.48-.28-.63-.89-.35-1.37.28-.48.89-.63,1.37-.35l.86.51c.48.28.63.89.35,1.37-.19.32-.52.49-.86.49Zm-6.03-3.56c-.17,0-.35-.04-.51-.14l-.86-.51c-.48-.28-.63-.89-.35-1.37.28-.48.89-.63,1.37-.35l.86.51c.48.28.63.89.35,1.37-.19.32-.52.49-.86.49Zm-6.03-3.56c-.17,0-.35-.04-.51-.14l-.86-.51c-.48-.28-.63-.89-.35-1.37s.89-.63,1.37-.35l.86.51c.48.28.63.89.35,1.37-.19.32-.52.49-.86.49Zm-6.03-3.56c-.17,0-.35-.04-.51-.14l-.86-.51c-.48-.28-.63-.89-.35-1.37.28-.47.89-.63,1.37-.35l.86.51c.48.28.63.89.35,1.37-.19.32-.52.49-.86.49Zm-6.03-3.56c-.17,0-.35-.04-.51-.14l-.86-.51c-.48-.28-.63-.89-.35-1.37s.9-.63,1.37-.35l.86.51c.48.28.63.89.35,1.37-.19.32-.52.49-.86.49Zm-6.03-3.55c-.17,0-.35-.04-.51-.14l-.86-.51c-.48-.28-.63-.89-.35-1.37.28-.47.89-.63,1.37-.35l.86.51c.48.28.63.89.35,1.37-.19.32-.52.49-.86.49Zm-6.03-3.56c-.17,0-.35-.04-.51-.14l-.86-.51c-.48-.28-.63-.89-.35-1.37.28-.47.89-.63,1.37-.35l.86.51c.48.28.63.89.35,1.37-.19.32-.52.49-.86.49Zm-6.03-3.56c-.17,0-.35-.04-.51-.14l-.86-.51c-.48-.28-.63-.89-.35-1.37.28-.47.89-.63,1.37-.35l.86.51c.48.28.63.89.35,1.37-.19.32-.52.49-.86.49Z"/>
      <path class="cls-19" d="m75.58,209.18c-.31,0-.62-.15-.81-.42-.32-.45-.22-1.07.23-1.39l.81-.58c.45-.32,1.07-.22,1.4.23.32.45.22,1.07-.23,1.39l-.81.58c-.18.13-.38.19-.58.19Zm5.69-4.07c-.31,0-.62-.15-.81-.42-.32-.45-.22-1.07.23-1.4l.81-.58c.45-.32,1.07-.22,1.4.23.32.45.22,1.07-.23,1.4l-.81.58c-.18.13-.38.19-.58.19Zm5.69-4.07c-.31,0-.62-.15-.81-.42-.32-.45-.22-1.07.23-1.39l.81-.58c.45-.32,1.07-.22,1.4.23.32.45.22,1.07-.23,1.39l-.81.58c-.18.13-.38.19-.58.19Zm5.69-4.07c-.31,0-.62-.15-.81-.42-.32-.45-.22-1.07.23-1.4l.81-.58c.45-.32,1.07-.22,1.4.23.32.45.22,1.07-.23,1.4l-.81.58c-.18.13-.38.19-.58.19Zm5.69-4.07c-.31,0-.62-.15-.81-.42-.32-.45-.22-1.07.23-1.39l.81-.58c.45-.32,1.07-.22,1.4.23.32.45.22,1.07-.23,1.39l-.81.58c-.18.13-.38.19-.58.19Zm5.69-4.07c-.31,0-.62-.15-.81-.42-.32-.45-.22-1.07.23-1.4l.81-.58c.45-.32,1.07-.22,1.4.23.32.45.22,1.07-.23,1.4l-.81.58c-.18.13-.38.19-.58.19Zm5.69-4.07c-.31,0-.62-.15-.81-.42-.32-.45-.22-1.07.23-1.4l.81-.58c.45-.32,1.07-.22,1.4.23s.22,1.07-.23,1.4l-.81.58c-.18.13-.38.19-.58.19Zm5.69-4.07c-.31,0-.62-.15-.81-.42-.32-.45-.22-1.07.23-1.4l.81-.58c.45-.32,1.07-.22,1.4.23.32.45.22,1.07-.23,1.4l-.81.58c-.18.13-.38.19-.58.19Zm5.69-4.07c-.31,0-.62-.15-.81-.42-.32-.45-.22-1.07.23-1.4l.81-.58c.45-.32,1.07-.22,1.4.23.32.45.22,1.07-.23,1.4l-.81.58c-.18.13-.38.19-.58.19Zm5.69-4.07c-.31,0-.62-.15-.81-.42-.32-.45-.22-1.07.23-1.4l.81-.58c.45-.32,1.07-.22,1.4.23.32.45.22,1.07-.23,1.4l-.81.58c-.18.13-.38.19-.58.19Zm5.69-4.07c-.31,0-.62-.15-.81-.42-.32-.45-.22-1.07.23-1.4l.81-.58c.45-.32,1.07-.22,1.4.23.32.45.22,1.07-.23,1.4l-.81.58c-.18.13-.38.19-.58.19Zm5.69-4.07c-.31,0-.62-.15-.81-.42-.32-.45-.22-1.07.23-1.4l.81-.58c.45-.32,1.07-.22,1.4.23.32.45.22,1.07-.23,1.4l-.81.58c-.18.13-.38.19-.58.19Zm5.69-4.07c-.31,0-.62-.15-.81-.42-.32-.45-.22-1.07.23-1.4l.81-.58c.45-.32,1.07-.22,1.4.23.32.45.22,1.07-.23,1.4l-.81.58c-.18.13-.38.19-.58.19Z"/>
      <path class="cls-19" d="m211.07,200.71c-.18,0-.36-.05-.52-.15l-.85-.53c-.47-.29-.62-.91-.33-1.38.29-.47.91-.62,1.38-.33l.85.53c.47.29.62.91.33,1.38-.19.31-.52.47-.85.47Zm-5.96-3.68c-.18,0-.36-.05-.52-.15l-.85-.53c-.47-.29-.62-.91-.33-1.38.29-.47.91-.62,1.38-.33l.85.53c.47.29.62.91.33,1.38-.19.31-.52.47-.85.47Zm-5.96-3.68c-.18,0-.36-.05-.52-.15l-.85-.53c-.47-.29-.62-.91-.33-1.38.29-.47.91-.62,1.38-.33l.85.53c.47.29.62.91.33,1.38-.19.31-.52.47-.85.47Zm-5.96-3.68c-.18,0-.36-.05-.52-.15l-.85-.53c-.47-.29-.62-.91-.33-1.38.29-.47.91-.62,1.38-.33l.85.53c.47.29.62.91.33,1.38-.19.31-.52.47-.85.47Zm-5.96-3.68c-.18,0-.36-.05-.52-.15l-.85-.53c-.47-.29-.62-.91-.33-1.38.29-.47.91-.62,1.38-.33l.85.53c.47.29.62.91.33,1.38-.19.31-.52.47-.85.47Zm-5.96-3.68c-.18,0-.36-.05-.52-.15l-.85-.53c-.47-.29-.62-.91-.33-1.38.29-.47.91-.62,1.38-.33l.85.53c.47.29.62.91.33,1.38-.19.31-.52.47-.85.47Zm-5.96-3.68c-.18,0-.36-.05-.52-.15l-.85-.53c-.47-.29-.62-.91-.33-1.38.29-.47.91-.62,1.38-.33l.85.53c.47.29.62.91.33,1.38-.19.31-.52.47-.85.47Zm-5.96-3.68c-.18,0-.36-.05-.52-.15l-.85-.53c-.47-.29-.62-.91-.33-1.38.29-.47.91-.62,1.38-.33l.85.53c.47.29.62.91.33,1.38-.19.31-.52.47-.85.47Zm-5.96-3.68c-.18,0-.36-.05-.53-.15l-.85-.53c-.47-.29-.61-.91-.32-1.38s.91-.62,1.38-.32l.85.53c.47.29.61.91.32,1.38-.19.31-.52.47-.85.47Zm-5.96-3.68c-.18,0-.36-.05-.52-.15l-.85-.53c-.47-.29-.62-.91-.33-1.38.29-.47.91-.62,1.38-.33l.85.53c.47.29.62.91.33,1.38-.19.31-.52.47-.85.47Zm-5.96-3.68c-.18,0-.36-.05-.52-.15l-.85-.53c-.47-.29-.62-.91-.33-1.38.29-.47.91-.62,1.38-.33l.85.53c.47.29.62.91.33,1.38-.19.31-.52.47-.85.47Zm-5.96-3.68c-.18,0-.36-.05-.52-.15l-.85-.53c-.47-.29-.62-.91-.33-1.38.29-.47.91-.62,1.38-.33l.85.53c.47.29.62.91.33,1.38-.19.31-.52.47-.85.47Z"/>
    </g>
  </g>
  <path class="cls-16" d="m109.59,87.53c0-4,3.24-7.25,7.25-7.25h57.09c4,0,7.25,3.24,7.25,7.25v140.6c0,4-3.24,7.25-7.25,7.25h-57.09c-4,0-7.25-3.24-7.25-7.25V87.53Z"/>
  <path class="cls-20" d="m109.59,87.53c0-4,3.24-7.25,7.25-7.25h57.09c4,0,7.25,3.24,7.25,7.25v140.6c0,4-3.24,7.25-7.25,7.25h-57.09c-4,0-7.25-3.24-7.25-7.25V87.53Z"/>
  <path class="cls-3" d="m68.88,78.54H8.88v51.22h60v-51.22Z"/>
  <path class="cls-5" d="m274.36,174.4h-66v45.91h66v-45.91Z"/>
  <rect class="cls-4" x="11.47" y="203.04" width="84.79" height="33.56"/>
  <path class="cls-8" d="m190.24,49.83h98.64v79.99h-98.64V49.83Z"/>
  <path class="cls-7" d="m213.1,63.06h-7.22v50.52h7.22v-50.52Zm12.03,20.45h-7.22v30.07h7.22v-30.07Zm4.81,14.43h7.22v15.64h-7.22v-15.64Zm19.25,1.2h-7.22v14.43h7.22v-14.43Zm4.81,4.81h7.22v9.62h-7.22v-9.62Zm19.25,4.81h-7.22v4.81h7.22v-4.81Z"/>
  <path class="cls-17" d="m201.07,114.58c-.26,0-.51-.1-.71-.29-.39-.39-.39-1.02,0-1.41l11.53-11.53c1.33-1.33,3.49-1.33,4.82,0l5.02,5.02c.55.55,1.44.55,1.99,0l23.06-23.06c1.33-1.33,3.49-1.33,4.82,0l5.02,5.02c.55.55,1.44.55,1.99,0l18.75-18.75c.39-.39,1.02-.39,1.41,0s.39,1.02,0,1.41l-18.75,18.75c-1.33,1.33-3.49,1.33-4.82,0l-5.02-5.02c-.55-.55-1.44-.55-1.99,0l-23.06,23.06c-1.29,1.29-3.53,1.29-4.82,0l-5.02-5.02c-.55-.55-1.44-.55-1.99,0l-11.53,11.53c-.2.2-.45.29-.71.29Z"/>
  <g>
    <path class="cls-2" d="m38.88,119.14c8.28,0,14.99-6.71,14.99-14.99s-6.71-14.99-14.99-14.99-14.99,6.71-14.99,14.99,6.71,14.99,14.99,14.99Zm0-9.99c2.76,0,5-2.24,5-5s-2.24-5-5-5-5,2.24-5,5,2.24,5,5,5Z"/>
    <path class="cls-15" d="m43.49,102.23l9.23-3.84c-2.26-5.42-7.6-9.23-13.84-9.23v9.99c2.08,0,3.86,1.27,4.61,3.08Z"/>
    <path class="cls-14" d="m24.66,99.41l9.5,3.16c.66-1.98,2.51-3.42,4.72-3.42v-9.99c-6.62,0-12.23,4.3-14.21,10.25Z"/>
  </g>
  <path class="cls-6" d="m242.83,184.14h8.81v26.43h-8.81v-26.43Zm-2.94,2.94h-8.81v23.5h8.81v-23.5Zm-11.75,14.69h-8.81v8.81h8.81v-8.81Zm35.25-8.81h-8.81v17.62h8.81v-17.62Z"/>
  <g>
    <path class="cls-17" d="m37.03,225.63h-19.25c-.55,0-1-.45-1-1s.45-1,1-1h19.25c.55,0,1,.45,1,1s-.45,1-1,1Z"/>
    <path class="cls-17" d="m46.65,216.01h-28.87c-.55,0-1-.45-1-1s.45-1,1-1h28.87c.55,0,1,.45,1,1s-.45,1-1,1Z"/>
    <path class="cls-17" d="m89.96,225.63h-28.87c-.55,0-1-.45-1-1s.45-1,1-1h28.87c.55,0,1,.45,1,1s-.45,1-1,1Z"/>
    <path class="cls-17" d="m85.14,216.01h-24.06c-.55,0-1-.45-1-1s.45-1,1-1h24.06c.55,0,1,.45,1,1s-.45,1-1,1Z"/>
  </g>
  <path class="cls-9" d="m115.5,91.71h59.41v46.71h-59.41v-46.71Z"/>
  <path class="cls-10" d="m146.1,141.73h28.81v12.19h-28.81v-12.19Z"/>
  <path class="cls-11" d="m115.33,141.73h28.81v12.19h-28.81v-12.19Z"/>
  <path class="cls-13" d="m115.5,157.14h59.41v28.64h-59.41v-28.64Z"/>
  <path class="cls-12" d="m115.5,188.69h59.41v26.92h-59.41v-26.92Z"/>
</svg>