<?xml version="1.0" encoding="utf-8"?><svg xmlns="http://www.w3.org/2000/svg" xmlns:xlink="http://www.w3.org/1999/xlink"><symbol viewBox="0 0 20 20" id="alert_20_filled" xmlns="http://www.w3.org/2000/svg"><path d="M12.45 16a2.5 2.5 0 0 1-4.9 0h4.9ZM10 2a5.92 5.92 0 0 1 5.98 5.36l.02.22V11.4l.95 2.6.03.08.01.09v.08c0 .32-.19.6-.51.71l-.12.03-.11.01H3.75a.75.75 0 0 1-.74-.76v-.12l.04-.12L4 11.4V7.57A5.9 5.9 0 0 1 10 2Z"/></symbol><symbol viewBox="0 0 20 20" id="alert_20_regular" xmlns="http://www.w3.org/2000/svg"><path d="M10 2a5.92 5.92 0 0 1 5.98 5.36l.02.22V11.4l.92 2.22a1 1 0 0 1 .06.17l.01.08.01.13a1 1 0 0 1-.75.97l-.11.02L16 15h-3.5v.17a2.5 2.5 0 0 1-5 0V15H4a1 1 0 0 1-.26-.03l-.13-.04a1 1 0 0 1-.6-1.05l.02-.13.05-.13L4 11.4V7.57A5.9 5.9 0 0 1 10 2Zm1.5 13h-3v.15a1.5 1.5 0 0 0 1.36 1.34l.14.01c.78 0 1.42-.6 1.5-1.36V15ZM10 3a4.9 4.9 0 0 0-4.98 4.38L5 7.6V11.5l-.04.2L4 14h12l-.96-2.3-.04-.2V7.61A4.9 4.9 0 0 0 10 3Z"/></symbol><symbol viewBox="0 0 20 20" id="arrow_circle_down_double_20_regular" xmlns="http://www.w3.org/2000/svg"><path d="m9 12.2-1.65 1.65a.5.5 0 0 1-.7 0L5 12.21a.5.5 0 1 1 .7-.71l.8.8V6.5a.5.5 0 0 1 1 0v5.8l.8-.8a.5.5 0 1 1 .7.7Zm1 5.8a8 8 0 1 0 0-16 8 8 0 0 0 0 16Zm7-8a7 7 0 1 1-14 0 7 7 0 0 1 14 0Zm-3.65 3.85L15 12.21a.5.5 0 1 0-.7-.71l-.8.8V6.5a.5.5 0 0 0-1 0v5.8l-.8-.8a.5.5 0 1 0-.7.7l1.65 1.65c.2.2.5.2.7 0Z"/></symbol><symbol viewBox="0 0 20 20" id="arrow_circle_down_split_20_regular" xmlns="http://www.w3.org/2000/svg"><path d="m8.8 12.41-1.45 1.44a.5.5 0 0 1-.7 0L5.2 12.41a.5.5 0 0 1 .7-.7l.59.58V8.5c0-.28.22-.5.5-.5h2.5V5.5a.5.5 0 0 1 1 0V8H13c.28 0 .5.22.5.5v3.8l.59-.6a.5.5 0 0 1 .7.71l-1.44 1.44a.5.5 0 0 1-.7 0l-1.44-1.44a.5.5 0 0 1 .7-.7l.59.58V9h-5v3.3l.59-.6a.5.5 0 1 1 .7.71ZM10 18a8 8 0 1 0 0-16 8 8 0 0 0 0 16Zm7-8a7 7 0 1 1-14 0 7 7 0 0 1 14 0Z"/></symbol><symbol viewBox="0 0 20 20" id="arrow_circle_up_20_regular" xmlns="http://www.w3.org/2000/svg"><path d="m6.65 9.15 3-3c.2-.2.5-.2.7 0l3 3a.5.5 0 0 1-.7.7L10.5 7.71v5.79a.5.5 0 0 1-1 0V7.7L7.35 9.86a.5.5 0 0 1-.7-.7ZM10 2a8 8 0 1 0 0 16 8 8 0 0 0 0-16Zm-7 8a7 7 0 1 1 14 0 7 7 0 0 1-14 0Z"/></symbol><symbol viewBox="0 0 20 20" id="arrow_clockwise_20_regular" xmlns="http://www.w3.org/2000/svg"><path d="M4 10a6 6 0 0 1 10.47-4H12.5a.5.5 0 0 0 0 1h3a.5.5 0 0 0 .5-.5v-3a.5.5 0 0 0-1 0v1.6a7 7 0 1 0 1.98 4.36.5.5 0 1 0-1 .08L16 10a6 6 0 0 1-12 0Z"/></symbol><symbol viewBox="0 0 24 24" id="arrow_clockwise_24_regular" xmlns="http://www.w3.org/2000/svg"><path d="M12 4.5a7.5 7.5 0 1 0 7.42 6.4c-.07-.46.26-.9.72-.9.37 0 .7.26.76.62A9 9 0 1 1 18 5.3V4.25a.75.75 0 0 1 1.5 0v3c0 .41-.34.75-.75.75h-3a.75.75 0 0 1 0-1.5h1.35a7.47 7.47 0 0 0-5.1-2Z"/></symbol><symbol viewBox="0 0 20 20" id="arrow_reset_20_regular" xmlns="http://www.w3.org/2000/svg"><path d="M5.85 2.65c.2.2.2.5 0 .7L4.21 5H11a6 6 0 1 1-6 6 .5.5 0 0 1 1 0 5 5 0 1 0 5-5H4.2l1.65 1.65a.5.5 0 1 1-.7.7l-2.5-2.5a.5.5 0 0 1 0-.7l2.5-2.5c.2-.2.5-.2.7 0Z"/></symbol><symbol viewBox="0 0 24 24" id="arrow_reset_24_regular" xmlns="http://www.w3.org/2000/svg"><path d="M6.78 2.72c.3.3.3.77 0 1.06L4.56 6h8.69a7.75 7.75 0 1 1-7.75 7.75.75.75 0 0 1 1.5 0 6.25 6.25 0 1 0 6.25-6.25H4.56l2.22 2.22a.75.75 0 1 1-1.06 1.06l-3.5-3.5a.75.75 0 0 1 0-1.06l3.5-3.5c.3-.3.77-.3 1.06 0Z"/></symbol><symbol viewBox="0 0 20 20" id="barcode_scanner_20_filled" xmlns="http://www.w3.org/2000/svg"><path d="M2 5.75A2.75 2.75 0 0 1 4.75 3h.75a.75.75 0 0 1 0 1.5h-.75c-.69 0-1.25.56-1.25 1.25v.75a.75.75 0 0 1-1.5 0v-.75Zm11.75-2c0-.41.34-.75.75-.75h.75A2.75 2.75 0 0 1 18 5.75v.75a.75.75 0 0 1-1.5 0v-.75c0-.69-.56-1.25-1.25-1.25h-.75a.75.75 0 0 1-.75-.75Zm-11 9c.41 0 .75.34.75.75v.75c0 .69.56 1.25 1.25 1.25h.75a.75.75 0 0 1 0 1.5h-.75A2.75 2.75 0 0 1 2 14.25v-.75c0-.41.34-.75.75-.75Zm14.5 0c.41 0 .75.34.75.75v.75A2.75 2.75 0 0 1 15.25 17h-.75a.75.75 0 0 1 0-1.5h.75c.69 0 1.25-.56 1.25-1.25v-.75c0-.41.34-.75.75-.75ZM5.5 6c.41 0 .75.34.75.75v6.5a.75.75 0 0 1-1.5 0v-6.5c0-.41.34-.75.75-.75Zm3.75.75a.75.75 0 0 0-1.5 0v6.5a.75.75 0 0 0 1.5 0v-6.5ZM11.5 6c.41 0 .75.34.75.75v6.5a.75.75 0 0 1-1.5 0v-6.5c0-.41.34-.75.75-.75Zm3.75.75a.75.75 0 0 0-1.5 0v6.5a.75.75 0 0 0 1.5 0v-6.5Z"/></symbol><symbol viewBox="0 0 20 20" id="barcode_scanner_20_regular" xmlns="http://www.w3.org/2000/svg"><path d="M2 5.5A2.5 2.5 0 0 1 4.5 3h1a.5.5 0 0 1 0 1h-1C3.67 4 3 4.67 3 5.5v1a.5.5 0 0 1-1 0v-1Zm12-2c0-.28.22-.5.5-.5h1A2.5 2.5 0 0 1 18 5.5v1a.5.5 0 0 1-1 0v-1c0-.83-.67-1.5-1.5-1.5h-1a.5.5 0 0 1-.5-.5ZM2.5 13c.28 0 .5.22.5.5v1c0 .83.67 1.5 1.5 1.5h1a.5.5 0 0 1 0 1h-1A2.5 2.5 0 0 1 2 14.5v-1c0-.28.22-.5.5-.5Zm15 0c.28 0 .5.22.5.5v1a2.5 2.5 0 0 1-2.5 2.5h-1a.5.5 0 0 1 0-1h1c.83 0 1.5-.67 1.5-1.5v-1c0-.28.22-.5.5-.5Zm-12-7c.28 0 .5.22.5.5v7a.5.5 0 0 1-1 0v-7c0-.28.22-.5.5-.5Zm3.5.5a.5.5 0 0 0-1 0v7a.5.5 0 0 0 1 0v-7Zm2.5-.5c.28 0 .5.22.5.5v7a.5.5 0 0 1-1 0v-7c0-.28.22-.5.5-.5Zm3.5.5a.5.5 0 0 0-1 0v7a.5.5 0 0 0 1 0v-7Z"/></symbol><symbol viewBox="0 0 24 24" id="barcode_scanner_24_filled" xmlns="http://www.w3.org/2000/svg"><path d="M2 6a3 3 0 0 1 3-3h1.5a1 1 0 0 1 0 2H5a1 1 0 0 0-1 1v1.5a1 1 0 0 1-2 0V6Zm14.5-2a1 1 0 0 1 1-1H19a3 3 0 0 1 3 3v1.5a1 1 0 1 1-2 0V6a1 1 0 0 0-1-1h-1.5a1 1 0 0 1-1-1ZM3 15.5a1 1 0 0 1 1 1V18a1 1 0 0 0 1 1h1.5a1 1 0 1 1 0 2H5a3 3 0 0 1-3-3v-1.5a1 1 0 0 1 1-1Zm18 0a1 1 0 0 1 1 1V18a3 3 0 0 1-3 3h-1.5a1 1 0 1 1 0-2H19a1 1 0 0 0 1-1v-1.5a1 1 0 0 1 1-1ZM6 6.75a1 1 0 0 1 1 1v8.5a1 1 0 1 1-2 0v-8.5a1 1 0 0 1 1-1Zm5 1a1 1 0 1 0-2 0v8.5a1 1 0 1 0 2 0v-8.5Zm3-1a1 1 0 0 1 1 1v8.5a1 1 0 1 1-2 0v-8.5a1 1 0 0 1 1-1Zm5 1a1 1 0 1 0-2 0v8.5a1 1 0 1 0 2 0v-8.5Z"/></symbol><symbol viewBox="0 0 24 24" id="barcode_scanner_24_regular" xmlns="http://www.w3.org/2000/svg"><path d="M2 5.75A2.75 2.75 0 0 1 4.75 3h1.5a.75.75 0 0 1 0 1.5h-1.5c-.69 0-1.25.56-1.25 1.25v1.5a.75.75 0 0 1-1.5 0v-1.5Zm15-2c0-.41.34-.75.75-.75h1.5A2.75 2.75 0 0 1 22 5.75v1.5a.75.75 0 0 1-1.5 0v-1.5c0-.69-.56-1.25-1.25-1.25h-1.5a.75.75 0 0 1-.75-.75ZM2.75 16c.41 0 .75.34.75.75v1.5c0 .69.56 1.25 1.25 1.25h1.5a.75.75 0 0 1 0 1.5h-1.5A2.75 2.75 0 0 1 2 18.25v-1.5c0-.41.34-.75.75-.75Zm18.5 0c.41 0 .75.34.75.75v1.5A2.75 2.75 0 0 1 19.25 21h-1.5a.75.75 0 0 1 0-1.5h1.5c.69 0 1.25-.56 1.25-1.25v-1.5c0-.41.34-.75.75-.75ZM5.75 7c.41 0 .75.34.75.75v8.5a.75.75 0 0 1-1.5 0v-8.5c0-.41.34-.75.75-.75Zm4.75.75a.75.75 0 0 0-1.5 0v8.5a.75.75 0 0 0 1.5 0v-8.5ZM13.75 7c.41 0 .75.34.75.75v8.5a.75.75 0 0 1-1.5 0v-8.5c0-.41.34-.75.75-.75Zm4.75.75a.75.75 0 0 0-1.5 0v8.5a.75.75 0 0 0 1.5 0v-8.5Z"/></symbol><symbol viewBox="0 0 20 20" id="bookmark_20_filled" xmlns="http://www.w3.org/2000/svg"><path d="M4 4.5A2.5 2.5 0 0 1 6.5 2h7A2.5 2.5 0 0 1 16 4.5v13a.5.5 0 0 1-.8.4L10 14.12 4.8 17.9a.5.5 0 0 1-.8-.4v-13Z"/></symbol><symbol viewBox="0 0 20 20" id="bookmark_20_regular" xmlns="http://www.w3.org/2000/svg"><path d="M4 4.5A2.5 2.5 0 0 1 6.5 2h7A2.5 2.5 0 0 1 16 4.5v13a.5.5 0 0 1-.8.4L10 14.12 4.8 17.9a.5.5 0 0 1-.8-.4v-13ZM6.5 3C5.67 3 5 3.67 5 4.5v12.02l4.7-3.42a.5.5 0 0 1 .6 0l4.7 3.42V4.5c0-.83-.67-1.5-1.5-1.5h-7Z"/></symbol><symbol viewBox="0 0 24 24" id="bookmark_24_filled" xmlns="http://www.w3.org/2000/svg"><path d="M6.2 21.85a.75.75 0 0 1-1.2-.6v-15C5 4.45 6.46 3 8.25 3h7.5C17.55 3 19 4.46 19 6.25v15c0 .6-.7.96-1.19.6l-5.8-4.18-5.82 4.18Z"/></symbol><symbol viewBox="0 0 24 24" id="bookmark_24_regular" xmlns="http://www.w3.org/2000/svg"><path d="M6.2 21.85a.75.75 0 0 1-1.2-.6v-15C5 4.45 6.46 3 8.25 3h7.5C17.55 3 19 4.46 19 6.25v15c0 .6-.7.96-1.19.6l-5.8-4.18-5.82 4.18Zm11.3-15.6c0-.97-.78-1.75-1.75-1.75h-7.5c-.96 0-1.75.78-1.75 1.75v13.53l5.06-3.64a.75.75 0 0 1 .88 0l5.06 3.64V6.25Z"/></symbol><symbol viewBox="0 0 20 20" id="bookmark_multiple_20_regular" xmlns="http://www.w3.org/2000/svg"><path d="M6.27 3A2 2 0 0 1 8 2h4.5A3.5 3.5 0 0 1 16 5.5v10a.5.5 0 0 1-.78.42l-.22-.15V5.5A2.5 2.5 0 0 0 12.5 3H6.27ZM6 4a2 2 0 0 0-2 2v11.5a.5.5 0 0 0 .78.42L9 15.1l4.22 2.82a.5.5 0 0 0 .78-.42V6a2 2 0 0 0-2-2H6ZM5 6a1 1 0 0 1 1-1h6a1 1 0 0 1 1 1v10.57l-3.72-2.49a.5.5 0 0 0-.56 0L5 16.57V6Z"/></symbol><symbol viewBox="0 0 20 20" id="checkmark_20_filled" xmlns="http://www.w3.org/2000/svg"><path d="M7.03 13.9 3.56 10a.75.75 0 0 0-1.12 1l4 4.5c.29.32.79.34 1.09.03l10.5-10.5a.75.75 0 0 0-1.06-1.06l-9.94 9.94Z"/></symbol><symbol viewBox="0 0 20 20" id="chevron_down_20_regular" xmlns="http://www.w3.org/2000/svg"><path d="M15.85 7.65c.2.2.2.5 0 .7l-5.46 5.49a.55.55 0 0 1-.78 0L4.15 8.35a.5.5 0 1 1 .7-.7L10 12.8l5.15-5.16c.2-.2.5-.2.7 0Z"/></symbol><symbol viewBox="0 0 24 24" id="chevron_down_24_regular" xmlns="http://www.w3.org/2000/svg"><path d="M4.22 8.47c.3-.3.77-.3 1.06 0L12 15.19l6.72-6.72a.75.75 0 1 1 1.06 1.06l-7.25 7.25c-.3.3-.77.3-1.06 0L4.22 9.53a.75.75 0 0 1 0-1.06Z"/></symbol><symbol viewBox="0 0 20 20" id="chevron_up_20_regular" xmlns="http://www.w3.org/2000/svg"><path d="M4.15 12.35a.5.5 0 0 1 0-.7L9.6 6.16a.55.55 0 0 1 .78 0l5.46 5.49a.5.5 0 0 1-.7.7L10 7.2l-5.15 5.16a.5.5 0 0 1-.7 0Z"/></symbol><symbol viewBox="0 0 24 24" id="chevron_up_24_regular" xmlns="http://www.w3.org/2000/svg"><path d="M4.22 15.53c.3.3.77.3 1.06 0L12 8.81l6.72 6.72a.75.75 0 1 0 1.06-1.06l-7.25-7.25a.75.75 0 0 0-1.06 0l-7.25 7.25c-.3.3-.3.77 0 1.06Z"/></symbol><symbol viewBox="0 0 24 24" id="collections_add_24_filled" xmlns="http://www.w3.org/2000/svg"><path d="M14.78 2.45c.82.44 1.47 1.2 1.78 2.14l.52 1.91h-6.04a3.75 3.75 0 0 0-3.54 3.75v7.71c.02.25.06.5.12.73a3.74 3.74 0 0 1-3.5-2.6l-2-7.43A3.74 3.74 0 0 1 4.6 4.13l7.43-2a3.74 3.74 0 0 1 2.76.32ZM11.26 7.5h-.17a2.75 2.75 0 0 0-2.59 2.75v7.66a2.75 2.75 0 0 0 2.75 2.59h.48a6.5 6.5 0 0 1 9.77-8.12v-2.29a2.75 2.75 0 0 0-2.75-2.59h-7.5ZM23 17.5a5.5 5.5 0 1 0-11 0 5.5 5.5 0 0 0 11 0ZM17.41 14h.18c.2.04.36.2.4.4l.01.1V17h2.6c.2.05.36.2.4.41v.18a.5.5 0 0 1-.4.4l-.1.01H18v2.6a.5.5 0 0 1-.4.4h-.19a.5.5 0 0 1-.4-.4V18H14.4a.5.5 0 0 1-.4-.41v-.18a.5.5 0 0 1 .4-.4l.1-.01H17v-2.6a.5.5 0 0 1 .41-.4Z"/></symbol><symbol viewBox="0 0 20 20" id="comment_20_filled" xmlns="http://www.w3.org/2000/svg"><path d="M6.8 17.8a1 1 0 0 1-1.4-.2.98.98 0 0 1-.2-.59v-2.17h-.6A2.58 2.58 0 0 1 2 12.28V5.57A2.58 2.58 0 0 1 4.6 3h10.8C16.84 3 18 4.15 18 5.57v6.7a2.58 2.58 0 0 1-2.6 2.57h-4.59L6.8 17.8Z"/></symbol><symbol viewBox="0 0 20 20" id="comment_20_regular" xmlns="http://www.w3.org/2000/svg"><path d="M10.48 13.84h4.92c.9 0 1.6-.71 1.6-1.56V5.57C17 4.7 16.3 4 15.4 4H4.6C3.7 4 3 4.71 3 5.57v6.7c0 .86.7 1.57 1.6 1.57h1.6V17l4.28-3.16ZM6.8 17.8a1 1 0 0 1-1.4-.2.98.98 0 0 1-.2-.59v-2.17h-.6A2.58 2.58 0 0 1 2 12.28V5.57A2.58 2.58 0 0 1 4.6 3h10.8C16.84 3 18 4.15 18 5.57v6.7a2.58 2.58 0 0 1-2.6 2.57h-4.59L6.8 17.8Z"/></symbol><symbol viewBox="0 0 24 24" id="comment_24_filled" xmlns="http://www.w3.org/2000/svg"><path d="M5.25 3A3.25 3.25 0 0 0 2 6.25v8.5C2 16.55 3.46 18 5.25 18H6v2.75a1.25 1.25 0 0 0 2 1L13 18h5.75c1.8 0 3.25-1.46 3.25-3.25v-8.5C22 4.45 20.54 3 18.75 3H5.25Z"/></symbol><symbol viewBox="0 0 24 24" id="comment_24_regular" xmlns="http://www.w3.org/2000/svg"><path d="M5.25 18A3.25 3.25 0 0 1 2 14.75v-8.5C2 4.45 3.46 3 5.25 3h13.5C20.55 3 22 4.46 22 6.25v8.5c0 1.8-1.46 3.25-3.25 3.25h-5.74L8 21.75a1.25 1.25 0 0 1-2-1V18h-.75Zm7.26-1.5h6.24c.97 0 1.75-.78 1.75-1.75v-8.5c0-.97-.78-1.75-1.75-1.75H5.25c-.97 0-1.75.78-1.75 1.75v8.5c0 .97.78 1.75 1.75 1.75H7.5v3.75l5.01-3.75Z"/></symbol><symbol viewBox="0 0 20 20" id="cube_20_regular" xmlns="http://www.w3.org/2000/svg"><path d="M5.7 6.04a.5.5 0 1 0-.4.92l4.2 1.86v4.68a.5.5 0 0 0 1 0V8.82l4.2-1.86a.5.5 0 1 0-.4-.92L10 7.95l-4.3-1.9Zm5.6-3.56a3.5 3.5 0 0 0-2.6 0l-5.76 2.3A1.5 1.5 0 0 0 2 6.18v7.64c0 .62.37 1.17.94 1.4l5.76 2.3a3.5 3.5 0 0 0 2.6 0l5.76-2.3c.57-.23.94-.78.94-1.4V6.18a1.5 1.5 0 0 0-.94-1.4l-5.76-2.3Zm-2.23.93a2.5 2.5 0 0 1 1.86 0l5.76 2.3a.5.5 0 0 1 .31.47v7.64a.5.5 0 0 1-.31.47l-5.76 2.3a2.5 2.5 0 0 1-1.86 0l-5.76-2.3a.5.5 0 0 1-.31-.47V6.18c0-.2.12-.4.31-.47l5.76-2.3Z"/></symbol><symbol viewBox="0 0 24 24" id="cube_24_regular" xmlns="http://www.w3.org/2000/svg"><path d="M6.05 7.98a.75.75 0 0 1 .97-.43L12 9.44l4.98-1.9a.75.75 0 1 1 .54 1.41l-4.77 1.8v5.5a.75.75 0 1 1-1.5 0v-5.5l-4.77-1.8a.75.75 0 0 1-.43-.97Zm4.54-5.47c.9-.37 1.92-.37 2.82 0l7.5 3.04c.66.27 1.09.91 1.09 1.62v9.66c0 .7-.43 1.35-1.1 1.62l-7.5 3.04c-.9.36-1.9.36-2.8 0l-7.5-3.04c-.67-.27-1.1-.91-1.1-1.62V7.17c0-.71.43-1.35 1.1-1.62l7.5-3.04Zm2.26 1.4a2.25 2.25 0 0 0-1.7 0l-7.5 3.03a.25.25 0 0 0-.15.23v9.66c0 .1.06.19.16.23l7.5 3.04c.54.22 1.14.22 1.69 0l7.5-3.04c.09-.04.15-.13.15-.23V7.17c0-.1-.06-.2-.16-.23l-7.5-3.04Z"/></symbol><symbol viewBox="0 0 16 16" id="dismiss_16_regular" xmlns="http://www.w3.org/2000/svg"><path d="m2.59 2.72.06-.07a.5.5 0 0 1 .63-.06l.07.06L8 7.29l4.65-4.64a.5.5 0 0 1 .7.7L8.71 8l4.64 4.65c.18.17.2.44.06.63l-.06.07a.5.5 0 0 1-.63.06l-.07-.06L8 8.71l-4.65 4.64a.5.5 0 0 1-.7-.7L7.29 8 2.65 3.35a.5.5 0 0 1-.06-.63l.06-.07-.06.07Z"/></symbol><symbol viewBox="0 0 20 20" id="dismiss_20_regular" xmlns="http://www.w3.org/2000/svg"><path d="m4.09 4.22.06-.07a.5.5 0 0 1 .63-.06l.07.06L10 9.29l5.15-5.14a.5.5 0 0 1 .63-.06l.07.06c.18.17.2.44.06.63l-.06.07L10.71 10l5.14 5.15c.18.17.2.44.06.63l-.06.07a.5.5 0 0 1-.63.06l-.07-.06L10 10.71l-5.15 5.14a.5.5 0 0 1-.63.06l-.07-.06a.5.5 0 0 1-.06-.63l.06-.07L9.29 10 4.15 4.85a.5.5 0 0 1-.06-.63l.06-.07-.06.07Z"/></symbol><symbol viewBox="0 0 24 24" id="dismiss_24_regular" xmlns="http://www.w3.org/2000/svg"><path d="m4.4 4.55.07-.08a.75.75 0 0 1 .98-.07l.08.07L12 10.94l6.47-6.47a.75.75 0 1 1 1.06 1.06L13.06 12l6.47 6.47c.27.27.3.68.07.98l-.07.08a.75.75 0 0 1-.98.07l-.08-.07L12 13.06l-6.47 6.47a.75.75 0 0 1-1.06-1.06L10.94 12 4.47 5.53a.75.75 0 0 1-.07-.98l.07-.08-.07.08Z"/></symbol><symbol viewBox="0 0 16 16" id="document_16_regular" xmlns="http://www.w3.org/2000/svg"><path d="M5 1a2 2 0 0 0-2 2v10c0 1.1.9 2 2 2h6a2 2 0 0 0 2-2V5.41c0-.4-.16-.78-.44-1.06L9.65 1.44A1.5 1.5 0 0 0 8.59 1H5ZM4 3a1 1 0 0 1 1-1h3v2.5C8 5.33 8.67 6 9.5 6H12v7a1 1 0 0 1-1 1H5a1 1 0 0 1-1-1V3Zm7.8 2H9.5a.5.5 0 0 1-.5-.5V2.2L11.8 5Z"/></symbol><symbol viewBox="0 0 16 16" id="document_16_regular" xmlns="http://www.w3.org/2000/svg"><path d="M5 1a2 2 0 0 0-2 2v10c0 1.1.9 2 2 2h6a2 2 0 0 0 2-2V5.41c0-.4-.16-.78-.44-1.06L9.65 1.44A1.5 1.5 0 0 0 8.59 1H5ZM4 3a1 1 0 0 1 1-1h3v2.5C8 5.33 8.67 6 9.5 6H12v7a1 1 0 0 1-1 1H5a1 1 0 0 1-1-1V3Zm7.8 2H9.5a.5.5 0 0 1-.5-.5V2.2L11.8 5Z"/></symbol><symbol viewBox="0 0 20 20" id="document_multiple_20_regular" xmlns="http://www.w3.org/2000/svg"><path d="M4 4c0-1.1.9-2 2-2h3.59c.4 0 .78.16 1.06.44l3.91 3.91c.28.28.44.67.44 1.06V14a2 2 0 0 1-2 2H6a2 2 0 0 1-2-2V4Zm2-1a1 1 0 0 0-1 1v10a1 1 0 0 0 1 1h7a1 1 0 0 0 1-1V8h-3.5A1.5 1.5 0 0 1 9 6.5V3H6Zm4 .2v3.3c0 .28.22.5.5.5h3.3L10 3.2ZM17 9a1 1 0 0 0-1-1v6a3 3 0 0 1-3 3H6a1 1 0 0 0 1 1h6.06A3.94 3.94 0 0 0 17 14.06V9Z"/></symbol><symbol viewBox="0 0 24 24" id="document_multiple_24_regular" xmlns="http://www.w3.org/2000/svg"><path d="M4 4.25C4 3.01 5 2 6.25 2h4.38c.6 0 1.17.24 1.6.66l4.61 4.62c.42.42.66 1 .66 1.59v8.38c0 1.24-1 2.25-2.25 2.25h-9c-1.24 0-2.25-1-2.25-2.25v-13Zm2.25-.75a.75.75 0 0 0-.75.75v13c0 .41.34.75.75.75h9c.41 0 .75-.34.75-.75V9h-3.25c-1.24 0-2.25-1.01-2.25-2.25V3.5H6.25ZM12 4.56v2.19c0 .41.34.75.75.75h2.19L12 4.56Z"/><path d="M6.63 20.5c.3.87 1.14 1.5 2.12 1.5h6.5A4.75 4.75 0 0 0 20 17.25v-5.88c0-.6-.24-1.17-.66-1.6l-.84-.83v8.31c0 1.8-1.45 3.25-3.25 3.25H6.63Z"/></symbol><symbol viewBox="0 0 20 20" id="document_table_search_20_regular" xmlns="http://www.w3.org/2000/svg"><path d="M6.44 9.44A1.5 1.5 0 0 1 7.5 9h5c.83 0 1.5.67 1.5 1.5v4c0 .83-.67 1.5-1.5 1.5H9.12l-.56-.56c.28-.59.44-1.25.44-1.94V15h3.5a.5.5 0 0 0 .5-.5V13H9v.5c0-1.07-.37-2.06-1-2.83V10h-.5a.5.5 0 0 0-.15.02 4.5 4.5 0 0 0-.91-.58ZM13 10.5a.5.5 0 0 0-.5-.5H9v2h4v-1.5ZM5 9.03a4.55 4.55 0 0 0-1 0V4c0-1.1.9-2 2-2h4.59c.4 0 .78.16 1.06.44l3.91 3.91c.28.28.44.67.44 1.06V16a2 2 0 0 1-2 2h-3.09a1.5 1.5 0 0 0-.35-.56l-.44-.44H14a1 1 0 0 0 1-1V8h-3.5A1.5 1.5 0 0 1 10 6.5V3H6a1 1 0 0 0-1 1v5.03ZM11.5 7h3.3L11 3.2v3.3c0 .28.22.5.5.5Zm-4.2 8.6a3.5 3.5 0 1 0-.7.7l2.55 2.55a.5.5 0 1 0 .7-.7L7.3 15.6ZM7 13.5a2.5 2.5 0 1 1-5 0 2.5 2.5 0 0 1 5 0Z"/></symbol><symbol viewBox="0 0 24 25" id="document_table_search_24_regular" xmlns="http://www.w3.org/2000/svg"><path d="M15.25 12c.97 0 1.75.78 1.75 1.75v4c0 .97-.78 1.75-1.75 1.75h-4.78l-.04-.05a5.48 5.48 0 0 0-.43-5.61v-.34h-.26a5.52 5.52 0 0 0-1.67-1.36c.21-.1.44-.14.68-.14h6.5Zm-3.75 4.5V18h3.75c.14 0 .25-.11.25-.25V16.5h-4Zm4-1.5v-1.25a.25.25 0 0 0-.25-.25H11.5V15h4Zm2.5 6h-6.03l.52.51c.28.28.44.63.5.99H18a2 2 0 0 0 2-2V10.33a2 2 0 0 0-.59-1.42L13.6 3.1a.5.5 0 0 0-.05-.04 2.07 2.07 0 0 0-.34-.25l-.05-.03-.05-.03-.16-.09c-.2-.08-.41-.12-.63-.14h-.06a.6.6 0 0 0-.08-.01H6a2 2 0 0 0-2 2v7.2c.48-.13.98-.2 1.5-.2v-7c0-.28.22-.5.5-.5h6v4.5c0 1.1.9 2 2 2h4.5v10a.5.5 0 0 1-.5.5Zm-.62-12H14a.5.5 0 0 1-.5-.5V5.12L17.38 9ZM5.5 21.5c.97 0 1.87-.3 2.6-.83l2.62 2.61a.75.75 0 1 0 1.06-1.06l-2.61-2.61a4.5 4.5 0 1 0-3.67 1.9Zm0-1.5a3 3 0 1 1 0-6 3 3 0 0 1 0 6Z"/></symbol><symbol viewBox="0 0 20 20" id="eraser_20_regular" xmlns="http://www.w3.org/2000/svg"><path d="M11.2 2.44a1.5 1.5 0 0 1 2.12 0l4.24 4.24a1.5 1.5 0 0 1 0 2.12L9.36 17h5.14a.5.5 0 1 1 0 1H7.82a1.5 1.5 0 0 1-1.14-.44l-4.24-4.24a1.5 1.5 0 0 1 0-2.12l8.76-8.76Zm1.41.7a.5.5 0 0 0-.7 0L5.53 9.52l4.95 4.95 6.36-6.36a.5.5 0 0 0 0-.71l-4.24-4.24ZM9.78 15.18l-4.95-4.95-1.69 1.69a.5.5 0 0 0 0 .7l4.25 4.25c.2.2.5.2.7 0l1.7-1.7Z"/></symbol><symbol viewBox="0 0 20 20" id="filter_20_filled" xmlns="http://www.w3.org/2000/svg"><path d="M12.25 13.5a.75.75 0 0 1 0 1.5h-4.5a.75.75 0 0 1 0-1.5h4.5Zm2-4.25a.75.75 0 0 1 0 1.5h-8.5a.75.75 0 0 1 0-1.5h8.5Zm2-4.25a.75.75 0 0 1 0 1.5H3.75a.75.75 0 0 1 0-1.5h12.5Z"/></symbol><symbol viewBox="0 0 20 20" id="filter_20_regular" xmlns="http://www.w3.org/2000/svg"><path d="M7.5 13h5a.5.5 0 0 1 .09 1H7.5a.5.5 0 0 1-.09-1h5.09-5Zm-2-4h9a.5.5 0 0 1 .09 1H5.5a.5.5 0 0 1-.09-1h9.09-9Zm-2-4h13a.5.5 0 0 1 .09 1H3.5a.5.5 0 0 1-.09-1H16.5h-13Z"/></symbol><symbol viewBox="0 0 24 24" id="filter_24_filled" xmlns="http://www.w3.org/2000/svg"><path d="M10 16h4a1 1 0 0 1 .12 2H10a1 1 0 0 1-.12-2H14h-4Zm-2-5h8a1 1 0 0 1 .12 2H8a1 1 0 0 1-.12-2H16 8ZM5 6h14a1 1 0 0 1 .12 2H5a1 1 0 0 1-.12-2H19 5Z"/></symbol><symbol viewBox="0 0 24 24" id="filter_24_regular" xmlns="http://www.w3.org/2000/svg"><path d="M13.5 16a.75.75 0 0 1 0 1.5h-3a.75.75 0 0 1 0-1.5h3Zm3-5a.75.75 0 0 1 0 1.5h-9a.75.75 0 0 1 0-1.5h9Zm3-5a.75.75 0 0 1 0 1.5h-15a.75.75 0 0 1 0-1.5h15Z"/></symbol><symbol viewBox="0 0 20 20" id="globe_location_20_filled" xmlns="http://www.w3.org/2000/svg"><path d="M7.32 6.5c.17-.87.4-1.66.67-2.32.3-.73.65-1.3 1-1.66C9.36 2.15 9.7 2 10 2c.3 0 .65.15 1 .52.36.37.71.93 1.01 1.66.28.66.5 1.45.67 2.32H7.32Zm-.26-2.7c.24-.58.52-1.1.83-1.52A8.02 8.02 0 0 0 2.8 6.5h3.5c.18-1 .44-1.92.76-2.7Zm5.88 0a7.19 7.19 0 0 0-.83-1.52A8.02 8.02 0 0 1 17.2 6.5h-3.5c-.18-1-.44-1.92-.76-2.7Zm.91 3.7h3.75c.24.71.37 1.47.4 2.25a4.52 4.52 0 0 0-4-.5c-.03-.6-.08-1.18-.15-1.75ZM13 9.76c-.01-.79-.07-1.55-.16-2.26H7.16a19.44 19.44 0 0 0 0 5h3.98c.27-1.13.93-2.1 1.86-2.74Zm-2 3.74H7.32c.17.87.4 1.66.67 2.32.3.73.65 1.3 1 1.66.36.37.7.52 1.01.52.3 0 .65-.15 1-.52.26-.26.5-.61.74-1.06A5.94 5.94 0 0 1 11 13.5Zm-8.2 0c1 2.05 2.85 3.6 5.1 4.22a7.19 7.19 0 0 1-.84-1.52c-.32-.78-.58-1.7-.76-2.7H2.8Zm3.35-1H2.4a8 8 0 0 1 0-5h3.75a20.52 20.52 0 0 0 0 5ZM19 13.68c0-2.03-1.47-3.68-3.5-3.68-2.03 0-3.5 1.65-3.5 3.68 0 1.53.98 3.53 3.26 5.24.14.1.34.1.49 0 2.27-1.7 3.25-3.71 3.25-5.24Zm-2-.18a1.5 1.5 0 1 1-3 0 1.5 1.5 0 0 1 3 0Z"/></symbol><symbol viewBox="0 0 20 20" id="globe_location_20_regular" xmlns="http://www.w3.org/2000/svg"><path d="M10 18a8 8 0 0 0 2.5-.4 8.14 8.14 0 0 1-.98-1.63c-.5.7-1.03 1.03-1.52 1.03-.66 0-1.4-.59-2.02-1.9-.22-.47-.4-1.01-.56-1.6H11c.02-.34.06-.68.14-1H7.21a14.87 14.87 0 0 1 0-5h5.58c.12.7.2 1.46.2 2.26.3-.2.64-.38 1-.5-.03-.61-.1-1.2-.18-1.76h2.73c.21.55.35 1.13.42 1.74.37.12.72.3 1.04.51A8 8 0 1 0 10 18Zm0-15c.66 0 1.4.59 2.02 1.9.22.47.4 1.01.56 1.6H7.42c.15-.59.34-1.13.56-1.6C8.59 3.6 9.34 3 10 3ZM7.07 4.49c-.27.59-.5 1.27-.68 2.01H3.94A7.02 7.02 0 0 1 7.7 3.38c-.24.33-.45.7-.64 1.1ZM6.2 7.5a15.97 15.97 0 0 0 0 5H3.46a6.98 6.98 0 0 1 0-5h2.73Zm.2 6c.17.74.4 1.42.68 2.01.19.4.4.78.64 1.1a7.02 7.02 0 0 1-3.77-3.11h2.45Zm5.9-10.12a7.02 7.02 0 0 1 3.77 3.12h-2.45a10.5 10.5 0 0 0-.68-2.01c-.19-.4-.4-.78-.64-1.1ZM19 13.68c0-2.03-1.47-3.68-3.5-3.68-2.03 0-3.5 1.65-3.5 3.68 0 1.53.98 3.53 3.26 5.24.14.1.34.1.49 0 2.27-1.7 3.25-3.71 3.25-5.24Zm-2-.18a1.5 1.5 0 1 1-3 0 1.5 1.5 0 0 1 3 0Z"/></symbol><symbol viewBox="0 0 24 24" id="globe_location_24_filled" xmlns="http://www.w3.org/2000/svg"><path d="M8.9 16.5h3.62l-.02.5c0 1.2.46 2.36 1.27 3.49-.54.96-1.15 1.5-1.77 1.5-1.2 0-2.4-2.08-3.04-5.2l-.06-.29ZM8.67 15h4.2a5.52 5.52 0 0 1 2.63-2.9V12c0-.69-.03-1.35-.08-2H8.58l-.04.49A25.99 25.99 0 0 0 8.67 15ZM18 11.5c1.54 0 2.94.63 3.94 1.66A10.1 10.1 0 0 0 21.8 10h-4.87l.04.66.03.93c.32-.06.66-.09 1-.09Zm-14.93 5h4.3c.37 2.08.98 3.85 1.8 5.1a10.03 10.03 0 0 1-5.96-4.82l-.14-.28ZM2.2 10h4.87a28.21 28.21 0 0 0 .03 4.42l.06.58h-4.7a10 10 0 0 1-.26-5Zm12.74-7.42-.1-.17c3.01.89 5.44 3.16 6.53 6.09h-4.59c-.31-2.42-.96-4.5-1.84-5.92Zm-5.9-.14.12-.03a14.57 14.57 0 0 0-1.88 5.65l-.06.44h-4.6a10.03 10.03 0 0 1 6.42-6.06ZM12 2c1.32 0 2.65 2.54 3.21 6.19l.05.31H8.74C9.28 4.7 10.64 2 12 2Zm10.5 15a4.5 4.5 0 0 0-9 0c0 1.86 1.42 3.81 4.2 5.9a.5.5 0 0 0 .6 0c2.78-2.09 4.2-4.04 4.2-5.9Zm-6 0a1.5 1.5 0 1 1 3 0 1.5 1.5 0 0 1-3 0Z"/></symbol><symbol viewBox="0 0 24 24" id="globe_location_24_regular" xmlns="http://www.w3.org/2000/svg"><path d="M12 2a10 10 0 0 1 9.94 11.16c-.42-.43-.9-.79-1.44-1.06V12c0-.69-.08-1.36-.24-2h-3.35c.05.52.08 1.05.09 1.59-.53.1-1.03.27-1.5.5V12c0-.7-.04-1.36-.1-2H8.6a18.97 18.97 0 0 0 .14 5h4.13c-.18.47-.3.97-.35 1.5H9.06c.65 2.41 1.79 4 2.94 4 .46 0 .9-.25 1.33-.7.36.62.83 1.23 1.4 1.83A10 10 0 1 1 12 2ZM7.5 16.5H4.8a8.53 8.53 0 0 0 4.09 3.41c-.52-.82-.95-1.85-1.27-3.02l-.1-.39ZM7.1 10H3.73v.02a8.52 8.52 0 0 0 .3 4.98h3.18a20.3 20.3 0 0 1-.13-5Zm1.78-5.91h-.02a8.53 8.53 0 0 0-4.61 4.4l3.05.01c.31-1.75.86-3.28 1.58-4.41Zm3.12-.6-.12.01c-1.26.12-2.48 2.12-3.05 5h6.34c-.56-2.87-1.78-4.87-3.04-5H12Zm3.12.6.1.17A12.64 12.64 0 0 1 16.7 8.5h3.05a8.53 8.53 0 0 0-4.34-4.29l-.29-.12Zm7.38 12.9a4.5 4.5 0 0 0-9 0c0 1.87 1.42 3.82 4.2 5.9a.5.5 0 0 0 .6 0c2.78-2.08 4.2-4.03 4.2-5.9Zm-6 0a1.5 1.5 0 1 1 3 0 1.5 1.5 0 0 1-3 0Z"/></symbol><symbol viewBox="0 0 16 16" id="more_horizontal_16_regular" xmlns="http://www.w3.org/2000/svg"><path d="M5 8a1 1 0 1 1-2 0 1 1 0 0 1 2 0Zm4 0a1 1 0 1 1-2 0 1 1 0 0 1 2 0Zm3 1a1 1 0 1 0 0-2 1 1 0 0 0 0 2Z"/></symbol><symbol viewBox="0 0 20 20" id="more_horizontal_20_regular" xmlns="http://www.w3.org/2000/svg"><path d="M6.25 10a1.25 1.25 0 1 1-2.5 0 1.25 1.25 0 0 1 2.5 0Zm5 0a1.25 1.25 0 1 1-2.5 0 1.25 1.25 0 0 1 2.5 0ZM15 11.25a1.25 1.25 0 1 0 0-2.5 1.25 1.25 0 0 0 0 2.5Z"/></symbol><symbol viewBox="0 0 20 20" id="organization_20_filled" xmlns="http://www.w3.org/2000/svg"><path d="M7 5a3 3 0 1 1 3.5 2.96V9.5h3c.83 0 1.5.67 1.5 1.5v1.04a3 3 0 1 1-1 0V11a.5.5 0 0 0-.5-.5h-7a.5.5 0 0 0-.5.5v1.04a3 3 0 1 1-1 0V11c0-.83.67-1.5 1.5-1.5h3V7.96A3 3 0 0 1 7 5Z"/></symbol><symbol viewBox="0 0 20 20" id="organization_20_regular" xmlns="http://www.w3.org/2000/svg"><path d="M10 2a3 3 0 0 0-.5 5.96V9.5h-3c-.83 0-1.5.67-1.5 1.5v1.04a3 3 0 1 0 1 0V11c0-.28.22-.5.5-.5h7c.28 0 .5.22.5.5v1.04a3 3 0 1 0 1 0V11c0-.83-.67-1.5-1.5-1.5h-3V7.96A3 3 0 0 0 10 2ZM8 5a2 2 0 1 1 4 0 2 2 0 0 1-4 0ZM3.5 15a2 2 0 1 1 4 0 2 2 0 0 1-4 0Zm11-2a2 2 0 1 1 0 4 2 2 0 0 1 0-4Z"/></symbol><symbol viewBox="0 0 24 24" id="organization_24_filled" xmlns="http://www.w3.org/2000/svg"><path d="M8 5.75a3.75 3.75 0 1 1 4.5 3.68v2.07h3.25c1.24 0 2.25 1 2.25 2.25v.82a3.75 3.75 0 1 1-1.5 0v-.82a.75.75 0 0 0-.75-.75h-8a.75.75 0 0 0-.75.75v.82a3.75 3.75 0 1 1-1.5 0v-.82c0-1.24 1-2.25 2.25-2.25H11V9.43a3.75 3.75 0 0 1-3-3.68Z"/></symbol><symbol viewBox="0 0 24 24" id="organization_24_regular" xmlns="http://www.w3.org/2000/svg"><path d="M11.75 2A3.75 3.75 0 0 0 11 9.43v2.07H7.75c-1.24 0-2.25 1-2.25 2.25v.83a3.75 3.75 0 1 0 1.5 0v-.83c0-.41.34-.75.75-.75h8c.41 0 .75.34.75.75v.83a3.75 3.75 0 1 0 1.5 0v-.83c0-1.24-1-2.25-2.25-2.25H12.5V9.43A3.75 3.75 0 0 0 11.75 2ZM9.5 5.75a2.25 2.25 0 1 1 4.5 0 2.25 2.25 0 0 1-4.5 0ZM4 18.25a2.25 2.25 0 1 1 4.5 0 2.25 2.25 0 0 1-4.5 0ZM17.25 16a2.25 2.25 0 1 1 0 4.5 2.25 2.25 0 0 1 0-4.5Z"/></symbol><symbol viewBox="0 0 20 20" id="person_add_20_regular" xmlns="http://www.w3.org/2000/svg"><path d="M9 2a4 4 0 1 0 0 8 4 4 0 0 0 0-8ZM6 6a3 3 0 1 1 6 0 3 3 0 0 1-6 0Zm-2 5a2 2 0 0 0-2 2c0 1.7.83 2.97 2.13 3.8A9.14 9.14 0 0 0 9 18c.41 0 .82-.02 1.21-.06A5.5 5.5 0 0 1 9.6 17 12 12 0 0 1 9 17a8.16 8.16 0 0 1-4.33-1.05A3.36 3.36 0 0 1 3 13a1 1 0 0 1 1-1h5.6c.18-.36.4-.7.66-1H4Zm10.5 8a4.5 4.5 0 1 0 0-9 4.5 4.5 0 0 0 0 9Zm0-7c.28 0 .5.22.5.5V14h1.5a.5.5 0 0 1 0 1H15v1.5a.5.5 0 0 1-1 0V15h-1.5a.5.5 0 0 1 0-1H14v-1.5c0-.28.22-.5.5-.5Z"/></symbol><symbol viewBox="0 0 24 24" id="person_add_24_regular" xmlns="http://www.w3.org/2000/svg"><path d="M17.5 12a5.5 5.5 0 1 1 0 11 5.5 5.5 0 0 1 0-11Zm-5.48 2c-.3.46-.53.97-.7 1.5H4.24a.75.75 0 0 0-.75.75v.58c0 .53.2 1.05.54 1.46C5.3 19.76 7.26 20.5 10 20.5c.6 0 1.16-.03 1.68-.1.25.49.55.95.91 1.36-.8.16-1.66.24-2.59.24-3.15 0-5.53-.9-7.1-2.74a3.75 3.75 0 0 1-.9-2.43v-.58C2 15 3.01 14 4.25 14h7.77Zm5.48 0h-.09a.5.5 0 0 0-.4.41l-.01.09V17H14.4a.5.5 0 0 0-.4.41v.18c.04.2.2.37.4.4l.1.01H17v2.59c.05.2.2.37.41.4l.09.01h.09a.5.5 0 0 0 .4-.41l.01-.09V18h2.6a.5.5 0 0 0 .4-.41v-.18a.5.5 0 0 0-.4-.4l-.1-.01H18v-2.59a.5.5 0 0 0-.41-.4L17.5 14ZM10 2a5 5 0 1 1 0 10 5 5 0 0 1 0-10Zm0 1.5a3.5 3.5 0 1 0 0 7 3.5 3.5 0 0 0 0-7Z"/></symbol><symbol viewBox="0 0 20 20" id="signature_20_regular" xmlns="http://www.w3.org/2000/svg"><path d="M12.02 2.77a2.44 2.44 0 1 1 3.46 3.46L14.2 7.5l.08.09a2 2 0 0 1 0 2.82l-1.44 1.44a.5.5 0 0 1-.7-.7l1.44-1.44a1 1 0 0 0 0-1.42l-.09-.08-6.65 6.64a.5.5 0 0 1-.23.14l-4 1a.5.5 0 0 1-.6-.65l1.26-3.75a.5.5 0 0 1 .12-.2l8.62-8.62Zm2.75.7a1.44 1.44 0 0 0-2.04 0l-8.54 8.55-.93 2.77 2.98-.74 8.53-8.53c.57-.56.57-1.48 0-2.04ZM3.22 16.88l.05.03C4 17.44 5.1 18 6.5 18c.74 0 1.42-.26 2.03-.6.6-.35 1.16-.8 1.66-1.2l.12-.1c.46-.37.86-.7 1.23-.91.4-.24.64-.27.8-.22.27.1.42.3.68 1.17.09.3.24.61.47.87.23.26.57.49 1.01.49.47 0 .94-.23 1.3-.44a12.61 12.61 0 0 0 .97-.64 4.6 4.6 0 0 1 .82-.42l.04-.02h.01a.5.5 0 0 0-.28-.96h-.01l-.02.01a2.35 2.35 0 0 0-.31.12c-.2.09-.47.22-.8.43l-.33.23c-.19.13-.38.26-.6.39-.33.2-.6.3-.79.3-.06 0-.15-.03-.26-.15-.11-.13-.2-.31-.26-.5-.24-.8-.5-1.55-1.32-1.82-.59-.2-1.16.02-1.63.3-.44.25-.9.63-1.34.99l-.13.1c-.5.41-1 .8-1.53 1.1-.52.3-1.02.48-1.53.48-.75 0-1.4-.2-1.93-.47l-1.35.34ZM17.5 15.5l-.14-.48.14.48Z"/></symbol><symbol viewBox="0 0 24 24" id="signature_24_regular" xmlns="http://www.w3.org/2000/svg"><path d="M14.75 16.5c1.3 0 1.82.58 2.2 1.87l.07.24c.19.66.3.86.52.95.26.1.43.09.7-.05l.15-.08.17-.11.67-.46c.61-.4 1.17-.67 1.84-.84a.75.75 0 1 1 .36 1.46c-.4.1-.76.25-1.14.49l-.3.19-.48.33c-.23.15-.4.26-.58.35a2.2 2.2 0 0 1-1.96.1c-.75-.3-1.05-.78-1.33-1.72l-.16-.54c-.18-.59-.3-.68-.73-.68-.3 0-.63.16-1.07.52l-.18.16-.92.88c-1.41 1.32-2.61 1.97-4.33 1.97-1.69 0-3.15-.26-4.37-.77l2.95-.8c.45.04.92.07 1.42.07 1.18 0 2.03-.42 3.09-1.37l.25-.24.54-.5a12 12 0 0 1 .59-.55c.68-.57 1.3-.87 2.03-.87Zm4.28-13.53a3.58 3.58 0 0 1 0 5.06l-.29.29c1.15 1.4 1.11 2.89.04 3.96l-2 2a.75.75 0 0 1-1.06-1.06l2-2c.48-.49.54-1.09-.04-1.84L9.06 18c-.27.28-.62.48-1 .58l-5.11 1.4a.75.75 0 0 1-.92-.93l1.4-5.11c.1-.38.3-.72.57-1l9.97-9.97a3.58 3.58 0 0 1 5.06 0Zm-4 1.06L5.06 14c-.09.1-.16.2-.19.33l-1.05 3.85 3.85-1.05c.13-.03.24-.1.33-.2l9.97-9.96a2.08 2.08 0 1 0-2.94-2.94Z"/></symbol><symbol viewBox="0 0 20 20" id="slide_search_20_regular" xmlns="http://www.w3.org/2000/svg"><path d="M5.5 7a.5.5 0 0 0 0 1h6a.5.5 0 0 0 0-1h-6Zm3.03 3.5a4.5 4.5 0 0 0-.68-1h6.65a.5.5 0 0 1 0 1H8.53Zm.47 2c0 .17 0 .34-.03.5h3.53a.5.5 0 0 0 0-1H8.97c.02.16.03.33.03.5Zm-6-6v1.76c-.36.12-.7.3-1 .5V6.5A2.5 2.5 0 0 1 4.5 4h11A2.5 2.5 0 0 1 18 6.5v7a2.5 2.5 0 0 1-2.5 2.5h-5.38l-1-1h6.38c.83 0 1.5-.67 1.5-1.5v-7c0-.83-.67-1.5-1.5-1.5h-11C3.67 5 3 5.67 3 6.5ZM4.5 16c.79 0 1.51-.26 2.1-.7l2.55 2.55a.5.5 0 1 0 .7-.7L7.3 14.6A3.5 3.5 0 1 0 4.5 16Zm0-1a2.5 2.5 0 1 1 0-5 2.5 2.5 0 0 1 0 5Z"/></symbol><symbol viewBox="0 0 24 24" id="slide_search_24_regular" xmlns="http://www.w3.org/2000/svg"><path d="M4.75 4A2.75 2.75 0 0 0 2 6.75v4.5a5.5 5.5 0 0 1 1.5-.88V6.75c0-.69.56-1.25 1.25-1.25h14.5c.69 0 1.25.56 1.25 1.25v10.5c0 .69-.56 1.25-1.25 1.25h-8.28l1.5 1.5h6.78A2.75 2.75 0 0 0 22 17.25V6.75A2.75 2.75 0 0 0 19.25 4H4.75Zm3.91 7c.58.4 1.07.91 1.45 1.5h7.14a.75.75 0 0 0 0-1.5H8.66Zm6.59 4.5H11a5.5 5.5 0 0 0-.2-1.5h4.45a.75.75 0 0 1 0 1.5ZM6.75 8a.75.75 0 0 0 0 1.5h6.5a.75.75 0 0 0 0-1.5h-6.5ZM5.5 20c.97 0 1.87-.3 2.6-.83l2.62 2.61a.75.75 0 1 0 1.06-1.06l-2.61-2.61A4.5 4.5 0 1 0 5.5 20Zm0-1.5a3 3 0 1 1 0-6 3 3 0 0 1 0 6Z"/></symbol><symbol viewBox="0 0 20 20" id="text_sort_ascending_20_regular" xmlns="http://www.w3.org/2000/svg"><path d="M6.47 2.32a.5.5 0 0 0-.94 0l-2.75 7a.5.5 0 0 0 .94.36L4.38 8h3.24l.66 1.68a.5.5 0 0 0 .94-.36l-2.75-7ZM6 3.87 7.23 7H4.77L6 3.87ZM4 11a.5.5 0 0 0 0 1h3.07l-3.49 5.22A.5.5 0 0 0 4 18h4a.5.5 0 0 0 0-1H4.93l3.49-5.22A.5.5 0 0 0 8 11H4Zm10.5-9c.28 0 .5.22.5.5v13.8l2.15-2.15a.5.5 0 0 1 .7.7l-3 3a.5.5 0 0 1-.7 0l-3-3a.5.5 0 0 1 .7-.7L14 16.29V2.5c0-.28.22-.5.5-.5Z"/></symbol><symbol viewBox="0 0 24 24" id="text_sort_ascending_24_regular" xmlns="http://www.w3.org/2000/svg"><path d="M17.25 2c.41 0 .75.34.75.75v16.69l2.22-2.22a.75.75 0 1 1 1.06 1.06l-3.5 3.5c-.3.3-.77.3-1.06 0l-3.5-3.5a.75.75 0 1 1 1.06-1.06l2.22 2.22V2.75c0-.41.34-.75.75-.75Zm-9.48.49a.75.75 0 0 0-1.4-.01l-3.32 8.5a.75.75 0 1 0 1.4.54l.79-2.02h3.55l.76 2.01a.75.75 0 0 0 1.4-.52l-3.18-8.5ZM5.82 8l1.23-3.15L8.23 8h-2.4ZM4 13.75c0-.41.34-.75.75-.75H9.5a.75.75 0 0 1 .63 1.15L6.11 20.5H9.5a.75.75 0 1 1 0 1.5H4.75a.75.75 0 0 1-.63-1.15l4.02-6.35H4.75a.75.75 0 0 1-.75-.75Z"/></symbol><symbol viewBox="0 0 20 20" id="text_sort_descending_20_regular" xmlns="http://www.w3.org/2000/svg"><path d="M4 2a.5.5 0 0 0 0 1h3.07L3.58 8.22A.5.5 0 0 0 4 9h4a.5.5 0 1 0 0-1H4.93l3.49-5.22A.5.5 0 0 0 8 2H4Zm2.47 8.32a.5.5 0 0 0-.94 0l-2.75 7a.5.5 0 1 0 .94.36L4.38 16h3.24l.66 1.68a.5.5 0 0 0 .94-.36l-2.75-7ZM6 11.87 7.23 15H4.77L6 11.87ZM14.5 2c.28 0 .5.22.5.5v13.8l2.15-2.15a.5.5 0 0 1 .7.7l-3 3a.5.5 0 0 1-.7 0l-3-3a.5.5 0 0 1 .7-.7L14 16.29V2.5c0-.28.22-.5.5-.5Z"/></symbol><symbol viewBox="0 0 20 20" id="trophy_20_filled" xmlns="http://www.w3.org/2000/svg"><path d="M5.5 4c0-1.1.9-2 2-2h5a2 2 0 0 1 2 2h1c.82 0 1.5.67 1.5 1.5V7a3 3 0 0 1-2.6 2.97 4.5 4.5 0 0 1-3.9 3.5v1.5h2a2 2 0 0 1 2 2v.5a.5.5 0 0 1-.5.5H6a.5.5 0 0 1-.5-.5v-.5c0-1.1.9-2 2-2h2v-1.5a4.5 4.5 0 0 1-3.9-3.5A3 3 0 0 1 3 7V5.5C3 4.67 3.67 4 4.5 4h1Zm9 4.94A2 2 0 0 0 16 7V5.5a.5.5 0 0 0-.5-.5h-1v3.94ZM5.5 5h-1a.5.5 0 0 0-.5.5V7a2 2 0 0 0 1.5 1.93V5Z"/></symbol><symbol viewBox="0 0 20 20" id="trophy_20_regular" xmlns="http://www.w3.org/2000/svg"><path d="M3 7a3 3 0 0 0 2.6 2.97 4.5 4.5 0 0 0 3.9 3.5v1.5h-2a2 2 0 0 0-2 2v.5c0 .27.23.5.5.5h8a.5.5 0 0 0 .5-.5v-.5a2 2 0 0 0-2-2h-2v-1.5a4.5 4.5 0 0 0 3.9-3.5A3 3 0 0 0 17 7V5.5c0-.83-.68-1.5-1.5-1.5h-1a2 2 0 0 0-2-2h-5a2 2 0 0 0-2 2h-1C3.67 4 3 4.67 3 5.5V7Zm1.5-2h1v3.93A2 2 0 0 1 4 7V5.5c0-.28.22-.5.5-.5Zm10 0h1c.27 0 .5.22.5.5V7a2 2 0 0 1-1.5 1.94V5Zm-1-1v5a3.5 3.5 0 0 1-7 .16V4a1 1 0 0 1 1-1h5a1 1 0 0 1 1 1Zm-7 12.97a1 1 0 0 1 1-1h5a1 1 0 0 1 1 1h-7Z"/></symbol><symbol viewBox="0 0 24 24" id="trophy_24_filled" xmlns="http://www.w3.org/2000/svg"><path d="M15.25 2c1.16 0 2.12.88 2.24 2h1.27c.92 0 1.67.7 1.74 1.6v3.15a3.25 3.25 0 0 1-3.06 3.24l-.2.01a5.76 5.76 0 0 1-4.74 3.95v1.55h1.75a3.25 3.25 0 0 1 3.25 3.07V21.25c0 .38-.28.7-.64.74l-.1.01h-10a.75.75 0 0 1-.75-.65v-.6a3.25 3.25 0 0 1 3.06-3.24l.18-.01H11v-1.55A5.76 5.76 0 0 1 6.27 12h-.02A3.25 3.25 0 0 1 3 8.75v-3C3 4.78 3.78 4 4.75 4H6c.13-1.12 1.08-2 2.24-2h7Zm3.5 3.5H17.5v4.98c.8-.11 1.43-.76 1.5-1.58V5.75a.25.25 0 0 0-.18-.24l-.06-.01ZM6 5.5H4.75a.25.25 0 0 0-.25.25v3c0 .88.65 1.61 1.5 1.73V5.5Z"/></symbol><symbol viewBox="0 0 24 24" id="trophy_24_regular" xmlns="http://www.w3.org/2000/svg"><path d="M15.25 2c1.16 0 2.12.88 2.24 2h1.27c.92 0 1.67.7 1.74 1.6v3.15a3.25 3.25 0 0 1-3.06 3.24l-.2.01a5.76 5.76 0 0 1-4.74 3.95v1.55h1.75a3.25 3.25 0 0 1 3.25 3.07V21.25c0 .38-.28.7-.64.74l-.1.01h-10a.75.75 0 0 1-.75-.65v-.6a3.25 3.25 0 0 1 3.06-3.24l.18-.01H11v-1.55A5.76 5.76 0 0 1 6.27 12h-.02A3.25 3.25 0 0 1 3 8.75v-3C3 4.78 3.78 4 4.75 4H6c.13-1.12 1.08-2 2.24-2h7Zm-1 17h-5c-.83 0-1.52.58-1.7 1.35l-.03.15h8.47A1.75 1.75 0 0 0 14.4 19h-.16Zm1-15.5h-7a.75.75 0 0 0-.75.75v6a4.25 4.25 0 0 0 8.5 0v-6a.75.75 0 0 0-.75-.75Zm3.5 2H17.5v4.98c.8-.11 1.43-.76 1.5-1.58V5.75a.25.25 0 0 0-.18-.24l-.06-.01ZM6 5.5H4.75a.25.25 0 0 0-.25.25v3c0 .88.65 1.61 1.5 1.73V5.5Z"/></symbol></svg>