<?xml version="1.0" encoding="utf-8"?><svg xmlns="http://www.w3.org/2000/svg" xmlns:xlink="http://www.w3.org/1999/xlink"><symbol viewBox="0 0 20 20" id="arrow_curved_right_circle_20" xmlns="http://www.w3.org/2000/svg">
<path d="M14.8546 9.6459L11.8546 6.6459C11.7607 6.55201 11.6334 6.49927 11.5006 6.49927C11.3679 6.49927 11.2405 6.55201 11.1466 6.6459C11.0527 6.73979 11 6.86712 11 6.9999C11 7.13268 11.0527 7.26001 11.1466 7.3539L13.2936 9.4999H12.2022L12.1999 9.4999H10.0999C9.29994 9.4999 8.59993 9.2999 7.99993 8.9999C7.39993 8.5999 6.79993 8.1999 6.39993 7.5999C6.29993 7.2999 5.99993 7.2999 5.79993 7.3999C5.49993 7.5999 5.49993 7.8999 5.69993 8.0999C6.19993 8.8999 6.79993 9.4999 7.59993 9.89989C8.29993 10.2999 9.19993 10.4999 10.0999 10.4999L13.2936 10.4999L11.1466 12.6459C11.0527 12.7398 11 12.8671 11 12.9999C11 13.1327 11.0527 13.26 11.1466 13.3539C11.2405 13.4478 11.3679 13.5005 11.5006 13.5005C11.6334 13.5005 11.7607 13.4478 11.8546 13.3539L14.8546 10.3539C14.9012 10.3075 14.9381 10.2523 14.9633 10.1915C14.9886 10.1308 15.0015 10.0657 15.0015 9.9999C15.0015 9.93413 14.9886 9.86901 14.9633 9.80827C14.9381 9.74752 14.9012 9.69234 14.8546 9.6459Z"/>
<path d="M10 2C8.41775 2 6.87103 2.46919 5.55544 3.34824C4.23985 4.22729 3.21447 5.47672 2.60897 6.93853C2.00347 8.40034 1.84504 10.0089 2.15372 11.5607C2.4624 13.1126 3.22433 14.538 4.34315 15.6569C5.46197 16.7757 6.88743 17.5376 8.43928 17.8463C9.99113 18.155 11.5997 17.9965 13.0615 17.391C14.5233 16.7855 15.7727 15.7602 16.6518 14.4446C17.5308 13.129 18 11.5823 18 10C18 7.87827 17.1572 5.84344 15.6569 4.34315C14.1566 2.84285 12.1217 2 10 2ZM10 17C8.61553 17 7.26216 16.5895 6.11101 15.8203C4.95987 15.0511 4.06266 13.9579 3.53285 12.6788C3.00303 11.3997 2.86441 9.99224 3.13451 8.63437C3.4046 7.2765 4.07129 6.02922 5.05026 5.05025C6.02922 4.07128 7.2765 3.4046 8.63437 3.1345C9.99224 2.86441 11.3997 3.00303 12.6788 3.53284C13.9579 4.06266 15.0511 4.95986 15.8203 6.11101C16.5895 7.26215 17 8.61553 17 10C17 11.8565 16.2625 13.637 14.9498 14.9497C13.637 16.2625 11.8565 17 10 17Z"/>
</symbol><symbol viewBox="0 0 20 20" id="bookmark_data_bar_vertical_20" xmlns="http://www.w3.org/2000/svg">
<path d="M7.37712 1.77434C7.18958 1.96188 7.08423 2.21623 7.08423 2.48145V9.48145C7.08423 9.74666 7.18958 10.001 7.37712 10.1886C7.56466 10.3761 7.81901 10.4814 8.08423 10.4814C8.34945 10.4814 8.6038 10.3761 8.79134 10.1886C8.97887 10.001 9.08423 9.74666 9.08423 9.48145V2.48145C9.08423 2.21623 8.97887 1.96188 8.79134 1.77434C8.6038 1.5868 8.34945 1.48145 8.08423 1.48145C7.81901 1.48145 7.56466 1.5868 7.37712 1.77434Z"/>
<path d="M1.37712 5.77434C1.18959 5.96187 1.08423 6.21623 1.08423 6.48145V9.48145C1.08423 9.74666 1.18959 10.001 1.37712 10.1886C1.56466 10.3761 1.81901 10.4814 2.08423 10.4814C2.34945 10.4814 2.6038 10.3761 2.79134 10.1886C2.97887 10.001 3.08423 9.74666 3.08423 9.48145V6.48145C3.08423 6.21623 2.97887 5.96187 2.79134 5.77434C2.6038 5.5868 2.34945 5.48145 2.08423 5.48145C1.81901 5.48145 1.56466 5.5868 1.37712 5.77434Z"/>
<path d="M4.37712 3.77434C4.18959 3.96188 4.08423 4.21623 4.08423 4.48145V9.48145C4.08423 9.74666 4.18959 10.001 4.37712 10.1886C4.56466 10.3761 4.81901 10.4814 5.08423 10.4814C5.34944 10.4814 5.6038 10.3761 5.79134 10.1886C5.97887 10.001 6.08423 9.74666 6.08423 9.48145V4.48145C6.08423 4.21623 5.97887 3.96188 5.79134 3.77434C5.6038 3.5868 5.34944 3.48145 5.08423 3.48145C4.81901 3.48145 4.56466 3.5868 4.37712 3.77434Z"/>
<path d="M4.08423 18.0183V11.2135C4.38568 11.3875 4.73011 11.4814 5.08423 11.4814V17.0364L9.79015 13.6139C9.96547 13.4864 10.203 13.4864 10.3783 13.6139L15.0842 17.0364V5.01831C15.0842 4.18988 14.4127 3.51831 13.5842 3.51831H10.0842V2.51831H13.5842C14.9649 2.51831 16.0842 3.6376 16.0842 5.01831V18.0183C16.0842 18.2064 15.9787 18.3785 15.8111 18.4639C15.6435 18.5492 15.4422 18.5333 15.2901 18.4227L10.0842 14.6366L4.87831 18.4227C4.72622 18.5333 4.52492 18.5492 4.35734 18.4639C4.18975 18.3785 4.08423 18.2064 4.08423 18.0183Z"/>
</symbol><symbol viewBox="0 0 20 20" id="clear_barcode_scanner_20_regular" xmlns="http://www.w3.org/2000/svg">
<path d="M2 5.5C2 4.11929 3.11929 3 4.5 3H5.5C5.77614 3 6 3.22386 6 3.5C6 3.77614 5.77614 4 5.5 4H4.5C3.67157 4 3 4.67157 3 5.5V6.5C3 6.77614 2.77614 7 2.5 7C2.22386 7 2 6.77614 2 6.5V5.5ZM14 3.5C14 3.22386 14.2239 3 14.5 3H15.5C16.8807 3 18 4.11929 18 5.5V6.5C18 6.77614 17.7761 7 17.5 7C17.2239 7 17 6.77614 17 6.5V5.5C17 4.67157 16.3284 4 15.5 4H14.5C14.2239 4 14 3.77614 14 3.5ZM2.5 13C2.77614 13 3 13.2239 3 13.5V14.5C3 15.3284 3.67157 16 4.5 16H5.5C5.77614 16 6 16.2239 6 16.5C6 16.7761 5.77614 17 5.5 17H4.5C3.11929 17 2 15.8807 2 14.5V13.5C2 13.2239 2.22386 13 2.5 13ZM5.5 6C5.77614 6 6 6.22386 6 6.5V13.5C6 13.7761 5.77614 14 5.5 14C5.22386 14 5 13.7761 5 13.5V6.5C5 6.22386 5.22386 6 5.5 6ZM9 6.5C9 6.22386 8.77614 6 8.5 6C8.22386 6 8 6.22386 8 6.5V13.5C8 13.7761 8.22386 14 8.5 14C8.77614 14 9 13.7761 9 13.5V6.5ZM11.5 6C11.7761 6 12 6.22386 12 6.5V9.59971C11.6422 9.78261 11.3071 10.0035 11 10.2572V6.5C11 6.22386 11.2239 6 11.5 6ZM14.5 9C14.6685 9 14.8353 9.00758 15 9.02242V6.5C15 6.22386 14.7761 6 14.5 6C14.2239 6 14 6.22386 14 6.5V9.02242C14.1647 9.00758 14.3315 9 14.5 9ZM14.5 19C16.9853 19 19 16.9853 19 14.5C19 12.0147 16.9853 10 14.5 10C12.0147 10 10 12.0147 10 14.5C10 16.9853 12.0147 19 14.5 19ZM16.3536 13.3536L15.2071 14.5L16.3536 15.6464C16.5488 15.8417 16.5488 16.1583 16.3536 16.3536C16.1583 16.5488 15.8417 16.5488 15.6464 16.3536L14.5 15.2071L13.3536 16.3536C13.1583 16.5488 12.8417 16.5488 12.6464 16.3536C12.4512 16.1583 12.4512 15.8417 12.6464 15.6464L13.7929 14.5L12.6464 13.3536C12.4512 13.1583 12.4512 12.8417 12.6464 12.6464C12.8417 12.4512 13.1583 12.4512 13.3536 12.6464L14.5 13.7929L15.6464 12.6464C15.8417 12.4512 16.1583 12.4512 16.3536 12.6464C16.5488 12.8417 16.5488 13.1583 16.3536 13.3536Z"/>
</symbol><symbol viewBox="0 0 24 24" id="clear_barcode_scanner_24_regular" xmlns="http://www.w3.org/2000/svg">
<path d="M4.75 3C3.23122 3 2 4.23122 2 5.75V7.25C2 7.66421 2.33579 8 2.75 8C3.16421 8 3.5 7.66421 3.5 7.25V5.75C3.5 5.05964 4.05964 4.5 4.75 4.5H6.25C6.66421 4.5 7 4.16421 7 3.75C7 3.33579 6.66421 3 6.25 3H4.75ZM17.75 3C17.3358 3 17 3.33579 17 3.75C17 4.16421 17.3358 4.5 17.75 4.5H19.25C19.9404 4.5 20.5 5.05964 20.5 5.75V7.25C20.5 7.66421 20.8358 8 21.25 8C21.6642 8 22 7.66421 22 7.25V5.75C22 4.23122 20.7688 3 19.25 3H17.75ZM3.5 16.75C3.5 16.3358 3.16421 16 2.75 16C2.33579 16 2 16.3358 2 16.75V18.25C2 19.7688 3.23122 21 4.75 21H6.25C6.66421 21 7 20.6642 7 20.25C7 19.8358 6.66421 19.5 6.25 19.5H4.75C4.05964 19.5 3.5 18.9404 3.5 18.25V16.75ZM6.5 7.75C6.5 7.33579 6.16421 7 5.75 7C5.33579 7 5 7.33579 5 7.75V16.25C5 16.6642 5.33579 17 5.75 17C6.16421 17 6.5 16.6642 6.5 16.25V7.75ZM9.75 7C10.1642 7 10.5 7.33579 10.5 7.75V14.9165C10.2286 15.5515 10.055 16.2383 9.99826 16.9579C9.92056 16.9852 9.83701 17 9.75 17C9.33579 17 9 16.6642 9 16.25V7.75C9 7.33579 9.33579 7 9.75 7ZM18.5 11.2681V7.75C18.5 7.33579 18.1642 7 17.75 7C17.3358 7 17 7.33579 17 7.75V10.9746C17.5194 11.0139 18.0217 11.1141 18.5 11.2681ZM14.5 11.2681V7.75C14.5 7.33579 14.1642 7 13.75 7C13.3358 7 13 7.33579 13 7.75V11.9734C13.4635 11.6781 13.9668 11.4397 14.5 11.2681Z"/>
<path d="M22 17.5C22 20.5376 19.5376 23 16.5 23C13.4624 23 11 20.5376 11 17.5C11 14.4624 13.4624 12 16.5 12C19.5376 12 22 14.4624 22 17.5ZM14.8536 15.1464C14.6583 14.9512 14.3417 14.9512 14.1464 15.1464C13.9512 15.3417 13.9512 15.6583 14.1464 15.8536L15.7929 17.5L14.1464 19.1464C13.9512 19.3417 13.9512 19.6583 14.1464 19.8536C14.3417 20.0488 14.6583 20.0488 14.8536 19.8536L16.5 18.2071L18.1464 19.8536C18.3417 20.0488 18.6583 20.0488 18.8536 19.8536C19.0488 19.6583 19.0488 19.3417 18.8536 19.1464L17.2071 17.5L18.8536 15.8536C19.0488 15.6583 19.0488 15.3417 18.8536 15.1464C18.6583 14.9512 18.3417 14.9512 18.1464 15.1464L16.5 16.7929L14.8536 15.1464Z"/>
</symbol><symbol viewBox="0 0 20 21" id="data_area_location_20" xmlns="http://www.w3.org/2000/svg">
<path d="M3.00012 3C3.00012 2.72386 2.77627 2.5 2.50012 2.5C2.22398 2.5 2.00012 2.72386 2.00012 3V9.98914C1.99996 9.99655 1.99996 10.004 2.00012 10.0114V18C2.00012 18.2761 2.22398 18.5 2.50012 18.5H12.8133C12.5341 18.1711 12.2873 17.8366 12.0728 17.5H3.00012V10.3249L6.97186 8.55972L10.2521 10.4341C10.4301 10.5359 10.6523 10.5186 10.8125 10.3904L15.0001 7.04031V9.52735C15.1637 9.50993 15.3309 9.50098 15.5014 9.50098C15.671 9.50098 15.8373 9.50984 16.0001 9.52708V6C16.0001 5.8078 15.89 5.63261 15.7167 5.54935C15.5435 5.46609 15.3379 5.4895 15.1878 5.60957L10.4531 9.39728L7.24819 7.56588C7.11001 7.48692 6.94249 7.47846 6.79706 7.54309L3.00012 9.23062V3Z"/>
<path fill-rule="evenodd" clip-rule="evenodd" d="M15.5014 10.501C17.5346 10.501 19 12.1492 19 14.1824C19 15.7062 18.0213 17.7123 15.7468 19.4182C15.6014 19.5273 15.4014 19.5273 15.2559 19.4182C12.9815 17.7123 12 15.7062 12 14.1824C12 12.1492 13.4682 10.501 15.5014 10.501ZM15.5 15.5C16.3284 15.5 17 14.8284 17 14C17 13.1716 16.3284 12.5 15.5 12.5C14.6716 12.5 14 13.1716 14 14C14 14.8284 14.6716 15.5 15.5 15.5Z"/>
</symbol><symbol viewBox="0 0 24 25" id="data_area_location_24" xmlns="http://www.w3.org/2000/svg">
<path d="M4.15123 3.08824C4.15123 2.76336 3.88786 2.5 3.56299 2.5C3.23812 2.5 2.97476 2.76336 2.97476 3.08824V11.3107C2.97456 11.3195 2.97456 11.3282 2.97476 11.337V20.7353C2.97476 21.0602 3.23812 21.3235 3.56299 21.3235H15.6961C15.3677 20.9366 15.0773 20.5431 14.8249 20.1471H4.15123V11.7058L8.82385 9.62909L12.6829 11.8343C12.8924 11.954 13.1538 11.9336 13.3422 11.7829L18.2689 7.84154V10.7675C18.4613 10.747 18.658 10.7364 18.8586 10.7364C19.0581 10.7364 19.2538 10.7469 19.4453 10.7672V6.61765C19.4453 6.39153 19.3157 6.18542 19.1119 6.08747C18.9081 5.98952 18.6662 6.01706 18.4896 6.15831L12.9195 10.6144L9.14896 8.45986C8.98639 8.36696 8.7893 8.35701 8.6182 8.43305L4.15123 10.4184V3.08824Z"/>
<path fill-rule="evenodd" clip-rule="evenodd" d="M18.8586 11.9129C21.2506 11.9129 22.9746 13.852 22.9746 16.244C22.9746 18.0367 21.8231 20.3969 19.1473 22.4038C18.9762 22.5321 18.7409 22.5321 18.5698 22.4038C15.894 20.3969 14.7393 18.0367 14.7393 16.244C14.7393 13.852 16.4666 11.9129 18.8586 11.9129ZM18.857 17.7941C19.8316 17.7941 20.6217 17.004 20.6217 16.0294C20.6217 15.0548 19.8316 14.2647 18.857 14.2647C17.8823 14.2647 17.0923 15.0548 17.0923 16.0294C17.0923 17.004 17.8823 17.7941 18.857 17.7941Z"/>
</symbol></svg>