<?xml version="1.0" encoding="utf-8"?><svg xmlns="http://www.w3.org/2000/svg" xmlns:xlink="http://www.w3.org/1999/xlink"><symbol viewBox="0 0 16 16" fill="none" id="asterisk_16_regular" xmlns="http://www.w3.org/2000/svg">
    <path d="M6.57962 7.99998L3.35467 6.36247C3.01278 6.18887 2.8966 5.77777 3.10119 5.4655C3.28815 5.18014 3.6769 5.08149 3.98933 5.24013L7.2898 6.91601V3.67297C7.2898 3.3013 7.60777 3 8 3C8.39222 3 8.71019 3.3013 8.71019 3.67297V6.91601L12.0107 5.24013C12.3231 5.08149 12.7118 5.18014 12.8988 5.4655C13.1034 5.77777 12.9872 6.18887 12.6453 6.36247L9.42038 7.99998L12.6453 9.6375C12.9872 9.8111 13.1034 10.2222 12.8988 10.5345C12.7118 10.8198 12.3231 10.9185 12.0107 10.7598L8.71019 9.08397V12.327C8.71019 12.6987 8.39222 13 8 13C7.60776 13 7.2898 12.6987 7.2898 12.327V9.08397L3.98933 10.7598C3.6769 10.9185 3.28815 10.8198 3.10119 10.5345C2.8966 10.2222 3.01278 9.8111 3.35467 9.6375L6.57962 7.99998Z" fill="currentColor"/>
</symbol><symbol viewBox="0 0 16 16" fill="none" id="caret_left_right_16_filled" xmlns="http://www.w3.org/2000/svg">
    <path d="M11.5711 11.8403C10.908 12.2987 10 11.8271 10 11.0244V4.97557C10 4.17284 10.908 3.70129 11.5711 4.15971L15.3555 6.77619C16.2133 7.3693 16.2134 8.63067 15.3555 9.22379L11.5711 11.8403Z" fill="currentColor"/>
    <path d="M6.42893 4.15973C7.09197 3.70132 8 4.17286 8 4.9756L8 11.0244C8 11.8272 7.09197 12.2987 6.42894 11.8403L2.64452 9.22381C1.78665 8.6307 1.78665 7.36933 2.64452 6.77621L6.42893 4.15973Z" fill="currentColor"/>
</symbol><symbol viewBox="0 0 28 28" fill="none" id="square_arrow_up_down_28_filled" xmlns="http://www.w3.org/2000/svg">
<path d="M3 6.75C3 4.67893 4.67893 3 6.75 3H21.25C23.3211 3 25 4.67893 25 6.75V16.5565C24.8341 16.5192 24.662 16.5 24.4856 16.5C23.8856 16.5 23.3216 16.734 22.8966 17.159L20.7499 19.3057V18.75C20.7499 17.51 19.7399 16.5 18.4999 16.5C17.2599 16.5 16.2499 17.51 16.2499 18.75V21.766C15.6499 21.767 15.0869 22.001 14.6629 22.425C14.2379 22.85 14.0039 23.415 14.0039 24.016C14.0039 24.3626 14.0817 24.6973 14.2292 25H6.75C4.67893 25 3 23.3211 3 21.25V6.75Z" fill="currentColor"/>
<path d="M17.9577 26.78C18.1057 26.928 18.3007 27.001 18.4947 27C18.6887 27.002 18.8837 26.928 19.0317 26.78L21.2657 24.546C21.5587 24.253 21.5587 23.778 21.2657 23.485C20.9727 23.192 20.4977 23.192 20.2047 23.485L19.2497 24.44V18.75C19.2497 18.336 18.9137 18 18.4997 18C18.0857 18 17.7497 18.336 17.7497 18.75V24.451L16.7837 23.485C16.4907 23.192 16.0157 23.192 15.7227 23.485C15.4297 23.778 15.4297 24.253 15.7227 24.546L17.9577 26.78Z" fill="currentColor"/>
<path d="M25.2387 20.549L26.2047 21.515C26.4977 21.808 26.9717 21.808 27.2647 21.515C27.5577 21.222 27.5577 20.747 27.2647 20.454L25.0307 18.22C24.8827 18.072 24.6877 17.998 24.4937 18C24.2997 17.999 24.1047 18.072 23.9567 18.22L21.7227 20.454C21.4297 20.747 21.4297 21.222 21.7227 21.515C22.0157 21.808 22.4907 21.808 22.7837 21.515L23.7387 20.56V26.25C23.7387 26.664 24.0747 27 24.4887 27C24.9027 27 25.2387 26.664 25.2387 26.25V20.549Z" fill="currentColor"/>
</symbol><symbol viewBox="0 0 28 28" fill="none" id="square_arrow_up_down_28_regular" xmlns="http://www.w3.org/2000/svg">
<path d="M3 6.75C3 4.67893 4.67893 3 6.75 3H21.25C23.3211 3 25 4.67893 25 6.75V16.5565C24.8341 16.5192 24.662 16.5 24.4856 16.5C24.1384 16.5 23.8032 16.5784 23.5 16.7268V6.75C23.5 5.50736 22.4926 4.5 21.25 4.5H6.75C5.50736 4.5 4.5 5.50736 4.5 6.75V21.25C4.5 22.4926 5.50736 23.5 6.75 23.5H14.063C14.024 23.6672 14.0039 23.84 14.0039 24.016C14.0039 24.3626 14.0817 24.6973 14.2292 25H6.75C4.67893 25 3 23.3211 3 21.25V6.75Z" fill="currentColor"/>
<path d="M17.9577 26.78C18.1057 26.928 18.3007 27.001 18.4947 27C18.6887 27.002 18.8837 26.928 19.0317 26.78L21.2657 24.546C21.5587 24.253 21.5587 23.778 21.2657 23.485C20.9727 23.192 20.4977 23.192 20.2047 23.485L19.2497 24.44V18.75C19.2497 18.336 18.9137 18 18.4997 18C18.0857 18 17.7497 18.336 17.7497 18.75V24.451L16.7837 23.485C16.4907 23.192 16.0157 23.192 15.7227 23.485C15.4297 23.778 15.4297 24.253 15.7227 24.546L17.9577 26.78Z" fill="currentColor"/>
<path d="M26.2047 21.515L25.2387 20.549V26.25C25.2387 26.664 24.9027 27 24.4887 27C24.0747 27 23.7387 26.664 23.7387 26.25V20.56L22.7837 21.515C22.4907 21.808 22.0157 21.808 21.7227 21.515C21.4297 21.222 21.4297 20.747 21.7227 20.454L23.9567 18.22C24.1047 18.072 24.2997 17.999 24.4937 18C24.6877 17.998 24.8827 18.072 25.0307 18.22L27.2647 20.454C27.5577 20.747 27.5577 21.222 27.2647 21.515C26.9717 21.808 26.4977 21.808 26.2047 21.515Z" fill="currentColor"/>
</symbol><symbol viewBox="0 0 28 28" fill="none" id="square_database_28_filled" xmlns="http://www.w3.org/2000/svg">
<path d="M3 6.75C3 4.67893 4.67893 3 6.75 3H21.25C23.3211 3 25 4.67893 25 6.75V21.25C25 23.3211 23.3211 25 21.25 25H6.75C4.67893 25 3 23.3211 3 21.25V6.75ZM17.6676 13.6419C16.6785 14.1914 15.3799 14.5 14 14.5C12.6201 14.5 11.3215 14.1914 10.3324 13.6419C10.04 13.4795 9.75486 13.2831 9.5 13.0538V17C9.5 18.3807 11.5147 19.5 14 19.5C16.4853 19.5 18.5 18.3807 18.5 17V13.0538C18.2451 13.2831 17.96 13.4795 17.6676 13.6419ZM14 8.5C11.5147 8.5 9.5 9.61929 9.5 11C9.5 12.3807 11.5147 13.5 14 13.5C16.4853 13.5 18.5 12.3807 18.5 11C18.5 9.61929 16.4853 8.5 14 8.5Z" fill="currentColor"/>
</symbol><symbol viewBox="0 0 28 28" fill="none" id="square_database_28_regular" xmlns="http://www.w3.org/2000/svg">
<path d="M17.6676 13.6419C16.6785 14.1914 15.3799 14.5 14 14.5C12.6201 14.5 11.3215 14.1914 10.3324 13.6419C10.04 13.4795 9.75486 13.2831 9.5 13.0538V17C9.5 18.3807 11.5147 19.5 14 19.5C16.4853 19.5 18.5 18.3807 18.5 17V13.0538C18.2451 13.2831 17.96 13.4795 17.6676 13.6419Z" fill="currentColor"/>
<path d="M14 8.5C11.5147 8.5 9.5 9.61929 9.5 11C9.5 12.3807 11.5147 13.5 14 13.5C16.4853 13.5 18.5 12.3807 18.5 11C18.5 9.61929 16.4853 8.5 14 8.5Z" fill="currentColor"/>
<path d="M6.75 3C4.67893 3 3 4.67893 3 6.75V21.25C3 23.3211 4.67893 25 6.75 25H21.25C23.3211 25 25 23.3211 25 21.25V6.75C25 4.67893 23.3211 3 21.25 3H6.75ZM4.5 6.75C4.5 5.50736 5.50736 4.5 6.75 4.5H21.25C22.4926 4.5 23.5 5.50736 23.5 6.75V21.25C23.5 22.4926 22.4926 23.5 21.25 23.5H6.75C5.50736 23.5 4.5 22.4926 4.5 21.25V6.75Z" fill="currentColor"/>
</symbol><symbol viewBox="0 0 28 28" fill="none" id="square_database_arrow_up_down_28_filled" xmlns="http://www.w3.org/2000/svg">
<path d="M3 6.75C3 4.67893 4.67893 3 6.75 3H21.25C23.3211 3 25 4.67893 25 6.75V16.5565C24.8341 16.5192 24.662 16.5 24.4856 16.5C23.8856 16.5 23.3216 16.734 22.8966 17.159L20.7499 19.3057V18.75C20.7499 17.51 19.74 16.5001 18.5 16.5V13.0538C18.2451 13.2831 17.96 13.4795 17.6676 13.6419C16.6785 14.1914 15.3799 14.5 14 14.5C12.6201 14.5 11.3215 14.1914 10.3324 13.6419C10.04 13.4795 9.75486 13.2831 9.5 13.0538V17C9.5 18.3807 11.5147 19.5 14 19.5C14.8196 19.5 15.588 19.3783 16.2499 19.1656V21.766C15.6499 21.767 15.0869 22.001 14.6629 22.425C14.2379 22.85 14.0039 23.415 14.0039 24.016C14.0039 24.3626 14.0817 24.6973 14.2292 25H6.75C4.67893 25 3 23.3211 3 21.25V6.75ZM14 8.5C11.5147 8.5 9.5 9.61929 9.5 11C9.5 12.3807 11.5147 13.5 14 13.5C16.4853 13.5 18.5 12.3807 18.5 11C18.5 9.61929 16.4853 8.5 14 8.5Z" fill="currentColor"/>
<path d="M18.4946 27C18.3006 27.0016 18.106 26.9284 17.9579 26.7803L15.7236 24.546C15.4307 24.2531 15.4307 23.7782 15.7236 23.4853C16.0165 23.1924 16.4913 23.1924 16.7842 23.4853L17.75 24.4511L17.75 18.75C17.75 18.3358 18.0858 18 18.5 18C18.9142 18 19.25 18.3358 19.25 18.75L19.25 24.4403L20.205 23.4853C20.4979 23.1924 20.9728 23.1924 21.2657 23.4853C21.5586 23.7782 21.5586 24.2531 21.2657 24.546L19.0313 26.7803C18.8832 26.9284 18.6887 27.0016 18.4946 27Z" fill="currentColor"/>
<path d="M25.2393 20.5489L26.205 21.5147C26.4979 21.8076 26.9728 21.8076 27.2657 21.5147C27.5586 21.2218 27.5586 20.7469 27.2657 20.454L25.0313 18.2197C24.8832 18.0716 24.6887 17.9984 24.4946 18C24.3006 17.9984 24.106 18.0716 23.9579 18.2197L21.7236 20.454C21.4307 20.7469 21.4307 21.2218 21.7236 21.5147C22.0165 21.8076 22.4913 21.8076 22.7842 21.5147L23.7393 20.5597L23.7393 26.25C23.7393 26.6642 24.075 27 24.4893 27C24.9035 27 25.2393 26.6642 25.2393 26.25L25.2393 20.5489Z" fill="currentColor"/>
</symbol><symbol viewBox="0 0 28 28" fill="none" id="square_database_arrow_up_down_28_regular" xmlns="http://www.w3.org/2000/svg">
<path d="M3 6.75C3 4.67893 4.67893 3 6.75 3H21.25C23.3211 3 25 4.67893 25 6.75V16.5565C24.8341 16.5192 24.662 16.5 24.4856 16.5C24.1384 16.5 23.8032 16.5784 23.5 16.7268V6.75C23.5 5.50736 22.4926 4.5 21.25 4.5H6.75C5.50736 4.5 4.5 5.50736 4.5 6.75V21.25C4.5 22.4926 5.50736 23.5 6.75 23.5H14.063C14.024 23.6672 14.0039 23.84 14.0039 24.016C14.0039 24.3626 14.0817 24.6973 14.2292 25H6.75C4.67893 25 3 23.3211 3 21.25V6.75Z" fill="currentColor"/>
<path d="M18.5 16.5C17.26 16.5 16.2499 17.51 16.2499 18.75V19.1656C15.588 19.3783 14.8196 19.5 14 19.5C11.5147 19.5 9.5 18.3807 9.5 17V13.0538C9.75486 13.2831 10.04 13.4795 10.3324 13.6419C11.3215 14.1914 12.6201 14.5 14 14.5C15.3799 14.5 16.6785 14.1914 17.6676 13.6419C17.96 13.4795 18.2451 13.2831 18.5 13.0538V16.5Z" fill="currentColor"/>
<path d="M9.5 11C9.5 9.61929 11.5147 8.5 14 8.5C16.4853 8.5 18.5 9.61929 18.5 11C18.5 12.3807 16.4853 13.5 14 13.5C11.5147 13.5 9.5 12.3807 9.5 11Z" fill="currentColor"/>
<path d="M25.0313 18.2197C24.8832 18.0716 24.6887 17.9984 24.4946 18C24.3006 17.9984 24.106 18.0716 23.9579 18.2197L21.7236 20.454C21.4307 20.7469 21.4307 21.2218 21.7236 21.5147C22.0165 21.8076 22.4913 21.8076 22.7842 21.5147L23.7393 20.5597L23.7393 26.25C23.7393 26.6642 24.075 27 24.4893 27C24.9035 27 25.2393 26.6642 25.2393 26.25L25.2393 20.5489L26.205 21.5147C26.4979 21.8076 26.9728 21.8076 27.2657 21.5147C27.5586 21.2218 27.5586 20.7469 27.2657 20.454L25.0313 18.2197Z" fill="currentColor"/>
<path d="M17.75 18.75L17.75 24.4511L16.7842 23.4853C16.4913 23.1924 16.0165 23.1924 15.7236 23.4853C15.4307 23.7782 15.4307 24.2531 15.7236 24.546L17.9579 26.7803C18.106 26.9284 18.3006 27.0016 18.4946 27C18.6887 27.0016 18.8832 26.9284 19.0313 26.7803L21.2657 24.546C21.5586 24.2531 21.5586 23.7782 21.2657 23.4853C20.9728 23.1924 20.4979 23.1924 20.205 23.4853L19.25 24.4403L19.25 18.75C19.25 18.3358 18.9142 18 18.5 18C18.0858 18 17.75 18.3358 17.75 18.75Z" fill="currentColor"/>
</symbol><symbol viewBox="0 0 28 28" fill="none" id="square_globe_arrow_up_down_28_filled" xmlns="http://www.w3.org/2000/svg">
<path d="M3 6.75C3 4.67893 4.67893 3 6.75 3H21.25C23.3211 3 25 4.67893 25 6.75V16.5565C24.8341 16.5192 24.662 16.5 24.4856 16.5C23.8856 16.5 23.3216 16.734 22.8966 17.159L20.7499 19.3057V18.75C20.7499 18.3843 20.6621 18.0387 20.5064 17.733C21.1385 16.6337 21.5 15.3591 21.5 14C21.5 9.85786 18.1421 6.5 14 6.5C9.85786 6.5 6.5 9.85786 6.5 14C6.5 18.1421 9.85786 21.5 14 21.5C14.7839 21.5 15.5397 21.3797 16.2499 21.1567V21.766C15.6499 21.767 15.0869 22.001 14.6629 22.425C14.2379 22.85 14.0039 23.415 14.0039 24.016C14.0039 24.3626 14.0817 24.6973 14.2292 25H6.75C4.67893 25 3 23.3211 3 21.25V6.75Z" fill="currentColor"/>
<path d="M19.808 16.9207C20.1796 16.1832 20.4148 15.3653 20.4807 14.5H17.4927C17.4697 15.3325 17.3895 16.133 17.2591 16.8742C17.6151 16.6379 18.0418 16.5 18.4999 16.5C18.9873 16.5 19.4391 16.656 19.808 16.9207Z" fill="currentColor"/>
<path d="M16.4923 13.5H11.5069C11.6051 10.1438 12.6836 7.5 13.9996 7.5C15.3156 7.5 16.3941 10.1438 16.4923 13.5Z" fill="currentColor"/>
<path d="M11.2985 18.9552C11.4647 19.3872 11.6624 19.7947 11.8957 20.152C9.48917 19.3292 7.71893 17.134 7.51855 14.5H10.5065C10.5533 16.194 10.8369 17.755 11.2985 18.9552Z" fill="currentColor"/>
<path d="M16.4923 14.5C16.3941 17.8562 15.3156 20.5 13.9996 20.5C12.6836 20.5 11.6051 17.8562 11.5069 14.5H16.4923Z" fill="currentColor"/>
<path d="M16.7007 9.04483C16.5346 8.61279 16.3368 8.20525 16.1035 7.84804C18.5101 8.67084 20.2803 10.866 20.4807 13.5H17.4927C17.4459 11.806 17.1623 10.245 16.7007 9.04483Z" fill="currentColor"/>
<path d="M11.8957 7.84804C11.6624 8.20525 11.4647 8.61279 11.2985 9.04483C10.8369 10.245 10.5533 11.806 10.5065 13.5H7.51855C7.71893 10.866 9.48917 8.67084 11.8957 7.84804Z" fill="currentColor"/>
<path d="M17.9577 26.78C18.1057 26.928 18.3007 27.001 18.4947 27C18.6887 27.002 18.8837 26.928 19.0317 26.78L21.2657 24.546C21.5587 24.253 21.5587 23.778 21.2657 23.485C20.9727 23.192 20.4977 23.192 20.2047 23.485L19.2497 24.44V18.75C19.2497 18.336 18.9137 18 18.4997 18C18.0857 18 17.7497 18.336 17.7497 18.75V24.451L16.7837 23.485C16.4907 23.192 16.0157 23.192 15.7227 23.485C15.4297 23.778 15.4297 24.253 15.7227 24.546L17.9577 26.78Z" fill="currentColor"/>
<path d="M26.2047 21.515L25.2387 20.549V26.25C25.2387 26.664 24.9027 27 24.4887 27C24.0747 27 23.7387 26.664 23.7387 26.25V20.56L22.7837 21.515C22.4907 21.808 22.0157 21.808 21.7227 21.515C21.4297 21.222 21.4297 20.747 21.7227 20.454L23.9567 18.22C24.1047 18.072 24.2997 17.999 24.4937 18C24.6877 17.998 24.8827 18.072 25.0307 18.22L27.2647 20.454C27.5577 20.747 27.5577 21.222 27.2647 21.515C26.9717 21.808 26.4977 21.808 26.2047 21.515Z" fill="currentColor"/>
</symbol><symbol viewBox="0 0 28 28" fill="none" id="square_globe_arrow_up_down_28_regular" xmlns="http://www.w3.org/2000/svg">
<path d="M3 6.75C3 4.67893 4.67893 3 6.75 3H21.25C23.3211 3 25 4.67893 25 6.75V16.5565C24.8341 16.5192 24.662 16.5 24.4856 16.5C24.1384 16.5 23.8032 16.5784 23.5 16.7268V6.75C23.5 5.50736 22.4926 4.5 21.25 4.5H6.75C5.50736 4.5 4.5 5.50736 4.5 6.75V21.25C4.5 22.4926 5.50736 23.5 6.75 23.5H14.063C14.024 23.6672 14.0039 23.84 14.0039 24.016C14.0039 24.3626 14.0817 24.6973 14.2292 25H6.75C4.67893 25 3 23.3211 3 21.25V6.75Z" fill="currentColor"/>
<path d="M19.808 16.9207C20.1796 16.1832 20.4148 15.3653 20.4807 14.5H17.4927C17.4697 15.3325 17.3895 16.133 17.2591 16.8742C17.6151 16.6379 18.0418 16.5 18.4999 16.5C18.9873 16.5 19.4391 16.656 19.808 16.9207Z" fill="currentColor"/>
<path d="M16.4923 13.5H11.5069C11.6051 10.1438 12.6836 7.5 13.9996 7.5C15.3156 7.5 16.3941 10.1438 16.4923 13.5Z" fill="currentColor"/>
<path d="M11.2985 18.9552C11.4647 19.3872 11.6624 19.7947 11.8957 20.152C9.48917 19.3292 7.71893 17.134 7.51855 14.5H10.5065C10.5533 16.194 10.8369 17.755 11.2985 18.9552Z" fill="currentColor"/>
<path d="M16.4923 14.5C16.3941 17.8562 15.3156 20.5 13.9996 20.5C12.6836 20.5 11.6051 17.8562 11.5069 14.5H16.4923Z" fill="currentColor"/>
<path d="M16.7007 9.04483C16.5346 8.61279 16.3368 8.20525 16.1035 7.84804C18.5101 8.67084 20.2803 10.866 20.4807 13.5H17.4927C17.4459 11.806 17.1623 10.245 16.7007 9.04483Z" fill="currentColor"/>
<path d="M11.8957 7.84804C11.6624 8.20525 11.4647 8.61279 11.2985 9.04483C10.8369 10.245 10.5533 11.806 10.5065 13.5H7.51855C7.71893 10.866 9.48917 8.67084 11.8957 7.84804Z" fill="currentColor"/>
<path d="M17.9577 26.78C18.1057 26.928 18.3007 27.001 18.4947 27C18.6887 27.002 18.8837 26.928 19.0317 26.78L21.2657 24.546C21.5587 24.253 21.5587 23.778 21.2657 23.485C20.9727 23.192 20.4977 23.192 20.2047 23.485L19.2497 24.44V18.75C19.2497 18.336 18.9137 18 18.4997 18C18.0857 18 17.7497 18.336 17.7497 18.75V24.451L16.7837 23.485C16.4907 23.192 16.0157 23.192 15.7227 23.485C15.4297 23.778 15.4297 24.253 15.7227 24.546L17.9577 26.78Z" fill="currentColor"/>
<path d="M26.2047 21.515L25.2387 20.549V26.25C25.2387 26.664 24.9027 27 24.4887 27C24.0747 27 23.7387 26.664 23.7387 26.25V20.56L22.7837 21.515C22.4907 21.808 22.0157 21.808 21.7227 21.515C21.4297 21.222 21.4297 20.747 21.7227 20.454L23.9567 18.22C24.1047 18.072 24.2997 17.999 24.4937 18C24.6877 17.998 24.8827 18.072 25.0307 18.22L27.2647 20.454C27.5577 20.747 27.5577 21.222 27.2647 21.515C26.9717 21.808 26.4977 21.808 26.2047 21.515Z" fill="currentColor"/>
</symbol><symbol viewBox="0 0 28 28" fill="none" id="square_waves_28_filled" xmlns="http://www.w3.org/2000/svg">
<path d="M6.75 3C4.67893 3 3 4.67893 3 6.75V21.25C3 23.3211 4.67893 25 6.75 25H11.6293C11.5456 24.7647 11.5 24.5116 11.5 24.248C11.5 23.008 12.509 21.998 13.75 21.998C14.123 21.998 14.353 21.89 14.571 21.61C14.621 21.5459 14.6634 21.4816 14.6987 21.4216C14.3904 21.4723 14.0737 21.498 13.75 21.498C12.509 21.498 11.5 20.488 11.5 19.248C11.5 18.008 12.509 16.998 13.75 16.998C14.123 16.998 14.353 16.89 14.571 16.61C14.681 16.469 14.754 16.327 14.796 16.232L14.845 16.115C15.158 15.143 16.009 14.512 16.968 14.498C17.996 14.498 18.862 15.139 19.153 16.091C19.163 16.117 19.181 16.163 19.207 16.221C19.228 16.268 19.263 16.339 19.306 16.415C19.348 16.487 19.401 16.57 19.461 16.652C19.6912 16.9596 19.8545 16.9837 19.9166 16.9928L19.918 16.993L20.0969 16.9909C20.1575 16.9808 20.3151 16.9545 20.544 16.648C20.6 16.573 20.651 16.493 20.693 16.418C20.742 16.332 20.774 16.264 20.801 16.205C20.82 16.163 20.838 16.117 20.849 16.086C21.139 15.138 22.004 14.498 23 14.498C23.8649 14.5107 24.6241 14.9938 25 15.7182V6.75C25 4.67893 23.3211 3 21.25 3H6.75Z" fill="currentColor"/>
<path d="M22 17.1526C21.9286 17.2794 21.8432 17.4144 21.7429 17.5483C21.413 17.9884 20.9615 18.3706 20.3335 18.4719C20.2275 18.489 20.1164 18.498 20 18.498C19.8993 18.498 19.8026 18.4912 19.7096 18.4783C19.0591 18.388 18.5945 17.9984 18.2571 17.5483C18.1568 17.4144 18.0714 17.2794 18 17.1526V17.1544C17.9337 17.037 17.8794 16.9267 17.8363 16.8309C17.792 16.7325 17.7607 16.6521 17.7413 16.5988C17.7316 16.5722 17.725 16.5526 17.7212 16.5411L17.7175 16.5298C17.6203 16.2101 17.3232 15.9932 16.9889 15.9981C16.655 16.0031 16.3647 16.2282 16.2766 16.55L16.274 16.559C16.2708 16.5693 16.2651 16.5877 16.2565 16.613C16.2391 16.6637 16.2105 16.7412 16.1685 16.8366C16.0838 17.0292 15.9493 17.284 15.7523 17.5353C15.3681 18.0254 14.7564 18.498 13.75 18.498C13.3358 18.498 13 18.8338 13 19.248C13 19.6623 13.3358 19.998 13.75 19.998C15.3236 19.998 16.3369 19.2207 16.9327 18.4608C16.9559 18.4312 16.9785 18.4016 17.0005 18.3721C17.0187 18.3974 17.0373 18.4227 17.0562 18.448C17.5267 19.0753 18.2854 19.7601 19.3945 19.948C19.5858 19.9804 19.7875 19.998 20 19.998C20.2053 19.998 20.4005 19.9816 20.586 19.9513C21.7058 19.7681 22.4706 19.0789 22.9438 18.448C22.9627 18.4227 22.9813 18.3974 22.9995 18.3721C23.0215 18.4016 23.0441 18.4312 23.0673 18.4608C23.6631 19.2207 24.6764 19.998 26.25 19.998C26.6642 19.998 27 19.6623 27 19.248C27 18.8338 26.6642 18.498 26.25 18.498C25.2436 18.498 24.6319 18.0254 24.2477 17.5353C24.0507 17.284 23.9162 17.0292 23.8315 16.8366C23.7895 16.7412 23.7609 16.6637 23.7435 16.613C23.7349 16.5877 23.7292 16.5693 23.726 16.559L23.7234 16.55C23.6353 16.2282 23.345 16.0031 23.0111 15.9981C22.6768 15.9932 22.3797 16.2101 22.2825 16.5298L22.2788 16.5411C22.275 16.5526 22.2684 16.5722 22.2587 16.5988C22.2393 16.6521 22.208 16.7325 22.1637 16.8309C22.1206 16.9267 22.0663 17.037 22 17.1544V17.1526Z" fill="currentColor"/>
<path d="M22 22.1526C21.9286 22.2794 21.8432 22.4144 21.7429 22.5483C21.413 22.9884 20.9615 23.3706 20.3335 23.4719C20.2275 23.489 20.1164 23.498 20 23.498C19.8993 23.498 19.8026 23.4912 19.7096 23.4783C19.0591 23.388 18.5945 22.9984 18.2571 22.5483C18.1568 22.4144 18.0714 22.2794 18 22.1526V22.1544C17.9337 22.037 17.8794 21.9267 17.8363 21.8309C17.792 21.7325 17.7607 21.6521 17.7413 21.5988C17.7316 21.5722 17.725 21.5526 17.7212 21.5411L17.7175 21.5298C17.6203 21.2101 17.3232 20.9932 16.9889 20.9981C16.655 21.0031 16.3647 21.2282 16.2766 21.55L16.274 21.559C16.2708 21.5693 16.2651 21.5877 16.2565 21.613C16.2391 21.6637 16.2105 21.7412 16.1685 21.8366C16.0838 22.0292 15.9493 22.284 15.7523 22.5353C15.3681 23.0254 14.7564 23.498 13.75 23.498C13.3358 23.498 13 23.8338 13 24.248C13 24.6623 13.3358 24.998 13.75 24.998C15.3236 24.998 16.3369 24.2207 16.9327 23.4608C16.9559 23.4312 16.9785 23.4016 17.0005 23.3721C17.0187 23.3974 17.0373 23.4227 17.0562 23.448C17.5267 24.0753 18.2854 24.7601 19.3945 24.948C19.5858 24.9804 19.7875 24.998 20 24.998C20.2053 24.998 20.4005 24.9816 20.586 24.9513C21.7058 24.7681 22.4706 24.0789 22.9438 23.448C22.9627 23.4227 22.9813 23.3974 22.9995 23.3721C23.0215 23.4016 23.0441 23.4312 23.0673 23.4608C23.6631 24.2207 24.6764 24.998 26.25 24.998C26.6642 24.998 27 24.6623 27 24.248C27 23.8338 26.6642 23.498 26.25 23.498C25.2436 23.498 24.6319 23.0254 24.2477 22.5353C24.0507 22.284 23.9162 22.0292 23.8315 21.8366C23.7895 21.7412 23.7609 21.6637 23.7435 21.613C23.7349 21.5877 23.7292 21.5693 23.726 21.559L23.7234 21.55C23.6353 21.2282 23.345 21.0031 23.0111 20.9981C22.6768 20.9932 22.3797 21.2101 22.2825 21.5298L22.2788 21.5411C22.275 21.5526 22.2684 21.5722 22.2587 21.5988C22.2393 21.6521 22.208 21.7325 22.1637 21.8309C22.1206 21.9267 22.0663 22.037 22 22.1544V22.1526Z" fill="currentColor"/>
</symbol><symbol viewBox="0 0 28 28" fill="none" id="square_waves_28_regular" xmlns="http://www.w3.org/2000/svg">
<path d="M3 6.75C3 4.67893 4.67893 3 6.75 3H21.25C23.3211 3 25 4.67893 25 6.75V15.7182C24.6986 15.1375 24.151 14.7118 23.5 14.5593V6.75C23.5 5.50736 22.4926 4.5 21.25 4.5H6.75C5.50736 4.5 4.5 5.50736 4.5 6.75V21.25C4.5 22.4926 5.50736 23.5 6.75 23.5H11.6279C11.5451 23.7342 11.5 23.986 11.5 24.248C11.5 24.5116 11.5456 24.7647 11.6293 25H6.75C4.67893 25 3 23.3211 3 21.25V6.75Z" fill="currentColor"/>
<path d="M22 17.1526C21.9286 17.2794 21.8432 17.4144 21.7429 17.5483C21.413 17.9884 20.9615 18.3706 20.3335 18.4719C20.2275 18.489 20.1164 18.498 20 18.498C19.8993 18.498 19.8026 18.4912 19.7096 18.4783C19.0591 18.388 18.5945 17.9984 18.2571 17.5483C18.1568 17.4144 18.0714 17.2794 18 17.1526V17.1544C17.9337 17.037 17.8794 16.9267 17.8363 16.8309C17.792 16.7325 17.7607 16.6521 17.7413 16.5988C17.7316 16.5722 17.725 16.5526 17.7212 16.5411L17.7175 16.5298C17.6203 16.2101 17.3232 15.9932 16.9889 15.9981C16.655 16.0031 16.3647 16.2282 16.2766 16.55L16.274 16.559C16.2708 16.5693 16.2651 16.5877 16.2565 16.613C16.2391 16.6637 16.2105 16.7412 16.1685 16.8366C16.0838 17.0292 15.9493 17.284 15.7523 17.5353C15.3681 18.0254 14.7564 18.498 13.75 18.498C13.3358 18.498 13 18.8338 13 19.248C13 19.6623 13.3358 19.998 13.75 19.998C15.3236 19.998 16.3369 19.2207 16.9327 18.4608C16.9559 18.4312 16.9785 18.4016 17.0005 18.3721C17.0187 18.3974 17.0373 18.4227 17.0562 18.448C17.5267 19.0753 18.2854 19.7601 19.3945 19.948C19.5858 19.9804 19.7875 19.998 20 19.998C20.2053 19.998 20.4005 19.9816 20.586 19.9513C21.7058 19.7681 22.4706 19.0789 22.9438 18.448C22.9627 18.4227 22.9813 18.3974 22.9995 18.3721C23.0215 18.4016 23.0441 18.4312 23.0673 18.4608C23.6631 19.2207 24.6764 19.998 26.25 19.998C26.6642 19.998 27 19.6623 27 19.248C27 18.8338 26.6642 18.498 26.25 18.498C25.2436 18.498 24.6319 18.0254 24.2477 17.5353C24.0507 17.284 23.9162 17.0292 23.8315 16.8366C23.7895 16.7412 23.7609 16.6637 23.7435 16.613C23.7349 16.5877 23.7292 16.5693 23.726 16.559L23.7234 16.55C23.6353 16.2282 23.345 16.0031 23.0111 15.9981C22.6768 15.9932 22.3797 16.2101 22.2825 16.5298L22.2788 16.5411C22.275 16.5526 22.2684 16.5722 22.2587 16.5988C22.2393 16.6521 22.208 16.7325 22.1637 16.8309C22.1206 16.9267 22.0663 17.037 22 17.1544V17.1526Z" fill="currentColor"/>
<path d="M22 22.1526C21.9286 22.2794 21.8432 22.4144 21.7429 22.5483C21.413 22.9884 20.9615 23.3706 20.3335 23.4719C20.2275 23.489 20.1164 23.498 20 23.498C19.8993 23.498 19.8026 23.4912 19.7096 23.4783C19.0591 23.388 18.5945 22.9984 18.2571 22.5483C18.1568 22.4144 18.0714 22.2794 18 22.1526V22.1544C17.9337 22.037 17.8794 21.9267 17.8363 21.8309C17.792 21.7325 17.7607 21.6521 17.7413 21.5988C17.7316 21.5722 17.725 21.5526 17.7212 21.5411L17.7175 21.5298C17.6203 21.2101 17.3232 20.9932 16.9889 20.9981C16.655 21.0031 16.3647 21.2282 16.2766 21.55L16.274 21.559C16.2708 21.5693 16.2651 21.5877 16.2565 21.613C16.2391 21.6637 16.2105 21.7412 16.1685 21.8366C16.0838 22.0292 15.9493 22.284 15.7523 22.5353C15.3681 23.0254 14.7564 23.498 13.75 23.498C13.3358 23.498 13 23.8338 13 24.248C13 24.6623 13.3358 24.998 13.75 24.998C15.3236 24.998 16.3369 24.2207 16.9327 23.4608C16.9559 23.4312 16.9785 23.4016 17.0005 23.3721C17.0187 23.3974 17.0373 23.4227 17.0562 23.448C17.5267 24.0753 18.2854 24.7601 19.3945 24.948C19.5858 24.9804 19.7875 24.998 20 24.998C20.2053 24.998 20.4005 24.9816 20.586 24.9513C21.7058 24.7681 22.4706 24.0789 22.9438 23.448C22.9627 23.4227 22.9813 23.3974 22.9995 23.3721C23.0215 23.4016 23.0441 23.4312 23.0673 23.4608C23.6631 24.2207 24.6764 24.998 26.25 24.998C26.6642 24.998 27 24.6623 27 24.248C27 23.8338 26.6642 23.498 26.25 23.498C25.2436 23.498 24.6319 23.0254 24.2477 22.5353C24.0507 22.284 23.9162 22.0292 23.8315 21.8366C23.7895 21.7412 23.7609 21.6637 23.7435 21.613C23.7349 21.5877 23.7292 21.5693 23.726 21.559L23.7234 21.55C23.6353 21.2282 23.345 21.0031 23.0111 20.9981C22.6768 20.9932 22.3797 21.2101 22.2825 21.5298L22.2788 21.5411C22.275 21.5526 22.2684 21.5722 22.2587 21.5988C22.2393 21.6521 22.208 21.7325 22.1637 21.8309C22.1206 21.9267 22.0663 22.037 22 22.1544V22.1526Z" fill="currentColor"/>
</symbol><symbol viewBox="0 0 48 48" fill="none" id="table_unavailable_48_regular" xmlns="http://www.w3.org/2000/svg">
    <path d="M47 7.25C47 3.79822 44.2018 1 40.75 1H17.25C13.7982 1 11 3.79822 11 7.25V17H13.5V14.5H22V17H23C23.5127 17 24.0141 17.0482 24.5 17.1404V14.5H33.5V23.5H30.8596C30.9518 23.9859 31 24.4873 31 25V26H33.5V34.5H31V37H40.75C44.2018 37 47 34.2018 47 30.75V7.25ZM40.75 34.5H36V26H44.5V30.75C44.5 32.8211 42.8211 34.5 40.75 34.5ZM44.5 14.5V23.5H36V14.5L44.5 14.5ZM44.5 7.25V12L36 12V3.5H40.75C42.8211 3.5 44.5 5.17893 44.5 7.25ZM24.5 3.5H33.5V12H24.5V3.5ZM17.25 3.5H22V12H13.5V7.25C13.5 5.17893 15.1789 3.5 17.25 3.5Z" fill="currentColor"/>
    <path d="M20.7071 27.2929C21.0976 27.6834 21.0976 28.3166 20.7071 28.7071L16.4142 33L20.7071 37.2929C21.0976 37.6834 21.0976 38.3166 20.7071 38.7071C20.3166 39.0976 19.6834 39.0976 19.2929 38.7071L15 34.4142L10.7071 38.7071C10.3166 39.0976 9.68342 39.0976 9.29289 38.7071C8.90237 38.3166 8.90237 37.6834 9.29289 37.2929L13.5858 33L9.29289 28.7071C8.90237 28.3166 8.90237 27.6834 9.29289 27.2929C9.68342 26.9024 10.3166 26.9024 10.7071 27.2929L15 31.5858L19.2929 27.2929C19.6834 26.9024 20.3166 26.9024 20.7071 27.2929ZM15 19C7.26801 19 1 25.268 1 33C1 40.732 7.26801 47 15 47C22.732 47 29 40.732 29 33C29 25.268 22.732 19 15 19ZM3 33C3 26.3726 8.37258 21 15 21C21.6274 21 27 26.3726 27 33C27 39.6274 21.6274 45 15 45C8.37258 45 3 39.6274 3 33Z" fill="currentColor"/>
</symbol></svg>