<?xml version="1.0" encoding="utf-8"?><svg xmlns="http://www.w3.org/2000/svg" xmlns:xlink="http://www.w3.org/1999/xlink"><symbol viewBox="0 0 20 20" fill="none" id="num_01_20" xmlns="http://www.w3.org/2000/svg">
<path d="M6.74609 15.1392C8.99325 15.1392 10.2859 13.2351 10.2859 9.90909C10.2859 6.60795 8.97337 4.67898 6.74609 4.67898C4.51882 4.67898 3.20632 6.60795 3.20632 9.90909C3.20632 13.2351 4.49893 15.1392 6.74609 15.1392ZM6.74609 14.0455C5.26456 14.0455 4.3995 12.5589 4.3995 9.90909C4.3995 7.2642 5.2745 5.75284 6.74609 5.75284C8.21768 5.75284 9.09268 7.2642 9.09268 9.90909C9.09268 12.5589 8.22763 14.0455 6.74609 14.0455ZM15.7546 4.81818H14.5217L11.9762 6.50852V7.76136L14.462 6.1108H14.5217V15H15.7546V4.81818Z" fill="black"/>
</symbol><symbol viewBox="0 0 20 20" fill="none" id="num_02_20" xmlns="http://www.w3.org/2000/svg">
<path d="M5.76172 15.1392C8.00888 15.1392 9.30149 13.2351 9.30149 9.90909C9.30149 6.60795 7.98899 4.67898 5.76172 4.67898C3.53445 4.67898 2.22195 6.60795 2.22195 9.90909C2.22195 13.2351 3.51456 15.1392 5.76172 15.1392ZM5.76172 14.0455C4.28018 14.0455 3.41513 12.5589 3.41513 9.90909C3.41513 7.2642 4.29013 5.75284 5.76172 5.75284C7.23331 5.75284 8.10831 7.2642 8.10831 9.90909C8.10831 12.5589 7.24325 14.0455 5.76172 14.0455ZM11.1907 15H17.614V13.9062H12.881V13.8267L15.168 11.3807C16.918 9.50639 17.435 8.63139 17.435 7.50284C17.435 5.93182 16.1623 4.67898 14.3725 4.67898C12.5877 4.67898 11.2305 5.89205 11.2305 7.68182H12.4038C12.4038 6.52344 13.1545 5.75284 14.3327 5.75284C15.4364 5.75284 16.2816 6.42898 16.2816 7.50284C16.2816 8.44247 15.7298 9.13849 14.5515 10.4261L11.1907 14.1051V15Z" fill="black"/>
</symbol><symbol viewBox="0 0 20 20" fill="none" id="num_03_20" xmlns="http://www.w3.org/2000/svg">
<path d="M5.54297 15.1392C7.79013 15.1392 9.08274 13.2351 9.08274 9.90909C9.08274 6.60795 7.77024 4.67898 5.54297 4.67898C3.3157 4.67898 2.0032 6.60795 2.0032 9.90909C2.0032 13.2351 3.29581 15.1392 5.54297 15.1392ZM5.54297 14.0455C4.06143 14.0455 3.19638 12.5589 3.19638 9.90909C3.19638 7.2642 4.07138 5.75284 5.54297 5.75284C7.01456 5.75284 7.88956 7.2642 7.88956 9.90909C7.88956 12.5589 7.0245 14.0455 5.54297 14.0455ZM14.4123 15.1392C16.386 15.1392 17.8526 13.9013 17.8526 12.2358C17.8526 10.9432 17.087 10.0036 15.8043 9.78977V9.71023C16.8335 9.39702 17.4748 8.55185 17.4748 7.40341C17.4748 5.96165 16.3363 4.67898 14.4521 4.67898C12.6921 4.67898 11.2305 5.76278 11.1708 7.36364H12.364C12.4087 6.34943 13.3732 5.75284 14.4322 5.75284C15.5558 5.75284 16.2816 6.43395 16.2816 7.46307C16.2816 8.53693 15.4414 9.23295 14.2333 9.23295H13.418V10.3267H14.2333C15.7795 10.3267 16.6396 11.1122 16.6396 12.2358C16.6396 13.3146 15.6999 14.0455 14.3924 14.0455C13.2141 14.0455 12.2795 13.4389 12.2049 12.4545H10.9521C11.0266 14.0554 12.4386 15.1392 14.4123 15.1392Z" fill="black"/>
</symbol><symbol viewBox="0 0 20 20" fill="none" id="num_04_20" xmlns="http://www.w3.org/2000/svg">
<path d="M5.50879 15.1392C7.75595 15.1392 9.04856 13.2351 9.04856 9.90909C9.04856 6.60795 7.73606 4.67898 5.50879 4.67898C3.28152 4.67898 1.96902 6.60795 1.96902 9.90909C1.96902 13.2351 3.26163 15.1392 5.50879 15.1392ZM5.50879 14.0455C4.02726 14.0455 3.1622 12.5589 3.1622 9.90909C3.1622 7.2642 4.0372 5.75284 5.50879 5.75284C6.98038 5.75284 7.85538 7.2642 7.85538 9.90909C7.85538 12.5589 6.99032 14.0455 5.50879 14.0455ZM10.6991 12.9119H15.4917V15H16.665V12.9119H18.0571V11.8182H16.665V4.81818H15.1736L10.6991 11.8977V12.9119ZM15.4917 11.8182H12.0315V11.7386L15.4122 6.3892H15.4917V11.8182Z" fill="black"/>
</symbol><symbol viewBox="0 0 20 20" fill="none" id="num_05_20" xmlns="http://www.w3.org/2000/svg">
<path d="M5.74121 15.1392C7.98837 15.1392 9.28098 13.2351 9.28098 9.90909C9.28098 6.60795 7.96848 4.67898 5.74121 4.67898C3.51394 4.67898 2.20144 6.60795 2.20144 9.90909C2.20144 13.2351 3.49405 15.1392 5.74121 15.1392ZM5.74121 14.0455C4.25968 14.0455 3.39462 12.5589 3.39462 9.90909C3.39462 7.2642 4.26962 5.75284 5.74121 5.75284C7.2128 5.75284 8.0878 7.2642 8.0878 9.90909C8.0878 12.5589 7.22275 14.0455 5.74121 14.0455ZM14.352 15.1392C16.2909 15.1392 17.7128 13.7074 17.7128 11.7585C17.7128 9.7848 16.3406 8.33807 14.4713 8.33807C13.7852 8.33807 13.1191 8.58168 12.7014 8.91477H12.6418L12.9997 5.91193H17.2554V4.81818H11.9656L11.3492 9.82955L12.5026 9.96875C12.9252 9.66548 13.646 9.44673 14.2725 9.4517C15.57 9.46165 16.5196 10.446 16.5196 11.7784C16.5196 13.0859 15.6048 14.0455 14.352 14.0455C13.308 14.0455 12.4777 13.3743 12.3833 12.4545H11.1901C11.2646 14.0057 12.602 15.1392 14.352 15.1392Z" fill="black"/>
</symbol><symbol viewBox="0 0 20 20" fill="none" id="num_06_20" xmlns="http://www.w3.org/2000/svg">
<path d="M5.63184 15.1392C7.879 15.1392 9.17161 13.2351 9.17161 9.90909C9.17161 6.60795 7.85911 4.67898 5.63184 4.67898C3.40456 4.67898 2.09206 6.60795 2.09206 9.90909C2.09206 13.2351 3.38468 15.1392 5.63184 15.1392ZM5.63184 14.0455C4.1503 14.0455 3.28525 12.5589 3.28525 9.90909C3.28525 7.2642 4.16025 5.75284 5.63184 5.75284C7.10343 5.75284 7.97843 7.2642 7.97843 9.90909C7.97843 12.5589 7.11337 14.0455 5.63184 14.0455ZM14.4415 15.1392C16.4997 15.1641 17.8421 13.6129 17.8421 11.7188C17.8421 9.75 16.3854 8.33807 14.6404 8.33807C13.5914 8.33807 12.6915 8.85014 12.1347 9.69034H12.0551C12.0601 7.18963 13.0246 5.75284 14.6006 5.75284C15.6744 5.75284 16.3208 6.42898 16.5494 7.36364H17.7625C17.5139 5.76278 16.3108 4.65909 14.6006 4.65909C12.3087 4.65909 10.9017 6.6875 10.9017 10.3068C10.9017 14.0703 12.771 15.1193 14.4415 15.1392ZM14.4415 14.0455C13.1638 14.0455 12.2291 12.9567 12.2341 11.7386C12.2391 10.5206 13.2185 9.43182 14.4813 9.43182C15.7291 9.43182 16.6489 10.456 16.6489 11.7188C16.6489 13.0114 15.6894 14.0455 14.4415 14.0455Z" fill="black"/>
</symbol><symbol viewBox="0 0 20 20" fill="none" id="num_07_20" xmlns="http://www.w3.org/2000/svg">
<path d="M6.1377 15.1392C8.38485 15.1392 9.67747 13.2351 9.67747 9.90909C9.67747 6.60795 8.36497 4.67898 6.1377 4.67898C3.91042 4.67898 2.59792 6.60795 2.59792 9.90909C2.59792 13.2351 3.89054 15.1392 6.1377 15.1392ZM6.1377 14.0455C4.65616 14.0455 3.7911 12.5589 3.7911 9.90909C3.7911 7.2642 4.6661 5.75284 6.1377 5.75284C7.60929 5.75284 8.48429 7.2642 8.48429 9.90909C8.48429 12.5589 7.61923 14.0455 6.1377 14.0455ZM11.6114 15H12.904L17.4381 5.97159V4.81818H10.9154V5.91193H16.1654V5.99148L11.6114 15Z" fill="black"/>
</symbol><symbol viewBox="0 0 20 20" fill="none" id="num_08_20" xmlns="http://www.w3.org/2000/svg">
<path d="M5.68652 15.1392C7.93368 15.1392 9.2263 13.2351 9.2263 9.90909C9.2263 6.60795 7.9138 4.67898 5.68652 4.67898C3.45925 4.67898 2.14675 6.60795 2.14675 9.90909C2.14675 13.2351 3.43936 15.1392 5.68652 15.1392ZM5.68652 14.0455C4.20499 14.0455 3.33993 12.5589 3.33993 9.90909C3.33993 7.2642 4.21493 5.75284 5.68652 5.75284C7.15811 5.75284 8.03311 7.2642 8.03311 9.90909C8.03311 12.5589 7.16806 14.0455 5.68652 14.0455ZM14.3769 15.1392C16.4102 15.1392 17.8271 13.951 17.8371 12.2955C17.8271 11.0078 16.9671 9.91406 15.8683 9.71023V9.65057C16.8229 9.40199 17.4493 8.46733 17.4593 7.38352C17.4493 5.83239 16.1468 4.67898 14.3769 4.67898C12.5871 4.67898 11.2845 5.83239 11.2945 7.38352C11.2845 8.46733 11.911 9.40199 12.8854 9.65057V9.71023C11.7668 9.91406 10.9067 11.0078 10.9166 12.2955C10.9067 13.951 12.3236 15.1392 14.3769 15.1392ZM14.3769 14.0455C12.9798 14.0455 12.1198 13.3295 12.1297 12.2358C12.1198 11.0874 13.0693 10.267 14.3769 10.267C15.6645 10.267 16.6141 11.0874 16.624 12.2358C16.6141 13.3295 15.754 14.0455 14.3769 14.0455ZM14.3769 9.21307C13.2632 9.21307 12.4777 8.51705 12.4877 7.46307C12.4777 6.42898 13.2334 5.75284 14.3769 5.75284C15.5004 5.75284 16.2561 6.42898 16.2661 7.46307C16.2561 8.51705 15.4706 9.21307 14.3769 9.21307Z" fill="black"/>
</symbol><symbol viewBox="0 0 20 20" fill="none" id="num_09_20" xmlns="http://www.w3.org/2000/svg">
<path d="M5.63184 15.1392C7.879 15.1392 9.17161 13.2351 9.17161 9.90909C9.17161 6.60795 7.85911 4.67898 5.63184 4.67898C3.40456 4.67898 2.09206 6.60795 2.09206 9.90909C2.09206 13.2351 3.38468 15.1392 5.63184 15.1392ZM5.63184 14.0455C4.1503 14.0455 3.28525 12.5589 3.28525 9.90909C3.28525 7.2642 4.16025 5.75284 5.63184 5.75284C7.10343 5.75284 7.97843 7.2642 7.97843 9.90909C7.97843 12.5589 7.11337 14.0455 5.63184 14.0455ZM14.3023 4.65909C12.2341 4.6392 10.9017 6.19034 10.9017 8.07955C10.9017 10.0483 12.3534 11.4602 14.1034 11.4602C15.1574 11.4602 16.0523 10.9432 16.6091 10.108H16.6887C16.6887 12.6136 15.7142 14.0455 14.1432 14.0455C13.0693 14.0455 12.4131 13.3693 12.1943 12.4347H10.9813C11.2199 14.0455 12.433 15.1392 14.1432 15.1392C16.4301 15.1392 17.8421 13.1108 17.8421 9.49148C17.8421 5.73295 15.9727 4.67898 14.3023 4.65909ZM14.3023 5.75284C15.575 5.75284 16.5097 6.84659 16.5097 8.05966C16.5097 9.27273 15.5154 10.3665 14.2625 10.3665C13.0097 10.3665 12.0949 9.35227 12.0949 8.07955C12.0949 6.78693 13.0494 5.75284 14.3023 5.75284Z" fill="black"/>
</symbol><symbol viewBox="0 0 20 20" fill="none" id="num_10_20" xmlns="http://www.w3.org/2000/svg">
<path d="M7.00462 4.81818H5.77166L3.22621 6.50852V7.76136L5.712 6.1108H5.77166V15H7.00462V4.81818ZM13.2539 15.1392C15.5011 15.1392 16.7937 13.2351 16.7937 9.90909C16.7937 6.60795 15.4812 4.67898 13.2539 4.67898C11.0266 4.67898 9.71413 6.60795 9.71413 9.90909C9.71413 13.2351 11.0067 15.1392 13.2539 15.1392ZM13.2539 14.0455C11.7724 14.0455 10.9073 12.5589 10.9073 9.90909C10.9073 7.2642 11.7823 5.75284 13.2539 5.75284C14.7255 5.75284 15.6005 7.2642 15.6005 9.90909C15.6005 12.5589 14.7354 14.0455 13.2539 14.0455Z" fill="black"/>
</symbol></svg>