<?xml version="1.0" encoding="utf-8"?><svg xmlns="http://www.w3.org/2000/svg" xmlns:xlink="http://www.w3.org/1999/xlink"><symbol viewBox="0 0 20 20" fill="none" id="oneriver_20_filled" xmlns="http://www.w3.org/2000/svg">
<path d="M12.1596 7.71L13.5396 9.47C13.7996 9.8 14.1096 10.08 14.4396 10.32C14.2096 9.87 13.9896 9.34 13.7896 8.67L13.0996 6.21C12.6796 4.56 11.0396 2 7.33962 2C6.96962 2 6.91962 2.25 6.91962 2.34V4.81C9.09962 5.24 11.0996 6.32 12.1596 7.71Z" fill="currentColor"/>
<path d="M18 13.02C18 12.61 17.64 12.35 17.33 12.35C17.17 12.35 16.9996 12.35 16.8296 12.35C16.7596 12.35 16.6896 12.35 16.6196 12.35C16.4996 12.35 16.3796 12.35 16.2596 12.35C16.1796 12.35 16.0996 12.35 16.0196 12.35C15.8996 12.35 15.7896 12.35 15.6696 12.33C15.5896 12.33 15.4996 12.32 15.4096 12.31C15.2896 12.3 15.1696 12.29 15.0396 12.27C14.9496 12.26 14.8596 12.25 14.7596 12.23C14.6296 12.21 14.4996 12.19 14.3596 12.16C14.2596 12.14 14.1596 12.12 14.0596 12.1C13.9196 12.07 13.7596 12.03 13.6096 11.99C13.5096 11.96 13.4096 11.94 13.2996 11.91C13.1196 11.86 12.9396 11.8 12.7496 11.74C12.6596 11.71 12.5696 11.69 12.4696 11.65C12.1796 11.55 11.8696 11.44 11.5496 11.31C11.2196 11.18 10.8896 11.07 10.5696 10.98C10.4596 10.95 10.3496 10.93 10.2396 10.9C10.0296 10.85 9.81962 10.79 9.60962 10.76C9.47962 10.74 9.34962 10.72 9.21962 10.7C9.03962 10.67 8.84962 10.64 8.66962 10.63C8.53962 10.62 8.40962 10.61 8.26962 10.61C8.09962 10.61 7.92962 10.59 7.75962 10.59C7.72962 10.59 7.69962 10.59 7.66962 10.59C7.53962 10.59 7.41962 10.59 7.28962 10.6C7.17962 10.6 7.05962 10.6 6.94962 10.61C6.78962 10.62 6.62962 10.64 6.47962 10.65C6.37962 10.66 6.27962 10.67 6.18962 10.68C6.01962 10.7 5.85962 10.73 5.69962 10.76C5.62962 10.77 5.54962 10.78 5.47962 10.8C5.25962 10.84 5.03962 10.89 4.83962 10.94C3.97962 11.15 3.25962 11.42 2.75962 11.63C2.49962 11.74 2.30962 11.81 2.15962 11.89C1.98962 11.98 1.95962 12.25 2.04962 12.4C3.08962 14.22 4.06962 15.94 4.46962 16.64C4.56962 16.82 4.79962 16.89 4.98962 16.8C5.26962 16.68 5.67962 16.53 6.17962 16.41C7.18962 16.16 8.35962 16.11 9.46962 16.55C13.2996 18.09 15.87 18 17.35 18C17.7 18 18 17.71 18 17.35V13.02Z" fill="currentColor"/>
<path d="M7.66962 9.59C9.14962 9.59 10.5796 9.86 11.9096 10.4C12.5696 10.66 13.1396 10.85 13.6696 10.99C13.3296 10.73 13.0196 10.43 12.7496 10.09L11.3696 8.33C10.2096 6.79 7.55962 5.6 4.86962 5.6C4.68962 5.6 4.53962 5.76 4.53962 5.93V9.98C4.53962 9.98 4.56962 9.97 4.58962 9.97C5.61962 9.72 6.65962 9.59 7.66962 9.59Z" fill="currentColor"/>
</symbol><symbol viewBox="0 0 20 20" fill="none" id="oneriver_20_regular" xmlns="http://www.w3.org/2000/svg">
<path fill-rule="evenodd" clip-rule="evenodd" d="M12.862 8.95105L12.1573 6.45459C11.8335 5.19176 10.6508 3.26909 7.95215 3.02564V6.09557C9.4357 6.58392 10.6923 7.39178 11.401 8.3304L12.7846 10.0903C13.0466 10.4236 13.3493 10.7188 13.6773 10.9767C13.3686 10.4173 13.0986 9.74703 12.862 8.95105ZM17.3575 12.3521C17.6693 12.3521 18 12.6096 18 13.023L18.0017 17.3442C18.0017 17.7117 17.698 17.9987 17.3505 17.9987C17.2715 17.9987 17.1895 17.999 17.1045 17.9993C15.5947 18.0043 13.0962 18.0125 9.46642 16.5561C8.36181 16.1128 7.19191 16.1722 6.17888 16.4179C5.6846 16.5378 5.27279 16.6919 4.99247 16.8123C4.80219 16.8941 4.57715 16.8278 4.47461 16.6479C4.07263 15.9429 3.09099 14.2237 2.05157 12.4058C1.96312 12.2511 1.99241 11.9797 2.16322 11.8935C2.25575 11.8467 2.76565 11.6377 2.76565 11.6377C2.84811 11.6042 2.66579 11.6806 2.76565 11.6377C3.21602 11.4441 3.8298 11.2122 4.56446 11.0164L4.56445 5.93294C4.56445 5.75641 4.71744 5.60004 4.89756 5.60004C5.59432 5.60004 6.28735 5.67935 6.95215 5.82355V2.3367C6.95215 2.2452 7.00084 2 7.37027 2C11.0693 2 12.7021 4.553 13.126 6.20621L13.8206 8.66617C14.6978 11.6178 15.9383 12.2195 17.2467 12.3468C17.2556 12.3476 17.3575 12.3521 17.3575 12.3521ZM11.9985 10.7084C12.3623 11.1712 12.7877 11.5693 13.2473 11.9059C12.7382 11.7635 12.1824 11.5759 11.5666 11.3288C9.34581 10.4377 7.20231 10.4929 5.56446 10.792L5.56445 6.6265C7.77768 6.80125 9.76026 7.81687 10.6029 8.93296L11.9985 10.7084ZM17.0016 16.9996L17.0001 13.3526C15.5328 13.3544 13.8595 13.3263 11.1942 12.2568C8.89201 11.3331 6.66257 11.5331 5.08516 11.9157C4.34611 12.095 3.72353 12.3204 3.26438 12.5124C3.99503 13.7906 4.66625 14.966 5.08632 15.7021C5.335 15.6135 5.62379 15.5235 5.94316 15.4461C7.07866 15.1707 8.47664 15.0814 9.83882 15.628C13.2102 16.9808 15.5273 17.004 17.0016 16.9996Z" fill="currentColor"/>
</symbol><symbol viewBox="0 0 24 24" fill="none" id="oneriver_24_filled" xmlns="http://www.w3.org/2000/svg">
<path d="M14.9395 8.99L16.6695 11.19C16.8695 11.44 17.0995 11.66 17.3395 11.87C17.1395 11.42 16.9595 10.92 16.7795 10.33L15.9095 7.26C15.3795 5.19 13.3395 2 8.71955 2C8.25955 2 8.19955 2.31 8.19955 2.42V5.26C10.9995 5.81 13.5795 7.19 14.9395 8.98V8.99Z" fill="currentColor"/>
<path d="M22.0022 15.78C22.0022 15.26 21.5922 14.94 21.2022 14.94C21.0022 14.94 20.7795 14.94 20.5695 14.94C20.4795 14.94 20.3895 14.94 20.2995 14.94C20.1495 14.94 19.9995 14.94 19.8395 14.94C19.7395 14.94 19.6395 14.94 19.5395 14.93C19.3995 14.93 19.2495 14.92 19.0995 14.91C18.9895 14.91 18.8795 14.89 18.7695 14.88C18.6195 14.87 18.4695 14.85 18.3095 14.83C18.1995 14.82 18.0795 14.8 17.9595 14.78C17.7995 14.76 17.6295 14.73 17.4595 14.7C17.3395 14.68 17.2195 14.66 17.0895 14.63C16.9095 14.59 16.7195 14.55 16.5295 14.5C16.3995 14.47 16.2795 14.44 16.1495 14.4C15.9295 14.34 15.6995 14.27 15.4595 14.19C15.3395 14.15 15.2295 14.12 15.1095 14.08C14.7495 13.96 14.3695 13.82 13.9595 13.66C13.5495 13.49 13.1395 13.36 12.7295 13.24C12.5895 13.2 12.4595 13.18 12.3195 13.14C12.0495 13.07 11.7895 13.01 11.5295 12.96C11.3695 12.93 11.2095 12.91 11.0495 12.89C10.8195 12.86 10.5895 12.82 10.3595 12.8C10.1895 12.78 10.0295 12.78 9.86955 12.77C9.65955 12.76 9.43955 12.74 9.22955 12.74C9.18955 12.74 9.15955 12.74 9.11955 12.74C8.95955 12.74 8.79955 12.75 8.63955 12.76C8.49955 12.76 8.35955 12.76 8.21955 12.77C8.01955 12.78 7.81955 12.8 7.62955 12.82C7.50955 12.83 7.37955 12.84 7.25955 12.86C7.04955 12.89 6.84955 12.92 6.64955 12.95C6.55955 12.97 6.45955 12.98 6.36955 13C6.08955 13.05 5.80955 13.11 5.55955 13.17C5.43955 13.2 5.31955 13.23 5.19955 13.27C4.28955 13.51 3.50955 13.8 2.94955 14.04C2.62955 14.18 2.38955 14.26 2.19955 14.36C1.98955 14.47 1.94955 14.81 2.05955 15C3.35955 17.27 4.58955 19.42 5.08955 20.3C5.21955 20.52 5.49955 20.61 5.73955 20.51C6.08955 20.36 6.60955 20.17 7.21955 20.02C8.48955 19.71 9.94955 19.64 11.3295 20.19C16.1195 22.11 19.3322 21.9961 21.1822 21.9961C21.6122 21.9961 21.9922 21.6361 21.9922 21.1761V15.77L22.0022 15.78Z" fill="currentColor"/>
<path d="M8.24955 11.27C8.53955 11.25 8.83955 11.24 9.12955 11.24C11.0095 11.24 12.8295 11.58 14.5195 12.27C15.1195 12.51 15.6595 12.69 16.1595 12.84C15.9195 12.61 15.6895 12.37 15.4795 12.11L13.7495 9.91C13.5895 9.69 13.3895 9.49 13.1895 9.28C13.1295 9.22 13.0595 9.16 12.9895 9.1C12.8295 8.96 12.6595 8.82 12.4795 8.68C12.3995 8.62 12.3295 8.56 12.2395 8.5C11.9895 8.33 11.7295 8.16 11.4495 8C11.3795 7.96 11.2995 7.93 11.2295 7.89C11.0095 7.77 10.7895 7.66 10.5495 7.56C10.4195 7.5 10.2895 7.45 10.1495 7.39C9.95955 7.31 9.75955 7.24 9.55955 7.17C9.41955 7.12 9.27955 7.07 9.12955 7.03C8.81955 6.94 8.49955 6.85 8.16955 6.78C7.33955 6.6 6.46955 6.5 5.59955 6.5C5.36955 6.5 5.17955 6.7 5.17955 6.92V11.73C6.18955 11.48 7.20955 11.33 8.21955 11.28L8.24955 11.27Z" fill="currentColor"/>
</symbol><symbol viewBox="0 0 24 24" fill="none" id="oneriver_24_regular" xmlns="http://www.w3.org/2000/svg">
<path fill-rule="evenodd" clip-rule="evenodd" d="M15.3383 10.76L14.455 7.63033C14.0796 6.16636 12.7388 3.95471 9.69067 3.56101V7.20503C11.4356 7.82191 12.9054 8.79298 13.751 9.913L15.4805 12.1129C15.6698 12.3537 15.8762 12.5786 16.0958 12.7878C15.8153 12.1935 15.5641 11.5197 15.3383 10.76ZM21.1969 14.9401C21.5866 14.9401 22 15.262 22 15.7788L22.0021 21.1852C22.0021 21.6446 21.6226 22.0033 21.1881 22.0033C21.0898 22.0033 20.9877 22.0036 20.8819 22.004L20.8806 22.004C18.9933 22.0103 15.8705 22.0157 11.3333 20.1951C9.9525 19.641 8.49013 19.7152 7.22384 20.0224C6.60599 20.1722 6.09123 20.3648 5.74083 20.5154C5.50298 20.6176 5.22169 20.5347 5.0935 20.3099C4.59103 19.4287 3.36398 17.2796 2.0647 15.0072C1.95415 14.8139 1.99076 14.4747 2.20427 14.3668C2.31997 14.3084 2.4556 14.2534 2.616 14.1884C2.7191 14.1467 2.83244 14.1007 2.95731 14.0471C3.52012 13.8052 4.28728 13.5155 5.20533 13.2708L5.20532 6.91617C5.20532 6.69551 5.39656 6.50005 5.6217 6.50005C6.49291 6.50005 7.35945 6.59924 8.19067 6.77959V2.42087C8.19067 2.30649 8.25153 2 8.71333 2C13.3371 2 15.3781 5.19125 15.908 7.25776L16.7762 10.3327C17.8727 14.0223 19.4232 14.7744 21.0586 14.9334L21.1969 14.9401ZM15.4074 14.1863C15.0075 13.8455 14.6346 13.4639 14.3013 13.04L12.5539 10.8168C11.5873 9.53662 9.3071 8.32915 6.70532 8.05702L6.70533 12.9465C8.71833 12.6125 11.2938 12.5918 13.9585 13.661C14.5053 13.8804 14.9304 14.0355 15.4074 14.1863ZM20.5019 20.5048L20.5003 16.4407C18.7122 16.4372 16.6239 16.3467 13.3999 15.0531C10.5868 13.9243 7.85712 14.1667 5.91562 14.6376C5.14082 14.8256 4.47009 15.0548 3.93954 15.2644C4.74053 16.6659 5.47358 17.9494 5.9725 18.8236C6.2427 18.7331 6.54399 18.6438 6.87026 18.5646C8.32026 18.2129 10.1247 18.0939 11.8919 18.803C15.8767 20.4019 18.6656 20.5041 20.5019 20.5048Z" fill="currentColor"/>
</symbol></svg>