<?xml version="1.0" encoding="utf-8"?><svg xmlns="http://www.w3.org/2000/svg" xmlns:xlink="http://www.w3.org/1999/xlink"><symbol viewBox="0 0 16 14" id="folder" xmlns="http://www.w3.org/2000/svg">
<path d="M5.16667 0C5.43713 0 5.70151 0.073102 5.93238 0.210162L6.06667 0.3L7.667 1.5H13.5C14.7703 1.5 15.8192 2.44737 15.9789 3.67409L15.9947 3.83562L16 4V11.5C16 12.8255 14.9685 13.91 13.6644 13.9947L13.5 14H2.5C1.17452 14 0.0899613 12.9685 0.00531769 11.6644L0 11.5V2.5C0 1.17452 1.03154 0.0899613 2.33562 0.00531769L2.5 0H5.16667ZM6.15763 4.03449C5.90991 4.2946 5.57838 4.45592 5.22435 4.49219L5.07143 4.5L1 4.499V11.5C1 12.2797 1.59489 12.9204 2.35554 12.9931L2.5 13H13.5C14.2797 13 14.9204 12.4051 14.9931 11.6445L15 11.5V4C15 3.2203 14.4051 2.57955 13.6445 2.50687L13.5 2.5H7.617L6.15763 4.03449ZM5.16667 1H2.5C1.7203 1 1.07955 1.59489 1.00687 2.35554L1 2.5V3.499L5.07143 3.5C5.1809 3.5 5.28655 3.46411 5.37274 3.39902L5.4335 3.34483L6.694 2.021L5.46667 1.1C5.40176 1.05132 5.32632 1.01941 5.24701 1.0065L5.16667 1Z"/>
</symbol><symbol viewBox="0 0 20 20" fill="none" id="folder_filled" xmlns="http://www.w3.org/2000/svg">
<path d="M10.565 4.5H15.5C16.7703 4.5 17.8192 5.44737 17.9789 6.67409L17.9947 6.83562L18 7V14.5C18 15.8255 16.9685 16.91 15.6644 16.9947L15.5 17H4.5C3.17452 17 2.08996 15.9685 2.00532 14.6644L2 14.5V7.5H7.07069L7.22385 7.49217C7.52777 7.46098 7.81509 7.33763 8.04702 7.13877L8.15819 7.03312L10.565 4.5ZM7.16667 3C7.43713 3 7.70151 3.0731 7.93238 3.21016L8.06667 3.3L9.385 4.289L7.43319 6.34437L7.3724 6.39872C7.3077 6.44767 7.23201 6.48017 7.15196 6.49335L7.07069 6.5H2V5.5C2 4.17452 3.03154 3.08996 4.33562 3.00532L4.5 3H7.16667Z" fill="#117865"/>
</symbol><symbol fill="currentColor" viewBox="0 0 32 33" id="oneLakeRegular" xmlns="http://www.w3.org/2000/svg">
  <path fill="#000" fill-rule="evenodd" d="M25.815 26.35c2.87-2.59 4.33-6.59 3.5-10.65-.76-3.71-3.26-6.63-6.47-8.07-.2-1.22-.77-2.39-1.72-3.34-1.88-1.88-4.67-2.28-6.88-1.19-.42.22-.94.56-1.3.89-.87.67-1.65 1.41-2.35 2.22-.59.69-1.12 1.42-1.58 2.18-.91.14-1.81.45-2.66.94a7.726 7.726 0 0 0-3.66 4.9c-.15.62-.23 1.25-.23 1.89-.06 1.12.03 2.26.26 3.41.14.66.32 1.31.54 1.93 2.26 6.25 8.83 10.07 15.54 8.7 2.28-.47 4.33-1.485 6-2.875-.003.002-.004.003 0 0 .003-.003-.003.002 0 0 .34-.29.7-.615 1.01-.935Zm1.54-10.26c.2.968.239 1.942.14 2.87-1.93-1.636-5.14-1.713-7.11.28-.624.63-.87.885-1.49 1.42-1.37-1.34-2.8-3.12-3.98-5.37-1.57-2.97-2.01-4.97-2.01-4.97a9.168 9.168 0 0 1 3.47-1.49c5.04-1.03 9.95 2.22 10.98 7.26Zm-10.01 5.85c-.076.058-.001-.001-.001-.001a23.596 23.596 0 0 1-4.19-5.709c-1.35-2.57-2.13-4.78-2.45-6.69a.323.323 0 0 0-.04.035.268.268 0 0 1-.04.035 14.08 14.08 0 0 0-.24 13.77c1.29.2 2.76.18 4.42-.15.752-.145 1.62-.617 2.54-1.291v.001Zm1.07 6.26c-4.16.85-8.25-.64-10.92-3.56 2.09.87 4.65 1.16 7.69.56 1.22-.24 2.41-.95 3.44-1.72 1.07-.79 2.16-1.79 3.18-2.84 1.48-1.5 3.98-1.02 4.91.44a9.9 9.9 0 0 1-1.88 3.39c-.39.45-.82.86-1.27 1.25a11.685 11.685 0 0 1-5.14 2.47l-.01.01Z" clip-rule="evenodd"/>
</symbol><symbol viewBox="0 0 20 20" id="oneLake_20_filled" xmlns="http://www.w3.org/2000/svg">
<path d="M9.08182 12.6173C9.26818 12.5807 9.53543 12.4643 9.8786 12.2439C9.26514 11.5552 8.65226 10.733 8.10351 9.77545C7.23694 8.26336 6.7493 7.0015 6.5498 5.9401C5.49042 7.806 5.39192 10.2821 6.53526 12.6415C7.23901 12.798 8.07991 12.814 9.08182 12.6173Z" fill="currentColor"/>
<path d="M11.862 10.5446C11.4602 10.9516 11.0623 11.3254 10.6828 11.6429C10.0938 10.9902 9.50083 10.2025 8.97113 9.27823C7.79052 7.21817 7.41597 5.76567 7.44347 4.74419C7.46403 3.9801 7.70956 3.45717 8.01094 3.10152L8.01268 3.09978C9.25737 1.85457 11.305 1.88327 12.5861 3.16387C12.7113 3.28899 12.8245 3.42143 12.9257 3.55973C15.3414 4.21861 17.3065 6.18236 17.8413 8.80332C18.0006 9.58404 18.0203 10.3608 17.9175 11.1078C16.6452 9.11878 13.593 8.79072 11.862 10.5446Z" fill="currentColor"/>
<path d="M4.22216 5.8274C4.75031 5.29902 5.39794 4.96022 6.08315 4.80983C4.66677 6.77503 4.3142 9.45689 5.20918 12.0454C4.88447 11.8656 4.57849 11.6374 4.30201 11.361C2.75187 9.81156 2.71612 7.33406 4.22216 5.8274Z" fill="currentColor"/>
<path d="M15.9765 14.9845C16.6709 14.1707 17.1717 13.1994 17.4273 12.1489C16.7461 10.2026 14.0052 9.65721 12.5043 11.1778C11.3522 12.3452 10.1558 13.3254 9.25597 13.502C4.0536 14.5235 2.16129 10.4426 2.22074 8.26029C2.02974 9.2509 2.0258 10.2947 2.24003 11.3446C3.11565 15.636 7.30439 18.4051 11.5958 17.5295C12.9223 17.2588 14.1033 16.6716 15.0763 15.8627L15.0986 15.8441C15.414 15.5798 15.7074 15.2922 15.9765 14.9845Z" fill="currentColor"/>
</symbol><symbol viewBox="0 0 20 20" id="oneLake_20_regular" xmlns="http://www.w3.org/2000/svg">
<path fill-rule="evenodd" clip-rule="evenodd" d="M13.8896 4.94641C13.7765 4.25034 13.448 3.57708 12.9056 3.03491C11.83 1.95967 10.2391 1.72595 8.97752 2.34557C8.72747 2.47543 8.42608 2.67234 8.21032 2.87061C7.79151 3.19428 7.40676 3.5495 7.05761 3.93096C6.64724 4.3793 6.28604 4.86388 5.9765 5.37606C5.45224 5.45674 4.93553 5.63357 4.45074 5.91346C3.00822 6.7463 2.21463 8.28018 2.23358 9.86778C2.20815 10.4866 2.25659 11.1185 2.38598 11.7526C2.43281 11.9822 2.48929 12.2073 2.5549 12.4276C3.69518 16.2571 7.59424 18.6469 11.5836 17.833C12.8876 17.5669 14.0487 16.9896 15.0052 16.1944L15.0168 16.1847L15.0271 16.176C15.3009 15.9466 15.5581 15.6993 15.7966 15.4363C15.7351 15.5042 15.6723 15.571 15.6083 15.6368C17.2352 14.1527 18.0629 11.8748 17.5906 9.56023C17.1572 7.43592 15.7284 5.76898 13.8896 4.94641ZM16.6785 11.5468C16.713 11.5803 16.6459 11.5115 16.6785 11.5468C16.7526 10.9668 16.7342 10.365 16.6108 9.76015C16.0071 6.80117 13.1189 4.89187 10.1599 5.49562C9.42232 5.64612 8.74994 5.93857 8.16546 6.33868C8.36546 7.18043 8.73924 8.17012 9.35188 9.33255C10.0291 10.6175 10.8433 11.636 11.6272 12.4029C11.9096 12.1491 12.1945 11.8746 12.4767 11.5887C13.6874 10.3621 15.8712 10.6172 16.6785 11.5468ZM9.28329 13.8736C8.25153 14.0762 7.3522 14.0746 6.57435 13.9254C5.15037 11.1941 5.41682 8.00972 7.02015 5.59727C7.15154 6.76333 7.59702 8.14764 8.46722 9.79879C9.17546 11.1426 10.0248 12.22 10.8547 13.0455C10.2834 13.4786 9.74382 13.7832 9.28329 13.8736ZM4.57706 14.26C6.10319 16.3019 8.72035 17.3966 11.3837 16.8531C12.5222 16.6208 13.5331 16.1178 14.3658 15.4254L14.373 15.4194L14.3789 15.4145L14.385 15.4094C14.6536 15.1844 14.9037 14.9395 15.1334 14.6773C15.6429 14.0789 16.0274 13.3794 16.258 12.6238C15.7034 11.6604 14.1142 11.3531 13.1885 12.2911C12.603 12.8843 11.9861 13.451 11.3836 13.8989C10.8028 14.3307 10.1415 14.7242 9.47596 14.8549C7.46631 15.2494 5.83641 14.9552 4.57706 14.26Z" fill="currentColor"/>
</symbol><symbol viewBox="0 0 24 24" id="oneLake_24_filled" xmlns="http://www.w3.org/2000/svg">
<path fill-rule="evenodd" clip-rule="evenodd" d="M9.65272 9.22695L9.65265 9.22689C9.02491 7.81433 8.75989 6.69309 8.72247 5.80414C8.66849 4.52162 9.08826 3.72258 9.57605 3.22974C11.1522 1.78845 13.635 1.86485 15.2042 3.43344C15.3618 3.59099 15.5044 3.75775 15.6319 3.9319C18.672 4.76163 21.1449 7.23325 21.8179 10.5319C22.0184 11.5141 22.0432 12.4913 21.914 13.4311C20.3119 10.9291 16.4713 10.5169 14.2929 12.724C13.7794 13.2443 13.271 13.7214 12.7867 14.1249C12.0487 13.3056 11.3062 12.3179 10.6425 11.1599C10.2423 10.4616 9.91569 9.81869 9.65272 9.22695ZM9.34109 11.9057C10.028 13.1044 10.794 14.1371 11.5626 15.006C11.2413 15.1921 10.9838 15.2957 10.7934 15.3331C9.6574 15.5561 8.68587 15.5619 7.85682 15.4169C6.50254 12.7147 6.48591 9.89427 7.50585 7.66355C7.82294 8.88644 8.4143 10.2886 9.34109 11.9057ZM7.03035 5.50331C6.16329 5.69124 5.34349 6.1186 4.67552 6.78685C2.77982 8.68335 2.82483 11.8019 4.77606 13.7523C5.1167 14.0928 5.49292 14.3752 5.89201 14.5993C4.7797 11.3405 5.23621 7.96879 7.03035 5.50331ZM21.2965 14.7437C20.9748 16.0659 20.3443 17.2886 19.4703 18.313C19.1315 18.7003 18.7623 19.0624 18.3653 19.3949L18.3371 19.4178V19.4184C17.1125 20.4367 15.6259 21.1758 13.9562 21.5165C8.55431 22.6187 3.28175 19.1331 2.17956 13.7312C1.90991 12.4097 1.91486 11.0958 2.15528 9.8489C2.08045 12.5959 4.46238 17.7327 11.0109 16.4469C12.1435 16.2245 13.6495 14.9908 15.0997 13.5213C16.9889 11.6073 20.4391 12.2938 21.2965 14.7437Z" fill="currentColor"/>
</symbol><symbol viewBox="0 0 24 24" id="oneLake_24_regular" xmlns="http://www.w3.org/2000/svg">
<path fill-rule="evenodd" clip-rule="evenodd" d="M9.82412 7.714C10.5451 7.20472 11.381 6.83316 12.3014 6.64538C15.8598 5.91933 19.333 8.21539 20.059 11.7738C20.1953 12.4419 20.2251 13.107 20.16 13.7514C18.8547 12.6821 16.6161 12.5141 15.143 14.0068C14.7903 14.3641 14.4343 14.7071 14.0813 15.0241C13.1023 14.0666 12.0854 12.7946 11.2396 11.1898C11.1051 10.9345 10.9841 10.7076 10.875 10.5031C10.1637 9.16902 9.95961 8.78625 9.82412 7.714ZM18.3273 19.7343C18.7144 19.41 19.0745 19.057 19.4048 18.6792C19.2903 18.8102 19.1729 18.9381 19.0513 19.0629C21.0842 17.21 22.1186 14.3648 21.5287 11.4739C20.9875 8.82125 19.2032 6.73981 16.9069 5.71291C16.7655 4.84445 16.3555 4.00452 15.6787 3.32803C14.3336 1.98346 12.3432 1.69283 10.7669 2.47099C10.4708 2.62717 10.0937 2.87125 9.83632 3.1047C9.17967 3.60964 8.58972 4.17659 8.07025 4.79247C7.68159 5.25326 7.33238 5.74145 7.02422 6.25156C6.37128 6.35262 5.72778 6.57318 5.12395 6.92181C3.33393 7.95528 2.34423 9.85331 2.35539 11.8225C2.32027 12.6065 2.3801 13.4075 2.54413 14.2114C2.65612 14.7603 2.81227 15.2889 3.00811 15.7943C4.69175 20.1387 9.3092 22.7658 14.0278 21.803C15.656 21.4708 17.1056 20.7501 18.2998 19.7572L18.3143 19.7451L18.3273 19.7343ZM11.1558 16.8596C10.0029 17.0859 8.98252 17.1082 8.08472 16.9768C6.36593 13.8261 6.52225 10.1516 8.18136 7.24328C8.42917 8.58394 8.98064 10.1208 9.91258 11.8891C10.8021 13.5768 11.8677 14.9338 12.9124 15.9777C12.2753 16.4374 11.6753 16.7576 11.1558 16.8596ZM17.3485 18.5974L17.3563 18.5908L17.364 18.5844C17.689 18.3122 17.9916 18.0159 18.2696 17.6987C18.8586 17.0066 19.3088 16.2025 19.5895 15.3343C18.9341 14.3528 17.2264 14.0312 16.2105 15.0605C15.4747 15.806 14.6945 16.5232 13.9281 17.093C13.1942 17.6386 12.3319 18.1573 11.4448 18.3315C9.40415 18.7321 7.66074 18.5764 6.21487 18.0444C8.10492 19.9596 10.8949 20.9114 13.7279 20.3333C15.1078 20.0518 16.3322 19.4424 17.3408 18.6038L17.3485 18.5974Z" fill="currentColor"/>
</symbol><symbol viewBox="0 0 20 20" fill="none" id="oneLake_database_20_regular" xmlns="http://www.w3.org/2000/svg">
<path d="M4 5C4 3.993 4.87513 3.24472 5.90401 2.77705C6.97802 2.28886 8.42664 2 10 2C11.5734 2 13.022 2.28886 14.096 2.77705C15.1249 3.24472 16 3.993 16 5V15C16 16.007 15.1249 16.7553 14.096 17.2229C13.022 17.7111 11.5734 18 10 18C8.42664 18 6.97802 17.7111 5.90401 17.2229C4.87513 16.7553 4 16.007 4 15V5ZM5 5C5 5.37372 5.35608 5.87543 6.31781 6.31258C7.23441 6.72922 8.53579 7 10 7C11.4642 7 12.7656 6.72922 13.6822 6.31258C14.6439 5.87543 15 5.37372 15 5C15 4.62628 14.6439 4.12457 13.6822 3.68742C12.7656 3.27078 11.4642 3 10 3C8.53579 3 7.23441 3.27078 6.31781 3.68742C5.35608 4.12457 5 4.62628 5 5ZM15 6.69813C14.729 6.90046 14.4201 7.07563 14.096 7.22295C13.022 7.71114 11.5734 8 10 8C8.42664 8 6.97802 7.71114 5.90401 7.22295C5.5799 7.07563 5.27105 6.90046 5 6.69813V15C5 15.3737 5.35608 15.8754 6.31781 16.3126C7.23441 16.7292 8.53579 17 10 17C11.4642 17 12.7656 16.7292 13.6822 16.3126C14.6439 15.8754 15 15.3737 15 15V6.69813Z" fill="#424242"/>
</symbol><symbol viewBox="0 0 20 20" fill="none" id="oneLake_schema_20_filled" xmlns="http://www.w3.org/2000/svg">
<path d="M10.0001 7.96137L13.0289 6.74988L5.52875 3.74984L2.94291 4.78418C2.81019 4.83726 2.68812 4.90794 2.57894 4.99288L10.0001 7.96137ZM2.03542 5.85251C2.01215 5.9576 2 6.06624 2 6.17689V13.8228C2 14.4362 2.37343 14.9877 2.94291 15.2155L8.70013 17.5184C8.95942 17.6221 9.22802 17.6936 9.50015 17.7329V8.8384L2.03542 5.85251ZM10.5001 17.7328C10.7722 17.6936 11.0407 17.6221 11.2999 17.5184L17.0571 15.2155C17.6266 14.9877 18 14.4362 18 13.8228V6.17689C18 6.06628 17.9879 5.95767 17.9646 5.85262L10.5001 8.8384V17.7328ZM17.4212 4.99296L14.3751 6.21137L6.87504 3.21132L8.70013 2.48129C9.53457 2.14751 10.4654 2.14751 11.2999 2.48129L17.0571 4.78418C17.1898 4.83728 17.312 4.90798 17.4212 4.99296Z" fill="#117865"/>
</symbol><symbol viewBox="0 0 20 20" fill="none" id="oneLake_schema_20_regular" xmlns="http://www.w3.org/2000/svg">
<path d="M11.2999 2.4808C10.4654 2.14702 9.53457 2.14702 8.70013 2.4808L2.94291 4.78369C2.37343 5.01148 2 5.56305 2 6.1764V13.8223C2 14.4357 2.37343 14.9873 2.94291 15.2151L8.70013 17.5179C9.53457 17.8517 10.4654 17.8517 11.2999 17.5179L17.0571 15.2151C17.6266 14.9873 18 14.4357 18 13.8223V6.1764C18 5.56305 17.6266 5.01148 17.0571 4.78369L11.2999 2.4808ZM9.07152 3.40928C9.66755 3.17087 10.3324 3.17087 10.9285 3.40928L16.1538 5.49941L13.8751 6.41088L7.72133 3.94935L9.07152 3.40928ZM6.37504 4.48787L12.5289 6.94939L10.0001 7.96088L3.84633 5.49935L6.37504 4.48787ZM10.5001 8.83791L17 6.23797V13.8223C17 14.0268 16.8755 14.2106 16.6857 14.2866L10.9285 16.5895C10.7889 16.6453 10.6455 16.6881 10.5001 16.7177V8.83791ZM9.50015 8.83791V16.7178C9.35467 16.6881 9.21121 16.6453 9.07152 16.5895L3.3143 14.2866C3.12448 14.2106 3 14.0268 3 13.8223V6.23785L9.50015 8.83791Z" fill="#424242"/>
</symbol><symbol viewBox="0 0 20 20" fill="currentColor" id="oneLake_table_20_filled" xmlns="http://www.w3.org/2000/svg">
    <path d="M13 17H14.5C15.8807 17 17 15.8807 17 14.5V13H13V17ZM13 12V8H17V12H13ZM12 12H8V8H12V12ZM8 13H12V17H8V13ZM7 12V8H3V12H7ZM3 13H7V17H5.5C4.11929 17 3 15.8807 3 14.5V13ZM13 7H17V5.5C17 4.11929 15.8807 3 14.5 3H13V7ZM12 3V7H8V3H12ZM7 3V7H3V5.5C3 4.11929 4.11929 3 5.5 3H7Z" fill="#117865"/>
</symbol><symbol viewBox="0 0 20 20" fill="currentColor" id="oneLake_table_20_regular" xmlns="http://www.w3.org/2000/svg">
    <path d="M17 5.5C17 4.11929 15.8807 3 14.5 3H5.5C4.11929 3 3 4.11929 3 5.5V14.5C3 15.8807 4.11929 17 5.5 17H14.5C15.8807 17 17 15.8807 17 14.5V5.5ZM4 14.5V13H7V16H5.5L5.35554 15.9931C4.59489 15.9204 4 15.2797 4 14.5ZM12 13V16H8V13H12ZM14.5 16H13V13H16V14.5L15.9931 14.6445C15.9204 15.4051 15.2797 16 14.5 16ZM12 8V12H8V8H12ZM13 8H16V12H13V8ZM12 4V7H8V4H12ZM13 4H14.5L14.6445 4.00687C15.4051 4.07955 16 4.7203 16 5.5V7H13V4ZM7 4V7H4V5.5L4.00687 5.35554C4.07955 4.59489 4.7203 4 5.5 4H7ZM7 8V12H4V8H7Z"/>
</symbol><symbol viewBox="0 0 12 16" id="plain_file" xmlns="http://www.w3.org/2000/svg">
<path d="M2 0C0.89543 0 0 0.895431 0 2V14C0 15.1046 0.89543 16 2 16H10C11.1046 16 12 15.1046 12 14V5.41421C12 5.01639 11.842 4.63486 11.5607 4.35355L7.64645 0.43934C7.36514 0.158035 6.98361 0 6.58579 0H2ZM1 2C1 1.44772 1.44772 1 2 1H6V4.5C6 5.32843 6.67157 6 7.5 6H11V14C11 14.5523 10.5523 15 10 15H2C1.44772 15 1 14.5523 1 14V2ZM10.7929 5H7.5C7.22386 5 7 4.77614 7 4.5V1.20711L10.7929 5Z"/>
</symbol><symbol viewBox="0 0 20 20" fill="currentColor" id="schema_20_filled" xmlns="http://www.w3.org/2000/svg">
<path d="M14 4.125C14 3.50368 13.4963 3 12.875 3H7.125C6.50368 3 6 3.50368 6 4.125V6.875C6 7.49632 6.50368 8 7.125 8H8.11592L5.71592 12H4.125C3.50368 12 3 12.5037 3 13.125V15.875C3 16.4963 3.50368 17 4.125 17H7.875C8.49632 17 9 16.4963 9 15.875V13.125C9 12.5037 8.49632 12 7.875 12H6.88211L9.28211 8H10.716L13.116 12H12.125C11.5037 12 11 12.5037 11 13.125V15.875C11 16.4963 11.5037 17 12.125 17H15.875C16.4963 17 17 16.4963 17 15.875V13.125C17 12.5037 16.4963 12 15.875 12H14.2822L11.8822 8H12.875C13.4963 8 14 7.49632 14 6.875V4.125Z" fill="#117865"/>
</symbol><symbol viewBox="0 0 20 20" fill="currentColor" id="schema_20_regular" xmlns="http://www.w3.org/2000/svg">
<path d="M12.875 3.00098C13.4963 3.00098 14 3.50466 14 4.12598V6.87598C14 7.4973 13.4963 8.00098 12.875 8.00098H11.8822L14.2822 12.001H15.875C16.4963 12.001 17 12.5047 17 13.126V15.876C17 16.4973 16.4963 17.001 15.875 17.001H12.125C11.5037 17.001 11 16.4973 11 15.876V13.126C11 12.5047 11.5037 12.001 12.125 12.001H13.116L10.716 8.00098H9.28211L6.88211 12.001H7.875C8.49632 12.001 9 12.5047 9 13.126V15.876C9 16.4973 8.49632 17.001 7.875 17.001H4.125C3.50368 17.001 3 16.4973 3 15.876V13.126C3 12.5047 3.50368 12.001 4.125 12.001H5.71592L8.11592 8.00098H7.125C6.50368 8.00098 6 7.4973 6 6.87598V4.12598C6 3.50466 6.50368 3.00098 7.125 3.00098H12.875ZM13 4.12598C13 4.05694 12.944 4.00098 12.875 4.00098H7.125C7.05596 4.00098 7 4.05694 7 4.12598V6.87598C7 6.94501 7.05596 7.00098 7.125 7.00098H12.875C12.944 7.00098 13 6.94501 13 6.87598V4.12598ZM8 13.126C8 13.0569 7.94404 13.001 7.875 13.001H4.125C4.05596 13.001 4 13.0569 4 13.126V15.876C4 15.945 4.05596 16.001 4.125 16.001H7.875C7.94404 16.001 8 15.945 8 15.876V13.126ZM15.875 13.001H12.125C12.056 13.001 12 13.0569 12 13.126V15.876C12 15.945 12.056 16.001 12.125 16.001H15.875C15.944 16.001 16 15.945 16 15.876V13.126C16 13.0569 15.944 13.001 15.875 13.001Z"/>
</symbol><symbol viewBox="0 0 20 20" fill="currentColor" id="schema_shortcut_20_filled" xmlns="http://www.w3.org/2000/svg">
<path d="M13 4.125C13 3.50368 12.4963 3 11.875 3H6.125C5.50368 3 5 3.50368 5 4.125V6.875C5 7.49632 5.50368 8 6.125 8H7.11592L4.71592 12H3.125C2.50368 12 2 12.5037 2 13.125V15.875C2 16.4963 2.50368 17 3.125 17H6.875C7.49632 17 8 16.4963 8 15.875V13.125C8 12.5037 7.49632 12 6.875 12H5.88211L8.28211 8H9.71601L12.116 12H13.2822L10.8822 8H11.875C12.4963 8 13 7.49632 13 6.875V4.125Z" fill="#117865"/>
<path d="M12.5 13.5C11.1193 13.5 10 14.6193 10 16C10 17.3807 11.1193 18.5 12.5 18.5H13C13.2761 18.5 13.5 18.2761 13.5 18C13.5 17.7239 13.2761 17.5 13 17.5H12.5C11.6716 17.5 11 16.8284 11 16C11 15.1716 11.6716 14.5 12.5 14.5H13C13.2761 14.5 13.5 14.2761 13.5 14C13.5 13.7239 13.2761 13.5 13 13.5H12.5Z" fill="#117865"/>
<path d="M16 13.5C15.7239 13.5 15.5 13.7239 15.5 14C15.5 14.2761 15.7239 14.5 16 14.5H16.5C17.3284 14.5 18 15.1716 18 16C18 16.8284 17.3284 17.5 16.5 17.5H16C15.7239 17.5 15.5 17.7239 15.5 18C15.5 18.2761 15.7239 18.5 16 18.5H16.5C17.8807 18.5 19 17.3807 19 16C19 14.6193 17.8807 13.5 16.5 13.5H16Z" fill="#117865"/>
<path d="M12.5 15.5C12.2239 15.5 12 15.7239 12 16C12 16.2761 12.2239 16.5 12.5 16.5H16.5C16.7761 16.5 17 16.2761 17 16C17 15.7239 16.7761 15.5 16.5 15.5H12.5Z" fill="#117865"/>
</symbol><symbol fill="currentColor" class="aqExplorerTree-module_nodeIcon__cueiD" viewBox="0 0 20 20" id="schema_shortcut_20_regular" xmlns="http://www.w3.org/2000/svg"><path fill-rule="evenodd" d="M13 4.124c0-.621-.504-1.125-1.125-1.125h-5.75C5.504 2.999 5 3.503 5 4.124v2.75c0 .621.504 1.125 1.125 1.125h.99l-2.4 4h-1.59c-.621 0-1.125.504-1.125 1.125v2.75c0 .621.504 1.125 1.125 1.125h3.75c.621 0 1.125-.504 1.125-1.125v-2.75c0-.621-.504-1.125-1.125-1.125h-.993l2.4-4h1.434l2.4 4h1.166l-2.4-4h.993c.621 0 1.125-.504 1.125-1.125v-2.75Zm-1.125-.125c.069 0 .125.056.125.125v2.75a.125.125 0 0 1-.125.125h-5.75A.125.125 0 0 1 6 6.874v-2.75c0-.069.056-.125.125-.125h5.75Zm-5 9c.069 0 .125.056.125.125v2.75c0 .07-.056.125-.125.125h-3.75A.125.125 0 0 1 3 15.874v-2.75c0-.069.056-.125.125-.125h3.75Z" clip-rule="evenodd"/><path d="M12.5 13.499a2.5 2.5 0 0 0 0 5h.5a.5.5 0 1 0 0-1h-.5a1.5 1.5 0 1 1 0-3h.5a.5.5 0 1 0 0-1h-.5Zm3.5 0a.5.5 0 0 0 0 1h.5a1.5 1.5 0 0 1 0 3H16a.5.5 0 0 0 0 1h.5a2.5 2.5 0 0 0 0-5H16Z"/><path d="M12.5 15.499a.5.5 0 0 0 0 1h4a.5.5 0 1 0 0-1h-4Z"/></symbol><symbol viewBox="0 0 17 15" id="shortcut_folder" xmlns="http://www.w3.org/2000/svg">
<path d="M2.5 0C1.11929 0 0 1.11929 0 2.5V11.5C0 12.8807 1.11929 14 2.5 14H4.75777C4.55127 13.6915 4.3819 13.356 4.25606 13H2.5C1.67157 13 1 12.3284 1 11.5V4.49998H5.07143C5.48194 4.49998 5.87452 4.33174 6.15763 4.03447L7.61905 2.5H13.5C14.3284 2.5 15 3.17157 15 4V7.25606C15.356 7.3819 15.6915 7.55127 16 7.75777V4C16 2.61929 14.8807 1.5 13.5 1.5H7.66667L6.06667 0.3C5.80702 0.105267 5.49122 0 5.16667 0H2.5ZM1 2.5C1 1.67157 1.67157 1 2.5 1H5.16667C5.27485 1 5.38012 1.03509 5.46667 1.1L6.69445 2.02083L5.4335 3.34481C5.33913 3.4439 5.20827 3.49998 5.07143 3.49998H1V2.5ZM6 11.5C6 10.1193 7.11929 9 8.5 9H9.5C9.77614 9 10 8.77614 10 8.5C10 8.22386 9.77614 8 9.5 8H8.5C6.567 8 5 9.567 5 11.5C5 13.433 6.567 15 8.5 15H9.5C9.77614 15 10 14.7761 10 14.5C10 14.2239 9.77614 14 9.5 14H8.5C7.11929 14 6 12.8807 6 11.5ZM16 11.5C16 10.1193 14.8807 9 13.5 9H12.5C12.2239 9 12 8.77614 12 8.5C12 8.22386 12.2239 8 12.5 8H13.5C15.433 8 17 9.567 17 11.5C17 13.433 15.433 15 13.5 15H12.5C12.2239 15 12 14.7761 12 14.5C12 14.2239 12.2239 14 12.5 14H13.5C14.8807 14 16 12.8807 16 11.5ZM8 11.5C8 11.2239 8.22386 11 8.5 11H13.5C13.7761 11 14 11.2239 14 11.5C14 11.7761 13.7761 12 13.5 12H8.5C8.22386 12 8 11.7761 8 11.5Z"/>
</symbol><symbol fill="none" viewBox="0 0 20 20" id="shortcut_folder_filled" xmlns="http://www.w3.org/2000/svg"><path d="m9.386 4.29-1.32-.99a1.5 1.5 0 0 0-.9-.3H4.5A2.5 2.5 0 0 0 2 5.5v1h5.07a.5.5 0 0 0 .363-.156L9.386 4.29Zm1.179.21L8.158 7.033a1.5 1.5 0 0 1-1.087.467H2v7A2.5 2.5 0 0 0 4.5 17h2.258a4.5 4.5 0 0 1 3.742-7h5c.925 0 1.785.28 2.5.758V7l-.005-.164A2.5 2.5 0 0 0 15.5 4.5h-4.935ZM8 14.5a2.5 2.5 0 0 1 2.5-2.5h1a.5.5 0 0 0 0-1h-1a3.5 3.5 0 1 0 0 7h1a.5.5 0 0 0 0-1h-1A2.5 2.5 0 0 1 8 14.5Zm10 0a2.5 2.5 0 0 0-2.5-2.5h-1a.5.5 0 0 1 0-1h1a3.5 3.5 0 1 1 0 7h-1a.5.5 0 0 1 0-1h1a2.5 2.5 0 0 0 2.5-2.5Zm-8 0a.5.5 0 0 1 .5-.5h5a.5.5 0 0 1 0 1h-5a.5.5 0 0 1-.5-.5Z" fill="#117865"/></symbol><symbol viewBox="0 0 20 20" fill="currentColor" id="shortcut_table" xmlns="http://www.w3.org/2000/svg">
<path d="M17 5.5C17 4.11929 15.8807 3 14.5 3H5.5C4.11929 3 3 4.11929 3 5.5V14.5C3 15.8807 4.11929 17 5.5 17H9.33682C9.18915 16.6891 9.08595 16.3531 9.03544 16H8V13H10.0505C10.5694 12.4915 11.2459 12.1433 12 12.0354C12.0664 12.0259 12.1334 12.0183 12.2009 12.0126C12.2995 12.0043 12.3993 12 12.5 12H13V8H16V12H16.5C16.6698 12 16.8367 12.0121 17 12.0354V5.5ZM12 8V12H8V8H12ZM4 14.5V13H7V16H5.5L5.35554 15.9931C4.59489 15.9204 4 15.2797 4 14.5ZM12 7H8V4H12V7ZM13 4H14.5L14.6445 4.00687C15.4051 4.07955 16 4.7203 16 5.5V7H13V4ZM4 7V5.5L4.00687 5.35554C4.07955 4.59489 4.7203 4 5.5 4H7V7H4ZM7 8V12H4V8H7ZM10 15.5C10 14.1193 11.1193 13 12.5 13H13C13.2761 13 13.5 13.2239 13.5 13.5C13.5 13.7761 13.2761 14 13 14H12.5C11.6716 14 11 14.6716 11 15.5C11 16.3284 11.6716 17 12.5 17H13C13.2761 17 13.5 17.2239 13.5 17.5C13.5 17.7761 13.2761 18 13 18H12.5C11.1193 18 10 16.8807 10 15.5ZM15.5 13.5C15.5 13.2239 15.7239 13 16 13H16.5C17.8807 13 19 14.1193 19 15.5C19 16.8807 17.8807 18 16.5 18H16C15.7239 18 15.5 17.7761 15.5 17.5C15.5 17.2239 15.7239 17 16 17H16.5C17.3284 17 18 16.3284 18 15.5C18 14.6716 17.3284 14 16.5 14H16C15.7239 14 15.5 13.7761 15.5 13.5ZM12.5 15C12.2239 15 12 15.2239 12 15.5C12 15.7761 12.2239 16 12.5 16H16.5C16.7761 16 17 15.7761 17 15.5C17 15.2239 16.7761 15 16.5 15H12.5Z"/>
</symbol><symbol viewBox="0 0 20 20" fill="currentColor" id="shortcut_table_filled" xmlns="http://www.w3.org/2000/svg">
<path d="M13 7H17V5.5C17 4.11929 15.8807 3 14.5 3H13V7Z" fill="#117865"/>
<path d="M7 12V8H3V12H7Z" fill="#117865"/>
<path d="M12 10.5354C11.0192 10.6757 10.1695 11.2227 9.62734 12H8V8H12V10.5354Z" fill="#117865"/>
<path d="M16.5 10.5C16.6698 10.5 16.8367 10.5121 17 10.5354V8H13V10.5H16.5Z" fill="#117865"/>
<path d="M9 14C9 13.6525 9.05064 13.3169 9.14494 13H8V17H10.6962C9.67979 16.3876 9 15.2732 9 14Z" fill="#117865"/>
<path d="M7 13H3V14.5C3 15.8807 4.11929 17 5.5 17H7V13Z" fill="#117865"/>
<path d="M12 7V3H8V7H12Z" fill="#117865"/>
<path d="M7 3V7H3V5.5C3 4.11929 4.11929 3 5.5 3H7Z" fill="#117865"/>
<path d="M12.5 11.5C11.1193 11.5 10 12.6193 10 14C10 15.3807 11.1193 16.5 12.5 16.5H13C13.2761 16.5 13.5 16.2761 13.5 16C13.5 15.7239 13.2761 15.5 13 15.5H12.5C11.6716 15.5 11 14.8284 11 14C11 13.1716 11.6716 12.5 12.5 12.5H13C13.2761 12.5 13.5 12.2761 13.5 12C13.5 11.7239 13.2761 11.5 13 11.5H12.5Z" fill="#117865"/>
<path d="M16 11.5C15.7239 11.5 15.5 11.7239 15.5 12C15.5 12.2761 15.7239 12.5 16 12.5H16.5C17.3284 12.5 18 13.1716 18 14C18 14.8284 17.3284 15.5 16.5 15.5H16C15.7239 15.5 15.5 15.7239 15.5 16C15.5 16.2761 15.7239 16.5 16 16.5H16.5C17.8807 16.5 19 15.3807 19 14C19 12.6193 17.8807 11.5 16.5 11.5H16Z" fill="#117865"/>
<path d="M12 14C12 13.7239 12.2239 13.5 12.5 13.5H16.5C16.7761 13.5 17 13.7239 17 14C17 14.2761 16.7761 14.5 16.5 14.5H12.5C12.2239 14.5 12 14.2761 12 14Z" fill="#117865"/>
</symbol></svg>