<?xml version="1.0" encoding="utf-8"?><svg xmlns="http://www.w3.org/2000/svg" xmlns:xlink="http://www.w3.org/1999/xlink"><symbol viewBox="0 0 20 20" id="dax_editor" xmlns="http://www.w3.org/2000/svg">
        <path d="M4 4.00098C4 2.89641 4.89543 2.00098 6 2.00098H9.58579C9.98361 2.00098 10.3651 2.15901 10.6464 2.44032L14.5607 6.35453C14.842 6.63584 15 7.01737 15 7.41519V14.001C15 15.0245 14.2311 15.8685 13.2394 15.9868L12.875 15.5009L13.2791 14.9615C13.6956 14.8407 14 14.4564 14 14.001V8.00098H10.5C9.67157 8.00098 9 7.3294 9 6.50098V3.00098H6C5.44772 3.00098 5 3.44869 5 4.00098V12.9977L4.646 14.0009C4.48204 13.6553 4.26337 13.3406 4 13.0682V4.00098ZM10 3.20808V6.50098C10 6.77712 10.2239 7.00098 10.5 7.00098H13.7929L10 3.20808Z"/>
        <path d="M13.9849 17.7131C13.9758 17.7769 13.9626 17.8397 13.9456 17.9012C15.6951 17.4995 17 15.9329 17 14.0616V9.00097C17 8.44869 16.5523 8.00097 16 8.00097V14.001C16 15.3578 15.0993 16.5042 13.8631 16.875C13.9825 17.1348 14.026 17.4256 13.9849 17.7131Z"/>
        <path d="M0.146447 13.1474C0.240215 13.0537 0.367392 13.001 0.5 13.001H1.5C2.16304 13.001 2.79893 13.2644 3.26777 13.7332C3.73661 14.2021 4 14.8379 4 15.501C4 16.164 3.73661 16.7999 3.26777 17.2687C2.79893 17.7376 2.16304 18.001 1.5 18.001H0.5C0.367392 18.001 0.240215 17.9483 0.146447 17.8545C0.0526785 17.7608 0 17.6336 0 17.501V13.501C0 13.3684 0.0526785 13.2412 0.146447 13.1474ZM1 14.001V17.001H1.5C1.89782 17.001 2.27936 16.8429 2.56066 16.5616C2.84196 16.2803 3 15.8988 3 15.501C3 15.1032 2.84196 14.7216 2.56066 14.4403C2.27936 14.159 1.89782 14.001 1.5 14.001H1Z"/>
        <path d="M6.49941 12.751C6.60299 12.7509 6.70403 12.783 6.78858 12.8428C6.87313 12.9027 6.93702 12.9873 6.97141 13.085L8.47141 17.335C8.49497 17.3973 8.50584 17.4637 8.50338 17.5303C8.50091 17.5969 8.48517 17.6623 8.45707 17.7227C8.42897 17.7831 8.38907 17.8373 8.33974 17.8821C8.2904 17.9268 8.23261 17.9613 8.16976 17.9834C8.10692 18.0056 8.04028 18.0149 7.97377 18.0109C7.90727 18.0069 7.84223 17.9897 7.78248 17.9602C7.72273 17.9307 7.66947 17.8896 7.62584 17.8392C7.58221 17.7889 7.54908 17.7303 7.52841 17.667L7.29241 17.001H5.70641L5.47141 17.667C5.45073 17.7303 5.4176 17.7889 5.37397 17.8392C5.33034 17.8896 5.27708 17.9307 5.21733 17.9602C5.15758 17.9897 5.09254 18.0069 5.02604 18.0109C4.95953 18.0149 4.8929 18.0056 4.83005 17.9834C4.7672 17.9613 4.70941 17.9268 4.66008 17.8821C4.61074 17.8373 4.57085 17.7831 4.54274 17.7227C4.51464 17.6623 4.4989 17.5969 4.49644 17.5303C4.49397 17.4637 4.50484 17.3973 4.52841 17.335L6.02841 13.085C6.06274 12.9874 6.12647 12.9029 6.21082 12.8431C6.29517 12.7833 6.396 12.7511 6.49941 12.751ZM6.49941 14.751L6.05941 16.001H6.94041L6.49941 14.751Z"/>
        <path d="M12.995 13.4303C12.9762 13.299 12.9061 13.1805 12.8 13.101C12.7475 13.0616 12.6877 13.0329 12.6241 13.0166C12.5605 13.0003 12.4943 12.9967 12.4293 13.006C12.3643 13.0153 12.3018 13.0373 12.2453 13.0707C12.1888 13.1042 12.1394 13.1484 12.1 13.201L11 14.668L9.9 13.201C9.86061 13.1484 9.81125 13.1042 9.75475 13.0707C9.69825 13.0373 9.63571 13.0153 9.57071 13.006C9.50571 12.9967 9.43952 13.0003 9.37591 13.0166C9.31231 13.0329 9.25253 13.0616 9.2 13.101C9.14747 13.1404 9.10322 13.1897 9.06977 13.2462C9.03631 13.3027 9.01431 13.3653 9.00503 13.4303C8.99574 13.4953 8.99935 13.5615 9.01565 13.6251C9.03194 13.6887 9.06061 13.7484 9.1 13.801L10.374 15.501L9.1 17.201C9.02044 17.3071 8.98627 17.4404 9.00503 17.5717C9.02378 17.703 9.09392 17.8214 9.2 17.901C9.30609 17.9805 9.43944 18.0147 9.57071 17.996C9.70199 17.9772 9.82044 17.9071 9.9 17.801L11 16.335L12.1 17.801C12.1394 17.8535 12.1888 17.8978 12.2453 17.9312C12.3018 17.9647 12.3643 17.9867 12.4293 17.996C12.4943 18.0052 12.5605 18.0016 12.6241 17.9853C12.6877 17.969 12.7475 17.9404 12.8 17.901C12.8525 17.8616 12.8968 17.8122 12.9302 17.7557C12.9637 17.6992 12.9857 17.6367 12.995 17.5717C13.0043 17.5067 13.0007 17.4405 12.9844 17.3769C12.9681 17.3133 12.9394 17.2535 12.9 17.201L11.624 15.501L12.9 13.801C12.9796 13.6949 13.0137 13.5615 12.995 13.4303Z"/>
    </symbol><symbol viewBox="0 0 28 28" id="powerpoint_28_regular" xmlns="http://www.w3.org/2000/svg">
<path d="M15.75 1.75C16.8802 1.75 17.9648 1.89583 19.0039 2.1875C20.0521 2.47917 21.0273 2.89388 21.9297 3.43164C22.8411 3.96029 23.666 4.59831 24.4043 5.3457C25.1517 6.08398 25.7897 6.90885 26.3184 7.82031C26.8561 8.72266 27.2708 9.69792 27.5625 10.7461C27.8542 11.7852 28 12.8698 28 14C28 15.1302 27.8542 16.2194 27.5625 17.2676C27.2708 18.3066 26.8561 19.2819 26.3184 20.1934C25.7897 21.0957 25.1517 21.9206 24.4043 22.668C23.666 23.4062 22.8411 24.0443 21.9297 24.582C21.0273 25.1107 20.0521 25.5208 19.0039 25.8125C17.9648 26.1042 16.8802 26.25 15.75 26.25C14.7474 26.25 13.7676 26.1315 12.8105 25.8945C11.8535 25.6576 10.9421 25.3158 10.0762 24.8691C9.2194 24.4134 8.41732 23.862 7.66992 23.2148C6.93164 22.5586 6.27539 21.8203 5.70117 21H1.16211C0.843099 21 0.569661 20.8861 0.341797 20.6582C0.113932 20.4303 0 20.1569 0 19.8379V8.16211C0 7.8431 0.113932 7.56966 0.341797 7.3418C0.569661 7.11393 0.843099 7 1.16211 7H5.70117C6.27539 6.17969 6.93164 5.44596 7.66992 4.79883C8.41732 4.14258 9.2194 3.59115 10.0762 3.14453C10.9421 2.6888 11.8535 2.34245 12.8105 2.10547C13.7676 1.86849 14.7474 1.75 15.75 1.75ZM16.625 3.54102V13.125H26.209C26.0996 11.849 25.776 10.6549 25.2383 9.54297C24.7096 8.42188 24.0169 7.4375 23.1602 6.58984C22.3125 5.73307 21.3281 5.04036 20.207 4.51172C19.0859 3.97396 17.8919 3.65039 16.625 3.54102ZM10.4863 12.373C10.4863 11.8444 10.3952 11.3932 10.2129 11.0195C10.0397 10.6367 9.79818 10.3268 9.48828 10.0898C9.17839 9.85286 8.8138 9.67969 8.39453 9.57031C7.97526 9.46094 7.51953 9.40625 7.02734 9.40625H3.32227V18.5801H5.46875V15.3809H6.91797C7.36458 15.3809 7.79753 15.3171 8.2168 15.1895C8.64518 15.0527 9.02799 14.8613 9.36523 14.6152C9.70247 14.36 9.97135 14.0456 10.1719 13.6719C10.3815 13.2982 10.4863 12.8652 10.4863 12.373ZM15.75 24.5C16.6615 24.5 17.541 24.3906 18.3887 24.1719C19.2363 23.944 20.0339 23.625 20.7812 23.2148C21.5378 22.7956 22.2305 22.2988 22.8594 21.7246C23.4883 21.1413 24.0397 20.4941 24.5137 19.7832C24.9876 19.0632 25.3704 18.2884 25.6621 17.459C25.9538 16.6296 26.1361 15.7637 26.209 14.8613H14.8887V3.54102C13.5397 3.65039 12.2682 4.00586 11.0742 4.60742C9.88021 5.19987 8.83203 5.9974 7.92969 7H12.8379C13.1569 7 13.4303 7.11393 13.6582 7.3418C13.8861 7.56966 14 7.8431 14 8.16211V19.8379C14 20.1569 13.8861 20.4303 13.6582 20.6582C13.4303 20.8861 13.1569 21 12.8379 21H7.92969C8.43099 21.556 8.97786 22.0527 9.57031 22.4902C10.1719 22.9186 10.8053 23.2832 11.4707 23.584C12.1361 23.8848 12.8288 24.1126 13.5488 24.2676C14.2689 24.4225 15.0026 24.5 15.75 24.5ZM6.78125 11.1973C7.22786 11.1973 7.58333 11.2884 7.84766 11.4707C8.11198 11.6439 8.24414 11.9674 8.24414 12.4414C8.24414 12.651 8.19401 12.8242 8.09375 12.9609C8.0026 13.0885 7.88411 13.1934 7.73828 13.2754C7.59245 13.3574 7.42839 13.4167 7.24609 13.4531C7.0638 13.4805 6.89062 13.4941 6.72656 13.4941H5.46875V11.1973H6.78125Z"/>
</symbol><symbol viewBox="0 0 2048 2048" id="teams_20_filled" xmlns="http://www.w3.org/2000/svg">
  <path d="M1760 704q-47 0-87-17t-71-48-48-71-18-88q0-46 17-87t48-71 71-48 88-18q46 0 87 17t71 48 48 72 18 87q0 47-17 87t-48 71-72 48-87 18zm0-320q-40 0-68 28t-28 68q0 40 28 68t68 28q40 0 68-28t28-68q0-40-28-68t-68-28zm288 480v476q0 66-25 124t-68 102-102 69-125 25q-38 0-77-9t-73-28q-25 81-73 147t-112 114-143 74-162 26q-98 0-184-34t-154-94-112-142-58-178H85q-35 0-60-25t-25-60V597q0-35 25-60t60-25h733q-29-61-29-128 0-62 23-116t64-95 95-64 117-24q62 0 116 23t95 64 64 95 24 117q0 62-23 116t-64 95-95 64-117 24q-16 0-32-2t-32-5v92h928q40 0 68 28t28 68zm-960-651q-35 0-66 13t-55 37-36 55-14 66q0 35 13 66t37 55 54 36 67 14q35 0 66-13t54-37 37-54 14-67q0-35-13-66t-37-54-55-37-66-14zM592 848h192V688H240v160h192v512h160V848zm880 624V896h-448v555q0 35-25 60t-60 25H709q13 69 47 128t84 101 113 67 135 24q79 0 149-30t122-82 83-122 30-150zm448-132V896h-320v585q26 26 59 38t69 13q40 0 75-15t61-41 41-61 15-75z"/>
</symbol><symbol viewBox="0 0 2048 2048" id="teams_20_regular" xmlns="http://www.w3.org/2000/svg">
  <path d="M1760 704q-47 0-87-17t-71-48-48-71-18-88q0-46 17-87t48-71 71-48 88-18q46 0 87 17t71 48 48 72 18 87q0 47-17 87t-48 71-72 48-87 18zm0-320q-40 0-68 28t-28 68q0 40 28 68t68 28q40 0 68-28t28-68q0-40-28-68t-68-28zm288 480v476q0 66-25 124t-68 102-102 69-125 25q-38 0-77-9t-73-28q-25 81-73 147t-112 114-143 74-162 26q-98 0-184-34t-154-94-112-142-58-178H85q-35 0-60-25t-25-60V597q0-35 25-60t60-25h733q-29-61-29-128 0-62 23-116t64-95 95-64 117-24q62 0 116 23t95 64 64 95 24 117q0 62-23 116t-64 95-95 64-117 24q-16 0-32-2t-32-5v92h928q40 0 68 28t28 68zm-960-651q-35 0-66 13t-55 37-36 55-14 66q0 35 13 66t37 55 54 36 67 14q35 0 66-13t54-37 37-54 14-67q0-35-13-66t-37-54-55-37-66-14zM592 848h192V688H240v160h192v512h160V848zm880 624V896h-448v555q0 35-25 60t-60 25H709q13 69 47 128t84 101 113 67 135 24q79 0 149-30t122-82 83-122 30-150zm448-132V896h-320v585q26 26 59 38t69 13q40 0 75-15t61-41 41-61 15-75z"/>
</symbol><symbol viewBox="0 0 28 28" id="teams_28_regular" xmlns="http://www.w3.org/2000/svg">
<path d="M24.0625 9.625C23.6341 9.625 23.2331 9.54753 22.8594 9.39258C22.4948 9.22852 22.1712 9.00977 21.8887 8.73633C21.6152 8.45378 21.3965 8.13021 21.2324 7.76562C21.0775 7.39193 21 6.99089 21 6.5625C21 6.14323 21.0775 5.74674 21.2324 5.37305C21.3965 4.99935 21.6152 4.67578 21.8887 4.40234C22.1712 4.11979 22.4948 3.90104 22.8594 3.74609C23.2331 3.58203 23.6341 3.5 24.0625 3.5C24.4818 3.5 24.8783 3.58203 25.252 3.74609C25.6257 3.90104 25.9492 4.11979 26.2227 4.40234C26.5052 4.67578 26.724 4.99935 26.8789 5.37305C27.043 5.74674 27.125 6.14323 27.125 6.5625C27.125 6.99089 27.043 7.39193 26.8789 7.76562C26.724 8.13021 26.5052 8.45378 26.2227 8.73633C25.9492 9.00977 25.6257 9.22852 25.252 9.39258C24.8783 9.54753 24.4818 9.625 24.0625 9.625ZM24.0625 5.25C23.6979 5.25 23.388 5.3776 23.1328 5.63281C22.8776 5.88802 22.75 6.19792 22.75 6.5625C22.75 6.92708 22.8776 7.23698 23.1328 7.49219C23.388 7.7474 23.6979 7.875 24.0625 7.875C24.4271 7.875 24.737 7.7474 24.9922 7.49219C25.2474 7.23698 25.375 6.92708 25.375 6.5625C25.375 6.19792 25.2474 5.88802 24.9922 5.63281C24.737 5.3776 24.4271 5.25 24.0625 5.25ZM28 11.8125V18.3203C28 18.9219 27.8861 19.4915 27.6582 20.0293C27.4303 20.5579 27.1159 21.0228 26.7148 21.4238C26.3229 21.8158 25.8581 22.1257 25.3203 22.3535C24.7917 22.5814 24.2266 22.6953 23.625 22.6953C23.2786 22.6953 22.9232 22.6543 22.5586 22.5723C22.2031 22.4902 21.875 22.3626 21.5742 22.1895C21.3464 22.9277 21.0137 23.6022 20.5762 24.2129C20.1387 24.8145 19.6237 25.334 19.0312 25.7715C18.4479 26.1999 17.8008 26.5326 17.0898 26.7695C16.3789 27.0065 15.6406 27.125 14.875 27.125C13.9818 27.125 13.1387 26.9701 12.3457 26.6602C11.5618 26.3503 10.86 25.9219 10.2402 25.375C9.62956 24.8281 9.11914 24.181 8.70898 23.4336C8.30794 22.6862 8.04818 21.875 7.92969 21H1.16211C0.843099 21 0.569661 20.8861 0.341797 20.6582C0.113932 20.4303 0 20.1569 0 19.8379V8.16211C0 7.8431 0.113932 7.56966 0.341797 7.3418C0.569661 7.11393 0.843099 7 1.16211 7H11.1836C10.9193 6.44401 10.7871 5.86068 10.7871 5.25C10.7871 4.6849 10.8919 4.15625 11.1016 3.66406C11.3203 3.16276 11.612 2.72982 11.9766 2.36523C12.3503 1.99154 12.7832 1.69987 13.2754 1.49023C13.7767 1.27148 14.3099 1.16211 14.875 1.16211C15.4401 1.16211 15.9688 1.27148 16.4609 1.49023C16.9622 1.69987 17.3952 1.99154 17.7598 2.36523C18.1335 2.72982 18.4251 3.16276 18.6348 3.66406C18.8535 4.15625 18.9629 4.6849 18.9629 5.25C18.9629 5.8151 18.8535 6.34831 18.6348 6.84961C18.4251 7.3418 18.1335 7.77474 17.7598 8.14844C17.3952 8.51302 16.9622 8.80469 16.4609 9.02344C15.9688 9.23307 15.4401 9.33789 14.875 9.33789C14.7292 9.33789 14.5833 9.32878 14.4375 9.31055C14.2917 9.29232 14.1458 9.26953 14 9.24219V10.5H26.6875C27.0521 10.5 27.362 10.6276 27.6172 10.8828C27.8724 11.138 28 11.4479 28 11.8125ZM14.875 2.91211C14.556 2.91211 14.2507 2.97591 13.959 3.10352C13.6764 3.22201 13.4303 3.39062 13.2207 3.60938C13.0111 3.81901 12.8424 4.0651 12.7148 4.34766C12.5964 4.63021 12.5371 4.93099 12.5371 5.25C12.5371 5.56901 12.5964 5.87435 12.7148 6.16602C12.8424 6.44857 13.0111 6.69466 13.2207 6.9043C13.4303 7.11393 13.6764 7.28255 13.959 7.41016C14.2507 7.52865 14.556 7.58789 14.875 7.58789C15.194 7.58789 15.4948 7.52865 15.7773 7.41016C16.0599 7.28255 16.306 7.11393 16.5156 6.9043C16.7344 6.69466 16.903 6.44857 17.0215 6.16602C17.1491 5.87435 17.2129 5.56901 17.2129 5.25C17.2129 4.93099 17.1491 4.63021 17.0215 4.34766C16.903 4.0651 16.7344 3.81901 16.5156 3.60938C16.306 3.39062 16.0599 3.22201 15.7773 3.10352C15.4948 2.97591 15.194 2.91211 14.875 2.91211ZM8.09375 11.5938H10.7188V9.40625H3.28125V11.5938H5.90625V18.5938H8.09375V11.5938ZM20.125 20.125V12.25H14V19.8379C14 20.1569 13.8861 20.4303 13.6582 20.6582C13.4303 20.8861 13.1569 21 12.8379 21H9.69336C9.81185 21.6289 10.026 22.2122 10.3359 22.75C10.6549 23.2878 11.0378 23.7526 11.4844 24.1445C11.9401 24.5273 12.4551 24.8281 13.0293 25.0469C13.6035 25.2656 14.2188 25.375 14.875 25.375C15.5951 25.375 16.2741 25.2383 16.9121 24.9648C17.5501 24.6914 18.1061 24.3177 18.5801 23.8438C19.0632 23.3607 19.4414 22.8047 19.7148 22.1758C19.9883 21.5378 20.125 20.8542 20.125 20.125ZM26.25 18.3203V12.25H21.875V20.248C22.112 20.485 22.3809 20.6628 22.6816 20.7812C22.9824 20.8906 23.2969 20.9453 23.625 20.9453C23.9896 20.9453 24.3314 20.877 24.6504 20.7402C24.9694 20.6035 25.2474 20.4167 25.4844 20.1797C25.7214 19.9427 25.9082 19.6647 26.0449 19.3457C26.1816 19.0267 26.25 18.6849 26.25 18.3203Z"/>
</symbol></svg>