<?xml version="1.0" encoding="utf-8"?>
<svg version="1.1" id="Layer_1" xmlns="http://www.w3.org/2000/svg" xmlns:xlink="http://www.w3.org/1999/xlink" x="0px" y="0px"
	 viewBox="0 0 18 18" style="enable-background:new 0 0 18 18;" xml:space="preserve">
<style type="text/css">
	.st0{enable-background:new    ;}
	.st1{fill:#3B3A39;}
</style>
<title>QnA</title>
<g class="st0">
	<path class="st1" d="M17,3.617c0,0.344-0.065,0.677-0.195,1c-0.131,0.323-0.32,0.609-0.57,0.859L5.945,15.766L1,17l1.234-4.945
		L12.523,1.766c0.25-0.25,0.536-0.44,0.859-0.57c0.322-0.13,0.656-0.195,1-0.195c0.359,0,0.697,0.069,1.016,0.207
		c0.317,0.138,0.595,0.325,0.832,0.562c0.236,0.237,0.424,0.515,0.562,0.832C16.931,2.919,17,3.258,17,3.617z M2.375,15.625
		l2.57-0.641c-0.052-0.239-0.137-0.466-0.254-0.68s-0.259-0.403-0.426-0.57c-0.167-0.167-0.357-0.309-0.57-0.426
		c-0.214-0.117-0.44-0.202-0.68-0.254L2.375,15.625z M3.547,12.156c0.552,0.183,1.027,0.473,1.426,0.871s0.688,0.874,0.871,1.426
		L14.289,6L12,3.711L3.547,12.156z M15,5.289c0.13-0.13,0.255-0.253,0.375-0.367c0.119-0.114,0.227-0.235,0.32-0.363
		s0.168-0.266,0.223-0.414S16,3.823,16,3.625c0-0.224-0.043-0.434-0.129-0.629S15.668,2.629,15.52,2.48s-0.32-0.266-0.516-0.352
		S14.599,2,14.375,2c-0.198,0-0.371,0.027-0.52,0.082s-0.287,0.129-0.414,0.223c-0.128,0.094-0.249,0.2-0.363,0.32
		C12.963,2.745,12.841,2.87,12.711,3L15,5.289z"/>
</g>
</svg>