<?xml version="1.0" encoding="utf-8"?>
<!-- Generator: Adobe Illustrator 24.3.0, SVG Export Plug-In . SVG Version: 6.00 Build 0)  -->
<svg version="1.1" id="Layer_1" xmlns="http://www.w3.org/2000/svg" xmlns:xlink="http://www.w3.org/1999/xlink" x="0px" y="0px"
	 width="30.5px" height="30.5px" viewBox="0 0 30.5 30.5" enable-background="new 0 0 30.5 30.5" xml:space="preserve">
<circle fill="#ECECEC" cx="15.3" cy="15.3" r="13"/>
<g opacity="0.4">
	<path fill="#FFFFFF" d="M15.3,2.3c7.2,0,13,5.8,13,13s-5.8,13-13,13s-13-5.8-13-13S8.1,2.3,15.3,2.3 M15.3,0.3c-8.3,0-15,6.7-15,15
		s6.7,15,15,15s15-6.7,15-15S23.5,0.3,15.3,0.3z"/>
</g>
<path fill="#111111" d="M15.3,3.3c6.6,0,12,5.4,12,12s-5.4,12-12,12s-12-5.4-12-12S8.6,3.3,15.3,3.3 M15.3,2.3c-7.2,0-13,5.8-13,13
	s5.8,13,13,13s13-5.8,13-13S22.4,2.3,15.3,2.3z"/>
<path fill="#444444" d="M15,20v1H7V10h16v8l-1-1v-6H8v9H15z M16,13l7,7h-2.062l0.984,1.977l-2.898,1.445l-1.078-2.164L16,23.023V13z
	 M20.578,21.523L19.312,19h1.273L17,15.414v5.195l1.219-1.039l1.258,2.508L20.578,21.523z"/>
</svg>
