<svg width="253" height="155" viewBox="0 0 253 155" fill="none" xmlns="http://www.w3.org/2000/svg">
<g clip-path="url(#clip0)">
<path d="M0 2C0 0.895429 0.895431 0 2 0H251C252.105 0 253 0.895431 253 2V155H0V2Z" fill="#FFF" fill-opacity="0.6" />
<g style="mix-blend-mode:hard-light" filter="url(#filter0_i)">
<path d="M33.6294 117.406L-21 155.344H354.061L261.119 53.9178C255.106 47.3556 244.893 46.9622 238.393 53.0424L138.242 146.722C132.709 151.897 124.528 153.054 117.778 149.616L52.0651 116.151C46.1576 113.143 39.0746 113.625 33.6294 117.406Z" fill="#FFF" fill-opacity="0.35" />
</g>
<g filter="url(#filter1_b)">
<path d="M159.473 48.6703L40 155.344H415.061L330.994 118.647C329.414 117.958 327.614 117.981 326.052 118.711L291.448 134.895C289.404 135.851 286.997 135.58 285.218 134.193L174.843 48.1571C170.269 44.5917 163.799 44.8077 159.473 48.6703Z" fill="#FFF" fill-opacity="0.2"/>
</g>
</g>
<defs>
<filter id="filter0_i" x="-21" y="48.7273" width="375.061" height="106.616" filterUnits="userSpaceOnUse" color-interpolation-filters="sRGB">
<feFlood flood-opacity="0" result="BackgroundImageFix"/>
<feBlend mode="normal" in="SourceGraphic" in2="BackgroundImageFix" result="shape"/>
<feColorMatrix in="SourceAlpha" type="matrix" values="0 0 0 0 0 0 0 0 0 0 0 0 0 0 0 0 0 0 127 0" result="hardAlpha"/>
<feOffset dy="1"/>
<feComposite in2="hardAlpha" operator="arithmetic" k2="-1" k3="1"/>
<feColorMatrix type="matrix" values="0 0 0 0 0.94902 0 0 0 0 0.94902 0 0 0 0 0.94902 0 0 0 0.5 0"/>
<feBlend mode="normal" in2="shape" result="effect1_innerShadow"/>
</filter>
<filter id="filter1_b" x="38" y="43.6216" width="379.061" height="113.722" filterUnits="userSpaceOnUse" color-interpolation-filters="sRGB">
<feFlood flood-opacity="0" result="BackgroundImageFix"/>
<feGaussianBlur in="BackgroundImage" stdDeviation="1"/>
<feComposite in2="SourceAlpha" operator="in" result="effect1_backgroundBlur"/>
<feBlend mode="normal" in="SourceGraphic" in2="effect1_backgroundBlur" result="shape"/>
</filter>
<clipPath id="clip0">
<path d="M0 2C0 0.895429 0.895431 0 2 0H251C252.105 0 253 0.895431 253 2V155H0V2Z" fill="white"/>
</clipPath>
</defs>
</svg>
