<?xml version="1.0" encoding="utf-8"?><svg width="384" height="256" viewBox="0 0 384 256" xmlns="http://www.w3.org/2000/svg" xmlns:xlink="http://www.w3.org/1999/xlink"><view id="dismiss_128" viewBox="0 0 128 128"/><svg width="128" height="128" viewBox="0 0 128 128" fill="none" xmlns="http://www.w3.org/2000/svg">
<g filter="url(#aafilter0_ii_3080_48432)">
<path d="M104 64C104 86.0914 86.0914 104 64 104C41.9086 104 24 86.0914 24 64C24 41.9086 41.9086 24 64 24C86.0914 24 104 41.9086 104 64Z" fill="url(#aapaint0_linear_3080_48432)"/>
</g>
<path d="M78.1421 54.1006C79.3137 52.929 79.3137 51.0295 78.1421 49.858C76.9706 48.6864 75.0711 48.6864 73.8995 49.858L64 59.7574L54.1005 49.858C52.9289 48.6864 51.0294 48.6864 49.8579 49.858C48.6863 51.0295 48.6863 52.929 49.8579 54.1006L59.7574 64.0001L49.8579 73.8996C48.6863 75.0712 48.6863 76.9707 49.8579 78.1422C51.0294 79.3138 52.9289 79.3138 54.1005 78.1422L64 68.2427L73.8995 78.1422C75.0711 79.3138 76.9706 79.3138 78.1421 78.1422C79.3137 76.9707 79.3137 75.0712 78.1421 73.8996L68.2426 64.0001L78.1421 54.1006Z" fill="url(#aapaint1_linear_3080_48432)"/>
<defs>
<filter id="aafilter0_ii_3080_48432" x="24" y="24" width="80" height="84" filterUnits="userSpaceOnUse" color-interpolation-filters="sRGB">
<feFlood flood-opacity="0" result="BackgroundImageFix"/>
<feBlend mode="normal" in="SourceGraphic" in2="BackgroundImageFix" result="shape"/>
<feColorMatrix in="SourceAlpha" type="matrix" values="0 0 0 0 0 0 0 0 0 0 0 0 0 0 0 0 0 0 127 0" result="hardAlpha"/>
<feOffset dy="3"/>
<feGaussianBlur stdDeviation="3.5"/>
<feComposite in2="hardAlpha" operator="arithmetic" k2="-1" k3="1"/>
<feColorMatrix type="matrix" values="0 0 0 0 0.0666667 0 0 0 0 0.0627451 0 0 0 0 0.0588235 0 0 0 0.2 0"/>
<feBlend mode="normal" in2="shape" result="effect1_innerShadow_3080_48432"/>
<feColorMatrix in="SourceAlpha" type="matrix" values="0 0 0 0 0 0 0 0 0 0 0 0 0 0 0 0 0 0 127 0" result="hardAlpha"/>
<feOffset dy="4"/>
<feGaussianBlur stdDeviation="9.5"/>
<feComposite in2="hardAlpha" operator="arithmetic" k2="-1" k3="1"/>
<feColorMatrix type="matrix" values="0 0 0 0 0.0666667 0 0 0 0 0.0627451 0 0 0 0 0.0588235 0 0 0 0.2 0"/>
<feBlend mode="normal" in2="effect1_innerShadow_3080_48432" result="effect2_innerShadow_3080_48432"/>
</filter>
<linearGradient id="aapaint0_linear_3080_48432" x1="81.2043" y1="24" x2="53.7852" y2="111.26" gradientUnits="userSpaceOnUse">
<stop stop-color="#D1D1D1"/>
<stop offset="0.974484" stop-color="#919191"/>
</linearGradient>
<linearGradient id="aapaint1_linear_3080_48432" x1="68" y1="51" x2="60.5" y2="81.5" gradientUnits="userSpaceOnUse">
<stop stop-color="white"/>
<stop offset="1" stop-color="#E1E1E1"/>
</linearGradient>
</defs>
</svg><view id="no_access_128" viewBox="128 0 128 128"/><svg width="128" height="128" viewBox="0 0 128 128" fill="none" x="128" xmlns="http://www.w3.org/2000/svg">
<g filter="url(#abfilter0_ii_3080_48434)">
<path fill-rule="evenodd" clip-rule="evenodd" d="M63.495 22.0181C53.8428 22.0181 46.0182 29.8427 46.0182 39.4949V46.9999H41C34.9249 46.9999 30 51.9248 30 57.9999V94.9999C30 101.075 34.9249 106 41 106H87C93.0751 106 98 101.075 98 94.9999V57.9999C98 51.9248 93.0751 46.9999 87 46.9999H81.9818V39.4949C81.9818 29.8427 74.1572 22.0181 64.505 22.0181H63.495ZM76.0182 46.9999V39.4949C76.0182 33.1364 70.8635 27.9817 64.505 27.9817H63.495C57.1365 27.9817 51.9818 33.1364 51.9818 39.4949V46.9999H76.0182Z" fill="url(#abpaint0_linear_3080_48434)"/>
</g>
<g style="mix-blend-mode:multiply" filter="url(#abfilter1_ii_3080_48434)">
<path d="M57 76C57 72.134 60.134 69 64 69C67.866 69 71 72.134 71 76C71 79.866 67.866 83 64 83C60.134 83 57 79.866 57 76Z" fill="#212121"/>
<path d="M57 76C57 72.134 60.134 69 64 69C67.866 69 71 72.134 71 76C71 79.866 67.866 83 64 83C60.134 83 57 79.866 57 76Z" fill="url(#abpaint1_linear_3080_48434)"/>
</g>
<defs>
<filter id="abfilter0_ii_3080_48434" x="30" y="22.0181" width="68" height="87.9819" filterUnits="userSpaceOnUse" color-interpolation-filters="sRGB">
<feFlood flood-opacity="0" result="BackgroundImageFix"/>
<feBlend mode="normal" in="SourceGraphic" in2="BackgroundImageFix" result="shape"/>
<feColorMatrix in="SourceAlpha" type="matrix" values="0 0 0 0 0 0 0 0 0 0 0 0 0 0 0 0 0 0 127 0" result="hardAlpha"/>
<feOffset dy="3"/>
<feGaussianBlur stdDeviation="3.5"/>
<feComposite in2="hardAlpha" operator="arithmetic" k2="-1" k3="1"/>
<feColorMatrix type="matrix" values="0 0 0 0 0.0666667 0 0 0 0 0.0627451 0 0 0 0 0.0588235 0 0 0 0.2 0"/>
<feBlend mode="normal" in2="shape" result="effect1_innerShadow_3080_48434"/>
<feColorMatrix in="SourceAlpha" type="matrix" values="0 0 0 0 0 0 0 0 0 0 0 0 0 0 0 0 0 0 127 0" result="hardAlpha"/>
<feOffset dy="4"/>
<feGaussianBlur stdDeviation="9.5"/>
<feComposite in2="hardAlpha" operator="arithmetic" k2="-1" k3="1"/>
<feColorMatrix type="matrix" values="0 0 0 0 0.0666667 0 0 0 0 0.0627451 0 0 0 0 0.0588235 0 0 0 0.2 0"/>
<feBlend mode="normal" in2="effect1_innerShadow_3080_48434" result="effect2_innerShadow_3080_48434"/>
</filter>
<filter id="abfilter1_ii_3080_48434" x="57" y="69" width="14" height="18" filterUnits="userSpaceOnUse" color-interpolation-filters="sRGB">
<feFlood flood-opacity="0" result="BackgroundImageFix"/>
<feBlend mode="normal" in="SourceGraphic" in2="BackgroundImageFix" result="shape"/>
<feColorMatrix in="SourceAlpha" type="matrix" values="0 0 0 0 0 0 0 0 0 0 0 0 0 0 0 0 0 0 127 0" result="hardAlpha"/>
<feOffset dy="3"/>
<feGaussianBlur stdDeviation="3.5"/>
<feComposite in2="hardAlpha" operator="arithmetic" k2="-1" k3="1"/>
<feColorMatrix type="matrix" values="0 0 0 0 0.0666667 0 0 0 0 0.0627451 0 0 0 0 0.0588235 0 0 0 0.2 0"/>
<feBlend mode="normal" in2="shape" result="effect1_innerShadow_3080_48434"/>
<feColorMatrix in="SourceAlpha" type="matrix" values="0 0 0 0 0 0 0 0 0 0 0 0 0 0 0 0 0 0 127 0" result="hardAlpha"/>
<feOffset dy="4"/>
<feGaussianBlur stdDeviation="9.5"/>
<feComposite in2="hardAlpha" operator="arithmetic" k2="-1" k3="1"/>
<feColorMatrix type="matrix" values="0 0 0 0 0.0666667 0 0 0 0 0.0627451 0 0 0 0 0.0588235 0 0 0 0.2 0"/>
<feBlend mode="normal" in2="effect1_innerShadow_3080_48434" result="effect2_innerShadow_3080_48434"/>
</filter>
<linearGradient id="abpaint0_linear_3080_48434" x1="78.6237" y1="22.0181" x2="44.6773" y2="109.492" gradientUnits="userSpaceOnUse">
<stop stop-color="#D1D1D1"/>
<stop offset="1" stop-color="#B3B0AD"/>
<stop offset="1" stop-color="#B3B3B3"/>
</linearGradient>
<linearGradient id="abpaint1_linear_3080_48434" x1="66.4198" y1="70.642" x2="63.4702" y2="81.4649" gradientUnits="userSpaceOnUse">
<stop stop-color="#F0F0F0"/>
<stop offset="1" stop-color="#DBDBDB"/>
</linearGradient>
</defs>
</svg><view id="no_connection_128" viewBox="0 128 128 128"/><svg width="128" height="128" viewBox="0 0 128 128" fill="none" y="128" xmlns="http://www.w3.org/2000/svg">
<g filter="url(#acfilter0_ii_3080_48436)">
<path d="M57 23C55.3431 23 54 24.3431 54 26V41H50.2726C46.256 41 42.9999 44.2561 42.9999 48.2727V52C42.9999 64.7918 52.6071 75.3397 64.9998 76.8218V80.6239C64.9998 85.2499 61.2496 89 56.6236 89H54.9845V95H56.6236C64.5634 95 70.9998 88.5636 70.9998 80.6239V76.8219C83.3925 75.3399 92.9999 64.7919 92.9999 52V48.2727C92.9999 44.2561 89.7438 41 85.7272 41H82V26C82 24.3431 80.6569 23 79 23C77.3431 23 76 24.3431 76 26V41H60V26C60 24.3431 58.6569 23 57 23Z" fill="url(#acpaint0_linear_3080_48436)"/>
<path d="M43 89H46.1364V95H43C39.134 95 36 98.134 36 102V105C36 106.657 34.6569 108 33 108C31.3431 108 30 106.657 30 105V102C30 94.8203 35.8203 89 43 89Z" fill="url(#acpaint1_linear_3080_48436)"/>
</g>
<defs>
<filter id="acfilter0_ii_3080_48436" x="30" y="23" width="63" height="89" filterUnits="userSpaceOnUse" color-interpolation-filters="sRGB">
<feFlood flood-opacity="0" result="BackgroundImageFix"/>
<feBlend mode="normal" in="SourceGraphic" in2="BackgroundImageFix" result="shape"/>
<feColorMatrix in="SourceAlpha" type="matrix" values="0 0 0 0 0 0 0 0 0 0 0 0 0 0 0 0 0 0 127 0" result="hardAlpha"/>
<feOffset dy="3"/>
<feGaussianBlur stdDeviation="3.5"/>
<feComposite in2="hardAlpha" operator="arithmetic" k2="-1" k3="1"/>
<feColorMatrix type="matrix" values="0 0 0 0 0.0666667 0 0 0 0 0.0627451 0 0 0 0 0.0588235 0 0 0 0.2 0"/>
<feBlend mode="normal" in2="shape" result="effect1_innerShadow_3080_48436"/>
<feColorMatrix in="SourceAlpha" type="matrix" values="0 0 0 0 0 0 0 0 0 0 0 0 0 0 0 0 0 0 127 0" result="hardAlpha"/>
<feOffset dy="4"/>
<feGaussianBlur stdDeviation="9.5"/>
<feComposite in2="hardAlpha" operator="arithmetic" k2="-1" k3="1"/>
<feColorMatrix type="matrix" values="0 0 0 0 0.0666667 0 0 0 0 0.0627451 0 0 0 0 0.0588235 0 0 0 0.2 0"/>
<feBlend mode="normal" in2="effect1_innerShadow_3080_48436" result="effect2_innerShadow_3080_48436"/>
</filter>
<linearGradient id="acpaint0_linear_3080_48436" x1="75.0483" y1="23" x2="38.4409" y2="109.348" gradientUnits="userSpaceOnUse">
<stop stop-color="#D1D1D1"/>
<stop offset="1" stop-color="#B3B0AD"/>
<stop offset="1" stop-color="#B3B3B3"/>
</linearGradient>
<linearGradient id="acpaint1_linear_3080_48436" x1="75.0483" y1="23" x2="38.4409" y2="109.348" gradientUnits="userSpaceOnUse">
<stop stop-color="#D1D1D1"/>
<stop offset="1" stop-color="#B3B0AD"/>
<stop offset="1" stop-color="#B3B3B3"/>
</linearGradient>
</defs>
</svg><view id="sign_in_128" viewBox="128 128 128 128"/><svg width="128" height="128" viewBox="0 0 128 128" fill="none" x="128" y="128" xmlns="http://www.w3.org/2000/svg">
<g filter="url(#adfilter0_ii_3099_107047)">
<path d="M43 42.5C43 31.1782 52.402 22 64 22C75.598 22 85 31.1782 85 42.5C85 53.8218 75.598 63 64 63C52.402 63 43 53.8218 43 42.5Z" fill="url(#adpaint0_linear_3099_107047)"/>
<path d="M40 69C32.6531 69 28 72.9773 28 79.9887C28 87 33.1429 105.629 64 105.995C94.8571 106.361 100 87 100 80C100 73 96.0817 69 88 69H40Z" fill="url(#adpaint1_linear_3099_107047)"/>
</g>
<defs>
<filter id="adfilter0_ii_3099_107047" x="28" y="22" width="72" height="88.0005" filterUnits="userSpaceOnUse" color-interpolation-filters="sRGB">
<feFlood flood-opacity="0" result="BackgroundImageFix"/>
<feBlend mode="normal" in="SourceGraphic" in2="BackgroundImageFix" result="shape"/>
<feColorMatrix in="SourceAlpha" type="matrix" values="0 0 0 0 0 0 0 0 0 0 0 0 0 0 0 0 0 0 127 0" result="hardAlpha"/>
<feOffset dy="3"/>
<feGaussianBlur stdDeviation="3.5"/>
<feComposite in2="hardAlpha" operator="arithmetic" k2="-1" k3="1"/>
<feColorMatrix type="matrix" values="0 0 0 0 0.0666667 0 0 0 0 0.0627451 0 0 0 0 0.0588235 0 0 0 0.2 0"/>
<feBlend mode="normal" in2="shape" result="effect1_innerShadow_3099_107047"/>
<feColorMatrix in="SourceAlpha" type="matrix" values="0 0 0 0 0 0 0 0 0 0 0 0 0 0 0 0 0 0 127 0" result="hardAlpha"/>
<feOffset dy="4"/>
<feGaussianBlur stdDeviation="9.5"/>
<feComposite in2="hardAlpha" operator="arithmetic" k2="-1" k3="1"/>
<feColorMatrix type="matrix" values="0 0 0 0 0.0666667 0 0 0 0 0.0627451 0 0 0 0 0.0588235 0 0 0 0.2 0"/>
<feBlend mode="normal" in2="effect1_innerShadow_3099_107047" result="effect2_innerShadow_3099_107047"/>
</filter>
<linearGradient id="adpaint0_linear_3099_107047" x1="79.4839" y1="22" x2="46.951" y2="110.743" gradientUnits="userSpaceOnUse">
<stop stop-color="#D1D1D1"/>
<stop offset="1" stop-color="#B3B0AD"/>
<stop offset="1" stop-color="#B3B3B3"/>
</linearGradient>
<linearGradient id="adpaint1_linear_3099_107047" x1="79.4839" y1="22" x2="46.951" y2="110.743" gradientUnits="userSpaceOnUse">
<stop stop-color="#D1D1D1"/>
<stop offset="1" stop-color="#B3B0AD"/>
<stop offset="1" stop-color="#B3B3B3"/>
</linearGradient>
</defs>
</svg><view id="warning_128" viewBox="256 0 128 128"/><svg width="128" height="128" viewBox="0 0 128 128" fill="none" x="256" xmlns="http://www.w3.org/2000/svg">
<g filter="url(#aefilter0_ii_3080_48435)">
<path d="M104 64C104 86.0914 86.0914 104 64 104C41.9086 104 24 86.0914 24 64C24 41.9086 41.9086 24 64 24C86.0914 24 104 41.9086 104 64Z" fill="url(#aepaint0_linear_3080_48435)"/>
</g>
<path d="M64 42C61.7909 42 60 43.7909 60 46V66C60 68.2091 61.7909 70 64 70C66.2091 70 68 68.2091 68 66V46C68 43.7909 66.2091 42 64 42Z" fill="#D9D9D9"/>
<path d="M64 42C61.7909 42 60 43.7909 60 46V66C60 68.2091 61.7909 70 64 70C66.2091 70 68 68.2091 68 66V46C68 43.7909 66.2091 42 64 42Z" fill="url(#aepaint1_linear_3080_48435)"/>
<path d="M64 76C61.2386 76 59 78.2386 59 81C59 83.7614 61.2386 86 64 86C66.7614 86 69 83.7614 69 81C69 78.2386 66.7614 76 64 76Z" fill="#D9D9D9"/>
<path d="M64 76C61.2386 76 59 78.2386 59 81C59 83.7614 61.2386 86 64 86C66.7614 86 69 83.7614 69 81C69 78.2386 66.7614 76 64 76Z" fill="url(#aepaint2_linear_3080_48435)"/>
<defs>
<filter id="aefilter0_ii_3080_48435" x="24" y="24" width="80" height="84" filterUnits="userSpaceOnUse" color-interpolation-filters="sRGB">
<feFlood flood-opacity="0" result="BackgroundImageFix"/>
<feBlend mode="normal" in="SourceGraphic" in2="BackgroundImageFix" result="shape"/>
<feColorMatrix in="SourceAlpha" type="matrix" values="0 0 0 0 0 0 0 0 0 0 0 0 0 0 0 0 0 0 127 0" result="hardAlpha"/>
<feOffset dy="3"/>
<feGaussianBlur stdDeviation="3.5"/>
<feComposite in2="hardAlpha" operator="arithmetic" k2="-1" k3="1"/>
<feColorMatrix type="matrix" values="0 0 0 0 0.0666667 0 0 0 0 0.0627451 0 0 0 0 0.0588235 0 0 0 0.2 0"/>
<feBlend mode="normal" in2="shape" result="effect1_innerShadow_3080_48435"/>
<feColorMatrix in="SourceAlpha" type="matrix" values="0 0 0 0 0 0 0 0 0 0 0 0 0 0 0 0 0 0 127 0" result="hardAlpha"/>
<feOffset dy="4"/>
<feGaussianBlur stdDeviation="9.5"/>
<feComposite in2="hardAlpha" operator="arithmetic" k2="-1" k3="1"/>
<feColorMatrix type="matrix" values="0 0 0 0 0.0666667 0 0 0 0 0.0627451 0 0 0 0 0.0588235 0 0 0 0.2 0"/>
<feBlend mode="normal" in2="effect1_innerShadow_3080_48435" result="effect2_innerShadow_3080_48435"/>
</filter>
<linearGradient id="aepaint0_linear_3080_48435" x1="81.2043" y1="24" x2="53.7852" y2="111.26" gradientUnits="userSpaceOnUse">
<stop stop-color="#C6C6C6"/>
<stop offset="0.943117" stop-color="#919191"/>
</linearGradient>
<linearGradient id="aepaint1_linear_3080_48435" x1="64.6058" y1="53.8914" x2="51.3855" y2="73.3585" gradientUnits="userSpaceOnUse">
<stop stop-color="white"/>
<stop offset="1" stop-color="#F1F1F1"/>
</linearGradient>
<linearGradient id="aepaint2_linear_3080_48435" x1="64.6058" y1="53.8914" x2="51.3855" y2="73.3585" gradientUnits="userSpaceOnUse">
<stop stop-color="white"/>
<stop offset="1" stop-color="#F1F1F1"/>
</linearGradient>
</defs>
</svg><view id="workspace_128" viewBox="256 128 128 128"/><svg width="128" height="128" viewBox="0 0 128 128" fill="none" x="256" y="128" xmlns="http://www.w3.org/2000/svg">
<g clip-path="url(#afclip0_3080_48433)">
<g filter="url(#affilter0_dd_3080_48433)">
<path d="M28 46C28 41.5817 31.5817 38 36 38H100C104.418 38 108 41.5817 108 46V86C108 90.4183 104.418 94 100 94H36C31.5817 94 28 90.4183 28 86L28 46Z" fill="url(#afpaint0_linear_3080_48433)"/>
</g>
<path d="M36 38C31.5817 38 28 41.5817 28 46V50H108V46C108 41.5817 104.418 38 100 38H36Z" fill="url(#afpaint1_linear_3080_48433)"/>
<g filter="url(#affilter1_dd_3080_48433)">
<path d="M19.875 80C17.9574 80 15.7092 80 13.9716 80C8.46443 80 4 75.5229 4 70C4 64.4772 8.46443 60 13.9716 60C15.7092 60 18.3409 60.0001 19.875 60.0001C21.4091 59.9999 40.2908 60 42.0284 60C47.5356 60 52 64.4772 52 70C52 75.5229 47.5356 80 42.0284 80C40.2908 80 21.4091 80 19.875 80Z" fill="url(#afpaint2_linear_3080_48433)"/>
</g>
<g filter="url(#affilter2_dd_3080_48433)">
<circle cx="42" cy="70" r="6" fill="url(#afpaint3_linear_3080_48433)"/>
</g>
<g filter="url(#affilter3_dd_3080_48433)">
<circle cx="108" cy="50" r="16" fill="url(#afpaint4_linear_3080_48433)"/>
<path fill-rule="evenodd" clip-rule="evenodd" d="M116.414 44.5858C117.195 45.3668 117.195 46.6332 116.414 47.4142L107.414 56.4142C106.633 57.1953 105.367 57.1953 104.586 56.4142L100.586 52.4142C99.8047 51.6332 99.8047 50.3668 100.586 49.5858C101.367 48.8047 102.633 48.8047 103.414 49.5858L106 52.1716L113.586 44.5858C114.367 43.8047 115.633 43.8047 116.414 44.5858Z" fill="white"/>
</g>
</g>
<defs>
<filter id="affilter0_dd_3080_48433" x="19" y="37" width="92" height="68" filterUnits="userSpaceOnUse" color-interpolation-filters="sRGB">
<feFlood flood-opacity="0" result="BackgroundImageFix"/>
<feColorMatrix in="SourceAlpha" type="matrix" values="0 0 0 0 0 0 0 0 0 0 0 0 0 0 0 0 0 0 127 0" result="hardAlpha"/>
<feOffset dx="-3" dy="5"/>
<feGaussianBlur stdDeviation="3"/>
<feColorMatrix type="matrix" values="0 0 0 0 0 0 0 0 0 0 0 0 0 0 0 0 0 0 0.12 0"/>
<feBlend mode="normal" in2="BackgroundImageFix" result="effect1_dropShadow_3080_48433"/>
<feColorMatrix in="SourceAlpha" type="matrix" values="0 0 0 0 0 0 0 0 0 0 0 0 0 0 0 0 0 0 127 0" result="hardAlpha"/>
<feOffset dx="-1" dy="2"/>
<feGaussianBlur stdDeviation="1.5"/>
<feComposite in2="hardAlpha" operator="out"/>
<feColorMatrix type="matrix" values="0 0 0 0 0 0 0 0 0 0 0 0 0 0 0 0 0 0 0.08 0"/>
<feBlend mode="normal" in2="effect1_dropShadow_3080_48433" result="effect2_dropShadow_3080_48433"/>
<feBlend mode="normal" in="SourceGraphic" in2="effect2_dropShadow_3080_48433" result="shape"/>
</filter>
<filter id="affilter1_dd_3080_48433" x="-2.84507" y="59.2394" width="57.1268" height="29.1268" filterUnits="userSpaceOnUse" color-interpolation-filters="sRGB">
<feFlood flood-opacity="0" result="BackgroundImageFix"/>
<feColorMatrix in="SourceAlpha" type="matrix" values="0 0 0 0 0 0 0 0 0 0 0 0 0 0 0 0 0 0 127 0" result="hardAlpha"/>
<feOffset dx="-2.28169" dy="3.80282"/>
<feGaussianBlur stdDeviation="2.28169"/>
<feColorMatrix type="matrix" values="0 0 0 0 0 0 0 0 0 0 0 0 0 0 0 0 0 0 0.2 0"/>
<feBlend mode="normal" in2="BackgroundImageFix" result="effect1_dropShadow_3080_48433"/>
<feColorMatrix in="SourceAlpha" type="matrix" values="0 0 0 0 0 0 0 0 0 0 0 0 0 0 0 0 0 0 127 0" result="hardAlpha"/>
<feOffset dx="-0.760563" dy="1.52113"/>
<feGaussianBlur stdDeviation="1.14085"/>
<feComposite in2="hardAlpha" operator="out"/>
<feColorMatrix type="matrix" values="0 0 0 0 0 0 0 0 0 0 0 0 0 0 0 0 0 0 0.1 0"/>
<feBlend mode="normal" in2="effect1_dropShadow_3080_48433" result="effect2_dropShadow_3080_48433"/>
<feBlend mode="normal" in="SourceGraphic" in2="effect2_dropShadow_3080_48433" result="shape"/>
</filter>
<filter id="affilter2_dd_3080_48433" x="27" y="63" width="24" height="24" filterUnits="userSpaceOnUse" color-interpolation-filters="sRGB">
<feFlood flood-opacity="0" result="BackgroundImageFix"/>
<feColorMatrix in="SourceAlpha" type="matrix" values="0 0 0 0 0 0 0 0 0 0 0 0 0 0 0 0 0 0 127 0" result="hardAlpha"/>
<feOffset dx="-3" dy="5"/>
<feGaussianBlur stdDeviation="3"/>
<feColorMatrix type="matrix" values="0 0 0 0 0 0 0 0 0 0 0 0 0 0 0 0 0 0 0.2 0"/>
<feBlend mode="normal" in2="BackgroundImageFix" result="effect1_dropShadow_3080_48433"/>
<feColorMatrix in="SourceAlpha" type="matrix" values="0 0 0 0 0 0 0 0 0 0 0 0 0 0 0 0 0 0 127 0" result="hardAlpha"/>
<feOffset dx="-1" dy="2"/>
<feGaussianBlur stdDeviation="1.5"/>
<feComposite in2="hardAlpha" operator="out"/>
<feColorMatrix type="matrix" values="0 0 0 0 0 0 0 0 0 0 0 0 0 0 0 0 0 0 0.1 0"/>
<feBlend mode="normal" in2="effect1_dropShadow_3080_48433" result="effect2_dropShadow_3080_48433"/>
<feBlend mode="normal" in="SourceGraphic" in2="effect2_dropShadow_3080_48433" result="shape"/>
</filter>
<filter id="affilter3_dd_3080_48433" x="83" y="33" width="44" height="44" filterUnits="userSpaceOnUse" color-interpolation-filters="sRGB">
<feFlood flood-opacity="0" result="BackgroundImageFix"/>
<feColorMatrix in="SourceAlpha" type="matrix" values="0 0 0 0 0 0 0 0 0 0 0 0 0 0 0 0 0 0 127 0" result="hardAlpha"/>
<feOffset dx="-3" dy="5"/>
<feGaussianBlur stdDeviation="3"/>
<feColorMatrix type="matrix" values="0 0 0 0 0 0 0 0 0 0 0 0 0 0 0 0 0 0 0.2 0"/>
<feBlend mode="normal" in2="BackgroundImageFix" result="effect1_dropShadow_3080_48433"/>
<feColorMatrix in="SourceAlpha" type="matrix" values="0 0 0 0 0 0 0 0 0 0 0 0 0 0 0 0 0 0 127 0" result="hardAlpha"/>
<feOffset dx="-1" dy="2"/>
<feGaussianBlur stdDeviation="1.5"/>
<feComposite in2="hardAlpha" operator="out"/>
<feColorMatrix type="matrix" values="0 0 0 0 0 0 0 0 0 0 0 0 0 0 0 0 0 0 0.1 0"/>
<feBlend mode="normal" in2="effect1_dropShadow_3080_48433" result="effect2_dropShadow_3080_48433"/>
<feBlend mode="normal" in="SourceGraphic" in2="effect2_dropShadow_3080_48433" result="shape"/>
</filter>
<linearGradient id="afpaint0_linear_3080_48433" x1="108" y1="38" x2="55.3826" y2="113.168" gradientUnits="userSpaceOnUse">
<stop offset="0.108965" stop-color="white"/>
<stop offset="1" stop-color="#E8E6DF"/>
</linearGradient>
<linearGradient id="afpaint1_linear_3080_48433" x1="108" y1="38" x2="104.479" y2="61.4719" gradientUnits="userSpaceOnUse">
<stop offset="0.172443" stop-color="#E8E6DF"/>
<stop offset="1" stop-color="#C4BEB6"/>
</linearGradient>
<linearGradient id="afpaint2_linear_3080_48433" x1="52" y1="60" x2="37.7988" y2="94.0828" gradientUnits="userSpaceOnUse">
<stop offset="0.172092" stop-color="#3DCBFF"/>
<stop offset="1" stop-color="#0078D4"/>
</linearGradient>
<linearGradient id="afpaint3_linear_3080_48433" x1="48" y1="64" x2="36" y2="76" gradientUnits="userSpaceOnUse">
<stop offset="0.108965" stop-color="white"/>
<stop offset="1" stop-color="#E8E6DF"/>
</linearGradient>
<linearGradient id="afpaint4_linear_3080_48433" x1="124" y1="34" x2="92" y2="66" gradientUnits="userSpaceOnUse">
<stop offset="0.193544" stop-color="#A9D355"/>
<stop offset="1" stop-color="#6B9C26"/>
</linearGradient>
<clipPath id="afclip0_3080_48433">
<rect width="128" height="128" fill="white"/>
</clipPath>
</defs>
</svg></svg>