<svg width="196" height="116" viewBox="0 0 196 116" fill="none" xmlns="http://www.w3.org/2000/svg">
<path d="M188.086 2.33594H5.85352C4.74895 2.33594 3.85352 3.23137 3.85352 4.33594V106.677C3.85352 107.782 4.74895 108.677 5.85352 108.677H188.086C189.19 108.677 190.086 107.782 190.086 106.677V4.33594C190.086 3.23137 189.19 2.33594 188.086 2.33594Z" fill="white"/>
<g filter="url(#filter0_dd_1766_132523)">
<path d="M190 2H6C4.89543 2 4 2.89543 4 4V108C4 109.105 4.89543 110 6 110H190C191.105 110 192 109.105 192 108V4C192 2.89543 191.105 2 190 2Z" fill="white"/>
</g>
<path d="M16.7617 20.4219V21.6934H16.041V20.4688C15.1738 20.4688 14.4688 20.3008 13.9258 19.9648V18.6582C14.1641 18.8652 14.4863 19.0391 14.8926 19.1797C15.3027 19.3203 15.6855 19.3906 16.041 19.3906V16.7832C15.1191 16.3574 14.5215 15.9648 14.248 15.6055C13.9785 15.2461 13.8438 14.8203 13.8438 14.3281C13.8438 13.7461 14.0508 13.2441 14.4648 12.8223C14.8789 12.3965 15.4043 12.1406 16.041 12.0547V11H16.7617V12.0312C17.582 12.0547 18.1484 12.1641 18.4609 12.3594V13.6133C18.0352 13.3008 17.4688 13.1328 16.7617 13.1094V15.8105C17.6211 16.209 18.209 16.5957 18.5254 16.9707C18.8418 17.3457 19 17.7695 19 18.2422C19 18.8164 18.8027 19.2969 18.4082 19.6836C18.0137 20.0703 17.4648 20.3164 16.7617 20.4219ZM16.041 15.4766V13.1387C15.748 13.1973 15.5156 13.3223 15.3438 13.5137C15.1719 13.7051 15.0859 13.9375 15.0859 14.2109C15.0859 14.5 15.1562 14.7363 15.2969 14.9199C15.4375 15.1035 15.6855 15.2891 16.041 15.4766ZM16.7617 17.0996V19.3555C17.4258 19.2148 17.7578 18.8691 17.7578 18.3184C17.7578 17.8574 17.4258 17.4512 16.7617 17.0996Z" fill="#252423"/>
<path d="M25.5156 20.4688H20.2422V19.8184C20.2422 19.5527 20.2793 19.3047 20.3535 19.0742C20.4277 18.8398 20.5273 18.6211 20.6523 18.418C20.7773 18.2109 20.9238 18.0176 21.0918 17.8379C21.2598 17.6543 21.4395 17.4785 21.6309 17.3105C21.8223 17.1387 22.0176 16.9746 22.2168 16.8184C22.416 16.6582 22.6113 16.498 22.8027 16.3379C22.9824 16.1855 23.1465 16.0371 23.2949 15.8926C23.4434 15.7441 23.5703 15.5918 23.6758 15.4355C23.7812 15.2793 23.8633 15.1152 23.9219 14.9434C23.9805 14.7676 24.0098 14.5781 24.0098 14.375C24.0098 14.1523 23.9746 13.959 23.9043 13.7949C23.8379 13.627 23.7422 13.4883 23.6172 13.3789C23.4961 13.2656 23.3516 13.1816 23.1836 13.127C23.0156 13.0684 22.832 13.0391 22.6328 13.0391C22.2891 13.0391 21.9395 13.1191 21.584 13.2793C21.2285 13.4395 20.8867 13.6797 20.5586 14V12.6934C20.7305 12.5645 20.9043 12.4531 21.0801 12.3594C21.2559 12.2617 21.4375 12.1816 21.625 12.1191C21.8125 12.0527 22.0098 12.0039 22.2168 11.9727C22.4238 11.9414 22.6445 11.9258 22.8789 11.9258C23.2578 11.9258 23.6016 11.9766 23.9102 12.0781C24.2188 12.1758 24.4824 12.3223 24.7012 12.5176C24.9199 12.709 25.0879 12.9492 25.2051 13.2383C25.3262 13.5273 25.3867 13.8594 25.3867 14.2344C25.3867 14.5742 25.3438 14.8809 25.2578 15.1543C25.1758 15.4238 25.0566 15.6758 24.9004 15.9102C24.748 16.1445 24.5625 16.3672 24.3438 16.5781C24.125 16.7891 23.8809 17.0059 23.6113 17.2285C23.3848 17.4121 23.1582 17.5918 22.9316 17.7676C22.709 17.9395 22.5078 18.1094 22.3281 18.2773C22.1484 18.4414 22.002 18.6074 21.8887 18.7754C21.7793 18.9395 21.7246 19.1055 21.7246 19.2734V19.3027H25.5156V20.4688Z" fill="#252423"/>
<path d="M29.9395 11.8789V20.4688H28.5801V13.543C28.334 13.7188 28.0684 13.8691 27.7832 13.9941C27.502 14.1152 27.1797 14.2227 26.8164 14.3164V13.1562C27.043 13.082 27.2617 13.0039 27.4727 12.9219C27.6836 12.8398 27.8906 12.748 28.0938 12.6465C28.3008 12.5449 28.5078 12.4316 28.7148 12.3066C28.9258 12.1816 29.1426 12.0391 29.3652 11.8789H29.9395Z" fill="#252423"/>
<path d="M33.3203 19.0684L32.4121 21.9922H31.3926L32.0371 19.0684H33.3203Z" fill="#252423"/>
<path d="M37.2988 20.6094C36.4238 20.6094 35.7402 20.252 35.248 19.5371C34.7598 18.8223 34.5156 17.7891 34.5156 16.4375C34.5156 14.9531 34.7715 13.8301 35.2832 13.0684C35.7949 12.3066 36.5332 11.9258 37.498 11.9258C39.3457 11.9258 40.2695 13.3613 40.2695 16.2324C40.2695 17.6543 40.0078 18.7402 39.4844 19.4902C38.9648 20.2363 38.2363 20.6094 37.2988 20.6094ZM37.4336 13.0098C36.4141 13.0098 35.9043 14.1328 35.9043 16.3789C35.9043 18.4805 36.4043 19.5312 37.4043 19.5312C38.3887 19.5312 38.8809 18.4629 38.8809 16.3262C38.8809 14.1152 38.3984 13.0098 37.4336 13.0098Z" fill="#252423"/>
<path d="M43.9668 20.6094C43.0918 20.6094 42.4082 20.252 41.916 19.5371C41.4277 18.8223 41.1836 17.7891 41.1836 16.4375C41.1836 14.9531 41.4395 13.8301 41.9512 13.0684C42.4629 12.3066 43.2012 11.9258 44.166 11.9258C46.0137 11.9258 46.9375 13.3613 46.9375 16.2324C46.9375 17.6543 46.6758 18.7402 46.1523 19.4902C45.6328 20.2363 44.9043 20.6094 43.9668 20.6094ZM44.1016 13.0098C43.082 13.0098 42.5723 14.1328 42.5723 16.3789C42.5723 18.4805 43.0723 19.5312 44.0723 19.5312C45.0566 19.5312 45.5488 18.4629 45.5488 16.3262C45.5488 14.1152 45.0664 13.0098 44.1016 13.0098Z" fill="#252423"/>
<path d="M50.6348 20.6094C49.7598 20.6094 49.0762 20.252 48.584 19.5371C48.0957 18.8223 47.8516 17.7891 47.8516 16.4375C47.8516 14.9531 48.1074 13.8301 48.6191 13.0684C49.1309 12.3066 49.8691 11.9258 50.834 11.9258C52.6816 11.9258 53.6055 13.3613 53.6055 16.2324C53.6055 17.6543 53.3438 18.7402 52.8203 19.4902C52.3008 20.2363 51.5723 20.6094 50.6348 20.6094ZM50.7695 13.0098C49.75 13.0098 49.2402 14.1328 49.2402 16.3789C49.2402 18.4805 49.7402 19.5312 50.7402 19.5312C51.7246 19.5312 52.2168 18.4629 52.2168 16.3262C52.2168 14.1152 51.7344 13.0098 50.7695 13.0098Z" fill="#252423"/>
<path d="M56.2188 19.0684L55.3105 21.9922H54.291L54.9355 19.0684H56.2188Z" fill="#252423"/>
<path d="M60.1973 20.6094C59.3223 20.6094 58.6387 20.252 58.1465 19.5371C57.6582 18.8223 57.4141 17.7891 57.4141 16.4375C57.4141 14.9531 57.6699 13.8301 58.1816 13.0684C58.6934 12.3066 59.4316 11.9258 60.3965 11.9258C62.2441 11.9258 63.168 13.3613 63.168 16.2324C63.168 17.6543 62.9062 18.7402 62.3828 19.4902C61.8633 20.2363 61.1348 20.6094 60.1973 20.6094ZM60.332 13.0098C59.3125 13.0098 58.8027 14.1328 58.8027 16.3789C58.8027 18.4805 59.3027 19.5312 60.3027 19.5312C61.2871 19.5312 61.7793 18.4629 61.7793 16.3262C61.7793 14.1152 61.2969 13.0098 60.332 13.0098Z" fill="#252423"/>
<path d="M66.8652 20.6094C65.9902 20.6094 65.3066 20.252 64.8145 19.5371C64.3262 18.8223 64.082 17.7891 64.082 16.4375C64.082 14.9531 64.3379 13.8301 64.8496 13.0684C65.3613 12.3066 66.0996 11.9258 67.0645 11.9258C68.9121 11.9258 69.8359 13.3613 69.8359 16.2324C69.8359 17.6543 69.5742 18.7402 69.0508 19.4902C68.5312 20.2363 67.8027 20.6094 66.8652 20.6094ZM67 13.0098C65.9805 13.0098 65.4707 14.1328 65.4707 16.3789C65.4707 18.4805 65.9707 19.5312 66.9707 19.5312C67.9551 19.5312 68.4473 18.4629 68.4473 16.3262C68.4473 14.1152 67.9648 13.0098 67 13.0098Z" fill="#252423"/>
<path d="M73.5332 20.6094C72.6582 20.6094 71.9746 20.252 71.4824 19.5371C70.9941 18.8223 70.75 17.7891 70.75 16.4375C70.75 14.9531 71.0059 13.8301 71.5176 13.0684C72.0293 12.3066 72.7676 11.9258 73.7324 11.9258C75.5801 11.9258 76.5039 13.3613 76.5039 16.2324C76.5039 17.6543 76.2422 18.7402 75.7188 19.4902C75.1992 20.2363 74.4707 20.6094 73.5332 20.6094ZM73.668 13.0098C72.6484 13.0098 72.1387 14.1328 72.1387 16.3789C72.1387 18.4805 72.6387 19.5312 73.6387 19.5312C74.623 19.5312 75.1152 18.4629 75.1152 16.3262C75.1152 14.1152 74.6328 13.0098 73.668 13.0098Z" fill="#252423"/>
<path d="M82.9697 12.7715L79.6104 20.9355H78.8633L82.2129 12.7715H82.9697Z" fill="#484644"/>
<path d="M85.9043 19.7344V20.7939H85.3965V19.7734C84.7031 19.7734 84.14 19.6335 83.707 19.3535V18.5039C83.8958 18.6699 84.153 18.8099 84.4785 18.9238C84.8073 19.0345 85.1133 19.0898 85.3965 19.0898V16.5898C84.6803 16.2448 84.2165 15.9274 84.0049 15.6377C83.7933 15.3447 83.6875 14.9997 83.6875 14.6025C83.6875 14.1305 83.8486 13.7236 84.1709 13.3818C84.4932 13.0368 84.9017 12.8301 85.3965 12.7617V11.8828H85.9043V12.7422C86.5423 12.7617 86.9834 12.8529 87.2275 13.0156V13.8457C86.8955 13.5853 86.4544 13.4453 85.9043 13.4258V16.0039C86.5814 16.3262 87.0436 16.6387 87.291 16.9414C87.5417 17.2409 87.667 17.5827 87.667 17.9668C87.667 18.429 87.5107 18.818 87.1982 19.1338C86.889 19.4463 86.4577 19.6465 85.9043 19.7344ZM85.3965 15.7305V13.4551C85.123 13.5104 84.9066 13.6325 84.7471 13.8213C84.5876 14.0068 84.5078 14.2331 84.5078 14.5C84.5078 14.7799 84.5729 15.0094 84.7031 15.1885C84.8333 15.3675 85.0645 15.5482 85.3965 15.7305ZM85.9043 16.8438V19.0508C86.5326 18.9141 86.8467 18.5755 86.8467 18.0352C86.8467 17.5859 86.5326 17.1888 85.9043 16.8438Z" fill="#484644"/>
<path d="M92.9404 17.791C92.9404 18.1068 92.8802 18.3949 92.7598 18.6553C92.6426 18.9124 92.4749 19.1338 92.2568 19.3193C92.042 19.5016 91.7832 19.6432 91.4805 19.7441C91.1777 19.8451 90.8441 19.8955 90.4795 19.8955C89.8122 19.8955 89.2816 19.7686 88.8877 19.5146V18.6553C89.3597 19.0264 89.9001 19.2119 90.5088 19.2119C90.7529 19.2119 90.9727 19.181 91.168 19.1191C91.3665 19.0573 91.5358 18.9678 91.6758 18.8506C91.819 18.7334 91.9281 18.5918 92.0029 18.4258C92.0811 18.2598 92.1201 18.0726 92.1201 17.8643C92.1201 16.9495 91.4691 16.4922 90.167 16.4922H89.5859V15.8135H90.1377C91.29 15.8135 91.8662 15.3838 91.8662 14.5244C91.8662 13.7301 91.4268 13.333 90.5479 13.333C90.0531 13.333 89.5892 13.499 89.1562 13.8311V13.0547C89.6022 12.7878 90.1328 12.6543 90.748 12.6543C91.041 12.6543 91.3063 12.695 91.5439 12.7764C91.7816 12.8577 91.985 12.9717 92.1543 13.1182C92.3236 13.2646 92.4538 13.4404 92.5449 13.6455C92.6393 13.8506 92.6865 14.0768 92.6865 14.3242C92.6865 15.2454 92.221 15.8379 91.29 16.1016V16.1211C91.5277 16.1471 91.7474 16.2057 91.9492 16.2969C92.151 16.3848 92.3252 16.5003 92.4717 16.6436C92.6182 16.7868 92.7321 16.9561 92.8135 17.1514C92.8981 17.3434 92.9404 17.5566 92.9404 17.791Z" fill="#484644"/>
<path d="M98.6582 16.2432C98.6582 16.8291 98.6045 17.3483 98.4971 17.8008C98.3929 18.2533 98.2399 18.6357 98.0381 18.9482C97.8395 19.2575 97.5938 19.4935 97.3008 19.6562C97.0111 19.8158 96.6807 19.8955 96.3096 19.8955C95.958 19.8955 95.6439 19.819 95.3672 19.666C95.0938 19.5098 94.8626 19.2835 94.6738 18.9873C94.485 18.6911 94.3418 18.3281 94.2441 17.8984C94.1465 17.4655 94.0977 16.9707 94.0977 16.4141C94.0977 15.8021 94.1481 15.2617 94.249 14.793C94.3532 14.3242 94.5046 13.932 94.7031 13.6162C94.9017 13.2972 95.1475 13.0579 95.4404 12.8984C95.7367 12.7357 96.0752 12.6543 96.4561 12.6543C97.9242 12.6543 98.6582 13.8506 98.6582 16.2432ZM97.8379 16.3213C97.8379 14.3291 97.3643 13.333 96.417 13.333C95.4176 13.333 94.918 14.347 94.918 16.375C94.918 18.2663 95.4079 19.2119 96.3877 19.2119C97.3545 19.2119 97.8379 18.2484 97.8379 16.3213Z" fill="#484644"/>
<path d="M107.125 19.7734H106.31V15.0762C106.31 14.7051 106.332 14.251 106.378 13.7139H106.358C106.28 14.0296 106.21 14.2559 106.148 14.3926L103.756 19.7734H103.355L100.968 14.4316C100.899 14.2754 100.829 14.0361 100.758 13.7139H100.738C100.764 13.9938 100.777 14.4512 100.777 15.0859V19.7734H99.9863V12.7715H101.07L103.219 17.6543C103.385 18.0286 103.492 18.3086 103.541 18.4941H103.57C103.71 18.11 103.823 17.8236 103.907 17.6348L106.1 12.7715H107.125V19.7734Z" fill="#484644"/>
<path d="M18.0625 34.6953C17.4792 35.013 16.8294 35.1719 16.1133 35.1719C15.2852 35.1719 14.6146 34.9141 14.1016 34.3984C13.5885 33.8828 13.332 33.2005 13.332 32.3516C13.332 31.4844 13.612 30.7734 14.1719 30.2188C14.7344 29.6615 15.4479 29.3828 16.3125 29.3828C16.9349 29.3828 17.4583 29.474 17.8828 29.6562V30.6133C17.4531 30.3268 16.9414 30.1836 16.3477 30.1836C15.7513 30.1836 15.2617 30.3802 14.8789 30.7734C14.4987 31.1667 14.3086 31.6758 14.3086 32.3008C14.3086 32.944 14.4727 33.4505 14.8008 33.8203C15.1289 34.1875 15.5742 34.3711 16.1367 34.3711C16.5221 34.3711 16.8555 34.2969 17.1367 34.1484V32.8164H15.957V32.0352H18.0625V34.6953Z" fill="#252423"/>
<path d="M21.4883 31.9414C21.3789 31.8555 21.2214 31.8125 21.0156 31.8125C20.7474 31.8125 20.5234 31.9336 20.3438 32.1758C20.1641 32.418 20.0742 32.7474 20.0742 33.1641V35.0781H19.168V31.0781H20.0742V31.9023H20.0898C20.1784 31.6211 20.3138 31.4023 20.4961 31.2461C20.681 31.0872 20.8867 31.0078 21.1133 31.0078C21.2773 31.0078 21.4023 31.0326 21.4883 31.082V31.9414Z" fill="#252423"/>
<path d="M23.832 35.1719C23.2148 35.1719 22.7214 34.9857 22.3516 34.6133C21.9844 34.2383 21.8008 33.7422 21.8008 33.125C21.8008 32.4531 21.9922 31.9284 22.375 31.5508C22.7604 31.1732 23.2786 30.9844 23.9297 30.9844C24.5547 30.9844 25.0417 31.168 25.3906 31.5352C25.7396 31.9023 25.9141 32.4115 25.9141 33.0625C25.9141 33.7005 25.7253 34.2122 25.3477 34.5977C24.9727 34.9805 24.4674 35.1719 23.832 35.1719ZM23.875 31.707C23.5208 31.707 23.2409 31.8307 23.0352 32.0781C22.8294 32.3255 22.7266 32.6667 22.7266 33.1016C22.7266 33.5208 22.8307 33.8516 23.0391 34.0938C23.2474 34.3333 23.526 34.4531 23.875 34.4531C24.2318 34.4531 24.5052 34.3346 24.6953 34.0977C24.888 33.8607 24.9844 33.5234 24.9844 33.0859C24.9844 32.6458 24.888 32.306 24.6953 32.0664C24.5052 31.8268 24.2318 31.707 23.875 31.707Z" fill="#252423"/>
<path d="M32.2188 31.0781L31.0391 35.0781H30.0898L29.3633 32.3672C29.3346 32.263 29.3164 32.1458 29.3086 32.0156H29.293C29.2878 32.1042 29.2643 32.2188 29.2227 32.3594L28.4336 35.0781H27.5039L26.3281 31.0781H27.2656L27.9922 33.9609C28.0156 34.0469 28.0312 34.1615 28.0391 34.3047H28.0664C28.0742 34.1953 28.0951 34.0781 28.1289 33.9531L28.9375 31.0781H29.7891L30.5078 33.9727C30.5312 34.0638 30.5482 34.1784 30.5586 34.3164H30.5859C30.5911 34.2201 30.6107 34.1055 30.6445 33.9727L31.3555 31.0781H32.2188Z" fill="#252423"/>
<path d="M39.5273 35.0781H38.4414L37.5469 33.5781C37.4661 33.4401 37.3867 33.3229 37.3086 33.2266C37.2331 33.1276 37.1549 33.0469 37.0742 32.9844C36.9961 32.9219 36.9102 32.8763 36.8164 32.8477C36.7227 32.819 36.6172 32.8047 36.5 32.8047H36.125V35.0781H35.1992V29.4766H37.043C37.306 29.4766 37.5482 29.5078 37.7695 29.5703C37.9909 29.6328 38.1836 29.7279 38.3477 29.8555C38.5117 29.9805 38.6393 30.138 38.7305 30.3281C38.8242 30.5156 38.8711 30.7357 38.8711 30.9883C38.8711 31.1862 38.8411 31.3685 38.7812 31.5352C38.724 31.6992 38.6406 31.8464 38.5312 31.9766C38.4245 32.1042 38.2943 32.2135 38.1406 32.3047C37.9896 32.3958 37.819 32.4661 37.6289 32.5156V32.5312C37.7305 32.5885 37.819 32.6523 37.8945 32.7227C37.9701 32.7904 38.0417 32.8607 38.1094 32.9336C38.1771 33.0065 38.2435 33.0898 38.3086 33.1836C38.3763 33.2747 38.4505 33.3815 38.5312 33.5039L39.5273 35.0781ZM36.125 30.2305V32.0508H36.8984C37.0417 32.0508 37.1732 32.0286 37.293 31.9844C37.4154 31.9401 37.5208 31.8763 37.6094 31.793C37.6979 31.7096 37.7669 31.6081 37.8164 31.4883C37.8659 31.3685 37.8906 31.2344 37.8906 31.0859C37.8906 30.8177 37.806 30.6081 37.6367 30.457C37.4674 30.306 37.224 30.2305 36.9062 30.2305H36.125Z" fill="#252423"/>
<path d="M43.2578 33.3242H40.5312C40.5417 33.694 40.6549 33.9792 40.8711 34.1797C41.0898 34.3802 41.3893 34.4805 41.7695 34.4805C42.1966 34.4805 42.5885 34.3529 42.9453 34.0977V34.8281C42.5807 35.0573 42.099 35.1719 41.5 35.1719C40.9115 35.1719 40.4492 34.9909 40.1133 34.6289C39.7799 34.2643 39.6133 33.7526 39.6133 33.0938C39.6133 32.4714 39.7969 31.9648 40.1641 31.5742C40.5339 31.181 40.9922 30.9844 41.5391 30.9844C42.0859 30.9844 42.5091 31.1602 42.8086 31.5117C43.1081 31.8633 43.2578 32.3516 43.2578 32.9766V33.3242ZM42.3828 32.6836C42.3802 32.3581 42.3034 32.1055 42.1523 31.9258C42.0013 31.7435 41.793 31.6523 41.5273 31.6523C41.2669 31.6523 41.0456 31.7474 40.8633 31.9375C40.6836 32.1276 40.5729 32.3763 40.5312 32.6836H42.3828Z" fill="#252423"/>
<path d="M47.5664 31.0781L46.0195 35.0781H45.0391L43.5664 31.0781H44.5508L45.4375 33.875C45.5052 34.0807 45.5469 34.2604 45.5625 34.4141H45.5742C45.5977 34.2214 45.6341 34.0469 45.6836 33.8906L46.6133 31.0781H47.5664Z" fill="#252423"/>
<path d="M51.5078 33.3242H48.7812C48.7917 33.694 48.9049 33.9792 49.1211 34.1797C49.3398 34.3802 49.6393 34.4805 50.0195 34.4805C50.4466 34.4805 50.8385 34.3529 51.1953 34.0977V34.8281C50.8307 35.0573 50.349 35.1719 49.75 35.1719C49.1615 35.1719 48.6992 34.9909 48.3633 34.6289C48.0299 34.2643 47.8633 33.7526 47.8633 33.0938C47.8633 32.4714 48.0469 31.9648 48.4141 31.5742C48.7839 31.181 49.2422 30.9844 49.7891 30.9844C50.3359 30.9844 50.7591 31.1602 51.0586 31.5117C51.3581 31.8633 51.5078 32.3516 51.5078 32.9766V33.3242ZM50.6328 32.6836C50.6302 32.3581 50.5534 32.1055 50.4023 31.9258C50.2513 31.7435 50.043 31.6523 49.7773 31.6523C49.5169 31.6523 49.2956 31.7474 49.1133 31.9375C48.9336 32.1276 48.8229 32.3763 48.7812 32.6836H50.6328Z" fill="#252423"/>
<path d="M55.9336 35.0781H55.0273V32.8242C55.0273 32.0768 54.763 31.7031 54.2344 31.7031C53.9583 31.7031 53.7305 31.8073 53.5508 32.0156C53.3711 32.2214 53.2812 32.4818 53.2812 32.7969V35.0781H52.3711V31.0781H53.2812V31.7422H53.2969C53.5964 31.237 54.0286 30.9844 54.5938 30.9844C55.0286 30.9844 55.3607 31.1263 55.5898 31.4102C55.819 31.6914 55.9336 32.099 55.9336 32.6328V35.0781Z" fill="#252423"/>
<path d="M60.5312 35.0781H59.625V34.4453H59.6094C59.3464 34.9297 58.9375 35.1719 58.3828 35.1719C57.4375 35.1719 56.9648 34.6042 56.9648 33.4688V31.0781H57.8711V33.375C57.8711 34.0938 58.1484 34.4531 58.7031 34.4531C58.9714 34.4531 59.1914 34.3542 59.3633 34.1562C59.5378 33.9583 59.625 33.6992 59.625 33.3789V31.0781H60.5312V35.0781Z" fill="#252423"/>
<path d="M65.1016 33.3242H62.375C62.3854 33.694 62.4987 33.9792 62.7148 34.1797C62.9336 34.3802 63.2331 34.4805 63.6133 34.4805C64.0404 34.4805 64.4323 34.3529 64.7891 34.0977V34.8281C64.4245 35.0573 63.9427 35.1719 63.3438 35.1719C62.7552 35.1719 62.293 34.9909 61.957 34.6289C61.6237 34.2643 61.457 33.7526 61.457 33.0938C61.457 32.4714 61.6406 31.9648 62.0078 31.5742C62.3776 31.181 62.8359 30.9844 63.3828 30.9844C63.9297 30.9844 64.3529 31.1602 64.6523 31.5117C64.9518 31.8633 65.1016 32.3516 65.1016 32.9766V33.3242ZM64.2266 32.6836C64.224 32.3581 64.1471 32.1055 63.9961 31.9258C63.8451 31.7435 63.6367 31.6523 63.3711 31.6523C63.1107 31.6523 62.8893 31.7474 62.707 31.9375C62.5273 32.1276 62.4167 32.3763 62.375 32.6836H64.2266Z" fill="#252423"/>
<path d="M70.4297 29.8945C70.3073 29.8242 70.168 29.7891 70.0117 29.7891C69.5716 29.7891 69.3516 30.0378 69.3516 30.5352V31.0781H70.2812V31.7891H69.3555V35.0781H68.4492V31.7891H67.7656V31.0781H68.4492V30.4297C68.4492 30.0078 68.5872 29.6758 68.8633 29.4336C69.1393 29.1888 69.4844 29.0664 69.8984 29.0664C70.1224 29.0664 70.2995 29.0911 70.4297 29.1406V29.8945Z" fill="#252423"/>
<path d="M72.6992 35.1719C72.082 35.1719 71.5885 34.9857 71.2188 34.6133C70.8516 34.2383 70.668 33.7422 70.668 33.125C70.668 32.4531 70.8594 31.9284 71.2422 31.5508C71.6276 31.1732 72.1458 30.9844 72.7969 30.9844C73.4219 30.9844 73.9089 31.168 74.2578 31.5352C74.6068 31.9023 74.7812 32.4115 74.7812 33.0625C74.7812 33.7005 74.5924 34.2122 74.2148 34.5977C73.8398 34.9805 73.3346 35.1719 72.6992 35.1719ZM72.7422 31.707C72.388 31.707 72.1081 31.8307 71.9023 32.0781C71.6966 32.3255 71.5938 32.6667 71.5938 33.1016C71.5938 33.5208 71.6979 33.8516 71.9062 34.0938C72.1146 34.3333 72.3932 34.4531 72.7422 34.4531C73.099 34.4531 73.3724 34.3346 73.5625 34.0977C73.7552 33.8607 73.8516 33.5234 73.8516 33.0859C73.8516 32.6458 73.7552 32.306 73.5625 32.0664C73.3724 31.8268 73.099 31.707 72.7422 31.707Z" fill="#252423"/>
<path d="M78.0273 31.9414C77.918 31.8555 77.7604 31.8125 77.5547 31.8125C77.2865 31.8125 77.0625 31.9336 76.8828 32.1758C76.7031 32.418 76.6133 32.7474 76.6133 33.1641V35.0781H75.707V31.0781H76.6133V31.9023H76.6289C76.7174 31.6211 76.8529 31.4023 77.0352 31.2461C77.2201 31.0872 77.4258 31.0078 77.6523 31.0078C77.8164 31.0078 77.9414 31.0326 78.0273 31.082V31.9414Z" fill="#252423"/>
<path d="M84.8789 34.8438C84.457 35.0625 83.9323 35.1719 83.3047 35.1719C82.4922 35.1719 81.8411 34.9154 81.3516 34.4023C80.862 33.8893 80.6172 33.2161 80.6172 32.3828C80.6172 31.487 80.8919 30.763 81.4414 30.2109C81.9935 29.6589 82.6901 29.3828 83.5312 29.3828C84.0729 29.3828 84.5221 29.4596 84.8789 29.6133V30.5352C84.5013 30.3112 84.0846 30.1992 83.6289 30.1992C83.0221 30.1992 82.5299 30.3932 82.1523 30.7812C81.7773 31.1693 81.5898 31.6875 81.5898 32.3359C81.5898 32.9531 81.7656 33.4453 82.1172 33.8125C82.4688 34.1771 82.931 34.3594 83.5039 34.3594C84.0326 34.3594 84.4909 34.2344 84.8789 33.9844V34.8438Z" fill="#252423"/>
<path d="M87.6133 35.1719C86.9961 35.1719 86.5026 34.9857 86.1328 34.6133C85.7656 34.2383 85.582 33.7422 85.582 33.125C85.582 32.4531 85.7734 31.9284 86.1562 31.5508C86.5417 31.1732 87.0599 30.9844 87.7109 30.9844C88.3359 30.9844 88.8229 31.168 89.1719 31.5352C89.5208 31.9023 89.6953 32.4115 89.6953 33.0625C89.6953 33.7005 89.5065 34.2122 89.1289 34.5977C88.7539 34.9805 88.2487 35.1719 87.6133 35.1719ZM87.6562 31.707C87.3021 31.707 87.0221 31.8307 86.8164 32.0781C86.6107 32.3255 86.5078 32.6667 86.5078 33.1016C86.5078 33.5208 86.612 33.8516 86.8203 34.0938C87.0286 34.3333 87.3073 34.4531 87.6562 34.4531C88.013 34.4531 88.2865 34.3346 88.4766 34.0977C88.6693 33.8607 88.7656 33.5234 88.7656 33.0859C88.7656 32.6458 88.6693 32.306 88.4766 32.0664C88.2865 31.8268 88.013 31.707 87.6562 31.707Z" fill="#252423"/>
<path d="M94.1836 35.0781H93.2773V32.8242C93.2773 32.0768 93.013 31.7031 92.4844 31.7031C92.2083 31.7031 91.9805 31.8073 91.8008 32.0156C91.6211 32.2214 91.5312 32.4818 91.5312 32.7969V35.0781H90.6211V31.0781H91.5312V31.7422H91.5469C91.8464 31.237 92.2786 30.9844 92.8438 30.9844C93.2786 30.9844 93.6107 31.1263 93.8398 31.4102C94.069 31.6914 94.1836 32.099 94.1836 32.6328V35.0781Z" fill="#252423"/>
<path d="M97.4023 35.0352C97.2253 35.1237 96.9922 35.168 96.7031 35.168C95.9271 35.168 95.5391 34.7956 95.5391 34.0508V31.7891H94.8711V31.0781H95.5391V30.1523L96.4453 29.8945V31.0781H97.4023V31.7891H96.4453V33.7891C96.4453 34.026 96.4883 34.1953 96.5742 34.2969C96.6602 34.3984 96.8034 34.4492 97.0039 34.4492C97.1576 34.4492 97.2904 34.4049 97.4023 34.3164V35.0352Z" fill="#252423"/>
<path d="M99.9102 35.1719C99.293 35.1719 98.7995 34.9857 98.4297 34.6133C98.0625 34.2383 97.8789 33.7422 97.8789 33.125C97.8789 32.4531 98.0703 31.9284 98.4531 31.5508C98.8385 31.1732 99.3568 30.9844 100.008 30.9844C100.633 30.9844 101.12 31.168 101.469 31.5352C101.818 31.9023 101.992 32.4115 101.992 33.0625C101.992 33.7005 101.803 34.2122 101.426 34.5977C101.051 34.9805 100.546 35.1719 99.9102 35.1719ZM99.9531 31.707C99.599 31.707 99.319 31.8307 99.1133 32.0781C98.9076 32.3255 98.8047 32.6667 98.8047 33.1016C98.8047 33.5208 98.9089 33.8516 99.1172 34.0938C99.3255 34.3333 99.6042 34.4531 99.9531 34.4531C100.31 34.4531 100.583 34.3346 100.773 34.0977C100.966 33.8607 101.062 33.5234 101.062 33.0859C101.062 32.6458 100.966 32.306 100.773 32.0664C100.583 31.8268 100.31 31.707 99.9531 31.707Z" fill="#252423"/>
<path d="M102.668 34.9531V34.1133C103.007 34.3711 103.38 34.5 103.789 34.5C104.336 34.5 104.609 34.3385 104.609 34.0156C104.609 33.9245 104.586 33.8477 104.539 33.7852C104.492 33.7201 104.428 33.6628 104.348 33.6133C104.27 33.5638 104.176 33.5195 104.066 33.4805C103.96 33.4414 103.84 33.3971 103.707 33.3477C103.543 33.2826 103.395 33.2135 103.262 33.1406C103.132 33.0677 103.022 32.9857 102.934 32.8945C102.848 32.8008 102.783 32.6953 102.738 32.5781C102.694 32.4609 102.672 32.3242 102.672 32.168C102.672 31.9753 102.717 31.806 102.809 31.6602C102.9 31.5117 103.022 31.388 103.176 31.2891C103.329 31.1875 103.504 31.112 103.699 31.0625C103.895 31.0104 104.096 30.9844 104.305 30.9844C104.674 30.9844 105.005 31.0404 105.297 31.1523V31.9453C105.016 31.7526 104.693 31.6562 104.328 31.6562C104.214 31.6562 104.109 31.668 104.016 31.6914C103.924 31.7148 103.846 31.7474 103.781 31.7891C103.716 31.8307 103.665 31.8815 103.629 31.9414C103.592 31.9987 103.574 32.0625 103.574 32.1328C103.574 32.2188 103.592 32.2917 103.629 32.3516C103.665 32.4115 103.719 32.4648 103.789 32.5117C103.862 32.556 103.948 32.5977 104.047 32.6367C104.148 32.6732 104.264 32.7135 104.395 32.7578C104.566 32.8281 104.72 32.8997 104.855 32.9727C104.993 33.0456 105.111 33.1289 105.207 33.2227C105.303 33.3138 105.378 33.4206 105.43 33.543C105.482 33.6628 105.508 33.806 105.508 33.9727C105.508 34.1758 105.461 34.3529 105.367 34.5039C105.273 34.6549 105.148 34.7799 104.992 34.8789C104.836 34.9779 104.655 35.0508 104.449 35.0977C104.246 35.1471 104.031 35.1719 103.805 35.1719C103.367 35.1719 102.988 35.099 102.668 34.9531Z" fill="#252423"/>
<path d="M108.145 35.1719C107.527 35.1719 107.034 34.9857 106.664 34.6133C106.297 34.2383 106.113 33.7422 106.113 33.125C106.113 32.4531 106.305 31.9284 106.688 31.5508C107.073 31.1732 107.591 30.9844 108.242 30.9844C108.867 30.9844 109.354 31.168 109.703 31.5352C110.052 31.9023 110.227 32.4115 110.227 33.0625C110.227 33.7005 110.038 34.2122 109.66 34.5977C109.285 34.9805 108.78 35.1719 108.145 35.1719ZM108.188 31.707C107.833 31.707 107.553 31.8307 107.348 32.0781C107.142 32.3255 107.039 32.6667 107.039 33.1016C107.039 33.5208 107.143 33.8516 107.352 34.0938C107.56 34.3333 107.839 34.4531 108.188 34.4531C108.544 34.4531 108.818 34.3346 109.008 34.0977C109.201 33.8607 109.297 33.5234 109.297 33.0859C109.297 32.6458 109.201 32.306 109.008 32.0664C108.818 31.8268 108.544 31.707 108.188 31.707Z" fill="#252423"/>
<path d="M60.5 70.9688L13 86.4688L181 87.4688V44.4688L164.432 50.0471L143 64.4688H122L96 72.9688L60.5 70.9688Z" fill="#DFF6DD"/>
<path fill-rule="evenodd" clip-rule="evenodd" d="M181.475 43.9218C181.561 44.1841 181.419 44.4667 181.156 44.553L164.658 49.9789L143.05 65.0105H122.097L96.2353 73.4156L60.4485 71.1453L13.1549 86.5534C12.8923 86.639 12.6101 86.4955 12.5246 86.2329C12.4391 85.9703 12.5826 85.6882 12.8451 85.6026L60.3207 70.1352L96.1079 72.4055L121.939 64.0105H142.736L164.206 49.0746L180.844 43.603C181.106 43.5168 181.389 43.6595 181.475 43.9218Z" fill="#107C10"/>
<path d="M13.5508 98.4668V94.2656H14.7109C16.1914 94.2656 16.9316 94.9482 16.9316 96.3135C16.9316 96.9619 16.7256 97.4834 16.3135 97.8779C15.9033 98.2705 15.3535 98.4668 14.6641 98.4668H13.5508ZM14.043 94.7109V98.0215H14.6699C15.2207 98.0215 15.6494 97.874 15.9561 97.5791C16.2627 97.2842 16.416 96.8662 16.416 96.3252C16.416 95.249 15.8438 94.7109 14.6992 94.7109H14.043Z" fill="#252423"/>
<path d="M20.1191 98.4668H19.6387V97.9922H19.627C19.4277 98.3555 19.1191 98.5371 18.7012 98.5371C17.9863 98.5371 17.6289 98.1113 17.6289 97.2598V95.4668H18.1064V97.1836C18.1064 97.8164 18.3486 98.1328 18.833 98.1328C19.0674 98.1328 19.2598 98.0469 19.4102 97.875C19.5625 97.7012 19.6387 97.4746 19.6387 97.1953V95.4668H20.1191V98.4668Z" fill="#252423"/>
<path d="M23.5029 97.0869H21.3848C21.3926 97.4209 21.4824 97.6787 21.6543 97.8604C21.8262 98.042 22.0625 98.1328 22.3633 98.1328C22.7012 98.1328 23.0117 98.0215 23.2949 97.7988V98.25C23.0312 98.4414 22.6826 98.5371 22.249 98.5371C21.8252 98.5371 21.4922 98.4014 21.25 98.1299C21.0078 97.8564 20.8867 97.4727 20.8867 96.9785C20.8867 96.5117 21.0186 96.1318 21.2822 95.8389C21.5479 95.5439 21.877 95.3965 22.2695 95.3965C22.6621 95.3965 22.9658 95.5234 23.1807 95.7773C23.3955 96.0312 23.5029 96.3838 23.5029 96.835V97.0869ZM23.0107 96.6797C23.0088 96.4023 22.9414 96.1865 22.8086 96.0322C22.6777 95.8779 22.4951 95.8008 22.2607 95.8008C22.0342 95.8008 21.8418 95.8818 21.6836 96.0439C21.5254 96.2061 21.4277 96.418 21.3906 96.6797H23.0107Z" fill="#252423"/>
<path d="M27.5137 98.4668H27.0332V94.8369C26.9961 94.874 26.9414 94.917 26.8691 94.9658C26.7988 95.0127 26.7188 95.0596 26.6289 95.1064C26.541 95.1533 26.4473 95.1973 26.3477 95.2383C26.25 95.2793 26.1543 95.3115 26.0605 95.335V94.8486C26.166 94.8193 26.2773 94.7803 26.3945 94.7314C26.5137 94.6807 26.6299 94.625 26.7432 94.5645C26.8584 94.502 26.9668 94.4375 27.0684 94.3711C27.1699 94.3027 27.2578 94.2363 27.332 94.1719H27.5137V98.4668Z" fill="#252423"/>
<path d="M30.8887 95.3672C30.8887 95.2383 30.8682 95.126 30.8271 95.0303C30.7881 94.9346 30.7334 94.8555 30.6631 94.793C30.5947 94.7285 30.5137 94.6807 30.4199 94.6494C30.3262 94.6182 30.2246 94.6025 30.1152 94.6025C30.0215 94.6025 29.9297 94.6152 29.8398 94.6406C29.75 94.666 29.6621 94.7012 29.5762 94.7461C29.4922 94.791 29.4102 94.8447 29.3301 94.9072C29.252 94.9697 29.1787 95.0391 29.1104 95.1152V94.5996C29.2451 94.4688 29.3955 94.3691 29.5615 94.3008C29.7295 94.2305 29.9336 94.1953 30.1738 94.1953C30.3457 94.1953 30.5049 94.2207 30.6514 94.2715C30.7979 94.3203 30.9248 94.3926 31.0322 94.4883C31.1396 94.584 31.2236 94.7021 31.2842 94.8428C31.3467 94.9834 31.3779 95.1445 31.3779 95.3262C31.3779 95.4922 31.3584 95.6426 31.3193 95.7773C31.2822 95.9121 31.2246 96.0391 31.1465 96.1582C31.0703 96.2773 30.9736 96.3916 30.8564 96.501C30.7393 96.6104 30.6016 96.7217 30.4434 96.835C30.2461 96.9756 30.083 97.0957 29.9541 97.1953C29.8271 97.2949 29.7256 97.3887 29.6494 97.4766C29.5752 97.5625 29.5225 97.6494 29.4912 97.7373C29.4619 97.8232 29.4473 97.9229 29.4473 98.0361H31.5391V98.4668H28.9463V98.2588C28.9463 98.0791 28.9658 97.9209 29.0049 97.7842C29.0439 97.6475 29.1084 97.5176 29.1982 97.3945C29.2881 97.2715 29.4053 97.1484 29.5498 97.0254C29.6963 96.9023 29.875 96.7637 30.0859 96.6094C30.2383 96.5 30.3652 96.3955 30.4668 96.2959C30.5703 96.1963 30.6533 96.0967 30.7158 95.9971C30.7783 95.8975 30.8223 95.7969 30.8477 95.6953C30.875 95.5918 30.8887 95.4824 30.8887 95.3672Z" fill="#252423"/>
<path d="M34.2432 94.2656L32.2275 99.1641H31.7793L33.7891 94.2656H34.2432Z" fill="#252423"/>
<path d="M37.1875 96.3486C37.1875 96.7002 37.1553 97.0117 37.0908 97.2832C37.0283 97.5547 36.9365 97.7842 36.8154 97.9717C36.6963 98.1572 36.5488 98.2988 36.373 98.3965C36.1992 98.4922 36.001 98.54 35.7783 98.54C35.5674 98.54 35.3789 98.4941 35.2129 98.4023C35.0488 98.3086 34.9102 98.1729 34.7969 97.9951C34.6836 97.8174 34.5977 97.5996 34.5391 97.3418C34.4805 97.082 34.4512 96.7852 34.4512 96.4512C34.4512 96.084 34.4814 95.7598 34.542 95.4785C34.6045 95.1973 34.6953 94.9619 34.8145 94.7725C34.9336 94.5811 35.0811 94.4375 35.2568 94.3418C35.4346 94.2441 35.6377 94.1953 35.8662 94.1953C36.7471 94.1953 37.1875 94.9131 37.1875 96.3486ZM36.6953 96.3955C36.6953 95.2002 36.4111 94.6025 35.8428 94.6025C35.2432 94.6025 34.9434 95.2109 34.9434 96.4277C34.9434 97.5625 35.2373 98.1299 35.8252 98.1299C36.4053 98.1299 36.6953 97.5518 36.6953 96.3955Z" fill="#252423"/>
<path d="M39.5547 98.4668H39.0742V94.8369C39.0371 94.874 38.9824 94.917 38.9102 94.9658C38.8398 95.0127 38.7598 95.0596 38.6699 95.1064C38.582 95.1533 38.4883 95.1973 38.3887 95.2383C38.291 95.2793 38.1953 95.3115 38.1016 95.335V94.8486C38.207 94.8193 38.3184 94.7803 38.4355 94.7314C38.5547 94.6807 38.6709 94.625 38.7842 94.5645C38.8994 94.502 39.0078 94.4375 39.1094 94.3711C39.2109 94.3027 39.2988 94.2363 39.373 94.1719H39.5547V98.4668Z" fill="#252423"/>
<path d="M43.0498 94.2656L41.0342 99.1641H40.5859L42.5957 94.2656H43.0498Z" fill="#252423"/>
<path d="M45.2676 95.3672C45.2676 95.2383 45.2471 95.126 45.2061 95.0303C45.167 94.9346 45.1123 94.8555 45.042 94.793C44.9736 94.7285 44.8926 94.6807 44.7988 94.6494C44.7051 94.6182 44.6035 94.6025 44.4941 94.6025C44.4004 94.6025 44.3086 94.6152 44.2188 94.6406C44.1289 94.666 44.041 94.7012 43.9551 94.7461C43.8711 94.791 43.7891 94.8447 43.709 94.9072C43.6309 94.9697 43.5576 95.0391 43.4893 95.1152V94.5996C43.624 94.4688 43.7744 94.3691 43.9404 94.3008C44.1084 94.2305 44.3125 94.1953 44.5527 94.1953C44.7246 94.1953 44.8838 94.2207 45.0303 94.2715C45.1768 94.3203 45.3037 94.3926 45.4111 94.4883C45.5186 94.584 45.6025 94.7021 45.6631 94.8428C45.7256 94.9834 45.7568 95.1445 45.7568 95.3262C45.7568 95.4922 45.7373 95.6426 45.6982 95.7773C45.6611 95.9121 45.6035 96.0391 45.5254 96.1582C45.4492 96.2773 45.3525 96.3916 45.2354 96.501C45.1182 96.6104 44.9805 96.7217 44.8223 96.835C44.625 96.9756 44.4619 97.0957 44.333 97.1953C44.2061 97.2949 44.1045 97.3887 44.0283 97.4766C43.9541 97.5625 43.9014 97.6494 43.8701 97.7373C43.8408 97.8232 43.8262 97.9229 43.8262 98.0361H45.918V98.4668H43.3252V98.2588C43.3252 98.0791 43.3447 97.9209 43.3838 97.7842C43.4229 97.6475 43.4873 97.5176 43.5771 97.3945C43.667 97.2715 43.7842 97.1484 43.9287 97.0254C44.0752 96.9023 44.2539 96.7637 44.4648 96.6094C44.6172 96.5 44.7441 96.3955 44.8457 96.2959C44.9492 96.1963 45.0322 96.0967 45.0947 95.9971C45.1572 95.8975 45.2012 95.7969 45.2266 95.6953C45.2539 95.5918 45.2676 95.4824 45.2676 95.3672Z" fill="#252423"/>
<path d="M49.2285 96.3486C49.2285 96.7002 49.1963 97.0117 49.1318 97.2832C49.0693 97.5547 48.9775 97.7842 48.8564 97.9717C48.7373 98.1572 48.5898 98.2988 48.4141 98.3965C48.2402 98.4922 48.042 98.54 47.8193 98.54C47.6084 98.54 47.4199 98.4941 47.2539 98.4023C47.0898 98.3086 46.9512 98.1729 46.8379 97.9951C46.7246 97.8174 46.6387 97.5996 46.5801 97.3418C46.5215 97.082 46.4922 96.7852 46.4922 96.4512C46.4922 96.084 46.5225 95.7598 46.583 95.4785C46.6455 95.1973 46.7363 94.9619 46.8555 94.7725C46.9746 94.5811 47.1221 94.4375 47.2979 94.3418C47.4756 94.2441 47.6787 94.1953 47.9072 94.1953C48.7881 94.1953 49.2285 94.9131 49.2285 96.3486ZM48.7363 96.3955C48.7363 95.2002 48.4521 94.6025 47.8838 94.6025C47.2842 94.6025 46.9844 95.2109 46.9844 96.4277C46.9844 97.5625 47.2783 98.1299 47.8662 98.1299C48.4463 98.1299 48.7363 97.5518 48.7363 96.3955Z" fill="#252423"/>
<path d="M174.5 91H153.5C150.462 91 148 93.4624 148 96.5C148 99.5376 150.462 102 153.5 102H174.5C177.538 102 180 99.5376 180 96.5C180 93.4624 177.538 91 174.5 91Z" fill="#DFF6DD"/>
<path d="M153.997 98.5391C153.401 98.5391 152.924 98.3428 152.564 97.9502C152.207 97.5576 152.028 97.0469 152.028 96.418C152.028 95.7422 152.211 95.2031 152.576 94.8008C152.941 94.3984 153.438 94.1973 154.067 94.1973C154.647 94.1973 155.114 94.3926 155.468 94.7832C155.823 95.1738 156.001 95.6846 156.001 96.3154C156.001 97.001 155.819 97.543 155.456 97.9414C155.093 98.3398 154.606 98.5391 153.997 98.5391ZM154.032 94.6426C153.591 94.6426 153.232 94.8018 152.957 95.1201C152.682 95.4385 152.544 95.8564 152.544 96.374C152.544 96.8916 152.678 97.3086 152.945 97.625C153.215 97.9395 153.565 98.0967 153.997 98.0967C154.458 98.0967 154.821 97.9463 155.087 97.6455C155.353 97.3447 155.485 96.9238 155.485 96.3828C155.485 95.8281 155.356 95.3994 155.099 95.0967C154.841 94.7939 154.485 94.6426 154.032 94.6426Z" fill="#252423"/>
<path d="M159.253 98.4688H158.772V96.7578C158.772 96.1211 158.54 95.8027 158.075 95.8027C157.835 95.8027 157.636 95.8936 157.478 96.0752C157.321 96.2549 157.243 96.4824 157.243 96.7578V98.4688H156.763V95.4688H157.243V95.9668H157.255C157.481 95.5879 157.81 95.3984 158.239 95.3984C158.567 95.3984 158.818 95.5049 158.992 95.7178C159.166 95.9287 159.253 96.2344 159.253 96.6348V98.4688Z" fill="#252423"/>
<path d="M163.199 98.4395C163.086 98.502 162.937 98.5332 162.751 98.5332C162.226 98.5332 161.963 98.2402 161.963 97.6543V95.8789H161.447V95.4688H161.963V94.7363L162.443 94.5811V95.4688H163.199V95.8789H162.443V97.5693C162.443 97.7705 162.478 97.9141 162.546 98C162.614 98.0859 162.728 98.1289 162.886 98.1289C163.007 98.1289 163.111 98.0957 163.199 98.0293V98.4395Z" fill="#252423"/>
<path d="M165.405 95.9551C165.321 95.8906 165.2 95.8584 165.042 95.8584C164.837 95.8584 164.665 95.9551 164.526 96.1484C164.39 96.3418 164.321 96.6055 164.321 96.9395V98.4688H163.841V95.4688H164.321V96.0869H164.333C164.401 95.876 164.506 95.7119 164.646 95.5947C164.787 95.4756 164.944 95.416 165.118 95.416C165.243 95.416 165.339 95.4297 165.405 95.457V95.9551Z" fill="#252423"/>
<path d="M168.074 98.4688H167.594V98H167.582C167.373 98.3594 167.065 98.5391 166.659 98.5391C166.36 98.5391 166.126 98.46 165.956 98.3018C165.788 98.1436 165.704 97.9336 165.704 97.6719C165.704 97.1113 166.034 96.7852 166.694 96.6934L167.594 96.5674C167.594 96.0576 167.388 95.8027 166.976 95.8027C166.614 95.8027 166.288 95.9258 165.997 96.1719V95.6797C166.292 95.4922 166.632 95.3984 167.017 95.3984C167.722 95.3984 168.074 95.7715 168.074 96.5176V98.4688ZM167.594 96.9512L166.87 97.0508C166.647 97.082 166.479 97.1377 166.366 97.2178C166.253 97.2959 166.196 97.4355 166.196 97.6367C166.196 97.7832 166.248 97.9033 166.352 97.9971C166.457 98.0889 166.597 98.1348 166.771 98.1348C167.009 98.1348 167.205 98.0518 167.359 97.8857C167.516 97.7178 167.594 97.5059 167.594 97.25V96.9512Z" fill="#252423"/>
<path d="M171.024 98.3311C170.794 98.4697 170.521 98.5391 170.204 98.5391C169.776 98.5391 169.431 98.4004 169.167 98.123C168.905 97.8438 168.774 97.4824 168.774 97.0391C168.774 96.5449 168.916 96.1484 169.199 95.8496C169.482 95.5488 169.86 95.3984 170.333 95.3984C170.597 95.3984 170.829 95.4473 171.03 95.5449V96.0371C170.808 95.8809 170.569 95.8027 170.315 95.8027C170.009 95.8027 169.757 95.9131 169.56 96.1338C169.364 96.3525 169.267 96.6406 169.267 96.998C169.267 97.3496 169.358 97.627 169.542 97.8301C169.728 98.0332 169.976 98.1348 170.286 98.1348C170.548 98.1348 170.794 98.0479 171.024 97.874V98.3311Z" fill="#252423"/>
<path d="M174.241 98.4688H173.567L172.243 97.0273H172.231V98.4688H171.751V94.0273H172.231V96.8428H172.243L173.503 95.4688H174.133L172.741 96.916L174.241 98.4688Z" fill="#252423"/>
<defs>
<filter id="filter0_dd_1766_132523" x="0" y="0" width="196" height="116" filterUnits="userSpaceOnUse" color-interpolation-filters="sRGB">
<feFlood flood-opacity="0" result="BackgroundImageFix"/>
<feColorMatrix in="SourceAlpha" type="matrix" values="0 0 0 0 0 0 0 0 0 0 0 0 0 0 0 0 0 0 127 0" result="hardAlpha"/>
<feOffset/>
<feGaussianBlur stdDeviation="0.5"/>
<feColorMatrix type="matrix" values="0 0 0 0 0 0 0 0 0 0 0 0 0 0 0 0 0 0 0.18 0"/>
<feBlend mode="normal" in2="BackgroundImageFix" result="effect1_dropShadow_1766_132523"/>
<feColorMatrix in="SourceAlpha" type="matrix" values="0 0 0 0 0 0 0 0 0 0 0 0 0 0 0 0 0 0 127 0" result="hardAlpha"/>
<feOffset dy="2"/>
<feGaussianBlur stdDeviation="2"/>
<feColorMatrix type="matrix" values="0 0 0 0 0 0 0 0 0 0 0 0 0 0 0 0 0 0 0.12 0"/>
<feBlend mode="normal" in2="effect1_dropShadow_1766_132523" result="effect2_dropShadow_1766_132523"/>
<feBlend mode="normal" in="SourceGraphic" in2="effect2_dropShadow_1766_132523" result="shape"/>
</filter>
</defs>
</svg>
