<?xml version="1.0" encoding="utf-8"?><svg xmlns="http://www.w3.org/2000/svg" xmlns:xlink="http://www.w3.org/1999/xlink"><symbol viewBox="0 0 20 20" fill="none" id="cancelled_20_filled" xmlns="http://www.w3.org/2000/svg">
<path d="M18 10C18 14.4183 14.4183 18 10 18C5.58172 18 2 14.4183 2 10C2 5.58172 5.58172 2 10 2C14.4183 2 18 5.58172 18 10ZM16.5 10C16.5 8.47531 15.975 7.07323 15.096 5.96465L5.96465 15.096C7.07323 15.975 8.47531 16.5 10 16.5C13.5899 16.5 16.5 13.5899 16.5 10ZM4.90399 14.0353L14.0353 4.90399C12.9268 4.02496 11.5247 3.5 10 3.5C6.41015 3.5 3.5 6.41015 3.5 10C3.5 11.5247 4.02496 12.9268 4.90399 14.0353Z" fill="#616161"/>
</symbol><symbol viewBox="0 0 20 20" fill="none" id="completed_20_filled" xmlns="http://www.w3.org/2000/svg">
<path d="M10 2C14.4183 2 18 5.58172 18 10C18 14.4183 14.4183 18 10 18C5.58172 18 2 14.4183 2 10C2 5.58172 5.58172 2 10 2ZM13.3584 7.64645C13.1849 7.47288 12.9154 7.4536 12.7206 7.58859L12.6513 7.64645L9 11.298L7.35355 9.65131L7.28431 9.59346C7.08944 9.45846 6.82001 9.47775 6.64645 9.65131C6.47288 9.82488 6.4536 10.0943 6.58859 10.2892L6.64645 10.3584L8.64645 12.3584L8.71569 12.4163C8.8862 12.5344 9.1138 12.5344 9.28431 12.4163L9.35355 12.3584L13.3584 8.35355L13.4163 8.28431C13.5513 8.08944 13.532 7.82001 13.3584 7.64645Z" fill="#117865"/>
</symbol><symbol viewBox="0 0 20 20" fill="none" id="created_20_filled" xmlns="http://www.w3.org/2000/svg">
<path d="M18 10C18 5.58172 14.4183 2 10 2C5.58172 2 2 5.58172 2 10C2 14.4183 5.58172 18 10 18C14.4183 18 18 14.4183 18 10ZM10.5 6.49951V8.79286L12.1216 7.17127C12.2952 6.99771 12.5646 6.97842 12.7594 7.11342L12.8287 7.17127C13.0023 7.34484 13.0215 7.61426 12.8865 7.80913L12.8287 7.87838L11.2076 9.49951H13.5C13.7455 9.49951 13.9496 9.67639 13.9919 9.90964L14 9.99951C14 10.245 13.8231 10.4491 13.5899 10.4915L13.5 10.4995H11.2072L12.8287 12.121C13.0023 12.2946 13.0215 12.564 12.8865 12.7589L12.8287 12.8281C12.6551 13.0017 12.3857 13.021 12.1908 12.886L12.1216 12.8281L10.5 11.2065V13.4995C10.5 13.745 10.3231 13.9491 10.0899 13.9915L10 13.9995C9.75454 13.9995 9.55039 13.8226 9.50806 13.5894L9.5 13.4995V11.2071L7.87894 12.8281C7.70538 13.0017 7.43595 13.021 7.24109 12.886L7.17184 12.8281C6.99827 12.6546 6.97899 12.3851 7.11398 12.1903L7.17184 12.121L8.79335 10.4995H6.5C6.25454 10.4995 6.05039 10.3226 6.00806 10.0894L6 9.99951C6 9.75405 6.17688 9.5499 6.41012 9.50757L6.5 9.49951H8.79297L7.17184 7.87838C6.99827 7.70481 6.97899 7.43539 7.11398 7.24052L7.17184 7.17127C7.3454 6.99771 7.61483 6.97842 7.8097 7.11342L7.87894 7.17127L9.5 8.79233V6.49951C9.5 6.25405 9.67688 6.0499 9.91012 6.00757L10 5.99951C10.2455 5.99951 10.4496 6.17639 10.4919 6.40964L10.5 6.49951Z" fill="#0E700E"/>
</symbol><symbol viewBox="0 0 24 24" fill="none" id="equal_20_filled" xmlns="http://www.w3.org/2000/svg">
  <path d="M22 12C22 6.47715 17.5228 2 12 2C6.47715 2 2 6.47715 2 12C2 17.5228 6.47715 22 12 22C17.5228 22 22 17.5228 22 12ZM16.2522 10.5H7.75277C7.33856 10.5 7.00277 10.1642 7.00277 9.75C7.00277 9.33579 7.33856 9 7.75277 9L16.2522 9C16.6664 9 17.0022 9.33579 17.0022 9.75C17.0022 10.1642 16.6664 10.5 16.2522 10.5ZM16.2522 15H7.75277C7.33856 15 7.00277 14.6642 7.00277 14.25C7.00277 13.8358 7.33856 13.5 7.75277 13.5H16.2522C16.6664 13.5 17.0022 13.8358 17.0022 14.25C17.0022 14.6642 16.6664 15 16.2522 15Z" fill="#424242"/>
</symbol><symbol viewBox="0 0 20 20" fill="none" id="failed_20_filled" xmlns="http://www.w3.org/2000/svg">
<path d="M10 2C14.4183 2 18 5.58172 18 10C18 14.4183 14.4183 18 10 18C5.58172 18 2 14.4183 2 10C2 5.58172 5.58172 2 10 2ZM7.80943 7.11372C7.61456 6.97872 7.34514 6.99801 7.17157 7.17157L7.11372 7.24082C6.97872 7.43569 6.99801 7.70511 7.17157 7.87868L9.29289 10L7.17157 12.1213L7.11372 12.1906C6.97872 12.3854 6.99801 12.6549 7.17157 12.8284L7.24082 12.8863C7.43569 13.0213 7.70511 13.002 7.87868 12.8284L10 10.7071L12.1213 12.8284L12.1906 12.8863C12.3854 13.0213 12.6549 13.002 12.8284 12.8284L12.8863 12.7592C13.0213 12.5643 13.002 12.2949 12.8284 12.1213L10.7071 10L12.8284 7.87868L12.8863 7.80943C13.0213 7.61456 13.002 7.34514 12.8284 7.17157L12.7592 7.11372C12.5643 6.97872 12.2949 6.99801 12.1213 7.17157L10 9.29289L7.87868 7.17157L7.80943 7.11372Z" fill="#BC2F32"/>
</symbol><symbol viewBox="0 0 20 20" fill="none" id="inprogress_20_filled" xmlns="http://www.w3.org/2000/svg">
<path d="M10 2C14.4183 2 18 5.58172 18 10C18 14.4183 14.4183 18 10 18C5.58172 18 2 14.4183 2 10C2 5.58172 5.58172 2 10 2ZM9.64645 13.8536C9.74021 13.9473 9.86739 14 10 14C11.0609 14 12.0783 13.5786 12.8284 12.8284C13.5786 12.0783 14 11.0609 14 10C14 8.93913 13.5786 7.92172 12.8284 7.17157C12.0783 6.42143 11.0609 6 10 6C9.86739 6 9.74021 6.05268 9.64645 6.14645C9.55268 6.24021 9.5 6.36739 9.5 6.5C9.5 6.63261 9.55268 6.75979 9.64645 6.85355C9.74021 6.94732 9.86739 7 10 7C10.7956 7 11.5587 7.31607 12.1213 7.87868C12.6839 8.44129 13 9.20435 13 10C13 10.7956 12.6839 11.5587 12.1213 12.1213C11.5587 12.6839 10.7956 13 10 13C9.86739 13 9.74021 13.0527 9.64645 13.1464C9.55268 13.2402 9.5 13.3674 9.5 13.5C9.5 13.6326 9.55268 13.7598 9.64645 13.8536ZM7.4367 13.0708C7.52637 13.1461 7.63962 13.1875 7.7567 13.1878V13.1908C7.85959 13.1912 7.96009 13.1598 8.04448 13.1009C8.12888 13.0421 8.19306 12.9586 8.22828 12.8619C8.26349 12.7652 8.26802 12.6601 8.24125 12.5607C8.21448 12.4614 8.15772 12.3727 8.0787 12.3068C7.63685 11.9377 7.31053 11.4493 7.1387 10.8998C7.119 10.8372 7.08715 10.779 7.04498 10.7287C7.00281 10.6783 6.95114 10.6368 6.89292 10.6064C6.8347 10.5761 6.77106 10.5575 6.70565 10.5517C6.64024 10.5459 6.57434 10.5531 6.5117 10.5728C6.44905 10.5925 6.39091 10.6243 6.34057 10.6665C6.29024 10.7087 6.2487 10.7603 6.21834 10.8186C6.18797 10.8768 6.16937 10.9404 6.1636 11.0058C6.15783 11.0712 6.165 11.1372 6.1847 11.1998C6.41466 11.9303 6.84914 12.5796 7.4367 13.0708ZM6.6507 9.48679C6.7579 9.48668 6.86223 9.45212 6.9483 9.3882C7.03436 9.32428 7.09761 9.23439 7.1287 9.13179L7.1637 9.02379C7.33814 8.51638 7.64548 8.06503 8.0537 7.71679C8.10602 7.67499 8.14941 7.62309 8.18129 7.56419C8.21318 7.50529 8.2329 7.44059 8.2393 7.37392C8.24569 7.30725 8.23863 7.23998 8.21853 7.17609C8.19842 7.1122 8.16569 7.05301 8.12227 7.00201C8.07885 6.95102 8.02562 6.90927 7.96576 6.87924C7.90589 6.84922 7.8406 6.83152 7.77377 6.82721C7.70693 6.8229 7.63991 6.83206 7.57668 6.85415C7.51345 6.87624 7.45531 6.9108 7.4057 6.95579C6.86051 7.42011 6.45019 8.02247 6.2177 8.69979L6.1717 8.84279C6.13341 8.9697 6.14709 9.10661 6.20973 9.22344C6.27236 9.34026 6.37881 9.42743 6.5057 9.46579C6.55279 9.47961 6.60161 9.48669 6.6507 9.48679Z" fill="#0F6CBD"/>
</symbol><symbol viewBox="0 0 20 20" fill="none" id="new_20_filled" xmlns="http://www.w3.org/2000/svg">
<path d="M18 10C18 14.4183 14.4183 18 10 18C5.58172 18 2 14.4183 2 10C2 5.58172 5.58172 2 10 2C14.4183 2 18 5.58172 18 10ZM6 10C6 10.2761 6.22386 10.5 6.5 10.5H9.5V13.5C9.5 13.7761 9.72386 14 10 14C10.2761 14 10.5 13.7761 10.5 13.5V10.5H13.5C13.7761 10.5 14 10.2761 14 10C14 9.72386 13.7761 9.5 13.5 9.5H10.5V6.5C10.5 6.22386 10.2761 6 10 6C9.72386 6 9.5 6.22386 9.5 6.5V9.5H6.5C6.22386 9.5 6 9.72386 6 10Z" fill="#0E700E"/>
</symbol><symbol viewBox="0 0 20 20" fill="none" id="nostatus_20_filled" xmlns="http://www.w3.org/2000/svg">
<path d="M10 2C5.58172 2 2 5.58172 2 10C2 14.4183 5.58172 18 10 18C14.4183 18 18 14.4183 18 10C18 5.58172 14.4183 2 10 2Z" fill="#616161"/>
</symbol><symbol viewBox="0 0 20 20" fill="none" id="not_equal_20_filled" xmlns="http://www.w3.org/2000/svg">
<path d="M18 10C18 5.58172 14.4183 2 10 2C5.58172 2 2 5.58172 2 10C2 14.4183 5.58172 18 10 18C14.4183 18 18 14.4183 18 10ZM6.15627 6.15621C6.35153 5.96095 6.66811 5.96095 6.86338 6.15621L13.8673 13.16C14.0625 13.3553 14.0625 13.6718 13.8673 13.8671C13.672 14.0624 13.3554 14.0624 13.1602 13.8671L11.2929 11.9998H6C5.72386 11.9998 5.5 11.7759 5.5 11.4998C5.5 11.2236 5.72386 10.9998 6 10.9998H10.2929L8.29289 8.99979H6C5.72386 8.99979 5.5 8.77593 5.5 8.49979C5.5 8.22365 5.72386 7.99979 6 7.99979H7.29289L6.15627 6.86332C5.96101 6.66806 5.96101 6.35147 6.15627 6.15621ZM14.1092 11.9878L13.1212 10.9998H14C14.2761 10.9998 14.5 11.2236 14.5 11.4998C14.5 11.7384 14.3328 11.938 14.1092 11.9878ZM11.1212 8.99979L10.1212 7.99979H14C14.2761 7.99979 14.5 8.22365 14.5 8.49979C14.5 8.77593 14.2761 8.99979 14 8.99979H11.1212Z" fill="#BC4B09"/>
</symbol></svg>