<?xml version="1.0" encoding="utf-8"?><svg xmlns="http://www.w3.org/2000/svg" xmlns:xlink="http://www.w3.org/1999/xlink"><symbol viewBox="0 0 14 14" id="addin_14_regular" xmlns="http://www.w3.org/2000/svg">
<path d="M11.1538 1.46154C11.1538 1.20664 10.9472 1 10.6923 1C10.4374 1 10.2308 1.20664 10.2308 1.46154V2.84615H8.84615C8.59129 2.84615 8.38462 3.05279 8.38462 3.30769C8.38462 3.56259 8.59129 3.76923 8.84615 3.76923H10.2308V5.15385C10.2308 5.40874 10.4374 5.61538 10.6923 5.61538C10.9472 5.61538 11.1538 5.40874 11.1538 5.15385V3.76923H12.5385C12.7933 3.76923 13 3.56259 13 3.30769C13 3.05279 12.7933 2.84615 12.5385 2.84615H11.1538V1.46154ZM2.61538 1.92308C1.72323 1.92308 1 2.64631 1 3.53846V11.3846C1 12.2768 1.72323 13 2.61538 13H10.4615C11.3537 13 12.0769 12.2768 12.0769 11.3846V8.61538C12.0769 7.72323 11.3537 7 10.4615 7H7V3.53846C7 2.64631 6.27677 1.92308 5.38462 1.92308H2.61538ZM6.07692 7.92308V12.0769H2.61538C2.23304 12.0769 1.92308 11.767 1.92308 11.3846V7.92308H6.07692ZM6.07692 3.53846V7H1.92308V3.53846C1.92308 3.15611 2.23304 2.84615 2.61538 2.84615H5.38462C5.76696 2.84615 6.07692 3.15611 6.07692 3.53846ZM10.4615 12.0769H7V7.92308H10.4615C10.8439 7.92308 11.1538 8.23304 11.1538 8.61538V11.3846C11.1538 11.767 10.8439 12.0769 10.4615 12.0769Z"/>
</symbol><symbol viewBox="0 0 20 20" id="addin_20_regular" xmlns="http://www.w3.org/2000/svg">
<path d="M15 3C15 2.72386 14.7761 2.5 14.5 2.5C14.2239 2.5 14 2.72386 14 3V5H12C11.7239 5 11.5 5.22386 11.5 5.5C11.5 5.77614 11.7239 6 12 6H14V8C14 8.27614 14.2239 8.5 14.5 8.5C14.7761 8.5 15 8.27614 15 8V6H17C17.2761 6 17.5 5.77614 17.5 5.5C17.5 5.22386 17.2761 5 17 5H15V3ZM4.5 17C3.67157 17 3 16.3284 3 15.5V4.5C3 3.67157 3.67157 3 4.5 3H9C9.82843 3 10.5 3.67157 10.5 4.5V9.5H15.5C16.3284 9.5 17 10.1716 17 11V15.5C17 16.3284 16.3284 17 15.5 17H4.5ZM10.5 10.5V16H15.5C15.7761 16 16 15.7761 16 15.5V11C16 10.7239 15.7761 10.5 15.5 10.5H10.5ZM9.5 16V10.5H4V15.5C4 15.7589 4.19675 15.9718 4.44888 15.9974C4.46569 15.9991 4.48274 16 4.5 16H9.5ZM9.5 4.5C9.5 4.22386 9.27614 4 9 4H4.5C4.22386 4 4 4.22386 4 4.5V9.5H9.5V4.5Z"/>
</symbol><symbol viewBox="0 0 20 20" fill="none" id="annotation_20_regular" xmlns="http://www.w3.org/2000/svg">
  <path d="M10 2C14.4183 2 18 5.58172 18 10C18 14.4183 14.4183 18 10 18C8.72679 18 7.49591 17.7018 6.38669 17.1393L6.266 17.075L2.62109 17.9851C2.31127 18.0625 2.02622 17.8369 2.00131 17.5438L2.00114 17.4624L2.01493 17.3787L2.925 13.735L2.86169 13.6153C2.4066 12.7186 2.12433 11.7422 2.03275 10.7283L2.00738 10.3463L2 10C2 5.58172 5.58172 2 10 2ZM10 3C6.13401 3 3 6.13401 3 10C3 11.217 3.31054 12.3878 3.89352 13.4249C3.94046 13.5084 3.9621 13.603 3.95692 13.6973L3.94274 13.7912L3.187 16.812L6.21104 16.0583C6.27294 16.0429 6.33662 16.0396 6.39873 16.0479L6.4903 16.0691L6.57701 16.1075C7.61362 16.6898 8.7837 17 10 17C13.866 17 17 13.866 17 10C17 6.13401 13.866 3 10 3Z" fill="#212121"/>
</symbol><symbol viewBox="0 0 20 20" fill="none" id="annotation_20_regular_dot" xmlns="http://www.w3.org/2000/svg">
<path d="M19 4.5C19 5.88071 17.8807 7 16.5 7C15.1193 7 14 5.88071 14 4.5C14 3.11929 15.1193 2 16.5 2C17.8807 2 19 3.11929 19 4.5Z" fill="#212121"/>
<path fill-rule="evenodd" clip-rule="evenodd" d="M13.4508 2.78047C12.406 2.28018 11.2357 2 10 2C5.58172 2 2 5.58172 2 10L2.00738 10.3463L2.03275 10.7283C2.12433 11.7422 2.4066 12.7186 2.86169 13.6153L2.925 13.735L2.01493 17.3787L2.00114 17.4624L2.00131 17.5438C2.02622 17.8369 2.31127 18.0625 2.62109 17.9851L6.266 17.075L6.38669 17.1393C7.49591 17.7018 8.72679 18 10 18C14.4183 18 18 14.4183 18 10C18 9.23409 17.8924 8.49333 17.6914 7.79199C17.3817 7.9041 17.0516 7.97375 16.7083 7.9939C16.8981 8.62941 17 9.3028 17 10C17 13.866 13.866 17 10 17C8.7837 17 7.61362 16.6898 6.57701 16.1075L6.4903 16.0691L6.39873 16.0479C6.33662 16.0396 6.27294 16.0429 6.21104 16.0583L3.187 16.812L3.94274 13.7912L3.95692 13.6973C3.9621 13.603 3.94046 13.5084 3.89352 13.4249C3.31054 12.3878 3 11.217 3 10C3 6.13401 6.13401 3 10 3C11.1084 3 12.1566 3.25762 13.0881 3.71624C13.1641 3.38378 13.2875 3.06937 13.4508 2.78047Z" fill="#212121"/>
</symbol><symbol viewBox="0 0 12 12" id="camera_12_regular" xmlns="http://www.w3.org/2000/svg">
<path d="M8.5 5.90909C8.5 7.2647 7.38071 8.36364 6 8.36364C4.61929 8.36364 3.5 7.2647 3.5 5.90909C3.5 4.55349 4.61929 3.45455 6 3.45455C7.38071 3.45455 8.5 4.55349 8.5 5.90909ZM7.66667 5.90909C7.66667 5.00535 6.92047 4.27273 6 4.27273C5.07952 4.27273 4.33333 5.00535 4.33333 5.90909C4.33333 6.81283 5.07952 7.54545 6 7.54545C6.92047 7.54545 7.66667 6.81283 7.66667 5.90909ZM4.84836 1C4.3749 1 3.94207 1.26264 3.73032 1.67842L3.24248 2.63636H2.66667C1.74619 2.63636 1 3.36899 1 4.27273V8.36364C1 9.2674 1.74619 10 2.66667 10H9.33333C10.2538 10 11 9.2674 11 8.36364V4.27273C11 3.36899 10.2538 2.63636 9.33333 2.63636H8.7575L8.26967 1.67842C8.05792 1.26264 7.6251 1 7.15164 1H4.84836ZM4.47568 2.04432C4.54627 1.90573 4.69054 1.81818 4.84836 1.81818H7.15164C7.30946 1.81818 7.45373 1.90573 7.52432 2.04432L8.12733 3.22841C8.19792 3.367 8.34217 3.45455 8.5 3.45455H9.33333C9.79358 3.45455 10.1667 3.82086 10.1667 4.27273V8.36364C10.1667 8.81552 9.79358 9.18182 9.33333 9.18182H2.66667C2.20643 9.18182 1.83333 8.81552 1.83333 8.36364V4.27273C1.83333 3.82086 2.20643 3.45455 2.66667 3.45455H3.5C3.65782 3.45455 3.8021 3.367 3.87267 3.22841L4.47568 2.04432Z"/>
</symbol><symbol viewBox="0 0 20 20" fill="none" id="camera_20_regular" xmlns="http://www.w3.org/2000/svg">
  <path d="M10.0002 6.00003C7.79104 6.00003 6.00018 7.79089 6.00018 10C6.00018 12.2092 7.79104 14 10.0002 14C12.2093 14 14.0002 12.2092 14.0002 10C14.0002 7.79089 12.2093 6.00003 10.0002 6.00003ZM7.00018 10C7.00018 8.34318 8.34333 7.00003 10.0002 7.00003C11.657 7.00003 13.0002 8.34318 13.0002 10C13.0002 11.6569 11.657 13 10.0002 13C8.34333 13 7.00018 11.6569 7.00018 10ZM8.12412 2C7.55707 2 7.03849 2.31977 6.78386 2.82643L6.19437 3.9994H4.50488C3.12417 3.9994 2.00488 5.11868 2.00488 6.4994V14.5C2.00488 15.8807 3.12417 17 4.50488 17H15.5049C16.8856 17 18.0049 15.8807 18.0049 14.5V6.4994C18.0049 5.11869 16.8856 3.9994 15.5049 3.9994H13.8149L13.23 2.8293C12.976 2.32106 12.4565 2 11.8883 2H8.12412ZM7.67736 3.27548C7.76224 3.10659 7.9351 3 8.12412 3H11.8883C12.0777 3 12.2509 3.10702 12.3356 3.27643L13.0587 4.72296C13.1433 4.89238 13.3165 4.9994 13.5059 4.9994H15.5049C16.3333 4.9994 17.0049 5.67097 17.0049 6.4994V14.5C17.0049 15.3284 16.3333 16 15.5049 16H4.50488C3.67646 16 3.00488 15.3284 3.00488 14.5V6.4994C3.00488 5.67097 3.67646 4.9994 4.50488 4.9994H6.50268C6.69169 4.9994 6.86455 4.89281 6.94943 4.72392L7.67736 3.27548Z" fill="#212121"/>
</symbol><symbol viewBox="0 0 12 12" id="checkmark_circle_12_regular" xmlns="http://www.w3.org/2000/svg">
<path d="M8.35355 5.10355C8.54882 4.90829 8.54882 4.59171 8.35355 4.39645C8.15829 4.20118 7.84171 4.20118 7.64645 4.39645L5.5 6.54289L4.35355 5.39645C4.15829 5.20118 3.84171 5.20118 3.64645 5.39645C3.45118 5.59171 3.45118 5.90829 3.64645 6.10355L5.14645 7.60355C5.34171 7.79882 5.65829 7.79882 5.85355 7.60355L8.35355 5.10355ZM6 1C3.23858 1 1 3.23858 1 6C1 8.76142 3.23858 11 6 11C8.76142 11 11 8.76142 11 6C11 3.23858 8.76142 1 6 1ZM2 6C2 3.79086 3.79086 2 6 2C8.20914 2 10 3.79086 10 6C10 8.20914 8.20914 10 6 10C3.79086 10 2 8.20914 2 6Z"/>
</symbol><symbol viewBox="0 0 20 20" fill="none" id="checkmark_circle_20_regular" xmlns="http://www.w3.org/2000/svg">
  <path d="M10 2C14.4183 2 18 5.58172 18 10C18 14.4183 14.4183 18 10 18C5.58172 18 2 14.4183 2 10C2 5.58172 5.58172 2 10 2ZM10 3C6.13401 3 3 6.13401 3 10C3 13.866 6.13401 17 10 17C13.866 17 17 13.866 17 10C17 6.13401 13.866 3 10 3ZM13.3584 7.64645C13.532 7.82001 13.5513 8.08944 13.4163 8.28431L13.3584 8.35355L9.35355 12.3584C9.17999 12.532 8.91056 12.5513 8.71569 12.4163L8.64645 12.3584L6.64645 10.3584C6.45118 10.1632 6.45118 9.84658 6.64645 9.65131C6.82001 9.47775 7.08944 9.45846 7.28431 9.59346L7.35355 9.65131L9 11.298L12.6513 7.64645C12.8466 7.45118 13.1632 7.45118 13.3584 7.64645Z" fill="#212121"/>
</symbol><symbol viewBox="0 0 12 12" id="chevron_down_12_regular" xmlns="http://www.w3.org/2000/svg">
<path d="M10.8774 3.12151C11.0404 3.28392 11.0409 3.54773 10.8785 3.71072L6.32465 8.28082C6.14554 8.46057 5.85446 8.46057 5.67535 8.28082L1.12151 3.71072C0.959089 3.54772 0.959559 3.28392 1.12256 3.12151C1.28555 2.95909 1.54935 2.95956 1.71177 3.12256L6 7.42609L10.2882 3.12256C10.4506 2.95956 10.7144 2.95909 10.8774 3.12151Z"/>
</symbol><symbol viewBox="0 0 16 16" id="chevron_left_16_regular" xmlns="http://www.w3.org/2000/svg">
<path d="M11.464 1.19221C11.7203 1.44849 11.7203 1.86401 11.464 2.12029L5.58433 8L11.464 13.8797C11.7203 14.136 11.7203 14.5515 11.464 14.8078C11.2078 15.0641 10.7922 15.0641 10.536 14.8078L4.19221 8.46404C3.93593 8.20776 3.93593 7.79224 4.19221 7.53596L10.536 1.19221C10.7922 0.93593 11.2078 0.93593 11.464 1.19221Z"/>
</symbol><symbol viewBox="0 0 16 16" id="chevron_right_16_regular" xmlns="http://www.w3.org/2000/svg">
<path d="M4.19221 14.8078C3.93593 14.5515 3.93593 14.136 4.19221 13.8797L10.0719 8L4.19221 2.12029C3.93593 1.86401 3.93593 1.44849 4.19221 1.19221C4.44849 0.93593 4.86401 0.93593 5.12029 1.19221L11.464 7.53596C11.7203 7.79224 11.7203 8.20776 11.464 8.46404L5.12029 14.8078C4.86401 15.0641 4.44849 15.0641 4.19221 14.8078Z"/>
</symbol><symbol viewBox="0 0 10 10" fill="none" id="chevron_up_10_regular" xmlns="http://www.w3.org/2000/svg">
<path d="M8.03347 6.47097C7.91143 6.59301 7.71357 6.59301 7.59153 6.47097L5 3.87944L2.4085 6.47097C2.28643 6.59301 2.08856 6.59301 1.9665 6.47097C1.8445 6.34893 1.8445 6.15107 1.9665 6.02903L4.77903 3.2165C4.90107 3.0945 5.09893 3.0945 5.22097 3.2165L8.03347 6.02903C8.15551 6.15107 8.15551 6.34893 8.03347 6.47097Z" fill="#3D3D3D"/>
</symbol><symbol viewBox="0 0 12 12" id="chevron_up_12_regular" xmlns="http://www.w3.org/2000/svg">
<path d="M1.14645 8.35355C1.34171 8.54882 1.65829 8.54882 1.85355 8.35355L6 4.20711L10.1464 8.35355C10.3417 8.54882 10.6583 8.54882 10.8536 8.35355C11.0488 8.15829 11.0488 7.84171 10.8536 7.64645L6.35355 3.14645C6.15829 2.95118 5.84171 2.95118 5.64645 3.14645L1.14645 7.64645C0.951184 7.84171 0.951184 8.15829 1.14645 8.35355Z"/>
</symbol><symbol viewBox="0 0 12 12" id="classification_12_regular" xmlns="http://www.w3.org/2000/svg">
<path d="M8.63135 2.42721C8.81928 2.44292 9.03734 2.54485 9.24625 2.75377C9.45517 2.96268 9.5571 3.18074 9.57281 3.36867C9.58735 3.54258 9.53319 3.73962 9.32748 3.94533C8.84526 4.42756 8.02402 4.96405 7.04699 5.60233L6.98967 5.63978L6.36024 5.01035L6.39769 4.95303C7.03597 3.97599 7.57246 3.15476 8.05469 2.67254C8.2604 2.46683 8.45744 2.41267 8.63135 2.42721ZM7.64038 6.29048C8.55764 5.69189 9.42733 5.11828 9.96388 4.58172C10.3426 4.20305 10.513 3.7481 10.4742 3.28433C10.4366 2.83457 10.2074 2.42924 9.88908 2.11094C9.57078 1.79265 9.16545 1.56338 8.71569 1.52579C8.25192 1.48702 7.79697 1.65746 7.4183 2.03614C6.88174 2.57269 6.30813 3.44238 5.70954 4.35964L4.76576 3.41587C4.06282 2.71292 2.91737 2.71868 2.20732 3.42872L1.5645 4.07155C1.20948 4.42657 1.2066 4.9993 1.55807 5.35077L1.07595 5.83289C0.632174 6.27667 0.628577 6.99258 1.06792 7.43191L4.5681 10.9321C5.00744 11.3714 5.72334 11.3678 6.16712 10.9241L6.64924 10.4419C7.00071 10.7934 7.57344 10.7905 7.92846 10.4355L8.57128 9.79269C9.28133 9.08264 9.28708 7.93719 8.58414 7.23424L7.64038 6.29048ZM6.86321 6.79896L7.94132 7.87707C8.29279 8.22854 8.28991 8.80127 7.93489 9.15629L7.29206 9.79911L2.2009 4.70794L2.84372 4.06512C3.19874 3.7101 3.77147 3.70722 4.12294 4.05869L5.20106 5.13681L6.60489 6.54064L6.86321 6.79896ZM2.19447 5.98717L6.01284 9.80554L5.53072 10.2877C5.44197 10.3764 5.29879 10.3771 5.21092 10.2893L1.71074 6.78909C1.62287 6.70122 1.62359 6.55804 1.71235 6.46929L2.19447 5.98717Z"/>
</symbol><symbol viewBox="0 0 14 14" fill="none" id="classification_14_regular" xmlns="http://www.w3.org/2000/svg">
<path d="M9.63135 3.42721C9.81928 3.44292 10.0373 3.54485 10.2463 3.75377C10.4552 3.96268 10.5571 4.18074 10.5728 4.36867C10.5873 4.54258 10.5332 4.73962 10.3275 4.94533C9.84526 5.42756 9.02402 5.96405 8.04699 6.60233L7.98967 6.63978L7.36024 6.01035L7.39769 5.95303C8.03597 4.97599 8.57246 4.15476 9.05469 3.67254C9.2604 3.46683 9.45744 3.41267 9.63135 3.42721ZM8.64038 7.29048C9.55764 6.69189 10.4273 6.11828 10.9639 5.58172C11.3426 5.20305 11.513 4.7481 11.4742 4.28433C11.4366 3.83457 11.2074 3.42924 10.8891 3.11094C10.5708 2.79265 10.1655 2.56338 9.71569 2.52579C9.25192 2.48702 8.79697 2.65746 8.4183 3.03614C7.88174 3.57269 7.30813 4.44238 6.70954 5.35964L5.76576 4.41587C5.06282 3.71292 3.91737 3.71868 3.20732 4.42872L2.5645 5.07155C2.20948 5.42657 2.2066 5.9993 2.55807 6.35077L2.07595 6.83289C1.63217 7.27667 1.62858 7.99258 2.06792 8.43191L5.5681 11.9321C6.00744 12.3714 6.72334 12.3678 7.16712 11.9241L7.64924 11.4419C8.00071 11.7934 8.57344 11.7905 8.92846 11.4355L9.57128 10.7927C10.2813 10.0826 10.2871 8.93719 9.58414 8.23424L8.64038 7.29048ZM7.86321 7.79896L8.94132 8.87707C9.29279 9.22854 9.28991 9.80127 8.93489 10.1563L8.29206 10.7991L3.2009 5.70794L3.84372 5.06512C4.19874 4.7101 4.77147 4.70722 5.12294 5.05869L6.20106 6.13681L7.60489 7.54064L7.86321 7.79896ZM3.19447 6.98717L7.01284 10.8055L6.53072 11.2877C6.44197 11.3764 6.29879 11.3771 6.21092 11.2893L2.71074 7.78909C2.62287 7.70122 2.62359 7.55804 2.71235 7.46929L3.19447 6.98717Z" fill="#212121"/>
</symbol><symbol viewBox="0 0 14 14" id="close_14_regular" xmlns="http://www.w3.org/2000/svg">
<path d="M2.26502 2.37623L2.31565 2.31565C2.46751 2.16377 2.70326 2.1469 2.87377 2.26502L2.93436 2.31565L7 6.38138L11.0656 2.31565C11.2365 2.14478 11.5135 2.14478 11.6844 2.31565C11.8552 2.4865 11.8552 2.76351 11.6844 2.93436L7.61863 7L11.6844 11.0656C11.8362 11.2175 11.8531 11.4532 11.735 11.6238L11.6844 11.6844C11.5325 11.8362 11.2968 11.8531 11.1262 11.735L11.0656 11.6844L7 7.61863L2.93436 11.6844C2.76351 11.8552 2.4865 11.8552 2.31565 11.6844C2.14478 11.5135 2.14478 11.2365 2.31565 11.0656L6.38138 7L2.31565 2.93436C2.16377 2.78249 2.1469 2.54674 2.26502 2.37623L2.31565 2.31565L2.26502 2.37623Z"/>
</symbol><symbol viewBox="0 0 16 16" id="close_16_regular" xmlns="http://www.w3.org/2000/svg">
<path d="M2.58859 2.71569L2.64645 2.64645C2.82001 2.47288 3.08944 2.4536 3.28431 2.58859L3.35355 2.64645L8 7.293L12.6464 2.64645C12.8417 2.45118 13.1583 2.45118 13.3536 2.64645C13.5488 2.84171 13.5488 3.15829 13.3536 3.35355L8.707 8L13.3536 12.6464C13.5271 12.82 13.5464 13.0894 13.4114 13.2843L13.3536 13.3536C13.18 13.5271 12.9106 13.5464 12.7157 13.4114L12.6464 13.3536L8 8.707L3.35355 13.3536C3.15829 13.5488 2.84171 13.5488 2.64645 13.3536C2.45118 13.1583 2.45118 12.8417 2.64645 12.6464L7.293 8L2.64645 3.35355C2.47288 3.17999 2.4536 2.91056 2.58859 2.71569L2.64645 2.64645L2.58859 2.71569Z"/>
</symbol><symbol viewBox="0 0 20 20" id="close_20_regular" xmlns="http://www.w3.org/2000/svg">
<path d="M2.1518 2.31359L2.22676 2.22676C2.50161 1.9519 2.93172 1.92691 3.2348 2.1518L3.32163 2.22676L10 8.90477L16.6784 2.22676C16.9807 1.92441 17.4709 1.92441 17.7732 2.22676C18.0756 2.5291 18.0756 3.01929 17.7732 3.32163L11.0952 10L17.7732 16.6784C18.0481 16.9532 18.0731 17.3833 17.8482 17.6864L17.7732 17.7732C17.4984 18.0481 17.0683 18.0731 16.7652 17.8482L16.6784 17.7732L10 11.0952L3.32163 17.7732C3.01929 18.0756 2.5291 18.0756 2.22676 17.7732C1.92441 17.4709 1.92441 16.9807 2.22676 16.6784L8.90477 10L2.22676 3.32163C1.9519 3.04678 1.92691 2.61667 2.1518 2.31359L2.22676 2.22676L2.1518 2.31359Z"/>
</symbol><symbol viewBox="0 0 14 14" fill="none" id="color_14_regular" xmlns="http://www.w3.org/2000/svg">
<path d="M6.5 4.5C6.77614 4.5 7 4.27614 7 4C7 3.72386 6.77614 3.5 6.5 3.5C6.22386 3.5 6 3.72386 6 4C6 4.27614 6.22386 4.5 6.5 4.5ZM9 4.5C9 4.77614 8.77614 5 8.5 5C8.22386 5 8 4.77614 8 4.5C8 4.22386 8.22386 4 8.5 4C8.77614 4 9 4.22386 9 4.5ZM10.5 6C10.5 6.27614 10.2761 6.5 10 6.5C9.7239 6.5 9.5 6.27614 9.5 6C9.5 5.72386 9.7239 5.5 10 5.5C10.2761 5.5 10.5 5.72386 10.5 6ZM10 8.5C10.2761 8.5 10.5 8.27614 10.5 8C10.5 7.72386 10.2761 7.5 10 7.5C9.7239 7.5 9.5 7.72386 9.5 8C9.5 8.27614 9.7239 8.5 10 8.5ZM9.5 10C9.5 10.2761 9.2761 10.5 9 10.5C8.72386 10.5 8.5 10.2761 8.5 10C8.5 9.7239 8.72386 9.5 9 9.5C9.2761 9.5 9.5 9.7239 9.5 10ZM7 1C3.68629 1 1 3.68629 1 7C1 8.10457 1.89543 9 3 9C3.70765 9 4.08538 8.62195 4.34047 8.36664L4.35355 8.35355C4.5983 8.10881 4.71984 8 5 8C5.55228 8 6 8.44772 6 9V10C6 11.6569 7.34315 13 9 13C10.3336 13 11.3539 12.2536 12.0169 11.1459C12.6724 10.0507 13 8.57925 13 7C13 3.68629 10.3137 1 7 1ZM2 7C2 4.23858 4.23858 2 7 2C9.7614 2 12 4.23858 12 7C12 8.45832 11.6948 9.7368 11.1589 10.6323C10.6305 11.5151 9.9008 12 9 12C7.89543 12 7 11.1046 7 10V9C7 7.89543 6.10457 7 5 7C4.29235 7 3.91462 7.37805 3.65953 7.63336L3.64645 7.64645C3.4017 7.89119 3.28016 8 3 8C2.44772 8 2 7.55228 2 7Z" fill="#212121"/>
</symbol><symbol viewBox="0 0 20 20" id="color_20_regular" xmlns="http://www.w3.org/2000/svg">
<path d="M9.75002 6.5C10.1642 6.5 10.5 6.16421 10.5 5.75C10.5 5.33579 10.1642 5 9.75002 5C9.33581 5 9.00002 5.33579 9.00002 5.75C9.00002 6.16421 9.33581 6.5 9.75002 6.5ZM12.75 7.5C13.1642 7.5 13.5 7.16421 13.5 6.75C13.5 6.33579 13.1642 6 12.75 6C12.3358 6 12 6.33579 12 6.75C12 7.16421 12.3358 7.5 12.75 7.5ZM15.25 9C15.25 9.41421 14.9142 9.75 14.5 9.75C14.0858 9.75 13.75 9.41421 13.75 9C13.75 8.58579 14.0858 8.25 14.5 8.25C14.9142 8.25 15.25 8.58579 15.25 9ZM14.5 12.75C14.9142 12.75 15.25 12.4142 15.25 12C15.25 11.5858 14.9142 11.25 14.5 11.25C14.0858 11.25 13.75 11.5858 13.75 12C13.75 12.4142 14.0858 12.75 14.5 12.75ZM13.25 14C13.25 14.4142 12.9142 14.75 12.5 14.75C12.0858 14.75 11.75 14.4142 11.75 14C11.75 13.5858 12.0858 13.25 12.5 13.25C12.9142 13.25 13.25 13.5858 13.25 14ZM13.6972 2.99169C10.9426 1.57663 8.1432 1.7124 5.77007 3.16636C4.55909 3.9083 3.25331 5.46925 2.51605 7.05899C2.14542 7.85816 1.89915 8.70492 1.90238 9.49318C1.90566 10.2941 2.16983 11.0587 2.84039 11.6053C3.45058 12.1026 3.98165 12.353 4.49574 12.3784C5.01375 12.404 5.41804 12.1942 5.73429 12.0076C5.80382 11.9666 5.86891 11.927 5.93113 11.8892C6.17332 11.7421 6.37205 11.6214 6.62049 11.5426C6.90191 11.4534 7.2582 11.4205 7.77579 11.5787C7.96661 11.637 8.08161 11.7235 8.16212 11.8229C8.24792 11.9289 8.31662 12.0774 8.36788 12.2886C8.41955 12.5016 8.44767 12.7527 8.46868 13.0491C8.47651 13.1594 8.48379 13.2855 8.49142 13.4176C8.50252 13.6098 8.51437 13.8149 8.52974 14.0037C8.58435 14.6744 8.6997 15.4401 9.10361 16.1357C9.51763 16.8488 10.2047 17.439 11.307 17.8158C12.9093 18.3636 14.3731 17.9191 15.5126 17.0169C16.6391 16.125 17.4691 14.7761 17.8842 13.4272C19.1991 9.15377 17.6728 5.03394 13.6972 2.99169ZM6.29249 4.01905C8.35686 2.75426 10.7844 2.61959 13.2403 3.88119C16.7473 5.68275 18.1135 9.28161 16.9284 13.1332C16.5624 14.3227 15.8338 15.4871 14.8919 16.2329C13.963 16.9684 12.8486 17.286 11.6305 16.8696C10.7269 16.5607 10.2467 16.1129 9.96842 15.6336C9.68001 15.1369 9.57798 14.5556 9.52643 13.9225C9.511 13.733 9.50132 13.5621 9.49147 13.3884C9.48399 13.2564 9.47642 13.1229 9.46618 12.9783C9.44424 12.669 9.41174 12.3499 9.33967 12.0529C9.26718 11.7541 9.14902 11.4527 8.93935 11.1937C8.72439 10.9282 8.43532 10.7346 8.06801 10.6223C7.36648 10.408 6.80266 10.4359 6.31839 10.5893C5.94331 10.7082 5.62016 10.9061 5.37179 11.0582C5.31992 11.0899 5.2713 11.1197 5.22616 11.1463C4.94094 11.3146 4.75357 11.39 4.54514 11.3796C4.33279 11.3691 4.00261 11.2625 3.47218 10.8301C3.08659 10.5158 2.90473 10.0668 2.90237 9.48908C2.89995 8.89865 3.08843 8.20165 3.42324 7.47971C4.09686 6.0272 5.28471 4.63649 6.29249 4.01905Z"/>
</symbol><symbol viewBox="0 0 14 14" id="eraser_14_regular" xmlns="http://www.w3.org/2000/svg">
<path fill-rule="evenodd" clip-rule="evenodd" d="M12.7766 4.40502L9.59507 1.22349C9.0972 0.725633 8.29005 0.725634 7.79219 1.22349L1.22336 7.7923C0.725512 8.29017 0.725514 9.09732 1.22336 9.59518L4.4049 12.7767C4.66991 13.0418 5.0228 13.1656 5.36944 13.1485H10.3752C10.6651 13.1485 10.9002 12.9136 10.9002 12.6236C10.9002 12.3337 10.6651 12.0986 10.3752 12.0986H6.88585L12.7766 6.20792C13.2744 5.71006 13.2744 4.90288 12.7766 4.40502ZM3.86705 6.63339L8.53456 1.96589C8.62244 1.87803 8.76482 1.87803 8.8527 1.96589L12.0342 5.14742C12.1221 5.23526 12.1221 5.37768 12.0342 5.46553L7.36673 10.1331L3.86705 6.63339ZM1.96576 8.53467L3.12466 7.37576L6.62431 10.8754L5.4654 12.0343C5.37755 12.1222 5.23513 12.1222 5.14729 12.0343L1.96575 8.8528C1.8779 8.76492 1.87791 8.62255 1.96576 8.53467Z"/>
</symbol><symbol viewBox="0 0 20 20" id="eraser_20_regular" xmlns="http://www.w3.org/2000/svg">
<path d="M11.1968 2.43934C11.7826 1.85355 12.7323 1.85355 13.3181 2.43934L17.5607 6.68198C18.1465 7.26777 18.1465 8.21751 17.5607 8.8033L9.36383 17.0002H14.4999C14.776 17.0002 14.9999 17.2241 14.9999 17.5002C14.9999 17.7764 14.776 18.0002 14.4999 18.0002H7.8195C7.40971 18.0217 6.99279 17.876 6.67978 17.5629L2.43714 13.3203C1.85136 12.7345 1.85136 11.7848 2.43714 11.199L11.1968 2.43934ZM12.611 3.14645C12.4157 2.95118 12.0992 2.95118 11.9039 3.14645L5.53822 9.51212L10.488 14.4619L16.8536 8.09619C17.0489 7.90093 17.0489 7.58435 16.8536 7.38909L12.611 3.14645ZM9.78086 15.169L4.83111 10.2192L3.14425 11.9061C2.94899 12.1014 2.94899 12.4179 3.14425 12.6132L7.38689 16.8558C7.58215 17.0511 7.89873 17.0511 8.094 16.8558L9.78086 15.169Z"/>
</symbol><symbol viewBox="0 0 14 14" id="filter_14_regular" xmlns="http://www.w3.org/2000/svg">
<path d="M1 2.5C1 2.22386 1.22386 2 1.5 2H12.5C12.7761 2 13 2.22386 13 2.5C13 2.77614 12.7761 3 12.5 3H1.5C1.22386 3 1 2.77614 1 2.5ZM3 6.5C3 6.22386 3.22386 6 3.5 6H10.5C10.7761 6 11 6.22386 11 6.5C11 6.77614 10.7761 7 10.5 7H3.5C3.22386 7 3 6.77614 3 6.5ZM5 10.5C5 10.2239 5.22386 10 5.5 10H8.5C8.77614 10 9 10.2239 9 10.5C9 10.7761 8.77614 11 8.5 11H5.5C5.22386 11 5 10.7761 5 10.5Z"/>
</symbol><symbol viewBox="0 0 20 20" id="filter_20_regular" xmlns="http://www.w3.org/2000/svg">
<path d="M7.5 13H12.5C12.7761 13 13 13.2239 13 13.5C13 13.7455 12.8231 13.9496 12.5899 13.9919L12.5 14H7.5C7.22386 14 7 13.7761 7 13.5C7 13.2545 7.17688 13.0504 7.41012 13.0081L7.5 13H12.5H7.5ZM5.5 9H14.5C14.7761 9 15 9.22386 15 9.5C15 9.74546 14.8231 9.94961 14.5899 9.99194L14.5 10H5.5C5.22386 10 5 9.77614 5 9.5C5 9.25454 5.17688 9.05039 5.41012 9.00806L5.5 9H14.5H5.5ZM3.5 5H16.5C16.7761 5 17 5.22386 17 5.5C17 5.74546 16.8231 5.94961 16.5899 5.99194L16.5 6H3.5C3.22386 6 3 5.77614 3 5.5C3 5.25454 3.17688 5.05039 3.41012 5.00806L3.5 5H16.5H3.5Z"/>
</symbol><symbol viewBox="0 0 14 14" id="flash_14_regular" xmlns="http://www.w3.org/2000/svg">
<path d="M4.35382 1.61254C4.46212 1.24912 4.79629 1 5.17551 1H8.95301C9.55164 1 9.96602 1.59792 9.75579 2.15845L8.90414 4.42959H10.6442C11.1827 4.42959 11.4827 5.05182 11.1473 5.47312L5.48257 12.5897C4.75061 13.5093 3.28602 12.7504 3.61519 11.6221L4.71299 7.85918H3.35499C2.92473 7.85918 2.61584 7.44482 2.73871 7.03248L4.35382 1.61254ZM8.95301 1.8574H5.17551L3.64252 7.00178H5.28463C5.41957 7.00178 5.54664 7.06531 5.62759 7.17327C5.70856 7.28123 5.73396 7.421 5.69617 7.55054L4.43827 11.8622C4.41807 11.9315 4.42798 11.9785 4.44387 12.0119C4.46202 12.0501 4.49678 12.0873 4.54542 12.1126C4.59406 12.1378 4.64454 12.1447 4.6862 12.1375C4.72267 12.1312 4.76684 12.1121 4.81175 12.0557L10.1997 5.28699H8.28552C8.14491 5.28699 8.01325 5.21803 7.93316 5.10247C7.85307 4.98691 7.83475 4.83942 7.88412 4.70776L8.95301 1.8574Z"/>
</symbol><symbol viewBox="0 0 20 20" id="flash_20_regular" xmlns="http://www.w3.org/2000/svg">
  <path d="M6.19079 2.77054C6.3211 2.31445 6.73797 2 7.21231 2H12.4614C13.1865 2 13.6986 2.71043 13.4693 3.39836L13.4668 3.40584L13.4667 3.40582L12.2053 7H14.7691C15.7155 7 16.1764 8.1436 15.5356 8.81137L15.532 8.81508L15.532 8.81506L6.85551 17.6726C6.10113 18.4551 4.79636 17.7329 5.06026 16.6773L6.22998 11.9984H4.96271C4.25687 11.9984 3.74727 11.3228 3.94118 10.6442L6.19079 2.77054ZM7.21231 3C7.18445 3 7.15996 3.01847 7.15231 3.04526L4.90271 10.9189C4.89132 10.9587 4.92125 10.9984 4.96271 10.9984H6.87037C7.02434 10.9984 7.16972 11.0694 7.26447 11.1907C7.35923 11.3121 7.39279 11.4703 7.35544 11.6197L6.03041 16.9198C6.02649 16.9355 6.02679 16.9448 6.02721 16.949C6.02765 16.9534 6.02868 16.9568 6.03027 16.9601C6.03383 16.9676 6.04314 16.9798 6.06076 16.9896C6.07838 16.9993 6.09368 17.0007 6.10191 16.9997C6.10557 16.9993 6.109 16.9984 6.11295 16.9964C6.11674 16.9945 6.12478 16.9898 6.13597 16.9782L6.13952 16.9745L6.13954 16.9745L14.8151 8.11787C14.8273 8.10484 14.8305 8.09481 14.8318 8.0864C14.8336 8.07504 14.8325 8.05898 14.8253 8.04178C14.8181 8.0246 14.8079 8.01365 14.8002 8.00817C14.7949 8.00438 14.7869 8 14.7691 8H11.5C11.3378 8 11.1858 7.9214 11.092 7.78915C10.9983 7.65689 10.9745 7.48739 11.0282 7.33443L12.5212 3.08022C12.5331 3.04042 12.5033 3 12.4614 3H7.21231Z"/>
</symbol><symbol viewBox="0 0 12 12" fill="none" id="ic_fluent_info_12_regular" xmlns="http://www.w3.org/2000/svg">
  <path d="M5.5 6.5C5.5 6.22386 5.72386 6 6 6C6.27614 6 6.5 6.22386 6.5 6.5V8C6.5 8.27614 6.27614 8.5 6 8.5C5.72386 8.5 5.5 8.27614 5.5 8V6.5ZM6 3.75C5.58579 3.75 5.25 4.08579 5.25 4.5C5.25 4.91421 5.58579 5.25 6 5.25C6.41421 5.25 6.75 4.91421 6.75 4.5C6.75 4.08579 6.41421 3.75 6 3.75ZM1 6C1 3.23858 3.23858 1 6 1C8.76142 1 11 3.23858 11 6C11 8.76142 8.76142 11 6 11C3.23858 11 1 8.76142 1 6ZM6 2C3.79086 2 2 3.79086 2 6C2 8.20914 3.79086 10 6 10C8.20914 10 10 8.20914 10 6C10 3.79086 8.20914 2 6 2Z" fill="#212121"/>
</symbol><symbol viewBox="0 0 16 16" fill="none" id="ic_fluent_projection_screen_16_regular" xmlns="http://www.w3.org/2000/svg">
  <path d="M3 2C2.44772 2 2 2.44772 2 3C2 3.55228 2.44772 4 3 4L3 8.5C3 9.88071 4.11929 11 5.5 11H7.5V13H5.5C5.22386 13 5 13.2239 5 13.5C5 13.7761 5.22386 14 5.5 14H10.5C10.7761 14 11 13.7761 11 13.5C11 13.2239 10.7761 13 10.5 13H8.5V11H10.5C11.8807 11 13 9.88071 13 8.5V4C13.5523 4 14 3.55228 14 3C14 2.44772 13.5523 2 13 2H3ZM4 4H12V8.5C12 9.32843 11.3284 10 10.5 10H5.5C4.67157 10 4 9.32843 4 8.5V4Z" fill="#212121"/>
</symbol><symbol viewBox="0 0 20 20" fill="none" id="ic_fluent_projection_screen_20_regular" xmlns="http://www.w3.org/2000/svg">
  <path d="M3 3C2.44772 3 2 3.44772 2 4C2 4.55228 2.44772 5 3 5V11C3 12.6569 4.34315 14 6 14H9.5V16H7.5C7.22386 16 7 16.2239 7 16.5C7 16.7761 7.22386 17 7.5 17H12.5C12.7761 17 13 16.7761 13 16.5C13 16.2239 12.7761 16 12.5 16H10.5V14H14C15.6569 14 17 12.6569 17 11V5C17.5523 5 18 4.55228 18 4C18 3.44772 17.5523 3 17 3H3ZM4 5H16V11C16 12.1046 15.1046 13 14 13H6C4.89543 13 4 12.1046 4 11V5Z" fill="#212121"/>
</symbol><symbol viewBox="0 0 12 12" id="info_12_regular" xmlns="http://www.w3.org/2000/svg">
<path d="M6.06549 5.16667C6.29561 5.16667 6.48216 5.35321 6.48216 5.58333V8.08333C6.48216 8.31345 6.29561 8.5 6.06549 8.5C5.83537 8.5 5.64882 8.31345 5.64882 8.08333V5.58333C5.64882 5.35321 5.83537 5.16667 6.06549 5.16667ZM6.0655 4.54089C6.41023 4.54089 6.6897 4.26143 6.6897 3.91669C6.6897 3.57196 6.41023 3.2925 6.0655 3.2925C5.72077 3.2925 5.4413 3.57196 5.4413 3.91669C5.4413 4.26143 5.72077 4.54089 6.0655 4.54089ZM1.06549 6C1.06549 3.23858 3.30407 1 6.06549 1C8.82691 1 11.0655 3.23858 11.0655 6C11.0655 8.76142 8.82691 11 6.06549 11C3.30407 11 1.06549 8.76142 1.06549 6ZM6.06549 1.83333C3.7643 1.83333 1.89882 3.69881 1.89882 6C1.89882 8.30119 3.7643 10.1667 6.06549 10.1667C8.36668 10.1667 10.2322 8.30119 10.2322 6C10.2322 3.69881 8.36668 1.83333 6.06549 1.83333Z"/>
</symbol><symbol viewBox="0 0 14 14" id="info_14_regular" xmlns="http://www.w3.org/2000/svg">
<path d="M7 6C7.27614 6 7.5 6.22386 7.5 6.5V9.5C7.5 9.77614 7.27614 10 7 10C6.72386 10 6.5 9.77614 6.5 9.5V6.5C6.5 6.22386 6.72386 6 7 6ZM7.00001 5.24907C7.41369 5.24907 7.74905 4.91371 7.74905 4.50003C7.74905 4.08635 7.41369 3.751 7.00001 3.751C6.58633 3.751 6.25098 4.08635 6.25098 4.50003C6.25098 4.91371 6.58633 5.24907 7.00001 5.24907ZM1 7C1 3.68629 3.68629 1 7 1C10.3137 1 13 3.68629 13 7C13 10.3137 10.3137 13 7 13C3.68629 13 1 10.3137 1 7ZM7 2C4.23858 2 2 4.23858 2 7C2 9.76142 4.23858 12 7 12C9.76142 12 12 9.76142 12 7C12 4.23858 9.76142 2 7 2Z"/>
</symbol><symbol viewBox="0 0 20 20" id="info_20_regular" xmlns="http://www.w3.org/2000/svg">
<path d="M10.4921 8.91012C10.4497 8.67687 10.2456 8.49999 10.0001 8.49999C9.72397 8.49999 9.50011 8.72385 9.50011 8.99999V13.5021L9.50817 13.592C9.55051 13.8253 9.75465 14.0021 10.0001 14.0021C10.2763 14.0021 10.5001 13.7783 10.5001 13.5021V8.99999L10.4921 8.91012ZM10.7988 6.74999C10.7988 6.33578 10.463 5.99999 10.0488 5.99999C9.63461 5.99999 9.29883 6.33578 9.29883 6.74999C9.29883 7.16421 9.63461 7.49999 10.0488 7.49999C10.463 7.49999 10.7988 7.16421 10.7988 6.74999ZM18 10C18 5.58172 14.4183 2 10 2C5.58172 2 2 5.58172 2 10C2 14.4183 5.58172 18 10 18C14.4183 18 18 14.4183 18 10ZM3 10C3 6.13401 6.13401 3 10 3C13.866 3 17 6.13401 17 10C17 13.866 13.866 17 10 17C6.13401 17 3 13.866 3 10Z"/>
</symbol><symbol viewBox="0 0 14 14" id="learn_14_regular" xmlns="http://www.w3.org/2000/svg">
<path d="M7.83977 2.18885C7.30824 1.93705 6.69177 1.93705 6.16023 2.18885L1.28594 4.49789C1.1128 4.57991 1.00175 4.75366 1.00002 4.94524C0.99993 4.95543 1.00015 4.96557 1.00067 4.97566C1.00022 4.9843 1 4.993 1 5.00175V8.00175C1 8.2779 1.22386 8.50175 1.5 8.50175C1.77614 8.50175 2 8.2779 2 8.00175V5.7559L3 6.25194V9.00175C3 9.13437 3.05293 9.2618 3.14671 9.35557L3.14766 9.35652L3.17157 9.37977C3.18577 9.39336 3.20574 9.41218 3.23124 9.43546C3.28222 9.482 3.35547 9.54657 3.44904 9.62312C3.63578 9.7759 3.90562 9.97819 4.24282 10.1805C4.91214 10.5821 5.87715 11.0018 7.00006 11.0018C8.12298 11.0018 9.08797 10.5821 9.75726 10.1805C10.0944 9.97819 10.3643 9.77589 10.551 9.62311C10.6446 9.54656 10.7178 9.48199 10.7688 9.43545C10.7943 9.41216 10.8142 9.39335 10.8285 9.37975L10.8524 9.3565L10.8535 9.35531C10.9473 9.26154 11 9.13436 11 9.00175V6.25194L12.7222 5.39768C12.8938 5.31254 13.0017 5.13682 13 4.94524C12.9983 4.75366 12.8872 4.57991 12.7141 4.49789L7.83977 2.18885ZM7.87166 7.8037L10 6.74797V8.78036C9.97546 8.80136 9.94801 8.8244 9.91776 8.84915C9.76074 8.97762 9.53057 9.15032 9.24276 9.32301C8.66207 9.67143 7.87709 10.0018 7.00006 10.0018C6.12304 10.0018 5.33802 9.67143 4.7573 9.323C4.46947 9.15031 4.23928 8.97761 4.08225 8.84914C4.052 8.82439 4.02455 8.80135 4 8.78034V6.74797L6.12834 7.8037C6.67752 8.07611 7.32248 8.07611 7.87166 7.8037ZM7.41166 3.09257L11.3539 4.96011L7.42729 6.90786C7.15808 7.04139 6.84192 7.04139 6.57271 6.90786L2.64606 4.96011L6.58834 3.09257C6.8489 2.96914 7.1511 2.96914 7.41166 3.09257ZM10.8524 9.3565L10.8506 9.35825L10.8524 9.3565Z"/>
</symbol><symbol viewBox="0 0 20 20" id="learn_20_regular" xmlns="http://www.w3.org/2000/svg">
<path d="M8.5063 3.40123C9.4313 2.87016 10.5687 2.87016 11.4937 3.40123L18.749 7.56664C18.9042 7.6558 19 7.82119 19 8.00026C19 8.17933 18.9042 8.34472 18.7489 8.43388L16 10.0121V14.5002C16 14.6328 15.9473 14.76 15.8536 14.8538L15.852 14.8554L15.8496 14.8577L15.8428 14.8644L15.8201 14.8861C15.801 14.9041 15.7741 14.929 15.7394 14.9599C15.6701 15.0215 15.5696 15.1069 15.4389 15.2081C15.1777 15.4103 14.7948 15.6763 14.2978 15.9414C13.3033 16.4718 11.8479 17.0002 10 17.0002C8.15211 17.0002 6.69675 16.4718 5.70221 15.9414C5.20518 15.6763 4.82226 15.4103 4.5611 15.2081C4.43043 15.1069 4.32994 15.0215 4.26059 14.9599C4.22591 14.929 4.19898 14.9041 4.17992 14.8861C4.07226 14.7822 4 14.654 4 14.5002V10.0121L2 8.86386V13.5002C2 13.7764 1.77614 14.0002 1.5 14.0002C1.22386 14.0002 1 13.7764 1 13.5002V8.00026C1 7.81088 1.10529 7.64606 1.26052 7.5612L8.5063 3.40123ZM11.4937 12.5992C10.5687 13.1303 9.43131 13.1303 8.50632 12.5992L5 10.5862V14.2774C5.04686 14.317 5.10469 14.3643 5.17327 14.4174C5.39649 14.5902 5.73232 14.8241 6.17279 15.0591C7.05325 15.5286 8.34789 16.0002 10 16.0002C11.6521 16.0002 12.9467 15.5286 13.8272 15.0591C14.2677 14.8241 14.6035 14.5902 14.8267 14.4174C14.8953 14.3643 14.9531 14.317 15 14.2774V10.5862L11.4937 12.5992ZM10.9958 4.26846C10.3791 3.91442 9.62086 3.91442 9.0042 4.26846L2.50423 8.00025L9.00421 11.732C9.62087 12.086 10.3791 12.086 10.9958 11.732L17.4958 8.00025L10.9958 4.26846Z"/>
</symbol><symbol viewBox="0 0 14 14" id="link_14_regular" xmlns="http://www.w3.org/2000/svg">
<path d="M8.49999 3.49768H9.5C11.433 3.49768 13 5.06468 13 6.99768C13 8.86624 11.5357 10.3928 9.6941 10.4925L9.5023 10.4977L8.5023 10.5023C8.22616 10.5036 8.00127 10.2807 7.99999 10.0046C7.99888 9.75908 8.17481 9.55418 8.40787 9.51078L8.4977 9.50228L9.5 9.49768C10.8807 9.49768 12 8.37839 12 6.99768C12 5.6722 10.9685 4.58764 9.6644 4.503L9.5 4.49768H8.49999C8.22386 4.49768 7.99999 4.27382 7.99999 3.99768C7.99999 3.75222 8.17687 3.54807 8.41012 3.50574L8.49999 3.49768H9.5H8.49999ZM4.5 3.49768H5.5C5.77614 3.49768 6 3.72154 6 3.99768C6 4.24314 5.82312 4.44729 5.58988 4.48962L5.5 4.49768H4.5C3.11929 4.49768 2 5.61697 2 6.99768C2 8.32316 3.03154 9.40772 4.33562 9.49236L4.5 9.49768H5.5C5.77614 9.49768 6 9.72158 6 9.99768C6 10.2432 5.82312 10.4473 5.58988 10.4896L5.5 10.4977H4.5C2.567 10.4977 1 8.93068 1 6.99768C1 5.12912 2.46428 3.60255 4.30796 3.50286L4.5 3.49768H5.5H4.5ZM4.50023 6.49768L9.5002 6.49998C9.7764 6.5001 10.0001 6.72406 10 7.0002C9.9999 7.24566 9.8229 7.44973 9.5897 7.49196L9.4998 7.49998L4.49977 7.49768C4.22363 7.49755 3.99987 7.27359 4 6.99745C4.00011 6.75199 4.17708 6.54792 4.41035 6.50569L4.50023 6.49768Z"/>
</symbol><symbol viewBox="0 0 14 14" fill="none" id="link_dismiss_14_regular" xmlns="http://www.w3.org/2000/svg">
<path d="M9.1875 2.625H8.31249L8.23386 2.63205C8.02976 2.66909 7.87499 2.84772 7.87499 3.0625C7.87499 3.30412 8.07088 3.5 8.31249 3.5H9.1875L9.33135 3.50466C10.3856 3.57308 11.2363 4.38841 11.3596 5.42684C11.6698 5.51344 11.9673 5.63034 12.2488 5.77413C12.2496 5.74535 12.25 5.71647 12.25 5.6875C12.25 3.99613 10.8789 2.625 9.1875 2.625ZM5.77071 7.8829C5.63085 8.15776 5.51661 8.44784 5.43115 8.75H4.8125C3.12113 8.75 1.75 7.37887 1.75 5.6875C1.75 4.05251 3.03125 2.71676 4.64447 2.62953L4.8125 2.625H5.6875C5.92912 2.625 6.125 2.82088 6.125 3.0625C6.125 3.27728 5.97023 3.45591 5.76614 3.49295L5.6875 3.5H4.8125C3.60438 3.5 2.625 4.47938 2.625 5.6875C2.625 6.84729 3.5276 7.79629 4.66867 7.87035L4.8125 7.875H5.6875C5.71595 7.875 5.74377 7.87771 5.77071 7.8829ZM9.38236 5.29769C8.61235 5.40662 7.90095 5.69778 7.29319 6.12614L4.8123 6.125C4.57068 6.12489 4.37489 5.92892 4.375 5.6873C4.3751 5.47252 4.52994 5.29396 4.73406 5.25701L4.8127 5.25L9.18768 5.25201C9.25768 5.25204 9.32374 5.26848 9.38236 5.29769ZM10.0625 14C12.2371 14 14 12.2371 14 10.0625C14 7.88788 12.2371 6.125 10.0625 6.125C7.88788 6.125 6.125 7.88788 6.125 10.0625C6.125 12.2371 7.88788 14 10.0625 14ZM11.6844 8.44064C11.8552 8.6115 11.8552 8.88851 11.6844 9.0594L10.6812 10.0625L11.6844 11.0656C11.8552 11.2365 11.8552 11.5135 11.6844 11.6844C11.5135 11.8552 11.2365 11.8552 11.0656 11.6844L10.0625 10.6812L9.0594 11.6844C8.88851 11.8552 8.6115 11.8552 8.44064 11.6844C8.26978 11.5135 8.26978 11.2365 8.44064 11.0656L9.44379 10.0625L8.44064 9.0594C8.26978 8.88851 8.26978 8.6115 8.44064 8.44064C8.6115 8.26978 8.88851 8.26978 9.0594 8.44064L10.0625 9.44379L11.0656 8.44064C11.2365 8.26978 11.5135 8.26978 11.6844 8.44064Z" fill="#212121"/>
</symbol><symbol viewBox="0 0 12 12" id="lock_closed_12_regular" xmlns="http://www.w3.org/2000/svg">
<path d="M6.02968 1.00426L6.16667 1C7.27123 1 8.175 1.82523 8.24558 2.8685L8.25 3V3.8H9.08333C9.77367 3.8 10.3333 4.33726 10.3333 5V9.8C10.3333 10.4627 9.77367 11 9.08333 11H3.25C2.55964 11 2 10.4627 2 9.8V5C2 4.33726 2.55964 3.8 3.25 3.8H4.08333V3C4.08333 1.93962 4.94295 1.07197 6.02968 1.00426ZM9.08333 4.6H3.25C3.01988 4.6 2.83333 4.77909 2.83333 5V9.8C2.83333 10.0209 3.01988 10.2 3.25 10.2H9.08333C9.31342 10.2 9.5 10.0209 9.5 9.8V5C9.5 4.77909 9.31342 4.6 9.08333 4.6ZM6.16667 6.6C6.6269 6.6 7 6.95818 7 7.4C7 7.84184 6.6269 8.2 6.16667 8.2C5.70643 8.2 5.33333 7.84184 5.33333 7.4C5.33333 6.95818 5.70643 6.6 6.16667 6.6ZM6.28705 1.8055L6.16667 1.8C5.51692 1.8 4.98296 2.27591 4.92239 2.88443L4.91667 3V3.8H7.41667V3C7.41667 2.37624 6.92092 1.86364 6.28705 1.8055Z"/>
</symbol><symbol viewBox="0 0 20 20" fill="none" id="lock_closed_20_regular" xmlns="http://www.w3.org/2000/svg">
  <path d="M10 2C11.6569 2 13 3.34315 13 5V6H14C15.1046 6 16 6.89543 16 8V15C16 16.1046 15.1046 17 14 17H6C4.89543 17 4 16.1046 4 15V8C4 6.89543 4.89543 6 6 6H7V5C7 3.34315 8.34315 2 10 2ZM14 7H6C5.44772 7 5 7.44772 5 8V15C5 15.5523 5.44772 16 6 16H14C14.5523 16 15 15.5523 15 15V8C15 7.44772 14.5523 7 14 7ZM10 10.5C10.5523 10.5 11 10.9477 11 11.5C11 12.0523 10.5523 12.5 10 12.5C9.44772 12.5 9 12.0523 9 11.5C9 10.9477 9.44772 10.5 10 10.5ZM10 3C8.89543 3 8 3.89543 8 5V6H12V5C12 3.89543 11.1046 3 10 3Z" fill="#212121"/>
</symbol><symbol viewBox="0 0 20 20" id="paint_brush_20_regular" xmlns="http://www.w3.org/2000/svg">
  <path d="M5.5 1.99902C5.22386 1.99902 5 2.22288 5 2.49902L5.00002 11.0034C5.00002 12.1079 5.89545 13.0034 7.00002 13.0034H8.00411V16.0007C8.00411 17.1053 8.89954 18.0007 10.0041 18.0007C11.1087 18.0007 12.0041 17.1053 12.0041 16.0007V13.0034H13C14.1046 13.0034 15 12.1079 15 11.0034V9.50339L15 9.49897V2.49902C15 2.22288 14.7761 1.99902 14.5 1.99902H5.5ZM6.00002 10.0034H14V11.0034C14 11.5557 13.5523 12.0034 13 12.0034H11.5041C11.228 12.0034 11.0041 12.2272 11.0041 12.5034V16.0007C11.0041 16.553 10.5564 17.0007 10.0041 17.0007C9.45183 17.0007 9.00411 16.553 9.00411 16.0007V12.5034C9.00411 12.2272 8.78026 12.0034 8.50411 12.0034H7.00002C6.44773 12.0034 6.00002 11.5557 6.00002 11.0034V10.0034ZM14 9.00339H6V2.99902H10V4.49902C10 4.77517 10.2239 4.99902 10.5 4.99902C10.7761 4.99902 11 4.77517 11 4.49902V2.99902H12V5.50122C12 5.77736 12.2239 6.00122 12.5 6.00122C12.7761 6.00122 13 5.77736 13 5.50122V2.99902H14V9.00339Z"/>
</symbol><symbol viewBox="0 0 14 14" id="pbi_14_regular" xmlns="http://www.w3.org/2000/svg">
<path d="M10.96 2.00012C11.0609 2.00012 11.1553 2.01965 11.2432 2.05872C11.3311 2.09778 11.4076 2.14986 11.4727 2.21497C11.5378 2.28007 11.5898 2.35657 11.6289 2.44446C11.668 2.53235 11.6875 2.62675 11.6875 2.72766V11.2726C11.6875 11.3735 11.668 11.4679 11.6289 11.5558C11.5898 11.6437 11.5378 11.7218 11.4727 11.7902C11.4076 11.8553 11.3311 11.9073 11.2432 11.9464C11.1553 11.9822 11.0609 12.0001 10.96 12.0001H3.04004C2.93913 12.0001 2.84473 11.9822 2.75684 11.9464C2.66895 11.9073 2.59082 11.8553 2.52246 11.7902C2.45736 11.7218 2.40527 11.6437 2.36621 11.5558C2.3304 11.4679 2.3125 11.3735 2.3125 11.2726V7.72766C2.3125 7.62675 2.3304 7.53235 2.36621 7.44446C2.40527 7.35657 2.45736 7.28007 2.52246 7.21497C2.59082 7.14986 2.66895 7.09778 2.75684 7.05872C2.84473 7.01965 2.93913 7.00012 3.04004 7.00012H4.8125V5.22766C4.8125 5.12675 4.8304 5.03235 4.86621 4.94446C4.90527 4.85657 4.95736 4.78007 5.02246 4.71497C5.09082 4.64986 5.16895 4.59778 5.25684 4.55872C5.34473 4.51965 5.43913 4.50012 5.54004 4.50012H7.3125V2.72766C7.3125 2.62675 7.3304 2.53235 7.36621 2.44446C7.40527 2.35657 7.45736 2.28007 7.52246 2.21497C7.59082 2.14986 7.66895 2.09778 7.75684 2.05872C7.84473 2.01965 7.93913 2.00012 8.04004 2.00012H10.96ZM6.0625 11.3751V7.73254C6.0625 7.70325 6.05111 7.67883 6.02832 7.6593C6.00879 7.63652 5.98438 7.62512 5.95508 7.62512H3.04004C3.014 7.62512 2.98958 7.63652 2.9668 7.6593C2.94727 7.67883 2.9375 7.70162 2.9375 7.72766V11.2726C2.9375 11.2986 2.94727 11.323 2.9668 11.3458C2.98958 11.3654 3.014 11.3751 3.04004 11.3751H6.0625ZM8.5625 11.3751V5.22766C8.5625 5.20162 8.55111 5.17883 8.52832 5.1593C8.50879 5.13652 8.486 5.12512 8.45996 5.12512H5.54004C5.514 5.12512 5.48958 5.13652 5.4668 5.1593C5.44727 5.17883 5.4375 5.20162 5.4375 5.22766V7.00012H5.95508C6.05599 7.00012 6.15039 7.01965 6.23828 7.05872C6.32943 7.09778 6.40755 7.14986 6.47266 7.21497C6.53776 7.28007 6.58984 7.35819 6.62891 7.44934C6.66797 7.53723 6.6875 7.63163 6.6875 7.73254V11.3751H8.5625ZM11.0625 11.2726V2.72766C11.0625 2.70162 11.0511 2.67883 11.0283 2.6593C11.0088 2.63652 10.986 2.62512 10.96 2.62512H8.04004C8.014 2.62512 7.98958 2.63652 7.9668 2.6593C7.94727 2.67883 7.9375 2.70162 7.9375 2.72766V4.50012H8.45996C8.56087 4.50012 8.65527 4.51965 8.74316 4.55872C8.83105 4.59778 8.90755 4.64986 8.97266 4.71497C9.03776 4.78007 9.08984 4.85657 9.12891 4.94446C9.16797 5.03235 9.1875 5.12675 9.1875 5.22766V11.3751H10.96C10.986 11.3751 11.0088 11.3654 11.0283 11.3458C11.0511 11.323 11.0625 11.2986 11.0625 11.2726Z"/>
</symbol><symbol viewBox="0 0 15 15" fill="none" id="poll_14_regular" xmlns="http://www.w3.org/2000/svg">
<path d="M7.58765 1.6062C6.62115 1.6062 5.83765 2.3897 5.83765 3.3562V12.1062C5.83765 13.0727 6.62115 13.8562 7.58765 13.8562C8.55415 13.8562 9.33765 13.0727 9.33765 12.1062V3.3562C9.33765 2.3897 8.55415 1.6062 7.58765 1.6062ZM8.46265 3.3562V12.1062C8.46265 12.5895 8.07089 12.9812 7.58765 12.9812C7.1044 12.9812 6.71265 12.5895 6.71265 12.1062V3.3562C6.71265 2.87296 7.1044 2.4812 7.58765 2.4812C8.07089 2.4812 8.46265 2.87296 8.46265 3.3562ZM3.21265 6.8562C2.24615 6.8562 1.46265 7.6397 1.46265 8.6062V12.1062C1.46265 13.0727 2.24615 13.8562 3.21265 13.8562C4.17915 13.8562 4.96265 13.0727 4.96265 12.1062V8.6062C4.96265 7.6397 4.17915 6.8562 3.21265 6.8562ZM4.08765 12.1062C4.08765 12.5895 3.69589 12.9812 3.21265 12.9812C2.7294 12.9812 2.33765 12.5895 2.33765 12.1062V8.6062C2.33765 8.12296 2.7294 7.7312 3.21265 7.7312C3.69589 7.7312 4.08765 8.12296 4.08765 8.6062V12.1062ZM10.2126 6.8562C10.2126 5.8897 10.9961 5.1062 11.9626 5.1062C12.9292 5.1062 13.7126 5.8897 13.7126 6.8562V12.1062C13.7126 13.0727 12.9292 13.8562 11.9626 13.8562C10.9961 13.8562 10.2126 13.0727 10.2126 12.1062V6.8562ZM12.8376 6.8562C12.8376 6.37296 12.4459 5.9812 11.9626 5.9812C11.4794 5.9812 11.0876 6.37296 11.0876 6.8562V12.1062C11.0876 12.5895 11.4794 12.9812 11.9626 12.9812C12.4459 12.9812 12.8376 12.5895 12.8376 12.1062V6.8562Z" fill="#212121"/>
</symbol><symbol viewBox="0 0 20 20" fill="none" id="poll_20_regular_dot" xmlns="http://www.w3.org/2000/svg">
<g clip-path="url(#bpclip0_557_730)">
<path d="M8 4C8 2.89543 8.89543 2 10 2C11.1046 2 12 2.89543 12 4V16C12 17.1046 11.1046 18 10 18C8.89543 18 8 17.1046 8 16V4ZM10 3C9.44772 3 9 3.44772 9 4V16C9 16.5523 9.44772 17 10 17C10.5523 17 11 16.5523 11 16V4C11 3.44772 10.5523 3 10 3ZM2 12C2 10.8954 2.89543 10 4 10C5.10457 10 6 10.8954 6 12V16C6 17.1046 5.10457 18 4 18C2.89543 18 2 17.1046 2 16V12ZM4 11C3.44772 11 3 11.4477 3 12V16C3 16.5523 3.44772 17 4 17C4.55228 17 5 16.5523 5 16V12C5 11.4477 4.55228 11 4 11ZM16 6C14.8954 6 14 6.89543 14 8V16C14 17.1046 14.8954 18 16 18C17.1046 18 18 17.1046 18 16V8C18 6.89543 17.1046 6 16 6ZM15 8C15 7.44772 15.4477 7 16 7C16.5523 7 17 7.44772 17 8V16C17 16.5523 16.5523 17 16 17C15.4477 17 15 16.5523 15 16V8Z" fill="#212121"/>
<circle cx="17.5" cy="2.5" r="3" fill="#212121" stroke="#E5E5E5"/>
</g>
<defs>
<clipPath id="bpclip0_557_730">
<rect width="20" height="20" fill="white"/>
</clipPath>
</defs>
</symbol><symbol viewBox="0 0 12 12" id="protection_12_regular" xmlns="http://www.w3.org/2000/svg">
<path d="M4 4V3C4 1.89543 4.89543 1 6 1C7.10457 1 8 1.89543 8 3V4H9C9.55228 4 10 4.44772 10 5V10C10 10.5523 9.55228 11 9 11H3C2.44772 11 2 10.5523 2 10V5C2 4.44772 2.44772 4 3 4H4ZM5 3V4H7V3C7 2.44772 6.55228 2 6 2C5.44772 2 5 2.44772 5 3ZM3 10H9V5H3V10Z"/>
</symbol><symbol viewBox="0 0 14 14" id="protection_14_regular" xmlns="http://www.w3.org/2000/svg">
<path d="M5 5V4C5 2.89543 5.89543 2 7 2C8.10457 2 9 2.89543 9 4V5H10C10.5523 5 11 5.44772 11 6V11C11 11.5523 10.5523 12 10 12H4C3.44772 12 3 11.5523 3 11V6C3 5.44772 3.44772 5 4 5H5ZM6 4V5H8V4C8 3.44772 7.55228 3 7 3C6.44772 3 6 3.44772 6 4ZM4 11H10V6H4V11Z"/>
</symbol><symbol viewBox="0 0 12 12" fill="none" id="question_circle_12_regular" xmlns="http://www.w3.org/2000/svg">
  <path d="M5.26705 4.21219C5.10282 4.33427 5 4.50363 5 4.75171C5 5.02785 4.77614 5.25171 4.5 5.25171C4.22386 5.25171 4 5.02785 4 4.75171C4 4.16354 4.27218 3.70572 4.67045 3.40965C5.05437 3.12425 5.53998 2.9973 5.99992 2.99722C6.45986 2.99715 6.94547 3.12395 7.32941 3.40916C7.72772 3.70504 8 4.16271 8 4.75076C8 5.17968 7.86473 5.50631 7.63277 5.75722C7.44992 5.955 7.21523 6.0898 7.05355 6.18266L7.0017 6.21257C6.81473 6.32151 6.70614 6.39676 6.63123 6.49451C6.56831 6.57661 6.5 6.7145 6.5 6.99858C6.5 7.27472 6.27614 7.49858 6 7.49858C5.72386 7.49858 5.5 7.27472 5.5 6.99858C5.5 6.53296 5.61919 6.17108 5.83752 5.8862C6.04386 5.61698 6.31027 5.45807 6.4983 5.34852L6.52577 5.33252C6.72277 5.21783 6.82413 5.15881 6.89848 5.07838C6.94777 5.02507 7 4.94604 7 4.75076C7 4.50303 6.89728 4.33388 6.73309 4.2119C6.55453 4.07926 6.29014 3.99718 6.00008 3.99722C5.71002 3.99727 5.44563 4.07944 5.26705 4.21219ZM6 9C6.27614 9 6.5 8.77614 6.5 8.5C6.5 8.22386 6.27614 8 6 8C5.72386 8 5.5 8.22386 5.5 8.5C5.5 8.77614 5.72386 9 6 9ZM1 6C1 3.23858 3.23858 1 6 1C8.76142 1 11 3.23858 11 6C11 8.76142 8.76142 11 6 11C3.23858 11 1 8.76142 1 6ZM6 2C3.79086 2 2 3.79086 2 6C2 8.20914 3.79086 10 6 10C8.20914 10 10 8.20914 10 6C10 3.79086 8.20914 2 6 2Z" fill="#212121"/>
</symbol><symbol viewBox="0 0 14 14" id="refresh_14_regular" xmlns="http://www.w3.org/2000/svg">
<path d="M2.75 1.375C2.75 1.16789 2.58211 1 2.375 1C2.16789 1 2 1.16789 2 1.375V5.05C2 5.29853 2.20147 5.5 2.45 5.5H6.125C6.33211 5.5 6.5 5.33211 6.5 5.125C6.5 4.91789 6.33211 4.75 6.125 4.75H3.42952L6.03404 2.48593C7.28448 1.39893 9.17935 1.53144 10.2663 2.78188C11.3533 4.03232 11.2208 5.92719 9.97039 7.01418L3.84146 12.342C3.68516 12.4779 3.6686 12.7147 3.80447 12.871C3.94034 13.0273 4.1772 13.0439 4.33351 12.908L10.4624 7.58022C12.0255 6.22147 12.1911 3.85289 10.8324 2.28983C9.47363 0.72678 7.10505 0.561154 5.54199 1.9199L2.75 4.34694V1.375Z"/>
</symbol><symbol viewBox="0 0 20 20" id="refresh_20_regular" xmlns="http://www.w3.org/2000/svg">
<path d="M5 2.5C5 2.22386 4.77614 2 4.5 2C4.22386 2 4 2.22386 4 2.5V7.4C4 7.73137 4.26863 8 4.6 8H9.5C9.77614 8 10 7.77614 10 7.5C10 7.22386 9.77614 7 9.5 7H5.90603L9.37872 3.98124C11.046 2.53191 13.5725 2.70858 15.0218 4.37584C16.4711 6.0431 16.2945 8.56959 14.6272 10.0189L6.45529 17.1226C6.24688 17.3038 6.2248 17.6196 6.40596 17.828C6.58713 18.0364 6.90294 18.0585 7.11135 17.8774L15.2833 10.7736C17.3673 8.96197 17.5882 5.80385 15.7765 3.71978C13.9648 1.63571 10.8067 1.41487 8.72266 3.22653L5 6.46259V2.5Z"/>
</symbol><symbol viewBox="0 0 14 14" id="report_14_filled" xmlns="http://www.w3.org/2000/svg">
<path d="M7 1C6.17157 1 5.5 1.67157 5.5 2.5V11.5C5.5 12.3284 6.17157 13 7 13C7.82843 13 8.5 12.3284 8.5 11.5V2.5C8.5 1.67157 7.82843 1 7 1ZM2.5 7C1.67157 7 1 7.67157 1 8.5V11.5C1 12.3284 1.67157 13 2.5 13C3.32843 13 4 12.3284 4 11.5V8.5C4 7.67157 3.32843 7 2.5 7ZM11.5 4C10.6716 4 10 4.67157 10 5.5V11.5C10 12.3284 10.6716 13 11.5 13C12.3284 13 13 12.3284 13 11.5V5.5C13 4.67157 12.3284 4 11.5 4Z"/>
</symbol><symbol viewBox="0 0 15 14" id="report_14_regular" xmlns="http://www.w3.org/2000/svg">
<path d="M7.06549 1C6.11872 1 5.35121 1.76751 5.35121 2.71429V11.2857C5.35121 12.2325 6.11872 13 7.06549 13C8.01227 13 8.77978 12.2325 8.77978 11.2857V2.71429C8.77978 1.76751 8.01227 1 7.06549 1ZM7.92263 2.71429V11.2857C7.92263 11.7591 7.53887 12.1429 7.06549 12.1429C6.59211 12.1429 6.20835 11.7591 6.20835 11.2857V2.71429C6.20835 2.2409 6.59211 1.85714 7.06549 1.85714C7.53887 1.85714 7.92263 2.2409 7.92263 2.71429ZM2.77978 6.14286C1.833 6.14286 1.06549 6.91037 1.06549 7.85714V11.2857C1.06549 12.2325 1.833 13 2.77978 13C3.72655 13 4.49406 12.2325 4.49406 11.2857V7.85714C4.49406 6.91037 3.72655 6.14286 2.77978 6.14286ZM3.63692 11.2857C3.63692 11.7591 3.25316 12.1429 2.77978 12.1429C2.30639 12.1429 1.92263 11.7591 1.92263 11.2857V7.85714C1.92263 7.38376 2.30639 7 2.77978 7C3.25316 7 3.63692 7.38376 3.63692 7.85714V11.2857ZM9.63692 6.14286C9.63692 5.19608 10.4044 4.42857 11.3512 4.42857C12.298 4.42857 13.0655 5.19608 13.0655 6.14286V11.2857C13.0655 12.2325 12.298 13 11.3512 13C10.4044 13 9.63692 12.2325 9.63692 11.2857V6.14286ZM12.2083 6.14286C12.2083 5.66947 11.8246 5.28571 11.3512 5.28571C10.8778 5.28571 10.4941 5.66947 10.4941 6.14286V11.2857C10.4941 11.7591 10.8778 12.1429 11.3512 12.1429C11.8246 12.1429 12.2083 11.7591 12.2083 11.2857V6.14286Z"/>
</symbol><symbol viewBox="0 0 20 20" id="report_20_regular" xmlns="http://www.w3.org/2000/svg">
<path d="M8 4C8 2.89543 8.89543 2 10 2C11.1046 2 12 2.89543 12 4V16C12 17.1046 11.1046 18 10 18C8.89543 18 8 17.1046 8 16V4ZM10 3C9.44772 3 9 3.44772 9 4V16C9 16.5523 9.44772 17 10 17C10.5523 17 11 16.5523 11 16V4C11 3.44772 10.5523 3 10 3ZM2 12C2 10.8954 2.89543 10 4 10C5.10457 10 6 10.8954 6 12V16C6 17.1046 5.10457 18 4 18C2.89543 18 2 17.1046 2 16V12ZM4 11C3.44772 11 3 11.4477 3 12V16C3 16.5523 3.44772 17 4 17C4.55228 17 5 16.5523 5 16V12C5 11.4477 4.55228 11 4 11ZM16 6C14.8954 6 14 6.89543 14 8V16C14 17.1046 14.8954 18 16 18C17.1046 18 18 17.1046 18 16V8C18 6.89543 17.1046 6 16 6ZM15 8C15 7.44772 15.4477 7 16 7C16.5523 7 17 7.44772 17 8V16C17 16.5523 16.5523 17 16 17C15.4477 17 15 16.5523 15 16V8Z"/>
</symbol><symbol viewBox="0 0 14 14" id="reset_14_regular" xmlns="http://www.w3.org/2000/svg">
<path d="M3.72222 8.11111C3.72222 7.83497 3.49836 7.61111 3.22222 7.61111C2.94608 7.61111 2.72222 7.83497 2.72222 8.11111H3.72222ZM1 3.22222L0.646447 2.86867C0.451184 3.06393 0.451184 3.38051 0.646447 3.57578L1 3.22222ZM3.57578 1.35355C3.77104 1.15829 3.77104 0.841709 3.57578 0.646447C3.38051 0.451184 3.06393 0.451184 2.86867 0.646447L3.57578 1.35355ZM2.86867 5.798C3.06393 5.99326 3.38051 5.99326 3.57578 5.798C3.77104 5.60274 3.77104 5.28615 3.57578 5.09089L2.86867 5.798ZM12.5 8.11111C12.5 10.535 10.535 12.5 8.11111 12.5V13.5C11.0873 13.5 13.5 11.0873 13.5 8.11111H12.5ZM8.11111 12.5C5.68719 12.5 3.72222 10.535 3.72222 8.11111H2.72222C2.72222 11.0873 5.13491 13.5 8.11111 13.5V12.5ZM8.11111 3.72222C10.535 3.72222 12.5 5.68719 12.5 8.11111H13.5C13.5 5.13491 11.0873 2.72222 8.11111 2.72222V3.72222ZM8.11111 2.72222H1V3.72222H8.11111V2.72222ZM1.35355 3.57578L3.57578 1.35355L2.86867 0.646447L0.646447 2.86867L1.35355 3.57578ZM0.646447 3.57578L2.86867 5.798L3.57578 5.09089L1.35355 2.86867L0.646447 3.57578Z"/>
</symbol><symbol viewBox="0 0 20 20" id="reset_20_regular" xmlns="http://www.w3.org/2000/svg">
<path d="M5.85355 2.64645C6.04882 2.84171 6.04882 3.15829 5.85355 3.35355L4.20711 5H11C14.3137 5 17 7.68629 17 11C17 14.3137 14.3137 17 11 17C7.68629 17 5 14.3137 5 11C5 10.7239 5.22386 10.5 5.5 10.5C5.77614 10.5 6 10.7239 6 11C6 13.7614 8.23858 16 11 16C13.7614 16 16 13.7614 16 11C16 8.23858 13.7614 6 11 6H4.20711L5.85355 7.64645C6.04882 7.84171 6.04882 8.15829 5.85355 8.35355C5.65829 8.54882 5.34171 8.54882 5.14645 8.35355L2.64645 5.85355C2.45118 5.65829 2.45118 5.34171 2.64645 5.14645L5.14645 2.64645C5.34171 2.45118 5.65829 2.45118 5.85355 2.64645Z"/>
</symbol><symbol viewBox="0 0 13 12" id="window_12_regular" xmlns="http://www.w3.org/2000/svg">
<path d="M5.61095 5.75879C5.61095 5.63568 5.65593 5.52915 5.74589 5.43919L9.5172 1.66788H6.97458C6.85148 1.66788 6.74494 1.6229 6.65498 1.53294C6.56502 1.44297 6.52004 1.33644 6.52004 1.21333C6.52004 1.09023 6.56502 0.983694 6.65498 0.893732C6.74494 0.80377 6.85148 0.758789 6.97458 0.758789H10.6109C10.7341 0.758789 10.8406 0.801403 10.9305 0.88663C11.0205 0.971857 11.0655 1.07602 11.0655 1.19913V4.8497C11.0655 4.9728 11.0205 5.07934 10.9305 5.1693C10.8406 5.25926 10.7341 5.30424 10.6109 5.30424C10.4878 5.30424 10.3813 5.25926 10.2913 5.1693C10.2014 5.07934 10.1564 4.9728 10.1564 4.8497V2.30708L6.38509 6.07839C6.29513 6.16835 6.1886 6.21333 6.06549 6.21333C5.94238 6.21333 5.83585 6.16835 5.74589 6.07839C5.65593 5.98843 5.61095 5.8819 5.61095 5.75879ZM2.84816 10.7588C2.61142 10.7588 2.38651 10.7114 2.17345 10.6167C1.96038 10.522 1.77098 10.3918 1.60526 10.2261C1.43954 10.0604 1.30934 9.87101 1.21464 9.65794C1.11994 9.44487 1.07023 9.2176 1.06549 8.97612V3.45055C1.06549 3.21381 1.11284 2.9889 1.20754 2.77583C1.30223 2.56277 1.43244 2.37337 1.59816 2.20765C1.76388 2.04193 1.95327 1.91172 2.16634 1.81703C2.37941 1.72233 2.60668 1.67261 2.84816 1.66788H5.1564C5.27951 1.66788 5.38604 1.71286 5.476 1.80282C5.56596 1.89279 5.61095 1.99932 5.61095 2.12243C5.61095 2.24553 5.56596 2.35207 5.476 2.44203C5.38604 2.53199 5.27951 2.57697 5.1564 2.57697H2.88367C2.75583 2.57697 2.63746 2.60065 2.52856 2.64799C2.41966 2.69534 2.32496 2.75926 2.24447 2.83976C2.16398 2.92025 2.09769 3.01731 2.0456 3.13095C1.99352 3.24458 1.96985 3.36296 1.97458 3.48606V8.94061C1.97458 9.06845 1.99826 9.18682 2.0456 9.29572C2.09295 9.40462 2.15687 9.50169 2.23737 9.58691C2.31786 9.67214 2.41256 9.73606 2.52146 9.77868C2.63036 9.82129 2.7511 9.84496 2.88367 9.8497H8.33822C8.46606 9.8497 8.58443 9.82602 8.69333 9.77868C8.80223 9.73133 8.89693 9.66741 8.97742 9.58691C9.05792 9.50642 9.1242 9.40936 9.17629 9.29572C9.22837 9.18208 9.25204 9.06371 9.24731 8.94061V6.66788C9.24731 6.54477 9.29229 6.43824 9.38225 6.34828C9.47221 6.25832 9.57875 6.21333 9.70185 6.21333C9.82496 6.21333 9.93149 6.25832 10.0215 6.34828C10.1114 6.43824 10.1564 6.54477 10.1564 6.66788V8.97612C10.1564 9.21286 10.1091 9.43777 10.0144 9.65083C9.91966 9.8639 9.78945 10.0533 9.62373 10.219C9.45801 10.3847 9.26862 10.5149 9.05555 10.6096C8.84248 10.7043 8.61521 10.7541 8.37373 10.7588H2.84816Z"/>
</symbol><symbol viewBox="0 0 14 14" id="window_14_regular" xmlns="http://www.w3.org/2000/svg">
<path d="M6.5 4.5C6.5 4.22386 6.72386 4 7 4H9.5C9.7761 4 10 4.22386 10 4.5V7C10 7.27614 9.7761 7.5 9.5 7.5C9.2239 7.5 9 7.27614 9 7V5.70711L6.35355 8.35355C6.15829 8.54882 5.84171 8.54882 5.64645 8.35355C5.45118 8.15829 5.45118 7.84171 5.64645 7.64645L8.29289 5H7C6.72386 5 6.5 4.77614 6.5 4.5ZM3.13332 2.69238C3.46915 1.70798 4.4019 1 5.5 1H10.5C11.8807 1 13 2.11929 13 3.5V8.5C13 9.5981 12.2921 10.5308 11.3077 10.8667V11.2308C11.3077 11.5665 11.1906 11.9937 10.9162 12.3469C10.6272 12.7191 10.1682 13.0001 9.5385 13.0001H3.76923C2.22385 13.0001 1 11.7761 1 10.2308V4.46161C1 3.91317 1.19723 3.45581 1.54568 3.13948C1.88637 2.8302 2.33074 2.69238 2.76923 2.69238H3.13332ZM3 3.69238H2.76923C2.53343 3.69238 2.34318 3.7661 2.21783 3.8799C2.10025 3.98664 2 4.1639 2 4.46161V10.2308C2 11.2239 2.77615 12.0001 3.76923 12.0001H9.5385C9.8375 12.0001 10.0131 11.8795 10.1265 11.7335C10.2546 11.5686 10.3077 11.3612 10.3077 11.2308V11H5.5C4.11929 11 3 9.8807 3 8.5V3.69238ZM5.5 2C4.67157 2 4 2.67157 4 3.5V8.5C4 9.3284 4.67157 10 5.5 10H10.5C11.3284 10 12 9.3284 12 8.5V3.5C12 2.67157 11.3284 2 10.5 2H5.5Z"/>
</symbol></svg>