<?xml version="1.0" encoding="utf-8"?><svg xmlns="http://www.w3.org/2000/svg" xmlns:xlink="http://www.w3.org/1999/xlink"><symbol viewBox="0 0 16 16" fill="none" id="accessible_pdf_color_16_filled" xmlns="http://www.w3.org/2000/svg">
<path d="M3.5 15H12.5C12.775 15 13 14.775 13 14.5V5H11.5C10.673 5 10 4.327 10 3.5V1H3.5C3.225 1 3 1.225 3 1.5V14.5C3 14.775 3.225 15 3.5 15Z" fill="white"/>
<path d="M13 4.00003V3.91403C13.0004 3.78159 12.9478 3.65449 12.854 3.56103L11 1.70703V3.50003C11 3.77503 11.225 4.00003 11.5 4.00003H13Z" fill="white"/>
<path opacity="0.64" fill-rule="evenodd" clip-rule="evenodd" d="M13.56 2.853L11.146 0.44C10.8643 0.159539 10.4835 0.00143923 10.086 0H3.5C2.673 0 2 0.673 2 1.5V14.5C2 15.327 2.673 16 3.5 16H12.5C13.327 16 14 15.327 14 14.5V3.914C14 3.514 13.844 3.137 13.56 2.854V2.853ZM12.853 3.561C12.948 3.655 13 3.781 13 3.914V4H11.5C11.2241 3.99945 11.0006 3.77591 11 3.5V1.707L12.854 3.561H12.853ZM3.5 15H12.5C12.775 15 13 14.775 13 14.5V5H11.5C10.673 5 10 4.327 10 3.5V1H3.5C3.225 1 3 1.225 3 1.5V14.5C3.00055 14.7759 3.22409 14.9994 3.5 15Z" fill="#242424"/>
<path d="M11.5 8H4.5C4.22386 8 4 7.77614 4 7.5C4 7.22386 4.22386 7 4.5 7H11.5C11.7761 7 12 7.22386 12 7.5C12 7.77614 11.7761 8 11.5 8Z" fill="#C8C6C4"/>
<path fill-rule="evenodd" clip-rule="evenodd" d="M5 13V10C5 9.44772 5.44772 9 6 9H10C10.5523 9 11 9.44772 11 10V13C11 13.5523 10.5523 14 10 14H6C5.44772 14 5 13.5523 5 13ZM1.5 13H3.8C3.91046 13 4 12.9105 4 12.8V10.2C4 10.09 3.91 10 3.8 10H1.5C1.22386 10 1 10.2239 1 10.5V12.5C1 12.7761 1.22386 13 1.5 13ZM12.2 13H14.5C14.7761 13 15 12.7761 15 12.5V10.5C15 10.2239 14.7761 10 14.5 10H12.2C12.09 10 12 10.09 12 10.2V12.8C12 12.9105 12.0895 13 12.2 13ZM9.8 13H6.2C6.08954 13 6 12.9105 6 12.8V10.2C6 10.09 6.09 10 6.2 10H9.8C9.91 10 10 10.084 10 10.194V12.806C10 12.916 9.91 13 9.8 13Z" fill="#D65532"/>
</symbol><symbol viewBox="0 0 32 32" fill="none" id="checkmark_16_regular" xmlns="http://www.w3.org/2000/svg">
<path d="M21.8639 11.6561C22.0533 11.857 22.0439 12.1735 21.8429 12.3629L13.9131 19.8368C13.6757 20.0605 13.3031 20.0536 13.0742 19.8213L10.3938 17.1009C10.2 16.9042 10.2024 16.5877 10.3991 16.3938C10.5958 16.2 10.9124 16.2024 11.1062 16.3991L13.5119 18.8407L21.1571 11.6352C21.358 11.4458 21.6745 11.4551 21.8639 11.6561Z" fill="#212121"/>
</symbol><symbol viewBox="0 0 16 16" fill="none" id="csv_color_16_filled" xmlns="http://www.w3.org/2000/svg">
<path d="M5.5 15H14.5C14.775 15 15 14.775 15 14.5V5H13.5C12.673 5 12 4.327 12 3.5V1H5.5C5.225 1 5 1.225 5 1.5V14.5C5 14.775 5.225 15 5.5 15Z" fill="white"/>
<path d="M15 4.00003V3.91403C15.0004 3.78159 14.9478 3.65449 14.854 3.56103L13 1.70703V3.50003C13 3.77503 13.225 4.00003 13.5 4.00003H15Z" fill="white"/>
<path opacity="0.64" fill-rule="evenodd" clip-rule="evenodd" d="M15.56 2.853L13.146 0.44C12.8643 0.159539 12.4835 0.00143923 12.086 0H5.5C4.673 0 4 0.673 4 1.5V14.5C4 15.327 4.673 16 5.5 16H14.5C15.327 16 16 15.327 16 14.5V3.914C16 3.514 15.844 3.137 15.56 2.854V2.853ZM14.853 3.561C14.948 3.655 15 3.781 15 3.914V4H13.5C13.2241 3.99945 13.0006 3.77591 13 3.5V1.707L14.854 3.561H14.853ZM5.5 15H14.5C14.775 15 15 14.775 15 14.5V5H13.5C12.673 5 12 4.327 12 3.5V1H5.5C5.225 1 5 1.225 5 1.5V14.5C5.00055 14.7759 5.22409 14.9994 5.5 15Z" fill="#242424"/>
<path d="M1 13H8C8.55229 13 9 12.5523 9 12V5C9 4.44772 8.55229 4 8 4H1C0.447715 4 0 4.44772 0 5V12C0 12.5523 0.447715 13 1 13Z" fill="#107C41"/>
<path d="M5.41201 11L2.76501 6H3.58801L6.27801 11H5.41201Z" fill="white"/>
<path d="M3.63101 11L6.27801 6H5.45501L2.76501 11H3.63101Z" fill="white"/>
<path fill-rule="evenodd" clip-rule="evenodd" d="M13.064 11H13.843V7.819C13.843 6.606 13.271 6 12.127 6C11.859 6 11.552 6.05 11.207 6.15C10.862 6.25 10.618 6.353 10.476 6.46V7.258C10.948 6.863 11.476 6.665 12.062 6.665C12.73 6.665 13.064 7.076 13.064 7.9L11.606 8.104C10.535 8.256 10 8.784 10 9.69C10 10.121 10.142 10.463 10.424 10.718C10.705 10.973 11.081 11.1 11.549 11.1C12.207 11.1 12.706 10.807 13.045 10.222H13.064V11ZM11.886 8.687L13.064 8.521V9.006C13.064 9.414 12.938 9.754 12.686 10.027C12.435 10.299 12.115 10.435 11.729 10.435C11.457 10.435 11.234 10.362 11.059 10.214C10.885 10.068 10.798 9.872 10.798 9.628C10.798 9.327 10.88 9.11 11.04 8.975C11.202 8.841 11.484 8.744 11.886 8.687Z" fill="#33C481"/>
</symbol><symbol fill="currentColor" viewBox="0 0 16 16" id="datatype_binary_16_regular" xmlns="http://www.w3.org/2000/svg"><path d="M5.504 4.001c-.935 0-1.597.437-1.996 1.13-.376.653-.504 1.507-.504 2.37 0 .863.128 1.717.504 2.37.399.693 1.061 1.13 1.996 1.13S7.1 10.564 7.5 9.871c.376-.653.504-1.507.504-2.37 0-.863-.128-1.717-.504-2.37C7.1 4.437 6.439 4 5.504 4Zm-1.5 3.5c0-.794.122-1.44.37-1.872.227-.393.565-.628 1.13-.628s.903.235 1.13.628c.248.432.37 1.079.37 1.872 0 .793-.122 1.44-.37 1.872-.227.393-.565.628-1.13.628s-.903-.235-1.13-.628c-.248-.432-.37-1.079-.37-1.872Zm7.732-3.441a.5.5 0 0 1 .264.441v6a.5.5 0 0 1-1 0V5.435l-.723.482a.5.5 0 1 1-.554-.832l1.5-1a.5.5 0 0 1 .513-.025Z"/></symbol><symbol id="datatype_blank_16_regular" viewBox="0 0 16 16" xmlns="http://www.w3.org/2000/svg"><defs><style>.aeb{fill:none;}</style></defs><rect class="aeb" width="16" height="16"/></symbol><symbol fill="currentColor" viewBox="0 0 16 16" id="datatype_boolean_16_regular" xmlns="http://www.w3.org/2000/svg"><path d="M10.98 1.614a.5.5 0 1 0-.959-.288L6.396 13.388a.5.5 0 1 0 .958.288L10.98 1.614ZM3.504 4c-.935 0-1.597.438-1.996 1.13-.376.654-.504 1.508-.504 2.37 0 .864.128 1.718.504 2.372C1.907 10.564 2.57 11 3.504 11S5.1 10.564 5.5 9.87c.376-.653.504-1.507.504-2.37 0-.864-.128-1.717-.504-2.37C5.1 4.437 4.439 4 3.504 4Zm-1.5 3.5c0-.793.122-1.44.37-1.871.227-.393.565-.628 1.13-.628s.903.235 1.13.628c.248.432.37 1.078.37 1.872 0 .793-.122 1.44-.37 1.872-.227.393-.565.628-1.13.628s-.903-.235-1.13-.628c-.248-.432-.37-1.079-.37-1.872Zm11.732-3.44A.5.5 0 0 1 14 4.5v6a.5.5 0 0 1-1 0V5.436l-.723.482a.5.5 0 0 1-.554-.832l1.5-1a.5.5 0 0 1 .513-.025Z"/></symbol><symbol fill="currentColor" viewBox="0 0 16 16" id="datatype_double_16_regular" xmlns="http://www.w3.org/2000/svg"><path d="M10.763 5.06a1.107 1.107 0 0 0-.43-.057.498.498 0 0 1-.065 0 1.215 1.215 0 0 0-1.184.709.5.5 0 0 1-.91-.415A2.215 2.215 0 0 1 10.3 4.004a2.107 2.107 0 0 1 2.184 1.734.5.5 0 0 1 .029.17v.075c.004.25.01.692-.215 1.156-.257.528-.77 1.02-1.7 1.442-.992.448-1.359.94-1.499 1.255l-.03.071h2.944a.5.5 0 0 1 0 1h-3.5a.5.5 0 0 1-.489-.395v-.003l-.001-.004-.002-.01a.888.888 0 0 1-.014-.1 1.617 1.617 0 0 1-.003-.234c.01-.191.054-.446.182-.732.26-.583.833-1.232 2-1.76.79-.357 1.088-.712 1.212-.967.112-.23.116-.435.115-.674a1.105 1.105 0 0 0-.75-.969Zm-6.027-1A.5.5 0 0 1 5 4.501v6a.5.5 0 0 1-1 0V5.435l-.723.482a.5.5 0 1 1-.554-.832l1.5-1a.5.5 0 0 1 .513-.025ZM7 10.5a.5.5 0 1 1-1 0 .5.5 0 0 1 1 0Z"/></symbol><symbol fill="currentColor" viewBox="0 0 16 16" id="datatype_float_16_regular" xmlns="http://www.w3.org/2000/svg"><path d="M12.146 4.147a.5.5 0 0 0-.146.354v6a.5.5 0 0 0 1 0v-2.5h1.5a.5.5 0 0 0 0-1H13v-2h2.5a.5.5 0 0 0 0-1h-3a.5.5 0 0 0-.354.146Zm-9.41-.087A.5.5 0 0 1 3 4.501v6a.5.5 0 0 1-1 0V5.435l-.723.482a.5.5 0 1 1-.554-.832l1.5-1a.5.5 0 0 1 .513-.025ZM5 10.5a.5.5 0 1 1-1 0 .5.5 0 0 1 1 0Zm3.25-6.499A2.25 2.25 0 0 0 6 6.251a.5.5 0 0 0 1 0 1.25 1.25 0 1 1 2.5.031l.002.03a1.44 1.44 0 0 1-.512.899l-1.584.915A2.59 2.59 0 0 0 6 10.518a.5.5 0 0 0 .5.483H10a.5.5 0 1 0 0-1H7.057a1.59 1.59 0 0 1 .839-1.002l1.627-.941a.499.499 0 0 0 .057-.039 2.44 2.44 0 0 0 .92-1.627.494.494 0 0 0 .003-.092l-.004-.066a2.25 2.25 0 0 0-2.25-2.233Z"/></symbol><symbol fill="currentColor" viewBox="0 0 16 16" id="datatype_integer_16_regular" xmlns="http://www.w3.org/2000/svg"><path d="M4.658 4.66A2.25 2.25 0 0 1 8.5 6.234l.004.066a.5.5 0 0 1-.002.092 2.44 2.44 0 0 1-.921 1.627.499.499 0 0 1-.057.039l-1.627.94A1.59 1.59 0 0 0 5.058 10h2.941a.5.5 0 1 1 0 1.001H4.5a.5.5 0 0 1-.5-.483 2.59 2.59 0 0 1 1.407-2.392l1.584-.915a1.44 1.44 0 0 0 .512-.898l-.002-.03A2.25 2.25 0 0 1 4.658 4.66Zm-1.922-.6A.5.5 0 0 1 3 4.501v6a.5.5 0 0 1-1 0V5.435l-.723.482a.5.5 0 1 1-.554-.832l1.5-1a.5.5 0 0 1 .513-.025Zm7.095 1.566A2.494 2.494 0 0 1 11.497 5h.003c.598 0 .98.162 1.203.35a.8.8 0 0 1 .303.638C12.996 6.399 12.603 7 11.5 7a.5.5 0 0 0 0 1c.61 0 1 .163 1.225.352a.79.79 0 0 1 .304.634C13.018 9.394 12.618 10 11.5 10h-.003a2.494 2.494 0 0 1-1.666-.625.5.5 0 1 0-.662.75c.644.568 1.474.88 2.332.875 1.502 0 2.497-.893 2.528-1.986a1.788 1.788 0 0 0-.662-1.428 2.123 2.123 0 0 0-.141-.109c.484-.365.766-.888.78-1.464a1.8 1.8 0 0 0-.657-1.426C12.907 4.213 12.277 4 11.501 4a3.494 3.494 0 0 0-2.332.875.5.5 0 1 0 .662.75Z"/></symbol><symbol fill="currentColor" viewBox="0 0 16 16" id="datatype_long_16_regular" xmlns="http://www.w3.org/2000/svg"><path d="M5.658 4.66A2.25 2.25 0 0 1 9.5 6.234l.004.066a.5.5 0 0 1-.002.092 2.44 2.44 0 0 1-.921 1.627.499.499 0 0 1-.057.039l-1.627.94A1.59 1.59 0 0 0 6.058 10h2.941a.5.5 0 1 1 0 1.001H5.5a.5.5 0 0 1-.5-.483 2.59 2.59 0 0 1 1.407-2.392l1.584-.915a1.44 1.44 0 0 0 .512-.898l-.002-.03A2.25 2.25 0 0 1 5.658 4.66Zm-1.922-.6A.5.5 0 0 1 4 4.501v6a.5.5 0 0 1-1 0V5.435l-.723.482a.5.5 0 1 1-.554-.832l1.5-1a.5.5 0 0 1 .513-.025ZM12 4.501a.5.5 0 0 0-1 0v6a.5.5 0 0 0 .5.5h3a.5.5 0 0 0 0-1H12v-5.5Z"/></symbol><symbol fill="currentColor" viewBox="0 0 16 16" id="datatype_string_16_regular" xmlns="http://www.w3.org/2000/svg"><path d="M2.943 5.001a.5.5 0 0 1 .464.333l1.774 5a.5.5 0 0 1-.942.334l-.237-.667H1.73l-.264.68a.5.5 0 0 1-.932-.36l1.935-5A.5.5 0 0 1 2.943 5Zm-.826 4h1.53l-.732-2.062L2.117 9Zm4.383-4h1.503c.162 0 .602 0 1.008.228.214.12.418.303.564.57.144.265.219.585.219.96 0 .456-.125.811-.32 1.078.148.106.287.246.398.428.162.267.246.594.246.978 0 .751-.352 1.227-.798 1.487a2.196 2.196 0 0 1-1.07.27H6.5a.5.5 0 0 1-.5-.5v-5a.5.5 0 0 1 .5-.5Zm1.5 1H7v1.5h1.024c.12 0 .33-.023.494-.123.125-.075.276-.221.276-.618 0-.245-.048-.393-.096-.48a.44.44 0 0 0-.177-.18c-.16-.089-.363-.099-.52-.099Zm-1 2.5v1.5h1.25c.14 0 .38-.027.567-.136.148-.086.301-.239.301-.622 0-.137-.017-.24-.04-.32a.644.644 0 0 0-.06-.138.474.474 0 0 0-.204-.18c-.195-.097-.441-.104-.628-.104H7Zm8.408-1.97c-.246-.687-.604-1.107-1.053-1.329-.41-.201-.834-.201-1.109-.201h-.027c-.554 0-.994.19-1.327.487-.322.288-.521.656-.646.99a4.065 4.065 0 0 0-.245 1.288v.026L11 7.8v.026c0 .383 0 1.085.25 1.724.13.335.334.669.656.936.325.268.742.445 1.257.503.417.046 1.663.013 2.23-1.246a.5.5 0 1 0-.911-.41c-.293.648-.93.693-1.208.662-.344-.039-.571-.149-.73-.28a1.264 1.264 0 0 1-.363-.528c-.176-.45-.181-.982-.181-1.383V7.79l.003-.059a3.278 3.278 0 0 1 .18-.905c.09-.242.214-.45.375-.593.15-.135.355-.233.66-.233.304 0 .51.008.694.098.158.078.371.257.555.769a.5.5 0 0 0 .941-.338Z"/></symbol><symbol viewBox="0 0 18 18" id="document_add_16_regular" xmlns="http://www.w3.org/2000/svg">
<path d="M3.09131 15.625C2.70166 15.625 2.33057 15.5477 1.97803 15.3931C1.62549 15.2384 1.31934 15.0282 1.05957 14.7622C0.799805 14.4963 0.589518 14.187 0.428711 13.8345C0.267904 13.4819 0.1875 13.1108 0.1875 12.7212V3.09131C0.1875 2.70166 0.264811 2.33057 0.419434 1.97803C0.574056 1.62549 0.784342 1.31934 1.05029 1.05957C1.31624 0.799805 1.62549 0.589518 1.97803 0.428711C2.33057 0.267904 2.70166 0.1875 3.09131 0.1875H12.7212C13.1108 0.1875 13.4819 0.264811 13.8345 0.419434C14.187 0.574056 14.4932 0.784342 14.7529 1.05029C15.0127 1.31624 15.223 1.62549 15.3838 1.97803C15.5446 2.33057 15.625 2.70166 15.625 3.09131V6.50537C15.2477 6.31982 14.8519 6.17139 14.4375 6.06006V3.15625C14.4375 2.91504 14.3911 2.6862 14.2983 2.46973C14.2056 2.25326 14.0788 2.06462 13.918 1.90381C13.7572 1.743 13.5654 1.61312 13.3428 1.51416C13.1201 1.4152 12.8913 1.36882 12.6562 1.375H3.15625C2.91504 1.375 2.6862 1.42139 2.46973 1.51416C2.25326 1.60693 2.06462 1.73372 1.90381 1.89453C1.743 2.05534 1.61312 2.24707 1.51416 2.46973C1.4152 2.69238 1.36882 2.92122 1.375 3.15625V12.6562C1.375 12.8975 1.42139 13.1263 1.51416 13.3428C1.60693 13.5592 1.73372 13.7479 1.89453 13.9087C2.05534 14.0695 2.24707 14.1994 2.46973 14.2983C2.69238 14.3973 2.92122 14.4437 3.15625 14.4375H6.06006C6.17139 14.8519 6.31982 15.2477 6.50537 15.625H3.09131ZM4.34375 4.9375C4.18294 4.9375 4.04378 4.87874 3.92627 4.76123C3.80876 4.64372 3.75 4.50456 3.75 4.34375C3.75 4.18294 3.80876 4.04378 3.92627 3.92627C4.04378 3.80876 4.18294 3.75 4.34375 3.75H11.4688C11.6296 3.75 11.7687 3.80876 11.8862 3.92627C12.0037 4.04378 12.0625 4.18294 12.0625 4.34375C12.0625 4.50456 12.0037 4.64372 11.8862 4.76123C11.7687 4.87874 11.6296 4.9375 11.4688 4.9375H4.34375ZM4.34375 8.5C4.18294 8.5 4.04378 8.44124 3.92627 8.32373C3.80876 8.20622 3.75 8.06706 3.75 7.90625C3.75 7.74544 3.80876 7.60628 3.92627 7.48877C4.04378 7.37126 4.18294 7.3125 4.34375 7.3125H8.40723C8.19075 7.48568 7.98356 7.67122 7.78564 7.86914C7.58773 8.06706 7.40527 8.27734 7.23828 8.5H4.34375ZM7.3125 12.6562C7.3125 11.9202 7.45166 11.2275 7.72998 10.5781C8.0083 9.92871 8.39176 9.36279 8.88037 8.88037C9.36898 8.39795 9.9349 8.01758 10.5781 7.73926C11.2214 7.46094 11.9141 7.31869 12.6562 7.3125C13.1449 7.3125 13.6149 7.37435 14.0664 7.49805C14.5179 7.62174 14.9447 7.80111 15.3467 8.03613C15.7487 8.27116 16.1105 8.55257 16.4321 8.88037C16.7537 9.20817 17.0321 9.56999 17.2671 9.96582C17.5021 10.3617 17.6815 10.7853 17.8052 11.2368C17.9289 11.6883 17.9938 12.1615 18 12.6562C18 13.3923 17.8608 14.085 17.5825 14.7344C17.3042 15.3838 16.9207 15.9497 16.4321 16.4321C15.9435 16.9146 15.3776 17.2949 14.7344 17.5732C14.0911 17.8516 13.3984 17.9938 12.6562 18C11.9141 18 11.2183 17.8608 10.5688 17.5825C9.91943 17.3042 9.35352 16.9238 8.87109 16.4414C8.38867 15.959 8.0083 15.3931 7.72998 14.7437C7.45166 14.0942 7.3125 13.3984 7.3125 12.6562ZM13.25 13.25H15.0312C15.1921 13.25 15.3312 13.1912 15.4487 13.0737C15.5662 12.9562 15.625 12.8171 15.625 12.6562C15.625 12.4954 15.5662 12.3563 15.4487 12.2388C15.3312 12.1213 15.1921 12.0625 15.0312 12.0625H13.25V10.2812C13.25 10.1204 13.1912 9.98128 13.0737 9.86377C12.9562 9.74626 12.8171 9.6875 12.6562 9.6875C12.4954 9.6875 12.3563 9.74626 12.2388 9.86377C12.1213 9.98128 12.0625 10.1204 12.0625 10.2812V12.0625H10.2812C10.1204 12.0625 9.98128 12.1213 9.86377 12.2388C9.74626 12.3563 9.6875 12.4954 9.6875 12.6562C9.6875 12.8171 9.74626 12.9562 9.86377 13.0737C9.98128 13.1912 10.1204 13.25 10.2812 13.25H12.0625V15.0312C12.0625 15.1921 12.1213 15.3312 12.2388 15.4487C12.3563 15.5662 12.4954 15.625 12.6562 15.625C12.8171 15.625 12.9562 15.5662 13.0737 15.4487C13.1912 15.3312 13.25 15.1921 13.25 15.0312V13.25Z"/>
</symbol><symbol viewBox="0 0 18 18" fill="none" id="dynamic_subscription_16_regular" xmlns="http://www.w3.org/2000/svg">
<path d="M2.74908 0C3.99122 0 4.99817 1.00695 4.99817 2.24908V15.7509C4.99817 16.9931 3.99122 18 2.74908 18C1.50695 18 0.5 16.9931 0.5 15.7509V2.24908C0.5 1.00695 1.50695 0 2.74908 0ZM9.24908 4C10.4912 4 11.4982 5.00695 11.4982 6.24908V15.7509C11.4982 16.9931 10.4912 18 9.24908 18C8.00695 18 7 16.9931 7 15.7509V6.24908C7 5.00695 8.00695 4 9.24908 4ZM15.7491 8C16.9912 8 17.9982 9.00695 17.9982 10.2491V15.7509C17.9982 16.9931 16.9912 18 15.7491 18C14.5069 18 13.5 16.9931 13.5 15.7509V10.2491C13.5 9.00695 14.5069 8 15.7491 8ZM2.74908 1.5C2.33538 1.5 2 1.83538 2 2.24908V15.7509C2 16.1646 2.33538 16.5 2.74908 16.5C3.16279 16.5 3.49817 16.1646 3.49817 15.7509V2.24908C3.49817 1.83538 3.16279 1.5 2.74908 1.5ZM9.24908 5.5C8.83538 5.5 8.5 5.83538 8.5 6.24908V15.7509C8.5 16.1646 8.83538 16.5 9.24908 16.5C9.66279 16.5 9.99817 16.1646 9.99817 15.7509V6.24908C9.99817 5.83538 9.66279 5.5 9.24908 5.5ZM15.7491 9.5C15.3354 9.5 15 9.83538 15 10.2491V15.7509C15 16.1646 15.3354 16.5 15.7491 16.5C16.1628 16.5 16.4982 16.1646 16.4982 15.7509V10.2491C16.4982 9.83538 16.1628 9.5 15.7491 9.5Z" fill="#616161"/>
</symbol><symbol viewBox="0 0 100 100" fill="none" id="empty_parameter_100_reqular" xmlns="http://www.w3.org/2000/svg">
<circle cx="50" cy="50" r="50" fill="#BFBFBF"/>
<path d="M38 20H19C17.8954 20 17 20.8954 17 22V30H37L44 36H83V27C83 25.8954 82.1046 25 81 25H44L38 20Z" fill="white"/>
<path d="M17 37.5V32H36L43 38H83V74C83 75.1046 82.1046 76 81 76H19C17.8954 76 17 75.1046 17 74V37.5Z" fill="white"/>
<circle cx="40" cy="55" r="3" fill="#BFBFBF"/>
<circle cx="50" cy="55" r="3" fill="#BFBFBF"/>
<circle cx="60" cy="55" r="3" fill="#BFBFBF"/>
</symbol><symbol viewBox="0 0 16 16" fill="none" id="excel_color_16_filled" xmlns="http://www.w3.org/2000/svg">
<path d="M11 2.00099V3.5H14L15 4V8L9.46899 9L4 8V1.875C4 1.64294 4.10755 1.42038 4.29899 1.25628C4.49044 1.09219 4.75009 1 5.02083 1C8.57269 1 10 1.00099 10 1.00099L11 2.00099Z" fill="#242424"/>
<path d="M15 4V1.875C14.9992 1.64318 14.9068 1.42108 14.7428 1.25716C14.5789 1.09323 14.3568 1.00079 14.125 1C10.75 1 10 1 10 1V4H15Z" fill="#33C481"/>
<path d="M15 8H4V12L9.5 13L15 12V8Z" fill="#107C41"/>
<path d="M4 12V14.125C4.00079 14.3568 4.09323 14.5789 4.25715 14.7428C4.42108 14.9068 4.64318 14.9992 4.875 15H14.125C14.3571 15 14.5796 14.9078 14.7437 14.7437C14.9078 14.5796 15 14.3571 15 14.125V12H4Z" fill="#185C37"/>
<path opacity="0.5" d="M9.2 5H4V13H9.2C9.41217 13 9.61566 12.9157 9.76569 12.7657C9.91571 12.6157 10 12.4122 10 12.2V5.8C10 5.58783 9.91571 5.38434 9.76569 5.23431C9.61566 5.08429 9.41217 5 9.2 5V5Z" fill="black"/>
<path d="M8.2 4H1.8C1.35817 4 1 4.35817 1 4.8V11.2C1 11.6418 1.35817 12 1.8 12H8.2C8.64183 12 9 11.6418 9 11.2V4.8C9 4.35817 8.64183 4 8.2 4Z" fill="#107C41"/>
<path d="M4.03434 5.61523H2.83816L4.25862 8.00759L2.80078 10.3999H3.99696L5 8.67732L6.01239 10.3999H7.19922L5.73203 8.00759L7.1743 5.61523H5.98124L5 7.38146L4.03434 5.61523Z" fill="white"/>
</symbol><symbol viewBox="0 0 16 16" id="link_16_regular" xmlns="http://www.w3.org/2000/svg">
  <path d="M7,10V9H8.1l1-.5a2.314,2.314,0,0,0,.7-.7A4.313,4.313,0,0,0,10,6.5a3.6,3.6,0,0,0-.2-1,3.51,3.51,0,0,0-.5-.8l-.8-.5L7.5,4h-4l-1,.2-.8.5a3.51,3.51,0,0,0-.5.8,3.6,3.6,0,0,0-.2,1,4.3,4.3,0,0,0,.2,1.2l.7.7,1,.5H4V10H3.5a3.5,3.5,0,0,1-1.4-.3A4.079,4.079,0,0,1,1,9,4.079,4.079,0,0,1,.3,7.9a3.417,3.417,0,0,1,0-2.8A4.079,4.079,0,0,1,1,4a4.079,4.079,0,0,1,1.1-.7A3.5,3.5,0,0,1,3.5,3h4a3.5,3.5,0,0,1,1.4.3A4.079,4.079,0,0,1,10,4a4.079,4.079,0,0,1,.7,1.1,3.417,3.417,0,0,1,0,2.8A4.079,4.079,0,0,1,10,9a4.079,4.079,0,0,1-1.1.7,3.5,3.5,0,0,1-1.4.3Zm5-4V7h1.1l1,.5a2.314,2.314,0,0,1,.7.7A4.313,4.313,0,0,1,15,9.5a3.6,3.6,0,0,1-.2,1,3.51,3.51,0,0,1-.5.8l-.8.5-1,.2h-4l-1-.2-.8-.5a3.51,3.51,0,0,1-.5-.8,3.6,3.6,0,0,1-.2-1,4.3,4.3,0,0,1,.2-1.2,2.314,2.314,0,0,1,.7-.7l1-.5H9V6H8.5a3.5,3.5,0,0,0-1.4.3A4.079,4.079,0,0,0,6,7a4.079,4.079,0,0,0-.7,1.1,3.4,3.4,0,0,0,0,2.8A4.079,4.079,0,0,0,6,12a4.079,4.079,0,0,0,1.1.7,3.5,3.5,0,0,0,1.4.3h4a3.5,3.5,0,0,0,1.4-.3A4.079,4.079,0,0,0,15,12a4.079,4.079,0,0,0,.7-1.1,3.4,3.4,0,0,0,0-2.8A4.079,4.079,0,0,0,15,7a4.079,4.079,0,0,0-1.1-.7A3.5,3.5,0,0,0,12.5,6Z"/>
</symbol><symbol viewBox="0 0 20 20" fill="none" id="mail_20_regular" xmlns="http://www.w3.org/2000/svg">
<path d="M16.3166 5H3.68359L9.99959 10.345L16.3166 5Z" fill="white"/>
<path d="M3.5 14.9985H16.5C16.7761 14.9985 17 14.7746 17 14.4985V5.73047L10.323 11.3805C10.1364 11.5378 9.86358 11.5378 9.677 11.3805L3 5.73047V14.4985C3 14.7746 3.22386 14.9985 3.5 14.9985Z" fill="white"/>
<path opacity="0.67" fill-rule="evenodd" clip-rule="evenodd" d="M16.5 4H3.5C2.673 4 2 4.673 2 5.5V14.5C2 15.327 2.673 16 3.5 16H16.5C17.327 16 18 15.327 18 14.5V5.5C18 4.673 17.327 4 16.5 4ZM16.317 5L10 10.345L3.684 5H16.317ZM3 14.5C3 14.7761 3.22386 15 3.5 15H16.5C16.7761 15 17 14.7761 17 14.5V5.732L10.323 11.382C10.1364 11.5394 9.86358 11.5394 9.677 11.382L3 5.732V14.5Z" fill="#424242"/>
</symbol><symbol viewBox="0 0 22 21" fill="none" id="mailwithpencil_16_regular" xmlns="http://www.w3.org/2000/svg">
<path d="M16.75 0H3.25L3.06558 0.0051446C1.35645 0.100754 0 1.51697 0 3.25V12.75L0.00514483 12.9344C0.100754 14.6435 1.51697 16 3.25 16H9.71703C9.90064 15.5781 10.1624 15.1927 10.4903 14.8648L10.855 14.5H3.25L3.10647 14.4942C2.20711 14.4212 1.5 13.6682 1.5 12.75V5.374L9.65069 9.66369L9.74676 9.70596C9.94313 9.77642 10.1619 9.76233 10.3493 9.66369L18.5 5.373V8.00706C19.0085 7.97377 19.5233 8.05818 20 8.26032V3.25L19.9949 3.06558C19.8992 1.35645 18.483 0 16.75 0ZM3.25 1.5H16.75L16.8935 1.5058C17.7929 1.57881 18.5 2.33183 18.5 3.25V3.678L10 8.15246L1.5 3.679V3.25L1.5058 3.10647C1.57881 2.20711 2.33183 1.5 3.25 1.5ZM17.0999 9.66946L11.1974 15.5719C10.8533 15.916 10.6092 16.3472 10.4911 16.8194L10.0334 18.6501C9.83441 19.4462 10.5556 20.1674 11.3517 19.9683L13.1824 19.5106C13.6545 19.3926 14.0857 19.1485 14.4299 18.8043L20.3323 12.9019C21.2249 12.0093 21.2249 10.5621 20.3323 9.66946C19.4397 8.77685 17.9925 8.77685 17.0999 9.66946Z" fill="#616161"/>
</symbol><symbol viewBox="0 0 20 20" fill="none" id="onedrive_20_regular" xmlns="http://www.w3.org/2000/svg">
<path d="M15.1898 7.82611C14.889 7.88299 14.5999 7.97354 14.3262 8.09357L11.8251 9.16099L7.62689 6.60961C7.14829 6.30917 6.64481 6.09355 6.0816 5.97174C7.04748 4.76453 8.51506 4 10.1538 4C12.5264 4 14.5456 5.60551 15.1898 7.82611ZM16.2108 7.76673L16.2095 7.76664C15.5192 5.02632 13.0698 3 10.1538 3C7.97152 3 6.05151 4.13573 4.93359 5.85544C2.20292 5.89171 0 8.14778 0 10.927C0 11.1207 0.0107471 11.312 0.0316488 11.5001C0.12709 12.3588 0.434514 13.1524 0.898502 13.8267L0.90625 13.8379C1.10209 14.1209 1.32565 14.3827 1.57294 14.6192L1.5778 14.6239C2.47215 15.477 3.67573 16 5.00021 16H15.9379C16.9786 16 17.9278 15.6029 18.6465 14.95C18.7491 14.8568 18.8471 14.7583 18.94 14.655C19.0545 14.5276 19.1612 14.3929 19.2594 14.2517L19.2703 14.2359C19.359 14.1071 19.4406 13.973 19.5146 13.834L19.5136 13.8334C19.7125 13.4596 19.8563 13.0511 19.9336 12.6192L19.9385 12.5914C19.9784 12.3598 19.9992 12.1215 19.9992 11.8783C19.9992 9.69537 18.3265 7.90996 16.2108 7.76673ZM5.00021 15C4.10269 15 3.27218 14.6987 2.60239 14.1864L4.99369 13.1654L11.7455 10.2826L14.4099 11.9019L18.0656 14.1236L18.0579 14.1311C17.5055 14.6715 16.7572 15 15.9379 15H5.00021ZM18.6572 13.313L14.9293 11.0473L12.8763 9.79963L14.7188 9.01336L14.728 9.00934C15.0985 8.84679 15.5063 8.75635 15.9366 8.75635C15.9986 8.75635 16.0662 8.75925 16.1435 8.76445C17.7259 8.87169 18.9992 10.2132 18.9992 11.8783C18.9992 12.0133 18.9908 12.1461 18.9746 12.2762C18.9284 12.6468 18.8186 12.9959 18.6572 13.313ZM7.09521 7.45656L7.10135 7.46041L10.6945 9.64408L4.60103 12.2458L1.84136 13.424C1.8004 13.3704 1.7607 13.3156 1.72232 13.2598L1.70339 13.2323C1.26034 12.5771 1.00001 11.7848 1 10.927C1 8.68398 2.77323 6.88655 4.94273 6.85547C5.81504 6.85641 6.47554 7.06756 7.09521 7.45656ZM18.0579 14.1311C18.0605 14.1286 18.063 14.1261 18.0656 14.1236L18.0579 14.1311Z" fill="currentColor"/>
</symbol><symbol viewBox="0 0 16 16" fill="none" id="pdf_color_16_filled" xmlns="http://www.w3.org/2000/svg">
<path d="M3.5 15H12.5C12.775 15 13 14.775 13 14.5V5H11.5C10.673 5 10 4.327 10 3.5V1H3.5C3.225 1 3 1.225 3 1.5V14.5C3 14.775 3.225 15 3.5 15Z" fill="white"/>
<path d="M13 4.00003V3.91403C13.0004 3.78159 12.9478 3.65449 12.854 3.56103L11 1.70703V3.50003C11 3.77503 11.225 4.00003 11.5 4.00003H13Z" fill="white"/>
<path opacity="0.64" fill-rule="evenodd" clip-rule="evenodd" d="M13.56 2.853L11.146 0.44C10.8643 0.159539 10.4835 0.00143923 10.086 0H3.5C2.673 0 2 0.673 2 1.5V14.5C2 15.327 2.673 16 3.5 16H12.5C13.327 16 14 15.327 14 14.5V3.914C14 3.514 13.844 3.137 13.56 2.854V2.853ZM12.853 3.561C12.948 3.655 13 3.781 13 3.914V4H11.5C11.2241 3.99945 11.0006 3.77591 11 3.5V1.707L12.854 3.561H12.853ZM3.5 15H12.5C12.775 15 13 14.775 13 14.5V5H11.5C10.673 5 10 4.327 10 3.5V1H3.5C3.225 1 3 1.225 3 1.5V14.5C3.00055 14.7759 3.22409 14.9994 3.5 15Z" fill="#242424"/>
<path d="M11.5 8H4.5C4.22386 8 4 7.77614 4 7.5C4 7.22386 4.22386 7 4.5 7H11.5C11.7761 7 12 7.22386 12 7.5C12 7.77614 11.7761 8 11.5 8Z" fill="#C8C6C4"/>
<path fill-rule="evenodd" clip-rule="evenodd" d="M5 13V10C5 9.44772 5.44772 9 6 9H10C10.5523 9 11 9.44772 11 10V13C11 13.5523 10.5523 14 10 14H6C5.44772 14 5 13.5523 5 13ZM1.5 13H3.8C3.91046 13 4 12.9105 4 12.8V10.2C4 10.09 3.91 10 3.8 10H1.5C1.22386 10 1 10.2239 1 10.5V12.5C1 12.7761 1.22386 13 1.5 13ZM12.2 13H14.5C14.7761 13 15 12.7761 15 12.5V10.5C15 10.2239 14.7761 10 14.5 10H12.2C12.09 10 12 10.09 12 10.2V12.8C12 12.9105 12.0895 13 12.2 13ZM9.8 13H6.2C6.08954 13 6 12.9105 6 12.8V10.2C6 10.09 6.09 10 6.2 10H9.8C9.91 10 10 10.084 10 10.194V12.806C10 12.916 9.91 13 9.8 13Z" fill="#D65532"/>
</symbol><symbol viewBox="0 0 16 16" fill="none" id="pptx_color_16_filled" xmlns="http://www.w3.org/2000/svg">
<path d="M8 1C4.2 1 1 4.1 1 8L9.7 10.1L8 1Z" fill="#ED6C47"/>
<path d="M8 1V8L11.5 10.3L15 8C15 4.2 11.9 1 8 1Z" fill="#FF8F6B"/>
<path d="M15 8C15 11.9 11.9 15 8 15C4.1 15 1 11.9 1 8H15Z" fill="#D35230"/>
<path opacity="0.5" d="M3.1 13H9.2C9.6 13 10 12.6 10 12.2V5.8C10 5.4 9.6 5 9.2 5H1.7C1.2 5.9 1 6.9 1 8C1 10 1.8 11.7 3.1 13Z" fill="black"/>
<path opacity="0.1" d="M3.1 13H9.2C9.6 13 10 12.6 10 12.2V5.8C10 5.4 9.6 5 9.2 5H1.7C1.2 5.9 1 6.9 1 8C1 10 1.8 11.7 3.1 13Z" fill="black"/>
<path d="M8.2 12H1.8C1.4 12 1 11.6 1 11.2V4.8C1 4.4 1.4 4 1.8 4H8.2C8.6 4 9 4.4 9 4.8V11.2C9 11.6 8.6 12 8.2 12Z" fill="#C43E1C"/>
<path fill-rule="evenodd" clip-rule="evenodd" d="M3.5 5.5V10.5H4.5V8.5H5.5C6.32843 8.5 7 7.82843 7 7C7 6.17157 6.32843 5.5 5.5 5.5H3.5ZM4.5 6.25V7.75H5.25C5.66421 7.75 6 7.41421 6 7C6 6.58579 5.66421 6.25 5.25 6.25H4.5Z" fill="white"/>
</symbol><symbol viewBox="0 0 20 20" fill="none" id="sharepoint_20_regular" xmlns="http://www.w3.org/2000/svg">
<path d="M11 6.75V8.05051C11.5251 7.51465 12.2211 7.14691 12.9998 7.03547L13 7C13 5.34315 11.6569 4 10 4C8.69378 4 7.58254 4.83481 7.17071 6H10.25C10.6642 6 11 6.33579 11 6.75ZM10 16C11.1046 16 12 15.1046 12 14C12 13.2597 11.5978 12.6134 11 12.2676V13.25C11 13.6642 10.6642 14 10.25 14H8C8 15.1046 8.89543 16 10 16ZM10 17C8.34315 17 7 15.6569 7 14H3.75C3.33579 14 3 13.6642 3 13.25V6.75C3 6.33579 3.33579 6 3.75 6H6.12602C6.57006 4.27477 8.13616 3 10 3C12.2091 3 14 4.79086 14 7L13.9998 7.03542C15.6961 7.27797 17 8.73671 17 10.5C17 12.433 15.433 14 13.5 14C13.3302 14 13.1632 13.9879 12.9998 13.9645L13 14C13 15.6569 11.6569 17 10 17ZM13.5 8C12.1193 8 11 9.11929 11 10.5C11 10.7462 11.0356 10.9841 11.1019 11.2088C11.8724 11.5133 12.4867 12.1276 12.7912 12.8981C13.0159 12.9644 13.2538 13 13.5 13C14.8807 13 16 11.8807 16 10.5C16 9.11929 14.8807 8 13.5 8ZM5.39784 9.47076C5.49813 9.65445 5.64105 9.81138 5.81459 9.92836C6.03632 10.0872 6.2747 10.2215 6.52549 10.3288C6.83601 10.4595 7.06481 10.5739 7.22823 10.6556C7.36642 10.726 7.49315 10.8169 7.60412 10.9253C7.64989 10.9654 7.6872 11.0142 7.71386 11.069C7.74052 11.1237 7.75599 11.1832 7.75937 11.2439C7.76318 11.332 7.74319 11.4195 7.70148 11.4971C7.65978 11.5748 7.59792 11.6397 7.5224 11.6852C7.30271 11.8059 7.05358 11.8625 6.80332 11.8486C6.52611 11.8441 6.25097 11.8001 5.98618 11.7179C5.72572 11.6451 5.48162 11.523 5.2671 11.3583V12.3553C5.49456 12.4529 5.73341 12.5215 5.97801 12.5595C6.25678 12.5983 6.53872 12.6093 6.81966 12.5922C7.14701 12.597 7.47287 12.5473 7.78389 12.4451C8.05356 12.3612 8.29053 12.1956 8.46211 11.9712C8.63579 11.7349 8.72501 11.4471 8.71542 11.1541C8.72602 10.9129 8.67244 10.6732 8.56017 10.4595C8.44769 10.2721 8.29399 10.1128 8.11074 9.99373C7.87166 9.84434 7.62014 9.71584 7.35897 9.60968H7.26909C7.00761 9.49528 6.80332 9.40539 6.67258 9.33185C6.55476 9.27319 6.44715 9.19593 6.3539 9.10305C6.27693 9.01831 6.23591 8.90696 6.2395 8.79254C6.23862 8.70009 6.26435 8.60934 6.31361 8.53111C6.36287 8.45288 6.43358 8.39045 6.51732 8.35128C6.73533 8.24278 6.97664 8.18947 7.22006 8.19603C7.45175 8.19673 7.6824 8.22694 7.90646 8.28591C8.11378 8.33758 8.31212 8.42022 8.4948 8.53105V7.59135C8.07732 7.44782 7.63658 7.38407 7.19555 7.4034C6.86215 7.39776 6.53033 7.4503 6.21498 7.55866C5.94609 7.65336 5.70664 7.81674 5.52042 8.0326C5.33604 8.26415 5.24041 8.55393 5.25076 8.84974C5.24524 9.06598 5.29592 9.27996 5.39784 9.47076Z" fill="#242424"/>
</symbol><symbol viewBox="0 0 101 100" fill="none" id="square_add_100_reqular" xmlns="http://www.w3.org/2000/svg">
<circle cx="50.5" cy="50" r="50" fill="#BFBFBF"/>
<rect x="25.5" y="25" width="50" height="50" fill="white"/>
<path fill-rule="evenodd" clip-rule="evenodd" d="M84.5 68C84.5 76.8366 77.3366 84 68.5 84C59.6634 84 52.5 76.8366 52.5 68C52.5 59.1634 59.6634 52 68.5 52C77.3366 52 84.5 59.1634 84.5 68ZM68.5 82C76.232 82 82.5 75.732 82.5 68C82.5 60.268 76.232 54 68.5 54C60.768 54 54.5 60.268 54.5 68C54.5 75.732 60.768 82 68.5 82Z" fill="#BFBFBF"/>
<circle cx="68.5" cy="68" r="14" fill="white"/>
<path d="M68.5 63V73" stroke="#BFBFBF" stroke-width="2" stroke-linecap="round" stroke-linejoin="round"/>
<path d="M73.5 68L63.5 68" stroke="#BFBFBF" stroke-width="2" stroke-linecap="round" stroke-linejoin="round"/>
</symbol><symbol viewBox="0 0 16 15" fill="none" id="tablelink_16_regular" xmlns="http://www.w3.org/2000/svg">
<path d="M14 2.5C14 1.11929 12.8807 0 11.5 0H2.5C1.11929 0 0 1.11929 0 2.5V11.5C0 12.8807 1.11929 14 2.5 14H6.33682C6.18915 13.6891 6.08595 13.3531 6.03544 13H5V10H7.05051C7.5694 9.49152 8.24593 9.1433 9 9.03544C9.06638 9.02595 9.13337 9.01832 9.2009 9.0126C9.29949 9.00426 9.39925 9 9.5 9H10V5H13V9H13.5C13.6698 9 13.8367 9.01209 14 9.03544V2.5ZM9 5V9H5V5H9ZM1 11.5V10H4V13H2.5L2.35554 12.9931C1.59489 12.9204 1 12.2797 1 11.5ZM9 4H5V1H9V4ZM10 1H11.5L11.6445 1.00687C12.4051 1.07955 13 1.7203 13 2.5V4H10V1ZM1 4V2.5L1.00687 2.35554C1.07955 1.59489 1.7203 1 2.5 1H4V4H1ZM4 5V9H1V5H4ZM7 12.5C7 11.1193 8.11929 10 9.5 10H10C10.2761 10 10.5 10.2239 10.5 10.5C10.5 10.7761 10.2761 11 10 11H9.5C8.67157 11 8 11.6716 8 12.5C8 13.3284 8.67157 14 9.5 14H10C10.2761 14 10.5 14.2239 10.5 14.5C10.5 14.7761 10.2761 15 10 15H9.5C8.11929 15 7 13.8807 7 12.5ZM12.5 10.5C12.5 10.2239 12.7239 10 13 10H13.5C14.8807 10 16 11.1193 16 12.5C16 13.8807 14.8807 15 13.5 15H13C12.7239 15 12.5 14.7761 12.5 14.5C12.5 14.2239 12.7239 14 13 14H13.5C14.3284 14 15 13.3284 15 12.5C15 11.6716 14.3284 11 13.5 11H13C12.7239 11 12.5 10.7761 12.5 10.5ZM9.5 12C9.22386 12 9 12.2239 9 12.5C9 12.7761 9.22386 13 9.5 13H13.5C13.7761 13 14 12.7761 14 12.5C14 12.2239 13.7761 12 13.5 12H9.5Z" fill="#424242"/>
</symbol><symbol viewBox="0 0 20 20" fill="none" id="tag_20_regular" xmlns="http://www.w3.org/2000/svg">
<path d="M14 7C14.5523 7 15 6.55228 15 6C15 5.44772 14.5523 5 14 5C13.4477 5 13 5.44772 13 6C13 6.55228 13.4477 7 14 7ZM11.1292 2.00004C10.5951 1.99654 10.0818 2.20681 9.7037 2.58399L3.02216 9.24852C2.23941 10.0293 2.2386 11.297 3.02036 12.0788L7.96875 17.0271C8.7498 17.8082 10.0161 17.8082 10.7972 17.0271L17.428 10.3963C17.8038 10.0205 18.0146 9.51063 18.0138 8.97917L18.0065 4.02911C18.0049 2.93081 17.1179 2.0393 16.0196 2.0321L11.1292 2.00004ZM10.4099 3.29199C10.599 3.1034 10.8556 2.99827 11.1227 3.00002L16.013 3.03208C16.5622 3.03568 17.0057 3.48143 17.0065 4.03058L17.0138 8.98065C17.0142 9.24637 16.9088 9.50133 16.7209 9.68923L10.0901 16.32C9.69955 16.7106 9.06638 16.7106 8.67586 16.32L3.72746 11.3716C3.33659 10.9808 3.33699 10.3469 3.72836 9.95653L10.4099 3.29199Z" fill="#616161"/>
</symbol><symbol viewBox="0 0 16 16" fill="none" id="word_color_16_filled" xmlns="http://www.w3.org/2000/svg">
<path d="M15 4V1.875C14.9992 1.64318 14.9068 1.42108 14.7428 1.25716C14.5789 1.09323 14.3568 1.00079 14.125 1H4.875C4.64294 1 4.42038 1.09219 4.25628 1.25628C4.09219 1.42038 4 1.64294 4 1.875V4H15Z" fill="#41A5EE"/>
<path d="M15 4H4V8H15V4Z" fill="#2B7CD3"/>
<path d="M15 8H4V12H15V8Z" fill="#185ABD"/>
<path d="M4 12V14.125C4.00079 14.3568 4.09323 14.5789 4.25715 14.7428C4.42108 14.9068 4.64318 14.9992 4.875 15H14.125C14.3571 15 14.5796 14.9078 14.7437 14.7437C14.9078 14.5796 15 14.3571 15 14.125V12H4Z" fill="#103F91"/>
<path opacity="0.5" d="M9.2 5H4V13H9.2C9.41217 13 9.61566 12.9157 9.76569 12.7657C9.91571 12.6157 10 12.4122 10 12.2V5.8C10 5.58783 9.91571 5.38434 9.76569 5.23431C9.61566 5.08429 9.41217 5 9.2 5Z" fill="black"/>
<path d="M8.2 4H1.8C1.35817 4 1 4.35817 1 4.8V11.2C1 11.6418 1.35817 12 1.8 12H8.2C8.64183 12 9 11.6418 9 11.2V4.8C9 4.35817 8.64183 4 8.2 4Z" fill="#185ABD"/>
<path d="M3.68198 9.2321C3.69498 9.3461 3.70398 9.4451 3.70898 9.5321H3.72398C3.73098 9.4511 3.74298 9.3541 3.76098 9.2401C3.77898 9.1261 3.79598 9.0311 3.81298 8.9531L4.54298 5.6001H5.48798L6.24398 8.9001C6.28993 9.10554 6.32332 9.31359 6.34398 9.5231H6.35598C6.37049 9.32172 6.39687 9.12137 6.43498 8.9231L7.03498 5.6001H7.89998L6.83598 10.4001H5.83598L5.10998 7.2201C5.08898 7.1291 5.06598 7.0091 5.03898 6.8621C5.01198 6.7151 4.99998 6.6081 4.99098 6.5411H4.97798C4.96998 6.6191 4.95298 6.7351 4.92898 6.8891C4.90498 7.0431 4.88598 7.1561 4.87098 7.2301L4.19398 10.4001H3.17298L2.10498 5.6001H2.98098L3.63898 8.9571C3.65398 9.0271 3.66798 9.1181 3.68198 9.2321Z" fill="white"/>
</symbol><symbol viewBox="0 0 16 16" fill="none" id="xml_color_16_filled" xmlns="http://www.w3.org/2000/svg">
<path d="M3.5 15H12.5C12.775 15 13 14.775 13 14.5V5H11.5C10.673 5 10 4.327 10 3.5V1H3.5C3.225 1 3 1.225 3 1.5V14.5C3 14.775 3.225 15 3.5 15Z" fill="white"/>
<path d="M13 4.00003V3.91403C13.0004 3.78159 12.9478 3.65449 12.854 3.56103L11 1.70703V3.50003C11 3.77503 11.225 4.00003 11.5 4.00003H13Z" fill="white"/>
<path opacity="0.64" fill-rule="evenodd" clip-rule="evenodd" d="M13.56 2.853L11.146 0.44C10.8643 0.159539 10.4835 0.00143923 10.086 0H3.5C2.673 0 2 0.673 2 1.5V14.5C2 15.327 2.673 16 3.5 16H12.5C13.327 16 14 15.327 14 14.5V3.914C14 3.514 13.844 3.137 13.56 2.854V2.853ZM12.853 3.561C12.948 3.655 13 3.781 13 3.914V4H11.5C11.2241 3.99945 11.0006 3.77591 11 3.5V1.707L12.854 3.561H12.853ZM3.5 15H12.5C12.775 15 13 14.775 13 14.5V5H11.5C10.673 5 10 4.327 10 3.5V1H3.5C3.225 1 3 1.225 3 1.5V14.5C3.00055 14.7759 3.22409 14.9994 3.5 15Z" fill="#605E5C"/>
<path d="M8 9.5C8.82843 9.5 9.5 8.82843 9.5 8C9.5 7.17157 8.82843 6.5 8 6.5C7.17157 6.5 6.5 7.17157 6.5 8C6.5 8.82843 7.17157 9.5 8 9.5Z" fill="#69AFE5"/>
<path d="M11.5 13H4.5C4.22386 13 4 12.7761 4 12.5C4 12.2239 4.22386 12 4.5 12H11.5C11.7761 12 12 12.2239 12 12.5C12 12.7761 11.7761 13 11.5 13Z" fill="#C8C6C4"/>
<path d="M10.0528 9.77639C9.92929 10.0234 10.0294 10.3237 10.2764 10.4472C10.5234 10.5707 10.8237 10.4706 10.9472 10.2236L10.0528 9.77639ZM11.5 8L11.9472 8.22361C12.0176 8.08284 12.0176 7.91716 11.9472 7.77639L11.5 8ZM10.9472 5.77639C10.8237 5.5294 10.5234 5.42929 10.2764 5.55279C10.0294 5.67628 9.92929 5.97662 10.0528 6.22361L10.9472 5.77639ZM5.94721 6.22361C6.07071 5.97662 5.9706 5.67628 5.72361 5.55279C5.47662 5.42929 5.17628 5.5294 5.05279 5.77639L5.94721 6.22361ZM4.5 8L4.05279 7.77639C3.9824 7.91716 3.9824 8.08284 4.05279 8.22361L4.5 8ZM5.05279 10.2236C5.17628 10.4706 5.47662 10.5707 5.72361 10.4472C5.9706 10.3237 6.07071 10.0234 5.94721 9.77639L5.05279 10.2236ZM10.9472 10.2236L11.9472 8.22361L11.0528 7.77639L10.0528 9.77639L10.9472 10.2236ZM11.9472 7.77639L10.9472 5.77639L10.0528 6.22361L11.0528 8.22361L11.9472 7.77639ZM5.05279 5.77639L4.05279 7.77639L4.94721 8.22361L5.94721 6.22361L5.05279 5.77639ZM4.05279 8.22361L5.05279 10.2236L5.94721 9.77639L4.94721 7.77639L4.05279 8.22361Z" fill="#C8C6C4"/>
</symbol></svg>