<svg width="196" height="116" viewBox="0 0 196 116" fill="none" xmlns="http://www.w3.org/2000/svg">
<g filter="url(#filter0_dd_1766_127980)">
<rect x="4" y="2" width="188" height="108" rx="2" fill="white"/>
</g>
<path d="M61.0655 72.1163L13.5 88.5L183 89V45L166.235 50.7081L144.548 65.4651H123.298L96.9881 74.1628L61.0655 72.1163Z" fill="#DFF6DD"/>
<path fill-rule="evenodd" clip-rule="evenodd" d="M183.769 44.6178C183.943 45.1421 183.658 45.7078 183.134 45.8813L166.548 51.3689L144.667 66.6831H123.437L97.3141 75.2244L61.1878 72.9187L13.5363 88.5375C13.0115 88.7095 12.4466 88.4235 12.2746 87.8987C12.1026 87.3739 12.3886 86.809 12.9134 86.637L60.9308 70.8983L97.0579 73.204L123.118 64.6831H144.036L165.641 49.5622L182.506 43.9825C183.03 43.809 183.596 44.0935 183.769 44.6178Z" fill="#107C10"/>
<rect x="15.1055" y="11.1328" width="80.7594" height="10.156" rx="5.07801" fill="#E6E6E6"/>
<rect x="15.1055" y="25.3496" width="103.978" height="6.09361" rx="3.04681" fill="#E6E6E6"/>
<rect x="15.1055" y="95.4277" width="34.3228" height="6.09363" rx="3.04681" fill="#E6E6E6"/>
<rect x="143.311" y="93.3965" width="40.3797" height="10.156" rx="5.07801" fill="#DFF6DD"/>
<defs>
<filter id="filter0_dd_1766_127980" x="0" y="0" width="196" height="116" filterUnits="userSpaceOnUse" color-interpolation-filters="sRGB">
<feFlood flood-opacity="0" result="BackgroundImageFix"/>
<feColorMatrix in="SourceAlpha" type="matrix" values="0 0 0 0 0 0 0 0 0 0 0 0 0 0 0 0 0 0 127 0" result="hardAlpha"/>
<feOffset/>
<feGaussianBlur stdDeviation="0.5"/>
<feColorMatrix type="matrix" values="0 0 0 0 0 0 0 0 0 0 0 0 0 0 0 0 0 0 0.18 0"/>
<feBlend mode="normal" in2="BackgroundImageFix" result="effect1_dropShadow_1766_127980"/>
<feColorMatrix in="SourceAlpha" type="matrix" values="0 0 0 0 0 0 0 0 0 0 0 0 0 0 0 0 0 0 127 0" result="hardAlpha"/>
<feOffset dy="2"/>
<feGaussianBlur stdDeviation="2"/>
<feColorMatrix type="matrix" values="0 0 0 0 0 0 0 0 0 0 0 0 0 0 0 0 0 0 0.12 0"/>
<feBlend mode="normal" in2="effect1_dropShadow_1766_127980" result="effect2_dropShadow_1766_127980"/>
<feBlend mode="normal" in="SourceGraphic" in2="effect2_dropShadow_1766_127980" result="shape"/>
</filter>
</defs>
</svg>
