<?xml version="1.0" encoding="utf-8"?><svg xmlns="http://www.w3.org/2000/svg" xmlns:xlink="http://www.w3.org/1999/xlink"><symbol fill="currentColor" viewBox="0 0 20 20" id="arrow_down_double_20_regular" xmlns="http://www.w3.org/2000/svg"><path d="M6.5 15.293V3.5a.5.5 0 0 0-1 0v11.793l-1.646-1.647a.5.5 0 0 0-.708.708l2.5 2.5a.5.5 0 0 0 .708 0l2.5-2.5a.5.5 0 0 0-.708-.708L6.5 15.293Zm9 0V3.5a.5.5 0 0 0-1 0v11.793l-1.646-1.647a.5.5 0 0 0-.708.708l2.5 2.5a.5.5 0 0 0 .708 0l2.5-2.5a.5.5 0 0 0-.708-.708L15.5 15.293Z"/></symbol><symbol fill="currentColor" viewBox="0 0 20 20" id="arrow_down_double_wrap_20_regular" xmlns="http://www.w3.org/2000/svg"><path d="m15.5 14.293.646-.647a.5.5 0 0 1 .708.707l-1.5 1.5a.5.5 0 0 1-.708 0l-1.5-1.5a.5.5 0 0 1 .708-.707l.646.647V5a.5.5 0 0 1 1 0v9.293Zm-10 0 .646-.647a.5.5 0 1 1 .708.707l-1.5 1.5a.5.5 0 0 1-.708 0l-1.5-1.5a.5.5 0 1 1 .708-.707l.646.647V4.5a.5.5 0 0 1 1 0v9.793Zm.539 1.826a.498.498 0 0 0 .273.653 3.055 3.055 0 0 0 2.322 0 .498.498 0 0 0 .273-.653.507.507 0 0 0-.66-.27 2.033 2.033 0 0 1-.774.151c-.275 0-.536-.054-.774-.152a.507.507 0 0 0-.66.27Zm3.576-.7a.507.507 0 0 0 .66-.27 2.96 2.96 0 0 0 .23-1.149v-1c0-.276-.226-.5-.505-.5a.503.503 0 0 0-.505.5v1c0 .272-.055.53-.154.765a.498.498 0 0 0 .274.654ZM10.505 6c0-.272.055-.53.154-.765a.498.498 0 0 0-.274-.654.507.507 0 0 0-.66.27A2.96 2.96 0 0 0 9.495 6v1c0 .276.226.5.505.5.28 0 .505-.224.505-.5V6ZM10 8.5a.503.503 0 0 0-.505.5v2c0 .276.226.5.505.5.28 0 .505-.224.505-.5V9c0-.276-.226-.5-.505-.5Zm1.093-4.619a.507.507 0 0 0 .66.27 2.045 2.045 0 0 1 1.548.001.507.507 0 0 0 .66-.27.498.498 0 0 0-.273-.654A3.054 3.054 0 0 0 12.528 3c-.411 0-.804.08-1.162.228a.498.498 0 0 0-.273.653Z"/></symbol><symbol fill="currentColor" viewBox="0 0 20 20" id="arrow_right_double_20_regular" xmlns="http://www.w3.org/2000/svg"><path d="M15.354 2.646a.5.5 0 0 0-.708.708L16.293 5H2.5a.5.5 0 0 0 0 1h13.793l-1.647 1.646a.5.5 0 0 0 .708.708l2.5-2.5a.5.5 0 0 0 0-.708l-2.5-2.5ZM2 14.5a.5.5 0 0 1 .5-.5h13.793l-1.647-1.646a.5.5 0 0 1 .708-.708l2.5 2.5a.5.5 0 0 1 0 .708l-2.5 2.5a.5.5 0 0 1-.708-.708L16.293 15H2.5a.5.5 0 0 1-.5-.5Z"/></symbol><symbol fill="currentColor" viewBox="0 0 20 20" id="arrow_right_double_wrap_20_regular" xmlns="http://www.w3.org/2000/svg"><path d="m14.293 4-.647-.646a.5.5 0 1 1 .707-.708l1.5 1.5a.5.5 0 0 1 0 .708l-1.5 1.5a.5.5 0 1 1-.707-.708L14.293 5H4.5a.5.5 0 0 1 0-1h9.793Zm0 10-.647-.646a.5.5 0 0 1 .707-.708l1.5 1.5a.5.5 0 0 1 0 .708l-1.5 1.5a.5.5 0 0 1-.707-.708l.647-.646H5.235a.5.5 0 0 1 0-1h9.058Zm1.826-8.419a.5.5 0 0 1 .653.27 2.994 2.994 0 0 1 0 2.298.5.5 0 0 1-.924-.384 1.993 1.993 0 0 0 0-1.53.5.5 0 0 1 .27-.654Zm-.7 3.538a.5.5 0 0 1-.27.653A2.992 2.992 0 0 1 14 10h-1a.5.5 0 0 1 0-1h1c.272 0 .53-.054.765-.152a.5.5 0 0 1 .654.27ZM6 10c-.272 0-.53.054-.765.152a.5.5 0 0 1-.384-.924A2.993 2.993 0 0 1 6 9h1a.5.5 0 0 1 0 1H6Zm2.5-.5A.5.5 0 0 1 9 9h2a.5.5 0 0 1 0 1H9a.5.5 0 0 1-.5-.5Zm-4.619 1.081a.5.5 0 0 1 .27.654 1.992 1.992 0 0 0 0 1.53.5.5 0 1 1-.923.383 2.992 2.992 0 0 1 0-2.296.5.5 0 0 1 .653-.27Z"/></symbol><symbol fill="currentColor" viewBox="0 0 20 20" id="binoculars_20_filled" xmlns="http://www.w3.org/2000/svg"><path d="M2.07 12.86h-.01l1.81-7.87A2.615 2.615 0 0 1 6.4 3 2.6 2.6 0 0 1 9 5.45V7h2V5.45A2.614 2.614 0 0 1 13.6 3c1.23 0 2.26.85 2.53 1.99l1.81 7.87h-.01c.04.23.07.46.07.69v.01c0 1.93-1.57 3.5-3.5 3.5s-3.5-1.57-3.5-3.5V10H9v3.56c0 1.93-1.57 3.5-3.5 3.5a3.504 3.504 0 0 1-3.43-4.19v-.01Zm5.93.69a2.5 2.5 0 0 0-5 0 2.5 2.5 0 0 0 5 0Zm9 .01a2.5 2.5 0 0 0-5 0 2.5 2.5 0 0 0 5 0Z"/></symbol><symbol fill="currentColor" viewBox="0 0 20 20" id="binoculars_20_regular" xmlns="http://www.w3.org/2000/svg"><path d="M2.07 12.86h-.01l1.81-7.87A2.615 2.615 0 0 1 6.4 3 2.6 2.6 0 0 1 9 5.45V7h2V5.45A2.614 2.614 0 0 1 13.6 3c1.23 0 2.26.85 2.53 1.99l1.81 7.87h-.01c.04.23.07.46.07.69v.01c0 1.93-1.57 3.5-3.5 3.5s-3.5-1.57-3.5-3.5V10H9v3.56c0 1.93-1.57 3.5-3.5 3.5a3.504 3.504 0 0 1-3.43-4.19v-.01Zm2.86-7.87a4.26 4.26 0 0 0-.12.442l-.04.168-1.16 5c.54-.35 1.19-.55 1.89-.55.98 0 1.86.4 2.5 1.05V5.54c-.03-.86-.73-1.55-1.6-1.55-.4 0-.79.16-1.09.43-.14.13-.27.29-.34.47a.49.49 0 0 0-.04.1ZM8 13.55a2.5 2.5 0 0 0-5 0 2.5 2.5 0 0 0 5 0Zm8.39-2.94-1.16-5-.04-.168A4.383 4.383 0 0 0 15.07 5a.325.325 0 0 1-.034-.082L15.03 4.9c-.07-.18-.2-.34-.34-.47C14.4 4.15 14 4 13.6 4c-.86 0-1.57.69-1.6 1.55v5.56c.63-.65 1.52-1.05 2.5-1.05.7 0 1.34.2 1.89.55Zm.61 2.95a2.5 2.5 0 0 0-5 0 2.5 2.5 0 0 0 5 0Z"/></symbol><symbol fill="currentColor" viewBox="0 0 24 24" id="binoculars_24_filled" xmlns="http://www.w3.org/2000/svg"><path d="M6.5 21a4.5 4.5 0 0 0 4.5-4.5V12h2v4.53a4.5 4.5 0 0 0 9-.03v-.436c0-.091-.009-.182-.026-.272L20.02 5.894A3.589 3.589 0 0 0 16.5 3 3.5 3.5 0 0 0 13 6.5V8h-2V6.5A3.5 3.5 0 0 0 7.5 3a3.422 3.422 0 0 0-3.348 2.716L2.03 15.779c-.02.095-.03.192-.03.289v.432A4.502 4.502 0 0 0 6.5 21Zm0-1.5a3 3 0 1 1 0-6 3 3 0 0 1 0 6Zm11-6a3 3 0 0 1 3 3v.02a3 3 0 1 1-3-3.02Z"/></symbol><symbol fill="currentColor" viewBox="0 0 24 24" id="binoculars_24_regular" xmlns="http://www.w3.org/2000/svg"><path d="M6.5 21a4.5 4.5 0 0 0 4.5-4.5V12h2v4.53a4.5 4.5 0 0 0 9-.03v-.436c0-.091-.009-.182-.026-.272L20.02 5.894A3.589 3.589 0 0 0 16.5 3 3.5 3.5 0 0 0 13 6.5V8h-2V6.5A3.5 3.5 0 0 0 7.5 3a3.422 3.422 0 0 0-3.348 2.716L2.03 15.779c-.02.095-.03.192-.03.289v.432A4.502 4.502 0 0 0 6.5 21Zm1-16.5a2 2 0 0 1 2 2v6.646A4.484 4.484 0 0 0 6.5 12a4.48 4.48 0 0 0-2.27.613l1.39-6.588A1.922 1.922 0 0 1 7.5 4.5Zm-1 15a3 3 0 1 1 0-6 3 3 0 0 1 0 6Zm10-15a2.09 2.09 0 0 1 2.05 1.684l1.274 6.462A4.478 4.478 0 0 0 17.5 12a4.484 4.484 0 0 0-3 1.146V6.5a2 2 0 0 1 2-2Zm1 9a3 3 0 0 1 3 3v.02a3 3 0 1 1-3-3.02Z"/></symbol><symbol fill="currentColor" viewBox="0 0 32 32" id="binoculars_32_filled" xmlns="http://www.w3.org/2000/svg"><path d="M18 23v-7h-4v7a6 6 0 0 1-12 0v-.598L5.134 6.605A4.476 4.476 0 0 1 9.524 3C12.005 3 14 5.037 14 7.5V10h4V7.5C18 5.014 20.017 3 22.502 3a4.505 4.505 0 0 1 4.421 3.64L30 22.403V23a6 6 0 0 1-12 0ZM4 23a4 4 0 1 0 8 0 4 4 0 0 0-8 0Zm16 0a4 4 0 1 0 8 0 4 4 0 0 0-8 0Z"/></symbol><symbol fill="currentColor" viewBox="0 0 32 32" id="binoculars_32_regular" xmlns="http://www.w3.org/2000/svg"><path d="M18 23v-7h-4v7a6 6 0 1 1-11.884-1.185l3.018-15.21A4.476 4.476 0 0 1 9.524 3C12.005 3 14 5.037 14 7.5V10h4V7.5C18 5.014 20.017 3 22.502 3a4.505 4.505 0 0 1 4.421 3.64l2.963 15.178c.076.39.114.785.114 1.182a6 6 0 0 1-12 0Zm2-15.5v11.028A5.978 5.978 0 0 1 24 17c1.123 0 2.174.308 3.073.845L24.96 7.024A2.505 2.505 0 0 0 22.502 5 2.501 2.501 0 0 0 20 7.5ZM4 23a4 4 0 1 0 8 0 4 4 0 0 0-8 0Zm8-4.472V7.5C12 6.124 10.883 5 9.524 5a2.476 2.476 0 0 0-2.428 1.994l-2.151 10.84A5.972 5.972 0 0 1 8 17c1.537 0 2.938.578 4 1.528ZM20 23a4 4 0 1 0 8 0 4 4 0 0 0-8 0Z"/></symbol><symbol fill="currentColor" viewBox="0 0 16 16" id="database_stack_asterisk_16_filled" xmlns="http://www.w3.org/2000/svg"><path d="M12.496.997a.5.5 0 0 1 .5.5v2.467l2.349-.763a.5.5 0 1 1 .309.951l-2.348.763 1.45 1.996a.5.5 0 0 1-.809.588l-1.45-1.995-1.449 1.995a.5.5 0 1 1-.809-.588l1.451-1.997-2.344-.762a.5.5 0 1 1 .309-.951l2.341.76V1.498a.5.5 0 0 1 .5-.5ZM9.53 1.12A9.681 9.681 0 0 0 8 1C5.239 1 3 2.119 3 3.5S5.239 6 8 6l.255-.003A4.493 4.493 0 0 1 8 4.5a4.49 4.49 0 0 1 1.53-3.38Zm-.788 5.856C8.5 6.992 8.252 7 8 7c-2.136 0-3.943-.587-5-1.513V8c0 1.355 2.29 2.5 5 2.5 2.004 0 3.779-.626 4.567-1.5H12.5a4.496 4.496 0 0 1-3.758-2.024Z"/><path d="M3 9.959V12.5C3 13.925 5.149 15 8 15s5-1.075 5-2.5V9.959c-1.066.936-2.889 1.541-5 1.541s-3.934-.606-5-1.541Z"/></symbol><symbol fill="currentColor" viewBox="0 0 16 16" id="database_stack_asterisk_16_regular" xmlns="http://www.w3.org/2000/svg"><path d="M12.496.997a.5.5 0 0 1 .5.5v2.467l2.349-.763a.5.5 0 1 1 .309.951l-2.348.763 1.45 1.996a.5.5 0 0 1-.809.588l-1.45-1.995-1.449 1.995a.5.5 0 1 1-.809-.588l1.451-1.997-2.344-.762a.5.5 0 1 1 .309-.951l2.341.76V1.498a.5.5 0 0 1 .5-.5Z"/><path d="M8 1c.542 0 1.058.039 1.539.111a4.524 4.524 0 0 0-.8.917A9.602 9.602 0 0 0 8 2c-2.442 0-4 .888-4 1.5S5.559 5 8 5h.027c.039.349.118.686.231 1.006-.086 0-.172-.002-.258-.006a7.409 7.409 0 0 1-4-.979V8c0 .612 1.558 1.5 4 1.5 1.428 0 2.554-.304 3.242-.678a4.502 4.502 0 0 0 1.758.15V12.5c0 1.425-2.149 2.5-5 2.5s-5-1.075-5-2.5v-9C3 2.075 5.149 1 8 1Zm0 13c2.441 0 4-.889 4-1.5V9.537c-.897.593-2.328.963-4 .963-1.672 0-3.103-.37-4-.963V12.5c0 .611 1.558 1.5 4 1.5Z"/></symbol><symbol fill="currentColor" viewBox="0 0 20 20" id="database_stack_asterisk_20_filled" xmlns="http://www.w3.org/2000/svg"><path d="M14.496 1.997a.5.5 0 0 1 .5.5v2.467l2.349-.763a.5.5 0 1 1 .309.951l-2.348.763 1.45 1.996a.5.5 0 0 1-.809.588l-1.45-1.995-1.449 1.995a.5.5 0 1 1-.809-.588l1.451-1.997-2.344-.762a.5.5 0 0 1 .309-.951l2.341.76V2.498a.5.5 0 0 1 .5-.5Z"/><path d="M11.55 2.101A11.753 11.753 0 0 0 10 2C6.686 2 4 3.343 4 5s2.686 3 6 3c.252 0 .5-.008.743-.023A4.48 4.48 0 0 1 10 5.5c0-1.357.6-2.574 1.55-3.399ZM14.5 10c.526 0 1.03-.09 1.5-.256V10c0 1.657-2.686 3-6 3s-6-1.343-6-3V7.12c.383.362.84.661 1.31.896C6.562 8.642 8.222 9 10 9c.533 0 1.055-.032 1.559-.094A4.482 4.482 0 0 0 14.5 10Z"/><path d="M16 12.12c-.383.362-.84.661-1.31.896-1.252.626-2.912.984-4.69.984-1.778 0-3.438-.358-4.69-.984A5.479 5.479 0 0 1 4 12.12V15c0 1.657 2.686 3 6 3s6-1.343 6-3v-2.88Z"/></symbol><symbol fill="currentColor" viewBox="0 0 20 20" id="database_stack_asterisk_20_regular" xmlns="http://www.w3.org/2000/svg"><path d="M14.496 1.997a.5.5 0 0 1 .5.5v2.467l2.349-.763a.5.5 0 1 1 .309.951l-2.348.763 1.45 1.996a.5.5 0 0 1-.809.588l-1.45-1.995-1.449 1.995a.5.5 0 1 1-.809-.588l1.451-1.997-2.344-.762a.5.5 0 0 1 .309-.951l2.341.76V2.498a.5.5 0 0 1 .5-.5Z"/><path d="M10 2c.536 0 1.058.034 1.555.097-.311.27-.585.582-.813.927C10.5 3.008 10.252 3 10 3c-1.464 0-2.766.27-3.682.687C5.356 4.125 5 4.627 5 5c0 .374.356.875 1.318 1.313C7.234 6.729 8.536 7 10 7c.086 0 .17 0 .255-.003.123.349.288.678.488.981C10.5 7.993 10.251 8 10 8c-1.573 0-3.022-.289-4.096-.777A4.92 4.92 0 0 1 5 6.698V10c0 .246.225.737 1.205 1.227.92.46 2.26.773 3.795.773 1.535 0 2.876-.313 3.795-.773.98-.49 1.205-.981 1.205-1.227v-.027a4.474 4.474 0 0 0 1-.23V15c0 1.007-.875 1.755-1.904 2.223C13.022 17.71 11.573 18 10 18s-3.022-.289-4.096-.777C4.875 16.755 4 16.007 4 15V5c0-1.007.875-1.755 1.904-2.223C6.978 2.289 8.427 2 10 2Zm-5 9.659V15c0 .374.356.875 1.318 1.313.916.416 2.218.687 3.682.687s2.766-.27 3.682-.687C14.644 15.875 15 15.373 15 15v-3.341C13.925 12.467 12.087 13 10 13s-3.925-.533-5-1.341Z"/></symbol><symbol fill="currentColor" viewBox="0 0 20 20" id="window_database_arrow_up_20_filled" xmlns="http://www.w3.org/2000/svg"><path d="M10.001 5.5a4.5 4.5 0 1 1-9 0 4.5 4.5 0 0 1 9 0ZM5.147 7.853l.003.003A.498.498 0 0 0 5.498 8h.006a.498.498 0 0 0 .35-.146l2-2a.5.5 0 1 0-.707-.708L6.001 6.293V3.5a.5.5 0 0 0-1 0v2.793L3.855 5.146a.5.5 0 1 0-.708.708l2 2ZM17.001 7h-6.207a5.5 5.5 0 0 0 .207-1.5c0-.9-.216-1.75-.6-2.5h3.6a3 3 0 0 1 3 3v1Zm-14 3.4c.317.162.651.294 1 .393V14a2 2 0 0 0 2 2h3v.5c0 .173.018.34.051.5H6.001a3 3 0 0 1-3-3v-3.6Zm13-2.258c.356.07.691.164 1 .279 1.206.448 2 1.212 2 2.079 0 1.38-2.015 2.5-4.5 2.5s-4.5-1.12-4.5-2.5 2.015-2.5 4.5-2.5c.526 0 1.03.05 1.5.142Z"/><path d="M14.501 14c1.38 0 2.679-.309 3.668-.858.293-.163.578-.36.833-.59l-.001 3.947c0 1.381-2.015 2.5-4.5 2.5s-4.5-1.119-4.5-2.5v-3.945c.255.23.54.425.832.588.99.55 2.288.858 3.668.858Z"/></symbol><symbol fill="currentColor" viewBox="0 0 20 20" id="window_database_arrow_up_20_regular" xmlns="http://www.w3.org/2000/svg"><path d="M10.001 5.5a4.5 4.5 0 1 1-9 0 4.5 4.5 0 0 1 9 0ZM5.147 7.853l.003.003A.498.498 0 0 0 5.498 8h.006a.498.498 0 0 0 .35-.146l2-2a.5.5 0 1 0-.707-.708L6.001 6.293V3.5a.5.5 0 0 0-1 0v2.793L3.855 5.146a.5.5 0 1 0-.708.708l2 2ZM17.001 7h-6.207a5.48 5.48 0 0 0 .185-1H16a2 2 0 0 0-2-2h-3.207a5.465 5.465 0 0 0-.393-1H14a3 3 0 0 1 3 3v1Zm-14 3.4c.317.162.651.294 1 .393V14a2 2 0 0 0 2 2h3v.5c0 .173.018.34.051.5H6.001a3 3 0 0 1-3-3v-3.6Zm11.5-2.4c.526 0 1.03.05 1.5.142.356.07.691.164 1 .279 1.206.448 2 1.212 2 2.079 0 1.38-2.015 2.5-4.5 2.5s-4.5-1.12-4.5-2.5 2.015-2.5 4.5-2.5Z"/><path d="M14.501 14c1.38 0 2.679-.309 3.668-.858.293-.163.578-.36.833-.59l-.001 3.947c0 1.381-2.015 2.5-4.5 2.5s-4.5-1.119-4.5-2.5v-3.945c.255.23.54.425.832.588.99.55 2.288.858 3.668.858Z"/></symbol></svg>