<?xml version="1.0" encoding="utf-8"?><svg xmlns="http://www.w3.org/2000/svg" xmlns:xlink="http://www.w3.org/1999/xlink"><symbol viewBox="0 0 22 21" id="one_security_role" xmlns="http://www.w3.org/2000/svg">
<path d="M17.2493 5.00006C17.2493 5.69042 16.6896 6.25006 15.9993 6.25006C15.3089 6.25006 14.7493 5.69042 14.7493 5.00006C14.7493 4.30971 15.3089 3.75006 15.9993 3.75006C16.6896 3.75006 17.2493 4.30971 17.2493 5.00006ZM14.4992 0.0500488C10.885 0.0500488 7.94922 2.98584 7.94922 6.60005C7.94922 6.98726 7.99939 7.36041 8.05968 7.70406C8.07749 7.80553 8.04493 7.89368 7.99046 7.94815L1.75467 14.1839C1.23895 14.6997 0.949219 15.3991 0.949219 16.1285V18.3C0.949219 19.2665 1.73272 20.05 2.69922 20.05H5.19922C6.16572 20.05 6.94922 19.2665 6.94922 18.3V17.05H8.69922C9.38957 17.05 9.94922 16.4904 9.94922 15.8V14.05H11.6992C12.3741 14.05 12.9241 13.5152 12.9484 12.8463C13.4451 12.9741 13.9689 13.05 14.4992 13.05C18.1134 13.05 21.0492 10.1143 21.0492 6.50005C21.0492 2.8689 18.0963 0.0500488 14.4992 0.0500488ZM9.44922 6.60005C9.44922 3.81426 11.7134 1.55005 14.4992 1.55005C17.3021 1.55005 19.5492 3.7312 19.5492 6.50005C19.5492 9.28584 17.285 11.55 14.4992 11.55C13.8199 11.55 13.1206 11.379 12.4947 11.1107C12.2629 11.0114 11.9968 11.0351 11.7864 11.1739C11.5759 11.3127 11.4492 11.5479 11.4492 11.8V12.55H9.69922C9.00886 12.55 8.44922 13.1097 8.44922 13.8V15.55H6.69922C6.00886 15.55 5.44922 16.1097 5.44922 16.8V18.3C5.44922 18.4381 5.33729 18.55 5.19922 18.55H2.69922C2.56115 18.55 2.44922 18.4381 2.44922 18.3V16.1285C2.44922 15.797 2.58091 15.479 2.81534 15.2446L9.05112 9.00881C9.46949 8.59043 9.63487 8.00203 9.53712 7.44485C9.48344 7.13889 9.44922 6.86245 9.44922 6.60005Z"/>
</symbol></svg>