<svg width="528" height="282" viewBox="0 0 528 282" fill="none" xmlns="http://www.w3.org/2000/svg">
<g clip-path="url(#clip0_10467_238088)">
<rect width="528" height="282" rx="8" fill="white"/>
<g clip-path="url(#clip1_10467_238088)">
<g clip-path="url(#clip2_10467_238088)">
<g filter="url(#filter0_dd_10467_238088)">
<path d="M102 80C102 75.5817 105.582 72 110 72H417.999C422.418 72 425.999 75.5817 425.999 80V301C425.999 305.418 422.418 309 417.999 309H110C105.582 309 102 305.418 102 301V80Z" fill="url(#paint0_linear_10467_238088)"/>
</g>
<path d="M117.365 103.772C117.365 106.534 115.127 108.772 112.365 108.772C109.604 108.772 107.365 106.534 107.365 103.772C107.365 101.011 109.604 98.7725 112.365 98.7725C115.127 98.7725 117.365 101.011 117.365 103.772Z" fill="url(#paint1_linear_10467_238088)"/>
<path d="M117.365 131.772C117.365 134.534 115.127 136.772 112.365 136.772C109.604 136.772 107.365 134.534 107.365 131.772C107.365 129.011 109.604 126.772 112.365 126.772C115.127 126.772 117.365 129.011 117.365 131.772Z" fill="url(#paint2_linear_10467_238088)"/>
<path d="M117.365 159.772C117.365 162.534 115.127 164.772 112.365 164.772C109.604 164.772 107.365 162.534 107.365 159.772C107.365 157.011 109.604 154.772 112.365 154.772C115.127 154.772 117.365 157.011 117.365 159.772Z" fill="url(#paint3_linear_10467_238088)"/>
<path d="M117.365 187.772C117.365 190.534 115.127 192.773 112.365 192.773C109.604 192.773 107.365 190.534 107.365 187.772C107.365 185.011 109.604 182.772 112.365 182.772C115.127 182.772 117.365 185.011 117.365 187.772Z" fill="url(#paint4_linear_10467_238088)"/>
<mask id="mask0_10467_238088" style="mask-type:alpha" maskUnits="userSpaceOnUse" x="102" y="72" width="324" height="237">
<path d="M102 80C102 75.5817 105.582 72 110 72H417.999C422.418 72 425.999 75.5817 425.999 80V301C425.999 305.418 422.418 309 417.999 309H110C105.582 309 102 305.418 102 301V80Z" fill="url(#paint5_linear_10467_238088)"/>
</mask>
<g mask="url(#mask0_10467_238088)">
<g filter="url(#filter1_dd_10467_238088)">
<path d="M386 72H426V305C426 309.418 422.418 313 418 313H386V72Z" fill="#E8E6DF"/>
</g>
<g filter="url(#filter2_dd_10467_238088)">
<rect x="125" y="72" width="40" height="241" fill="#E8E6DF"/>
</g>
</g>
<path d="M102 80C102 75.5817 105.582 72 110 72H417.999C422.418 72 425.999 75.5817 425.999 80V92H102V80Z" fill="url(#paint6_linear_10467_238088)"/>
<g clip-path="url(#clip3_10467_238088)">
<g filter="url(#filter3_dd_10467_238088)">
<path d="M125 92H426V106H125V92Z" fill="url(#paint7_linear_10467_238088)"/>
</g>
</g>
<g filter="url(#filter4_dd_10467_238088)">
<path d="M188 158C188 153.582 191.582 150 196 150H261C265.418 150 269 153.582 269 158V192C269 196.418 265.418 200 261 200H196C191.582 200 188 196.418 188 192V158Z" fill="url(#paint8_linear_10467_238088)"/>
</g>
<g filter="url(#filter5_dd_10467_238088)">
<rect x="188" y="127" width="55" height="10" rx="5" fill="url(#paint9_linear_10467_238088)"/>
</g>
<g filter="url(#filter6_dd_10467_238088)">
<path d="M281 158C281 153.582 284.582 150 289 150H354C358.418 150 362 153.582 362 158V192C362 196.418 358.418 200 354 200H289C284.582 200 281 196.418 281 192V158Z" fill="url(#paint10_linear_10467_238088)"/>
</g>
<g filter="url(#filter7_dd_10467_238088)">
<path d="M188 220C188 215.582 191.582 212 196 212H261C265.418 212 269 215.582 269 220V254C269 258.418 265.418 262 261 262H196C191.582 262 188 258.418 188 254V220Z" fill="url(#paint11_linear_10467_238088)"/>
</g>
<g filter="url(#filter8_dd_10467_238088)">
<path d="M281 220C281 215.582 284.582 212 289 212H354C358.418 212 362 215.582 362 220V254C362 258.418 358.418 262 354 262H289C284.582 262 281 258.418 281 254V220Z" fill="url(#paint12_linear_10467_238088)"/>
</g>
</g>
<g clip-path="url(#clip4_10467_238088)">
<path d="M102 80C102 75.5817 105.582 72 110 72H417.999C422.418 72 425.999 75.5817 425.999 80V301C425.999 305.418 422.418 309 417.999 309H110C105.582 309 102 305.418 102 301V80Z" fill="url(#paint13_linear_10467_238088)"/>
<path d="M117.365 103.772C117.365 106.534 115.127 108.772 112.365 108.772C109.604 108.772 107.365 106.534 107.365 103.772C107.365 101.011 109.604 98.7725 112.365 98.7725C115.127 98.7725 117.365 101.011 117.365 103.772Z" fill="url(#paint14_linear_10467_238088)"/>
<path d="M117.365 131.772C117.365 134.534 115.127 136.772 112.365 136.772C109.604 136.772 107.365 134.534 107.365 131.772C107.365 129.011 109.604 126.772 112.365 126.772C115.127 126.772 117.365 129.011 117.365 131.772Z" fill="url(#paint15_linear_10467_238088)"/>
<path d="M117.365 159.772C117.365 162.534 115.127 164.772 112.365 164.772C109.604 164.772 107.365 162.534 107.365 159.772C107.365 157.011 109.604 154.772 112.365 154.772C115.127 154.772 117.365 157.011 117.365 159.772Z" fill="url(#paint16_linear_10467_238088)"/>
<path d="M117.365 187.772C117.365 190.534 115.127 192.773 112.365 192.773C109.604 192.773 107.365 190.534 107.365 187.772C107.365 185.011 109.604 182.772 112.365 182.772C115.127 182.772 117.365 185.011 117.365 187.772Z" fill="url(#paint17_linear_10467_238088)"/>
<mask id="mask1_10467_238088" style="mask-type:alpha" maskUnits="userSpaceOnUse" x="102" y="72" width="324" height="237">
<path d="M102 80C102 75.5817 105.582 72 110 72H417.999C422.418 72 425.999 75.5817 425.999 80V301C425.999 305.418 422.418 309 417.999 309H110C105.582 309 102 305.418 102 301V80Z" fill="url(#paint18_linear_10467_238088)"/>
</mask>
<g mask="url(#mask1_10467_238088)">
<g filter="url(#filter9_dd_10467_238088)">
<rect x="125" y="72" width="40" height="241" fill="#7B7B7B"/>
</g>
</g>
<path d="M102 80C102 75.5817 105.582 72 110 72H417.999C422.418 72 425.999 75.5817 425.999 80V92H102V80Z" fill="url(#paint19_linear_10467_238088)"/>
<g clip-path="url(#clip5_10467_238088)">
<g filter="url(#filter10_dd_10467_238088)">
<path d="M125 92H426V106H125V92Z" fill="url(#paint20_linear_10467_238088)"/>
</g>
</g>
<g filter="url(#filter11_dd_10467_238088)">
<path d="M188 158C188 153.582 191.582 150 196 150H261C265.418 150 269 153.582 269 158V192C269 196.418 265.418 200 261 200H196C191.582 200 188 196.418 188 192V158Z" fill="url(#paint21_linear_10467_238088)"/>
</g>
<g filter="url(#filter12_dd_10467_238088)">
<rect x="188" y="127" width="55" height="10" rx="5" fill="url(#paint22_linear_10467_238088)"/>
</g>
<g filter="url(#filter13_d_10467_238088)">
<path d="M281 158C281 153.582 284.582 150 289 150H354C358.418 150 362 153.582 362 158V192C362 196.418 358.418 200 354 200H289C284.582 200 281 196.418 281 192V158Z" fill="url(#paint23_linear_10467_238088)"/>
</g>
<g filter="url(#filter14_dd_10467_238088)">
<path d="M188 220C188 215.582 191.582 212 196 212H261C265.418 212 269 215.582 269 220V254C269 258.418 265.418 262 261 262H196C191.582 262 188 258.418 188 254V220Z" fill="url(#paint24_linear_10467_238088)"/>
</g>
<g filter="url(#filter15_d_10467_238088)">
<path d="M281 220C281 215.582 284.582 212 289 212H354C358.418 212 362 215.582 362 220V254C362 258.418 358.418 262 354 262H289C284.582 262 281 258.418 281 254V220Z" fill="url(#paint25_linear_10467_238088)"/>
</g>
</g>
<g filter="url(#filter16_dd_10467_238088)">
<path d="M343 181.266V219C343 221.883 346.67 223.106 348.4 220.8L357.1 209.2C357.667 208.445 358.556 208 359.5 208H375.488C378.319 208 379.575 204.438 377.369 202.663L347.881 178.929C345.918 177.349 343 178.746 343 181.266Z" fill="url(#paint26_linear_10467_238088)"/>
</g>
</g>
<rect width="528" height="282" rx="8" fill="#FAFAFA"/>
<g filter="url(#filter17_dddiiif_10467_238088)">
<path d="M122 75C122 61.7452 132.745 51 146 51H382C395.255 51 406 61.7452 406 75V207C406 220.255 395.255 231 382 231H146C132.745 231 122 220.255 122 207V75Z" fill="white" fill-opacity="0.05" shape-rendering="crispEdges"/>
</g>
<g filter="url(#filter18_dd_10467_238088)">
<path d="M142 83C142 76.3726 147.373 71 154 71H374C380.627 71 386 76.3726 386 83V199C386 205.627 380.627 211 374 211H154C147.373 211 142 205.627 142 199V83Z" fill="#EBEBEB"/>
</g>
<g filter="url(#filter19_dd_10467_238088)">
<path d="M158 127C158 122.582 161.582 119 166 119H341C345.418 119 349 122.582 349 127V195C349 199.418 345.418 203 341 203H166C161.582 203 158 199.418 158 195V127Z" fill="white"/>
</g>
<circle cx="150" cy="123" r="4" fill="#707070"/>
<circle cx="150" cy="135" r="4" fill="#707070"/>
<circle cx="150" cy="147" r="4" fill="#707070"/>
<rect x="146" y="103" width="236" height="12" rx="2" fill="white"/>
<path d="M142 83C142 76.3726 147.373 71 154 71H374C380.627 71 386 76.3726 386 83V87H142V83Z" fill="#424242"/>
<path d="M349 95H378" stroke="#117865" stroke-width="8" stroke-linecap="round"/>
<path d="M149 95H161" stroke="#707070" stroke-width="4" stroke-linecap="round"/>
<path d="M169 95H181" stroke="#707070" stroke-width="4" stroke-linecap="round"/>
<path d="M157 79H181" stroke="#707070" stroke-width="4" stroke-linecap="round"/>
<path d="M296 146H320" stroke="#707070" stroke-width="4" stroke-linecap="round"/>
<path d="M168 185H174H191" stroke="#707070" stroke-width="4" stroke-linecap="round"/>
<path d="M199 185H205H222" stroke="#707070" stroke-width="4" stroke-linecap="round"/>
<path d="M230 185H236H253" stroke="#707070" stroke-width="4" stroke-linecap="round"/>
<path d="M168 193H174H191" stroke="#707070" stroke-width="4" stroke-linecap="round"/>
<path d="M199 193H205H222" stroke="#707070" stroke-width="4" stroke-linecap="round"/>
<path d="M230 193H236H245" stroke="#707070" stroke-width="4" stroke-linecap="round"/>
<path d="M355 121H367" stroke="#707070" stroke-width="4" stroke-linecap="round"/>
<path d="M189 95H201" stroke="#707070" stroke-width="4" stroke-linecap="round"/>
<rect x="226" y="75" width="75" height="8" rx="2" fill="white"/>
<rect x="166" y="144" width="120" height="12" rx="3.5" fill="url(#paint27_linear_10467_238088)"/>
<rect x="166" y="160" width="54" height="12" rx="3.5" fill="url(#paint28_linear_10467_238088)"/>
<g filter="url(#filter20_dd_10467_238088)">
<rect x="94.5547" y="45.6655" width="76" height="76" rx="8" transform="rotate(-9.93393 94.5547 45.6655)" fill="#EBEBEB"/>
</g>
<rect x="117.683" y="79.1781" width="14" height="26" rx="3" transform="rotate(-9.93393 117.683 79.1781)" fill="#BDBDBD" stroke="#616161" stroke-width="2"/>
<rect x="127.333" y="53.1227" width="14" height="50" rx="3" transform="rotate(-9.93393 127.333 53.1227)" fill="white" stroke="#616161" stroke-width="2"/>
<rect x="142.848" y="60.5576" width="14" height="40" rx="3" transform="rotate(-9.93393 142.848 60.5576)" fill="url(#paint29_linear_10467_238088)" stroke="#616161" stroke-width="2"/>
<path fill-rule="evenodd" clip-rule="evenodd" d="M166.558 96.5572L164.449 99.5633C163.418 101.033 161.391 101.388 159.921 100.356C159.804 100.274 159.693 100.185 159.59 100.09C158.51 103.937 153.974 106.123 150.15 103.98L149.581 103.661C148.015 102.783 147.457 100.803 148.334 99.2368C149.211 97.6706 151.192 97.1122 152.758 97.9898L153.328 98.3092L152.366 85.8885C150.643 86.1245 149.028 84.9556 148.726 83.2286C148.416 81.4608 149.598 79.776 151.366 79.4663L151.862 79.3795L151.788 78.4188C151.402 73.4318 156.363 69.7566 161.021 71.5821L162.047 71.9842C163.718 72.6392 164.542 74.5249 163.887 76.196C163.515 77.1454 162.746 77.8215 161.845 78.1084C162.868 78.508 163.663 79.4164 163.867 80.5769C164.017 81.4335 163.816 82.2706 163.369 82.9412C164.512 83.2335 165.571 83.9156 166.321 84.9745L166.534 85.2753L168.472 82.5146C169.503 81.0451 171.53 80.6901 172.999 81.7217C174.468 82.753 174.823 84.7799 173.792 86.249L170.523 90.9078L171.394 92.1388C172.498 91.5192 173.912 91.5792 174.976 92.4027C176.395 93.5012 176.656 95.5423 175.558 96.962L175.31 97.2819C173.171 100.048 168.967 99.9586 166.946 97.105L166.558 96.5572Z" fill="#EBEBEB"/>
<path d="M159.379 75.7724C157.813 75.1586 156.144 76.3943 156.274 78.0716L156.47 80.6029L160.449 79.906C161.129 79.7869 161.777 80.2417 161.896 80.9219C162.016 81.6021 161.561 82.25 160.881 82.3691L156.664 83.1076L157.814 97.9616C158.092 101.546 154.264 103.993 151.128 102.235L150.558 101.916C149.956 101.578 149.741 100.817 150.079 100.214C150.416 99.6117 151.178 99.397 151.78 99.7345L152.35 100.054C153.744 100.835 155.445 99.7473 155.322 98.1544L154.19 83.5409L152.143 83.8995C151.463 84.0186 150.815 83.5637 150.696 82.8835C150.577 82.2034 151.031 81.5554 151.711 81.4363L153.996 81.0362L153.782 78.2645C153.51 74.7479 157.008 72.1574 160.291 73.4442L161.317 73.8463C161.96 74.0982 162.277 74.8237 162.025 75.4666C161.773 76.1095 161.048 76.4265 160.405 76.1746L159.379 75.7724ZM172.155 85.1002C172.551 84.535 172.415 83.7552 171.85 83.3585C171.285 82.9618 170.505 83.0983 170.109 83.6635L166.542 88.7466L164.689 86.1303C163.523 84.4834 161.143 84.3112 159.753 85.773L159.071 86.4889C158.595 86.9891 158.615 87.7805 159.115 88.2566C159.615 88.7326 160.406 88.7131 160.882 88.2129L161.564 87.497C161.869 87.1756 162.392 87.2135 162.649 87.5756L165.017 90.9194L160.765 96.9777C160.369 97.5429 160.505 98.3227 161.07 98.7194C161.636 99.1162 162.415 98.9796 162.812 98.4145L166.551 93.086L168.578 95.9492C169.823 97.7064 172.411 97.7612 173.728 96.0582L173.975 95.7384C174.398 95.1922 174.298 94.407 173.752 93.9844C173.206 93.5618 172.421 93.662 171.998 94.2081L171.751 94.5279C171.461 94.9023 170.892 94.8903 170.619 94.504L168.076 90.9131L172.155 85.1002Z" fill="#242424"/>
<g filter="url(#filter21_dd_10467_238088)">
<path d="M256 193.221V221.866C256 224.268 259.058 225.288 260.5 223.366L266.957 214.756C267.429 214.127 268.17 213.756 268.957 213.756H280.907C283.266 213.756 284.312 210.788 282.474 209.309L260.068 191.274C258.432 189.957 256 191.122 256 193.221Z" fill="#242424"/>
</g>
</g>
<defs>
<filter id="filter0_dd_10467_238088" x="76" y="64" width="363.999" height="277" filterUnits="userSpaceOnUse" color-interpolation-filters="sRGB">
<feFlood flood-opacity="0" result="BackgroundImageFix"/>
<feColorMatrix in="SourceAlpha" type="matrix" values="0 0 0 0 0 0 0 0 0 0 0 0 0 0 0 0 0 0 127 0" result="hardAlpha"/>
<feOffset dx="-6" dy="12"/>
<feGaussianBlur stdDeviation="10"/>
<feComposite in2="hardAlpha" operator="out"/>
<feColorMatrix type="matrix" values="0 0 0 0 0 0 0 0 0 0 0 0 0 0 0 0 0 0 0.2 0"/>
<feBlend mode="normal" in2="BackgroundImageFix" result="effect1_dropShadow_10467_238088"/>
<feColorMatrix in="SourceAlpha" type="matrix" values="0 0 0 0 0 0 0 0 0 0 0 0 0 0 0 0 0 0 127 0" result="hardAlpha"/>
<feOffset dx="-2" dy="4"/>
<feGaussianBlur stdDeviation="2"/>
<feComposite in2="hardAlpha" operator="out"/>
<feColorMatrix type="matrix" values="0 0 0 0 0 0 0 0 0 0 0 0 0 0 0 0 0 0 0.08 0"/>
<feBlend mode="normal" in2="effect1_dropShadow_10467_238088" result="effect2_dropShadow_10467_238088"/>
<feBlend mode="normal" in="SourceGraphic" in2="effect2_dropShadow_10467_238088" result="shape"/>
</filter>
<filter id="filter1_dd_10467_238088" x="377" y="71" width="52" height="253" filterUnits="userSpaceOnUse" color-interpolation-filters="sRGB">
<feFlood flood-opacity="0" result="BackgroundImageFix"/>
<feColorMatrix in="SourceAlpha" type="matrix" values="0 0 0 0 0 0 0 0 0 0 0 0 0 0 0 0 0 0 127 0" result="hardAlpha"/>
<feOffset dx="-3" dy="5"/>
<feGaussianBlur stdDeviation="3"/>
<feColorMatrix type="matrix" values="0 0 0 0 0 0 0 0 0 0 0 0 0 0 0 0 0 0 0.12 0"/>
<feBlend mode="normal" in2="BackgroundImageFix" result="effect1_dropShadow_10467_238088"/>
<feColorMatrix in="SourceAlpha" type="matrix" values="0 0 0 0 0 0 0 0 0 0 0 0 0 0 0 0 0 0 127 0" result="hardAlpha"/>
<feOffset dx="-1" dy="2"/>
<feGaussianBlur stdDeviation="1.5"/>
<feComposite in2="hardAlpha" operator="out"/>
<feColorMatrix type="matrix" values="0 0 0 0 0 0 0 0 0 0 0 0 0 0 0 0 0 0 0.08 0"/>
<feBlend mode="normal" in2="effect1_dropShadow_10467_238088" result="effect2_dropShadow_10467_238088"/>
<feBlend mode="normal" in="SourceGraphic" in2="effect2_dropShadow_10467_238088" result="shape"/>
</filter>
<filter id="filter2_dd_10467_238088" x="116" y="71" width="52" height="253" filterUnits="userSpaceOnUse" color-interpolation-filters="sRGB">
<feFlood flood-opacity="0" result="BackgroundImageFix"/>
<feColorMatrix in="SourceAlpha" type="matrix" values="0 0 0 0 0 0 0 0 0 0 0 0 0 0 0 0 0 0 127 0" result="hardAlpha"/>
<feOffset dx="-3" dy="5"/>
<feGaussianBlur stdDeviation="3"/>
<feColorMatrix type="matrix" values="0 0 0 0 0 0 0 0 0 0 0 0 0 0 0 0 0 0 0.12 0"/>
<feBlend mode="normal" in2="BackgroundImageFix" result="effect1_dropShadow_10467_238088"/>
<feColorMatrix in="SourceAlpha" type="matrix" values="0 0 0 0 0 0 0 0 0 0 0 0 0 0 0 0 0 0 127 0" result="hardAlpha"/>
<feOffset dx="-1" dy="2"/>
<feGaussianBlur stdDeviation="1.5"/>
<feComposite in2="hardAlpha" operator="out"/>
<feColorMatrix type="matrix" values="0 0 0 0 0 0 0 0 0 0 0 0 0 0 0 0 0 0 0.08 0"/>
<feBlend mode="normal" in2="effect1_dropShadow_10467_238088" result="effect2_dropShadow_10467_238088"/>
<feBlend mode="normal" in="SourceGraphic" in2="effect2_dropShadow_10467_238088" result="shape"/>
</filter>
<filter id="filter3_dd_10467_238088" x="121" y="90" width="309" height="22" filterUnits="userSpaceOnUse" color-interpolation-filters="sRGB">
<feFlood flood-opacity="0" result="BackgroundImageFix"/>
<feColorMatrix in="SourceAlpha" type="matrix" values="0 0 0 0 0 0 0 0 0 0 0 0 0 0 0 0 0 0 127 0" result="hardAlpha"/>
<feOffset/>
<feGaussianBlur stdDeviation="1"/>
<feComposite in2="hardAlpha" operator="out"/>
<feColorMatrix type="matrix" values="0 0 0 0 0 0 0 0 0 0 0 0 0 0 0 0 0 0 0.12 0"/>
<feBlend mode="normal" in2="BackgroundImageFix" result="effect1_dropShadow_10467_238088"/>
<feColorMatrix in="SourceAlpha" type="matrix" values="0 0 0 0 0 0 0 0 0 0 0 0 0 0 0 0 0 0 127 0" result="hardAlpha"/>
<feOffset dy="2"/>
<feGaussianBlur stdDeviation="2"/>
<feComposite in2="hardAlpha" operator="out"/>
<feColorMatrix type="matrix" values="0 0 0 0 0 0 0 0 0 0 0 0 0 0 0 0 0 0 0.14 0"/>
<feBlend mode="normal" in2="effect1_dropShadow_10467_238088" result="effect2_dropShadow_10467_238088"/>
<feBlend mode="normal" in="SourceGraphic" in2="effect2_dropShadow_10467_238088" result="shape"/>
</filter>
<filter id="filter4_dd_10467_238088" x="179" y="149" width="92.9998" height="62" filterUnits="userSpaceOnUse" color-interpolation-filters="sRGB">
<feFlood flood-opacity="0" result="BackgroundImageFix"/>
<feColorMatrix in="SourceAlpha" type="matrix" values="0 0 0 0 0 0 0 0 0 0 0 0 0 0 0 0 0 0 127 0" result="hardAlpha"/>
<feOffset dx="-3" dy="5"/>
<feGaussianBlur stdDeviation="3"/>
<feColorMatrix type="matrix" values="0 0 0 0 0 0 0 0 0 0 0 0 0 0 0 0 0 0 0.12 0"/>
<feBlend mode="normal" in2="BackgroundImageFix" result="effect1_dropShadow_10467_238088"/>
<feColorMatrix in="SourceAlpha" type="matrix" values="0 0 0 0 0 0 0 0 0 0 0 0 0 0 0 0 0 0 127 0" result="hardAlpha"/>
<feOffset dx="-1" dy="2"/>
<feGaussianBlur stdDeviation="1.5"/>
<feComposite in2="hardAlpha" operator="out"/>
<feColorMatrix type="matrix" values="0 0 0 0 0 0 0 0 0 0 0 0 0 0 0 0 0 0 0.08 0"/>
<feBlend mode="normal" in2="effect1_dropShadow_10467_238088" result="effect2_dropShadow_10467_238088"/>
<feBlend mode="normal" in="SourceGraphic" in2="effect2_dropShadow_10467_238088" result="shape"/>
</filter>
<filter id="filter5_dd_10467_238088" x="179" y="126" width="67" height="22" filterUnits="userSpaceOnUse" color-interpolation-filters="sRGB">
<feFlood flood-opacity="0" result="BackgroundImageFix"/>
<feColorMatrix in="SourceAlpha" type="matrix" values="0 0 0 0 0 0 0 0 0 0 0 0 0 0 0 0 0 0 127 0" result="hardAlpha"/>
<feOffset dx="-3" dy="5"/>
<feGaussianBlur stdDeviation="3"/>
<feColorMatrix type="matrix" values="0 0 0 0 0 0 0 0 0 0 0 0 0 0 0 0 0 0 0.12 0"/>
<feBlend mode="normal" in2="BackgroundImageFix" result="effect1_dropShadow_10467_238088"/>
<feColorMatrix in="SourceAlpha" type="matrix" values="0 0 0 0 0 0 0 0 0 0 0 0 0 0 0 0 0 0 127 0" result="hardAlpha"/>
<feOffset dx="-1" dy="2"/>
<feGaussianBlur stdDeviation="1.5"/>
<feComposite in2="hardAlpha" operator="out"/>
<feColorMatrix type="matrix" values="0 0 0 0 0 0 0 0 0 0 0 0 0 0 0 0 0 0 0.08 0"/>
<feBlend mode="normal" in2="effect1_dropShadow_10467_238088" result="effect2_dropShadow_10467_238088"/>
<feBlend mode="normal" in="SourceGraphic" in2="effect2_dropShadow_10467_238088" result="shape"/>
</filter>
<filter id="filter6_dd_10467_238088" x="272" y="149" width="92.9999" height="62" filterUnits="userSpaceOnUse" color-interpolation-filters="sRGB">
<feFlood flood-opacity="0" result="BackgroundImageFix"/>
<feColorMatrix in="SourceAlpha" type="matrix" values="0 0 0 0 0 0 0 0 0 0 0 0 0 0 0 0 0 0 127 0" result="hardAlpha"/>
<feOffset dx="-3" dy="5"/>
<feGaussianBlur stdDeviation="3"/>
<feColorMatrix type="matrix" values="0 0 0 0 0 0 0 0 0 0 0 0 0 0 0 0 0 0 0.12 0"/>
<feBlend mode="normal" in2="BackgroundImageFix" result="effect1_dropShadow_10467_238088"/>
<feColorMatrix in="SourceAlpha" type="matrix" values="0 0 0 0 0 0 0 0 0 0 0 0 0 0 0 0 0 0 127 0" result="hardAlpha"/>
<feOffset dx="-1" dy="2"/>
<feGaussianBlur stdDeviation="1.5"/>
<feComposite in2="hardAlpha" operator="out"/>
<feColorMatrix type="matrix" values="0 0 0 0 0 0 0 0 0 0 0 0 0 0 0 0 0 0 0.08 0"/>
<feBlend mode="normal" in2="effect1_dropShadow_10467_238088" result="effect2_dropShadow_10467_238088"/>
<feBlend mode="normal" in="SourceGraphic" in2="effect2_dropShadow_10467_238088" result="shape"/>
</filter>
<filter id="filter7_dd_10467_238088" x="179" y="211" width="92.9998" height="62" filterUnits="userSpaceOnUse" color-interpolation-filters="sRGB">
<feFlood flood-opacity="0" result="BackgroundImageFix"/>
<feColorMatrix in="SourceAlpha" type="matrix" values="0 0 0 0 0 0 0 0 0 0 0 0 0 0 0 0 0 0 127 0" result="hardAlpha"/>
<feOffset dx="-3" dy="5"/>
<feGaussianBlur stdDeviation="3"/>
<feColorMatrix type="matrix" values="0 0 0 0 0 0 0 0 0 0 0 0 0 0 0 0 0 0 0.12 0"/>
<feBlend mode="normal" in2="BackgroundImageFix" result="effect1_dropShadow_10467_238088"/>
<feColorMatrix in="SourceAlpha" type="matrix" values="0 0 0 0 0 0 0 0 0 0 0 0 0 0 0 0 0 0 127 0" result="hardAlpha"/>
<feOffset dx="-1" dy="2"/>
<feGaussianBlur stdDeviation="1.5"/>
<feComposite in2="hardAlpha" operator="out"/>
<feColorMatrix type="matrix" values="0 0 0 0 0 0 0 0 0 0 0 0 0 0 0 0 0 0 0.08 0"/>
<feBlend mode="normal" in2="effect1_dropShadow_10467_238088" result="effect2_dropShadow_10467_238088"/>
<feBlend mode="normal" in="SourceGraphic" in2="effect2_dropShadow_10467_238088" result="shape"/>
</filter>
<filter id="filter8_dd_10467_238088" x="272" y="211" width="92.9999" height="62" filterUnits="userSpaceOnUse" color-interpolation-filters="sRGB">
<feFlood flood-opacity="0" result="BackgroundImageFix"/>
<feColorMatrix in="SourceAlpha" type="matrix" values="0 0 0 0 0 0 0 0 0 0 0 0 0 0 0 0 0 0 127 0" result="hardAlpha"/>
<feOffset dx="-3" dy="5"/>
<feGaussianBlur stdDeviation="3"/>
<feColorMatrix type="matrix" values="0 0 0 0 0 0 0 0 0 0 0 0 0 0 0 0 0 0 0.12 0"/>
<feBlend mode="normal" in2="BackgroundImageFix" result="effect1_dropShadow_10467_238088"/>
<feColorMatrix in="SourceAlpha" type="matrix" values="0 0 0 0 0 0 0 0 0 0 0 0 0 0 0 0 0 0 127 0" result="hardAlpha"/>
<feOffset dx="-1" dy="2"/>
<feGaussianBlur stdDeviation="1.5"/>
<feComposite in2="hardAlpha" operator="out"/>
<feColorMatrix type="matrix" values="0 0 0 0 0 0 0 0 0 0 0 0 0 0 0 0 0 0 0.08 0"/>
<feBlend mode="normal" in2="effect1_dropShadow_10467_238088" result="effect2_dropShadow_10467_238088"/>
<feBlend mode="normal" in="SourceGraphic" in2="effect2_dropShadow_10467_238088" result="shape"/>
</filter>
<filter id="filter9_dd_10467_238088" x="116" y="71" width="52" height="253" filterUnits="userSpaceOnUse" color-interpolation-filters="sRGB">
<feFlood flood-opacity="0" result="BackgroundImageFix"/>
<feColorMatrix in="SourceAlpha" type="matrix" values="0 0 0 0 0 0 0 0 0 0 0 0 0 0 0 0 0 0 127 0" result="hardAlpha"/>
<feOffset dx="-3" dy="5"/>
<feGaussianBlur stdDeviation="3"/>
<feColorMatrix type="matrix" values="0 0 0 0 0 0 0 0 0 0 0 0 0 0 0 0 0 0 0.12 0"/>
<feBlend mode="normal" in2="BackgroundImageFix" result="effect1_dropShadow_10467_238088"/>
<feColorMatrix in="SourceAlpha" type="matrix" values="0 0 0 0 0 0 0 0 0 0 0 0 0 0 0 0 0 0 127 0" result="hardAlpha"/>
<feOffset dx="-1" dy="2"/>
<feGaussianBlur stdDeviation="1.5"/>
<feComposite in2="hardAlpha" operator="out"/>
<feColorMatrix type="matrix" values="0 0 0 0 0 0 0 0 0 0 0 0 0 0 0 0 0 0 0.08 0"/>
<feBlend mode="normal" in2="effect1_dropShadow_10467_238088" result="effect2_dropShadow_10467_238088"/>
<feBlend mode="normal" in="SourceGraphic" in2="effect2_dropShadow_10467_238088" result="shape"/>
</filter>
<filter id="filter10_dd_10467_238088" x="121" y="90" width="309" height="22" filterUnits="userSpaceOnUse" color-interpolation-filters="sRGB">
<feFlood flood-opacity="0" result="BackgroundImageFix"/>
<feColorMatrix in="SourceAlpha" type="matrix" values="0 0 0 0 0 0 0 0 0 0 0 0 0 0 0 0 0 0 127 0" result="hardAlpha"/>
<feOffset/>
<feGaussianBlur stdDeviation="1"/>
<feComposite in2="hardAlpha" operator="out"/>
<feColorMatrix type="matrix" values="0 0 0 0 0 0 0 0 0 0 0 0 0 0 0 0 0 0 0.12 0"/>
<feBlend mode="normal" in2="BackgroundImageFix" result="effect1_dropShadow_10467_238088"/>
<feColorMatrix in="SourceAlpha" type="matrix" values="0 0 0 0 0 0 0 0 0 0 0 0 0 0 0 0 0 0 127 0" result="hardAlpha"/>
<feOffset dy="2"/>
<feGaussianBlur stdDeviation="2"/>
<feComposite in2="hardAlpha" operator="out"/>
<feColorMatrix type="matrix" values="0 0 0 0 0 0 0 0 0 0 0 0 0 0 0 0 0 0 0.14 0"/>
<feBlend mode="normal" in2="effect1_dropShadow_10467_238088" result="effect2_dropShadow_10467_238088"/>
<feBlend mode="normal" in="SourceGraphic" in2="effect2_dropShadow_10467_238088" result="shape"/>
</filter>
<filter id="filter11_dd_10467_238088" x="179" y="149" width="92.9998" height="62" filterUnits="userSpaceOnUse" color-interpolation-filters="sRGB">
<feFlood flood-opacity="0" result="BackgroundImageFix"/>
<feColorMatrix in="SourceAlpha" type="matrix" values="0 0 0 0 0 0 0 0 0 0 0 0 0 0 0 0 0 0 127 0" result="hardAlpha"/>
<feOffset dx="-3" dy="5"/>
<feGaussianBlur stdDeviation="3"/>
<feColorMatrix type="matrix" values="0 0 0 0 0 0 0 0 0 0 0 0 0 0 0 0 0 0 0.12 0"/>
<feBlend mode="normal" in2="BackgroundImageFix" result="effect1_dropShadow_10467_238088"/>
<feColorMatrix in="SourceAlpha" type="matrix" values="0 0 0 0 0 0 0 0 0 0 0 0 0 0 0 0 0 0 127 0" result="hardAlpha"/>
<feOffset dx="-1" dy="2"/>
<feGaussianBlur stdDeviation="1.5"/>
<feComposite in2="hardAlpha" operator="out"/>
<feColorMatrix type="matrix" values="0 0 0 0 0 0 0 0 0 0 0 0 0 0 0 0 0 0 0.08 0"/>
<feBlend mode="normal" in2="effect1_dropShadow_10467_238088" result="effect2_dropShadow_10467_238088"/>
<feBlend mode="normal" in="SourceGraphic" in2="effect2_dropShadow_10467_238088" result="shape"/>
</filter>
<filter id="filter12_dd_10467_238088" x="179" y="126" width="67" height="22" filterUnits="userSpaceOnUse" color-interpolation-filters="sRGB">
<feFlood flood-opacity="0" result="BackgroundImageFix"/>
<feColorMatrix in="SourceAlpha" type="matrix" values="0 0 0 0 0 0 0 0 0 0 0 0 0 0 0 0 0 0 127 0" result="hardAlpha"/>
<feOffset dx="-3" dy="5"/>
<feGaussianBlur stdDeviation="3"/>
<feColorMatrix type="matrix" values="0 0 0 0 0 0 0 0 0 0 0 0 0 0 0 0 0 0 0.12 0"/>
<feBlend mode="normal" in2="BackgroundImageFix" result="effect1_dropShadow_10467_238088"/>
<feColorMatrix in="SourceAlpha" type="matrix" values="0 0 0 0 0 0 0 0 0 0 0 0 0 0 0 0 0 0 127 0" result="hardAlpha"/>
<feOffset dx="-1" dy="2"/>
<feGaussianBlur stdDeviation="1.5"/>
<feComposite in2="hardAlpha" operator="out"/>
<feColorMatrix type="matrix" values="0 0 0 0 0 0 0 0 0 0 0 0 0 0 0 0 0 0 0.08 0"/>
<feBlend mode="normal" in2="effect1_dropShadow_10467_238088" result="effect2_dropShadow_10467_238088"/>
<feBlend mode="normal" in="SourceGraphic" in2="effect2_dropShadow_10467_238088" result="shape"/>
</filter>
<filter id="filter13_d_10467_238088" x="272" y="149" width="92.9999" height="62" filterUnits="userSpaceOnUse" color-interpolation-filters="sRGB">
<feFlood flood-opacity="0" result="BackgroundImageFix"/>
<feColorMatrix in="SourceAlpha" type="matrix" values="0 0 0 0 0 0 0 0 0 0 0 0 0 0 0 0 0 0 127 0" result="hardAlpha"/>
<feOffset dx="-3" dy="5"/>
<feGaussianBlur stdDeviation="3"/>
<feColorMatrix type="matrix" values="0 0 0 0 0 0 0 0 0 0 0 0 0 0 0 0 0 0 0.12 0"/>
<feBlend mode="normal" in2="BackgroundImageFix" result="effect1_dropShadow_10467_238088"/>
<feBlend mode="normal" in="SourceGraphic" in2="effect1_dropShadow_10467_238088" result="shape"/>
</filter>
<filter id="filter14_dd_10467_238088" x="179" y="211" width="92.9998" height="62" filterUnits="userSpaceOnUse" color-interpolation-filters="sRGB">
<feFlood flood-opacity="0" result="BackgroundImageFix"/>
<feColorMatrix in="SourceAlpha" type="matrix" values="0 0 0 0 0 0 0 0 0 0 0 0 0 0 0 0 0 0 127 0" result="hardAlpha"/>
<feOffset dx="-3" dy="5"/>
<feGaussianBlur stdDeviation="3"/>
<feColorMatrix type="matrix" values="0 0 0 0 0 0 0 0 0 0 0 0 0 0 0 0 0 0 0.12 0"/>
<feBlend mode="normal" in2="BackgroundImageFix" result="effect1_dropShadow_10467_238088"/>
<feColorMatrix in="SourceAlpha" type="matrix" values="0 0 0 0 0 0 0 0 0 0 0 0 0 0 0 0 0 0 127 0" result="hardAlpha"/>
<feOffset dx="-1" dy="2"/>
<feGaussianBlur stdDeviation="1.5"/>
<feComposite in2="hardAlpha" operator="out"/>
<feColorMatrix type="matrix" values="0 0 0 0 0 0 0 0 0 0 0 0 0 0 0 0 0 0 0.08 0"/>
<feBlend mode="normal" in2="effect1_dropShadow_10467_238088" result="effect2_dropShadow_10467_238088"/>
<feBlend mode="normal" in="SourceGraphic" in2="effect2_dropShadow_10467_238088" result="shape"/>
</filter>
<filter id="filter15_d_10467_238088" x="272" y="211" width="92.9999" height="62" filterUnits="userSpaceOnUse" color-interpolation-filters="sRGB">
<feFlood flood-opacity="0" result="BackgroundImageFix"/>
<feColorMatrix in="SourceAlpha" type="matrix" values="0 0 0 0 0 0 0 0 0 0 0 0 0 0 0 0 0 0 127 0" result="hardAlpha"/>
<feOffset dx="-3" dy="5"/>
<feGaussianBlur stdDeviation="3"/>
<feColorMatrix type="matrix" values="0 0 0 0 0 0 0 0 0 0 0 0 0 0 0 0 0 0 0.12 0"/>
<feBlend mode="normal" in2="BackgroundImageFix" result="effect1_dropShadow_10467_238088"/>
<feBlend mode="normal" in="SourceGraphic" in2="effect1_dropShadow_10467_238088" result="shape"/>
</filter>
<filter id="filter16_dd_10467_238088" x="317" y="170.26" width="75.494" height="83.7458" filterUnits="userSpaceOnUse" color-interpolation-filters="sRGB">
<feFlood flood-opacity="0" result="BackgroundImageFix"/>
<feColorMatrix in="SourceAlpha" type="matrix" values="0 0 0 0 0 0 0 0 0 0 0 0 0 0 0 0 0 0 127 0" result="hardAlpha"/>
<feOffset dx="-6" dy="12"/>
<feGaussianBlur stdDeviation="10"/>
<feComposite in2="hardAlpha" operator="out"/>
<feColorMatrix type="matrix" values="0 0 0 0 0 0 0 0 0 0 0 0 0 0 0 0 0 0 0.2 0"/>
<feBlend mode="normal" in2="BackgroundImageFix" result="effect1_dropShadow_10467_238088"/>
<feColorMatrix in="SourceAlpha" type="matrix" values="0 0 0 0 0 0 0 0 0 0 0 0 0 0 0 0 0 0 127 0" result="hardAlpha"/>
<feOffset dx="-2" dy="4"/>
<feGaussianBlur stdDeviation="2"/>
<feComposite in2="hardAlpha" operator="out"/>
<feColorMatrix type="matrix" values="0 0 0 0 0 0 0 0 0 0 0 0 0 0 0 0 0 0 0.08 0"/>
<feBlend mode="normal" in2="effect1_dropShadow_10467_238088" result="effect2_dropShadow_10467_238088"/>
<feBlend mode="normal" in="SourceGraphic" in2="effect2_dropShadow_10467_238088" result="shape"/>
</filter>
<filter id="filter17_dddiiif_10467_238088" x="100" y="33" width="324" height="224" filterUnits="userSpaceOnUse" color-interpolation-filters="sRGB">
<feFlood flood-opacity="0" result="BackgroundImageFix"/>
<feColorMatrix in="SourceAlpha" type="matrix" values="0 0 0 0 0 0 0 0 0 0 0 0 0 0 0 0 0 0 127 0" result="hardAlpha"/>
<feOffset dx="-2" dy="6"/>
<feGaussianBlur stdDeviation="10"/>
<feComposite in2="hardAlpha" operator="out"/>
<feColorMatrix type="matrix" values="0 0 0 0 0 0 0 0 0 0 0 0 0 0 0 0 0 0 0.12 0"/>
<feBlend mode="normal" in2="BackgroundImageFix" result="effect1_dropShadow_10467_238088"/>
<feColorMatrix in="SourceAlpha" type="matrix" values="0 0 0 0 0 0 0 0 0 0 0 0 0 0 0 0 0 0 127 0" result="hardAlpha"/>
<feOffset dx="-2" dy="4"/>
<feGaussianBlur stdDeviation="3"/>
<feComposite in2="hardAlpha" operator="out"/>
<feColorMatrix type="matrix" values="0 0 0 0 0 0 0 0 0 0 0 0 0 0 0 0 0 0 0.06 0"/>
<feBlend mode="normal" in2="effect1_dropShadow_10467_238088" result="effect2_dropShadow_10467_238088"/>
<feColorMatrix in="SourceAlpha" type="matrix" values="0 0 0 0 0 0 0 0 0 0 0 0 0 0 0 0 0 0 127 0" result="hardAlpha"/>
<feOffset dx="6" dy="-6"/>
<feGaussianBlur stdDeviation="6"/>
<feComposite in2="hardAlpha" operator="out"/>
<feColorMatrix type="matrix" values="0 0 0 0 1 0 0 0 0 1 0 0 0 0 1 0 0 0 0.85 0"/>
<feBlend mode="normal" in2="effect2_dropShadow_10467_238088" result="effect3_dropShadow_10467_238088"/>
<feBlend mode="normal" in="SourceGraphic" in2="effect3_dropShadow_10467_238088" result="shape"/>
<feColorMatrix in="SourceAlpha" type="matrix" values="0 0 0 0 0 0 0 0 0 0 0 0 0 0 0 0 0 0 127 0" result="hardAlpha"/>
<feOffset dx="-2" dy="6"/>
<feGaussianBlur stdDeviation="6"/>
<feComposite in2="hardAlpha" operator="arithmetic" k2="-1" k3="1"/>
<feColorMatrix type="matrix" values="0 0 0 0 0 0 0 0 0 0 0 0 0 0 0 0 0 0 0.12 0"/>
<feBlend mode="normal" in2="shape" result="effect4_innerShadow_10467_238088"/>
<feColorMatrix in="SourceAlpha" type="matrix" values="0 0 0 0 0 0 0 0 0 0 0 0 0 0 0 0 0 0 127 0" result="hardAlpha"/>
<feOffset dx="-2" dy="4"/>
<feGaussianBlur stdDeviation="4"/>
<feComposite in2="hardAlpha" operator="arithmetic" k2="-1" k3="1"/>
<feColorMatrix type="matrix" values="0 0 0 0 0 0 0 0 0 0 0 0 0 0 0 0 0 0 0.06 0"/>
<feBlend mode="normal" in2="effect4_innerShadow_10467_238088" result="effect5_innerShadow_10467_238088"/>
<feColorMatrix in="SourceAlpha" type="matrix" values="0 0 0 0 0 0 0 0 0 0 0 0 0 0 0 0 0 0 127 0" result="hardAlpha"/>
<feOffset dx="5" dy="-5"/>
<feGaussianBlur stdDeviation="6"/>
<feComposite in2="hardAlpha" operator="arithmetic" k2="-1" k3="1"/>
<feColorMatrix type="matrix" values="0 0 0 0 1 0 0 0 0 1 0 0 0 0 1 0 0 0 0.9 0"/>
<feBlend mode="normal" in2="effect5_innerShadow_10467_238088" result="effect6_innerShadow_10467_238088"/>
<feGaussianBlur stdDeviation="0.1875" result="effect7_foregroundBlur_10467_238088"/>
</filter>
<filter id="filter18_dd_10467_238088" x="133" y="70" width="256" height="152" filterUnits="userSpaceOnUse" color-interpolation-filters="sRGB">
<feFlood flood-opacity="0" result="BackgroundImageFix"/>
<feColorMatrix in="SourceAlpha" type="matrix" values="0 0 0 0 0 0 0 0 0 0 0 0 0 0 0 0 0 0 127 0" result="hardAlpha"/>
<feOffset dx="-3" dy="5"/>
<feGaussianBlur stdDeviation="3"/>
<feColorMatrix type="matrix" values="0 0 0 0 0 0 0 0 0 0 0 0 0 0 0 0 0 0 0.24 0"/>
<feBlend mode="normal" in2="BackgroundImageFix" result="effect1_dropShadow_10467_238088"/>
<feColorMatrix in="SourceAlpha" type="matrix" values="0 0 0 0 0 0 0 0 0 0 0 0 0 0 0 0 0 0 127 0" result="hardAlpha"/>
<feOffset dx="-1" dy="2"/>
<feGaussianBlur stdDeviation="1.5"/>
<feComposite in2="hardAlpha" operator="out"/>
<feColorMatrix type="matrix" values="0 0 0 0 0 0 0 0 0 0 0 0 0 0 0 0 0 0 0.12 0"/>
<feBlend mode="normal" in2="effect1_dropShadow_10467_238088" result="effect2_dropShadow_10467_238088"/>
<feBlend mode="normal" in="SourceGraphic" in2="effect2_dropShadow_10467_238088" result="shape"/>
</filter>
<filter id="filter19_dd_10467_238088" x="152" y="117" width="199" height="92" filterUnits="userSpaceOnUse" color-interpolation-filters="sRGB">
<feFlood flood-opacity="0" result="BackgroundImageFix"/>
<feColorMatrix in="SourceAlpha" type="matrix" values="0 0 0 0 0 0 0 0 0 0 0 0 0 0 0 0 0 0 127 0" result="hardAlpha"/>
<feOffset dx="-2" dy="2"/>
<feGaussianBlur stdDeviation="2"/>
<feColorMatrix type="matrix" values="0 0 0 0 0 0 0 0 0 0 0 0 0 0 0 0 0 0 0.12 0"/>
<feBlend mode="normal" in2="BackgroundImageFix" result="effect1_dropShadow_10467_238088"/>
<feColorMatrix in="SourceAlpha" type="matrix" values="0 0 0 0 0 0 0 0 0 0 0 0 0 0 0 0 0 0 127 0" result="hardAlpha"/>
<feOffset dx="-1" dy="1"/>
<feGaussianBlur stdDeviation="1"/>
<feComposite in2="hardAlpha" operator="out"/>
<feColorMatrix type="matrix" values="0 0 0 0 0 0 0 0 0 0 0 0 0 0 0 0 0 0 0.08 0"/>
<feBlend mode="normal" in2="effect1_dropShadow_10467_238088" result="effect2_dropShadow_10467_238088"/>
<feBlend mode="normal" in="SourceGraphic" in2="effect2_dropShadow_10467_238088" result="shape"/>
</filter>
<filter id="filter20_dd_10467_238088" x="69.8135" y="25.8134" width="125.454" height="125.454" filterUnits="userSpaceOnUse" color-interpolation-filters="sRGB">
<feFlood flood-opacity="0" result="BackgroundImageFix"/>
<feColorMatrix in="SourceAlpha" type="matrix" values="0 0 0 0 0 0 0 0 0 0 0 0 0 0 0 0 0 0 127 0" result="hardAlpha"/>
<feOffset dx="-6" dy="12"/>
<feGaussianBlur stdDeviation="10"/>
<feComposite in2="hardAlpha" operator="out"/>
<feColorMatrix type="matrix" values="0 0 0 0 0 0 0 0 0 0 0 0 0 0 0 0 0 0 0.28 0"/>
<feBlend mode="normal" in2="BackgroundImageFix" result="effect1_dropShadow_10467_238088"/>
<feColorMatrix in="SourceAlpha" type="matrix" values="0 0 0 0 0 0 0 0 0 0 0 0 0 0 0 0 0 0 127 0" result="hardAlpha"/>
<feOffset dx="-2" dy="4"/>
<feGaussianBlur stdDeviation="2"/>
<feComposite in2="hardAlpha" operator="out"/>
<feColorMatrix type="matrix" values="0 0 0 0 0 0 0 0 0 0 0 0 0 0 0 0 0 0 0.08 0"/>
<feBlend mode="normal" in2="effect1_dropShadow_10467_238088" result="effect2_dropShadow_10467_238088"/>
<feBlend mode="normal" in="SourceGraphic" in2="effect2_dropShadow_10467_238088" result="shape"/>
</filter>
<filter id="filter21_dd_10467_238088" x="230" y="182.717" width="67.4117" height="73.654" filterUnits="userSpaceOnUse" color-interpolation-filters="sRGB">
<feFlood flood-opacity="0" result="BackgroundImageFix"/>
<feColorMatrix in="SourceAlpha" type="matrix" values="0 0 0 0 0 0 0 0 0 0 0 0 0 0 0 0 0 0 127 0" result="hardAlpha"/>
<feOffset dx="-6" dy="12"/>
<feGaussianBlur stdDeviation="10"/>
<feComposite in2="hardAlpha" operator="out"/>
<feColorMatrix type="matrix" values="0 0 0 0 0 0 0 0 0 0 0 0 0 0 0 0 0 0 0.35 0"/>
<feBlend mode="normal" in2="BackgroundImageFix" result="effect1_dropShadow_10467_238088"/>
<feColorMatrix in="SourceAlpha" type="matrix" values="0 0 0 0 0 0 0 0 0 0 0 0 0 0 0 0 0 0 127 0" result="hardAlpha"/>
<feOffset dx="-2" dy="4"/>
<feGaussianBlur stdDeviation="3"/>
<feComposite in2="hardAlpha" operator="out"/>
<feColorMatrix type="matrix" values="0 0 0 0 0 0 0 0 0 0 0 0 0 0 0 0 0 0 0.2 0"/>
<feBlend mode="normal" in2="effect1_dropShadow_10467_238088" result="effect2_dropShadow_10467_238088"/>
<feBlend mode="normal" in="SourceGraphic" in2="effect2_dropShadow_10467_238088" result="shape"/>
</filter>
<linearGradient id="paint0_linear_10467_238088" x1="425.999" y1="72" x2="200.131" y2="380.781" gradientUnits="userSpaceOnUse">
<stop offset="0.108965" stop-color="white"/>
<stop offset="1" stop-color="#E8E6DF"/>
</linearGradient>
<linearGradient id="paint1_linear_10467_238088" x1="117.365" y1="98.7725" x2="107.365" y2="108.772" gradientUnits="userSpaceOnUse">
<stop offset="0.172443" stop-color="#E8E6DF"/>
<stop offset="1" stop-color="#C4BEB6"/>
</linearGradient>
<linearGradient id="paint2_linear_10467_238088" x1="117.365" y1="126.772" x2="107.365" y2="136.772" gradientUnits="userSpaceOnUse">
<stop offset="0.172443" stop-color="#E8E6DF"/>
<stop offset="1" stop-color="#C4BEB6"/>
</linearGradient>
<linearGradient id="paint3_linear_10467_238088" x1="117.365" y1="154.772" x2="107.365" y2="164.772" gradientUnits="userSpaceOnUse">
<stop offset="0.172443" stop-color="#E8E6DF"/>
<stop offset="1" stop-color="#C4BEB6"/>
</linearGradient>
<linearGradient id="paint4_linear_10467_238088" x1="117.365" y1="182.772" x2="107.365" y2="192.772" gradientUnits="userSpaceOnUse">
<stop offset="0.172443" stop-color="#E8E6DF"/>
<stop offset="1" stop-color="#C4BEB6"/>
</linearGradient>
<linearGradient id="paint5_linear_10467_238088" x1="425.999" y1="72" x2="200.131" y2="380.781" gradientUnits="userSpaceOnUse">
<stop offset="0.108965" stop-color="white"/>
<stop offset="1" stop-color="#E8E6DF"/>
</linearGradient>
<linearGradient id="paint6_linear_10467_238088" x1="425.999" y1="72" x2="423.54" y2="111.848" gradientUnits="userSpaceOnUse">
<stop offset="0.172443" stop-color="#E8E6DF"/>
<stop offset="1" stop-color="#C4BEB6"/>
</linearGradient>
<linearGradient id="paint7_linear_10467_238088" x1="426" y1="92" x2="424.7" y2="119.94" gradientUnits="userSpaceOnUse">
<stop offset="0.108965" stop-color="#F7F6F4"/>
<stop offset="1" stop-color="#E8E6DF"/>
</linearGradient>
<linearGradient id="paint8_linear_10467_238088" x1="269" y1="150" x2="224.303" y2="222.409" gradientUnits="userSpaceOnUse">
<stop offset="0.108965" stop-color="#F7F6F4"/>
<stop offset="1" stop-color="#E8E6DF"/>
</linearGradient>
<linearGradient id="paint9_linear_10467_238088" x1="243" y1="127" x2="239.48" y2="146.36" gradientUnits="userSpaceOnUse">
<stop offset="0.108965" stop-color="white"/>
<stop offset="1" stop-color="#E8E6DF"/>
</linearGradient>
<linearGradient id="paint10_linear_10467_238088" x1="362" y1="150" x2="317.303" y2="222.409" gradientUnits="userSpaceOnUse">
<stop offset="0.108965" stop-color="#F7F6F4"/>
<stop offset="1" stop-color="#E8E6DF"/>
</linearGradient>
<linearGradient id="paint11_linear_10467_238088" x1="269" y1="212" x2="224.303" y2="284.409" gradientUnits="userSpaceOnUse">
<stop offset="0.108965" stop-color="#F7F6F4"/>
<stop offset="1" stop-color="#E8E6DF"/>
</linearGradient>
<linearGradient id="paint12_linear_10467_238088" x1="362" y1="212" x2="317.303" y2="284.409" gradientUnits="userSpaceOnUse">
<stop offset="0.108965" stop-color="#F7F6F4"/>
<stop offset="1" stop-color="#E8E6DF"/>
</linearGradient>
<linearGradient id="paint13_linear_10467_238088" x1="425.999" y1="72" x2="200.131" y2="380.781" gradientUnits="userSpaceOnUse">
<stop offset="0.108965" stop-color="#707070"/>
<stop offset="1" stop-color="#646464"/>
</linearGradient>
<linearGradient id="paint14_linear_10467_238088" x1="117.365" y1="98.7725" x2="107.365" y2="108.772" gradientUnits="userSpaceOnUse">
<stop offset="0.172443" stop-color="#5E5E5E"/>
<stop offset="1" stop-color="#1C1C1C"/>
</linearGradient>
<linearGradient id="paint15_linear_10467_238088" x1="117.365" y1="126.772" x2="107.365" y2="136.772" gradientUnits="userSpaceOnUse">
<stop offset="0.172443" stop-color="#5E5E5E"/>
<stop offset="1" stop-color="#1C1C1C"/>
</linearGradient>
<linearGradient id="paint16_linear_10467_238088" x1="117.365" y1="154.772" x2="107.365" y2="164.772" gradientUnits="userSpaceOnUse">
<stop offset="0.172443" stop-color="#5E5E5E"/>
<stop offset="1" stop-color="#1C1C1C"/>
</linearGradient>
<linearGradient id="paint17_linear_10467_238088" x1="117.365" y1="182.772" x2="107.365" y2="192.772" gradientUnits="userSpaceOnUse">
<stop offset="0.172443" stop-color="#5E5E5E"/>
<stop offset="1" stop-color="#1C1C1C"/>
</linearGradient>
<linearGradient id="paint18_linear_10467_238088" x1="425.999" y1="72" x2="200.131" y2="380.781" gradientUnits="userSpaceOnUse">
<stop offset="0.108965" stop-color="white"/>
<stop offset="1" stop-color="#E8E6DF"/>
</linearGradient>
<linearGradient id="paint19_linear_10467_238088" x1="425.999" y1="72" x2="423.54" y2="111.848" gradientUnits="userSpaceOnUse">
<stop offset="0.172443" stop-color="#5E5E5E"/>
<stop offset="1" stop-color="#464646"/>
</linearGradient>
<linearGradient id="paint20_linear_10467_238088" x1="426" y1="92" x2="424.7" y2="119.94" gradientUnits="userSpaceOnUse">
<stop offset="0.108965" stop-color="#4C4C4C"/>
<stop offset="1" stop-color="#868686"/>
</linearGradient>
<linearGradient id="paint21_linear_10467_238088" x1="269" y1="150" x2="224.303" y2="222.409" gradientUnits="userSpaceOnUse">
<stop offset="0.108965" stop-color="#858585"/>
<stop offset="1" stop-color="#5E5E5E"/>
</linearGradient>
<linearGradient id="paint22_linear_10467_238088" x1="243" y1="127" x2="239.48" y2="146.36" gradientUnits="userSpaceOnUse">
<stop offset="0.108965" stop-color="#939393"/>
<stop offset="1" stop-color="#646464"/>
</linearGradient>
<linearGradient id="paint23_linear_10467_238088" x1="362" y1="150" x2="317.303" y2="222.409" gradientUnits="userSpaceOnUse">
<stop offset="0.108965" stop-color="#7B7777"/>
<stop offset="1" stop-color="#A2A2A2"/>
</linearGradient>
<linearGradient id="paint24_linear_10467_238088" x1="269" y1="212" x2="224.303" y2="284.409" gradientUnits="userSpaceOnUse">
<stop offset="0.108965" stop-color="#858585"/>
<stop offset="1" stop-color="#5E5E5E"/>
</linearGradient>
<linearGradient id="paint25_linear_10467_238088" x1="362" y1="212" x2="317.303" y2="284.409" gradientUnits="userSpaceOnUse">
<stop offset="0.108965" stop-color="#7B7777"/>
<stop offset="1" stop-color="#A2A2A2"/>
</linearGradient>
<linearGradient id="paint26_linear_10467_238088" x1="384" y1="175" x2="332.7" y2="214.685" gradientUnits="userSpaceOnUse">
<stop offset="0.175465" stop-color="#FFC424"/>
<stop offset="1" stop-color="#E7512C"/>
</linearGradient>
<linearGradient id="paint27_linear_10467_238088" x1="286" y1="144" x2="283.624" y2="167.762" gradientUnits="userSpaceOnUse">
<stop offset="0.172092" stop-color="#3DCBFF"/>
<stop offset="1" stop-color="#0078D4"/>
</linearGradient>
<linearGradient id="paint28_linear_10467_238088" x1="220" y1="160" x2="214.918" y2="182.871" gradientUnits="userSpaceOnUse">
<stop offset="0.175465" stop-color="#FFC424"/>
<stop offset="1" stop-color="#E7512C"/>
</linearGradient>
<linearGradient id="paint29_linear_10467_238088" x1="156.005" y1="61.3701" x2="134.182" y2="68.2618" gradientUnits="userSpaceOnUse">
<stop offset="0.172092" stop-color="#3DCBFF"/>
<stop offset="1" stop-color="#0078D4"/>
</linearGradient>
<clipPath id="clip0_10467_238088">
<rect width="528" height="282" rx="8" fill="white"/>
</clipPath>
<clipPath id="clip1_10467_238088">
<rect width="324" height="210" fill="white" transform="translate(102 72)"/>
</clipPath>
<clipPath id="clip2_10467_238088">
<rect width="324" height="237" fill="white" transform="translate(102 72)"/>
</clipPath>
<clipPath id="clip3_10467_238088">
<rect width="301" height="34" fill="white" transform="translate(125 92)"/>
</clipPath>
<clipPath id="clip4_10467_238088">
<rect width="173" height="237" fill="white" transform="translate(102 72)"/>
</clipPath>
<clipPath id="clip5_10467_238088">
<rect width="301" height="34" fill="white" transform="translate(125 92)"/>
</clipPath>
</defs>
</svg>
