<!-- These contain svgs with updated default colors; these should replace the original svgs
and those in visualizationPaneIcons.svg when feature switch paneColorRefresh is being cleaned up (Task 165772). -->
<?xml version="1.0" ?>
<svg xmlns="http://www.w3.org/2000/svg">
    <symbol height="24" id="center_paneColorRefresh" viewBox="0 0 24 24" width="24">
        <defs>
            <style>#center_paneColorRefresh .cls-1{opacity:1 !important;fill:#252423;}#center_paneColorRefresh .cls-2{fill:none;}</style>
        </defs>
        <rect class="cls-1 fwns" height="2" width="18" x="3" y="4"/>
        <rect class="cls-1 fwns" height="2" width="14" x="5" y="9"/>
        <rect class="cls-1 fwns" height="2" width="18" x="3" y="14"/>
        <rect class="cls-1 fwns" height="2" width="14" x="5" y="19"/>
        <rect class="cls-2 nfwns" height="24" width="24"/>
    </symbol>
    <symbol height="24" id="left_paneColorRefresh" viewBox="0 0 24 24" width="24">
        <defs>
            <style>#left_paneColorRefresh .cls-1{opacity:1 !important;fill:#252423;}#left_paneColorRefresh .cls-2{fill:none;}</style>
        </defs>
        <rect class="cls-1 fwns" height="2" width="17" x="3" y="4"/>
        <rect class="cls-1 fwns" height="2" width="14" x="3" y="9"/>
        <rect class="cls-1 fwns" height="2" width="17" x="3" y="14"/>
        <rect class="cls-1 fwns" height="2" width="14" x="3" y="19"/>
        <rect class="cls-2 nfwns" height="24" width="24"/>
    </symbol>
    <symbol height="24" id="right_paneColorRefresh" viewBox="0 0 24 24" width="24">
        <defs>
            <style>#right_paneColorRefresh .cls-1{opacity:1 !important;fill:#252423;}#right_paneColorRefresh .cls-2{fill:none;}</style>
        </defs>
        <rect class="cls-1 fwns" height="2" width="17" x="4" y="4"/>
        <rect class="cls-1 fwns" height="2" width="14" x="7" y="9"/>
        <rect class="cls-1 fwns" height="2" width="17" x="4" y="14"/>
        <rect class="cls-1 fwns" height="2" width="14" x="7" y="19"/>
        <rect class="cls-2 nfwns" height="24" width="24"/>
    </symbol>
    <symbol height="24" id="TextAlignBottom_paneColorRefresh" viewBox="0 0 24 24" width="24">
        <defs>
            <style>#TextAlignBottom_paneColorRefresh .cls-1{opacity:1 !important;fill:#252423;}#TextAlignBottom_paneColorRefresh .cls-2{fill:none;}</style>
        </defs>
        <rect class="cls-1 fwns" height="2" width="18" x="3" y="14"/>
        <rect class="cls-1 fwns" height="2" width="18" x="3" y="19"/>
        <rect class="cls-2 nfwns" height="24" width="24"/>
    </symbol>
    <symbol height="24" id="TextAlignMiddle_paneColorRefresh" viewBox="0 0 24 24" width="24">
        <defs>
            <style>#TextAlignMiddle_paneColorRefresh .cls-1{opacity:1 !important;fill:#252423;}#TextAlignMiddle_paneColorRefresh .cls-2{fill:none;}</style>
        </defs>
        <rect class="cls-1 fwns" height="2" width="18" x="3" y="9"/>
        <rect class="cls-1 fwns" height="2" width="18" x="3" y="14"/>
        <rect class="cls-2 nfwns" height="24" width="24"/>
    </symbol>
    <symbol height="24" id="TextAlignTop_paneColorRefresh" viewBox="0 0 24 24" width="24">
        <defs>
            <style>#TextAlignTop_paneColorRefresh .cls-1{opacity:1 !important;fill:#252423;}#TextAlignTop_paneColorRefresh .cls-2{fill:none;}</style>
        </defs>
        <rect class="cls-1 fwns" height="2" width="18" x="3" y="3"/>
        <rect class="cls-1 fwns" height="2" width="18" x="3" y="8"/>
        <rect class="cls-2 nfwns" height="24" width="24"/>
    </symbol>
    <symbol height="20" id="visualizationPaneAnalytics_paneColorRefresh" viewBox="0 0 20 20" width="20">
        <defs>
            <style>#visualizationPaneAnalytics_paneColorRefresh .cls-1{opacity:1 !important;fill:#252423;}#visualizationPaneAnalytics_paneColorRefresh .cls-2{fill:none;}</style>
        </defs>
        <path class="cls-1 fwns" d="M14.85,14.14a8.52,8.52,0,1,0-.71.71L19.29,20H20v-.71ZM8.5,1a7.49,7.49,0,0,1,5.84,2.81L7.5,8.35l-3-1.94L1,8.4A7.51,7.51,0,0,1,8.5,1ZM14,13.58V8.71H13v5.78a7.48,7.48,0,0,1-2,1.08V10H10v5.85A7.5,7.5,0,0,1,8.5,16L8,16V11H7v4.84a7.42,7.42,0,0,1-2-.72V10H4v4.49a7.51,7.51,0,0,1-2.92-5L4.44,7.58l3.06,2,7.41-4.92a7.44,7.44,0,0,1-.91,9Z"/>
        <rect class="cls-2 nfwns" height="20" width="20"/>
    </symbol>
    <symbol height="20" id="visualizationPaneFields_paneColorRefresh" viewBox="0 0 20 20" width="20">
        <defs>
            <style>#visualizationPaneFields_paneColorRefresh .cls-1{opacity:1 !important;fill:#252423;}#visualizationPaneFields_paneColorRefresh .cls-2{fill:none;}</style>
        </defs>
        <rect class="cls-1 fwns" height="1" width="16"/>
        <rect class="cls-1 fwns" height="1" width="2" x="3" y="3"/>
        <rect class="cls-1 fwns" height="1" width="2" x="6" y="3"/>
        <rect class="cls-1 fwns" height="1" width="2" x="9" y="3"/>
        <rect class="cls-1 fwns" height="1" width="2" x="12" y="3"/>
        <rect class="cls-1 fwns" height="1" width="2" x="15" y="3"/>
        <polygon class="cls-1 fwns" points="18 3 18 4 19 4 19 5 20 5 20 3 18 3"/>
        <rect class="cls-1 fwns" height="1" width="1" x="19" y="6"/>
        <polygon class="cls-1 fwns" points="19 8 19 9 18 9 18 10 20 10 20 8 19 8"/>
        <rect class="cls-1 fwns" height="1" width="2" x="15" y="9"/>
        <rect class="cls-1 fwns" height="1" width="2" x="12" y="9"/>
        <rect class="cls-1 fwns" height="1" width="2" x="9" y="9"/>
        <rect class="cls-1 fwns" height="1" width="2" x="6" y="9"/>
        <rect class="cls-1 fwns" height="1" width="2" x="3" y="9"/>
        <polygon class="cls-1 fwns" points="1 9 1 8 0 8 0 10 2 10 2 9 1 9"/>
        <rect class="cls-1 fwns" height="1" width="1" y="6"/>
        <polygon class="cls-1 fwns" points="2 3 1 3 0 3 0 5 1 5 1 4 2 4 2 3"/>
        <polygon class="cls-1 fwns" points="0 12 0 14 1 14 1 13 2 13 2 12 0 12"/>
        <rect class="cls-1 fwns" height="1" width="2" x="3" y="12"/>
        <rect class="cls-1 fwns" height="1" width="2" x="6" y="12"/>
        <rect class="cls-1 fwns" height="1" width="2" x="9" y="12"/>
        <rect class="cls-1 fwns" height="1" width="2" x="12" y="12"/>
        <rect class="cls-1 fwns" height="1" width="2" x="15" y="12"/>
        <polygon class="cls-1 fwns" points="18 12 18 13 19 13 19 14 20 14 20 12 18 12"/>
        <rect class="cls-1 fwns" height="1" width="1" x="19" y="15"/>
        <polygon class="cls-1 fwns" points="19 17 19 18 18 18 18 19 20 19 20 17 19 17"/>
        <rect class="cls-1 fwns" height="1" width="2" x="15" y="18"/>
        <rect class="cls-1 fwns" height="1" width="2" x="12" y="18"/>
        <rect class="cls-1 fwns" height="1" width="2" x="9" y="18"/>
        <rect class="cls-1 fwns" height="1" width="2" x="6" y="18"/>
        <rect class="cls-1 fwns" height="1" width="2" x="3" y="18"/>
        <polygon class="cls-1 fwns" points="1 18 1 17 0 17 0 19 2 19 2 18 1 18"/>
        <rect class="cls-1 fwns" height="1" width="1" y="15"/>
        <rect class="cls-2 nfwns" height="20" width="20"/>
    </symbol>
    <symbol height="20" id="visualizationPaneFormat_paneColorRefresh" viewBox="0 0 20 20" width="20">
        <defs>
            <style>#visualizationPaneFormat_paneColorRefresh .cls-1{opacity:1 !important;fill:#252423;}#visualizationPaneFormat_paneColorRefresh .cls-2{fill:none;}</style>
        </defs>
        <path class="cls-1 fwns" d="M16,2V1.4A1.4,1.4,0,0,0,14.6,0H2.4A1.4,1.4,0,0,0,1,1.4V3.6A1.4,1.4,0,0,0,2.4,5H14.6A1.4,1.4,0,0,0,16,3.6V3h2V7H9v3H8.4A1.4,1.4,0,0,0,7,11.4V20h5V11.4A1.4,1.4,0,0,0,10.6,10H10V8h7.6A1.4,1.4,0,0,0,19,6.6V2ZM15,4H2V1H15Zm-4,7v8H8V11Z"/>
        <rect class="cls-2 nfwns" height="20" width="20"/>
    </symbol>
    <symbol id="visualizationPaneFieldsModern_paneColorRefresh" width="24" height="24" viewBox="0 0 24 24">
        <path class="fws" fill-rule="evenodd" clip-rule="evenodd" d="M7.2 24H9.6V22.7988H7.2V24ZM0 21.6H1.2V22.8H2.4V24H0V21.6ZM14.4 24H16.8V22.7988H14.4V24ZM18 24H20.4V22.7988H18V24ZM21.6 24V22.7988H22.8V21.6H24V24H21.6ZM10.8 24H13.2V22.7988H10.8V24ZM3.6 24H6V22.7988H3.6V24ZM22.8 20.4H24V19.2H22.8V20.4ZM0 20.4H1.2V19.2H0V20.4ZM22.8 18V16.8H21.6V15.6H24V18H22.8ZM2.4 16.8H1.2V18H0V15.6H2.4V16.8ZM14.4 16.8H16.8V15.6H14.4V16.8ZM7.2 16.8H9.6V15.6H7.2V16.8ZM10.8 16.8H13.2V15.6H10.8V16.8ZM18 16.8H20.4V15.6H18V16.8ZM3.6 16.8H6V15.6H3.6V16.8ZM0 10.8012H1.2V12H2.4V13.2H0V10.8012ZM7.2 13.1988H9.6V11.9988H7.2V13.1988ZM18 13.1988H20.4V11.9988H18V13.1988ZM14.4 13.1988H16.8V11.9988H14.4V13.1988ZM10.8 13.1988H13.2V11.9988H10.8V13.1988ZM21.6 11.9988H22.8V10.8H24V13.1976H21.6V11.9988ZM3.6 13.1988H6V11.9988H3.6V13.1988ZM0 9.6H1.2V8.4H0V9.6ZM22.8 9.6H24V8.4H22.8V9.6ZM0 4.8012H2.4V6H1.2V7.2H0V4.8012ZM24 4.8012V7.1988H22.8V5.9988H21.6V4.8L24 4.8012ZM7.2 5.9988H9.6V4.8H7.2V5.9988ZM10.8 5.9988H13.2V4.8H10.8V5.9988ZM18 5.9988H20.4V4.8H18V5.9988ZM3.6 5.9988H6V4.8H3.6V5.9988ZM14.4 5.9988H16.8V4.8H14.4V5.9988ZM0 1.2H19.2V0H0V1.2Z" fill="var(--icon-stroke-color)" />
    </symbol>
    <symbol id="visualizationPaneFieldsModernSelected_paneColorRefresh" width="24" height="24" viewBox="0 0 24 24">
        <path class="fws" fill-rule="evenodd" clip-rule="evenodd" d="M7.2 24H9.6V22.7988H7.2V24ZM0 21.6H1.2V22.8H2.4V24H0V21.6ZM14.4 24H16.8V22.7988H14.4V24ZM18 24H20.4V22.7988H18V24ZM21.6 24V22.7988H22.8V21.6H24V24H21.6ZM10.8 24H13.2V22.7988H10.8V24ZM3.6 24H6V22.7988H3.6V24ZM22.8 20.4H24V19.2H22.8V20.4ZM0 20.4H1.2V19.2H0V20.4ZM22.8 18V16.8H21.6V15.6H24V18H22.8ZM2.4 16.8H1.2V18H0V15.6H2.4V16.8ZM14.4 16.8H16.8V15.6H14.4V16.8ZM7.2 16.8H9.6V15.6H7.2V16.8ZM10.8 16.8H13.2V15.6H10.8V16.8ZM18 16.8H20.4V15.6H18V16.8ZM3.6 16.8H6V15.6H3.6V16.8ZM0 10.8012H1.2V12H2.4V13.2H0V10.8012ZM7.2 13.1988H9.6V11.9988H7.2V13.1988ZM18 13.1988H20.4V11.9988H18V13.1988ZM14.4 13.1988H16.8V11.9988H14.4V13.1988ZM10.8 13.1988H13.2V11.9988H10.8V13.1988ZM21.6 11.9988H22.8V10.8H24V13.1976H21.6V11.9988ZM3.6 13.1988H6V11.9988H3.6V13.1988ZM0 9.6H1.2V8.4H0V9.6ZM22.8 9.6H24V8.4H22.8V9.6ZM0 4.8012H2.4V6H1.2V7.2H0V4.8012ZM24 4.8012V7.1988H22.8V5.9988H21.6V4.8L24 4.8012ZM7.2 5.9988H9.6V4.8H7.2V5.9988ZM10.8 5.9988H13.2V4.8H10.8V5.9988ZM18 5.9988H20.4V4.8H18V5.9988ZM3.6 5.9988H6V4.8H3.6V5.9988ZM14.4 5.9988H16.8V4.8H14.4V5.9988ZM0 1.2H19.2V0H0V1.2Z" fill="var(--icon-stroke-color)" />
        <path class="fws" d="M1.2002 6H22.8002V12H1.2002V6Z" fill="var(--icon-fill-color)" />
        <path class="fws" d="M1.2002 16.8H22.8002V22.8H1.2002V16.8Z" fill="var(--icon-fill-color)" />
    </symbol>
    <symbol id="visualizationPaneFormatModern_paneColorRefresh" width="24" height="24" viewBox="0 0 24 24">
        <path class="fwns" d="M2.40234 19.5586V9.59766H8.40234V1.19531H15.5977V6H21.5977V7.04297C21.4102 7.12891 21.2148 7.23438 21.0117 7.35938C20.8086 7.47656 20.6055 7.60547 20.4023 7.74609V7.19531H15.5977V11.9883C15.4102 12.1914 15.2188 12.3945 15.0234 12.5977C14.8203 12.793 14.6133 12.9961 14.4023 13.207V2.40234H9.59766V16.8633C9.35547 17.1445 9.14062 17.4375 8.95312 17.7422C8.76562 18.0469 8.58203 18.3633 8.40234 18.6914V10.8047H3.59766V19.6758L2.40234 19.5586Z" fill="var(--icon-stroke-color)" />
        <path class="fwns" d="M23.7773 8.625C23.9258 8.77344 24 8.98047 24 9.24609C24 9.59766 23.8867 10.0234 23.6602 10.5234C23.4258 11.0156 23.125 11.5391 22.7578 12.0938C22.3906 12.6484 21.9844 13.2148 21.5391 13.793C21.0859 14.3711 20.6406 14.9141 20.2031 15.4219C19.7656 15.9297 19.3633 16.3867 18.9961 16.793C18.6211 17.1914 18.3281 17.4961 18.1172 17.707C17.9297 17.8945 17.7344 18.0898 17.5312 18.293C17.3203 18.4961 17.1094 18.6992 16.8984 18.9023C16.6875 19.0977 16.4805 19.2891 16.2773 19.4766C16.0742 19.6562 15.8867 19.8203 15.7148 19.9688C15.6836 19.4844 15.5703 19.0508 15.375 18.668C15.5 18.5508 15.6406 18.418 15.7969 18.2695C15.9531 18.1211 16.1172 17.9688 16.2891 17.8125C16.4609 17.6484 16.6328 17.4844 16.8047 17.3203C16.9688 17.1562 17.125 17 17.2734 16.8516C17.625 16.5 17.9922 16.1172 18.375 15.7031C18.75 15.2812 19.125 14.8477 19.5 14.4023C19.875 13.957 20.2383 13.5117 20.5898 13.0664C20.9336 12.6211 21.25 12.1953 21.5391 11.7891C21.8281 11.3828 22.0742 11.0078 22.2773 10.6641C22.4805 10.3125 22.625 10.0195 22.7109 9.78516C22.4844 9.90234 22.1406 10.1406 21.6797 10.5C21.2188 10.8516 20.6406 11.3477 19.9453 11.9883C19.2422 12.6211 18.4258 13.4023 17.4961 14.332C16.5586 15.2617 15.5 16.3594 14.3203 17.625C13.9375 17.4297 13.5078 17.3203 13.0312 17.2969C13.1797 17.125 13.3477 16.9375 13.5352 16.7344C13.7148 16.5234 13.9062 16.3125 14.1094 16.1016C14.3047 15.8906 14.5039 15.6797 14.707 15.4688C14.9102 15.2578 15.1055 15.0586 15.293 14.8711C15.4492 14.7148 15.6562 14.5039 15.9141 14.2383C16.1719 13.9727 16.4648 13.6758 16.793 13.3477C17.1133 13.0117 17.4648 12.6602 17.8477 12.293C18.2227 11.918 18.6094 11.5508 19.0078 11.1914C19.3984 10.8242 19.7969 10.4766 20.2031 10.1484C20.6016 9.8125 20.9844 9.51953 21.3516 9.26953C21.7188 9.01172 22.0664 8.80859 22.3945 8.66016C22.7148 8.50391 22.9961 8.42578 23.2383 8.42578C23.4648 8.42578 23.6445 8.49219 23.7773 8.625Z" fill="var(--icon-stroke-color)" />
        <path class="fwns" d="M13.0781 17.0039C13.5312 17.0039 13.9453 17.0703 14.3203 17.2031C14.6953 17.3359 15.0156 17.5273 15.2812 17.7773C15.5391 18.0273 15.7422 18.3359 15.8906 18.7031C16.0312 19.0625 16.1016 19.4688 16.1016 19.9219C16.1016 20.5 15.9492 21.0391 15.6445 21.5391C15.3398 22.0312 14.9414 22.4609 14.4492 22.8281C13.9492 23.1953 13.3828 23.4844 12.75 23.6953C12.1172 23.8984 11.4688 24 10.8047 24C9.86719 23.9141 8.99609 23.7695 8.19141 23.5664C7.84766 23.4805 7.50391 23.3789 7.16016 23.2617C6.80859 23.1367 6.48047 22.9961 6.17578 22.8398C5.87109 22.6758 5.59766 22.4922 5.35547 22.2891C5.11328 22.0859 4.92969 21.8555 4.80469 21.5977C4.84375 21.6055 4.89062 21.6094 4.94531 21.6094C4.99219 21.6172 5.04688 21.6211 5.10938 21.6211C5.16406 21.6211 5.23438 21.6211 5.32031 21.6211C5.58594 21.6211 5.92188 21.6016 6.32812 21.5625C6.72656 21.5156 7.14844 21.418 7.59375 21.2695C8.03906 21.1133 8.48047 20.8906 8.91797 20.6016C9.34766 20.3125 9.72656 19.918 10.0547 19.418C10.2266 19.1055 10.4062 18.8047 10.5938 18.5156C10.7734 18.2266 10.9766 17.9727 11.2031 17.7539C11.4297 17.5273 11.6953 17.3477 12 17.2148C12.2969 17.0742 12.6562 17.0039 13.0781 17.0039ZM10.8398 22.8047C11.3398 22.7969 11.8359 22.7109 12.3281 22.5469C12.8125 22.3828 13.2461 22.168 13.6289 21.9023C14.0117 21.6289 14.3203 21.3242 14.5547 20.9883C14.7891 20.6445 14.9062 20.2891 14.9062 19.9219C14.9062 19.6016 14.8672 19.332 14.7891 19.1133C14.7031 18.8945 14.5859 18.7188 14.4375 18.5859C14.2891 18.4453 14.1133 18.3477 13.9102 18.293C13.6992 18.2305 13.4648 18.1992 13.207 18.1992C12.9805 18.1992 12.7812 18.2305 12.6094 18.293C12.4297 18.3555 12.2617 18.4609 12.1055 18.6094C11.9414 18.75 11.7812 18.9375 11.625 19.1719C11.4609 19.3984 11.2852 19.6797 11.0977 20.0156C10.8789 20.3516 10.6562 20.6445 10.4297 20.8945C10.1953 21.1445 9.95703 21.3633 9.71484 21.5508C9.47266 21.7305 9.22656 21.8828 8.97656 22.0078C8.72656 22.1328 8.47656 22.2422 8.22656 22.3359C8.66406 22.4609 9.10938 22.5625 9.5625 22.6406C10.0156 22.7109 10.4414 22.7656 10.8398 22.8047Z" fill="var(--icon-stroke-color)" />
    </symbol>
    <symbol id="visualizationPaneFormatModernSelected_paneColorRefresh" width="24" height="24" viewBox="0 0 24 24">
        <path class="fwns" d="M2.40234 19.5586V9.59766H8.40234V1.19531H15.5977V6H21.5977V7.04297C21.4102 7.12891 21.2148 7.23438 21.0117 7.35938C20.8086 7.47656 20.6055 7.60547 20.4023 7.74609V7.19531H15.5977V11.9883C15.4102 12.1914 15.2188 12.3945 15.0234 12.5977C14.8203 12.793 14.6133 12.9961 14.4023 13.207V2.40234H9.59766V16.8633C9.35547 17.1445 9.14062 17.4375 8.95312 17.7422C8.76562 18.0469 8.58203 18.3633 8.40234 18.6914V10.8047H3.59766V19.6758L2.40234 19.5586Z" fill="var(--icon-stroke-color)" />
        <path class="fwns" d="M23.7773 8.625C23.9258 8.77344 24 8.98047 24 9.24609C24 9.59766 23.8867 10.0234 23.6602 10.5234C23.4258 11.0156 23.125 11.5391 22.7578 12.0938C22.3906 12.6484 21.9844 13.2148 21.5391 13.793C21.0859 14.3711 20.6406 14.9141 20.2031 15.4219C19.7656 15.9297 19.3633 16.3867 18.9961 16.793C18.6211 17.1914 18.3281 17.4961 18.1172 17.707C17.9297 17.8945 17.7344 18.0898 17.5312 18.293C17.3203 18.4961 17.1094 18.6992 16.8984 18.9023C16.6875 19.0977 16.4805 19.2891 16.2773 19.4766C16.0742 19.6562 15.8867 19.8203 15.7148 19.9688C15.6836 19.4844 15.5703 19.0508 15.375 18.668C15.5 18.5508 15.6406 18.418 15.7969 18.2695C15.9531 18.1211 16.1172 17.9688 16.2891 17.8125C16.4609 17.6484 16.6328 17.4844 16.8047 17.3203C16.9688 17.1562 17.125 17 17.2734 16.8516C17.625 16.5 17.9922 16.1172 18.375 15.7031C18.75 15.2812 19.125 14.8477 19.5 14.4023C19.875 13.957 20.2383 13.5117 20.5898 13.0664C20.9336 12.6211 21.25 12.1953 21.5391 11.7891C21.8281 11.3828 22.0742 11.0078 22.2773 10.6641C22.4805 10.3125 22.625 10.0195 22.7109 9.78516C22.4844 9.90234 22.1406 10.1406 21.6797 10.5C21.2188 10.8516 20.6406 11.3477 19.9453 11.9883C19.2422 12.6211 18.4258 13.4023 17.4961 14.332C16.5586 15.2617 15.5 16.3594 14.3203 17.625C13.9375 17.4297 13.5078 17.3203 13.0312 17.2969C13.1797 17.125 13.3477 16.9375 13.5352 16.7344C13.7148 16.5234 13.9062 16.3125 14.1094 16.1016C14.3047 15.8906 14.5039 15.6797 14.707 15.4688C14.9102 15.2578 15.1055 15.0586 15.293 14.8711C15.4492 14.7148 15.6562 14.5039 15.9141 14.2383C16.1719 13.9727 16.4648 13.6758 16.793 13.3477C17.1133 13.0117 17.4648 12.6602 17.8477 12.293C18.2227 11.918 18.6094 11.5508 19.0078 11.1914C19.3984 10.8242 19.7969 10.4766 20.2031 10.1484C20.6016 9.8125 20.9844 9.51953 21.3516 9.26953C21.7188 9.01172 22.0664 8.80859 22.3945 8.66016C22.7148 8.50391 22.9961 8.42578 23.2383 8.42578C23.4648 8.42578 23.6445 8.49219 23.7773 8.625Z" fill="var(--icon-stroke-color)" />
        <path class="fwns" d="M10.793 23.4023C10.3555 23.3633 9.90234 23.3047 9.43359 23.2266C8.96484 23.1406 8.51172 23.0352 8.07422 22.9102L6.25781 22.4062L8.02734 21.7734C8.55859 21.5859 9.02344 21.3398 9.42188 21.0352C9.82031 20.7305 10.1562 20.375 10.4297 19.9688L10.5703 19.7227C10.7578 19.3867 10.9375 19.0898 11.1094 18.832C11.2734 18.5664 11.4492 18.3438 11.6367 18.1641C11.8164 17.9844 12.0234 17.8477 12.2578 17.7539C12.4844 17.6523 12.7578 17.6016 13.0781 17.6016C13.8125 17.6016 14.3828 17.8047 14.7891 18.2109C15.1953 18.6172 15.3984 19.1875 15.3984 19.9219C15.3984 20.2188 15.3398 20.5078 15.2227 20.7891C15.1055 21.0703 14.9453 21.3398 14.7422 21.5977C14.5312 21.8555 14.2852 22.0938 14.0039 22.3125C13.7148 22.5312 13.4023 22.7227 13.0664 22.8867C12.7305 23.043 12.375 23.168 12 23.2617C11.625 23.3555 11.2422 23.4023 10.8516 23.4023H10.793Z" fill="var(--icon-fill-color)" />
        <path class="fwns" d="M13.0781 17.0039C13.5312 17.0039 13.9453 17.0703 14.3203 17.2031C14.6953 17.3359 15.0156 17.5273 15.2812 17.7773C15.5391 18.0273 15.7422 18.3359 15.8906 18.7031C16.0312 19.0625 16.1016 19.4688 16.1016 19.9219C16.1016 20.5 15.9492 21.0391 15.6445 21.5391C15.3398 22.0312 14.9414 22.4609 14.4492 22.8281C13.9492 23.1953 13.3828 23.4844 12.75 23.6953C12.1172 23.8984 11.4688 24 10.8047 24C9.86719 23.9141 8.99609 23.7695 8.19141 23.5664C7.84766 23.4805 7.50391 23.3789 7.16016 23.2617C6.80859 23.1367 6.48047 22.9961 6.17578 22.8398C5.87109 22.6758 5.59766 22.4922 5.35547 22.2891C5.11328 22.0859 4.92969 21.8555 4.80469 21.5977C4.84375 21.6055 4.89062 21.6094 4.94531 21.6094C4.99219 21.6172 5.04688 21.6211 5.10938 21.6211C5.16406 21.6211 5.23438 21.6211 5.32031 21.6211C5.58594 21.6211 5.92188 21.6016 6.32812 21.5625C6.72656 21.5156 7.14844 21.418 7.59375 21.2695C8.03906 21.1133 8.48047 20.8906 8.91797 20.6016C9.34766 20.3125 9.72656 19.918 10.0547 19.418C10.2266 19.1055 10.4062 18.8047 10.5938 18.5156C10.7734 18.2266 10.9766 17.9727 11.2031 17.7539C11.4297 17.5273 11.6953 17.3477 12 17.2148C12.2969 17.0742 12.6562 17.0039 13.0781 17.0039ZM10.8398 22.8047C11.3398 22.7969 11.8359 22.7109 12.3281 22.5469C12.8125 22.3828 13.2461 22.168 13.6289 21.9023C14.0117 21.6289 14.3203 21.3242 14.5547 20.9883C14.7891 20.6445 14.9062 20.2891 14.9062 19.9219C14.9062 19.6016 14.8672 19.332 14.7891 19.1133C14.7031 18.8945 14.5859 18.7188 14.4375 18.5859C14.2891 18.4453 14.1133 18.3477 13.9102 18.293C13.6992 18.2305 13.4648 18.1992 13.207 18.1992C12.9805 18.1992 12.7812 18.2305 12.6094 18.293C12.4297 18.3555 12.2617 18.4609 12.1055 18.6094C11.9414 18.75 11.7812 18.9375 11.625 19.1719C11.4609 19.3984 11.2852 19.6797 11.0977 20.0156C10.8789 20.3516 10.6562 20.6445 10.4297 20.8945C10.1953 21.1445 9.95703 21.3633 9.71484 21.5508C9.47266 21.7305 9.22656 21.8828 8.97656 22.0078C8.72656 22.1328 8.47656 22.2422 8.22656 22.3359C8.66406 22.4609 9.10938 22.5625 9.5625 22.6406C10.0156 22.7109 10.4414 22.7656 10.8398 22.8047Z" fill="var(--icon-stroke-color)" />
        <path class="fwns" d="M9.59961 2.40002H14.3996V13.2L9.59961 16.8V2.40002Z" fill="var(--icon-fill-color)"/>
    </symbol>
    <symbol id="visualizationPanePageModern_paneColorRefresh" width="24" height="24" viewBox="0 0 24 24">
        <path class="fwns" d="M23.7773 8.625C23.9258 8.77344 24 8.98047 24 9.24609C24 9.59766 23.8867 10.0234 23.6602 10.5234C23.4258 11.0156 23.125 11.5391 22.7578 12.0938C22.3906 12.6484 21.9844 13.2148 21.5391 13.793C21.0859 14.3711 20.6406 14.9141 20.2031 15.4219C19.7656 15.9297 19.3633 16.3867 18.9961 16.793C18.6211 17.1914 18.3281 17.4961 18.1172 17.707C17.9297 17.8945 17.7344 18.0898 17.5312 18.293C17.3203 18.4961 17.1094 18.6992 16.8984 18.9023C16.6875 19.0977 16.4805 19.2891 16.2773 19.4766C16.0742 19.6562 15.8867 19.8203 15.7148 19.9688C15.6836 19.4844 15.5703 19.0508 15.375 18.668C15.5 18.5508 15.6406 18.418 15.7969 18.2695C15.9531 18.1211 16.1172 17.9688 16.2891 17.8125C16.4609 17.6484 16.6328 17.4844 16.8047 17.3203C16.9688 17.1562 17.125 17 17.2734 16.8516C17.625 16.5 17.9922 16.1172 18.375 15.7031C18.75 15.2812 19.125 14.8477 19.5 14.4023C19.875 13.957 20.2383 13.5117 20.5898 13.0664C20.9336 12.6211 21.25 12.1953 21.5391 11.7891C21.8281 11.3828 22.0742 11.0078 22.2773 10.6641C22.4805 10.3125 22.625 10.0195 22.7109 9.78516C22.4844 9.90234 22.1406 10.1406 21.6797 10.5C21.2188 10.8516 20.6406 11.3477 19.9453 11.9883C19.2422 12.6211 18.4258 13.4023 17.4961 14.332C16.5586 15.2617 15.5 16.3594 14.3203 17.625C13.9375 17.4297 13.5078 17.3203 13.0312 17.2969C13.1797 17.125 13.3477 16.9375 13.5352 16.7344C13.7148 16.5234 13.9062 16.3125 14.1094 16.1016C14.3047 15.8906 14.5039 15.6797 14.707 15.4688C14.9102 15.2578 15.1055 15.0586 15.293 14.8711C15.4492 14.7148 15.6562 14.5039 15.9141 14.2383C16.1719 13.9727 16.4648 13.6758 16.793 13.3477C17.1133 13.0117 17.4648 12.6602 17.8477 12.293C18.2227 11.918 18.6094 11.5508 19.0078 11.1914C19.3984 10.8242 19.7969 10.4766 20.2031 10.1484C20.6016 9.8125 20.9844 9.51953 21.3516 9.26953C21.7188 9.01172 22.0664 8.80859 22.3945 8.66016C22.7148 8.50391 22.9961 8.42578 23.2383 8.42578C23.4648 8.42578 23.6445 8.49219 23.7773 8.625Z" fill="var(--icon-stroke-color)" />
        <path class="fwns" d="M13.0781 17.0039C13.5312 17.0039 13.9453 17.0703 14.3203 17.2031C14.6953 17.3359 15.0156 17.5273 15.2812 17.7773C15.5391 18.0273 15.7422 18.3359 15.8906 18.7031C16.0312 19.0625 16.1016 19.4688 16.1016 19.9219C16.1016 20.5 15.9492 21.0391 15.6445 21.5391C15.3398 22.0312 14.9414 22.4609 14.4492 22.8281C13.9492 23.1953 13.3828 23.4844 12.75 23.6953C12.1172 23.8984 11.4688 24 10.8047 24C9.86719 23.9141 8.99609 23.7695 8.19141 23.5664C7.84766 23.4805 7.50391 23.3789 7.16016 23.2617C6.80859 23.1367 6.48047 22.9961 6.17578 22.8398C5.87109 22.6758 5.59766 22.4922 5.35547 22.2891C5.11328 22.0859 4.92969 21.8555 4.80469 21.5977C4.84375 21.6055 4.89062 21.6094 4.94531 21.6094C4.99219 21.6172 5.04688 21.6211 5.10938 21.6211C5.16406 21.6211 5.23438 21.6211 5.32031 21.6211C5.58594 21.6211 5.92188 21.6016 6.32812 21.5625C6.72656 21.5156 7.14844 21.418 7.59375 21.2695C8.03906 21.1133 8.48047 20.8906 8.91797 20.6016C9.34766 20.3125 9.72656 19.918 10.0547 19.418C10.2266 19.1055 10.4062 18.8047 10.5938 18.5156C10.7734 18.2266 10.9766 17.9727 11.2031 17.7539C11.4297 17.5273 11.6953 17.3477 12 17.2148C12.2969 17.0742 12.6562 17.0039 13.0781 17.0039ZM10.8398 22.8047C11.3398 22.7969 11.8359 22.7109 12.3281 22.5469C12.8125 22.3828 13.2461 22.168 13.6289 21.9023C14.0117 21.6289 14.3203 21.3242 14.5547 20.9883C14.7891 20.6445 14.9062 20.2891 14.9062 19.9219C14.9062 19.6016 14.8672 19.332 14.7891 19.1133C14.7031 18.8945 14.5859 18.7188 14.4375 18.5859C14.2891 18.4453 14.1133 18.3477 13.9102 18.293C13.6992 18.2305 13.4648 18.1992 13.207 18.1992C12.9805 18.1992 12.7812 18.2305 12.6094 18.293C12.4297 18.3555 12.2617 18.4609 12.1055 18.6094C11.9414 18.75 11.7812 18.9375 11.625 19.1719C11.4609 19.3984 11.2852 19.6797 11.0977 20.0156C10.8789 20.3516 10.6562 20.6445 10.4297 20.8945C10.1953 21.1445 9.95703 21.3633 9.71484 21.5508C9.47266 21.7305 9.22656 21.8828 8.97656 22.0078C8.72656 22.1328 8.47656 22.2422 8.22656 22.3359C8.66406 22.4609 9.10938 22.5625 9.5625 22.6406C10.0156 22.7109 10.4414 22.7656 10.8398 22.8047Z" fill="var(--icon-stroke-color)" />
        <path class="fwns" d="M0 24V0H10.8L18 7.2V9.6L16.8 10.8V8.4H9.6V1.2H1.2V22.8H3.4L4.6 24H0Z" fill="var(--icon-stroke-color)" />
        <path class="fwns" d="M10.7998 7.20005V1.80005L16.1998 7.20005H10.7998Z" fill="white" />
    </symbol>
    <symbol id="visualizationPanePageModernSelected_paneColorRefresh" width="24" height="24" viewBox="0 0 24 24">
        <path class="fwns" d="M23.7773 8.625C23.9258 8.77344 24 8.98047 24 9.24609C24 9.59766 23.8867 10.0234 23.6602 10.5234C23.4258 11.0156 23.125 11.5391 22.7578 12.0938C22.3906 12.6484 21.9844 13.2148 21.5391 13.793C21.0859 14.3711 20.6406 14.9141 20.2031 15.4219C19.7656 15.9297 19.3633 16.3867 18.9961 16.793C18.6211 17.1914 18.3281 17.4961 18.1172 17.707C17.9297 17.8945 17.7344 18.0898 17.5312 18.293C17.3203 18.4961 17.1094 18.6992 16.8984 18.9023C16.6875 19.0977 16.4805 19.2891 16.2773 19.4766C16.0742 19.6562 15.8867 19.8203 15.7148 19.9688C15.6836 19.4844 15.5703 19.0508 15.375 18.668C15.5 18.5508 15.6406 18.418 15.7969 18.2695C15.9531 18.1211 16.1172 17.9687 16.2891 17.8125C16.4609 17.6484 16.6328 17.4844 16.8047 17.3203C16.9688 17.1562 17.125 17 17.2734 16.8516C17.625 16.5 17.9922 16.1172 18.375 15.7031C18.75 15.2812 19.125 14.8477 19.5 14.4023C19.875 13.957 20.2383 13.5117 20.5898 13.0664C20.9336 12.6211 21.25 12.1953 21.5391 11.7891C21.8281 11.3828 22.0742 11.0078 22.2773 10.6641C22.4805 10.3125 22.625 10.0195 22.7109 9.78516C22.4844 9.90234 22.1406 10.1406 21.6797 10.5C21.2188 10.8516 20.6406 11.3477 19.9453 11.9883C19.2422 12.6211 18.4258 13.4023 17.4961 14.332C16.5586 15.2617 15.5 16.3594 14.3203 17.625C13.9375 17.4297 13.5078 17.3203 13.0312 17.2969C13.1797 17.125 13.3477 16.9375 13.5352 16.7344C13.7148 16.5234 13.9062 16.3125 14.1094 16.1016C14.3047 15.8906 14.5039 15.6797 14.707 15.4688C14.9102 15.2578 15.1055 15.0586 15.293 14.8711C15.4492 14.7148 15.6562 14.5039 15.9141 14.2383C16.1719 13.9727 16.4648 13.6758 16.793 13.3477C17.1133 13.0117 17.4648 12.6602 17.8477 12.293C18.2227 11.918 18.6094 11.5508 19.0078 11.1914C19.3984 10.8242 19.7969 10.4766 20.2031 10.1484C20.6016 9.8125 20.9844 9.51953 21.3516 9.26953C21.7188 9.01172 22.0664 8.80859 22.3945 8.66016C22.7148 8.50391 22.9961 8.42578 23.2383 8.42578C23.4648 8.42578 23.6445 8.49219 23.7773 8.625Z" fill="var(--icon-stroke-color)" />
        <path class="fwns" d="M10.793 23.4023C10.3555 23.3633 9.90234 23.3047 9.43359 23.2266C8.96484 23.1406 8.51172 23.0352 8.07422 22.9102L6.25781 22.4062L8.02734 21.7734C8.55859 21.5859 9.02344 21.3398 9.42188 21.0352C9.82031 20.7305 10.1562 20.375 10.4297 19.9688L10.5703 19.7227C10.7578 19.3867 10.9375 19.0898 11.1094 18.832C11.2734 18.5664 11.4492 18.3437 11.6367 18.1641C11.8164 17.9844 12.0234 17.8477 12.2578 17.7539C12.4844 17.6523 12.7578 17.6016 13.0781 17.6016C13.8125 17.6016 14.3828 17.8047 14.7891 18.2109C15.1953 18.6172 15.3984 19.1875 15.3984 19.9219C15.3984 20.2188 15.3398 20.5078 15.2227 20.7891C15.1055 21.0703 14.9453 21.3398 14.7422 21.5977C14.5312 21.8555 14.2852 22.0938 14.0039 22.3125C13.7148 22.5312 13.4023 22.7227 13.0664 22.8867C12.7305 23.043 12.375 23.168 12 23.2617C11.625 23.3555 11.2422 23.4023 10.8516 23.4023H10.793Z" fill="var(--icon-fill-color)" />
        <path class="fwns" d="M13.0781 17.0039C13.5313 17.0039 13.9453 17.0703 14.3203 17.2031C14.6953 17.3359 15.0156 17.5273 15.2812 17.7773C15.5391 18.0273 15.7422 18.3359 15.8906 18.7031C16.0312 19.0625 16.1016 19.4687 16.1016 19.9219C16.1016 20.5 15.9492 21.0391 15.6445 21.5391C15.3398 22.0312 14.9414 22.4609 14.4492 22.8281C13.9492 23.1953 13.3828 23.4844 12.75 23.6953C12.1172 23.8984 11.4688 24 10.8047 24C9.86719 23.9141 8.99609 23.7695 8.19141 23.5664C7.84766 23.4805 7.50391 23.3789 7.16016 23.2617C6.80859 23.1367 6.48047 22.9961 6.17578 22.8398C5.87109 22.6758 5.59766 22.4922 5.35547 22.2891C5.11328 22.0859 4.92969 21.8555 4.80469 21.5977C4.84375 21.6055 4.89063 21.6094 4.94531 21.6094C4.99219 21.6172 5.04687 21.6211 5.10938 21.6211C5.16406 21.6211 5.23437 21.6211 5.32031 21.6211C5.58594 21.6211 5.92187 21.6016 6.32812 21.5625C6.72656 21.5156 7.14844 21.418 7.59375 21.2695C8.03906 21.1133 8.48047 20.8906 8.91797 20.6016C9.34766 20.3125 9.72656 19.918 10.0547 19.418C10.2266 19.1055 10.4062 18.8047 10.5938 18.5156C10.7734 18.2266 10.9766 17.9727 11.2031 17.7539C11.4297 17.5273 11.6953 17.3477 12 17.2148C12.2969 17.0742 12.6562 17.0039 13.0781 17.0039ZM10.8398 22.8047C11.3398 22.7969 11.8359 22.7109 12.3281 22.5469C12.8125 22.3828 13.2461 22.168 13.6289 21.9023C14.0117 21.6289 14.3203 21.3242 14.5547 20.9883C14.7891 20.6445 14.9062 20.2891 14.9062 19.9219C14.9062 19.6016 14.8672 19.332 14.7891 19.1133C14.7031 18.8945 14.5859 18.7187 14.4375 18.5859C14.2891 18.4453 14.1133 18.3477 13.9102 18.293C13.6992 18.2305 13.4648 18.1992 13.207 18.1992C12.9805 18.1992 12.7813 18.2305 12.6094 18.293C12.4297 18.3555 12.2617 18.4609 12.1055 18.6094C11.9414 18.75 11.7812 18.9375 11.625 19.1719C11.4609 19.3984 11.2852 19.6797 11.0977 20.0156C10.8789 20.3516 10.6563 20.6445 10.4297 20.8945C10.1953 21.1445 9.95703 21.3633 9.71484 21.5508C9.47266 21.7305 9.22656 21.8828 8.97656 22.0078C8.72656 22.1328 8.47656 22.2422 8.22656 22.3359C8.66406 22.4609 9.10937 22.5625 9.5625 22.6406C10.0156 22.7109 10.4414 22.7656 10.8398 22.8047Z" fill="var(--icon-stroke-color)" />
        <path class="fwns" d="M0 24V0H10.8L18 7.2V9.6L16.8 10.8V8.4H9.6V1.2H1.2V22.8H3.4L4.6 24H0Z" fill="var(--icon-stroke-color)" />
        <path class="fwns" d="M10.8 7.1998V1.7998L16.2001 7.1998H10.8Z" fill="var(--icon-fill-color)" />
    </symbol>
    <symbol id="visualizationPaneAnalyticsModern_paneColorRefresh" width="24" height="24" viewBox="0 0 24 24">
        <path class="fwns" fill-rule="evenodd" clip-rule="evenodd" d="M16.8 17.9772C14.9585 19.5446 12.6182 20.4037 10.2 20.4C7.49479 20.4 4.90038 19.3254 2.98751 17.4125C1.07464 15.4996 0 12.9052 0 10.2C0 7.49479 1.07464 4.90038 2.98751 2.98751C4.90038 1.07464 7.49479 0 10.2 0C12.9052 0 15.4996 1.07464 17.4125 2.98751C19.3254 4.90038 20.4 7.49479 20.4 10.2C20.4035 12.6059 19.553 14.9349 18 16.7724V16.8H19.2V18H20.4V19.2H21.6V20.4H22.8V21.6H24V24H21.6V22.8H20.4V21.6H19.2V20.4H18V19.2H16.8V17.9772ZM17.9184 5.5764L9 11.52L5.3736 9.1032L1.2 11.4C1.2 12.6 1.71816 13.4744 2.33324 14.5778C2.94831 15.6813 3.78879 16.6428 4.8 17.4V12H6V18C6.83519 18.4824 7.45492 18.8264 8.4 19.0188V13.2H9.6V19.1808C9.7984 19.1936 9.9984 19.2 10.2 19.2C10.8046 19.2001 11.4076 19.1394 12 19.0188V12H13.2V18.6864C14.3551 18.2759 14.7015 18.234 15.6 17.4V16.8V9.6H16.8V15.6V16.2C17.9714 14.6437 19.2033 12.1479 19.2 10.2C19.202 8.57045 18.7588 6.9713 17.9184 5.5752V5.5764ZM17.2332 4.5912C16.3914 3.5334 15.3218 2.67913 14.1041 2.09198C12.8864 1.50483 11.5519 1.19994 10.2 1.2C7.8363 1.20223 5.56814 2.13327 3.88456 3.79239C2.20098 5.4515 1.23683 7.70578 1.2 10.0692L5.4264 7.6968L9 10.08L17.2332 4.5912Z" fill="var(--icon-stroke-color)" />
    </symbol>
    <symbol id="visualizationPaneAnalyticsModernSelected_paneColorRefresh" width="24" height="24" viewBox="0 0 24 24">
        <path class="fwns" d="M0.599609 10.8L5.39961 8.99999L8.99961 10.8L14.9996 7.19999L17.9996 4.79999L19.7996 7.79999L19.1996 13.8L13.7996 19.2H8.99961L4.79961 18L1.79961 15.6L0.599609 10.8Z" fill="var(--icon-fill-color)" />
        <path class="fwns" fill-rule="evenodd" clip-rule="evenodd" d="M16.8 17.9772C14.9585 19.5446 12.6182 20.4037 10.2 20.4C7.49479 20.4 4.90038 19.3254 2.98751 17.4125C1.07464 15.4996 0 12.9052 0 10.2C0 7.49479 1.07464 4.90038 2.98751 2.98751C4.90038 1.07464 7.49479 0 10.2 0C12.9052 0 15.4996 1.07464 17.4125 2.98751C19.3254 4.90038 20.4 7.49479 20.4 10.2C20.4035 12.6059 19.553 14.9349 18 16.7724V16.8H19.2V18H20.4V19.2H21.6V20.4H22.8V21.6H24V24H21.6V22.8H20.4V21.6H19.2V20.4H18V19.2H16.8V17.9772ZM17.9184 5.5764L9 11.52L5.3736 9.1032L1.2 11.4C1.2 12.6 1.71816 13.4744 2.33324 14.5778C2.94831 15.6813 3.78879 16.6428 4.8 17.4V12H6V18C6.83519 18.4824 7.45492 18.8264 8.4 19.0188V13.2H9.6V19.1808C9.7984 19.1936 9.9984 19.2 10.2 19.2C10.8046 19.2001 11.4076 19.1394 12 19.0188V12H13.2V18.6864C14.3551 18.2759 14.7015 18.234 15.6 17.4V16.8V9.6H16.8V15.6V16.2C17.9714 14.6437 19.2033 12.1479 19.2 10.2C19.202 8.57045 18.7588 6.9713 17.9184 5.5752V5.5764ZM17.2332 4.5912C16.3914 3.5334 15.3218 2.67913 14.1041 2.09198C12.8864 1.50483 11.5519 1.19994 10.2 1.2C7.8363 1.20223 5.56814 2.13327 3.88456 3.79239C2.20098 5.4515 1.23683 7.70578 1.2 10.0692L5.4264 7.6968L9 10.08L17.2332 4.5912Z" fill="var(--icon-stroke-color)" />
    </symbol>
</svg>
