<?xml version="1.0" encoding="utf-8"?><svg xmlns="http://www.w3.org/2000/svg" xmlns:xlink="http://www.w3.org/1999/xlink"><symbol viewBox="0 0 20 20" fill="none" id="data_histogram_function_20_filled" xmlns="http://www.w3.org/2000/svg">
<path d="M10.5 3C11.3284 3 12 3.67157 12 4.5V8.49447C11.7587 8.65479 11.5401 8.85029 11.3521 9.07633C10.9 9.6198 10.6538 10.3051 10.6567 11.012H10.5997C10.2019 10.9978 9.81469 11.1422 9.52335 11.4135C9.23201 11.6848 9.06037 12.0607 9.04618 12.4585C9.03199 12.8563 9.17642 13.2435 9.44769 13.5348C9.71896 13.8262 10.0949 13.9978 10.4927 14.012C10.4357 14.98 10.3797 15.894 10.3527 16.236C10.3389 16.478 10.3055 16.7184 10.2527 16.955C10.2297 16.945 10.2027 16.933 10.1717 16.917C9.81589 16.7389 9.40393 16.7094 9.02642 16.8351C8.90536 16.8754 8.79022 16.9309 8.68366 17H8V4.5C8 3.67157 8.67157 3 9.5 3H10.5Z" fill="currentColor"/>
<path d="M17 13.8782V8C17 6.89543 16.1046 6 15 6H13V8.06621C13.0426 8.05656 13.0855 8.04782 13.1287 8.04C13.2994 8.0139 13.4719 8.00053 13.6447 8C14.1577 7.99938 14.6604 8.14395 15.0947 8.417C15.3763 8.58559 15.5948 8.84189 15.7168 9.1466C15.8388 9.45131 15.8574 9.78761 15.7699 10.1039C15.6824 10.4203 15.4935 10.6992 15.2323 10.8979C14.9711 11.0966 14.6519 11.2041 14.3237 11.204C14.6152 11.3645 14.845 11.6174 14.9771 11.9228C15.1091 12.2283 15.1358 12.569 15.053 12.8913C15.0435 12.9283 15.0326 12.9648 15.0204 13.0007L15.0425 13C15.2822 13.0004 15.5198 13.0462 15.7425 13.135C16.1757 13.3443 16.5459 13.6645 16.8155 14.063L17 13.8782Z" fill="currentColor"/>
<path d="M5 9H7V17H3.5C3.22386 17 3 16.7761 3 16.5V11C3 9.89543 3.89543 9 5 9Z" fill="currentColor"/>
<path d="M13.4305 10.0172C13.6038 9.99265 13.7086 9.99735 13.7863 10.0129C13.8628 10.0282 13.9439 10.0601 14.064 10.1322C14.3008 10.2742 14.608 10.1974 14.75 9.96066C14.8921 9.72387 14.8153 9.41674 14.5785 9.27466C14.3974 9.16597 14.2073 9.07729 13.9824 9.03232C13.7593 8.98769 13.5333 8.99233 13.2863 9.02761L13.281 9.02843C12.7501 9.11012 12.3454 9.38387 12.0741 9.76999C11.8116 10.1436 11.6879 10.6001 11.6532 11.0511C11.6522 11.0639 11.6518 11.0767 11.6518 11.0895C11.6518 11.1648 11.6343 11.5214 11.6077 12.0173H10.5996C10.3235 12.0173 10.0996 12.2412 10.0996 12.5173C10.0996 12.7935 10.3235 13.0173 10.5996 13.0173H11.5522C11.4791 14.3068 11.3866 15.8422 11.352 16.2926C11.3208 16.6679 11.2932 16.9986 11.2008 17.2879C11.114 17.56 10.9809 17.7575 10.7548 17.8894L10.7417 17.8973C10.4843 18.0582 10.1536 18.0287 9.72372 17.8138C9.47673 17.6903 9.17639 17.7904 9.0529 18.0374C8.9294 18.2844 9.02951 18.5847 9.2765 18.7082C9.80926 18.9746 10.5603 19.1857 11.2652 18.7493C11.758 18.4594 12.015 18.0259 12.1535 17.5919C12.281 17.1923 12.3166 16.762 12.3448 16.4217L12.3487 16.3741L12.349 16.3709C12.3836 15.9204 12.4792 14.3373 12.5538 13.0173H13.5996C13.8758 13.0173 14.0996 12.7935 14.0996 12.5173C14.0996 12.2412 13.8758 12.0173 13.5996 12.0173H12.6089C12.6329 11.5648 12.6492 11.2281 12.6515 11.1129C12.6785 10.7874 12.7651 10.526 12.8923 10.3449C13.0123 10.1742 13.1795 10.0564 13.4305 10.0172Z" fill="currentColor"/>
<path d="M18.8536 14.8536C19.0488 14.6583 19.0488 14.3417 18.8536 14.1465C18.6583 13.9512 18.3417 13.9512 18.1464 14.1465L16.6094 15.6835C16.4021 15.3236 16.227 15.0212 16.1561 14.9047C16.0925 14.7824 16.0067 14.6328 15.8981 14.4923C15.7875 14.3491 15.6295 14.1839 15.4157 14.0802C15.4035 14.0742 15.391 14.0688 15.3784 14.0639C15.0576 13.9393 14.7638 14.0125 14.5457 14.1448C14.3483 14.2647 14.2008 14.438 14.1043 14.5628C13.9355 14.7813 13.9758 15.0953 14.1943 15.2641C14.4129 15.433 14.7269 15.3927 14.8957 15.1742C14.9318 15.1275 14.965 15.0885 14.9962 15.0571C15.0108 15.0424 15.0235 15.0309 15.0343 15.0219C15.0545 15.041 15.0789 15.0675 15.1068 15.1036C15.1675 15.1822 15.2242 15.2791 15.2759 15.3795C15.2818 15.391 15.2882 15.4024 15.2951 15.4134C15.3615 15.5209 15.6005 15.935 15.8771 16.4158L14.1464 18.1465C13.9512 18.3417 13.9512 18.6583 14.1464 18.8536C14.3417 19.0488 14.6583 19.0488 14.8536 18.8536L16.3935 17.3136C16.6149 17.698 16.8008 18.0189 16.8641 18.1214C16.9043 18.1863 16.9366 18.2415 16.9681 18.2955L16.9953 18.3417C17.0333 18.4063 17.0774 18.4799 17.1284 18.5494C17.2492 18.7139 17.3901 18.8298 17.594 18.9288C17.6311 18.9469 17.6704 18.9602 17.7109 18.9686C18.0117 19.031 18.2903 19.0052 18.5328 18.8419C18.6946 18.7329 18.8195 18.5628 18.8812 18.4789C18.8908 18.4657 18.899 18.4546 18.9055 18.4463C19.0743 18.2277 19.034 17.9137 18.8155 17.7449C18.5969 17.5761 18.2829 17.6164 18.1141 17.8349C18.0962 17.858 18.0779 17.8824 18.0626 17.9028L18.048 17.9222C18.0286 17.9479 18.0142 17.9665 18.0013 17.982C17.9952 17.9894 17.9902 17.9952 17.9861 17.9997L17.9762 17.9991C17.9697 17.9947 17.9654 17.9914 17.9626 17.9892C17.9565 17.9842 17.9487 17.977 17.9343 17.9574C17.9165 17.9332 17.8951 17.8991 17.8571 17.8345L17.8339 17.795C17.8018 17.7401 17.7619 17.6719 17.7147 17.5956C17.6478 17.4872 17.4054 17.0672 17.1258 16.5813L18.8536 14.8536Z" fill="currentColor"/>
</symbol><symbol viewBox="0 0 20 20" fill="none" id="data_histogram_function_20_regular" xmlns="http://www.w3.org/2000/svg">
<path d="M8 5V16H10.3698C10.3633 16.0951 10.3575 16.1747 10.3527 16.236C10.3389 16.478 10.3055 16.7184 10.2527 16.955C10.2297 16.945 10.2027 16.933 10.1717 16.917C9.81589 16.7389 9.40393 16.7094 9.02642 16.8351C8.90536 16.8754 8.79022 16.9309 8.68366 17H3.5C3.22386 17 3 16.7761 3 16.5V11C3 9.89543 3.89543 9 5 9H7V5C7 3.89543 7.89543 3 9 3H11C12.1046 3 13 3.89543 13 5V6H15C16.1046 6 17 6.89543 17 8V13.8782L16.8155 14.063C16.601 13.746 16.3229 13.4785 16 13.277V8C16 7.44772 15.5523 7 15 7H13V8.06621C12.6414 8.14745 12.3029 8.29325 12 8.49447V5C12 4.44772 11.5523 4 11 4H9C8.44772 4 8 4.44772 8 5ZM7 16V10H5C4.44772 10 4 10.4477 4 11V16H7Z" fill="currentColor"/>
<path d="M13.4305 10.0172C13.6038 9.99265 13.7086 9.99735 13.7863 10.0129C13.8628 10.0282 13.9439 10.0601 14.064 10.1322C14.3008 10.2742 14.608 10.1974 14.75 9.96066C14.8921 9.72387 14.8153 9.41674 14.5785 9.27466C14.3974 9.16597 14.2073 9.07729 13.9824 9.03232C13.7593 8.98769 13.5333 8.99233 13.2863 9.02761L13.281 9.02843C12.7501 9.11012 12.3454 9.38387 12.0741 9.76999C11.8116 10.1436 11.6879 10.6001 11.6532 11.0511C11.6522 11.0639 11.6518 11.0767 11.6518 11.0895C11.6518 11.1648 11.6343 11.5214 11.6077 12.0173H10.5996C10.3235 12.0173 10.0996 12.2412 10.0996 12.5173C10.0996 12.7935 10.3235 13.0173 10.5996 13.0173H11.5522C11.4791 14.3068 11.3866 15.8422 11.352 16.2926C11.3208 16.6679 11.2932 16.9986 11.2008 17.2879C11.114 17.56 10.9809 17.7575 10.7548 17.8894L10.7417 17.8973C10.4843 18.0582 10.1536 18.0287 9.72372 17.8138C9.47673 17.6903 9.17639 17.7904 9.0529 18.0374C8.9294 18.2844 9.02951 18.5847 9.2765 18.7082C9.80926 18.9746 10.5603 19.1857 11.2652 18.7493C11.758 18.4594 12.015 18.0259 12.1535 17.5919C12.281 17.1923 12.3166 16.762 12.3448 16.4217L12.3487 16.3741L12.349 16.3709C12.3836 15.9204 12.4792 14.3373 12.5538 13.0173H13.5996C13.8758 13.0173 14.0996 12.7935 14.0996 12.5173C14.0996 12.2412 13.8758 12.0173 13.5996 12.0173H12.6089C12.6329 11.5648 12.6492 11.2281 12.6515 11.1129C12.6785 10.7874 12.7651 10.526 12.8923 10.3449C13.0123 10.1742 13.1795 10.0564 13.4305 10.0172Z" fill="currentColor"/>
<path d="M18.8536 14.8536C19.0488 14.6583 19.0488 14.3417 18.8536 14.1465C18.6583 13.9512 18.3417 13.9512 18.1464 14.1465L16.6094 15.6835C16.4021 15.3236 16.227 15.0212 16.1561 14.9047C16.0925 14.7824 16.0067 14.6328 15.8981 14.4923C15.7875 14.3491 15.6295 14.1839 15.4157 14.0802C15.4035 14.0742 15.391 14.0688 15.3784 14.0639C15.0576 13.9393 14.7638 14.0125 14.5457 14.1448C14.3483 14.2647 14.2008 14.438 14.1043 14.5628C13.9355 14.7813 13.9758 15.0953 14.1943 15.2641C14.4129 15.433 14.7269 15.3927 14.8957 15.1742C14.9318 15.1275 14.965 15.0885 14.9962 15.0571C15.0108 15.0424 15.0235 15.0309 15.0343 15.0219C15.0545 15.041 15.0789 15.0675 15.1068 15.1036C15.1675 15.1822 15.2242 15.2791 15.2759 15.3795C15.2818 15.391 15.2882 15.4024 15.2951 15.4134C15.3615 15.5209 15.6005 15.935 15.8771 16.4158L14.1464 18.1465C13.9512 18.3417 13.9512 18.6583 14.1464 18.8536C14.3417 19.0488 14.6583 19.0488 14.8536 18.8536L16.3935 17.3136C16.6149 17.698 16.8008 18.0189 16.8641 18.1214C16.9043 18.1863 16.9366 18.2415 16.9681 18.2955L16.9953 18.3417C17.0333 18.4063 17.0774 18.4799 17.1284 18.5494C17.2492 18.7139 17.3901 18.8298 17.594 18.9288C17.6311 18.9469 17.6704 18.9602 17.7109 18.9686C18.0117 19.031 18.2903 19.0052 18.5328 18.8419C18.6946 18.7329 18.8195 18.5628 18.8812 18.4789C18.8908 18.4657 18.899 18.4546 18.9055 18.4463C19.0743 18.2277 19.034 17.9137 18.8155 17.7449C18.5969 17.5761 18.2829 17.6164 18.1141 17.8349C18.0962 17.858 18.0779 17.8824 18.0626 17.9028L18.048 17.9222C18.0286 17.9479 18.0142 17.9665 18.0013 17.982C17.9952 17.9894 17.9902 17.9952 17.9861 17.9997L17.9762 17.9991C17.9697 17.9947 17.9654 17.9914 17.9626 17.9892C17.9565 17.9842 17.9487 17.977 17.9343 17.9574C17.9165 17.9332 17.8951 17.8991 17.8571 17.8345L17.8339 17.795C17.8018 17.7401 17.7619 17.6719 17.7147 17.5956C17.6478 17.4872 17.4054 17.0672 17.1258 16.5813L18.8536 14.8536Z" fill="currentColor"/>
</symbol><symbol viewBox="0 0 20 20" fill="none" id="math_formula_20_regular" xmlns="http://www.w3.org/2000/svg">
  <path d="M9.67705 3.0903C9.50006 3.05491 9.28604 3.05016 8.97355 3.0946C8.46418 3.17361 8.10831 3.42049 7.85921 3.77499C7.60328 4.13919 7.447 4.63831 7.39993 5.22192C7.39722 5.41156 7.3636 6.09257 7.31458 7.00001H9.5C9.77614 7.00001 10 7.22387 10 7.50001C10 7.77616 9.77614 8.00001 9.5 8.00001H7.2595C7.13358 10.2496 6.95964 13.1453 6.89864 13.9384L6.89839 13.9415L6.89259 14.0112C6.8452 14.583 6.78881 15.2633 6.58894 15.8895C6.37594 16.5569 5.98982 17.1991 5.25857 17.6281C4.23572 18.2632 3.12697 17.9725 2.2765 17.5472C2.02951 17.4237 1.9294 17.1234 2.0529 16.8764C2.17639 16.6294 2.47673 16.5293 2.72372 16.6528C3.47143 17.0267 4.15977 17.1356 4.73511 16.776L4.74817 16.7681C5.21269 16.4972 5.47491 16.0911 5.63628 15.5855C5.80097 15.0695 5.84934 14.4888 5.89977 13.8834L5.90158 13.8617L5.9017 13.8601C5.96268 13.0665 6.13332 10.2206 6.25799 8.00001H4.5C4.22386 8.00001 4 7.77616 4 7.50001C4 7.22387 4.22386 7.00001 4.5 7.00001H6.31329C6.36513 6.04551 6.40011 5.34155 6.40011 5.20001C6.40011 5.18722 6.4006 5.17443 6.40158 5.16167C6.45615 4.45234 6.64934 3.75742 7.04101 3.20004C7.44148 2.63014 8.03483 2.22725 8.82408 2.10583L8.82939 2.10501C9.21543 2.04986 9.55067 2.04522 9.87317 2.10972C10.1973 2.17456 10.4769 2.30297 10.7574 2.47127C10.9941 2.61334 11.0709 2.92047 10.9289 3.15726C10.7868 3.39405 10.4797 3.47083 10.2429 3.32876C10.0234 3.19706 9.85289 3.12547 9.67705 3.0903ZM16.8536 9.14646C17.0488 9.34172 17.0488 9.65831 16.8536 9.85357L13.6336 13.0735C14.1838 14.0592 14.6955 14.9745 14.8284 15.1959C14.9068 15.3267 14.9727 15.4426 15.0279 15.5397L15.0691 15.6121C15.1345 15.7267 15.18 15.8025 15.223 15.8629C15.2826 15.9464 15.3398 16.006 15.4667 16.0763C15.6832 16.1131 15.7474 16.0685 15.7733 16.0506C15.8033 16.0298 15.8417 15.9938 15.8977 15.9242C15.9363 15.8761 15.9682 15.8324 16.0072 15.7786C16.0334 15.7427 16.0628 15.7023 16.0996 15.6532C16.2653 15.4323 16.5787 15.3875 16.7996 15.5532C17.0206 15.7189 17.0653 16.0323 16.8996 16.2532C16.8825 16.276 16.8636 16.3023 16.8429 16.331C16.7295 16.4884 16.5623 16.7203 16.3436 16.872C16.0275 17.0913 15.6508 17.1395 15.1951 17.0421C15.1538 17.0333 15.1137 17.0193 15.0759 17.0003C14.7723 16.8484 14.5778 16.6805 14.4088 16.4435C14.3335 16.3379 14.2662 16.2227 14.2008 16.1082L14.1557 16.029C14.1011 15.9329 14.0426 15.83 13.9709 15.7104C13.8405 15.4931 13.3921 14.6923 12.8986 13.8085L9.85355 16.8536C9.65829 17.0488 9.34171 17.0488 9.14645 16.8536C8.95118 16.6583 8.95118 16.3417 9.14645 16.1465L12.392 12.9009C11.8704 11.9666 11.3978 11.122 11.2709 10.9104C11.2643 10.8995 11.2581 10.8882 11.2524 10.8768C11.1585 10.689 11.0489 10.4939 10.9246 10.3282C10.8051 10.1687 10.6928 10.065 10.5954 10.0107C10.5337 9.99038 10.4782 9.99685 10.3896 10.0522C10.2708 10.1264 10.141 10.2647 9.99964 10.4532C9.83395 10.6741 9.52055 10.7189 9.29964 10.5532C9.07872 10.3875 9.03395 10.0741 9.19964 9.85319C9.35829 9.64165 9.57845 9.37993 9.85964 9.20419C10.1623 9.015 10.5549 8.9168 10.9853 9.08895C10.9982 9.0941 11.0108 9.09978 11.0232 9.10598C11.3214 9.25507 11.5522 9.49832 11.7246 9.72819C11.8957 9.95628 12.0333 10.204 12.1384 10.4127C12.2732 10.6397 12.6749 11.3566 13.127 12.1659L16.1464 9.14646C16.3417 8.9512 16.6583 8.9512 16.8536 9.14646Z" fill="currentColor"/>
</symbol><symbol viewBox="0 0 20 20" id="table_triangle_20_regular" xmlns="http://www.w3.org/2000/svg">
<path d="M17 5.5C17 4.11929 15.8807 3 14.5 3H5.5C4.11929 3 3 4.11929 3 5.5V14.5C3 15.8807 4.11929 17 5.5 17H9.73195L10.3098 16H8V13H12V13.0751L13 11.3446V8H16V11.3475L17 13.0785V5.5ZM4 14.5V13H7V16H5.5L5.35554 15.9931C4.59489 15.9204 4 15.2797 4 14.5ZM12 8V12H8V8H12ZM12 7H8V4H12V7ZM13 4H14.5L14.6445 4.00687C15.4051 4.07955 16 4.7203 16 5.5V7H13V4ZM4 7V5.5L4.00687 5.35554C4.07955 4.59489 4.7203 4 5.5 4H7V7H4ZM7 8V12H4V8H7Z" fill="currentColor"/>
<path d="M14.9306 11.5001L18.8306 18.2501H18.8336C18.8775 18.3261 18.9006 18.4124 18.9006 18.5001C18.9006 18.5879 18.8775 18.6741 18.8337 18.7501C18.7898 18.8261 18.7267 18.8892 18.6506 18.9331C18.5746 18.977 18.4884 19.0001 18.4006 19.0001H10.6006C10.5126 19.0007 10.426 18.9779 10.3496 18.9343C10.2732 18.8906 10.2096 18.8275 10.1654 18.7514C10.1212 18.6753 10.0978 18.5889 10.0977 18.5009C10.0975 18.4129 10.1206 18.3264 10.1646 18.2501L14.0646 11.5001C14.1121 11.4288 14.1765 11.3702 14.252 11.3297C14.3276 11.2893 14.4119 11.2681 14.4976 11.2681C14.5834 11.2681 14.6677 11.2893 14.7433 11.3297C14.8188 11.3702 14.8832 11.4288 14.9306 11.5001Z" fill="currentColor"/>
</symbol></svg>