<?xml version="1.0" encoding="utf-8"?><svg xmlns="http://www.w3.org/2000/svg" xmlns:xlink="http://www.w3.org/1999/xlink"><symbol viewBox="0 0 20 20" fill="none" id="cascade_20" xmlns="http://www.w3.org/2000/svg">
<path d="M18.4961 9.50195V18.4961H5.49805V9.50195M4.00391 12.5H1.50391V3.49609H14.502V5.99609H4.00391V12.5Z" fill="#FAFAFA"/>
<path d="M14.502 3.49609H1.50391V1.50391H14.502M18.4961 9.50195H5.49805V7.5H18.4961V9.50195Z" fill="#C8C6C4"/>
<path d="M19.0039 7.00195V19.0039H5V7.00195M17.998 10H5.99609V17.998H17.998M17.998 7.99805H5.99609V9.00391H17.998M15 0.996094V5.99609H14.0039V4.00391H2.00195V12.002H4.00391V12.998H0.996094V0.996094M14.0039 2.00195H2.00195V2.99805H14.0039V2.00195Z" fill="#3A3A38"/>
</symbol><symbol viewBox="0 0 16 16" fill="currentColor" id="dashboard_16_regular" xmlns="http://www.w3.org/2000/svg">
  <path fill-rule="evenodd" clip-rule="evenodd" d="M3.889 2.095a6.5 6.5 0 1 1 7.222 10.81A6.5 6.5 0 0 1 3.89 2.094zm.555 9.978A5.5 5.5 0 0 0 7.5 13 5.506 5.506 0 0 0 13 7.5a5.5 5.5 0 1 0-8.556 4.573zM10.294 4l.706.707-2.15 2.15a1.514 1.514 0 1 1-.707-.707L10.293 4zM7.221 7.916a.5.5 0 1 0 .556-.832.5.5 0 0 0-.556.832zm4.286-2.449l-.763.763c.166.403.253.834.255 1.27a3.463 3.463 0 0 1-.5 1.777l.735.735a4.477 4.477 0 0 0 .274-4.545h-.001zM8.733 4.242A3.373 3.373 0 0 0 7.5 4 3.5 3.5 0 0 0 4 7.5a3.46 3.46 0 0 0 .5 1.777l-.734.735A4.5 4.5 0 0 1 9.5 3.473l-.767.769z"/>
</symbol><symbol viewBox="0 0 14 17" fill="none" id="document_sql_16" xmlns="http://www.w3.org/2000/svg">
<path d="M4 0.000976562C2.89543 0.000976562 2 0.896408 2 2.00098V9.9857C2.34377 9.99739 2.68138 10.0652 3 10.1847V2.00098C3 1.44869 3.44772 1.00098 4 1.00098H8V4.50098C8 5.3294 8.67157 6.00098 9.5 6.00098H13V14.001C13 14.2565 12.9041 14.4897 12.7464 14.6665C12.9105 14.9116 13 15.2017 13 15.501C13 15.5832 12.9932 15.6647 12.9801 15.7448C13.5888 15.4019 14 14.7495 14 14.001V5.41519C14 5.01737 13.842 4.63584 13.5607 4.35453L9.64645 0.440316C9.36514 0.159012 8.98361 0.000976562 8.58579 0.000976562H4ZM12.7929 5.00098H9.5C9.22386 5.00098 9 4.77712 9 4.50098V1.20808L12.7929 5.00098Z" fill="currentColor"/>
<path d="M3.20561 11.4365C2.77553 11.1044 2.23584 10.9487 1.69629 10.9997C1.50378 10.9854 1.31008 11.0063 1.12482 11.0618C0.920316 11.1231 0.730337 11.2251 0.566338 11.3618C0.402339 11.4985 0.267715 11.6669 0.170587 11.857C0.0734577 12.0471 0.0158353 12.2549 0.00119259 12.4679L1.52793e-05 12.485V12.5022C1.52793e-05 13.0799 0.364567 13.4375 0.692457 13.6373C0.999405 13.8243 1.35095 13.9233 1.54273 13.9773L1.56411 13.9834L1.62618 14.0008C1.82721 14.0571 2.01365 14.1092 2.16602 14.2022C2.3055 14.2873 2.35802 14.3682 2.35802 14.5022C2.35802 14.7573 2.27369 14.8433 2.20638 14.8892C2.10612 14.9577 1.93409 15.0022 1.70002 15.0022H1.67864L1.65734 15.004C1.35389 15.03 1.05224 14.9368 0.816407 14.744C0.602582 14.5693 0.28759 14.601 0.112851 14.8148C-0.0618875 15.0286 -0.0302017 15.3436 0.183623 15.5184C0.615243 15.8711 1.16576 16.0441 1.72103 16.0021C2.04142 15.9997 2.43821 15.9417 2.77015 15.7152C3.14234 15.4611 3.35802 15.0471 3.35802 14.5022C3.35802 13.9202 3.02803 13.5566 2.68676 13.3485C2.40652 13.1775 2.08063 13.0882 1.89476 13.0373L1.83592 13.021C1.62901 12.9626 1.39583 12.8949 1.21282 12.7833C1.04915 12.6836 1.00504 12.6007 1.00044 12.5177C1.00771 12.446 1.02826 12.3763 1.06109 12.312C1.09678 12.2421 1.14626 12.1802 1.20652 12.13C1.26679 12.0798 1.33661 12.0423 1.41176 12.0198C1.48691 11.9973 1.56584 11.9902 1.6438 11.999L1.70206 12.0056L1.76028 11.9986C2.05767 11.9624 2.35732 12.0448 2.59442 12.2279C2.81299 12.3967 3.12699 12.3564 3.29576 12.1378C3.46453 11.9192 3.42417 11.6052 3.20561 11.4365Z" fill="currentColor"/>
<path d="M6 11.001C5.46957 11.001 4.96086 11.2117 4.58579 11.5868C4.21071 11.9618 4 12.4705 4 13.001V14.001C4 14.5314 4.21071 15.0401 4.58579 15.4152C4.96086 15.7903 5.46957 16.001 6 16.001C6.4562 16.001 6.89633 15.8451 7.24919 15.5629L7.70003 15.901C7.92094 16.0667 8.23434 16.0219 8.40003 15.801C8.56571 15.5801 8.52094 15.2667 8.30003 15.101L7.84919 14.7629C7.94783 14.5235 8 14.2649 8 14.001V13.001C8 12.4705 7.78929 11.9618 7.41421 11.5868C7.03914 11.2117 6.53043 11.001 6 11.001ZM6.30003 13.601C6.07911 13.4353 5.76571 13.4801 5.60003 13.701C5.43434 13.9219 5.47912 14.2353 5.70003 14.401L6.39281 14.9206C6.26982 14.9731 6.13634 15.001 6 15.001C5.73478 15.001 5.48043 14.8956 5.29289 14.7081C5.10536 14.5205 5 14.2662 5 14.001V13.001C5 12.7358 5.10536 12.4814 5.29289 12.2939C5.48043 12.1063 5.73478 12.001 6 12.001C6.26522 12.001 6.51957 12.1063 6.70711 12.2939C6.89464 12.4814 7 12.7358 7 13.001V14.001C7 14.0412 6.99758 14.0811 6.99282 14.1206L6.30003 13.601Z" fill="currentColor"/>
<path d="M10 11.501C10 11.2248 9.77614 11.001 9.5 11.001C9.22386 11.001 9 11.2248 9 11.501V15.501C9 15.7771 9.22386 16.001 9.5 16.001H11.5C11.7761 16.001 12 15.7771 12 15.501C12 15.2248 11.7761 15.001 11.5 15.001H10V11.501Z" fill="currentColor"/>
</symbol><symbol viewBox="0 0 14 17" fill="none" id="document_sql_16_filled" xmlns="http://www.w3.org/2000/svg">
<path d="M8 0.000976562V4.50098C8 5.3294 8.67157 6.00098 9.5 6.00098H14V14.501C14 15.178 13.5514 15.7503 12.9353 15.9368C12.9778 15.7968 13 15.65 13 15.501C13 15.1032 12.842 14.7216 12.5607 14.4403C12.2794 14.159 11.8978 14.001 11.5 14.001H11V11.501C11 11.1032 10.842 10.7216 10.5607 10.4403C10.2794 10.159 9.89782 10.001 9.5 10.001C9.10218 10.001 8.72064 10.159 8.43934 10.4403C8.30863 10.571 8.20454 10.7234 8.13055 10.8889L8.12132 10.8797C7.55871 10.317 6.79565 10.001 6 10.001C5.25049 10.001 4.52989 10.2815 3.97854 10.7843C3.92838 10.7323 3.87424 10.6836 3.8164 10.6389C3.29348 10.2361 2.65802 10.0081 2 9.9857V1.50098C2 0.672549 2.67157 0.000976562 3.5 0.000976562H8Z" fill="currentColor"/>
<path d="M9 0.250977V4.50098C9 4.77712 9.22386 5.00098 9.5 5.00098H13.75L9 0.250977Z" fill="currentColor"/>
<path d="M3.20561 11.4365C2.77553 11.1044 2.23584 10.9487 1.69629 10.9997C1.50378 10.9854 1.31008 11.0063 1.12482 11.0618C0.920316 11.1231 0.730337 11.2251 0.566338 11.3618C0.402339 11.4985 0.267715 11.6669 0.170587 11.857C0.0734577 12.0471 0.0158353 12.2549 0.00119259 12.4679L1.52789e-05 12.485V12.5022C1.52789e-05 13.0799 0.364567 13.4375 0.692457 13.6373C0.999405 13.8243 1.35095 13.9233 1.54273 13.9773L1.56411 13.9834L1.62618 14.0008C1.82721 14.0571 2.01365 14.1092 2.16602 14.2022C2.3055 14.2873 2.35802 14.3682 2.35802 14.5022C2.35802 14.7573 2.27369 14.8433 2.20638 14.8892C2.10612 14.9577 1.93409 15.0022 1.70002 15.0022H1.67864L1.65734 15.004C1.35389 15.03 1.05224 14.9368 0.816407 14.744C0.602582 14.5693 0.28759 14.601 0.112851 14.8148C-0.0618875 15.0286 -0.0302017 15.3436 0.183623 15.5184C0.615243 15.8711 1.16576 16.0441 1.72103 16.0021C2.04142 15.9997 2.43821 15.9417 2.77015 15.7152C3.14234 15.4611 3.35802 15.0471 3.35802 14.5022C3.35802 13.9202 3.02803 13.5566 2.68676 13.3485C2.40652 13.1775 2.08063 13.0882 1.89476 13.0373L1.83592 13.021C1.62901 12.9626 1.39583 12.8949 1.21282 12.7833C1.04915 12.6836 1.00504 12.6007 1.00044 12.5177C1.00771 12.446 1.02826 12.3763 1.06109 12.312C1.09678 12.2421 1.14626 12.1802 1.20652 12.13C1.26679 12.0798 1.33661 12.0423 1.41176 12.0198C1.48691 11.9973 1.56584 11.9902 1.6438 11.999L1.70206 12.0056L1.76028 11.9986C2.05767 11.9624 2.35732 12.0448 2.59442 12.2279C2.81299 12.3967 3.12699 12.3564 3.29576 12.1378C3.46453 11.9192 3.42417 11.6052 3.20561 11.4365Z" fill="currentColor"/>
<path d="M6 11.001C5.46957 11.001 4.96086 11.2117 4.58579 11.5868C4.21071 11.9618 4 12.4705 4 13.001V14.001C4 14.5314 4.21071 15.0401 4.58579 15.4152C4.96086 15.7903 5.46957 16.001 6 16.001C6.4562 16.001 6.89633 15.8451 7.24919 15.5629L7.70003 15.901C7.92094 16.0667 8.23434 16.0219 8.40003 15.801C8.56571 15.5801 8.52094 15.2667 8.30003 15.101L7.84919 14.7629C7.94783 14.5235 8 14.2649 8 14.001V13.001C8 12.4705 7.78929 11.9618 7.41421 11.5868C7.03914 11.2117 6.53043 11.001 6 11.001ZM6.30003 13.601C6.07911 13.4353 5.76571 13.4801 5.60003 13.701C5.43434 13.9219 5.47912 14.2353 5.70003 14.401L6.39281 14.9206C6.26982 14.9731 6.13634 15.001 6 15.001C5.73478 15.001 5.48043 14.8956 5.29289 14.7081C5.10536 14.5205 5 14.2662 5 14.001V13.001C5 12.7358 5.10536 12.4814 5.29289 12.2939C5.48043 12.1063 5.73478 12.001 6 12.001C6.26522 12.001 6.51957 12.1063 6.70711 12.2939C6.89464 12.4814 7 12.7358 7 13.001V14.001C7 14.0412 6.99758 14.0811 6.99282 14.1206L6.30003 13.601Z" fill="currentColor"/>
<path d="M10 11.501C10 11.2248 9.77614 11.001 9.5 11.001C9.22386 11.001 9 11.2248 9 11.501V15.501C9 15.7771 9.22386 16.001 9.5 16.001H11.5C11.7761 16.001 12 15.7771 12 15.501C12 15.2248 11.7761 15.001 11.5 15.001H10V11.501Z" fill="currentColor"/>
</symbol><symbol viewBox="0 0 14 17" fill="none" id="document_visual_16" xmlns="http://www.w3.org/2000/svg">
<path d="M4 0.000976562C2.89543 0.000976562 2 0.896408 2 2.00098V9.00098H3V2.00098C3 1.44869 3.44772 1.00098 4 1.00098H8V4.50098C8 5.3294 8.67157 6.00098 9.5 6.00098H13V14.001C13 14.5533 12.5523 15.001 12 15.001H11V16.001H12C13.1046 16.001 14 15.1055 14 14.001V5.41519C14 5.01737 13.842 4.63584 13.5607 4.35453L9.64645 0.440316C9.36514 0.159012 8.98361 0.000976562 8.58579 0.000976562H4ZM12.7929 5.00098H9.5C9.22386 5.00098 9 4.77712 9 4.50098V1.20808L12.7929 5.00098Z" fill="currentColor"/>
<path d="M6.5 7.00098C6.22386 7.00098 6 7.22483 6 7.50098V8.81166C5.9688 8.83126 5.9393 8.85464 5.91215 8.8818L4 10.7939V10.501C4 10.2248 3.77614 10.001 3.5 10.001H0.5C0.223858 10.001 0 10.2248 0 10.501V13.501C0 13.7771 0.223858 14.001 0.5 14.001H3.5C3.77614 14.001 4 13.7771 4 13.501V13.208L5.91215 15.1202C5.9393 15.1473 5.9688 15.1707 6 15.1903V16.501C6 16.7771 6.22386 17.001 6.5 17.001H9.5C9.77614 17.001 10 16.7771 10 16.501V13.501C10 13.2248 9.77614 13.001 9.5 13.001H6.5C6.22386 13.001 6 13.2248 6 13.501V13.7938L4.20718 12.001L6 10.2082V10.501C6 10.7771 6.22386 11.001 6.5 11.001H9.5C9.77614 11.001 10 10.7771 10 10.501V7.50098C10 7.22483 9.77614 7.00098 9.5 7.00098H6.5ZM1 11.001H3V13.001H1V11.001ZM7 16.001V14.001H9V16.001H7ZM7 8.00098H9V10.001H7V8.00098Z" fill="currentColor"/>
</symbol><symbol viewBox="0 0 14 17" fill="none" id="document_visual_16_filled" xmlns="http://www.w3.org/2000/svg">
<path d="M8 0.000976562V4.50098C8 5.3294 8.67157 6.00098 9.5 6.00098H6.5C5.67157 6.00098 5 6.67255 5 7.50098V8.37973L4.20375 9.17598C3.99388 9.06427 3.75433 9.00098 3.5 9.00098H2V1.50098C2 0.672549 2.67157 0.000976562 3.5 0.000976562H8Z" fill="currentColor"/>
<path d="M9.5 6.00098H14V14.501C14 15.3294 13.3284 16.001 12.5 16.001H11V13.501C11 12.6726 10.3284 12.001 9.5 12.001C10.3284 12.001 11 11.3294 11 10.501V7.50098C11 6.67255 10.3284 6.00098 9.5 6.00098Z" fill="currentColor"/>
<path d="M9 0.250977V4.50098C9 4.77712 9.22386 5.00098 9.5 5.00098H13.75L9 0.250977Z" fill="currentColor"/>
<path d="M6.5 7.00098C6.22386 7.00098 6 7.22483 6 7.50098V8.81166C5.9688 8.83126 5.9393 8.85464 5.91215 8.8818L4 10.7939V10.501C4 10.2248 3.77614 10.001 3.5 10.001H0.5C0.223858 10.001 0 10.2248 0 10.501V13.501C0 13.7771 0.223858 14.001 0.5 14.001H3.5C3.77614 14.001 4 13.7771 4 13.501V13.208L5.91215 15.1202C5.9393 15.1473 5.9688 15.1707 6 15.1903V16.501C6 16.7771 6.22386 17.001 6.5 17.001H9.5C9.77614 17.001 10 16.7771 10 16.501V13.501C10 13.2248 9.77614 13.001 9.5 13.001H6.5C6.22386 13.001 6 13.2248 6 13.501V13.7938L4.20718 12.001L6 10.2082V10.501C6 10.7771 6.22386 11.001 6.5 11.001H9.5C9.77614 11.001 10 10.7771 10 10.501V7.50098C10 7.22483 9.77614 7.00098 9.5 7.00098H6.5ZM1 11.001H3V13.001H1V11.001ZM7 16.001V14.001H9V16.001H7ZM7 8.00098H9V10.001H7V8.00098Z" fill="currentColor"/>
</symbol><symbol viewBox="0 0 20 20" fill="none" id="schema_20_filled" xmlns="http://www.w3.org/2000/svg">
<path d="M14 4.125C14 3.50368 13.4963 3 12.875 3H7.125C6.50368 3 6 3.50368 6 4.125V6.875C6 7.49632 6.50368 8 7.125 8H8.11592L5.71592 12H4.125C3.50368 12 3 12.5037 3 13.125V15.875C3 16.4963 3.50368 17 4.125 17H7.875C8.49632 17 9 16.4963 9 15.875V13.125C9 12.5037 8.49632 12 7.875 12H6.88211L9.28211 8H10.716L13.116 12H12.125C11.5037 12 11 12.5037 11 13.125V15.875C11 16.4963 11.5037 17 12.125 17H15.875C16.4963 17 17 16.4963 17 15.875V13.125C17 12.5037 16.4963 12 15.875 12H14.2822L11.8822 8H12.875C13.4963 8 14 7.49632 14 6.875V4.125Z" fill="#117865"/>
</symbol><symbol viewBox="0 0 20 20" fill="none" id="schema_20_regular" xmlns="http://www.w3.org/2000/svg">
<path d="M12.875 3C13.4963 3 14 3.50368 14 4.125V6.875C14 7.49632 13.4963 8 12.875 8H11.8822L14.2822 12H15.875C16.4963 12 17 12.5037 17 13.125V15.875C17 16.4963 16.4963 17 15.875 17H12.125C11.5037 17 11 16.4963 11 15.875V13.125C11 12.5037 11.5037 12 12.125 12H13.116L10.716 8H9.28211L6.88211 12H7.875C8.49632 12 9 12.5037 9 13.125V15.875C9 16.4963 8.49632 17 7.875 17H4.125C3.50368 17 3 16.4963 3 15.875V13.125C3 12.5037 3.50368 12 4.125 12H5.71592L8.11592 8H7.125C6.50368 8 6 7.49632 6 6.875V4.125C6 3.50368 6.50368 3 7.125 3H12.875ZM13 4.125C13 4.05596 12.944 4 12.875 4H7.125C7.05596 4 7 4.05596 7 4.125V6.875C7 6.94404 7.05596 7 7.125 7H12.875C12.944 7 13 6.94404 13 6.875V4.125ZM8 13.125C8 13.056 7.94404 13 7.875 13H4.125C4.05596 13 4 13.056 4 13.125V15.875C4 15.944 4.05596 16 4.125 16H7.875C7.94404 16 8 15.944 8 15.875V13.125ZM15.875 13H12.125C12.056 13 12 13.056 12 13.125V15.875C12 15.944 12.056 16 12.125 16H15.875C15.944 16 16 15.944 16 15.875V13.125C16 13.056 15.944 13 15.875 13Z" fill="#424242"/>
</symbol><symbol fill="currentColor" viewBox="0 0 20 20" id="square_multiple_overlap_line_20_filled" xmlns="http://www.w3.org/2000/svg"><path d="M5.75 10.5a.75.75 0 0 0 0 1.5h4.5a.75.75 0 0 0 0-1.5h-4.5Z"/><path d="M6 4v2H4a2 2 0 0 0-2 2v8a2 2 0 0 0 2 2h8a2 2 0 0 0 2-2v-2h2a2 2 0 0 0 2-2V4a2 2 0 0 0-2-2H8a2 2 0 0 0-2 2Zm10-.5a.5.5 0 0 1 .5.5v8a.5.5 0 0 1-.5.5h-2V8a2 2 0 0 0-2-2H7.5V4a.5.5 0 0 1 .5-.5h8ZM3.5 8a.5.5 0 0 1 .5-.5h8a.5.5 0 0 1 .5.5v8a.5.5 0 0 1-.5.5H4a.5.5 0 0 1-.5-.5V8Z"/></symbol><symbol fill="currentColor" viewBox="0 0 20 20" id="square_multiple_overlap_line_20_regular" xmlns="http://www.w3.org/2000/svg"><path d="M5.5 11a.5.5 0 0 0 0 1h5a.5.5 0 0 0 0-1h-5Z"/><path d="M6 4a2 2 0 0 1 2-2h8a2 2 0 0 1 2 2v8a2 2 0 0 1-2 2h-2v2a2 2 0 0 1-2 2H4a2 2 0 0 1-2-2V8a2 2 0 0 1 2-2h2V4Zm10 9a1 1 0 0 0 1-1V4a1 1 0 0 0-1-1H8a1 1 0 0 0-1 1v2h5a2 2 0 0 1 2 2v5h2ZM3 8v8a1 1 0 0 0 1 1h8a1 1 0 0 0 1-1V8a1 1 0 0 0-1-1H4a1 1 0 0 0-1 1Z"/></symbol><symbol viewBox="0 0 2048 2048" id="view_20" xmlns="http://www.w3.org/2000/svg">
  <path d="M256 1280v-128h1152v128H256zM384 0h1664v1536h-256v-128h128V384H384V0zm1536 256V128H512v128h1408zM0 2048V512h1664v1536H0zM128 640v128h1408V640H128zm0 256v1024h1408V896H128z"/>
</symbol><symbol viewBox="0 0 20 20" fill="none" id="window_tree_20_filled" xmlns="http://www.w3.org/2000/svg">
    <path d="M12.501 0C11.6725 0 11.001 0.671573 11.001 1.5V2H5.50098C4.67255 2 4.00098 2.67157 4.00098 3.5V6H1.50098C0.67255 6 0.000976562 6.67157 0.000976562 7.5V8H8.00098V7.5C8.00098 6.67157 7.3294 6 6.50098 6H5.00098V3.5C5.00098 3.22386 5.22483 3 5.50098 3H11.001V6.5C11.001 7.32843 11.6725 8 12.501 8H17.501C18.3294 8 19.001 7.32843 19.001 6.5V3H11.001V2H19.001V1.5C19.001 0.671573 18.3294 0 17.501 0H12.501Z" fill="currentColor"/>
    <path d="M8.00098 9H0.000976562V12.5C0.000976562 13.3284 0.672549 14 1.50098 14H4.00098L4.00098 16.5C4.00098 17.3284 4.67255 18 5.50098 18H11.001V18.5C11.001 19.3284 11.6725 20 12.501 20H17.501C18.3294 20 19.001 19.3284 19.001 18.5L19.001 15H11.001V17H5.50098C5.22483 17 5.00098 16.7761 5.00098 16.5L5.00098 14H6.50098C7.3294 14 8.00098 13.3284 8.00098 12.5V9Z" fill="currentColor"/>
    <path d="M11.001 14H19.001V13.5C19.001 12.6716 18.3294 12 17.501 12L12.501 12C11.6725 12 11.001 12.6716 11.001 13.5L11.001 14Z" fill="currentColor"/>
</symbol><symbol viewBox="0 0 20 20" fill="none" id="window_tree_20_regular" xmlns="http://www.w3.org/2000/svg">
    <path d="M12.501 0C11.6725 0 11.001 0.671573 11.001 1.5V2H5.50098C4.67255 2 4.00098 2.67157 4.00098 3.5V6H1.50098C0.67255 6 0.000976562 6.67157 0.000976562 7.5V12.5C0.000976562 13.3284 0.672549 14 1.50098 14H4.00098L4.00098 16.5C4.00098 17.3284 4.67255 18 5.50098 18H11.001V18.5C11.001 19.3284 11.6725 20 12.501 20H17.501C18.3294 20 19.001 19.3284 19.001 18.5L19.001 13.5C19.001 12.6716 18.3294 12 17.501 12L12.501 12C11.6725 12 11.001 12.6716 11.001 13.5L11.001 17H5.50098C5.22483 17 5.00098 16.7761 5.00098 16.5L5.00098 14H6.50098C7.3294 14 8.00098 13.3284 8.00098 12.5V7.5C8.00098 6.67157 7.3294 6 6.50098 6H5.00098V3.5C5.00098 3.22386 5.22483 3 5.50098 3H11.001V6.5C11.001 7.32843 11.6725 8 12.501 8H17.501C18.3294 8 19.001 7.32843 19.001 6.5V1.5C19.001 0.671573 18.3294 0 17.501 0H12.501ZM12.001 3H18.001V6.5C18.001 6.77614 17.7771 7 17.501 7H12.501C12.2248 7 12.001 6.77614 12.001 6.5V3ZM18.001 2H12.001V1.5C12.001 1.22386 12.2248 1 12.501 1H17.501C17.7771 1 18.001 1.22386 18.001 1.5V2ZM12.001 18.5L12.001 15H18.001L18.001 18.5C18.001 18.7761 17.7771 19 17.501 19H12.501C12.2248 19 12.001 18.7761 12.001 18.5ZM12.001 14V13.5C12.001 13.2239 12.2248 13 12.501 13L17.501 13C17.7771 13 18.001 13.2239 18.001 13.5V14H12.001ZM1.00098 9H7.00098V12.5C7.00098 12.7761 6.77712 13 6.50098 13H1.50098C1.22483 13 1.00098 12.7761 1.00098 12.5V9ZM7.00098 8H1.00098V7.5C1.00098 7.22386 1.22483 7 1.50098 7H6.50098C6.77712 7 7.00098 7.22386 7.00098 7.5V8Z" fill="currentColor"/>
</symbol></svg>