<?xml version="1.0" encoding="utf-8"?><svg xmlns="http://www.w3.org/2000/svg" xmlns:xlink="http://www.w3.org/1999/xlink"><symbol viewBox="0 0 20 20" fill="none" id="checkmark_circle_20_green_filled" xmlns="http://www.w3.org/2000/svg">
<path d="M10 4C13.3137 4 16 6.68629 16 10C16 13.3137 13.3137 16 10 16C6.68629 16 4 13.3137 4 10C4 6.68629 6.68629 4 10 4ZM12.1203 8.16398L9.24953 11.0424L7.85355 9.64645C7.65829 9.45118 7.34171 9.45118 7.14645 9.64645C6.95118 9.84171 6.95118 10.1583 7.14645 10.3536L8.89645 12.1036C9.09189 12.299 9.40884 12.2988 9.60403 12.1031L12.8283 8.87014C13.0233 8.67462 13.0229 8.35804 12.8274 8.16304C12.6319 7.96803 12.3153 7.96846 12.1203 8.16398Z" fill="#0E700E"/>
</symbol><symbol viewBox="0 0 20 20" fill="none" id="plug_connected_checkmark_20_regular" xmlns="http://www.w3.org/2000/svg">
<path d="M17.7803 3.28033C18.0732 2.98744 18.0732 2.51256 17.7803 2.21967C17.4874 1.92678 17.0126 1.92678 16.7197 2.21967L14.2739 4.66547C12.7027 3.59131 10.5409 3.75164 9.14607 5.14646L8.84607 5.44646C8.26421 6.02832 8.26421 6.97171 8.84607 7.55357L11.3109 10.0184C12.2104 9.37719 13.3112 9 14.5 9C14.9703 9 15.4269 9.05904 15.8626 9.17011C16.2094 8.0215 16.0334 6.74879 15.3345 5.7262L17.7803 3.28033ZM7.55393 8.84643L10.0184 11.3109C9.37719 12.2104 9 13.3112 9 14.5C9 14.9705 9.05908 15.4272 9.17022 15.8631C8.02152 16.2098 6.74872 16.0336 5.72613 15.3345L3.28033 17.7803C2.98744 18.0732 2.51256 18.0732 2.21967 17.7803C1.92678 17.4874 1.92678 17.0126 2.21967 16.7197L4.66554 14.2738C3.5917 12.7027 3.75213 10.5411 5.14683 9.14643L5.44682 8.84643C6.02869 8.26457 6.97207 8.26457 7.55393 8.84643ZM19 14.5C19 16.9853 16.9853 19 14.5 19C12.0147 19 10 16.9853 10 14.5C10 12.0147 12.0147 10 14.5 10C16.9853 10 19 12.0147 19 14.5ZM16.8536 12.6464C16.6583 12.4512 16.3417 12.4512 16.1464 12.6464L13.5 15.2929L12.8536 14.6464C12.6583 14.4512 12.3417 14.4512 12.1464 14.6464C11.9512 14.8417 11.9512 15.1583 12.1464 15.3536L13.1464 16.3536C13.3417 16.5488 13.6583 16.5488 13.8536 16.3536L16.8536 13.3536C17.0488 13.1583 17.0488 12.8417 16.8536 12.6464Z" fill="#0E700E"/>
</symbol><symbol viewBox="0 0 20 20" fill="none" id="plug_disconnected_20_regular" xmlns="http://www.w3.org/2000/svg">
<path d="M17.8536 2.14645C18.0488 2.34171 18.0488 2.65829 17.8536 2.85355L16.1855 4.52163C17.2661 5.907 17.3164 7.83521 16.3366 9.27118C16.1966 9.47632 16.0356 9.67141 15.8536 9.85344L15.5536 10.1534L15.5512 10.1558L15.2425 10.4646C14.8324 10.8746 14.1676 10.8746 13.7576 10.4646L9.53534 6.24233C9.1253 5.83229 9.1253 5.16749 9.53534 4.75745L10.1465 4.14634C11.6027 2.69006 13.8951 2.57945 15.4784 3.81451L17.1464 2.14645C17.3417 1.95118 17.6583 1.95118 17.8536 2.14645ZM15.1404 4.8474C14.1027 3.81542 12.5049 3.68797 11.3289 4.46503C11.1609 4.57604 11.0015 4.70551 10.8536 4.85344L10.5536 5.15344C10.3622 5.34478 10.3622 5.655 10.5536 5.84634L14.1536 9.44634C14.3444 9.6372 14.6536 9.63767 14.845 9.44776L14.8465 9.44634L15.1465 9.14634C16.3299 7.96293 16.3319 6.04552 15.1526 4.85958L15.1464 4.85355L15.1404 4.8474ZM9.35355 8.64645C9.54882 8.84171 9.54882 9.15829 9.35355 9.35355L7.70706 11L8.99995 12.2929L10.6464 10.6464C10.8417 10.4512 11.1583 10.4512 11.3536 10.6464C11.5488 10.8417 11.5488 11.1583 11.3536 11.3536L9.70706 13L10.1536 13.4466C10.7354 14.0284 10.7354 14.9718 10.1536 15.5537L9.85357 15.8537C8.39729 17.3099 6.10492 17.4205 4.52163 16.1855L2.85355 17.8536C2.65829 18.0488 2.34171 18.0488 2.14645 17.8536C1.95118 17.6583 1.95118 17.3417 2.14645 17.1464L3.81454 15.4784C2.57958 13.8951 2.69022 11.6028 4.14646 10.1466L4.44646 9.84655C5.02832 9.26469 5.9717 9.26469 6.55356 9.84655L6.99995 10.2929L8.64645 8.64645C8.84171 8.45118 9.15829 8.45118 9.35355 8.64645ZM4.85896 15.1519C6.04484 16.332 7.9628 16.3302 9.14646 15.1466L9.44646 14.8466C9.6378 14.6552 9.6378 14.345 9.44646 14.1537L5.84646 10.5537C5.65512 10.3623 5.3449 10.3623 5.15356 10.5537L4.85357 10.8537C3.66995 12.0373 3.66812 13.9552 4.84808 15.1411C4.84992 15.1428 4.85174 15.1446 4.85355 15.1464C4.85537 15.1483 4.85717 15.1501 4.85896 15.1519Z" fill="#117865"/>
</symbol><symbol viewBox="0 0 21 20" fill="none" id="workloads_20_filled" xmlns="http://www.w3.org/2000/svg">
<path d="M11.8833 5.72851C12.4446 4.75629 13.8479 4.75629 14.4092 5.72851L18.4687 12.7598C19.03 13.732 18.3284 14.9473 17.2058 14.9473H11.6225C11.8666 14.3172 12.0005 13.6322 12.0005 12.916C12.0005 11.2592 11.2842 9.76974 10.1444 8.74032L11.8833 5.72851Z" fill="currentColor"/>
<path fill-rule="evenodd" clip-rule="evenodd" d="M2.00049 12.916C2.00049 10.4998 3.95924 8.54102 6.37549 8.54102C8.79173 8.54102 10.7505 10.4998 10.7505 12.916C10.7505 15.3323 8.79173 17.291 6.37549 17.291C3.95924 17.291 2.00049 15.3323 2.00049 12.916Z" fill="currentColor"/>
<path d="M9.48 8.22459C8.59028 7.63463 7.52301 7.29102 6.37549 7.29102C5.87112 7.29102 5.38225 7.3574 4.91715 7.4819C4.72452 7.53347 4.53597 7.595 4.35208 7.66592C4.33586 7.67218 4.31969 7.6785 4.30355 7.6849C4.08432 7.7718 3.87185 7.87209 3.66715 7.98476V3.95768C3.66715 3.03721 4.41335 2.29102 5.33382 2.29102H9.50049C10.421 2.29102 11.1672 3.03721 11.1672 3.95768V5.3024L11.1617 5.31185L9.48 8.22459Z" fill="currentColor"/>
</symbol><symbol viewBox="0 0 21 20" fill="none" id="workloads_20_regular" xmlns="http://www.w3.org/2000/svg">
<path d="M5.66707 3.54102C5.43696 3.54102 5.25041 3.72756 5.25041 3.95768V7.4819C4.81011 7.59977 4.3911 7.76972 4.00041 7.98476V3.95768C4.00041 3.03721 4.7466 2.29102 5.66707 2.29102H9.83374C10.7542 2.29102 11.5004 3.03721 11.5004 3.95768V5.3024L11.4949 5.31185L10.2504 7.46742V3.95768C10.2504 3.72756 10.0639 3.54102 9.83374 3.54102H5.66707Z" fill="currentColor"/>
<path fill-rule="evenodd" clip-rule="evenodd" d="M4.44014 9.1744C5.10163 8.77247 5.87816 8.54102 6.70874 8.54102C7.62864 8.54102 8.48222 8.82492 9.18666 9.3099C9.43732 9.48246 9.66909 9.68049 9.87825 9.90024C10.1798 10.2171 10.4344 10.5792 10.6308 10.9752C10.9207 11.56 11.0837 12.219 11.0837 12.916C11.0837 13.1827 11.0599 13.4438 11.0142 13.6973C10.937 14.1257 10.7974 14.5324 10.6051 14.9077C9.88041 16.3226 8.40766 17.291 6.70874 17.291C4.29249 17.291 2.33374 15.3323 2.33374 12.916C2.33374 11.3304 3.17731 9.94172 4.44014 9.1744ZM9.26083 10.9299C8.83369 10.3819 8.23387 9.97497 7.54311 9.79102L7.51689 9.78415C7.25858 9.71769 6.98779 9.68235 6.70874 9.68235C6.42024 9.68235 6.14055 9.72013 5.87437 9.79102C4.49285 10.1589 3.47505 11.4186 3.47505 12.916C3.47505 14.702 4.92283 16.1497 6.70874 16.1497C7.73047 16.1497 8.6415 15.6758 9.2341 14.9359C9.51548 14.5846 9.72506 14.1732 9.8406 13.7242L9.8474 13.6973C9.90947 13.4471 9.94241 13.1854 9.94241 12.916C9.94241 12.6972 9.92067 12.4834 9.87924 12.2768C9.77893 11.7765 9.56312 11.3178 9.26083 10.9299Z" fill="currentColor"/>
<path d="M10.4777 8.74038L12.2165 5.72851C12.7778 4.75629 14.1811 4.75629 14.7424 5.72851L18.8019 12.7598C19.3633 13.732 18.6616 14.9473 17.539 14.9473H11.9558C12.1095 14.5504 12.2195 14.1318 12.2799 13.6973H17.8999L13.4795 6.04102L11.3476 9.73361C11.2442 9.58316 11.1336 9.43801 11.0165 9.29863C10.8498 9.10041 10.6698 8.91386 10.4777 8.74038Z" fill="currentColor"/>
</symbol><symbol viewBox="0 0 24 25" fill="none" id="workloads_24_filled" xmlns="http://www.w3.org/2000/svg">
<path d="M13.8598 7.68945C14.5334 6.52279 16.2173 6.52279 16.8909 7.68945L21.7623 16.127C22.4359 17.2936 21.5939 18.752 20.2468 18.752H13.547C13.8399 17.9959 14.0005 17.1739 14.0005 16.3145C14.0005 14.3263 13.1409 12.5389 11.7732 11.3036L13.8598 7.68945Z" fill="currentColor"/>
<path fill-rule="evenodd" clip-rule="evenodd" d="M2.00049 16.3145C2.00049 13.415 4.35099 11.0645 7.25049 11.0645C10.15 11.0645 12.5005 13.415 12.5005 16.3145C12.5005 19.2139 10.15 21.5645 7.25049 21.5645C4.35099 21.5645 2.00049 19.2139 2.00049 16.3145Z" fill="currentColor"/>
<path d="M10.9759 10.6847C9.90823 9.9768 8.62751 9.56445 7.25049 9.56445C6.64525 9.56445 6.05861 9.64411 5.50049 9.79352C5.26933 9.8554 5.04306 9.92924 4.82239 10.0143C4.80294 10.0218 4.78353 10.0294 4.76416 10.0371C4.50109 10.1414 4.24612 10.2617 4.00049 10.3969V5.56445C4.00049 4.45988 4.89592 3.56445 6.00049 3.56445H11.0005C12.1051 3.56445 13.0005 4.45988 13.0005 5.56445V7.17811L12.9939 7.18946L10.9759 10.6847Z" fill="currentColor"/>
</symbol><symbol viewBox="0 0 24 25" fill="none" id="workloads_24_regular" xmlns="http://www.w3.org/2000/svg">
<path d="M6.00049 5.06445C5.72435 5.06445 5.50049 5.28831 5.50049 5.56445V9.79352C4.97213 9.93495 4.46932 10.1389 4.00049 10.3969V5.56445C4.00049 4.45988 4.89592 3.56445 6.00049 3.56445H11.0005C12.1051 3.56445 13.0005 4.45988 13.0005 5.56445V7.17811L12.9939 7.18946L11.5005 9.77614V5.56445C11.5005 5.28831 11.2766 5.06445 11.0005 5.06445H6.00049Z" fill="currentColor"/>
<path fill-rule="evenodd" clip-rule="evenodd" d="M4.52817 11.8245C5.32196 11.3422 6.25379 11.0645 7.25049 11.0645C8.35436 11.0645 9.37867 11.4051 10.224 11.9871C10.5248 12.1942 10.8029 12.4318 11.0539 12.6955C11.4158 13.0758 11.7213 13.5102 11.9569 13.9854C12.3049 14.6873 12.5005 15.478 12.5005 16.3145C12.5005 16.6344 12.4719 16.9478 12.417 17.252C12.3244 17.7661 12.1568 18.2541 11.9261 18.7045C11.0565 20.4024 9.28919 21.5645 7.25049 21.5645C4.35099 21.5645 2.00049 19.2139 2.00049 16.3145C2.00049 14.4117 3.01277 12.7453 4.52817 11.8245ZM10.313 13.9312C9.80043 13.2735 9.08064 12.7852 8.25173 12.5645L8.22027 12.5562C7.9103 12.4765 7.58535 12.4341 7.25049 12.4341C6.90428 12.4341 6.56866 12.4794 6.24925 12.5645C4.59141 13.0059 3.37006 14.5175 3.37006 16.3145C3.37006 18.4576 5.1074 20.1949 7.25049 20.1949C8.47656 20.1949 9.56981 19.6262 10.2809 18.7383C10.6186 18.3167 10.8701 17.8231 11.0087 17.2842L11.0169 17.252C11.0914 16.9517 11.1309 16.6377 11.1309 16.3145C11.1309 16.0519 11.1048 15.7954 11.0551 15.5474C10.9347 14.947 10.6757 14.3966 10.313 13.9312Z" fill="currentColor"/>
<path d="M11.7733 11.3037L13.8598 7.68945C14.5334 6.52279 16.2173 6.52279 16.8909 7.68945L21.7623 16.127C22.4359 17.2936 21.5939 18.752 20.2468 18.752H13.547C13.7314 18.2757 13.8635 17.7734 13.9359 17.252H20.6798L15.3754 8.06446L12.8171 12.4956C12.693 12.315 12.5604 12.1408 12.4198 11.9736C12.2198 11.7357 12.0038 11.5119 11.7733 11.3037Z" fill="currentColor"/>
</symbol></svg>