<?xml version="1.0" encoding="utf-8"?><svg width="48" height="48" viewBox="0 0 48 48" xmlns="http://www.w3.org/2000/svg" xmlns:xlink="http://www.w3.org/1999/xlink"><view id="empty_illustration_48" viewBox="0 0 48 48"/><svg width="48" height="48" fill="none" viewBox="0 0 48 48" xmlns="http://www.w3.org/2000/svg"><path fill-rule="evenodd" clip-rule="evenodd" d="M21.5 6a4.5 4.5 0 00-4.5 4.5V35a7 7 0 1014 0V11.735a1 1 0 112 0V35a9 9 0 11-18 0V10.5a6.5 6.5 0 1113 0V35a4 4 0 01-8 0V20a1 1 0 112 0v15a2 2 0 104 0V10.5A4.5 4.5 0 0021.5 6z" fill="#BFBFBF"/><path fill-rule="evenodd" clip-rule="evenodd" d="M46 2H2v44h44V2zM2 0a2 2 0 00-2 2v44a2 2 0 002 2h44a2 2 0 002-2V2a2 2 0 00-2-2H2z" fill="#BFBFBF"/></svg></svg>