<?xml version="1.0" standalone="no"?>
<!DOCTYPE svg PUBLIC "-//W3C//DTD SVG 1.1//EN" "http://www.w3.org/Graphics/SVG/1.1/DTD/svg11.dtd" >
<svg xmlns="http://www.w3.org/2000/svg">
<metadata>
Created by FontPrep 20130207 at Tue Mar 28 15:08:08 2017
 By Ben Pham
(C) 2014 Microsoft Corporation. All Rights Reserved.
</metadata>
<defs>
<font id="154a7b99ef5a32dc20bb65e74cd676b8" horiz-adv-x='1024' >
  <font-face 
    font-family="PowerBIMDL2Assets-Regular"
    font-weight="400"
    font-stretch="normal"
    units-per-em="2048"
    panose-1="0 0 5 0 0 0 0 0 0 0"
    ascent="2048"
    descent="0"
    bbox="-1 -128 2050 2049"
    underline-thickness="119"
    underline-position="-2420"
    unicode-range="U+000D-F143"
  />
<missing-glyph horiz-adv-x="1322" 
d="M1155 1398v-1398h-990v1398h990zM1007 1250h-694v-1102h694v1102z" />
    <glyph glyph-name=".notdef" horiz-adv-x="1322" 
d="M1155 1398v-1398h-990v1398h990zM1007 1250h-694v-1102h694v1102z" />
    <glyph glyph-name=".null" horiz-adv-x="0" 
 />
    <glyph glyph-name="uni000D" unicode="&#xd;" horiz-adv-x="0" 
 />
    <glyph glyph-name="space" unicode=" " horiz-adv-x="561" 
 />
    <glyph glyph-name="glyph254" unicode="/" horiz-adv-x="0" 
 />
    <glyph glyph-name="uniE73B.007" unicode="&#xe000;" 
d="M1201 257q-46 0 -79 33t-33 79v493q0 46 24 70t44.5 33t55 9t67.5 -33t33 -79v-493q0 -46 -33 -79t-79 -33zM1554 260q-46 0 -79.5 33t-33.5 80v939q0 46 33 79t68 33q58 0 91 -33t33 -79v-939q0 -47 -33 -80t-79 -33zM848 257q-46 0 -79 33t-33 79v664q0 46 33 79t68 33
q58 0 91 -33t33 -79v-664q0 -46 -33.5 -79t-79.5 -33zM415.5 289.5q-32.5 32.5 -32.5 79.5v259q0 45 33 78t68 33q58 0 91 -33t33 -78v-259q0 -46 -33 -79t-80 -33t-79.5 32.5zM1767 463v83h41q65 0 111.5 46.5t46.5 111.5v844q0 66 -46.5 112.5t-111.5 46.5h-1565
q-66 0 -112.5 -46.5t-46.5 -112.5v-844q0 -65 46.5 -111.5t112.5 -46.5h41v-83h-41q-101 0 -172 71t-71 170v844q0 100 71 171t172 71h1565q100 0 170 -71.5t70 -170.5v-844q0 -98 -70 -169.5t-170 -71.5h-41z" />
    <glyph glyph-name="uniE73B.001" unicode="&#xe001;" 
d="M511 2048v-514h-511v514h511zM1279 2048v-514h-510v514h510zM2048 2048v-514h-514v514h514zM511 1280v-511h-511v511h511zM1279 1280v-511h-510v511h510zM2048 1280v-511h-514v511h514zM511 511v-511h-511v511h511zM1279 511v-511h-510v511h510zM2048 511v-511h-514v511
h514z" />
    <glyph glyph-name="uniE73B.008" unicode="&#xe002;" 
d="M1771 1190q19 -80 19 -171l258 -113l-87 -333l-291 39q-49 -76 -106 -133l101 -265l-296 -171l-176 229q-83 -20 -164 -20l-31 1l-121 -253l-327 98l45 280q-70 46 -123 99l-255 -99l-171 296l219 171q-21 90 -21 184l-244 108l87 332l275 -36q43 73 115 145l-96 248
l296 174l171 -222q80 20 154 20l27 -1l111 248l332 -86l-38 -285q79 -50 137 -111l258 99l174 -296zM1045 1501q-294 0 -442 -251q-57 -111 -57 -235t65 -234.5t184 -180.5q114 -57 236 -57t233 65t179 184q59 114 59 237t-65 233t-184 181q-118 58 -208 58zM1200 1015
q0 -35 -23 -77t-64 -66.5t-87 -24.5t-88 23t-79 86t13 153t152 90q43 0 85 -21q91 -55 91 -163z" />
    <glyph glyph-name="uniE73B.009" unicode="&#xe003;" 
d="M865 2048h309v-1079l446 477v-390l-600 -639l-605 641v390l450 -479v1079zM1769 0h-1491v282h1491v-282z" />
    <glyph glyph-name="uniE73B.011" unicode="&#xe004;" 
d="M1709 1496q0 -126 -54.5 -239t-153.5 -198l-153 -113q-78 -55 -122 -145q-22 -47 -24.5 -90.5t0.5 -105.5h-379v128q8 92 34 164q50 149 216 275q70 53 136 123q63 89 63 169t-31.5 135t-89.5 87t-133 32h-15q-26 -2 -40 -4q-78 -20 -130.5 -77.5t-71.5 -136.5l-10 -75
q-2 -12 -7 -65h-408q3 142 51 275q76 189 240 301t399 112q172 0 344 -64t275 -241q64 -121 64 -247zM1238 234q0 -78 -29 -127t-78 -78t-111 -29t-111 28.5t-77 78t-28 111.5t43 139.5t174 81.5q93 -3 155 -65t62 -140z" />
    <glyph glyph-name="uniE73B.010" unicode="&#xe005;" 
d="M1024 2048q436 -12 724 -300t300 -724q-8 -287 -142 -517.5t-364.5 -364.5t-517.5 -142q-287 8 -517.5 142t-364.5 364.5t-142 517.5q8 287 142 517.5t364.5 364.5t517.5 142zM436 1345q0 -74 19.5 -121t54 -74t77.5 -27t97 42.5t54 162.5t-54 163.5t-98 45.5
q-64 -3 -108 -60q-42 -58 -42 -132zM1500 1123q43 0 97 42.5t54 148.5t-42 163q-43 57 -110 60q-65 -3 -107 -61t-42 -131t19 -120.5t53.5 -74.5t77.5 -27zM1051 315q367 36 505 282t131 282q-4 -16 -70 -78t-151.5 -123t-177.5 -96t-237 -45q-290 23 -461 172t-175 170
q-7 -39 131 -283t505 -281z" />
    <glyph glyph-name="uniE73B.012" unicode="&#xe006;" 
d="M1230 1741v-612h-1230v612h1230zM2048 1741v-612h-614v612h614zM612 923v-616h-612v616h612zM2048 923v-616h-1230v616h1230z" />
    <glyph glyph-name="uniE00E.001" unicode="&#xe00e;" 
d="M1533 93l-90 -90l-1022 1021l1022 1021l90 -90l-930 -931z" />
    <glyph glyph-name="uniE00E.001" unicode="&#xe0e2;" 
d="M1533 93l-90 -90l-1022 1021l1022 1021l90 -90l-930 -931z" />
    <glyph glyph-name="uniE00E.001" unicode="&#xe09e;" 
d="M1533 93l-90 -90l-1022 1021l1022 1021l90 -90l-930 -931z" />
    <glyph glyph-name="uniE00E.001" unicode="&#xe09a;" 
d="M1533 93l-90 -90l-1022 1021l1022 1021l90 -90l-930 -931z" />
    <glyph glyph-name="uniE00E.001" unicode="&#xe096;" 
d="M1533 93l-90 -90l-1022 1021l1022 1021l90 -90l-930 -931z" />
    <glyph glyph-name="uniE00E.001" unicode="&#xe016;" 
d="M1533 93l-90 -90l-1022 1021l1022 1021l90 -90l-930 -931z" />
    <glyph glyph-name="uniE00E.001" unicode="&#xe012;" 
d="M1533 93l-90 -90l-1022 1021l1022 1021l90 -90l-930 -931z" />
    <glyph glyph-name="uniE00F" unicode="&#xe00f;" 
d="M515 93l930 931l-930 931l90 90l1022 -1021l-1022 -1021z" />
    <glyph glyph-name="uniE00F" unicode="&#xe76c;" 
d="M515 93l930 931l-930 931l90 90l1022 -1021l-1022 -1021z" />
    <glyph glyph-name="uniE00F" unicode="&#xe0e3;" 
d="M515 93l930 931l-930 931l90 90l1022 -1021l-1022 -1021z" />
    <glyph glyph-name="uniE00F" unicode="&#xe09f;" 
d="M515 93l930 931l-930 931l90 90l1022 -1021l-1022 -1021z" />
    <glyph glyph-name="uniE00F" unicode="&#xe09b;" 
d="M515 93l930 931l-930 931l90 90l1022 -1021l-1022 -1021z" />
    <glyph glyph-name="uniE00F" unicode="&#xe097;" 
d="M515 93l930 931l-930 931l90 90l1022 -1021l-1022 -1021z" />
    <glyph glyph-name="uniE00F" unicode="&#xe017;" 
d="M515 93l930 931l-930 931l90 90l1022 -1021l-1022 -1021z" />
    <glyph glyph-name="uniE00F" unicode="&#xe013;" 
d="M515 93l930 931l-930 931l90 90l1022 -1021l-1022 -1021z" />
    <glyph glyph-name="uniE73B.004" unicode="&#xe100;" 
d="M0 1916h2048v-218l-768 -768v-806h-512v806l-768 768v218zM1921 1789h-1792v-37l768 -768v-731h256v731l768 768v37z" />
    <glyph glyph-name="uniE73B.005" unicode="&#xe101;" 
d="M0 1916h2048v-219l-768 -768v-805h-512v805l-768 768v219z" />
    <glyph glyph-name="uniE73B.006" unicode="&#xe102;" 
d="M2048 126h-2048v1792h1792v-512h128v-512h128v-768zM1664 1406v384h-1536v-1536h512v1152h1024zM1792 894v384h-1024v-1024h513v640h511zM1920 254v512h-512v-512h512z" />
    <glyph glyph-name="uniE72D.001" unicode="&#xe103;" 
d="M2048 1085h-936l230 963q194 -52 361 -206q240 -225 321 -553q24 -103 24 -204zM957 1911q114 0 230 -29l-230 -926h954q1 -262 -127 -479t-347 -347t-482 -130t-483 130t-341 344q-131 222 -131 419t34 317q70 245 246 421q81 83 194 150q224 130 483 130zM1602 1759
q-76 70 -170 118l-158 -664h636q-37 205 -165 386q-70 97 -143 160zM957 1783q-221 0 -413 -110t-303 -299q-112 -197 -112 -418q0 -117 29 -220q93 -326 333.5 -467t486.5 -141q134 0 342 79t357 342q72 129 97 279h-982l120 476q40 158 59 237l59 239q-37 3 -73 3z" />
    <glyph glyph-name="uniE72D.002" unicode="&#xe104;" 
d="M2048 1086h-936l230 962q96 -24 191 -79q268 -160 421 -477q94 -205 94 -406zM1911 957q0 -265 -128 -481q-129 -216 -349 -346t-477 -130q-134 0 -254 34q-250 71 -424 245t-245 424q-34 121 -34 253t34 255q70 245 246 421q178 176 419 244t488 6l-230 -925h954z" />
    <glyph glyph-name="uniE72D.003" unicode="&#xe105;" 
d="M1024 2048q134 0 270 -37q259 -71 454 -264q95 -95 160 -207q140 -241 140 -516t-140 -516q-64 -110 -160 -206q-199 -199 -452 -265q-129 -37 -409.5 -37t-586.5 300q-300 309 -300 587.5t36 406.5q74 264 266 454t450 264q138 36 272 36zM1920 1024q0 243 -123 452
q-113 198 -323 321t-412 123t-352 -55.5t-273 -163.5l1264 -1264q219 254 219 587zM1039 128q147 0 297 56t275 163l-1264 1264q-219 -255 -219 -601t262 -620q171 -168 396 -230q106 -32 253 -32z" />
    <glyph glyph-name="uniE72D.006" unicode="&#xe106;" 
d="M989 1935h-684v-1596h684v-114h-798v1823h879l603 -603v-763h-114v683h-570v570zM1103 1479h374l-374 375v-375zM1103 226v114h551l-145 145l80 80l283 -282l-283 -283l-80 81l145 145h-551z" />
    <glyph glyph-name="uniE72D.004" unicode="&#xe107;" 
d="M1043.5 2048q400.5 0 702.5 -298q190 -188 266 -454q36 -130 36 -271q0 -377 -251 -669l-1439 1442q285 250 685.5 250zM1024 0q-272 0 -516 140q-231 137 -368 368q-140 246 -140 516q0 378 260 678l1440 -1442q-77 -71 -160 -120q-244 -140 -516 -140z" />
    <glyph glyph-name="uniE72D.007" unicode="&#xe108;" 
d="M384 1663h-256v-256h-128v384h384v-128zM2048 1407h-128v256h-256v128h384v-384zM1792 511h-1536v1024h1536v-1024zM384 1279h1280v128h-1280v-128zM1664 1151h-1280v-512h1280v512zM128 383h256v-128h-384v384h128v-256zM1920 639h128v-384h-384v128h256v256z" />
    <glyph glyph-name="uniE72D.005" unicode="&#xe109;" 
d="M855 336h-515v516h130l-1 -295l284 284l91 -92l-284 -283l295 1v-131zM855 1712v-130l-295 1l284 -284l-91 -91l-284 283v-289l-128 1l-1 509h515zM1585 852h130v-516h-516v131h295l-283 282l91 92l283 -283v294zM1199 1712h516v-510l-130 1l1 288l-284 -283l-91 91
l283 284l-295 -1v130z" />
    <glyph glyph-name="uniE10A" unicode="&#xe10a;" 
d="M1805 1715l-690 -691l690 -691l-90 -90l-691 690l-691 -690l-90 90l690 691l-690 691l90 90l691 -690l691 690z" />
    <glyph glyph-name="uniE10A" unicode="&#xe711;" 
d="M1805 1715l-690 -691l690 -691l-90 -90l-691 690l-691 -690l-90 90l690 691l-690 691l90 90l691 -690l691 690z" />
    <glyph glyph-name="uniE10F" unicode="&#xe10f;" 
d="M1792 128h-640v640h-256v-640h-640v805l-83 -82l-90 90l941 942l941 -942l-90 -90l-83 82v-805zM1664 256v805l-640 640l-640 -640v-805h384v640h512v-640h384z" />
    <glyph glyph-name="uniE10F" unicode="&#xe80f;" 
d="M1792 128h-640v640h-256v-640h-640v805l-83 -82l-90 90l941 942l941 -942l-90 -90l-83 82v-805zM1664 256v805l-640 640l-640 -640v-805h384v640h512v-640h384z" />
    <glyph glyph-name="uniE73B.002" unicode="&#xe110;" 
d="M1279 1664v129h513v-513h-129v306l-1201 -1202h306v-128h-513v513h128v-306l1202 1201h-306z" />
    <glyph glyph-name="uniE73B.003" unicode="&#xe111;" 
d="M1792 1280v-128h-640v640h128v-421l675 674l90 -90l-674 -675h421zM256 768v128h640v-640h-128v421l-675 -674l-90 90l674 675h-421z" />
    <glyph glyph-name="uniE72D.008" unicode="&#xe113;" 
d="M2048 1093q0 -205 -36 -337q-74 -264 -266 -456t-451 -263q-127 -37 -271 -37q-277 0 -518 140q-110 64 -207 159q-190 194 -263 452q-36 127 -36 273q0 280 136 512t372 372t516.5 140t513.5 -138.5t370 -368.5q140 -243 140 -448zM1022 128q247 0 450 120t325 326
t122 449.5t-122 452.5q-53 95 -139 181q-261 263 -634 263q-248 0 -453 -122q-203 -118 -323 -324t-120.5 -452t122.5 -450q56 -98 229 -271t543 -173zM960 1536h127v-447h449v-128h-449v-449h-127v449h-448v128h448v447z" />
    <glyph glyph-name="uniE72D.011" unicode="&#xe114;" 
d="M1024 1924l1024 -512l-384 -192l384 -192l-384 -192l384 -192l-1024 -512l-1024 512l384 192l-384 192l384 192l-384 192zM1762 1412l-738 369l-738 -369l738 -369zM527 1148l-241 -120l738 -369l738 369l-241 120l-497 -248zM286 644l738 -369l738 369l-241 120
l-497 -248l-497 248z" />
    <glyph glyph-name="uniE72D.012" unicode="&#xe115;" 
d="M1377 571v268h671v-671h-671v269h-437l-436 -437l-504 504l437 436v437h-269v671h671v-671h-268v-437l369 -369h437zM705 1511v403h-403v-403h403zM504 806l-302 -302l302 -302l302 302zM1511 705v-403h403v403h-403z" />
    <glyph glyph-name="uniE72D.013" unicode="&#xe116;" 
d="M0 111v1823h126v-1823h-126zM366 1149v505h1259v-505h-1259zM366 896h1682v-504h-1682v504z" />
    <glyph glyph-name="uniE72D.014" unicode="&#xe117;" 
d="M62 1279v513q368 0 577 134q109 70 191 96t190 26t183.5 -24t109.5 -46q42 -21 67 -38q205 -125 443 -142q78 -6 161 -6v-513q0 -420 -302 -762q-99 -113 -198 -196q-181 -155 -461 -321q-272 159 -461 321q-228 191 -364 431t-136 527zM190 1279q0 -355 263 -667
q232 -268 570 -463q227 131 398 285q89 82 171 178q264 309 264 667v387q-309 16 -549 169q-133 85 -284 85t-279 -82q-245 -156 -554 -172v-387zM959 1664h128v-897h-128v897zM959 638h128v-128h-128v128z" />
    <glyph glyph-name="uniE72D.015" unicode="&#xe118;" 
d="M1343 1664h128v-1216q1 -184 -133 -316t-316.5 -132t-314.5 132q-61 60 -97 143t-35 173v1280q1 132 95 226t223 94t228 -94q94 -94 94 -226v-1280q0 -78 -56 -135t-136 -57t-136 57t-56 135v1088h128v-1088q0 -26 19.5 -45t44.5 -19t44.5 19t19.5 45v1280
q0 121 -114 175q-38 17 -78 17t-78 -17t-58 -39q-56 -56 -56 -136v-1280q0 -130 95 -225t225.5 -95t224.5 94t95 226v1216z" />
    <glyph glyph-name="uniE930.001" unicode="&#xe119;" 
d="M2048 1729v-1410h-2048v1410h2048zM135 1595v-1142h1778v1142h-1778z" />
    <glyph glyph-name="uniE930.002" unicode="&#xe120;" 
d="M2048 1023q0 -192 -139 -360q-210 -251 -478 -303t-475.5 -52t-442.5 96t-374 260t-139 358.5t136 358.5t370 262t517 98t518 -98t371 -263t136 -357zM1915 1024q0 225 -243 398q-264 186 -647 186t-649 -186q-243 -174 -243 -400t255 -404t637.5 -177.5t646.5 186.5
q118 82 180.5 184.5t62.5 212.5z" />
    <glyph glyph-name="uniE930.003" unicode="&#xe121;" 
d="M2048 92l-92 -92l-1956 1955l92 92z" />
    <glyph glyph-name="uniE930.004" unicode="&#xe122;" 
d="M1024 1911l1024 -1774h-2048zM1024 1641l-791 -1370h1582z" />
    <glyph glyph-name="uniE930.005" unicode="&#xe123;" 
d="M1470 827v-827h-893v827h-535l981 1222l981 -1222h-534zM710 958v-825h626v825h392l-705 878l-705 -878h392z" />
    <glyph glyph-name="uniE930.006" unicode="&#xe124;" 
d="M0 256v1536h2048v-1536h-2048zM1919 1664h-1792v-678l448 448l641 -640l256 256l447 -448v1062zM1663 1344q0 -26 -18.5 -45t-44.5 -19t-45 19t-19 45t19 45t45 19t44.5 -19t18.5 -45zM127 384h1318l-870 869l-448 -448v-421zM1919 384v37l-447 448l-166 -165l320 -320
h293z" />
    <glyph glyph-name="uniED14.001" unicode="&#xe125;" 
d="M1730 1433q0 -463 -382 -608l434 -825h-404l-388 784h-347v-784h-378v2048h852q107 0 217 -38.5t200 -115.5t143 -198t53 -263zM643 1700v-570h421q122 0 199 60q104 75 104 223t-104 228q-83 59 -199 59h-421z" />
    <glyph glyph-name="uniEC28.001" unicode="&#xe126;" 
d="M146 2048v-1902h1902v-146h-2048v2048h146zM293 1901h1316v-439h-1316v439zM439 1609h1024v146h-1024v-146zM293 1316h1024v-439h-1024v439zM439 1024h731v146h-731v-146zM293 731h1609v-439h-1609v439zM439 438h1316v147h-1316v-147z" />
    <glyph glyph-name="uniED14.003" unicode="&#xe127;" 
d="M146 2048v-1902h1902v-146h-2048v2048h146zM1462 1902h439v-1609h-439v1609zM1609 439h146v1317h-146v-1317zM292 1609h439v-1316h-439v1316zM438 439h147v1024h-147v-1024zM877 1317h439v-1024h-439v1024zM1024 439h146v731h-146v-731z" />
    <glyph glyph-name="uniEC7C.001" unicode="&#xe128;" 
d="M146 2048v-1901l1902 -1v-146l-2048 1v2047h146zM2048 294h-1756v1033l366 183l497 -249l381 379l512 -511v-835zM439 733h494l618 308l350 -351v377l-365 367l-351 -352l-527 263l-219 -108v-504zM439 586v-146h1462v42l-380 381l-553 -277h-529z" />
    <glyph glyph-name="uniEC7D.001" unicode="&#xe129;" 
d="M2048 1085h-936l229 963q96 -24 191 -80q270 -158 422 -476q94 -204 94 -407zM948 1911q122 0 239 -29l-231 -926h955q0 -257 -129 -483q-132 -218 -349 -345.5t-475 -127.5q-395 0 -678 280q-176 176 -228 359t-52 317t34 254q70 245 246 422q93 92 194 149
q229 130 474 130zM1910 1213q-37 205 -168 390t-310 274l-158 -664h636zM918 1783q-74 0 -176 -28t-204 -84q-182 -107 -296 -298t-114 -417t114 -417q176 -294 389 -352.5t345 -58.5t340.5 77.5t360.5 342.5q74 134 97 280h-982q52 205 119 476l60 238q27 113 60 238
q-39 3 -113 3z" />
    <glyph glyph-name="uniECCE.001" unicode="&#xe130;" 
d="M146 2046v-1900h1902v-146h-2048v2046h146zM292 1901h439v-1609h-439v1609zM877 1901h439v-1609h-439v1609zM1463 1901h438v-1609h-438v1609zM439 1170h146v585h-146v-585zM1024 877h146v878h-146v-878zM1609 1462h146v293h-146v-293zM1609 1316v-878h146v878h-146z
M439 438h146v586h-146v-586zM1024 438h146v293h-146v-293z" />
    <glyph glyph-name="uniED14.004" unicode="&#xe131;" 
d="M147 146h1901v-146h-2048v2048h147v-1294l513 513l291 -293l805 804l292 -292v-190l-292 293l-805 -805l-291 294l-513 -513v-419z" />
    <glyph glyph-name="uniED18.001" unicode="&#xe132;" 
d="M1920 1108q0 -164 -68 -290q88 -58 142 -157t54 -202q0 -201 -131 -330t-317 -129t-317 129t-131 319q0 53 10 94q-172 55 -283 208t-111 338q0 238 169 407t407 169h18q6 -1 18 -1l36 -3q-8 40 -8 88t26 107t68 101q95 92 223 92t229 -95q94 -96 94 -215.5t-66 -203.5
t-167 -114q105 -148 105 -312zM1728 1920q-80 0 -136 -57t-56 -129t37 -117q61 -25 97 -53t40 -27.5t6 -0.5h12q84 0 138 56t54 135t-56 136t-136 57zM1792 1080q0 204 -146 339l-4 1q-65 55 -146 89l-1 1q-75 26 -159 26q-176 0 -308 -132t-132 -316q0 -141 86 -264
q89 -121 224 -162q61 109 165 171.5t229 62.5q71 0 137 -21q55 103 55 205zM316 1408q129 0 230 -95q94 -96 94 -226t-94 -226q-98 -93 -228 -93t-224 92t-94 229t94 224q93 95 222 95zM341 896q62 0 116 56q55 56 55 135t-56 136t-136 57t-136 -57t-56 -156t113 -154
q38 -17 100 -17zM1920 450q0 136 -99 228q-99 90 -231 90q-64 0 -124 -30t-99 -71q-87 -95 -87 -225t94 -222t226 -92q130 0 225 93t95 229z" />
    <glyph glyph-name="uniED18.002" unicode="&#xe133;" 
d="M1024 0l-1024 2048h2048zM1713 1664l128 256h-1634l128 -256h1378zM527 1280h994l128 256h-1250zM719 896h610l128 256h-866zM1265 768h-482l241 -482z" />
    <glyph glyph-name="uniED18.003" unicode="&#xe134;" 
d="M1911 274h-558v98h461v1098h-1578v-1098h453v-98h-551v1774h1773v-1774zM1814 1950h-1578v-381h1578v381zM1121 1687q-31 0 -52.5 21.5t-21.5 52.5t21.5 52.5t52.5 21.5t52.5 -21.5t21.5 -52.5t-21.5 -52.5t-52.5 -21.5zM1372 1687q-30 0 -51 21.5t-21 52.5t21 52.5
t51 21.5t52 -21.5t22 -52.5t-22 -52.5t-52 -21.5zM1625 1687q-31 0 -52.5 21.5t-21.5 52.5t21.5 52.5t52.5 21.5t52.5 -21.5t21.5 -52.5t-21.5 -52.5t-52.5 -21.5zM1039 1296l88 -11l-82 -622l-88 12zM687 991l152 -152l-70 -69l-221 221l224 225l71 -70zM1281 1216
l225 -225l-221 -221l-70 69l151 152l-155 155zM1069 0h-97v375l-105 -105l-71 70l223 221l225 -226l-70 -69l-105 105v-371z" />
    <glyph glyph-name="uniE138.001" unicode="&#xe135;" horiz-adv-x="2052" 
d="M1094 957v-695l219 219l97 -97l-384 -384l-384 384l97 97l220 -219v695h-696l220 -219l-97 -98l-384 384l384 384l97 -97l-220 -219h696v695l-216 -215l-95 96l378 380l384 -384l-97 -97l-219 220v-695h695l-220 219l97 97l384 -384l-380 -379l-96 98l215 214h-695z" />
    <glyph glyph-name="uniE137" unicode="&#xe137;" 
d="M1792 1152v768h-768v-768h768zM896 1152v768h-768v-768h768zM896 256v768h-768v-768h768zM0 2048h1920v-1024h-896v-896h-1024v1920z" />
    <glyph glyph-name="uniE138" unicode="&#xe138;" 
d="M1791 256h-1664v1664h1664v-1664zM255 1152h640v640h-640v-640zM1023 1792v-640h640v640h-640zM895 384v640h-640v-640h640zM1663 1024h-640v-640h640v640z" />
    <glyph glyph-name="uniE138.003" unicode="&#xe139;" horiz-adv-x="2052" 
d="M1154 768q0 -52 18 -128h-913v256h-257v1152h1536v-256h256v-530q-65 18 -128 18v384h-1280v-896h768zM259 1024v768h1151v128h-1280v-896h129zM1282 768q0 158 113 271t273 113t269 -113q113 -109 113 -269t-113 -273t-255 -113t-237 71l-17 -17q-18 -18 -75 -78
t-67 -70l-85 -85q-127 -125 -175 -165t-68 -40t-40 19t-19 40q0 21 22 48t69.5 81t145.5 149q97 94 119.5 115.5t52.5 50t45 43.5q-71 99 -71 222zM1666 512q52 0 100 21q94 42 136 136q21 47 21 99t-21 100q-42 95 -137 136q-44 20 -98.5 20t-100.5 -20q-93 -42 -135 -137
q-21 -47 -21 -99t21 -99q41 -94 135 -136q48 -21 100 -21zM514 896v350h128v-350h-128zM1026 896v441h128v-441h-128zM770 896v559h129v-559h-129z" />
    <glyph glyph-name="uniE13A" unicode="&#xe13a;" 
d="M1506 128q90 0 138 14t88 38q39 26 76 64q36 38 74 76t38 65q0 29 -14 53t-38 51t-52 55t-56 54t-50 48q-24 22 -44 41q-20 20 -52 20t-55 -15q-22 -15 -44 -37q-21 -23 -45 -49t-52 -48q-66 -52 -150 -52q-83 0 -147 64l-551 551q-64 64 -64 162q0 99 100 187
q62 55 82 83q19 29 19 61t-20 52q-19 20 -41 44t-48 50q-148 160 -206 160q-34 0 -72 -38t-76 -74q-38 -37 -64 -76q-54 -79 -53 -199t37 -239t100 -238q64 -118 153 -234q88 -116 192 -219q103 -103 219 -190t234 -151t236 -98q118 -36 208 -36zM2047 395q-1 -92 -61 -153
q-60 -62 -107 -106t-97 -74q-101 -62 -242 -62t-273 39q-133 39 -263 108t-256 164t-236 207q-232 234 -372 503q-140 268 -140 504q0 155 62 257q30 50 74 98q44 46 90 90q79 78 169 78q91 0 156 -65l220 -220q64 -64 64 -162q-1 -98 -101 -186q-61 -53 -80 -83
q-20 -29 -20 -61t27 -59l551 -551q27 -27 59 -27q33 0 55 15t44 37t45 48q87 101 201 101q83 0 147 -64l220 -220q64 -64 64 -156z" />
    <glyph glyph-name="uniE138.004" unicode="&#xe140;" horiz-adv-x="2052" 
d="M2050 1023q0 -280 -140 -515q-95 -167 -314.5 -337.5t-569.5 -170.5q-418 0 -746 322q-70 70 -138 183q-140 236 -140 516.5t139 515.5t374.5 373t445 138t336.5 -37q253 -69 447 -261t270 -455q36 -131 36 -272zM1922 1052q0 92 -32 208q-63 230 -232 398t-340 215
t-416 47t-506 -261q-85 -84 -129 -159q-137 -234 -137 -476q0 -64 9 -128h1774q9 64 9 156zM167 767q20 -64 49 -126h972l-23 126h-998zM681 512h-390q51 -76 130 -148t170 -123zM963 1791h126v-522l276 275l90 -91l-429 -429l-429 429l90 91l276 -275v522zM1005 128
q150 0 272 36l-17 92h-529l-23 -70q147 -58 297 -58zM816 512l-42 -127h462l-24 127h-396zM1836 641q8 15 14 30.5t15 36.5t20 59h-590l24 -126h517zM1399 209q220 99 362 303h-418z" />
    <glyph glyph-name="uniE138.006" unicode="&#xe141;" horiz-adv-x="2052" 
d="M130 1920h-128v128h128v-128zM130 1664h-128v128h128v-128zM130 1408h-128v128h128v-128zM1410 384h-1408v896h1408v-896zM1282 1152h-1152v-640h1152v640zM386 1920h-128v128h128v-128zM642 1920h-128v128h128v-128zM898 1920h-128v128h128v-128zM898 1664h-128v128h128
v-128zM898 1408h-128v128h128v-128zM1026 0v128q236 0 452 123q200 118 322 324.5t122 452.5t-93 428t-291 373v-293h-128v512h512v-128h-293q216 -214 312 -397q109 -216 109 -497.5t-138 -516.5t-372 -372q-235 -137 -514 -137z" />
    <glyph glyph-name="uniE138.005" unicode="&#xe142;" horiz-adv-x="2052" 
d="M2 1024h128q0 -370 263 -633q79 -81 180 -140q209 -123 453 -123q362 0 628 220q84 67 177 164h-293v128h512v-512h-128v293q-225 -225 -418 -323t-477 -98t-516 137t-370 372q-139 235 -139 515zM386 640v1408h896v-1408h-896zM1154 768v1152h-640v-1152h640zM1410 1920
v128h128v-128h-128zM1410 1152v128h128v-128h-128zM1666 1920v128h128v-128h-128zM1666 1152v128h128v-128h-128zM1922 1920v128h128v-128h-128zM1922 1664v128h128v-128h-128zM1922 1408v128h128v-128h-128zM1922 1152v128h128v-128h-128z" />
    <glyph glyph-name="e143" unicode="&#xe143;" 
d="M965 2048h128v-1449l467 470l90 -90l-621 -626l-621 626l90 90l467 -470v1449zM453 0v128h1152v-128h-1152z" />
    <glyph glyph-name="uniE713.001" unicode="&#xe144;" 
d="M46 48v498h128v-283l357 359l91 -91l-359 -357h283v-126h-500zM46 1998h500v-126h-283l359 -357l-91 -90l-357 358v-283h-128v498zM2003 48h-500v126h283l-359 357l91 91l357 -359v283h128v-498zM2003 1998v-498h-128v283l-357 -358l-91 90l359 357h-283v126h500z
M1335 792h-99v199l-139 222h118l71 -122l75 122h118l-144 -228v-193zM748 1008l-126 205h119l68 -111l68 111h117l-129 -205l136 -216h-118l-74 122l-75 -122h-120z" />
    <glyph glyph-name="uniE73B.013" unicode="&#xe145;" 
d="M2048 255h-2048v1536h2048v-1536zM128 1663v-1280h1793v1280h-1793zM641 1535v-128h-257v-256h-128v384h385zM1792 1535v-384h-128v256h-256v128h384zM384 896v-257h257v-128h-385v385h128zM1664 639v257h128v-385h-384v128h256z" />
    <glyph glyph-name="uniE73B.014" unicode="&#xe146;" 
d="M1028 832q-26 0 -46 19t-19 45q0 26 19 44q19 19 46 19q28 -1 46 -19t18 -44t-19 -46q-19 -18 -45 -18zM1028 1087q-26 -1 -46 19t-19 45q-1 25 19 45t46 19q26 0 45 -19t19 -45t-19 -45t-45 -19zM1195 1087v128q48 0 88 37t40 92h127v-641h-127v420q-68 -36 -128 -36z
M597 1087v128q53 1 81 29q48 49 48 100h127v-641h-127v420q-67 -36 -129 -36zM1920 383v1281h-1792v-1281h1792zM0 1792h2048v-1537h-2048v1537z" />
    <glyph glyph-name="uniE73B.015" unicode="&#xe147;" 
d="M1888 785q32 109 32 358.5t-262 514.5q-160 165 -396 230q-116 32 -299 32t-391 -122q-315 -184 -412 -536q-32 -116 -32 -297t121 -390t323 -325q205 -122 452 -122t452 122q102 58 182 139q168 170 230 396zM1538 1909q233 -139 370 -369q140 -234 140 -516
q0 -142 -37 -274q-73 -258 -263 -450q-194 -190 -452 -264q-130 -36 -272 -36t-274 37q-258 73 -451 262q-189 193 -262 451q-37 130 -37 272t37 274t104 246t159 206t206 159q238 141 518.5 141t513.5 -139zM635 1482h93v-741l295 295l3 -2l295 -300v741h93v-741l296 295
l65 -65l-407 -408l-346 349l-341 -341l-407 412l65 65l296 -300v741z" />
    <glyph glyph-name="uniE73B.016" unicode="&#xe148;" 
d="M1088 384h-128v1026l-409 -409l-90 91l563 563l564 -570l-91 -91l-409 416v-1026zM961.5 1920q-184.5 0 -389.5 -122q-144 -82 -252 -219t-150 -285t-42 -270t32 -238q64 -228 208 -372q109 -109 204 -164q96 -55 213 -89q117 -33 239 -33t237 32t216 91q100 58 183 141
t140 181q56 98 88 211t32 241q0 129 -32 240q-64 227 -229 393q-165 167 -396 230q-117 32 -301.5 32zM990.5 0q-312.5 0 -529.5 166.5t-320 340.5q-141 240 -141 446.5t54 403.5t244 388q191 191 454 267q130 36 272 36q280 0 517 -139q357 -213 470 -612q37 -131 37 -272
t-37 -273t-104 -246q-67 -113 -158 -205t-207 -160q-239 -141 -551.5 -141z" />
    <glyph glyph-name="uniE73B.017" unicode="&#xe149;" 
d="M960 1664h128v-1026l409 409l90 -91l-563 -563l-564 570l91 91l409 -416v1026zM128 1025q0 -130 32 -243t90 -212q58 -98 140 -180t180 -140q208 -122 396 -122t300 32q348 100 532 411q56 98 90 214q32 117 32 239t-32 238q-68 232 -230 396q-165 163 -396 229
q-116 33 -238 33q-239 0 -453 -122q-311 -184 -411 -532q-32 -111 -32 -241zM1024 2048q142 0 270 -36t244 -103q115 -68 208 -160t161 -208q68 -115 95 -213t36.5 -165.5t9.5 -171t-63 -335t-337 -444t-622 -212.5t-620 206.5t-370 544.5q-36 129 -36 271t36 274
q76 262 288 474q70 70 185 138q115 67 243 104q130 36 272 36z" />
    <glyph glyph-name="uniE14E" unicode="&#xe14e;" 
d="M1024 640h384v384h-384v-384zM512 1024v-384h384v384h-384zM896 1536h-384v-384h384v384zM1408 1152v384h-384v-384h384zM1536 1664v-1152h-1152v1152h1152zM1792 2048h128v-128h-128v128zM1536 128v128h128v-128h-128zM1280 128v128h128v-128h-128zM1024 128v128h128
v-128h-128zM768 128v128h128v-128h-128zM512 128v128h128v-128h-128zM256 128v128h128v-128h-128zM1536 1920v128h128v-128h-128zM1408 2048v-128h-128v128h128zM1152 2048v-128h-128v128h128zM896 2048v-128h-128v128h128zM640 2048v-128h-128v128h128zM384 2048v-128h-128
v128h128zM1792 128v128h128v-128h-128zM1792 384v128h128v-128h-128zM1792 640v128h128v-128h-128zM1792 896v128h128v-128h-128zM1792 1152v128h128v-128h-128zM1792 1408v128h128v-128h-128zM1792 1664v128h128v-128h-128zM0 128v128h128v-128h-128zM0 384v128h128v-128
h-128zM0 640v128h128v-128h-128zM0 896v128h128v-128h-128zM0 1152v128h128v-128h-128zM0 1408v128h128v-128h-128zM0 1664v128h128v-128h-128zM0 1920v128h128v-128h-128z" />
    <glyph glyph-name="uniE73B.018" unicode="&#xe150;" 
d="M1092 1668h-129v-1032l-411 418l-91 -91l567 -573l566 566l-91 91l-411 -411v1032zM1024 2048q142 0 272.5 -36.5t244 -103t207 -160t160.5 -207.5t103.5 -245t36.5 -272t-36.5 -272t-103.5 -244.5t-160.5 -207t-207 -160.5t-244.5 -103.5t-272 -36.5t-272 36.5
t-245 103.5t-207.5 160.5t-160 207t-103 244.5t-36.5 272t36.5 272t103 245t160 207.5t207.5 160t244.5 103t272.5 36.5z" />
    <glyph glyph-name="uniE73B.019" unicode="&#xe151;" 
d="M1548 1306q69 -132 69 -278t-69 -277q186 128 315 277q-148 162 -315 278zM501 751q-70 133 -70 277t70 278q-163 -110 -315 -278q134 -154 315 -277zM1024 567q190 0 325.5 135.5t135.5 325.5t-135.5 326t-325.5 136t-325.5 -136t-135.5 -326t135.5 -325.5t325.5 -135.5
zM1024 434q-101 0 -195.5 23t-181 60.5t-163.5 85.5t-165.5 117t-168 152.5t-102.5 114.5l-33 41l33 42q53 70 140.5 152t153 133t142.5 99t163.5 85.5t181 60.5t195.5 23t195.5 -23t181 -60.5t164 -85.5t162.5 -114t167.5 -152t106.5 -118l32 -42l-32 -41
q-49 -65 -138.5 -149.5t-155 -135.5t-143 -99t-164 -85.5t-181 -60.5t-195.5 -23zM1024 1161q54 0 93 -39t39 -80t-10.5 -65t-28.5 -42t-42 -28.5t-64.5 -10.5t-79.5 39t-39 80t10.5 65t39 52.5t82.5 28.5z" />
    <glyph glyph-name="uniE73B.020" unicode="&#xe152;" 
d="M1369 1914h128v-1551l198 198l89 -90l-352 -352l-352 352l90 90l199 -198v1551zM657 1730l-78 -282h165l-77 282h-10zM814 1186l-39 148h-228l-40 -148h-145l235 727h128l234 -727h-145zM891 264v-124h-467v115l318 490h-300v124h449v-115l-317 -490h317z" />
    <glyph glyph-name="uniE73B.021" unicode="&#xe153;" 
d="M657 684l-78 -282h165l-77 282h-10zM814 140l-39 148h-228l-40 -148h-145l235 727h128l234 -727h-145zM1369 1914h128v-1551l198 198l89 -90l-352 -352l-352 352l90 90l199 -198v1551zM891 1308v-124h-467v115l318 490h-300v124h449v-115l-317 -490h317z" />
    <glyph glyph-name="uniE73B.022" unicode="&#xe154;" 
d="M1922 512v254h-1410v-254h1410zM384 898h1664v-512h-1664v512zM1536 1152h-1152v512h1152v-512zM128 0h-128v2048h128v-2048z" />
    <glyph glyph-name="uniE73B.023" unicode="&#xe155;" 
d="M1758 766h-1406v-254h1406v254zM1890 892v-512h-772v-380h-126v380h-770v512h770v258h-512v512h512v386h126v-386h514v-512h-514v-258h772z" />
    <glyph glyph-name="uniE73B.024" unicode="&#xe156;" 
d="M128 768v-256h1408v256h-1408zM0 898h1664v-512h-1664v512zM1664 1152h-1152v512h1152v-512zM2048 0h-128v2048h128v-2048z" />
    <glyph glyph-name="uniE73B.025" unicode="&#xe157;" 
d="M512 126h254v1410h-254v-1410zM898 1664v-1664h-512v1664h512zM1152 512v1152h512v-1152h-512zM0 1920v128h2048v-128h-2048z" />
    <glyph glyph-name="uniE73B.026" unicode="&#xe158;" 
d="M766 354v1406h-254v-1406h254zM892 222h-512v772h-380v126h380v770h512v-770h258v512h512v-512h386v-126h-386v-514h-512v514h-258v-772z" />
    <glyph glyph-name="uniE73B.027" unicode="&#xe159;" 
d="M384 384v1664h512v-1664h-512zM768 512v1408h-256v-1408h256zM1152 384v1152h512v-1152h-512zM0 0v128h2048v-128h-2048z" />
    <glyph glyph-name="uniE15A" unicode="&#xe15a;" 
d="M1538 1219v156h162v-136q0 -69 -16 -98q-16 -28 -29 -43q-23 -26 -62 -44q-39 -17 -55 -17v58q47 12 66 42q22 25 26 82h-92zM614 417h194l-96 300zM624 891h180l270 -762h-172l-50 156h-282l-52 -156h-166zM1418 891q122 0 190 -68q72 -64 72 -176t-93 -194
q-27 -24 -65 -50l-60 -42q-93 -67 -110 -100h330v-130h-518q0 133 88 226q38 40 119 99t107 86q50 52 50 104t-26 87q-28 32 -69 32q-76 0 -101 -50q-12 -32 -16 -94h-144q11 270 246 270zM614 1575h194l-96 300zM624 2049h180l270 -762h-172l-50 156h-282l-52 -156h-166z
M1080 1815v100q78 4 99 9q93 21 106 112q1 7 1 13h124v-756h-152v522h-178z" />
    <glyph glyph-name="uniE15B" unicode="&#xe15b;" 
d="M1408 386h640v-128h-640v128zM1408 770h640v-128h-640v128zM1408 1154h640v-128h-640v128zM1408 1538h640v-128h-640v128zM1408 1922h640v-128h-640v128zM512 386h768v-128h-768v128zM512 770h768v-128h-768v128zM512 1154h768v-128h-768v128zM512 1538h768v-128h-768
v128zM512 1922h768v-128h-768v128zM0 386h384v-128h-384v128zM0 770h384v-128h-384v128zM0 1154h384v-128h-384v128zM0 1538h384v-128h-384v128zM0 1922h384v-128h-384v128z" />
    <glyph glyph-name="uniE73B.028" unicode="&#xe160;" 
d="M1920 128v768h-256v-512h-512v-256h768zM896 1664v256h-768v-768h256v512h512zM1664 1024h384v-1024h-1024v384h-640v640h-384v1024h1024v-384h640v-640z" />
    <glyph glyph-name="uniE73B.029" unicode="&#xe161;" 
d="M1918 128v768h-766v-768h766zM896 1152v768h-768v-768h768zM1662 1024h384v-1024h-1022v384h-640v640h-384v1024h1024v-384h638v-640z" />
    <glyph glyph-name="uniE73B.030" unicode="&#xe162;" 
d="M1728 320v1024h-192v-832h-832v-192h1024zM1536 1472h320v-1280h-1280v320h-320v1280h1280v-320z" />
    <glyph glyph-name="uniE73B.031" unicode="&#xe163;" 
d="M1472 1664h-1088v-1088h1088v1088zM1856 1408v-1216h-1280v256h-320v1344h1344v-384h256z" />
    <glyph glyph-name="uniE73B.032" unicode="&#xe164;" 
d="M1919 1794h-1792v-38l768 -768v-732h256v732l768 768v38zM-1 1920h2048v-218l-768 -768v-294h517l-276 276l90 88l430 -428l-430 -428l-90 90l276 274h-517v-384h-512v806l-768 768v218z" />
    <glyph glyph-name="uniE105" unicode="&#xe165;" 
d="M1536 384h256v-128h-256v128zM1920 1153h-512v-1025h512v1025zM1920 1281q53 0 90.5 -37.5t37.5 -90.5v-1025q0 -53 -37.5 -90.5t-90.5 -37.5h-512q-53 0 -90.5 37.5t-37.5 90.5v1025q0 53 37.5 90.5t90.5 37.5h512zM1152 384v-128h-923l-229 230v1434q0 53 37.5 90.5
t90.5 37.5h1536q53 0 90.5 -37.5t37.5 -90.5v-512h-128v512h-128v-512h-128v512h-1024v-640h768v-128h-896v768h-128v-1381l154 -155h102v512h768v-128h-640v-384h128v256h128v-256h384z" />
    <glyph glyph-name="uniE930.007" unicode="&#xe166;" 
d="M1920 1024q0 243 -121 448.5t-326.5 326.5t-448.5 121t-448.5 -121t-326.5 -326.5t-121 -448.5t121 -448.5t327 -326.5t448 -121q244 0 449 121t326 326.5t121 448.5zM2048 1024q0 -278 -137.5 -513.5t-373 -373t-513.5 -137.5t-513.5 137.5t-373 373t-137.5 513.5
t137.5 513.5t373 373t513.5 137.5t513.5 -137.5t373 -373t137.5 -513.5zM1491 1453l90 -90l-749 -749l-365 365l90 90l275 -275z" />
    <glyph glyph-name="uniE102" unicode="&#xe167;" 
d="M640 1674v-1300l929 650zM512 1920l1280 -896l-1280 -896v1792z" />
    <glyph glyph-name="uniE103" unicode="&#xe168;" 
d="M1280 1792h128v-1536h-128v1536zM640 256v1536h128v-1536h-128z" />
    <glyph glyph-name="uniE103.001" unicode="&#xe169;" 
d="M1344 640v768h128v-768h-128zM960 640v768h128v-768h-128zM576 640v768h128v-768h-128zM1536 1920h512v-512h-128v384h-384v128zM1920 256v384h128v-512h-512v128h384zM128 640v-384h384v-128h-512v512h128zM0 1408v512h512v-128h-384v-384h-128z" />
    <glyph glyph-name="uniE103.002" unicode="&#xe170;" 
d="M1920 384v896h-128v-768h-1152v-128h1280zM384 768v-128h1280v896h-128v-768h-1152zM128 1792v-896h1280v896h-1280zM1792 1408h256v-1152h-1536v256h-256v256h-256v1152h1536v-256h256v-256z" />
    <glyph glyph-name="uniE103.003" unicode="&#xe171;" 
d="M1400 793q128 0 128 64t-36 87q-38 23 -101 23h-58v106h54q122 0 122 79t-94 79q-63 0 -122 -41v113q67 33 159 33t145 -44t53 -111q0 -124 -125 -154v-3q67 -8 105 -48t39 -113q0 -72 -64 -124t-169 -52t-167 32v120q63 -46 131 -46zM789 1283q80 53 182 53t152 -48
q54 -46 54 -130q1 -40 -13 -76q-28 -76 -147 -157q-52 -38 -79 -63q-28 -26 -28 -49h266v-115h-417v48q0 85 44 139t76 78t53 39q20 15 36 28q68 57 68 115q0 81 -87 81t-160 -64v121zM620 1340v-642h-138v486q-15 -15 -33 -23t-31 -14q-14 -5 -28 -9t-23 -5.5t-18 -3.5v117
q108 32 187 94h84zM2048 256h-2048v1536h2048v-1536zM1920 1664h-1792v-1280h1792v1280z" />
    <glyph glyph-name="uniE106" unicode="&#xe172;" 
d="M1115 1024l914 -915l-90 -90l-915 914l-915 -914l-90 90l914 915l-914 915l90 90l915 -914l915 914l90 -90z" />
    <glyph glyph-name="uniE00E" unicode="&#xe173;" 
d="M549 128l1024 1024h-557l384 768h-433l-512 -1024h449l-384 -768h29zM1223 1280h660l-1280 -1280h-290l384 768h-449l640 1280h719z" />
    <glyph glyph-name="uniE125" unicode="&#xe174;" 
d="M1227.5 1483.5q75.5 -75.5 180.5 -75.5t180.5 75.5t75.5 180.5t-75.5 180.5t-180.5 75.5t-180.5 -75.5t-75.5 -180.5t75.5 -180.5zM820.5 715.5q75.5 75.5 75.5 180.5t-75.5 180.5t-180.5 75.5t-180.5 -75.5t-75.5 -180.5t75.5 -180.5t180.5 -75.5t180.5 75.5zM1024 1658
q0 85 30.5 155t82.5 122t122 82.5t188.5 30.5t231.5 -113t113 -271q0 -91 -41.5 -173t-114.5 -136q130 -66 207 -189.5t77 -269.5h-128q0 158 -113 271t-271 113t-271 -113t-113 -271q0 -91 -41.5 -173t-114.5 -136q130 -66 207 -189.5t77 -269.5h-128q0 158 -113 271
t-271 113t-271 -113t-113 -271h-128q0 224 109.5 325t174.5 134q-73 54 -114.5 136t-41.5 167q0 164 113 277t271 113q91 0 173 -41.5t136 -114.5q78 153 231 231q-73 54 -114.5 136t-41.5 167z" />
    <glyph glyph-name="uniE125.001" unicode="&#xe175;" 
d="M570 952v-242q0 -70 -64 -96q-17 -10 -46 -10q-30 0 -46 12l-24 18q-30 40 -30 76v242q0 34 12 50l18 24q40 30 63 30t33 -2q23 -5 54 -28q30 -40 30 -74zM690 710v622q0 70 64 96q17 10 43 10t37 -7q12 -7 21 -12q45 -25 45 -87v-622q0 -80 -83 -103q-11 -3 -22 -3
q-16 0 -40 9t-33 23q-32 24 -32 74zM1352 1594q0 34 12 50l18 24q40 30 63 30q33 0 53 -8q64 -26 64 -96v-784q-92 65 -210 78v706zM1230 1172v-286q-108 -15 -210 -96v382q0 44 31 75t75 31q70 0 96 -66q8 -16 8 -40zM228 876h38v-78h-38q-52 0 -87 16t-75 50
q-35 40 -51 75q-15 35 -15 85v792q0 85 66 160q75 66 162 66h1466q52 0 87 -16t73 -50q66 -66 66 -160v-792q0 -94 -66 -160t-160 -66h-38v78h38q77 0 124 65q26 36 26 83v792q0 97 -92 136q-24 12 -58 12h-1466q-93 0 -138 -90q-12 -28 -12 -58v-792q0 -47 17 -71
q17 -23 27 -33q44 -44 106 -44zM1572 498q-15 92 -93 157q-77 65 -177 65t-178 -70t-90 -170q-68 -12 -115 -67t-47 -118q0 -136 122 -187q36 -16 76 -16h666q92 0 163 69t71 165t-68 168q-76 68 -167 68t-163 -64zM1733 640q131 0 223 -92q92 -83 92 -254q0 -96 -92 -188
t-222 -92h-664q-114 0 -194 78t-80 185t64 187q47 55 108 78q27 95 102 166q102 90 230 90q208 0 312 -182q56 24 121 24z" />
    <glyph glyph-name="uniE125.002" unicode="&#xe176;" 
d="M1792 704v-256h256v-128h-256v-256h-128v256h-256v128h256v256h128zM1280 576v-256h-256v1664h384v-1408h-128zM512 320v1152h384v-1152h-384zM0 320v640h384v-640h-384zM1536 832v640h384v-640h-384z" />
    <glyph glyph-name="uniE125.003" unicode="&#xe177;" 
d="M1797 631v-252h251v-127h-251v-252h-127v252h-252v127h252v252h127zM1008 1073q0 27 -18 45t-45 18t-45 -18t-18 -45t18 -45t45 -18t45 18t18 45zM1115 1156q19 -41 19 -83t-14 -75q-31 -70 -102 -100q-32 -14 -73 -14t-77 16t-60 42t-38 58t-14 92t55 115t134 55
q42 0 83 -19l-1 1l363 363l89 -89l-363 -363zM377 1073q0 -235 167 -401l-90 -90q-203 202 -202.5 491t202.5 491t491 203q150 0 284 -62l-51 -115q-113 51 -253 51t-266 -77q-199 -120 -241 -268t-41 -223zM1639 1077q0 -294 -203 -495l-90 90q167 167 167 398
q0 123 -51 236l115 51q62 -134 62 -280zM960 126q-262 0 -482 127t-349 347q-129 223 -129 476q0 252 127 470t347 346t471.5 128t471.5 -128t348 -346q128 -219 128 -473q0 -162 -57 -315h-133q63 147 63 315q0 222 -110 411q-110 190 -301 300t-411 110t-411 -112
t-300 -301t-109 -409t111 -410t299 -300t427 -109q144 0 330 62v-134q-204 -55 -331 -55z" />
    <glyph glyph-name="uniE125.004" unicode="&#xe178;" 
d="M888 1864q-56 -56 -56 -138t56 -134q52 -56 135 -56q39 0 75 15q72 30 103 102q15 34 15 74q0 79 -56 137q-58 56 -137 56t-135 -56zM1088 544q0 -32 -14 -32h-39q-24 0 -29 1t-25.5 4.5t-20.5 26.5v480h-420l-298 -896h1564l-298 896h-420v-480zM960 1152v262
q-59 12 -104 40q-99 63 -133 165q-19 50 -19 113q0 128 94 222t225 94t226 -95t95 -225q0 -54 -19 -107q-19 -52 -45 -84q-79 -99 -192 -123v-262h512l384 -1152h-1920l384 1152h512z" />
    <glyph glyph-name="uniE946.001" unicode="&#xe179;" 
d="M896 1536h128v-128h-128v128zM896 1280h128v-640h-128v640zM128 1088q0 -224 112 -416t304 -304t416 -112t416 112t304 304t112 416t-112 416t-304 304t-416 112t-416 -112t-304 -304t-112 -416zM960 128q-133 0 -255.5 34t-229.5 96.5t-194.5 150t-150 194.5
t-96.5 229.5t-34 255.5t34 255.5t96.5 229.5t150 194.5t194.5 150t229.5 96.5t255.5 34t255.5 -34t229.5 -96.5t194.5 -150t150 -194.5t96.5 -229.5t34 -255.5t-34 -255.5t-96.5 -229.5t-150 -194.5t-194.5 -150t-229.5 -96.5t-255.5 -34z" />
    <glyph glyph-name="uniE125.005" unicode="&#xe181;" 
d="M1014 512h12q11 0 16 1t25.5 4.5t20.5 26.5v480h-128v-480q0 -8 8 -16t16 -10q7 -2 12.5 -3t10.5 -2t7 -1zM888 1592q56 -56 138 -56t134 56q56 52 56 135q0 81 -56 137t-135 56t-137 -56q-56 -58 -56 -137t56 -135zM960 1152v262q-109 23 -183 111q-73 88 -73 211
t94.5 217.5t224.5 94.5t225 -94q96 -94 96 -226q0 -117 -54 -181t-99 -93q-44 -28 -103 -40v-262h512l384 -1152h-1920l384 1152h512z" />
    <glyph glyph-name="uniE125.006" unicode="&#xe182;" 
d="M1920 1024q0 243 -121 448.5t-326.5 326.5t-448.5 121t-448.5 -121t-326.5 -326.5t-121 -448.5t121 -448.5t327 -326.5t448 -121q244 0 449 121t326 326.5t121 448.5zM1024 2048q142 0 272.5 -36.5t244 -103.5t207 -160.5t160.5 -207t103.5 -244.5t36.5 -272t-36.5 -272
t-103.5 -244.5t-160.5 -207t-207 -160.5t-244.5 -103.5t-272 -36.5t-272 36.5t-245 103.5t-207.5 160.5t-160 207t-103 244.5t-36.5 272t36.5 272t103 244.5t160 207t207.5 160.5t244.5 103.5t272.5 36.5zM1313 1248h-583v-645l166 165l65 -65l-277 -278l-273 277l66 66
l160 -165v741h337v320h96v-320h336v-741l166 165l65 -65l-277 -278l-274 277l67 66l160 -165v645z" />
    <glyph glyph-name="uniE121" unicode="&#xe183;" 
d="M1024 896h384v-128h-512v640h128v-512zM1024 1664q-159 0 -298.5 -60.5t-244 -165t-165 -244t-60.5 -298.5t60.5 -298.5t165 -244t244 -165t298.5 -60.5t298.5 60.5t244 165t165 244t60.5 298.5t-60.5 298.5t-165 244t-244 165t-298.5 60.5zM1024 0q-124 0 -238.5 32
t-214 90.5t-181 140t-140 181t-90.5 214t-32 238.5t32 238.5t90.5 214t140 181t181 140t214 90.5t238.5 32t238.5 -32t214 -90.5t181 -140t140 -181t90.5 -214t32 -238.5t-32 -238.5t-90.5 -214t-140 -181t-181 -140t-214 -90.5t-238.5 -32z" />
    <glyph glyph-name="uniE184" unicode="&#xe184;" 
d="M258 505l-82 -328l329 81q-20 92 -86 160t-161 87zM1316 111h-394q-26 1 -44 19t-19 44q1 26 19 44t44 19h394q56 0 104 28t76 76t28 100t-26 116t-73 102q-39 16 -39 50q0 35 18 53t50 18q30 0 78 -51t84 -129q34 -78 34 -162t-45 -160q-45 -77 -121 -122t-168 -45z
M1408 1702l-1082 -1081q105 -35 182 -111t112 -183l1081 1082zM1920 1713q0 85 -62 147t-146 61q-68 0 -118 -37q-22 -16 -50 -46t-45 -45l293 -293l48 46q53 53 67 90q13 37 13 77zM935 1596q1 -26 -19 -44t-44 -19q-24 0 -44 19l-109 108q-64 64 -64 146t39 137
q8 21 30 37q87 65 170 65t119 -15q58 -24 58 -59q-1 -35 -19 -53t-37 -18t-47 10t-66 9q-36 -1 -52 -9l-24 -12q-6 -4 -10 -7l-15 -16q-21 -22 -21 -60t28 -66l109 -108q18 -19 18 -45zM2048 1714q0 -140 -98 -238l-1317 -1317l-633 -158l158 632l1317 1318q98 98 240 98
q66 0 128 -27q124 -54 178 -178q27 -62 27 -130z" />
    <glyph glyph-name="uniE185" unicode="&#xe185;" 
d="M1536 256v128h256v-128h-256zM1920 1024h-513l1 -896h513zM0 384v640h384v-640h-384zM2048 1024v-896q0 -73 -64 -111q-29 -17 -63 -17h-514q-73 0 -110 64q-17 30 -17 64v896q0 73 64 111q29 17 63 17h514q73 0 110 -64q17 -30 17 -64zM1536 1536h384v-256h-384v256z
M512 384v1152h384v-1152h-384zM1152 1024v-640h-128v1664h384v-768q-69 0 -128 -34q-60 -34 -94 -94q-34 -59 -34 -128z" />
    <glyph glyph-name="uniE186" unicode="&#xe186;" 
d="M1174 1150l-196 534q-11 25 -20 68h-4q-4 -26 -9 -39t-11 -29l-194 -534h434zM1536 640h-162l-152 384h-530l-142 -384h-164l498 1280h152z" />
    <glyph glyph-name="uniE187" unicode="&#xe187;" 
d="M0 384h1920v-512h-1920v512z" />
    <glyph glyph-name="uniE1C3" unicode="&#xe1c3;" 
d="M320 1664q-10 0 -24 -18t-32 -46q-23 -36 -72 -137q-50 -101 -57 -154t-7 -93t15 -75t41 -61t61 -41t75 -15t75 15t61 41q56 56 56 151t-42 186q-76 166 -126 229q-14 18 -24 18zM104 1574q30 56 52 98q60 120 165 120q111 0 180 -153q17 -40 39 -82q59 -115 80 -174
q20 -60 20 -142q0 -139 -73 -228t-183 -111v-390h-128v390q-109 21 -183 111q-73 89 -73 230t104 331zM2048 384v-128h-2048v128h2048zM1024 640h128v384h512v-384h128v549l-384 384l-384 -384v-549zM1920 512h-384v384h-256v-384h-384v549l-35 -34l-90 90l637 638l637 -638
l-90 -90l-35 34v-549z" />
    <glyph glyph-name="uniE1C9" unicode="&#xe1c9;" 
d="M896 384h256v-128h-256v128zM1536 1920h-1024v-1792h1024v1792zM1536 2048q53 0 90.5 -37.5t37.5 -90.5v-1792q0 -53 -37.5 -90.5t-90.5 -37.5h-1024q-53 0 -90.5 37.5t-37.5 90.5v1792q0 53 37.5 90.5t90.5 37.5h1024z" />
    <glyph glyph-name="uniE1C9" unicode="&#xe8ea;" 
d="M896 384h256v-128h-256v128zM1536 1920h-1024v-1792h1024v1792zM1536 2048q53 0 90.5 -37.5t37.5 -90.5v-1792q0 -53 -37.5 -90.5t-90.5 -37.5h-1024q-53 0 -90.5 37.5t-37.5 90.5v1792q0 53 37.5 90.5t90.5 37.5h1024z" />
    <glyph glyph-name="uniE1C9" unicode="&#xe25a;" 
d="M896 384h256v-128h-256v128zM1536 1920h-1024v-1792h1024v1792zM1536 2048q53 0 90.5 -37.5t37.5 -90.5v-1792q0 -53 -37.5 -90.5t-90.5 -37.5h-1024q-53 0 -90.5 37.5t-37.5 90.5v1792q0 53 37.5 90.5t90.5 37.5h1024z" />
    <glyph glyph-name="uniE1D0" unicode="&#xe1d0;" 
d="M1280 256v128h128v-128h-128zM896 256v128h128v-128h-128zM640 384v-128h-128v128h128zM1280 640v128h128v-128h-128zM896 640v128h128v-128h-128zM640 768v-128h-128v128h128zM1280 1024v128h128v-128h-128zM896 1024v128h128v-128h-128zM640 1152v-128h-128v128h128z
M1280 1536v128h-640v-128h640zM1408 1792v-384h-896v384h896zM1536 128v1792h-1152v-1792h1152zM256 2048h1408v-2048h-1408v2048z" />
    <glyph glyph-name="uniE1D0" unicode="&#xe8ef;" 
d="M1280 256v128h128v-128h-128zM896 256v128h128v-128h-128zM640 384v-128h-128v128h128zM1280 640v128h128v-128h-128zM896 640v128h128v-128h-128zM640 768v-128h-128v128h128zM1280 1024v128h128v-128h-128zM896 1024v128h128v-128h-128zM640 1152v-128h-128v128h128z
M1280 1536v128h-640v-128h640zM1408 1792v-384h-896v384h896zM1536 128v1792h-1152v-1792h1152zM256 2048h1408v-2048h-1408v2048z" />
    <glyph glyph-name="uniE1D8" unicode="&#xe1d8;" 
d="M1792 1280v-128h-640v640h128v-421l675 674l90 -90l-674 -675h421zM256 768v128h640v-640h-128v421l-675 -674l-90 90l674 675h-421z" />
    <glyph glyph-name="uniE1DF" unicode="&#xe1df;" 
d="M1622 128q122 0 210 72.5t88 183.5h128q0 -165 -124.5 -274.5t-289.5 -109.5t-245 68t-109 111v-179h-128v384h384v-128h-153q41 -62 108 -95t131 -33zM2048 896v-384h-384v128h153q-41 62 -108 95t-131 33q-123 0 -210.5 -72.5t-87.5 -183.5h-128q0 165 124.5 274.5
t289.5 109.5t245 -68t109 -111v179h128zM1664 1920v-677l64 -65l64 65v677h-128zM256 128h768v-128h-896v2048h1792v-859l-192 -191l-192 191v731h-1280v-1792z" />
    <glyph glyph-name="uniE1DF" unicode="&#xe8f7;" 
d="M1622 128q122 0 210 72.5t88 183.5h128q0 -165 -124.5 -274.5t-289.5 -109.5t-245 68t-109 111v-179h-128v384h384v-128h-153q41 -62 108 -95t131 -33zM2048 896v-384h-384v128h153q-41 62 -108 95t-131 33q-123 0 -210.5 -72.5t-87.5 -183.5h-128q0 165 124.5 274.5
t289.5 109.5t245 -68t109 -111v179h128zM1664 1920v-677l64 -65l64 65v677h-128zM256 128h768v-128h-896v2048h1792v-859l-192 -191l-192 191v731h-1280v-1792z" />
    <glyph glyph-name="uniE248" unicode="&#xe248;" 
d="M1152 1536q154 0 294 -58t249 -167t167 -249t58 -270t-27.5 -228t-103.5 -227.5t-252.5 -233t-384.5 -103.5v128q263 0 451.5 187t188.5 475q0 110 -50.5 226.5t-137.5 203.5t-203.5 137.5t-248.5 50.5h-821l426 -427l-74 -74l-566 565l566 565l74 -74l-426 -427h821z
" />
    <glyph glyph-name="uniE248" unicode="&#xe97a;" 
d="M1152 1536q154 0 294 -58t249 -167t167 -249t58 -270t-27.5 -228t-103.5 -227.5t-252.5 -233t-384.5 -103.5v128q263 0 451.5 187t188.5 475q0 110 -50.5 226.5t-137.5 203.5t-203.5 137.5t-248.5 50.5h-821l426 -427l-74 -74l-566 565l566 565l74 -74l-426 -427h821z
" />
    <glyph glyph-name="uniE2F6" unicode="&#xe2f6;" 
d="M1536 2048v-768h384q52 0 91 -37q37 -39 37 -91v-896h-512v-256h-1024v256h-512v896q0 52 38 90t90 38h384v768h1024zM1408 1920h-768v-640h768v640zM1536 384h384v768h-1792v-768h384v384h1024v-384zM256 960q0 26 19 45t45 19t45 -19t19 -45t-19 -45t-45 -19t-45 19
t-19 45zM640 128h768v512h-768v-512z" />
    <glyph glyph-name="uniE700" unicode="&#xe700;" 
d="M2048 1536v-128h-2048v128h2048zM2048 1024v-127h-2048v127h2048zM2048 512v-128h-2048v128h2048z" />
    <glyph glyph-name="uniE70D" unicode="&#xe70d;" 
d="M108 1581l915 -915l915 915l90 -90l-1005 -1005l-1005 1005z" />
    <glyph glyph-name="uniE70E" unicode="&#xe70e;" 
d="M2045 605l-90 -90l-931 930l-931 -930l-90 90l1021 1022z" />
    <glyph glyph-name="uniE70F" unicode="&#xe70f;" 
d="M2048 1712q0 -138 -98 -237l-1317 -1317l-633 -158l158 633l1317 1317q99 98 237 98t238 -98q98 -100 98 -238zM1920 1714q0 84 -61 145t-147 61t-166 -80l-47 -48l293 -293l48 47q52 48 66 88t14 80zM1701 1408l-293 293l-1082 -1081q106 -35 182.5 -111.5t111.5 -182.5
zM505 258q-32 145 -117 191t-130 56l-82 -329z" />
    <glyph glyph-name="uniE710" unicode="&#xe710;" 
d="M1088 1088h960v-128h-960v-960h-128v960h-960v128h960v960h128v-960z" />
    <glyph glyph-name="uniE712" unicode="&#xe712;" 
d="M254 896q-54 0 -90 37t-37 91t37 91t90 37t92 -37q38 -39 38 -91t-38 -90t-92 -38zM1022 896q-54 0 -90 37t-37 91t37 91t90 37t92 -37q38 -39 38 -91t-38 -90t-92 -38zM1790 896q-54 0 -90 37t-37 91t37 91t90 37t92 -37q38 -39 38 -91t-38 -90t-92 -38z" />
    <glyph glyph-name="uniE713" unicode="&#xe713;" 
d="M1024 264q-12 0 -18 1h-18l-161 -259l-383 159l68 297q-26 24 -50 50l-297 -68l-159 383l259 161v18q-1 6 -1 18t1 18v18l-259 161l159 383l297 -68q24 26 50 50l-68 297l383 159l161 -259q12 0 18 1h36q6 -1 18 -1l161 259l383 -159l-68 -297q26 -24 50 -50l297 68
l159 -383l-259 -161q0 -12 1 -18v-36q-1 -6 -1 -18l259 -161l-159 -383l-297 68q-24 -26 -50 -50l68 -297l-383 -159l-161 259h-18q-6 -1 -18 -1zM1672 1032q0 24 -6 87l236 147l-86 208l-271 -63q-52 65 -134 134l63 271l-208 86l-148 -236q-62 6 -86 6t-55 -2l-48 -4
l-147 236l-208 -86l63 -271q-65 -52 -134 -134l-271 63l-86 -208l236 -148l-4 -47q-2 -32 -2 -56t6 -86l-236 -147l86 -208l271 63q52 -65 134 -134l-63 -271l208 -86l148 236q62 -6 86 -6t56 2l47 4l147 -236l208 86l-63 271q65 52 134 134l271 -63l86 208l-236 148l4 48
q2 30 2 54zM1024 1400q77 0 145.5 -29t120.5 -81t81 -120.5t29 -145.5t-29 -145.5t-81 -120.5t-120.5 -81t-145.5 -29t-145.5 29t-120.5 81t-81 120.5t-29 145.5t29 145.5t81 120.5t120.5 81t145.5 29zM1024 760q54 0 102 20t85 57t57 85t20 102t-20 102t-57 85t-85 57
t-102 20t-102 -20t-85 -57t-57 -85t-20 -102t20 -102t57 -85t85 -57t102 -20z" />
    <glyph glyph-name="uniE715" unicode="&#xe715;" 
d="M2048 384h-2048v1280h2048v-1280zM143 1536l881 -441l881 441h-1762zM128 512h1792v888l-896 -447l-896 447v-888z" />
    <glyph glyph-name="uniE718" unicode="&#xe718;" 
d="M2048 1536v-896h-64q-156 0 -255 128h-494q-56 -120 -165 -188t-238 -68h-64v512h-640l-128 64l128 64h640v512h64q129 0 238 -68t165 -188h494q99 128 255 128h64zM1800 896q30 -49 54 -76t66 -41v618q-41 -13 -66 -41t-54 -76h-653l-15 43q-28 79 -91 134t-145 72v-882
q82 17 145 72t91 134l15 43h653z" />
    <glyph glyph-name="uniE719" unicode="&#xe719;" 
d="M1535 1664v-128h256v-1280q0 -105 -75.5 -180.5t-180.5 -75.5h-1152q-104 0 -180 76t-76 180v1280h256v128q0 158 113 271t271 113q105 0 193 -52q88 52 178 52q171 0 284 -113t113 -271zM511 1664v-128h512v128q0 106 -74.5 181t-180.5 75t-181.5 -75.5t-75.5 -180.5z
M1151 1639v-103h256v128q0 106 -75 181t-181 75q-44 0 -85 -15q85 -104 85 -266zM383 128h930q-34 59 -34 128v1152h-1024v-1152q0 -54 37 -91t91 -37zM1663 1408h-256v-1152q1 -54 37 -91t90 -37t92 38t37 90v1152z" />
    <glyph glyph-name="uniE71B" unicode="&#xe71b;" 
d="M960 768h-64v128q169 0 268 74q116 82 116 230t-94 242t-226 94h-512q-132 0 -226 -94t-94 -242t116 -230q99 -74 268 -74v-128h-64q-186 0 -317 131t-131 316t132 317t316 132h512q186 0 317 -131t131 -316t-132 -317t-316 -132zM1600 384h-512q-186 0 -317 131
t-131 316t132 317t316 132h64v-128q-164 0 -274 -79t-110 -225t95 -241t225 -95h512q132 0 226 94t94 241t-109 226t-275 79v128h64q186 0 317 -131t131 -316t-132 -317t-316 -132z" />
    <glyph glyph-name="uniE71C" unicode="&#xe71c;" 
d="M0 1920h2048v-219l-768 -768v-805h-512v805l-768 768v219zM1152 256v731l768 768v37h-1792v-37l768 -768v-731h256z" />
    <glyph glyph-name="uniE721" unicode="&#xe721;" 
d="M640 1344q0 291 169 460t304.5 206.5t328.5 37.5t362 -169t206.5 -304.5t37.5 -328.5t-169 -362t-304.5 -206.5t-230.5 -37.5q-250 0 -450 163l-785 -784q-19 -19 -45 -19t-45 19t-19 45t19 45l784 785q-163 200 -163 450zM1344 768q117 0 222 44.5t185 124.5t124.5 185
t44.5 222t-44.5 222t-124.5 185t-185 124.5t-222 44.5t-222 -44.5t-185 -124.5t-124.5 -185t-44.5 -222t44.5 -222t124.5 -185t185 -124.5t222 -44.5z" />
    <glyph glyph-name="uniE724" unicode="&#xe724;" 
d="M11 1765l2031 -677l-2031 -677l226 677zM1446 1152l-1233 411l137 -411h1096zM1446 1024h-1096l-137 -411z" />
    <glyph glyph-name="uniE72A" unicode="&#xe72a;" 
d="M0 960v128h1798l-787 787l90 90l941 -941l-941 -941l-90 90l787 787h-1798z" />
    <glyph glyph-name="uniE72B" unicode="&#xe72b;" 
d="M2048 1088v-128h-1798l787 -787l-90 -90l-941 941l941 941l90 -90l-787 -787h1798z" />
    <glyph glyph-name="uniE72C" unicode="&#xe72c;" 
d="M2048 1040q0 -292 -138 -529t-373 -374t-513 -137t-514 137t-373 373t-137 515t142 519t388 376h-274v128h512v-512h-128v297q-236 -114 -374 -333t-138 -467.5t120 -454.5t326 -328t449 -122t451 123t326 325q120 202 120 448q0 299 -184 541.5t-473 321.5l34 123
q163 -44 302 -139t239 -227t155 -291t55 -313z" />
    <glyph glyph-name="uniE72D" unicode="&#xe72d;" 
d="M1280 1152h128v-203l395 395l-395 395v-203q-157 0 -212 -6q-209 -21 -368 -139q-242 -182 -300 -465q339 226 752 226zM1280 1024q-384 0 -704 -222q-104 -72 -192 -162v128q0 244 121 449t326 326t449 121v384l704 -704l-704 -704v384zM1536 256h-1536v1280h128v-1152
h1280v128l128 128v-384z" />
    <glyph glyph-name="uniE72E" unicode="&#xe72e;" 
d="M1535 1526v-374h256v-1152h-1536v1152h256v374q0 218 147 370t365 152t365 -152t147 -370zM639 1526v-374h768v374q0 162 -110 278t-274 116t-274 -116t-110 -278zM383 128h1280v896h-1280v-896z" />
    <glyph glyph-name="uniE72F" unicode="&#xe72f;" 
d="M0 1280v512q372 0 577 132q112 72 196.5 98t186.5 26t184 -26t196 -98q209 -132 580 -132v-512q0 -527 -499 -956q-187 -161 -461 -321q-598 349 -817 739q-143 255 -143 538zM128 1280q0 -452 435 -844q165 -150 397 -285q505 294 707 663q125 227 125 466v386
q-310 16 -548 169q-133 85 -284 85t-279 -82q-244 -156 -553 -172v-386zM1244 736l-284 284l-286 -286l-68 68l286 286l-286 286l68 68l286 -286l286 286l68 -68l-286 -286l284 -284z" />
    <glyph glyph-name="uniE731" unicode="&#xe731;" 
d="M895 128h-512v1792h1152v-1792h-512v512h-128v-512zM1151 768v-512h256v1536h-896v-1536h256v512h384zM639 1408v256h128v-256h-128zM895 1408v256h128v-256h-128zM1151 1408v256h128v-256h-128zM639 1024v256h128v-256h-128zM895 1024v256h128v-256h-128zM1151 1024v256
h128v-256h-128z" />
    <glyph glyph-name="uniE734" unicode="&#xe734;" 
d="M1264 1280h784l-632 -486l248 -794l-640 492l-640 -492l248 794l-632 486h784l240 768zM627 348l397 306l397 -306l-21 68q-103 332 -133 425q69 51 203 155l202 156h-502l-146 467l-146 -467h-502l202 -156q134 -104 203 -155q-30 -93 -133 -425z" />
    <glyph glyph-name="uniE00A" unicode="&#xe735;" 
d="M2048 1280l-632 -486l248 -794l-640 492l-640 -492l248 794l-632 486h784l240 768l240 -768h784z" />
    <glyph glyph-name="uniE739" unicode="&#xe739;" 
d="M2048 0h-2048v2048h2048v-2048zM128 1920v-1792h1792v1792h-1792z" />
    <glyph glyph-name="uniE73A" unicode="&#xe73a;" 
d="M2048 0h-2048v2048h2048v-2048zM128 1920v-1792h1792v1792h-1792zM1709 1363l-941 -942l-429 430l90 90l339 -338l851 850z" />
    <glyph glyph-name="uniE73B" unicode="&#xe73b;" 
d="M0 0v2048h2048v-2048h-2048z" />
    <glyph glyph-name="uniE73C" unicode="&#xe73c;" 
d="M511 512v1024h1024v-1024h-1024z" />
    <glyph glyph-name="uniE73D" unicode="&#xe73d;" 
d="M2048 0h-2048v2048h2048v-2048zM429 941l-90 -90l429 -430l941 942l-90 90l-851 -850z" />
    <glyph glyph-name="uniE73E" unicode="&#xe73e;" 
d="M767 603l979 978l90 -90l-1069 -1070l-557 558l90 90z" />
    <glyph glyph-name="uniE74A" unicode="&#xe74a;" 
d="M1087 0h-128v1798l-787 -787l-90 90l941 941l941 -941l-90 -90l-787 787v-1798z" />
    <glyph glyph-name="uniE74B" unicode="&#xe74b;" 
d="M959 2048h128v-1798l787 787l90 -90l-941 -941l-941 941l90 90l787 -787v1798z" />
    <glyph glyph-name="uniE74C" unicode="&#xe74c;" 
d="M1791 1024v-896h-1664v1664h896v-192l448 448l576 -576l-448 -448h192zM1471 1054l418 418l-418 418l-418 -418zM895 1024v640h-640v-640h640zM1023 1024h320l-320 320v-320zM255 896v-640h640v640h-640zM1023 256h640v640h-640v-640z" />
    <glyph glyph-name="uniE74D" unicode="&#xe74d;" 
d="M1279 1792h512v-128h-128v-1472q0 -80 -56 -136t-136 -56h-1024q-80 0 -136 56t-56 136v1472h-128v128h512v128q-1 52 37 90t91 38h384q52 0 91 -37q37 -39 37 -91v-128zM1151 1920h-384v-128h384v128zM1471 128q26 0 45 19t19 45v1472h-1152v-1472q0 -26 19 -45t45 -19
h1024zM639 1408h128v-1024h-128v1024zM895 1408h128v-1024h-128v1024zM1151 1408h128v-1024h-128v1024z" />
    <glyph glyph-name="uniE74E" unicode="&#xe74e;" 
d="M255 1920h1536q52 0 91 -37q37 -39 37 -91v-1664h-1563l-229 230v1434q-1 52 37 90t91 38zM1407 256h384v1536h-128v-768h-1280v768h-128v-1381l154 -155h102v512h896v-512zM1535 1792h-1024v-640h1024v640zM895 256h384v384h-640v-384h128v256h128v-256z" />
    <glyph glyph-name="uniE75C" unicode="&#xe75c;" 
d="M128 656q0 -21 14 -35l364 -365h427l128 128l-613 614l-306 -307q-14 -14 -14 -35zM1248 1798l-710 -710l614 -613l709 709zM1536 256v-128h-1083l-403 404q-50 50 -50 124t51 125l1197 1198l794 -795l-927 -928h421z" />
    <glyph glyph-name="uniE760" unicode="&#xe760;" 
d="M1028 1920q240 0 445 -120t325 -326t120.5 -445.5t-119 -445t-325.5 -325.5t-446 -120t-445 120t-325 326t-120.5 445.5t119 445t325.5 325.5t446 120zM1079.5 266q154.5 0 333.5 105q269 158 323.5 356.5t54.5 353t-104 333.5q-160 269 -358 323.5t-352.5 54.5
t-329.5 -102t-279 -278t-103.5 -382.5t105.5 -385.5q158 -268 356.5 -323t353 -55zM676 1024l462 461l90 -90l-370 -371l370 -371l-90 -90z" />
    <glyph glyph-name="uniE761" unicode="&#xe761;" 
d="M1028 1920q240 0 445 -120t325 -326t120.5 -445.5t-119 -445t-325.5 -325.5t-446 -120t-445 120t-325 326t-120.5 445.5t119 445t325.5 325.5t446 120zM976.5 1792q-154.5 0 -329.5 -102t-279 -278t-103.5 -382.5t105.5 -385.5q158 -268 356.5 -323t353 -55t333.5 105
q269 158 323.5 356.5t54.5 353t-104 333.5q-160 269 -358 323.5t-352.5 54.5zM940 1485l461 -461l-461 -461l-90 90l370 371l-370 371z" />
    <glyph glyph-name="uniE00E.002" unicode="&#xe76b;" 
d="M1533 93l-90 -90l-1022 1021l1022 1021l90 -90l-930 -931z" />
    <glyph glyph-name="uniE76E" unicode="&#xe76e;" 
d="M1024 2048q276 0 512 -138t374 -374t138 -512t-138 -513t-373 -374t-513 -137t-514 137t-373 373t-137 514t137 513t374 373t513 138zM1023 1920q-243 0 -447 -120t-326 -328t-122 -448t120 -446t326 -328t449 -122t451 123t326 325q120 202 120 446t-121 450t-327 327
t-449 121zM768 1280q0 -52 -38 -90t-91 -38t-90 37t-37 91t38 91t90 37t91 -37q37 -39 37 -91zM1536 1280q0 -52 -38 -90t-91 -38t-90 37t-37 91t38 91t90 37t91 -37q37 -39 37 -91zM1024 384q-180 0 -334 95t-237 260l115 58q68 -133 190 -209t266 -76t266 76t190 209
l115 -58q-127 -252 -304 -303.5t-267 -51.5z" />
    <glyph glyph-name="uniE76F" unicode="&#xe76f;" 
d="M2048 1152h-2048v128h2048v-128zM2048 896v-128h-2048v128h2048z" />
    <glyph glyph-name="uniE774" unicode="&#xe774;" 
d="M1024 2048q276 0 512 -138t374 -374t138 -512t-138 -513t-373 -374t-513 -137t-514 137t-373 373t-137 514t137 513t374 373t513 138zM1024 1920q-90 0 -162 -88q-127 -156 -183 -424h690q-56 268 -183 424q-72 88 -162 88zM548 1408q57 287 183 463q-169 -59 -305 -181
t-211 -282h333zM1317 1871q126 -177 183 -463h333q-75 160 -211 282t-305 181zM128 1024q0 -135 37 -256h363q-16 124 -16 256t16 256h-363q-37 -121 -37 -256zM640 1024q0 -125 17 -256h734q17 131 17 256t-17 256h-734q-17 -131 -17 -256zM1920 1024q0 135 -37 256h-363
q16 -124 16 -256t-16 -256h363q37 121 37 256zM731 177q-126 175 -183 463h-333q75 -160 211 -282t305 -181zM1024 128q90 0 162 88q127 156 183 424h-690q56 -268 183 -424q72 -88 162 -88zM1500 640q-57 -287 -183 -463q169 59 305 181t211 282h-333z" />
    <glyph glyph-name="uniE77A" unicode="&#xe77a;" 
d="M1281 1706q0 -46 21 -111l-492 -491l-19 8q-54 21 -86 30t-85 9q-116 0 -207 -65l483 -483v-182l-192 193l-568 -569l-136 -45l45 136l569 568l-386 386l45 45q144 144 353 144q74 0 154 -25l379 379q-6 32 -6 65q0 126 54.5 190t92.5 102l690 -690q-78 -78 -140 -112
t-152 -35q-33 0 -65 6l-134 -135h-182l278 278q65 -21 111 -21t96 26l-495 495q-26 -50 -26 -96zM1472 896q91 0 173 -34.5t144 -96.5t96.5 -144t34.5 -173t-34.5 -173t-96.5 -144t-144 -96.5t-173 -34.5t-173 34.5t-144 96.5t-96.5 144t-34.5 173t34.5 173t96.5 144
t144 96.5t173 34.5zM1456 768q-81 0 -160 -53l443 -443q53 79 53 160t-25 139.5t-69 102.5t-102.5 69t-139.5 25zM1152 464q0 -148 94 -242t226 -94q97 0 176 53l-443 443q-53 -79 -53 -160z" />
    <glyph glyph-name="uniE77B" unicode="&#xe77b;" 
d="M1919 0h-128q0 328 -220 548t-548 220q-211 0 -387 -101t-278 -279t-103 -388h-128q0 288 161.5 518t430.5 326q-155 83 -245 236t-90 306t48.5 269.5t137.5 205.5t205.5 138t315 49t385.5 -187t187 -455t-129 -394t-205 -167q273 -96 431.5 -326.5t158.5 -518.5z
M1022.5 896q211.5 0 362 150.5t150.5 362t-150 361.5t-361.5 150t-362 -150.5t-150.5 -362t150 -361.5t361.5 -150z" />
    <glyph glyph-name="uniE77F" unicode="&#xe77f;" 
d="M1663 1792v-512h256v-1280h-1024v128h-768v1664h512q0 105 75.5 180.5t181.5 75.5t180.5 -75t74.5 -181h512zM895 1920q-129 0 -129 -165l1 -91h-256v-128h768v128h-256q-1 34 1 76q6 180 -129 180zM255 1664v-1408h640v1024h640v384h-128v-256h-1024v256h-128zM1023 128
h768v1024h-768v-1024z" />
    <glyph glyph-name="uniE783" unicode="&#xe783;" 
d="M1920 1088q0 -260 -129 -482t-349 -350t-482 -128t-482 129t-349 349t-129 482t128 482t350 349t482 129t481 -129t350 -350t129 -481zM960 256q224 0 416 112t304 304t112 416t-112 416t-304 304t-416 112t-416 -112t-304 -304t-112 -416t112 -416t304 -304t416 -112z
M1024 896h-128v640h128v-640zM1024 640h-128v128h128v-128z" />
    <glyph glyph-name="uniE786" unicode="&#xe786;" 
d="M2048 256h-2048v1536h2048v-1536zM128 1664v-1280h1792v1280h-1792zM256 512v1024h1536v-1024h-1536zM384 1408v-768h1280v768h-1280zM1280 1024l-512 -256v512zM864 923l201 101l-201 101v-202z" />
    <glyph glyph-name="uniE787" unicode="&#xe787;" 
d="M1536 2048h128v-128h384v-1792h-2048v1792h384v128h128v-128h1024v128zM512 1664h-128v128h-256v-256h1792v256h-256v-128h-128v128h-1024v-128zM1920 1408h-1792v-1152h1792v1152zM896 1280v-128h-128v128h128zM1280 1280v-128h-128v128h128zM1664 1280v-128h-128v128
h128zM512 1024v-128h-128v128h128zM896 1024v-128h-128v128h128zM1280 1024v-128h-128v128h128zM1664 1024v-128h-128v128h128zM512 768v-128h-128v128h128zM896 768v-128h-128v128h128zM1280 768v-128h-128v128h128zM1664 768v-128h-128v128h128zM512 512v-128h-128v128
h128zM896 512v-128h-128v128h128zM1280 512v-128h-128v128h128z" />
    <glyph glyph-name="uniE792" unicode="&#xe792;" 
d="M639 768h128v-256h128l-128 -128h-475l-165 165v1243q-1 52 37 90t91 38h1280q52 0 91 -37q37 -39 37 -91v-512l-128 -128v640h-128v-640h-1024v640h-128v-1189l91 -91h37v512h896v-128l-128 -128v128h-640v-384h128v256zM1279 1792h-768v-512h768v512zM1848 1152
q85 0 142 -57t57 -141t-58 -141l-717 -717l-377 -94l94 377l717 716q57 57 142 57zM1919 954q0 30 -20.5 50t-51.5 20t-50 -19l-692 -692l-34 -135l135 34l692 691q21 21 21 51z" />
    <glyph glyph-name="uniE7A6" unicode="&#xe7a6;" 
d="M1791 1408h-640v128h421q-52 52 -128 132q-151 159 -294 216q-84 32 -195 32t-215 -44.5t-228.5 -169t-124.5 -358.5t165 -398l836 -837l-90 -90l-837 836q-97 97 -149.5 224.5t-52.5 264.5q0 188 95 349t256.5 256t331.5 95t286 -53t202 -132t131 -127t102 -105v421h128
v-640z" />
    <glyph glyph-name="uniE7A7" unicode="&#xe7a7;" 
d="M1787 1344q0 -137 -52.5 -264.5t-149.5 -224.5l-837 -836l-90 90l836 837q165 164 165 398t-169 403t-411 169t-377.5 -143t-227.5 -237h421v-128h-640v640h128v-421l106 109q109 112 211 188q164 120 370 120t366.5 -95t255.5 -256t95 -349z" />
    <glyph glyph-name="uniE7AA" unicode="&#xe7aa;" 
d="M1792 1920v-256h256v-1408h-1792v256h-256v1408h1792zM1664 1792h-1536v-1152h1536v1152zM1536 768h-1280v896h1280v-896zM1408 1536h-1024v-293l192 191l336 -335l176 175l320 -319v581zM384 384h1536v1152h-128v-1024h-1408v-128zM1280 1344q0 -26 -19 -45t-45 -19
t-45 19t-19 45t19 45t45 19t45 -19t19 -45zM384 896h549l-357 358l-192 -193v-165zM1088 1093l-86 -85l113 -112h171z" />
    <glyph glyph-name="uniE7AD" unicode="&#xe7ad;" 
d="M1792 128v-128h-512v512h128v-297q232 107 372 329t140 473t-121 455t-327 326t-449 122t-447 -120t-326 -328t-122 -448q0 -299 184 -541.5t473 -321.5l-34 -123q-331 89 -541 365t-210 621q0 278 137 513t374 373t513 138t512 -138t374 -374t138 -512.5t-144 -520.5
t-386 -375h274zM1024 1280q52 0 98.5 -19.5t82.5 -55.5t55.5 -82.5t19.5 -98.5t-19.5 -98.5t-55.5 -82.5t-82.5 -55.5t-98.5 -19.5t-98.5 19.5t-82.5 55.5t-55.5 82.5t-19.5 98.5t19.5 98.5t55.5 82.5t82.5 55.5t98.5 19.5zM1024 1152q-52 0 -90 -38t-38 -91t37 -90t91 -37
t91 38t37 90t-37 91q-39 37 -91 37z" />
    <glyph glyph-name="uniE7B9" unicode="&#xe7b9;" 
d="M255 1216v384q0 80 56 136t136 56q30 0 57 -9q90 123 226 194t280 71q278 0 465.5 -187t187.5 -453q0 -175 -92 -328t-246 -236q273 -104 433 -330t161 -514h-128q0 156 -59.5 296t-165.5 247q-107 106 -247 165.5t-296 59.5t-296.5 -60t-246.5 -166t-165.5 -246
t-59.5 -296h-128q0 288 161 514t433 330q-124 68 -210 180q-256 0 -256 192zM959 1152q26 0 45 -19t19 -45t-19 -45t-45 -19h-275q146 -128 348 -128t352.5 150.5t150.5 362t-150 361.5t-362 150q-123 0 -233 -57t-183 -157q39 -60 39 -268l-7 -286h320zM447 1664
q-26 0 -45 -19t-19 -45v-384q0 -26 19 -45t45 -19h64v448q0 26 -19 45t-45 19z" />
    <glyph glyph-name="uniE7BA" unicode="&#xe7ba;" 
d="M1920 128h-1920l960 1920zM207 256h1506l-753 1506zM1024 640h-128v640h128v-640zM1024 512v-128h-128v128h128z" />
    <glyph glyph-name="uniE7BB" unicode="&#xe7bb;" 
d="M1536 1664v128h512v-512h-128v293l-576 -575l-384 384l-960 -961v182l960 959l384 -384l485 486h-293zM1920 1152v-1152h-128v1152h128zM896 0h-128v960l128 128v-1088zM1152 1h-128v1087l128 -128v-959zM1664 0h-128v960l128 128v-1088zM640 0h-128v704l128 128v-832z
M1408 0h-128v832l64 -64l64 64v-832zM384 0h-128v448l128 128v-576zM128 0h-128v192l128 128v-320z" />
    <glyph glyph-name="uniE7C1" unicode="&#xe7c1;" 
d="M255 2048h896v-256h768v-1024h-896v256h-640v-1024h-128v2048zM1023 1920h-640v-768h640v768zM1151 1664v-768h640v768h-640z" />
    <glyph glyph-name="uniE7C3" unicode="&#xe7c3;" 
d="M255 0v2048h859l677 -677v-1371h-1536zM1023 1920h-640v-1792h1280v1152h-640v640zM1151 1408h421l-421 421v-421z" />
    <glyph glyph-name="uniE7E6" unicode="&#xe7e6;" 
d="M0 1536v512h128v-384h1792v384h128v-512q-299 0 -344 -179t-45 -343l5 -246h-256v-384l-768 -384v768h-256l5 249q0 153 -24 260q-62 259 -365 259zM514 1098q0 -70 -1 -101l-1 -101h1024q0 61 -2 175v31q0 167 53 291q31 74 100 143h-1326q153 -156 153 -438zM1280 768
h-512v-561l512 256v305z" />
    <glyph glyph-name="uniE7E9" unicode="&#xe7e9;" 
d="M1792 128v1408h-256v-1152h-896v-256h1152zM256 1920v-1408h1152v1408h-1152zM1536 1664h384v-1664h-1408v384h-384v1664h1408v-384z" />
    <glyph glyph-name="uniE7F4" unicode="&#xe7f4;" 
d="M0 1792h1920v-1152h-896v-128h256v-128h-640v128h256v128h-896v1152zM1792 768v896h-1664v-896h1664z" />
    <glyph glyph-name="uniE7FE" unicode="&#xe7fe;" 
d="M1024 1152h-128q0 176 86 322t234 232t320 86h165l-146 147l90 90l301 -301l-301 -301l-90 90l146 147h-165q-211 0 -361.5 -150.5t-150.5 -361.5zM1920 384v1024h128v-1152h-1536v256h-256v256h-256v1152h1313q-144 -42 -256 -128h-929v-896h1280v512h64l64 -64v-576
h-1152v-128h1280v640l128 128v-896h-1152v-128h1280z" />
    <glyph glyph-name="uniE810" unicode="&#xe810;" 
d="M1408 2048h128v-1701l211 210l90 -90l-365 -365l-365 365l90 90l211 -210v1701zM640 0h-128v1701l-211 -210l-90 90l365 365l365 -365l-90 -90l-211 210v-1701z" />
    <glyph glyph-name="uniE817" unicode="&#xe817;" 
d="M1370 1024l-731 -731v1462zM767 603l421 421l-421 421v-842z" />
    <glyph glyph-name="uniE818" unicode="&#xe818;" 
d="M1535 512h-987l987 987v-987z" />
    <glyph glyph-name="uniE81C" unicode="&#xe81c;" 
d="M2048 1024q0 -206 -79 -394t-221 -330t-330 -221t-378 -79q-365 0 -639 212t-363 539l123 34q80 -290 320.5 -473.5t542.5 -183.5q243 0 448.5 121t326.5 326.5t121 448.5t-121 448.5t-326.5 326.5t-456.5 121t-471 -139.5t-330 -372.5h297v-128h-512v512h128v-274
q105 198 299 338q270 192 597 192q206 0 394 -79t330 -221t221 -330t79 -394zM1024 1536v-549l365 -366l-90 -90l-403 402v603h128z" />
    <glyph glyph-name="uniE820" unicode="&#xe820;" 
d="M896 896h128v-639q-16 -1 -32 -1h-32h-32t-32 1v639zM640 960q0 -66 88 -64h40v-627q-71 9 -100 24q-28 15 -28 27v168q-282 -44 -371 -140q-13 -14 -13 -31t35 -46t86 -51t111 -37q60 -17 125 -27t127 -16t120 -10q57 -2 100 -2t100 2q58 2 120 10q360 36 471 152
q13 14 13 28q0 39 -106 90t-278 78v-168q0 -27 -99 -46q-21 -4 -29 -5v627h40q88 -2 88 64v512q0 26 -19 45t-45 19h-512q-26 0 -45 -19t-19 -45v-512zM832 1792q0 -27 10 -50q10 -22 28 -40t40 -28q23 -10 50 -10t50 10q22 10 40 28t28 40q10 23 10 50t-10 50
q-10 22 -28 40t-40 28q-23 10 -50 10t-50 -10q-22 -10 -40 -28t-28 -40q-10 -23 -10 -50zM1792 320q0 -88 -96 -158q-223 -163 -736 -162q-398 0 -649 112q-105 47 -155 119q-28 39 -28 89t28 90t71 70q128 91 413 137v162q-90 31 -119 123q-9 28 -9 58v512q0 80 56 136
t136 56h34q-34 60 -34 120t20 108q20 46 55 81t81 55t100 20q106 0 181 -75t75 -181q0 -68 -34 -128h34q80 0 136 -56t56 -136v-512q0 -95 -76 -153q-24 -18 -52 -28v-162q167 -22 299 -76q213 -88 213 -221z" />
    <glyph glyph-name="uniE821" unicode="&#xe821;" 
d="M1408 1792v-128h640v-1280h-2048v1280h640v128q0 52 38 90t90 38h512q52 0 91 -37q37 -39 37 -91zM1280 1792h-512v-128h512v128zM1920 1536h-1792v-185l640 -319v120h512v-120l640 319v185zM128 512h1792v697l-640 -321v-120h-512v120l-640 321v-697zM1152 896v128h-256
v-128h256z" />
    <glyph glyph-name="uniE823" unicode="&#xe823;" 
d="M0 1024q0 278 137 513t374 373t513 138t512 -138t374 -374t138 -512t-138 -513t-373 -374t-513 -137t-514 137t-373 373t-137 514zM128 1024q0 -240 120 -446t328 -328t448.5 -122t448 123t327.5 325t120 446.5t-121 449.5t-323 326q-209 122 -452.5 122t-447.5 -120
t-326 -328t-122 -448zM896 896v768h128v-640h384v-128h-512z" />
    <glyph glyph-name="uniE840" unicode="&#xe840;" 
d="M1727 1153q-62 0 -94 6l-379 -379q25 -74 25 -176q0 -153 -70 -240t-119 -136l-386 386l-568 -569l-136 -45l45 136l569 568l-386 386l45 45q144 144 350 144q83 0 157 -25l379 379q-6 32 -6 65q0 126 54.5 190t92.5 102l690 -690q-78 -78 -140 -112t-123 -35zM1707 1281
q45 0 95 26l-495 495q-26 -50 -26 -95t21 -112l-492 -491l-47 19q-69 28 -140 28q-118 0 -210 -65l673 -673q66 95 66 209q0 68 -29 141l-19 47l491 492q67 -21 112 -21z" />
    <glyph glyph-name="uniE842" unicode="&#xe842;" 
d="M622 1216q87 0 173 -36l433 433q-12 41 -12 91q0 111 83 196l600 -600q-85 -83 -203 -83q-43 0 -84 12l-433 -433q36 -86 36 -172q0 -177 -126 -306l-772 772q128 126 305 126z" />
    <glyph glyph-name="uniE897" unicode="&#xe897;" 
d="M959 2048q239 0 407.5 -168.5t168.5 -390.5t-97.5 -328t-158.5 -163l-21 -19q-112 -106 -153 -162q-82 -113 -82 -241v-192h-128v192q0 207 97 311t159 162l15 14q118 110 159 167q82 115 82 224t-34.5 191t-131 178.5t-282 96.5t-317.5 -132t-131 -316h-128
q0 236 168.5 406t407.5 170zM1023 0h-128v128h128v-128z" />
    <glyph glyph-name="uniE898" unicode="&#xe898;" 
d="M383 1920v128h1152v-128h-1152zM1023 0h-128v1577l-467 -470l-90 90l621 626l621 -626l-90 -90l-467 470v-1577z" />
    <glyph glyph-name="uniE899" unicode="&#xe899;" 
d="M1024 2048q276 0 512 -138t374 -374t138 -512t-138 -513t-373 -374t-513 -137t-514 137t-373 373t-137 514t137 513t374 373t513 138zM1023 1920q-243 0 -447 -120t-326 -328t-122 -448t120 -446t328 -328t448.5 -122t448 123t327.5 325t120 446t-121 450t-327 327
t-449 121zM512 1408q0 52 38 90t90 38t91 -37q37 -39 37 -91h-256zM1280 1408q0 52 38 90t90 38t91 -37q37 -39 37 -91h-256zM576 1280q66 0 118 -16.5t118 -48.5t111 -47.5t101 -15.5t102 16t145 64t190 48t147 -56t56 -136v-64q0 -266 -187 -453t-453 -187t-453 187
t-187 448t192 261zM1536 1088q0 64 -77 64t-175 -51t-153.5 -64t-135.5 -13t-178.5 51t-148.5 64t-84 13t-53 -19t-19 -45v-64q0 -212 150 -362t361.5 -150t362 150.5t150.5 361.5v64z" />
    <glyph glyph-name="uniE89F" unicode="&#xe89f;" 
d="M640 1024v128h421l-162 163l90 90l317 -317l-317 -317l-90 90l162 163h-421zM1920 640v896h-384v-896h384zM128 1536v-896h1280v896h-1280zM0 1664h2048v-1152h-2048v1152z" />
    <glyph glyph-name="uniE8AD" unicode="&#xe8ad;" 
d="M1024 1920v128h1024v-1024h-128v805l-1827 -1826l-90 90l1826 1827h-805z" />
    <glyph glyph-name="uniE8B5" unicode="&#xe8b5;" 
d="M1792 1150v-128h-1540l305 -305l-90 -90l-461 461l461 461l90 -90l-308 -309h1543zM2048 640h-128v896h128v-896z" />
    <glyph glyph-name="uniE8B7" unicode="&#xe8b7;" 
d="M123 0v2048h1792v-859l-128 -128v-1061h-1664zM1531 1920h-1280v-1792h1408v933l-128 128v731zM1787 1920h-128v-677l64 -65l64 65v677z" />
    <glyph glyph-name="uniE8BB" unicode="&#xe8bb;" 
d="M1931 2037l106 -106l-907 -907l907 -907l-106 -106l-907 907l-907 -907l-106 106l907 907l-907 907l106 106l907 -907z" />
    <glyph glyph-name="uniE8BD" unicode="&#xe8bd;" 
d="M256 512h-256v1408h2048v-1408h-1317l-475 -475v475zM1920 640v1152h-1792v-1152h256v-293l293 293h1243z" />
    <glyph glyph-name="uniE8D2" unicode="&#xe8d2;" 
d="M910 990l-81 -162l-65 196h-378l-85 -256h-135l342 1024h134zM575 1590l-146 -438h292zM1038 256h-377v44q89 16 113 46t55 102l407 960h82l385 -935q41 -99 64 -125q44 -48 130 -48v-44h-449v44h38q80 -3 80 57q0 43 -65 210l-30 73h-448l-12 -27q-91 -195 -91 -253
t82 -58l36 -2v-44zM1235 1149l-169 -381h346z" />
    <glyph glyph-name="uniE8DB" unicode="&#xe8db;" 
d="M753 0h-135l683 2048h134z" />
    <glyph glyph-name="uniE8DC" unicode="&#xe8dc;" 
d="M1535 896v1152h128v-1152q0 -266 -187 -453t-453 -187t-453 187t-187 453v1152h128v-1152q0 -212 150 -362t361.5 -150t362 150.5t150.5 361.5zM1663 0h-1280v128h1280v-128z" />
    <glyph glyph-name="uniE8DD" unicode="&#xe8dd;" 
d="M1183 1088q198 0 340 -140q140 -142 139.5 -341t-140.5 -339t-339 -140h-800v1792h800q172 0 295 -121q121 -123 121.5 -295t-121.5 -294t-295 -122zM959 1664h-192v-512h192q105 0 180.5 75t75.5 181t-75 181t-181 75zM767 896v-512h256q105 0 180.5 75t75.5 181
t-75 181t-181 75h-256z" />
    <glyph glyph-name="uniE8E2" unicode="&#xe8e2;" 
d="M2048 1792h-2048v128h2048v-128zM2048 1536v-128h-1536v128h1536zM2048 1152v-128h-2048v128h2048zM2048 768v-128h-1536v128h1536zM2048 384v-128h-2048v128h2048z" />
    <glyph glyph-name="uniE8E3" unicode="&#xe8e3;" 
d="M2048 1792h-2048v128h2048v-128zM1792 1408h-1536v128h1536v-128zM2048 1152v-128h-2048v128h2048zM1792 640h-1536v128h1536v-128zM2048 384v-128h-2048v128h2048z" />
    <glyph glyph-name="uniE8E4" unicode="&#xe8e4;" 
d="M0 1792v128h2048v-128h-2048zM0 1536h1536v-128h-1536v128zM0 1152h2048v-128h-2048v128zM0 768h1536v-128h-1536v128zM0 384h2048v-128h-2048v128z" />
    <glyph glyph-name="uniE8EE" unicode="&#xe8ee;" 
d="M2048 1040q0 -292 -138 -529t-373 -374t-513 -137t-514 137t-373 373t-137 515t142 519t388 376h-274v128h512v-512h-128v297q-236 -114 -374 -333t-138 -467.5t120 -454.5t326 -328t449 -122t451 123t326 325q120 202 120 448q0 299 -184 541.5t-473 321.5l34 123
q163 -44 302 -139t239 -227t155 -291t55 -313z" />
    <glyph glyph-name="uniE8F1" unicode="&#xe8f1;" 
d="M1628 249l-484 1450l346 116l484 -1450zM511 1792v-1536h-384v1536h384zM1023 1792v-1536h-384v1536h384zM1832 435l-413 1238l-133 -44l412 -1238zM383 384v1280h-128v-1280h128zM895 384v1280h-128v-1280h128z" />
    <glyph glyph-name="uniE8FA" unicode="&#xe8fa;" 
d="M782 1024q-186 0 -334 -86t-234 -232t-86 -322h-128q0 240 137.5 437.5t358.5 280.5q-114 75 -177 187.5t-63 231.5q0 227 150 377t362 150t363 -149q149 -151 149 -363q0 -131 -64 -247t-176 -187q193 -73 322 -231t163 -359h-130q-47 224 -222 368q-85 69 -188 106.5
t-203 37.5zM768 1152q158 0 272 112q112 112 112 272t-112 272t-272 112t-272 -112t-112 -271t113 -272t271 -113zM1792 640v-256h256v-128h-256v-256h-128v256h-256v128h256v256h128z" />
    <glyph glyph-name="uniE8FD" unicode="&#xe8fd;" 
d="M384 384v128h1664v-128h-1664zM0 384v128h128v-128h-128zM384 768v128h1664v-128h-1664zM384 1664h1664v-128h-1664v128zM0 1536v128h128v-128h-128zM384 1152v128h1664v-128h-1664zM0 1152v128h128v-128h-128zM0 768v128h128v-128h-128z" />
    <glyph glyph-name="uniE902" unicode="&#xe902;" 
d="M1408 1538q0 104 75 179t181 75t181 -75t75 -179t-70 -178q92 -51 145 -141t53 -195h-128q0 106 -75 181t-181 75t-181 -75.5t-75 -173.5t-41.5 -180t-114.5 -136q201 -102 242.5 -244.5t41.5 -214.5h-128q0 158 -113 271t-271 113t-271 -113t-113 -271h-128
q0 143 76 268t208 191q-73 54 -114.5 136t-41.5 153q0 126 -75 201t-181 75t-181 -75.5t-75 -180.5h-128q0 102 54 194t144 142q-70 74 -70 178t75 179t181 75t181 -75t75 -179t-70 -178q81 -44 134 -124q54 81 139 126.5t181 45.5t181 -45.5t139 -126.5q53 80 134 124
q-70 74 -70 178zM384 1664q-52 0 -90 -38t-38 -91t37 -90t91 -37t91 38t37 90t-37 91q-39 37 -91 37zM1664 1664q-52 0 -90 -38t-38 -91t37 -90t91 -37t91 38t37 90t-37 91q-39 37 -91 37zM1280 1024q0 106 -75 181t-181 75t-181 -76t-75 -180t76 -180t180 -76t180 75
t76 181z" />
    <glyph glyph-name="uniE909" unicode="&#xe909;" 
d="M1025.5 2048q273.5 0 510 -138t374.5 -374t138 -510t-138 -512t-374 -376t-511 -138t-512 138t-375 375t-138 511.5t138 511t376 374.5t511.5 138zM419 1061q18 0 52 -36l39 -43q20 -23 43 -32l-34 -18l-80 45q3 -3 3 -8t-0.5 -5t-1.5 1l-36 61q-60 1 -138 33t-131 72
l-7 -107q0 -246 126 -458t340 -327q-3 11 -3 28t15.5 67t15.5 94t-54 166t-54 152t7 42l-15 7q5 12 33 45.5t28 55.5t-5 34t-6 18l21 -5q31 68 119 68q10 0 55 -15l35 -11q21 -8 23 -8q1 -7 9 -9t8 -7l-2 -8q8 -2 38 -22t37 -27q33 0 116 -42t147 -97t64 -90l-34 -36
q1 -9 1 -35q0 -56 -42 -88q-22 -16 -53 -30t-65 -34q0 -40 -36 -88t-77 -48l-42 32q2 -2 0.5 -6t-3.5 -4l-2 1q6 -12 6 -28q0 -65 -72 -155q106 -28 218 -28q229 0 427 109t326 304q-37 74 -37 123q-1 49 7 87t8 47q0 36 -58 128q14 68 3 87q-68 8 -104 35l6 5
q-5 -1 -41 -16t-63 -15l-16 2l3 7l-30 -10q-16 -6 -33 -6t-65 25t-49 44l2 3q-4 6 -25 19t-21 27l11 9l-23 3l-8 30q1 -4 9 -4q7 0 11 4l-36 19l25 64q-9 33 -9 72t74 91q26 17 48 48l-3 12l66 80l15 2q129 0 269 32q-63 75 -142 137q-34 -10 -64 -32t-31 -48l6 -19
q-26 -44 -85 -44h-54q-22 0 -42 -9l-16 34l15 58l-17 25l173 54q-23 56 -91 56v10l56 9q-192 94 -382 94t-354 -68t-286 -186q23 0 36.5 -10.5t37.5 -42.5t52 -32l16 12l-2 22l33 47l-26 74q4 2 15 10t41 8q31 0 45 -12q14 -10 28 -30t26 -34l36 28q133 -50 133 -90
q-1 -34 -63 -44t-81 -20q-12 -7 -12 -17l58 -19q-37 -32 -91 -57l4 -17l-92 -36v-28l-7 -3l5 35l-4 1q-9 0 -9 -7v-3q5 -12 3 -14l-13 7l25 -39q0 -5 -22 -13q-2 -1 0 -1q16 0 -4 -5.5t-41 -25.5t-21 -48l1 -21q1 -7 1 -18t-2 -27q-29 78 -110 78l-43 -4l21 -14q-54 6 -58 6
q-52 0 -78 -30l-6 -45q0 -73 63 -73q39 0 116 30q-34 -77 -36 -86l13 -6q13 9 31 9zM1720 1580q5 0 6 -1l-9 12q0 -8 -3 -11h6zM1720 1544q0 -14 24 -30t42 -21q-34 52 -57 83q-1 -7 -5 -12.5t-4 -19.5zM487 1165q30 0 71 -15l32 -13q16 -8 28 -12q-18 -3 -38 -3t-52 18
t-46 18t-34 -13q0 4 -7 4q16 16 46 16zM650 1094q-22 0 -37 4q3 7 9 10t9 12q39 0 75 -14q-34 -12 -56 -12zM1245 1175z" />
    <glyph glyph-name="uniE90A" unicode="&#xe90a;" 
d="M0 512v1408h2048v-1408h-1317l-475 -475v475h-256zM1920 640v1152h-1792v-1152h256v-293l293 293h1243zM768 1024v128h-128v256h256v-256q0 -52 -38 -90t-90 -38zM1280 1024v128h-128v256h256v-256q0 -52 -38 -90t-90 -38z" />
    <glyph glyph-name="uniE90F" unicode="&#xe90f;" 
d="M2048 1482q0 -250 -170 -418t-406 -168q-43 0 -93 8l-806 -806q-98 -98 -238 -98t-236 99q-99 97 -99 237t98 237l806 806q-8 51 -8 111q0 137 79 272q122 206 270.5 246t236.5 40t165 -28t181 -90l-394 -394l102 -102l394 394q62 -104 90 -181t28 -165zM1490 1024
q72 0 154 35t144 97q132 132 132 316q0 74 -24 141l-360 -359l-282 282l359 360q-68 24 -150 24t-163.5 -35t-143.5 -97q-132 -132 -132 -316q0 -54 20 -134l-855 -856q-61 -60 -61 -146t61 -147t147 -61t146 61l856 855q80 -20 152 -20z" />
    <glyph glyph-name="uniE91B" unicode="&#xe91b;" 
d="M2048 256h-2048v1536h2048v-1536zM128 1664v-1280h1792v1280h-1792zM256 512v1024h1536v-1024h-1536zM384 1408v-768h1280v768h-1280z" />
    <glyph glyph-name="uniE91C" unicode="&#xe91c;" 
d="M1152 896v-128h-768v128h768zM1664 1664v-128h-1280v128h1280zM1664 1280v-128h-1280v128h1280zM1920 512v1408h-1792v-1408h565l331 -331l331 331h565zM0 2048h2048v-1664h-640l-384 -384l-384 384h-640v1664z" />
    <glyph glyph-name="uniE921" unicode="&#xe921;" 
d="M2048 1195v-171h-2048v171h2048z" />
    <glyph glyph-name="uniE923" unicode="&#xe923;" 
d="M0 1707h341v341h1707v-1707h-341v-341h-1707v1707zM1707 1707v-1195h170v1365h-1365v-170h1195zM171 1536v-1365h1365v1365h-1365z" />
    <glyph glyph-name="uniE92D" unicode="&#xe92d;" 
d="M1365 1877v171h683v-683h-171v407l-1601 -1601h407v-171h-683v683h171v-407l1601 1601h-407z" />
    <glyph glyph-name="uniE930" unicode="&#xe930;" 
d="M1024 2048q276 0 512 -138t374 -374t138 -512t-138 -513t-373 -374t-513 -137t-514 137t-373 373t-137 514t137 513t374 373t513 138zM1023 1920q-243 0 -447 -120t-326 -328t-122 -448t120 -446t326 -328t449 -122t451 123t326 325q120 202 120 446t-121 450t-327 327
t-449 121zM557 1069l275 -275l659 659l90 -90l-749 -749l-365 365z" />
    <glyph glyph-name="uniE936" unicode="&#xe936;" 
d="M2048 2048l-1024 -1024l-1024 1024h2048z" />
    <glyph glyph-name="uniE93A" unicode="&#xe93a;" 
d="M1791 384v768h128v-896h-1792v1536h1152v-128h-1024v-768h768v-512h768zM1407 1664v128h512v-512h-128v293l-563 -562l-90 90l562 563h-293zM255 768v-384h640v384h-640z" />
    <glyph glyph-name="uniE93B" unicode="&#xe93b;" 
d="M1023 384h768v960l128 128v-1216h-1792v1536h1472l-128 -128h-1216v-768h768v-512zM1151 1024v512h128v-293l467 466l90 -90l-466 -467h293v-128h-512zM255 768v-384h640v384h-640z" />
    <glyph glyph-name="uniE93E" unicode="&#xe93e;" 
d="M501 1024q0 -217 153 -370l-75 -75q-184 186 -184 445t184 445l75 -75q-153 -153 -153 -370zM1653 1024q0 -259 -184 -445l-75 75q153 153 153 370t-153 370l75 75q184 -186 184 -445zM117 978.5q0 -135.5 69 -301.5t197 -294l-75 -75q-217 214 -257 414.5t-40 353
t78 339t219 325.5l75 -75q-195 -195 -230.5 -373t-35.5 -313.5zM2037 972.5q0 -152.5 -78 -339t-219 -325.5l-75 75q194 194 229.5 372.5t35.5 313t-68 301t-197 295.5l75 75q217 -214 257 -414.5t40 -353zM1024 885q29 0 54.5 11t44 29.5t29.5 44t11 54.5t-11 54.5
t-29.5 44t-44 29.5t-54.5 11t-54.5 -11t-44 -29.5t-29.5 -44t-11 -54.5t11 -54.5t29.5 -44t44 -29.5t54.5 -11zM1024 1269q51 0 95.5 -19.5t77.5 -52.5t52.5 -77.5t19.5 -95.5t-19.5 -95.5t-52.5 -77.5t-77.5 -52.5t-95.5 -19.5t-95.5 19.5t-77.5 52.5t-52.5 77.5
t-19.5 95.5t19.5 95.5t52.5 77.5t77.5 52.5t95.5 19.5z" />
    <glyph glyph-name="uniE945" unicode="&#xe945;" 
d="M549 128l1024 1024h-557l384 768h-433l-512 -1024h449l-384 -768h29zM1223 1280h660l-1280 -1280h-290l384 768h-449l640 1280h719z" />
    <glyph glyph-name="uniE946" unicode="&#xe946;" 
d="M960 128q-262 0 -482 129t-349 349t-129 482t128 482t350 349t482 129t481 -129t350 -350t129 -481t-129 -482t-349 -350t-482 -128zM960 1920q-224 0 -416 -112t-304 -304t-112 -416t112 -416t304 -304t416 -112t416 112t304 304t112 416t-112 416t-304 304t-416 112z
M1024 1408h-128v128h128v-128zM1024 640h-128v640h128v-640z" />
    <glyph glyph-name="uniE96B" unicode="&#xe96b;" 
d="M0 512v1280h2048v-1280h-267q-24 72 -56 128h195v1024h-1792v-1024h195q-32 -56 -56 -128h-267zM1408 1146q0 -84 -39.5 -163t-110.5 -133q182 -72 294 -234t112 -360h-128q0 212 -150 362t-361.5 150t-362 -150.5t-150.5 -361.5h-128q0 196 112 360t294 234
q-71 54 -110.5 133t-39.5 163q0 166 112 278t272 112t272 -112t112 -278zM768 1152q0 -52 19.5 -98.5t55.5 -82.5t82.5 -55.5t98.5 -19.5t98.5 19.5t82.5 55.5t55.5 82.5t19.5 98.5t-19.5 98.5t-55.5 82.5t-82.5 55.5t-98.5 19.5t-98.5 -19.5t-82.5 -55.5t-55.5 -82.5
t-19.5 -98.5z" />
    <glyph glyph-name="uniE971" unicode="&#xe971;" 
d="M2022 658l-121 -121l-878 878l-878 -878l-121 121l999 999z" />
    <glyph glyph-name="uniE972" unicode="&#xe972;" 
d="M2022 1390l-999 -999l-999 999l121 121l878 -878l878 878z" />
    <glyph glyph-name="uniE977" unicode="&#xe977;" 
d="M896 1408h1152v-896h-640v-128h256v-128h-640v128h256v128h-384v-256h-896v1664h896v-512zM128 1792v-1408h640v128h-512v128h384v128h-384v128h384v512h128v384h-640zM256 1536v128h384v-128h-384zM768 1280v-640h1152v640h-1152z" />
    <glyph glyph-name="uniE999" unicode="&#xe999;" 
d="M1407 1408v128h512v-512h-128v293l-576 -575l-256 256l-704 -705v-37h1664v-128h-1792v1792h128v-1445l704 703l256 -256l485 486h-293z" />
    <glyph glyph-name="uniE9A7" unicode="&#xe9a7;" 
d="M1152 957v128h426l-85 85l86 86l236 -235l-236 -235l-86 86l85 85h-426zM896 1085v-128h-426l85 -85l-86 -86l-236 235l236 235l86 -86l-85 -85h426zM1920 384v1280h-1792v-1280h1792zM0 1792h2048v-1536h-2048v1536z" />
    <glyph glyph-name="uniE9F8" unicode="&#xe9f8;" 
d="M1536 265l383 192v560l-383 -191v-561zM1025 1017l-1 -561l384 -191v561zM640 713l257 127v320l127 63l-1 242l-383 -191v-561zM129 1465l-1 -561l384 -191v561zM944 1569l-368 183l-368 -183l368 -184zM1840 1121l-368 183l-368 -183l368 -184zM1472 1448l575 -288v-782
l-575 -288l-576 286v321l-320 -159l-576 286l1 784l575 288l575 -288l1 -321z" />
    <glyph glyph-name="uniE9F9" unicode="&#xe9f9;" 
d="M1280 256v896h256v-896h-256zM512 256v640h256v-640h-256zM896 256v384h256v-384h-256zM384 128h1280v1152h-640v640h-640v-1792zM1152 1408h421l-421 421v-421zM1792 0h-1536v2048h859l677 -677v-1371z" />
    <glyph glyph-name="uniEA1E" unicode="&#xea1e;" 
d="M1201 257q-46 0 -79 33t-33 79v493q0 46 24 70q25 24 45 33t43 9q46 0 79 -33t33 -79v-493q0 -46 -24 -70q-42 -42 -88 -42zM1554 260q-46 0 -80 33q-33 33 -33 80v939q0 46 33 79t68 33q58 0 91 -33t33 -79v-939q0 -47 -24 -71q-42 -42 -88 -42zM848 257q-46 0 -79 33
t-33 79v664q0 46 33 79t68 33q58 0 91 -33t33 -79v-664q0 -46 -24 -70q-43 -42 -89 -42zM416 290q-32 32 -33 79v259q0 45 33 78t68 33q58 0 91 -33t33 -78v-259q0 -46 -24 -70q-42 -42 -89 -42q-47 1 -79 33zM1767 463v83h41q66 0 112 46t46 112v844q0 66 -46 112t-112 47
h-1565q-67 -1 -113 -47t-46 -112v-844q0 -66 46 -112t113 -46h41v-83h-41q-101 0 -172 71t-71 170v844q0 100 71 171t172 71h1565q100 0 170 -71t70 -171v-844q0 -98 -70 -170q-70 -71 -170 -71h-41z" />
    <glyph glyph-name="uniEA38" unicode="&#xea38;" 
d="M1087 0h-128v913l-791 -457l-64 112l791 456l-791 456l64 112l791 -457v913h128v-913l791 457l64 -112l-791 -456l791 -456l-64 -112l-791 457v-913z" />
    <glyph glyph-name="uniEA39" unicode="&#xea39;" 
d="M1023.5 2048q278.5 0 513.5 -138t373 -373t138 -513.5t-138 -513t-373 -372.5t-514 -138t-513 138t-372 372t-138 513t139 514t372 373q234 138 512.5 138zM1920 1085q0 183 -122 392q-188 316 -420 379.5t-415.5 63.5t-387 -119t-325.5 -325t-122 -449.5t120 -451
t328 -327.5t512.5 -120t521 215t263.5 387t47 355zM1024 1115l353 352l90 -90l-352 -353l352 -353l-90 -90l-353 352l-353 -352l-90 90l352 353l-352 353l90 90z" />
    <glyph glyph-name="uniEA3A" unicode="&#xea3a;" 
d="M1023.5 2048q278.5 0 513.5 -138t373 -373t138 -513.5t-138 -513t-373 -372.5t-514 -138t-513 138t-372 372t-138 513t139 514t372 373q234 138 512.5 138zM1920 1085q0 183 -122 392q-188 316 -420 379.5t-415.5 63.5t-387 -119t-325.5 -325t-122 -449.5t120 -451
t328 -327.5t512.5 -120t521 215t263.5 387t47 355z" />
    <glyph glyph-name="uniEA3B" unicode="&#xea3b;" 
d="M31 1024q0 270 134 499t360 361t567 132t580 -238t291 -428.5t52 -394t-132 -429.5t-361 -360t-499 -134t-499 135t-361 361t-132 496z" />
    <glyph glyph-name="uniEA4F" unicode="&#xea4f;" 
d="M131 1024h-128v1024h1024v-128h-805l1826 -1827l-90 -90l-1827 1826v-805z" />
    <glyph glyph-name="uniEA51" unicode="&#xea51;" 
d="M1535 1472h-128q0 186 -131 317t-316.5 131t-317.5 -132t-132 -308t91.5 -269t150.5 -148l15 -14q126 -118 176 -196q80 -127 80 -277v-192h-128v192q0 166 -90.5 259t-144.5 144l-21 19q-125 117 -176 198q-80 125 -80 276q0 236 168.5 406t407.5 170t407.5 -168.5
t168.5 -407.5zM895 128h128v-128h-128v128z" />
    <glyph glyph-name="uniEA52" unicode="&#xea52;" 
d="M256 1026v128h1540l-305 305l90 90l461 -461l-461 -461l-90 90l308 309h-1543zM0 1536h128v-896h-128v896z" />
    <glyph glyph-name="uniEA53" unicode="&#xea53;" 
d="M1806 1150l-294 292l90 90l446 -444l-446 -446l-90 90l290 290l-772 2v128zM518 1024v-256h256v256h-256zM518 1152h256v256h-256v-256zM390 1024h-256v-256h256v256zM390 1152v256h-256v-256h256zM902 640h-896v896h896v-896z" />
    <glyph glyph-name="uniEA59" unicode="&#xea59;" 
d="M1023 896h768v768h-1216l-128 128h1472v-1536h-1792v1216l128 -128v-960h768v512zM383 1024v128h293l-466 467l90 90l467 -466v293h128v-512h-512zM1151 768v-384h640v384h-640z" />
    <glyph glyph-name="uniEA5A" unicode="&#xea5a;" 
d="M255 1280h-128v512h512v-128h-293l562 -563l-90 -90l-563 562v-293zM1023 384v512h768v768h-1024v128h1152v-1536h-1792v896h128v-768h768zM1151 768v-384h640v384h-640z" />
    <glyph glyph-name="uniEA63" unicode="&#xea63;" 
d="M1816 1088l226 -677l-2031 677l2031 677zM1703 1152l137 411l-1233 -411h1096zM1840 613l-137 411h-1096z" />
    <glyph glyph-name="uniEA6F" unicode="&#xea6f;" 
d="M1023.5 2048q278.5 0 513.5 -138t373 -373t138 -513.5t-138 -513t-373 -372.5t-514 -138t-513 138t-372 372t-138 513t139 514t372 373q234 138 512.5 138zM1023 1920q-243 0 -447 -120t-326 -328t-122 -448t120 -446t326 -328t449 -122t451 123t326 325q120 202 120 446
t-121 450t-327 327t-449 121zM832 1408h384q80 0 136 -56t56 -136v-384q0 -80 -56 -136t-136 -56h-384q-80 0 -136 56t-56 136v384q0 80 56 136t136 56zM1216 768q26 0 45 19t19 45v384q0 26 -19 45t-45 19h-384q-26 0 -45 -19t-19 -45v-384q0 -26 19 -45t45 -19h384z" />
    <glyph glyph-name="uniEA80" unicode="&#xea80;" 
d="M1367 1751q-169 169 -407 169t-407 -169t-169 -402t178 -413t203 -424h390q25 243 203 424q178 180 178 413t-169 402zM1088 128q26 0 45 19t19 45v192h-384v-192q0 -26 19 -45t45 -19h256zM960 2048q97 0 187 -25t209 -94.5t213.5 -231t94.5 -330.5q0 -307 -202 -507
q-182 -180 -182 -412v-256q0 -80 -56 -136t-136 -56h-256q-80 0 -136 56t-56 136v256q0 232 -172 402q-212 210 -212 498t168.5 456.5t303.5 206t232 37.5z" />
    <glyph glyph-name="uniEA86" unicode="&#xea86;" 
d="M1600 768q-106 0 -181 75t-75 181t75 181t181 75h64v256h-384v192q0 52 -28 80t-50 38q-23 10 -50 10q-52 0 -90 -38t-38 -90v-192h-384v-384h-192q-52 0 -80 -28t-38 -50q-10 -23 -10 -50q0 -52 38 -90t90 -38h192v-384h384v-192q0 -52 28 -80t50 -38q23 -10 50 -10
q52 0 90 38t38 90v192h384v256h-64zM1600 1152q-52 0 -80 -28t-38 -50q-10 -23 -10 -50q0 -52 38 -90t90 -38h192v-512h-384v-64q0 -106 -75 -181t-181 -75t-181 75t-75 181v64h-384v384h-64q-106 0 -181 75t-75 181t75 181t181 75h64v384h384v64q0 106 75 181t181 75
t181 -75t75 -181v-64h384v-512h-192z" />
    <glyph glyph-name="uniEA8F" unicode="&#xea8f;" 
d="M1024 256q53 0 90.5 37.5t37.5 90.5h-256q0 -53 37.5 -90.5t90.5 -37.5zM1536 512v768q0 211 -150.5 361.5t-361.5 150.5t-361.5 -150.5t-150.5 -361.5v-768h1024zM1792 512v-128h-512q0 -106 -75 -181t-181 -75t-181 75t-75 181h-512v128h128v768q0 265 153 418
t276 187.5t211 34.5t170 -23t190 -86t194 -210.5t86 -320.5v-768h128z" />
    <glyph glyph-name="uniEA90" unicode="&#xea90;" 
d="M1280 1152h320v-128h-192v-128h192v-128h-192v-128h-128v512zM896 768q53 0 80.5 27.5t37.5 50.5t10 63t-37.5 77.5t-90.5 37.5v-256zM896 1152q106 0 181 -75t75 -181t-75 -181t-181 -75h-128v512h128zM448 896q26 0 45 19t19 45t-19 45t-45 19h-64v-128h64zM448 1152
q80 0 136 -56t56 -136t-56 -136t-136 -56h-64v-128h-128v512h192zM1792 1280h-1664v-768h1664v768zM1664 384h-1408v-256h1408v256zM256 1408h1408v128h-384v384h-1024v-512zM1408 1664h165l-165 165v-165zM1920 384h-128v-384h-1664v384h-128v1024h128v640h1243l421 -421
v-219h128v-1024z" />
    <glyph glyph-name="uniEAE4" unicode="&#xeae4;" 
d="M1920 641q0 243 -192 399q-60 48 -133 77q-78 -151 -217 -244l93 -126l140 187q19 26 49 26t48 -19q19 -19 19 -43t-13 -41l-180 -239v-105q20 1 42 1q88 2 88 -65t-88 -65q-22 0 -42 1v-41q2 -89 -64 -89q-66 1 -64 89v41q-19 -1 -41 -1q-87 -2 -87 65t88 65q22 0 40 -1
v105l-142 194l-6 -2q22 -75 22 -169q0 -244 -159 -423q131 -90 287 -90q212 0 362 150t150 363zM128 641q0 -213 150 -363t362 -150t362 150t150 363q0 68 -20 134q-54 -9 -108 -9q-215 0 -386 130q-7 -4 -13 -5q-87 -25 -133 -91t-46 -157v-2h126q26 0 45 -19t19 -45
q0 -71 -109 -65q-27 2 -46 1q35 -59 93 -93t119 -33q60 0 94 14q33 14 53 14q20 -1 39 -19t19 -46q0 -48 -76 -74q-52 -18 -117 -17q-124 0 -223 69t-142 185q-83 0 -83 64q-1 26 17 44t44 20q0 181 122 293q40 37 94 60q-49 62 -81 124q-146 -57 -235 -187
q-90 -131 -90 -290zM1024 1920q-106 0 -200 -40t-162 -111q-70 -70 -110 -163t-40 -199q0 -105 40 -199t110 -164t162 -110q94 -40 200 -40t200 40t162 110q70 70 110 164t40 199q0 106 -40 199t-110 163q-70 71 -162 111q-94 40 -200 40zM640 0q-264 0 -452 188t-188 458
q0 192 112 354t296 234q-24 84 -24 172t23 171q23 82 65 153q42 72 100 130t129 100t153 65t170 23t170 -23t153 -65q145 -86 231 -233t86 -320q0 -89 -24 -173q184 -72 296 -234t112 -359q0 -265 -188 -453t-452 -188q-213 0 -383 129q-172 -129 -385 -129zM895 1579
q0 -38 63 -70v139q-19 -6 -25 -12q-14 -5 -26 -20t-12 -37zM1150 1247q0 36 -64 74v-156q64 25 64 82zM767 1585q1 115 121 173q34 16 70 24q0 28 16 50t46 22t48 -18t18 -46q45 -3 131 -26l-44 -120q-35 13 -87 18v-200q128 -45 175 -140q17 -34 17 -76q0 -82 -53 -138
t-139 -76q0 -28 -18 -48t-44 -20q-27 0 -45 17t-20 41q-115 5 -193 43q-37 17 -37 51q0 33 19 52q18 19 38 19q20 1 60 -17t112 -19v219q-191 67 -191 215z" />
    <glyph glyph-name="uniEAE7" unicode="&#xeae7;" 
d="M1408 1664v-1664h-384v1664h384zM896 1152v-1152h-384v1152h384zM1920 0h-384v1152h384v-1152zM384 640v-640h-384v640h384z" />
    <glyph glyph-name="uniEB04" unicode="&#xeb04;" 
d="M987 2048q96 0 189 -18l-187 -945l-947 125q54 362 318 600t627 238zM2048 954q0 -244 -128 -467t-346 -355t-482 -132q-262 0 -487 135t-345 366l834 471l188 956q222 -50 396 -188t272 -340t98 -446zM1005 1918h-18q-274 0 -492 -166t-295 -432l686 -91l136 688
q-6 1 -17 1zM1115 130q209 0 395 113t297 307t111 440t-145 460.5t-391 311.5l-160 -815l-12 -58q-182 -107 -366 -209t-402 -226q108 -152 286 -238t387 -86zM0 1056q0 21 3 42l890 -118l-775 -436q-118 211 -118 470v42zM132 950q5 -103 45 -224l314 176z" />
    <glyph glyph-name="uniEB1C" unicode="&#xeb1c;" 
d="M0 1024q0 278 139 513t372 373q234 138 512.5 138t513.5 -138t373 -373t138 -513.5t-138 -513t-373 -372.5t-513 -138t-514 137t-373 373t-137 514zM1920 1085q0 183 -122 392q-188 316 -420 379.5t-415.5 63.5t-387 -119t-325.5 -325t-122 -450.5t120 -451t326 -326.5
t512.5 -120t523 215t263.5 387t47 355zM1536 1027l-768 -515v1024zM1305 1026l-409 272v-546z" />
    <glyph glyph-name="uniEB24" unicode="&#xeb24;" 
d="M959.5 2048q257.5 0 479 -129t351.5 -351t130 -479.5t-130 -481t-350 -351.5t-479.5 -128t-480 129t-350.5 351t-130 480.5t129 479t351 350.5t479.5 130zM1792 1087.5q0 223.5 -112 416t-304 304.5t-416 112t-416 -112t-304 -304t-112 -416t112 -416t304 -304
t415.5 -112t416 112t304.5 304t112 415.5zM256 1088q0 292 205.5 497t498.5 205q150 0 288 -62l-52 -116q-114 52 -255 52t-271 -78q-202 -121 -244 -270.5t-42 -227.5q0 -238 169 -407l-91 -91q-206 206 -206 498zM1152 1090q0 -40 -14.5 -75.5t-41.5 -62.5t-62 -41.5
t-74 -14.5t-74 14.5t-62 41.5t-41.5 62t-14.5 94.5t56 115.5t136 56q42 0 84 -20l-1 1l368 368l90 -90l-368 -368l-1 1q20 -42 20 -82zM1536 1085q0 125 -52 239l116 52q62 -138 62 -284q0 -298 -204 -502l-91 91q169 169 169 404zM896 1088q0 -26 19 -45t45 -19t45 19
t19 45t-19 45t-45 19t-45 -19t-19 -45z" />
    <glyph glyph-name="uniEB43" unicode="&#xeb43;" 
d="M128 384h1920v-128h-2048v1536h128v-441l525 263l340 -340l459 -115l487 486l90 -90l-537 -538l-565 141l-300 300l-499 -249v-297l520 115l519 -259h354l434 217l58 -114l-462 -231h-414l-505 253l-504 -112v-397z" />
    <glyph glyph-name="uniEB63" unicode="&#xeb63;" 
d="M1920 768q-265 0 -418 -153t-187.5 -276t-34.5 -211h-13l-92 184q65 258 273 421t472 163v-128zM1920 1280v-128q-282 0 -523.5 -144.5t-374.5 -388.5l-68 135q160 246 416.5 386t549.5 140zM1920 1664v-128q-319 0 -606 -137.5t-489 -387.5l-62 124q216 250 520 389.5
t637 139.5zM1728 512q40 0 75 -15t61 -41t41 -61t15 -75t-15 -75t-41 -61t-61 -41t-75 -15t-75 15t-61 41t-41 61t-15 75t15 75t41 61t61 41t75 15zM512 256h128v-128h-128v128zM512 640h128v-320h-128v320zM971 112l-395 790l-395 -790h790zM576 1152l576 -1152h-1152z" />
    <glyph glyph-name="uniEB7E" unicode="&#xeb7e;" 
d="M0 1712q0 140 98 238t238 98t237 -98l1317 -1317l158 -633l-633 158l-1317 1317q-98 97 -98 237zM128 1709q0 -88 80 -163l48 -47l293 293l-47 48q-26 26 -63 53t-91 27q-97 0 -158.5 -61.5t-61.5 -149.5zM1428 326q35 106 111.5 182.5t182.5 111.5l-1082 1081l-293 -293
zM1790 505q-145 -32 -191 -117t-56 -130l329 -82z" />
    <glyph glyph-name="uniEB9E" unicode="&#xeb9e;" 
d="M89 1024l806 645v-1295zM1791 1669v-1295l-806 650zM767 1403l-474 -379l474 -383v762zM1663 1403l-474 -379l474 -383v762z" />
    <glyph glyph-name="uniEC11" unicode="&#xec11;" 
d="M1582 558h-1116q-192 0 -329 137t-137 329t137 329t329 137h1116q192 0 329 -137t137 -329t-137 -329t-329 -137z" />
    <glyph glyph-name="uniEC12" unicode="&#xec12;" 
d="M466 1490h1116q192 0 329 -137t137 -329t-137 -329t-329 -137h-1116q-192 0 -329 137t-137 329t137 329t329 137zM466 652h1116q154 0 264 110t109.5 263t-109.5 262q-111 109 -264 109h-1116q-154 0 -264 -110t-109.5 -263t109.5 -262t264 -109z" />
    <glyph glyph-name="uniEC13" unicode="&#xec13;" 
d="M1472 1536q240 0 408 -168t168 -408t-168 -408t-408 -168h-896q-240 0 -408 168t-168 408t168 408t408 168h896zM1472 1408h-896q-186 0 -317 -131t-131 -317t131 -317t317 -131h896q186 0 317 131t131 317t-131 317t-317 131zM1792 960q0 -132 -94 -226t-226 -94
t-226 94t-94 226t94 226t226 94t226 -94t94 -226z" />
    <glyph glyph-name="uniEC14" unicode="&#xec14;" 
d="M2048 1023.5q0 -276.5 -137 -512t-372 -373.5t-510 -138t-511 138t-377 373t-141 513t138 513t376 373t516 138t519 -139q225 -133 362 -371t137 -514.5z" />
    <glyph glyph-name="uniEC15" unicode="&#xec15;" 
d="M1280 1920q210 0 385.5 -103.5t279 -279t103.5 -385.5h-128q0 265 -153 418t-276 187.5t-211 34.5v128zM1280 1664q213 0 362.5 -149.5t149.5 -362.5h-128q0 159 -112.5 271.5t-271.5 112.5v128zM1408 1152q0 53 -37.5 90.5t-90.5 37.5v128q106 0 181 -75t75 -181h-128z
M1664 1024h128v-640q0 -53 -37.5 -90.5t-90.5 -37.5h-1536q-53 0 -90.5 37.5t-37.5 90.5v1152q0 53 37.5 90.5t90.5 37.5h1024v-128h-1024v-1152h1536v640z" />
    <glyph glyph-name="uniEC28" unicode="&#xec28;" 
d="M1215 51l-1152 266v1414l1152 266v-1946zM1279 1663v129h635q16 0 43 -25t27 -43v-1361q0 -17 -26 -31t-44 -13h-635v130h193v190h-193v66h193v190h-193v66h193v190h-193v66h193v190h-193v66h193v190h-193zM1535 1473h319v190h-319v-190zM502 1392l-171 -9l182 -371
l-198 -371l166 -9l111 243l4 11l9 32l2 10h2q12 -49 14 -52l116 -259l187 -11l-216 409l210 402l-176 -10l-107 -238q-8 -17 -12 -33l-9 -35h-2q-5 27 -20 65zM1535 1217h319v190h-319v-190zM1535 961h319v190h-319v-190zM1535 705h319v190h-319v-190zM1535 449h319v190
h-319v-190z" />
    <glyph glyph-name="uniED14.002" unicode="&#xec29;" 
d="M714 297v-20q0 -7 2 -21l-716 166v1350l1102 253v-1189q-131 -68 -201 -226q-119 -67 -164 -189q-23 -61 -23 -124zM1835 1764v-1047q-44 12 -100 12h-98q-9 11 -59 61l-4 3h138v180h-305v-98q-25 7 -62 10v88h-182v64h182v182h-182v61h182v183h-182v63h182v180h-182v123
h605q16 0 42 -24t25 -41zM1407 1526h305v180h-305v-180zM520 1006h2l3 -8q0 -21 11 -43l110 -247l179 -10l-206 390l200 384l-168 -10l-102 -227q-2 -5 -20 -65h-2l-8 32q-1 5 -11 30l-88 216l-163 -9l174 -354l-189 -354l158 -9l106 232q1 1 1 2l13 46v4zM1407 1280h305
v183h-305v-183zM1407 1037h305v182h-305v-182zM1732 649q132 0 224 -92q92 -85 92 -217.5t-92 -224.5t-221 -92h-666q-114 0 -194 80.5t-80 184.5t64 185q48 55 108 78q29 100 104 166q99 89 230 89t229 -82q52 -45 83 -100q54 25 119 25zM1302 728q-100 0 -178 -70
t-90 -169q-67 -12 -115 -66q-46 -59 -46 -113q0 -139 120 -194q36 -15 76 -15h666q91 0 166 69q69 69 69 166t-69 166q-75 69 -167 69t-161 -65q-19 95 -95 159q-76 63 -176 63z" />
    <glyph glyph-name="uniEC2A" unicode="&#xec2a;" 
d="M653 1429q-35 0 -269 -14v-779l149 -17v277l74 5q15 1 30 1t49 4t76 29t86.5 81t44.5 161q0 252 -240 252zM64 1731l1152 266v-1946l-1152 266v1414zM604 1288q116 0 116 -121q0 -129 -126 -129h-61v242q68 8 71 8zM1728 1280q0 106 -75 181t-181 75v-256h256zM1408 1472
q-67 0 -128 -36v292h640q32 0 48 -27t16 -37v-1280q0 -32 -27 -48t-37 -16h-640v192h512v64h-512v128h512v64h-512v228q112 -66 217.5 -20.5t136 116.5t30.5 124h-256v256z" />
    <glyph glyph-name="uniEC7C" unicode="&#xec7c;" 
d="M576 1664q174 0 320 -97v353h1152v-1152h-419l370 -640h-1404l267 463q-136 -79 -270 -79t-238.5 44.5t-184.5 124.5t-124.5 185t-44.5 282.5t169 346.5t407 169zM1920 896v896h-896v-347q126 -155 128 -353l145 252l258 -448h365zM1024 1088q0 183 -131 316
q-132 132 -316.5 132t-316.5 -132t-132 -317t131 -316t316.5 -131t317.5 132q131 133 131 316zM1057 672q-135 -235 -240 -416h960q-105 181 -240 416t-240 416q-105 -181 -240 -416z" />
    <glyph glyph-name="uniEC7D" unicode="&#xec7d;" 
d="M374 776h-374v44l38 6q25 3 48.5 12.5t78.5 123.5l406 958h82l382 -928q28 -68 59 -116t69 -52t65 -4v-44h-446v44h37q79 -4 79 56t-93 281h-446l-26 -61q-76 -166 -76 -220t81 -54l36 -2v-44zM746 1285l-176 378l-168 -378h344zM1152 1544v116h896v-1524h-1780v384h116
v-268h1548v1292h-780z" />
    <glyph glyph-name="uniEC8C" unicode="&#xec8c;" 
d="M960 1920q175 0 390.5 -48.5t264.5 -137.5t49 -134v-1152q0 -78 -61 -138t-140.5 -93t-168 -53t-176.5 -28t-210.5 -8t-338 48.5t-264.5 137.5t-49 134v1152q0 78 61 138t140.5 93t203.5 61t299 28zM960 1408q40 0 91 3.5t141 15.5t201.5 52.5t127 76.5t15.5 50
q0 30 -117 108t-459.5 78t-459 -78t-116.5 -117t105.5 -103t268 -75t202.5 -11zM1536 448v194q-195 -130 -512.5 -130t-450 46t-189.5 84v-194q0 -50 142 -121t459.5 -71t434 78t116.5 114zM1536 832v194q-195 -130 -512.5 -130t-450 46t-189.5 84v-194q0 -50 142 -121
t459 -71t434 78t117 114zM1536 1216v194q-200 -130 -514.5 -130t-447.5 46.5t-190 83.5v-194q0 -50 142 -121t459.5 -71t434 78t116.5 114z" />
    <glyph glyph-name="uniEC92" unicode="&#xec92;" 
d="M1280 1152h-128v128h128v-128zM1024 1152h-128v128h128v-128zM640 768h128v-128h-128v128zM384 768h128v-128h-128v128zM640 1280h128v-128h-128v128zM640 1024h128v-128h-128v128zM384 1024h128v-128h-128v128zM1536 640h192v-128h-320v384h128v-256zM1472 128
q93 0 174.5 35.5t142 96t96 142t35.5 174.5t-35.5 174.5t-96 142t-142 96t-174.5 35.5t-174.5 -35.5t-142 -96t-96 -142t-35.5 -174.5t35.5 -174.5t96 -142t142 -96t174.5 -35.5zM896 576q0 174 97 320h-97v128h128v-86q124 154 253.5 184t194.5 30h-64v128h128v-128h-64
q100 0 192 -33v289h-1408v-896h643q-3 31 -3 64zM256 1792v-256h1408v256h-128v-128h-128v128h-896v-128h-128v128h-128zM2048 552q0 -96 -45.5 -200.5t-169 -228t-361.5 -123.5q-183 0 -333 106t-210 278h-801v1536h256v128h128v-128h896v128h128v-128h256v-865
q256 -175 256 -503z" />
    <glyph glyph-name="uniECAA" unicode="&#xecaa;" 
d="M1792 1152v768h-768v-768h768zM896 1152v768h-768v-768h768zM896 256v768h-768v-768h768zM0 2048h1920v-1024h-896v-896h-1024v1920z" />
    <glyph glyph-name="uniECAF" unicode="&#xecaf;" 
d="M1024 1144q55 0 103 20t84 57q37 36 57 84t20 103t-20 103t-57 84q-36 37 -84 57t-103 20t-103 -20t-84 -57q-37 -36 -57 -84t-20 -103t20 -103t57 -84q36 -37 84 -57t103 -20zM1024 1784q78 0 146 -30t120 -80q50 -52 80 -120t30 -146t-30 -146t-80 -120
q-52 -50 -120 -80t-146 -30t-146 30t-120 80q-50 52 -80 120t-30 146t30 146t80 120q52 50 120 80t146 30zM496 1408q0 -109 51 -204l1 -1v-1l476 -952l476 952v1l1 1q51 96 51 204q0 109 -42 205t-113 168q-72 71 -168 113t-205 42t-205 -42t-168 -113q-71 -72 -113 -168
t-42 -205zM1024 2048q88 0 170 -23t153 -65q145 -85 231 -231q86 -147 86 -298t-64 -279l-576 -1152l-576 1152q-64 128 -64 236t23 190t65 153t100 129t129 100t153 65t170 23z" />
    <glyph glyph-name="uniECCE" unicode="&#xecce;" 
d="M1346 1792l-512 -1536h-134l512 1536h134zM466 595l-430 429l430 429l90 -90l-338 -339l338 -339zM1828 1024l-338 339l90 90l430 -429l-430 -429l-90 90z" />
    <glyph glyph-name="uniECDC" unicode="&#xecdc;" 
d="M1024 232l640 320v816l-640 -320v-816zM256 1368v-816l640 -320v816zM960 1160l238 118l-622 314l-241 -120zM1585 1472l-625 312l-241 -120l621 -314zM960 1928l832 -416v-1040l-832 -415l-832 415v1040z" />
    </font>
</defs>
</svg>
